<svg xmlns="http://www.w3.org/2000/svg" viewBox="0 0 300 188"><g filter="url(#prefix__a)"><g stroke-linecap="round"><path fill="rgba(87,143,180,255)" stroke="rgba(87,143,180,255)" d="M0 0h300L99 44 0 0"/><path fill="rgba(66,121,149,255)" stroke="rgba(66,121,149,255)" d="M0 188V0l29 149-29 39"/><path fill="rgba(117,159,181,255)" stroke="rgba(117,159,181,255)" d="m0 0 99 44-70 105L0 0"/><path fill="rgba(129,154,158,255)" stroke="rgba(129,154,158,255)" d="m0 188 29-39 62-8-91 47"/><path fill="rgba(127,139,135,255)" stroke="rgba(127,139,135,255)" d="M128 158 0 188l91-47 37 17"/><path fill="rgba(60,120,146,255)" stroke="rgba(60,120,146,255)" d="M29 149 99 44l-8 97-62 8"/><path fill="rgba(66,125,147,255)" stroke="rgba(66,125,147,255)" d="m99 44 29 114-37-17 8-97"/><path fill="rgba(205,202,189,255)" stroke="rgba(205,202,189,255)" d="M300 188H0l183-16 117 16"/><path fill="rgba(204,199,179,255)" stroke="rgba(204,199,179,255)" d="m0 188 128-30 55 14L0 188"/><path fill="rgba(37,122,153,255)" stroke="rgba(37,122,153,255)" d="M300 0v188l-47-64L300 0"/><path fill="rgba(193,183,160,255)" stroke="rgba(193,183,160,255)" d="m300 188-117-16 70-48 47 64"/><path fill="rgba(114,166,190,255)" stroke="rgba(114,166,190,255)" d="M99 44 300 0l-47 124L99 44"/><path fill="rgba(62,134,157,255)" stroke="rgba(62,134,157,255)" d="M128 158 99 44l154 80-125 34"/><path fill="rgba(166,136,110,255)" stroke="rgba(166,136,110,255)" d="m183 172-55-14 125-34-70 48"/></g><rect width="100%" height="100%" fill="#5c8fa4"/></g><filter id="prefix__a"><feGaussianBlur in="SourceGraphic" stdDeviation="12"/><feComponentTransfer><feFuncA tableValues="1 1" type="discrete"/></feComponentTransfer></filter></svg>