<svg xmlns="http://www.w3.org/2000/svg" viewBox="0 0 2000 1500"><filter id="c"><feGaussianBlur stdDeviation="55" /></filter><path fill="#6b6055" d="M0 0h2000v1500H0z"/><g filter='url(#c)' fill-opacity='.5'><ellipse fill="#b49b49" fill-opacity=".5" rx="1" ry="1" transform="matrix(636.1191 -119.04645 21.04282 112.4413 1074.2 1008.7)"/><ellipse fill="#213c57" fill-opacity=".5" rx="1" ry="1" transform="rotate(-88.1 1371 70.2) scale(196.4668 745.82771)"/><ellipse fill="#ac7d57" fill-opacity=".5" rx="1" ry="1" transform="matrix(144.341 -172.18695 395.35829 331.4212 848.2 254.4)"/><ellipse fill="#2d4348" fill-opacity=".5" rx="1" ry="1" transform="matrix(-75.66018 -174.84036 318.64914 -137.8918 478.5 593.5)"/><ellipse fill="#ffcb10" fill-opacity=".5" rx="1" ry="1" transform="matrix(-103.95892 68.48894 -42.58384 -64.63773 391 1496)"/><path fill="#0a1931" fill-opacity=".5" d="M151.3 1162.5l120.8 32.3L169 1579.7l-120.8-32.4z"/><path fill="#f87f5d" fill-opacity=".5" d="M1681.4 395.5l-308.6-166.6L1830 604.2l-65.6-189.7z"/><path fill="#e78566" fill-opacity=".5" d="M1979 1076.7l-215.7 283 11-275.6 14.5-62.6z"/></g></svg>