<svg xmlns="http://www.w3.org/2000/svg" width="2000" height="1500" viewBox="0 0 2000 1500"><filter id="a"><feGaussianBlur stdDeviation="55"/></filter><rect width="100%" height="100%" fill="#6b6054"/><g filter="url(#a)"><g transform="translate(4 4) scale(7.8125)" fill-opacity=".5"><ellipse fill="#ae9b5c" rx="1" ry="1" transform="matrix(-109.27719 22.89028 -2.68173 -12.80246 147.4 124.5)"/><ellipse fill="#1a3954" rx="1" ry="1" transform="matrix(65.20815 -4.44545 1.49475 21.92575 132.1 179.7)"/><ellipse fill="#b17b68" rx="1" ry="1" transform="matrix(-3.89152 25.31802 -57.84653 -8.89134 115.7 26.8)"/><ellipse fill="#f1ae24" cx="140" cy="71" rx="26" ry="8"/><ellipse fill="#ffc60c" rx="1" ry="1" transform="rotate(-126.2 72.2 83.5) scale(8.56802 18.14895)"/><ellipse fill="#34464a" rx="1" ry="1" transform="matrix(42.17703 -19.82607 11.5003 24.46519 60.2 75)"/><ellipse fill="#3b4c4d" rx="1" ry="1" transform="matrix(-17.216 33.22142 -57.38794 -29.73957 247.8 29.2)"/><path fill="#f07e57" d="M189 29.3l2.2 26 35.1-8.4 3.7 40.4z"/></g></g></svg>