<svg xmlns="http://www.w3.org/2000/svg" width="2000" height="1500"><path fill="#6b6054" d="M0 0h2000v1500H0z"/><g fill-opacity=".5"><path fill="#c9ac44" d="M566.4 1191.4L1293 832l468.7 125z"/><path fill="#243c52" d="M168 1168l1953 226.5-1367 226.6z"/><path fill="#b17b61" d="M363.3 339.8L707-66.4 1800.8 457z"/><path fill="#2b434d" d="M605.5 293l492.2 546.8L89.8 722.7z"/><path fill="#ffbc27" d="M832 519.5l429.7-31.2-86 148.4z"/><path fill="#e2ad3f" d="M230.5 1582l226.5-7.8L621 1082z"/><path fill="#e88768" d="M1754 1339.8l23.3-320.3 211 39z"/><path fill="#b5a05f" d="M324.2 1129l351.6 54.6-148.5-406.3z"/><path fill="#111e35" d="M269.5 1035.2L-43 1621l250-46.9z"/><path fill="#b8a5d4" d="M1980.5 871l93.7-125-406.2 47z"/><path fill="#33505c" d="M1472.7-113.3l-117.2 484.4 757.8-351.6z"/><path fill="#b27455" d="M1464.8 238.3v515.6l406.3-203.1z"/><path fill="#1f494d" d="M1949.2-27.3L2121.1 793l-304.7-62.5z"/><path fill="#282932" d="M1058.6 168L613.3 293l367.2 7.8z"/><path fill="#9a8752" d="M339.8-121L-121 519.4l367.2 117.2z"/><path fill="#ff964c" d="M347.7 1285.2l-156.3 109.3 101.6 31.3z"/><path fill="#aab163" d="M1714.8 1011.7l-164-86 265.6-375z"/><path fill="#40485a" d="M1504 972.7L847.6 1621l1054.6-109.4z"/><path fill="#c79679" d="M980.5 222.7L949.2-50.8 433.6 214.8z"/><path fill="#ffa03e" d="M957 379l-242.2 23.3 39.1-125z"/><path fill="#d18745" d="M886.7 910.2l187.5 54.6L894.5 1293z"/><path fill="#001531" d="M925.8 1129l195.3 101.5-195.3-218.8z"/><path fill="#3c3c44" d="M1449.2 504l328.1 85.8-468.7-406.2z"/><path fill="#26414f" d="M1004 582l304.6 312.5 140.6-218.7z"/><path fill="#df986b" d="M97.7 1355.5L-11.7 957l-39 531.3z"/><path fill="#ffab59" d="M277.3 1019.5l-39-164H371z"/><path fill="#161f33" d="M449.2 1043l-46.9-93.8-289 132.8z"/><path fill="#ff7a2c" d="M714.8 1074.2L668 1277.3l109.3-23.4z"/><path fill="#183234" d="M-11.7 449.2l328.1 23.5 125 148.4z"/><path fill="#0f1823" d="M199.2 1504l195.3-203.2 70.3 54.7z"/><path fill="#362e35" d="M824.2 1199.2l-421.9-62.5L207 1308.6z"/><path fill="#ff865c" d="M1761.7 371L1629 425.9l187.5 140.6z"/><path fill="#23334b" d="M1254 332l-250-23.4 289-86z"/><path fill="#d7bb5f" d="M957 402.3l86-85.9 148.4 343.8z"/><path fill="#b6ac7b" d="M1402.3 761.7l31.3 250-218.8 226.6z"/><path fill="#ffb31b" d="M574.2 1621l-289-148.3 140.6-93.8z"/><path fill="#122729" d="M410.2 175.8l39 187.5-211-289z"/><path fill="#d8a280" d="M1152.3 43l93.8 156.2-179.7 62.5z"/><path fill="#1d182e" d="M214.8 246l62.5 125-250-187.4z"/><path fill="#f4a14c" d="M1371 535.2l15.7 101.5-164-117.2z"/><path fill="#bf8862" d="M105.5 105.5l257.8 320.3-109.4-375z"/><path fill="#efa27a" d="M386.7 89.8l265.6 250L496.1 82z"/><path fill="#d4c84e" d="M1597.7 1371l93.7 8-93.7-117.3z"/><path fill="#222234" d="M816.4 191.4l-156.2 250 62.5-226.6z"/><path fill="#e47e67" d="M168 300.8L82 441.4l-195.3-218.7z"/><path fill="#110b15" d="M886.7 402.3l164 140.7-187.4-70.3z"/><path fill="#ff9f49" d="M1011.7 769.5l31.3-109.3 39 85.9z"/><path fill="#152444" d="M519.5 97.7l70.3-218.8H-11.7z"/><path fill="#595a72" d="M1925.8 707l-570.3 54.7 117.2 179.7z"/><path fill="#bcb7b6" d="M1933.6 1293l187.5 54.7-265.6 31.2z"/></g></svg>