<svg xmlns="http://www.w3.org/2000/svg" viewBox="0 0 2000 1500"><filter id="b"><feGaussianBlur stdDeviation="12" /></filter><path fill="#6b6055" d="M0 0h2000v1500H0z"/><g filter="url(#b)" transform="translate(4 4) scale(7.8125)" fill-opacity=".5"><ellipse fill="#203b56" rx="1" ry="1" transform="matrix(91.708 -.35224 .12943 33.69836 155.1 191)"/><ellipse fill="#c1a145" rx="1" ry="1" transform="matrix(-1.76514 -13.5786 60.82394 -7.90675 156.3 122.7)"/><ellipse fill="#a77b59" rx="1" ry="1" transform="matrix(15.68516 -28.76861 56.30802 30.70013 124 38.6)"/><ellipse fill="#334647" rx="1" ry="1" transform="rotate(-20 233.8 -143) scale(40.56346 29.50185)"/><path fill="#ff9721" d="M52 200.7l-25.3-22.8L38 165.3l25.2 22.8z"/><path fill="#ad9cc7" d="M252 114.8l-10.3-6.7-40.2-7 67.6-5.4z"/><ellipse fill="#c4b866" cx="81" cy="143" rx="41" ry="6"/><ellipse fill="#fc8b66" rx="1" ry="1" transform="rotate(37.2 26.5 337.1) scale(34.2745 3.9849)"/></g></svg>