<svg xmlns="http://www.w3.org/2000/svg" viewBox="0 0 2000 1500"><filter id="b"><feGaussianBlur stdDeviation="12" /></filter><path fill="#6b6055" d="M0 0h2000v1500H0z"/><g filter="url(#b)" transform="translate(4 4) scale(7.8125)" fill-opacity=".5"><ellipse fill="#193751" cx="139" cy="182" rx="72" ry="23"/><ellipse fill="#b6a351" rx="1" ry="1" transform="matrix(-2.75691 -10.76065 89.51698 -22.93454 155.7 125.2)"/><ellipse fill="#a77b58" rx="1" ry="1" transform="matrix(14.71607 -28.95545 57.29233 29.11775 124.9 39.4)"/><path fill="#33494d" d="M118.7 101l-94.9 5-2.5-49 94.9-5z"/><path fill="#ffdc11" d="M55 177.4l9.2 16.6L45 204.6 35.8 188z"/><path fill="#ff8d6c" d="M232.1 75.4L189.6 42l4.3-5.5L236.4 70z"/><path fill="#dc7b67" d="M251.7 136l-22.8-6.2-7.8 37.9 8.2 3.7z"/><ellipse fill="#2d253b" rx="1" ry="1" transform="matrix(-12.00187 41.31072 -9.64475 -2.80206 20.5 169.2)"/></g></svg>