<svg xmlns="http://www.w3.org/2000/svg" viewBox="0 0 300 225"><g filter="url(#prefix__a)"><g stroke-linecap="round"><path fill="rgba(46,47,65,255)" stroke="rgba(46,47,65,255)" d="M300 0v225L226 89l74-89"/><path fill="rgba(89,92,75,255)" stroke="rgba(89,92,75,255)" d="M0 0h300l-96 53L0 0"/><path fill="rgba(131,93,106,255)" stroke="rgba(131,93,106,255)" d="m180 85-37 17 61-49-24 32"/><path fill="rgba(63,64,74,255)" stroke="rgba(63,64,74,255)" d="m300 0-74 89-22-36 96-53"/><path fill="rgba(75,87,75,255)" stroke="rgba(75,87,75,255)" d="m226 89-46-4 24-32 22 36"/><path fill="rgba(27,61,50,255)" stroke="rgba(27,61,50,255)" d="M0 225V0l38 67L0 225"/><path fill="rgba(117,121,124,255)" stroke="rgba(117,121,124,255)" d="M143 102 0 225 38 67l105 35"/><path fill="rgba(94,79,40,255)" stroke="rgba(94,79,40,255)" d="m0 0 204 53L38 67 0 0"/><path fill="rgba(153,145,135,255)" stroke="rgba(153,145,135,255)" d="m204 53-61 49L38 67l166-14"/><path fill="rgba(99,121,119,255)" stroke="rgba(99,121,119,255)" d="M300 225H0l196-94 104 94"/><path fill="rgba(141,145,86,255)" stroke="rgba(141,145,86,255)" d="m0 225 143-123 53 29L0 225"/><path fill="rgba(59,63,62,255)" stroke="rgba(59,63,62,255)" d="m226 89 74 136-104-94 30-42"/><path fill="rgba(41,60,64,255)" stroke="rgba(41,60,64,255)" d="m143 102 37-17 16 46-53-29"/><path fill="rgba(151,165,166,255)" stroke="rgba(151,165,166,255)" d="m180 85 46 4-30 42-16-46"/></g><rect width="100%" height="100%" fill="#968658"/></g><filter id="prefix__a"><feGaussianBlur in="SourceGraphic" stdDeviation="12"/><feComponentTransfer><feFuncA tableValues="1 1" type="discrete"/></feComponentTransfer></filter></svg>