<svg xmlns="http://www.w3.org/2000/svg" viewBox="0 0 2000 1500"><filter id="c"><feGaussianBlur stdDeviation="55" /></filter><path fill="#6b6055" d="M0 0h2000v1500H0z"/><g filter='url(#c)' fill-opacity='.5'><ellipse fill="#ac9953" fill-opacity=".5" rx="1" ry="1" transform="rotate(-100.6 973.2 26.7) scale(110.79687 824.34435)"/><ellipse fill="#203c56" fill-opacity=".5" rx="1" ry="1" transform="rotate(-90.7 1342.9 151.5) scale(257.63976 734.61841)"/><ellipse fill="#aa7c56" fill-opacity=".5" rx="1" ry="1" transform="rotate(128.6 370 351.2) scale(241.02587 475.31724)"/><ellipse fill="#39484b" fill-opacity=".5" rx="1" ry="1" transform="matrix(-56.72493 -157.11446 473.77647 -171.05324 481 617.5)"/><path fill="#ffd60a" fill-opacity=".5" d="M297.2 1617.9l-65.3-77.8 197.5-165.8 65.3 77.8z"/><ellipse fill="#3b4b4c" fill-opacity=".5" rx="1" ry="1" transform="matrix(-220.71436 217.50028 -332.47533 -337.38844 1844.7 141.6)"/><path fill="#ff9062" fill-opacity=".5" d="M1738.3 371l125 203.2-273.5-125z"/><ellipse fill="#172439" fill-opacity=".5" rx="1" ry="1" transform="matrix(-136.16003 320.47868 -51.5571 -21.90478 174.5 1330.4)"/></g></svg>