<svg xmlns="http://www.w3.org/2000/svg" viewBox="0 0 2000 1500"><filter id="b"><feGaussianBlur stdDeviation="12" /></filter><path fill="#6b6055" d="M0 0h2000v1500H0z"/><g filter="url(#b)" transform="translate(4 4) scale(7.8125)" fill-opacity=".5"><ellipse fill="#aa985c" rx="1" ry="1" transform="rotate(-10.8 724.6 -762.5) scale(116.51954 13.9596)"/><ellipse fill="#1a3851" cx="135" cy="180" rx="74" ry="21"/><ellipse fill="#d29879" rx="1" ry="1" transform="rotate(-27.9 83.4 -176.7) scale(39.8696 12.33564)"/><path fill="#ac7e4a" d="M102 17h57v62h-57z"/><ellipse fill="#2c414b" rx="1" ry="1" transform="rotate(157.6 22.1 45.9) scale(48.96778 20.19053)"/><path fill="#ffd611" d="M45.2 205.6l-10.6-14.5 20.2-14.7 10.6 14.5z"/><ellipse fill="#122035" rx="1" ry="1" transform="matrix(10.3699 2.91114 -11.29703 40.24164 16.5 190.8)"/><path fill="#e38256" d="M214.8 46.2l23 23.2-51.2.5 3 35.9z"/></g></svg>