<svg xmlns="http://www.w3.org/2000/svg" width="2000" height="1500" viewBox="0 0 2000 1500"><filter id="a"><feGaussianBlur stdDeviation="55"/></filter><rect width="100%" height="100%" fill="#6b6054"/><g filter="url(#a)"><g transform="translate(4 4) scale(7.8125)" fill-opacity=".5"><ellipse fill="#b09c59" rx="1" ry="1" transform="rotate(166.7 74.5 71) scale(101.00382 12.8271)"/><ellipse fill="#1e3b56" cx="154" cy="184" rx="91" ry="26"/><ellipse fill="#a3795a" rx="1" ry="1" transform="matrix(-18.01383 33.83914 -53.44196 -28.44913 119 35.5)"/><ellipse fill="#2f4448" rx="1" ry="1" transform="rotate(-111 56 15.3) scale(28.24111 41.57137)"/><path fill="#ff9522" d="M48.3 200.4l-21.5-22.3 13-12.5 21.4 22.3z"/><ellipse fill="#28243c" rx="1" ry="1" transform="matrix(-9.63776 -2.25433 9.66972 -41.34016 21.8 169.5)"/><path fill="#ff805d" d="M221.4 49l1.3-.5 11.7 26.9-47-33.3z"/><ellipse fill="#384c4f" rx="1" ry="1" transform="matrix(22.38566 31.85157 -33.49329 23.53948 228.4 11.7)"/></g></g></svg>