<svg xmlns="http://www.w3.org/2000/svg" width="800" height="600"><path fill="#716159" d="M0 0h100v100H0z"/><path fill="#796658" d="M100 0h100v100H100z"/><path fill="#947069" d="M200 0h100v100H200z"/><path fill="#927369" d="M300 0h100v100H300z"/><path fill="#7d6465" d="M400 0h100v100H400z"/><path fill="#6a5f67" d="M500 0h100v100H500z"/><path fill="#50575d" d="M600 0h100v100H600z"/><path fill="#545951" d="M700 0h100v100H700z"/><path fill="#877055" d="M0 100h100v100H0z"/><path fill="#6d6350" d="M100 100h100v100H100z"/><path fill="#6f6050" d="M200 100h100v100H200z"/><path fill="#89634a" d="M300 100h100v100H300z"/><path fill="#907055" d="M400 100h100v100H400z"/><path fill="#745d58" d="M500 100h100v100H500z"/><path fill="#7d5b51" d="M600 100h100v100H600z"/><path fill="#5c584d" d="M700 100h100v100H700z"/><path fill="#626550" d="M0 200h100v100H0z"/><path fill="#495254" d="M100 200h100v100H100z"/><path fill="#4d5456" d="M200 200h100v100H200z"/><path fill="#655f51" d="M300 200h100v100H300z"/><path fill="#7a6a4c" d="M400 200h100v100H400z"/><path fill="#685d53" d="M500 200h100v100H500z"/><path fill="#8b6c5a" d="M600 200h100v100H600z"/><path fill="#636164" d="M700 200h100v100H700z"/><path fill="#605d60" d="M0 300h100v100H0z"/><path fill="#7b675a" d="M100 300h100v100H100z"/><path fill="#686559" d="M200 300h100v100H200z"/><path fill="#655e58" d="M300 300h100v100H300z"/><path fill="#806e51" d="M400 300h100v100H400z"/><path fill="#83735f" d="M500 300h100v100H500z"/><path fill="#807a5b" d="M600 300h100v100H600z"/><path fill="#6d6e6e" d="M700 300h100v100H700z"/><path fill="#6f5859" d="M0 400h100v100H0z"/><path fill="#686259" d="M100 400h100v100H100z"/><path fill="#7f6c52" d="M200 400h100v100H200z"/><path fill="#81664e" d="M300 400h100v100H300z"/><path fill="#877254" d="M400 400h100v100H400z"/><path fill="#6e6657" d="M500 400h100v100H500z"/><path fill="#705b54" d="M600 400h100v100H600z"/><path fill="#88665a" d="M700 400h100v100H700z"/><path fill="#655050" d="M0 500h100v100H0z"/><path fill="#7a6344" d="M100 500h100v100H100z"/><path fill="#565653" d="M200 500h100v100H200z"/><path fill="#454654" d="M300 500h100v100H300z"/><path fill="#3d495b" d="M400 500h100v100H400z"/><path fill="#444b5b" d="M500 500h100v100H500z"/><path fill="#58525c" d="M600 500h100v100H600z"/><path fill="#5d5267" d="M700 500h100v100H700z"/></svg>