<svg xmlns="http://www.w3.org/2000/svg" viewBox="0 0 2000 1500"><filter id="c"><feGaussianBlur stdDeviation="55" /></filter><path fill="#6b6055" d="M0 0h2000v1500H0z"/><g filter='url(#c)' fill-opacity='.5'><ellipse fill="#b4a04f" fill-opacity=".5" rx="1" ry="1" transform="matrix(21.48822 94.40535 -691.83695 157.47353 1205.6 981.2)"/><ellipse fill="#213b57" fill-opacity=".5" rx="1" ry="1" transform="matrix(-19.1872 249.28933 -807.3384 -62.13892 1318.6 1496)"/><ellipse fill="#a4785b" fill-opacity=".5" rx="1" ry="1" transform="matrix(-496.45144 -373.17893 167.70206 -223.09923 883.7 188)"/><ellipse fill="#2d4348" fill-opacity=".5" rx="1" ry="1" transform="matrix(-73.34845 -161.5257 337.27112 -153.15404 475.3 601.8)"/><ellipse fill="#ffca0c" fill-opacity=".5" rx="1" ry="1" transform="rotate(-35.3 2540.2 156.7) scale(139.35741 65.33292)"/><path fill="#324e48" fill-opacity=".5" d="M1472.7-105.5L2121 4l-62.5 859.4z"/><path fill="#ff9168" fill-opacity=".5" d="M1613.3 464.8l265.6 125-156.2-226.5z"/><path fill="#e7a91c" fill-opacity=".5" d="M902.3 511.7H1254v93.8H902.3z"/></g></svg>