<svg xmlns="http://www.w3.org/2000/svg" width="2000" height="1500"><path fill="#6b6054" d="M0 0h2000v1500H0z"/><g fill-opacity=".5"><path fill="#b69850" d="M863.3 1246l15.6-351.5 1226.6-125z"/><path fill="#e9a380" d="M933.6-74.2l39 257.8-585.9 70.3z"/><path fill="#2b3d59" d="M988.3 1066.4L2121 1457 285 1621z"/><path fill="#30434e" d="M-121 808.6l742-500L1050.9 793z"/><path fill="#c38e3c" d="M1550.8 644.5L707 254l148.5 328z"/><path fill="#ffd314" d="M425.8 1386.7L668 1621.1l-390.7-140.6z"/><path fill="#b8a05d" d="M496 824.2L754 1168l-422-31.3z"/><path fill="#ff8761" d="M1480.5 324.2l265.6 70.3 93.7 195.3z"/><path fill="#b9816e" d="M1379 308.6L1136.6 43 941.4 472.7z"/><path fill="#0c1b33" d="M-11.7 1566.4l296.9-531.2-101.6 570.3z"/><path fill="#e48068" d="M1754 1363.3l250-304.7-218.8-23.4z"/><path fill="#1c4d4d" d="M1879-121v898.3l242-85.9z"/><path fill="#9d8a52" d="M238.3 621L332-121l-437.5 656.2z"/><path fill="#a592d2" d="M2121 746l-164 133-296.8-101.7z"/><path fill="#ff925d" d="M879 1074.2l101.5 109.4L871 1300.8z"/><path fill="#264856" d="M1629 402.3L1386.6-121l554.7 62.5z"/><path fill="#1e3c50" d="M1050.8 800.8l211-250 226.5 218.7z"/><path fill="#ed9f5e" d="M1480.5 504l-15.7 257.7L1629 660.2z"/><path fill="#ffac51" d="M324.2 1293l-125 109.3 125-23.4z"/><path fill="#000826" d="M855.5 402.3l39 117.2 140.7-39z"/><path fill="#d8bf81" d="M1847.7 519.5l-156.3 101.6 46.9 132.8z"/><path fill="#dd976a" d="M-121 1527.3l218.7-164L-43 808.6z"/><path fill="#bdb276" d="M1394.5 816.4l-211 476.6 281.3-320.3z"/><path fill="#1a2d39" d="M121 1332l484.5-78-172-101.7z"/><path fill="#faab54" d="M277.3 1004l-39-109.5 171.9-78z"/><path fill="#d69770" d="M394.5 89.8l250 273.5-39-289z"/><path fill="#dbab3b" d="M863.3 925.8l398.4 54.7-257.8 117.2z"/><path fill="#ff9b52" d="M699.2 394.5L761.7 293l281.3 46.8z"/><path fill="#ffd537" d="M1011.7 464.8l148.5 179.7 54.6-86z"/><path fill="#1d2338" d="M441.4 1043l-375 78 336-195.2z"/><path fill="#e4ba5a" d="M597.7 1097.7l-70.4 101.5 382.9-93.7z"/><path fill="#27353f" d="M621 1621l78.2-656.2-203.1 500z"/><path fill="#303541" d="M1277.3 347.7l-7.8-101.6-328 54.7z"/><path fill="#0c1c2b" d="M1511.7 972.7l-70.3 234.3-101.6-78z"/><path fill="#263e3c" d="M472.7 488.3L-43 441.4l461 171.9z"/><path fill="#b8dc9a" d="M566.4 1386.7L511.7 1254l-93.7 54.7z"/><path fill="#e5dc53" d="M558.6 800.8L386.7 832l164 47z"/><path fill="#112327" d="M449.2 355.5l-164-211L402.3 129z"/><path fill="#f67b64" d="M121 707l8 109.4-93.8-125z"/><path fill="#352843" d="M2121 1129l-242 7.7-86 226.6z"/><path fill="#1f2c34" d="M1425.8 699.2l62.5-257.8L1371 504z"/><path fill="#ffa942" d="M1519.5 957l195.3 23.5-132.8-125z"/><path fill="#1f1c31" d="M269.5 355.5l-250-172 187.5 47z"/><path fill="#d3b26a" d="M308.6 386.7l-78.1-148.4L402.3 293z"/><path fill="#142344" d="M-11.7-121L582-74.3l-62.5 172z"/><path fill="#ff9c43" d="M1004 746l78 15.7-7.8-93.7z"/><path fill="#171224" d="M902.3 332l31.3-93.7-226.6-7.8z"/><path fill="#e7d852" d="M1699.2 1386.7l-109.4-101.5 15.7 85.9z"/><path fill="#c7accb" d="M1410.2 1199.2l-93.8 7.8 46.9 78.2z"/><path fill="#2b414a" d="M707 1269.5l164 304.7 843.8-320.3z"/></g></svg>