<svg xmlns="http://www.w3.org/2000/svg" width="2000" height="1500" viewBox="0 0 2000 1500"><filter id="a"><feGaussianBlur stdDeviation="55"/></filter><rect width="100%" height="100%" fill="#6b6054"/><g filter="url(#a)" fill-opacity=".5"><ellipse fill="#203b57" rx="1" ry="1" transform="matrix(-19.39417 246.20709 -800.81897 -63.08193 1310.9 1496)"/><ellipse fill="#b19c4c" rx="1" ry="1" transform="matrix(-720.65573 142.4747 -20.9145 -105.78825 1095 1006)"/><ellipse fill="#b0795f" rx="1" ry="1" transform="matrix(455.33635 83.4091 -31.79957 173.5962 928.6 265.4)"/><path fill="#ffda11" d="M433.6 1379L582 1582l-304.7-86z"/><ellipse fill="#e0a632" rx="1" ry="1" transform="rotate(-86.2 846.3 -301.4) scale(49.57796 296.8135)"/><ellipse fill="#31454d" rx="1" ry="1" transform="matrix(329.96707 133.40157 -79.03754 195.49832 582.1 592.5)"/><path fill="#b1aae7" d="M1707 769.5h297v70.3h-297z"/><path fill="#121f36" d="M34.5 1612.5l131.3-49.5 120.5-374.1-153.2-13.8z"/></g></svg>