<svg xmlns="http://www.w3.org/2000/svg" viewBox="0 0 2000 1500"><filter id="b"><feGaussianBlur stdDeviation="12" /></filter><path fill="#6b6054" d="M0 0h2000v1500H0z"/><g filter="url(#b)" transform="translate(4 4) scale(7.8125)" fill-opacity=".5"><ellipse fill="#c5a545" rx="1" ry="1" transform="rotate(-96.7 134.1 -9.6) scale(12.83761 59.94128)"/><ellipse fill="#1e3b56" cx="153" cy="185" rx="89" ry="28"/><ellipse fill="#a5795b" rx="1" ry="1" transform="matrix(20.59768 -29.24475 61.05286 43.0008 115.6 28.7)"/><ellipse fill="#2b424a" rx="1" ry="1" transform="rotate(153.9 21.8 45.6) scale(46.13935 22.52918)"/><ellipse fill="#ffc80c" rx="1" ry="1" transform="matrix(-14.64089 9.56187 -4.66758 -7.14688 46.7 191)"/><path fill="#c5bf70" d="M40 137h75v9H40z"/><ellipse fill="#ff8e6c" rx="1" ry="1" transform="matrix(21.48934 14.8663 -2.38297 3.4446 218 59)"/><ellipse fill="#aa9cc1" rx="1" ry="1" transform="rotate(-177.2 124.5 49.2) scale(32.53214 7.08292)"/></g></svg>