<svg xmlns="http://www.w3.org/2000/svg" viewBox="0 0 2000 1500"><filter id="b"><feGaussianBlur stdDeviation="12" /></filter><path fill="#6b6055" d="M0 0h2000v1500H0z"/><g filter="url(#b)" transform="translate(4 4) scale(7.8125)" fill-opacity=".5"><ellipse fill="#193751" cx="136" cy="180" rx="72" ry="21"/><path fill="#baa253" d="M271 99l-147.3 12.7L67.5 153l112.7-20.5z"/><ellipse fill="#a3795b" rx="1" ry="1" transform="matrix(21.65305 -32.59047 52.91105 35.15402 119.5 31.1)"/><ellipse fill="#304446" rx="1" ry="1" transform="matrix(38.34077 -14.52802 9.9263 26.1964 63.5 72.1)"/><path fill="#ffc210" d="M73.7 207l-19.3-35.4 2.4 2.7-33.3 25.3z"/><ellipse fill="#152137" rx="1" ry="1" transform="matrix(13.8993 -36.9785 7.59723 2.85561 21 173.5)"/><ellipse fill="#ff8c6a" rx="1" ry="1" transform="matrix(2.34823 -2.89982 22.75173 18.42398 213.9 55.8)"/><path fill="#f6a873" d="M125.2 16.3L61.3 34.2 56.8 31l6.8-11z"/></g></svg>