<svg xmlns="http://www.w3.org/2000/svg" viewBox="0 0 2000 1500"><filter id="b"><feGaussianBlur stdDeviation="12" /></filter><path fill="#6b6055" d="M0 0h2000v1500H0z"/><g filter="url(#b)" transform="translate(4 4) scale(7.8125)" fill-opacity=".5"><ellipse fill="#b49e4b" rx="1" ry="1" transform="matrix(2.2735 13.44178 -92.48755 15.6431 132.4 129.3)"/><ellipse fill="#213c56" rx="1" ry="1" transform="matrix(1.05344 -30.16664 94.24045 3.29095 156 188)"/><ellipse fill="#ac7b62" cx="109" cy="28" rx="52" ry="29"/><path fill="#2d454d" d="M134 109L84 31 11 91z"/><path fill="#f0b32b" d="M151.2 78.7l-53.9-9.5 38.2-6.2 33.2 2.7z"/><path fill="#ffd811" d="M66.3 192.2l-20 13.4-10.6-15.8 20-13.4z"/><path fill="#162136" d="M13.4 165.4l25.6-36-16.3 74.3-19.6-4.2z"/><path fill="#b3aae6" d="M218 98h38v9h-38z"/></g></svg>