<svg xmlns="http://www.w3.org/2000/svg" viewBox="0 0 2000 1500"><filter id="b"><feGaussianBlur stdDeviation="12" /></filter><path fill="#6b6055" d="M0 0h2000v1500H0z"/><g filter="url(#b)" transform="translate(4 4) scale(7.8125)" fill-opacity=".5"><ellipse fill="#153750" rx="1" ry="1" transform="matrix(-2.40913 -22.62139 60.05445 -6.39567 122 183.5)"/><ellipse fill="#c0a24a" rx="1" ry="1" transform="matrix(55.37954 -7.68455 2.03457 14.66237 165.5 121.5)"/><ellipse fill="#a1735a" rx="1" ry="1" transform="matrix(11.80515 -27.41125 95.1462 40.97643 140.2 40.4)"/><path fill="#ffd711" d="M56.6 176.8l9.5 16.4-20.7 12-9.5-16.4z"/><path fill="#2d444b" d="M29.6 104.8l-4-44.9 76.8-6.7 4 44.9z"/><path fill="#c1b465" d="M43 138h75v11H43z"/><ellipse fill="#e8b025" cx="134" cy="70" rx="27" ry="7"/><path fill="#b0a8e4" d="M218.4 99.7l.9 6.7 48 .8-18.2-10.3z"/></g></svg>