<svg xmlns="http://www.w3.org/2000/svg" width="2000" height="1500"><path fill="#6b6054" d="M0 0h2000v1500H0z"/><g fill-opacity=".5"><path fill="#baa047" d="M2004 871L449.1 1222.8 1050.8 832z"/><path fill="#253b52" d="M855.5 1621L2121 1394.6 43 1152.3z"/><path fill="#bd8658" d="M1230.5 668L918-50.8 418 214.8z"/><path fill="#ffd411" d="M433.6 1371L582 1582l-296.8-93.7z"/><path fill="#31474f" d="M636.7 308.6l570.3 664-1156.2-289z"/><path fill="#ff8b63" d="M1457 308.6l281.3 93.7 117.2 187.5z"/><path fill="#bca560" d="M527.3 777.3l140.7 375-336-31.2z"/><path fill="#e98569" d="M1988.3 1074.2l-234.4 273.5 23.4-328.2z"/><path fill="#171831" d="M996 199.2l62.6 109.4-453.1-31.3z"/><path fill="#324e49" d="M2121-121l-648.3 23.3 546.8 906.3z"/><path fill="#cd9b36" d="M1175.8 464.8L1621 668 824.2 558.6z"/><path fill="#b1a2d3" d="M1964.8 863.3L2121.1 746l-492.2 39z"/><path fill="#e5947b" d="M1175.8 43l70.3 203-265.6 39.2z"/><path fill="#0e1e33" d="M152.3 1621l148.5-539-390.6 539z"/><path fill="#163748" d="M1261.7 543l-171.9 226.5 390.7 7.8z"/><path fill="#b89168" d="M11.7 566.4L394.5-121 113.3 113.3z"/><path fill="#c0db92" d="M402.3 1308.6l164.1 70.3-15.6-132.8z"/><path fill="#ffa146" d="M238.3 1457L371 1300.8l-125 54.7z"/><path fill="#ef9e61" d="M1480.5 511.7L1621 629l-164 140.6z"/><path fill="#313f52" d="M1691.4 1293l-742.2 211 562.5-539.2z"/><path fill="#ffa860" d="M902.3 1269.5l70.4-101.5-101.6-93.8z"/><path fill="#000f21" d="M824.2 488.3l78.1-93.8L1004 504z"/><path fill="#d9916e" d="M-35.2 949.2l39.1 500 109.4-140.6z"/><path fill="#ff6351" d="M1746 207l109.5 70.3 23.4-140.6z"/><path fill="#d18a75" d="M504 254l460.8-125-593.7-54.8z"/><path fill="#ffdf2a" d="M285.2 613.3L97.7 519.5v70.3z"/><path fill="#262439" d="M27.3 1144.5l406.3-250-15.6 156.3z"/><path fill="#ffa94b" d="M254 918l117-86-93.7 187.5z"/><path fill="#beb074" d="M1394.5 808.6l78.2 187.5-265.7 257.8z"/><path fill="#1b394d" d="M2121 972.7l-367-125 15.5 148.4z"/><path fill="#464a45" d="M1004 1113.3L754 847.7l-203.2 226.5z"/><path fill="#d9c17e" d="M1699.2 621l31.3 125 125-210.8z"/><path fill="#f4732d" d="M730.5 1082l39 179.7-117.2 31.3z"/><path fill="#e0a857" d="M355.5 371l-101.6-54.6-7.8-257.8z"/><path fill="#ea8d71" d="M1316.4 402.3L1293 191.4l132.8 289z"/><path fill="#ceb135" d="M808.6 1113.3l343.7-62.5 62.5-179.7z"/><path fill="#1d143a" d="M1160.2 1121l-226.6-39 132.8 179.7z"/><path fill="#ffac4a" d="M949.2 332l-211-39-15.5 101.5z"/><path fill="#1a2a35" d="M1504 425.8l-78.2 234.4-70.3-156.3z"/><path fill="#28353c" d="M27.3 199.2L50.8 66.4 269.5 332z"/><path fill="#415367" d="M972.7-121l726.5 531.2-15.6-531.3z"/><path fill="#cbab6c" d="M1246 394.5l-296.8 15.7 281.3-109.4z"/><path fill="#382a44" d="M1785.2 1355.5l101.5-242.2 234.4 70.3z"/><path fill="#b8b1b5" d="M1879 1394.5l242-54.7-218.7-31.2z"/><path fill="#162929" d="M386.7 300.8L293 121l179.7 47z"/><path fill="#04101b" d="M636.7 1160.2l109.4 31.2-171.9 86z"/><path fill="#d7d8b4" d="M1355.5 11.7L1543-121 1402.3 74.2z"/><path fill="#e5ae4a" d="M1754 988.3l-148.5-140.6-93.8 109.3z"/><path fill="#122342" d="M574.2-66.4l-54.7 164L293 4z"/><path fill="#d6ce5b" d="M1589.8 1339.8v-78l117.2 140.5z"/></g></svg>