<svg xmlns="http://www.w3.org/2000/svg" viewBox="0 0 2000 1500"><filter id="b"><feGaussianBlur stdDeviation="12" /></filter><path fill="#6b6054" d="M0 0h2000v1500H0z"/><g filter="url(#b)" transform="translate(4 4) scale(7.8125)" fill-opacity=".5"><ellipse fill="#253e5a" cx="165" cy="181" rx="101" ry="23"/><ellipse fill="#b09b51" rx="1" ry="1" transform="rotate(168.1 68.1 71) scale(97.1393 13.53461)"/><ellipse fill="#b07c68" cx="105" cy="23" rx="52" ry="26"/><ellipse fill="#ffda0c" rx="1" ry="1" transform="matrix(-4.20686 -6.50282 12.09056 -7.82173 48.8 189.7)"/><path fill="#e6ac35" d="M161.2 63.6l-23.2-3L108.7 71l74 10.6z"/><ellipse fill="#2e434a" rx="1" ry="1" transform="rotate(156.7 22.1 44.7) scale(46.95988 23.36709)"/><ellipse fill="#a098dd" rx="1" ry="1" transform="rotate(92.5 78.2 173.6) scale(5.49262 39.33718)"/><ellipse fill="#141f33" rx="1" ry="1" transform="matrix(-8.87425 -3.60825 9.78844 -24.07398 19 174.9)"/></g></svg>