<svg xmlns="http://www.w3.org/2000/svg" viewBox="0 0 300 225"><filter id="prefix__a"><feGaussianBlur stdDeviation="12"/></filter><rect width="100%" height="100%" fill="#968658"/><g filter="url(#prefix__a)"><g stroke-linecap="round"><path fill="rgba(56,70,77,255)" stroke="rgba(56,70,77,255)" d="M0 225V0l13 130-13 95"/><path fill="rgba(50,67,72,255)" stroke="rgba(50,67,72,255)" d="M300 225H0l38-52 262 52"/><path fill="rgba(136,106,72,255)" stroke="rgba(136,106,72,255)" d="M300 225 38 173l93-102 169 154"/><path fill="rgba(157,155,130,255)" stroke="rgba(157,155,130,255)" d="m38 173-25-43 118-59-93 102"/><path fill="rgba(104,78,81,255)" stroke="rgba(104,78,81,255)" d="m0 225 13-95 5 32-18 63"/><path fill="rgba(165,156,127,255)" stroke="rgba(165,156,127,255)" d="m13 130 25 43-20-11-5-32"/><path fill="rgba(119,92,109,255)" stroke="rgba(119,92,109,255)" d="M38 173 0 225l18-63 20 11"/><path fill="rgba(33,78,63,255)" stroke="rgba(33,78,63,255)" d="M300 0v225L257 43l43-43"/><path fill="rgba(113,96,70,255)" stroke="rgba(113,96,70,255)" d="M300 225 131 71l126-28 43 182"/><path fill="rgba(180,125,131,255)" stroke="rgba(180,125,131,255)" d="M0 0h300L105 7 0 0"/><path fill="rgba(240,202,129,255)" stroke="rgba(240,202,129,255)" d="M13 130 0 0l105 7-92 123"/><path fill="rgba(43,44,27,255)" stroke="rgba(43,44,27,255)" d="M131 71 13 130 105 7l26 64"/><path fill="rgba(114,112,133,255)" stroke="rgba(114,112,133,255)" d="m300 0-43 43L105 7l195-7"/><path fill="rgba(85,50,46,255)" stroke="rgba(85,50,46,255)" d="M257 43 131 71 105 7l152 36"/></g></g></svg>