<svg xmlns="http://www.w3.org/2000/svg" viewBox="0 0 300 225"><filter id="prefix__a"><feGaussianBlur stdDeviation="12"/></filter><g filter="url(#prefix__a)"><g stroke-linecap="round"><path fill="rgba(40,49,72,255)" stroke="rgba(40,49,72,255)" d="M300 225H0l153-75 147 75"/><path fill="rgba(148,114,128,255)" stroke="rgba(148,114,128,255)" d="M0 0h300L42 79 0 0"/><path fill="rgba(40,38,31,255)" stroke="rgba(40,38,31,255)" d="M0 225V0l42 79L0 225"/><path fill="rgba(168,125,134,255)" stroke="rgba(168,125,134,255)" d="M42 79 300 0 88 112 42 79"/><path fill="rgba(111,105,77,255)" stroke="rgba(111,105,77,255)" d="M153 150 0 225l84-98 69 23"/><path fill="rgba(135,148,141,255)" stroke="rgba(135,148,141,255)" d="m88 112 65 38-69-23 4-15"/><path fill="rgba(223,140,98,255)" stroke="rgba(223,140,98,255)" d="M0 225 42 79l42 48-84 98"/><path fill="rgba(71,84,90,255)" stroke="rgba(71,84,90,255)" d="m42 79 46 33-4 15-42-48"/><path fill="rgba(157,151,175,255)" stroke="rgba(157,151,175,255)" d="M300 0v225l-25-90L300 0"/><path fill="rgba(130,128,115,255)" stroke="rgba(130,128,115,255)" d="m300 225-147-75 122-15 25 90"/><path fill="rgba(103,93,81,255)" stroke="rgba(103,93,81,255)" d="m153 150-65-38 75 15-10 23"/><path fill="rgba(244,154,6,255)" stroke="rgba(244,154,6,255)" d="M88 112 300 0 163 127l-75-15"/><path fill="rgba(74,52,52,255)" stroke="rgba(74,52,52,255)" d="m300 0-25 135-112-8L300 0"/><path fill="rgba(89,104,73,255)" stroke="rgba(89,104,73,255)" d="m275 135-122 15 10-23 112 8"/></g></g></svg>