<svg xmlns="http://www.w3.org/2000/svg" width="2000" height="1500" viewBox="0 0 2000 1500"><filter id="a"><feGaussianBlur stdDeviation="55"/></filter><rect width="100%" height="100%" fill="#909e9f"/><g filter="url(#a)"><g transform="translate(4 4) scale(7.8125)" fill-opacity=".5"><ellipse fill="#3f2d1e" rx="1" ry="1" transform="matrix(-51.19002 33.81323 -15.2759 -23.12627 65.7 178.2)"/><ellipse fill="#fff" rx="1" ry="1" transform="matrix(31.58354 49.68222 -25.67421 16.32138 186.5 191)"/><ellipse fill="#7ed9ff" cx="183" rx="85" ry="85"/><ellipse fill="#002f30" rx="1" ry="1" transform="rotate(118.4 -3.6 61.7) scale(10.50722 78.8776)"/><ellipse fill="#0f444a" rx="1" ry="1" transform="matrix(46.49526 18.00085 -5.55275 14.34247 19.5 134.7)"/><ellipse fill="#dbf3ff" rx="1" ry="1" transform="rotate(-15.4 94.2 -235) scale(45.8535 15.91671)"/><ellipse fill="#ffffed" rx="1" ry="1" transform="rotate(-154.4 31.8 52.7) scale(57.99604 12.90453)"/><ellipse fill="#836556" rx="1" ry="1" transform="matrix(-60.31009 -43.9777 32.54936 -44.6375 255 136.5)"/></g></g></svg>