<svg xmlns="http://www.w3.org/2000/svg" viewBox="0 0 2000 1500"><filter id="b"><feGaussianBlur stdDeviation="12" /></filter><path fill="#909e9f" d="M0 0h2000v1500H0z"/><g filter="url(#b)" transform="translate(4 4) scale(7.8125)" fill-opacity=".5"><ellipse fill="#402e20" rx="1" ry="1" transform="rotate(-124.9 79.6 73.5) scale(28.62313 66.79367)"/><ellipse fill="#fffffa" rx="1" ry="1" transform="matrix(-22.49134 17.90265 -33.67389 -42.30496 185 182.9)"/><path fill="#87dcff" d="M191 104L30-16 271 1z"/><ellipse fill="#002a2f" rx="1" ry="1" transform="matrix(4.78018 -8.7949 68.40676 37.18025 49.3 95)"/><ellipse fill="#fff" rx="1" ry="1" transform="matrix(5.24781 -10.25513 43.20898 22.11115 46.5 115.6)"/><ellipse fill="#073c45" rx="1" ry="1" transform="matrix(-62.6332 -26.48684 5.2712 -12.46478 17 134)"/><ellipse fill="#836555" cx="241" cy="121" rx="80" ry="42"/><ellipse fill="#fff" rx="1" ry="1" transform="rotate(172.9 -2.6 82.2) scale(30.74905 13.76272)"/></g></svg>