<svg xmlns="http://www.w3.org/2000/svg" width="2000" height="1500" viewBox="0 0 2000 1500"><filter id="a"><feGaussianBlur stdDeviation="55"/></filter><rect width="100%" height="100%" fill="#909e9f"/><g filter="url(#a)"><g transform="translate(4 4) scale(7.8125)" fill-opacity=".5"><ellipse fill="#402d1f" rx="1" ry="1" transform="rotate(51.5 -156 161.7) scale(31.10629 64.2835)"/><ellipse fill="#fff" rx="1" ry="1" transform="matrix(-32.28215 -32.73607 17.1869 -16.9486 179 174)"/><ellipse fill="#7bd8ff" cx="185" cy="6" rx="80" ry="80"/><ellipse fill="#00232c" rx="1" ry="1" transform="matrix(-4.32216 8.50962 -57.66647 -29.28966 48.1 94.7)"/><path fill="#fff" d="M-16 72l45 53 76 11z"/><ellipse fill="#e0faff" rx="1" ry="1" transform="rotate(76.4 23 51) scale(14.55576 43.70542)"/><ellipse fill="#fff7de" rx="1" ry="1" transform="rotate(-147.9 49 32.4) scale(76.67593 9.03162)"/><path fill="#003642" d="M61.4 165.7l-78.2-33.3 9.4-22 78.2 33.2z"/></g></g></svg>