<svg xmlns="http://www.w3.org/2000/svg" viewBox="0 0 2000 1500"><filter id="b"><feGaussianBlur stdDeviation="12" /></filter><path fill="#909e9f" d="M0 0h2000v1500H0z"/><g filter="url(#b)" transform="translate(4 4) scale(7.8125)" fill-opacity=".5"><path fill="#33291c" d="M37.4 205.2l2.3-67 71 2.6-2.4 67z"/><ellipse fill="#fff" rx="1" ry="1" transform="matrix(-32.16335 -46.01297 23.40444 -16.35985 187 188.4)"/><ellipse fill="#7cd9ff" cx="187" cy="6" rx="91" ry="74"/><ellipse fill="#002930" rx="1" ry="1" transform="matrix(-114.29887 -62.44797 4.79018 -8.7675 11.1 74.6)"/><ellipse fill="#fff" rx="1" ry="1" transform="rotate(-63.3 108.4 26.2) scale(11.22129 59.21614)"/><path fill="#003a49" d="M-15.5 133.9L-5 110l58.4 26L43 160z"/><path fill="#e1f5fe" d="M11.8 32l76.6-48 21.8 13.2-8.3 35.4z"/><ellipse fill="#826455" cx="255" cy="129" rx="64" ry="64"/></g></svg>