<svg xmlns="http://www.w3.org/2000/svg" width="2000" height="1500"><path fill="#909e9f" d="M0 0h2000v1500H0z"/><g fill-opacity=".5"><path fill="#392312" d="M-27.3 1488.3l859.3 15.6 31.3-523.4z"/><path fill="#88deff" d="M246-121l1195.4 906.2 679.7-765.7z"/><path fill="#fff" d="M1160.2 972.7l31.2 648.4 601.6-218.8z"/><path fill="#002e36" d="M863.3 1050.8L269.5 519.5l-390.6 39z"/><path fill="#fffffe" d="M-121 574.2l312.4 390.6L871.1 1082z"/><path fill="#03363f" d="M43 1136.7l-164-320.3 937.4 429.7z"/><path fill="#fffde4" d="M-121 144.5L933.5 847.7l-625-211z"/><path fill="#7f6050" d="M2074.2 1621l-937.5-695.2 984.4-539z"/><path fill="#fff" d="M-121 1472.7l484.3-211-461-203.1zm273.3-1336l375 195.3L675.8 11.7z"/><path fill="#024b55" d="M285.2 410.2L1175.8 957 832 566.4z"/><path fill="#fffadc" d="M1144.5 707l-453-148.4-320.4-375z"/><path fill="#fde8dc" d="M1175.8 1379l914-304.8-750 546.9z"/><path fill="#fffff5" d="M933.6 980.5l218.7-15.7-546.8-343.7z"/><path fill="#726b60" d="M1191.4 1582l-54.7-546.8-828.1-484.4z"/><path fill="#252b1c" d="M855.5 363.3L503.9 253.9l586 390.6z"/><path fill="#89582b" d="M332 222.7L230.5 394.5l718.7 257.8z"/><path fill="#040e07" d="M1175.8 988.3h179.7L964.8 714.8z"/><path fill="#0e0600" d="M2121 1043l-578 195.3 242.2-179.7z"/><path fill="#f7d1b5" d="M574.2 191.4L1168 410.2l398.4 515.6z"/><path fill="#6db6d7" d="M1589.8 699.2L675.8-121 2121 285.2z"/><path fill="#050e05" d="M1339.8 847.7l109.4-39.1-343.7-156.3z"/><path fill="#fffde4" d="M1379 871l-164.2 15.7-203-234.4z"/><path fill="#2693b9" d="M-121 339.8L-11.8-89.8l500 70.3z"/><path fill="#5d4633" d="M2121 1394.5l-390.5 226.6-15.7-281.3z"/><path fill="#412b15" d="M449.2 675.8L-121 613.3V394.5z"/><path fill="#006683" d="M214.8 722.7l687.5 367.1-179.6-250z"/><path fill="#fff3e7" d="M89.8 738.3l500 390.6 179.7-109.4z"/><path fill="#b2712f" d="M613.3 1089.8L207 1035.2l-328-281.3z"/><path fill="#0b5c77" d="M480.5 1089.8l-54.7 179.7-546.9-218.7z"/><path fill="#c0b8b4" d="M1254 1144.5l750-304.7-179.8 234.4z"/><path fill="#fde9dd" d="M1183.6 1621l664-7.7-671.8-640.6z"/><path fill="#b3d2e4" d="M300.8 238.3L152.3-113.3 97.7 418z"/><path fill="#371c00" d="M902.3 957L597.7 777.3l156.2 172z"/><path fill="#f9cba3" d="M980.5 988.3L128.9 503.9l539 140.6z"/><path fill="#2a2417" d="M480.5 402.3l-304.7-54.6 273.4 140.6z"/><path fill="#f6faff" d="M199.2 457l609.4 359.4-281.3-289z"/><path fill="#f9caa1" d="M957 582l187.5 250-554.7-375z"/><path fill="#261d11" d="M1863.3 816.4l-171.9 132.8L2043 808.6z"/><path fill="#cec4bc" d="M1793 761.7l-242.2 226.6-296.9 31.2z"/><path fill="#343433" d="M1933.6 1183.6L1777.3 1293l-125-7.8z"/><path fill="#6a635b" d="M636.7 1097.7l664 515.6L191.5 1371z"/><path fill="#5da4bf" d="M886.7-121v445.2l679.7-273.4z"/><path fill="#e7f3fb" d="M1316.4 683.6L863.3 355.5l531.2 195.3z"/><path fill="#f1e4e0" d="M488.3 121L871 308.7 457-121.1z"/><path fill="#87cae7" d="M1964.8-121l156.3 500-523.4 273.3z"/><path fill="#b98353" d="M480.5 636.7l-578.2-164-23.4-195.4z"/><path fill="#fffcfd" d="M-121 293H74.1l234.4 203z"/><path fill="#fffaf7" d="M-121 754l515.5 195.2L58.5 707z"/><path fill="#425d5c" d="M1129 550.8l265.5 328.1-578-414z"/></g></svg>