<svg xmlns="http://www.w3.org/2000/svg" viewBox="0 0 300 225"><g filter="url(#prefix__a)"><g stroke-linecap="round"><path fill="rgba(176,206,220,255)" stroke="rgba(176,206,220,255)" d="M0 0h300L60 32 0 0"/><path fill="rgba(182,200,212,255)" stroke="rgba(182,200,212,255)" d="M300 0v225L66 103 300 0"/><path fill="rgba(124,171,189,255)" stroke="rgba(124,171,189,255)" d="M60 32 300 0 66 103l-6-71"/><path fill="rgba(102,92,81,255)" stroke="rgba(102,92,81,255)" d="M300 225H0l57-48 243 48"/><path fill="rgba(138,139,143,255)" stroke="rgba(138,139,143,255)" d="m66 103 234 122-243-48 9-74"/><path fill="rgba(48,39,32,255)" stroke="rgba(48,39,32,255)" d="M0 225V0l1 38-1 187"/><path fill="rgba(94,104,103,255)" stroke="rgba(94,104,103,255)" d="M57 177 0 225 1 38l56 139"/><path fill="rgba(151,183,198,255)" stroke="rgba(151,183,198,255)" d="m0 0 60 32-42 2L0 0"/><path fill="rgba(69,139,162,255)" stroke="rgba(69,139,162,255)" d="M1 38 0 0l18 34-17 4"/><path fill="rgba(16,115,134,255)" stroke="rgba(16,115,134,255)" d="m66 103-9 74L41 62l25 41"/><path fill="rgba(92,103,112,255)" stroke="rgba(92,103,112,255)" d="M57 177 1 38l40 24 16 115"/><path fill="rgba(78,68,56,255)" stroke="rgba(78,68,56,255)" d="m60 32 6 71-25-41 19-30"/><path fill="rgba(97,109,121,255)" stroke="rgba(97,109,121,255)" d="m18 34 42-2-19 30-23-28"/><path fill="rgba(148,183,197,255)" stroke="rgba(148,183,197,255)" d="m1 38 17-4 23 28L1 38"/></g><rect width="100%" height="100%" fill="#6693ac"/></g><filter id="prefix__a"><feGaussianBlur in="SourceGraphic" stdDeviation="12"/><feComponentTransfer><feFuncA tableValues="1 1" type="discrete"/></feComponentTransfer></filter></svg>