<svg xmlns="http://www.w3.org/2000/svg" viewBox="0 0 2000 1500"><filter id="b"><feGaussianBlur stdDeviation="12" /></filter><path fill="#909e9f" d="M0 0h2000v1500H0z"/><g filter="url(#b)" transform="translate(4 4) scale(7.8125)" fill-opacity=".5"><ellipse fill="#402e20" rx="1" ry="1" transform="matrix(16.65327 24.32148 -47.39512 32.45212 72 177)"/><ellipse fill="#fff" rx="1" ry="1" transform="matrix(-22.3551 15.94573 -36.3314 -50.93475 189.2 191)"/><ellipse fill="#7dd9ff" cx="184" cy="1" rx="84" ry="84"/><ellipse fill="#e4f5fd" cx="71" cy="19" rx="43" ry="16"/><ellipse fill="#002b30" rx="1" ry="1" transform="matrix(4.76973 -8.54742 76.44959 42.6613 45.4 92.8)"/><ellipse fill="#fff" rx="1" ry="1" transform="matrix(-53.88605 -26.7335 4.43742 -8.9444 36.3 110.4)"/><ellipse fill="#013a44" rx="1" ry="1" transform="matrix(4.94291 -12.43837 48.64301 19.33036 24.1 136.5)"/><ellipse fill="#7d5e4f" rx="1" ry="1" transform="matrix(-15.77076 -32.42124 53.58329 -26.06468 227.3 113.5)"/></g></svg>