<svg xmlns="http://www.w3.org/2000/svg" viewBox="0 0 2000 1500"><filter id="b"><feGaussianBlur stdDeviation="12" /></filter><path fill="#909e9f" d="M0 0h2000v1500H0z"/><g filter="url(#b)" transform="translate(4 4) scale(7.8125)" fill-opacity=".5"><ellipse fill="#3f2c1e" rx="1" ry="1" transform="matrix(18.73336 24.1775 -47.06759 36.46919 68.2 180.7)"/><ellipse fill="#fff" rx="1" ry="1" transform="matrix(-25.31816 16.33163 -28.04967 -43.4841 184.5 188.6)"/><ellipse fill="#7fd9ff" cx="183" cy="14" rx="85" ry="69"/><ellipse fill="#00232d" rx="1" ry="1" transform="matrix(-4.18867 7.94452 -60.54987 -31.92432 54.1 98)"/><ellipse fill="#fffffe" rx="1" ry="1" transform="matrix(-50.46616 -25.61183 5.01837 -9.88832 43.1 114.7)"/><ellipse fill="#093e46" rx="1" ry="1" transform="rotate(-157.3 24.3 65.5) scale(54.31079 14.34952)"/><ellipse fill="#826454" cx="232" cy="121" rx="77" ry="36"/><ellipse fill="#dff7ff" rx="1" ry="1" transform="matrix(42.33363 -13.25429 4.42558 14.13512 63 17)"/></g></svg>