<svg xmlns="http://www.w3.org/2000/svg" viewBox="0 0 2000 1500"><filter id="b"><feGaussianBlur stdDeviation="12" /></filter><path fill="#909e9f" d="M0 0h2000v1500H0z"/><g filter="url(#b)" transform="translate(4 4) scale(7.8125)" fill-opacity=".5"><ellipse fill="#3d2b1c" rx="1" ry="1" transform="matrix(-15.98734 -24.48174 42.39467 -27.68504 73.3 175.4)"/><ellipse fill="#fff" rx="1" ry="1" transform="matrix(-23.66762 15.98549 -33.87112 -50.14853 187.7 191)"/><ellipse fill="#7dd9ff" cx="184" rx="85" ry="85"/><ellipse fill="#00252b" rx="1" ry="1" transform="matrix(-4.37293 8.23331 -77.82224 -41.33343 44 92.3)"/><ellipse fill="#dff9ff" rx="1" ry="1" transform="matrix(43.80495 -12.91208 4.0957 13.89488 65.1 15.8)"/><ellipse fill="#fff" rx="1" ry="1" transform="matrix(-4.41421 9.01053 -57.93675 -28.38292 37.4 111.3)"/><ellipse fill="#003547" rx="1" ry="1" transform="rotate(-162.3 25.7 67.6) scale(37.92429 12.73907)"/><ellipse fill="#826455" cx="255" cy="128" rx="64" ry="64"/></g></svg>