<svg xmlns="http://www.w3.org/2000/svg" width="2000" height="1500"><path fill="#909e9f" d="M0 0h2000v1500H0z"/><g fill-opacity=".5"><path fill="#3a2413" d="M863.3 972.7L-121.1 1543l953.1 78z"/><path fill="#fff" d="M1769.5 1394.5L1207 1621.1l-54.7-656.3z"/><path fill="#8df" d="M2121 27.3L254-121l1195.2 914z"/><path fill="#002c33" d="M-121 566.4l945.2 445.3L230.5 504z"/><path fill="#043943" d="M-121 800.8l148.3 336 765.7 125z"/><path fill="#fff" d="M168 957l-289-382.8 953 484.4z"/><path fill="#6a4f43" d="M2121 1043l-625 234.3 437.6-835.9z"/><path fill="#ffefd3" d="M-121 160.2l359.3 468.7 750 234.4z"/><path fill="#fff" d="M-121 1058.6L66.3 1418l289-156.3zm664-718.8L644.5-19.5 152.3 152.3z"/><path fill="#0c1d15" d="M1121 957l336 62.5L808.6 629z"/><path fill="#063f42" d="M1011.7 847.7L652.3 457 175.8 332z"/><path fill="#ffeed0" d="M660.2 558.6l-265.7-375 797 562.5z"/><path fill="#5f381f" d="M1918 1621l-242.2-226.5 445.3-218.7z"/><path fill="#194549" d="M605.5 957L214.8 566.4l851.6 476.6z"/><path fill="ivory" d="M550.8 582l593.7 375L918 980.5z"/><path fill="#142e27" d="M847.7 371l226.5 281.3L519.5 254z"/><path fill="#937565" d="M1504 1222.7l-258-367.2L2074.3 418z"/><path fill="#ffece1" d="M1261.7 449.2l-586-234.4 757.9 570.4z"/><path fill="#ffeddd" d="M1207 996l-39 625 593.7-179.6z"/><path fill="#170d00" d="M1886.7 1144.5l234.4-203-570.3 250z"/><path fill="#70b6d6" d="M308.6-121l1601.6 750L2121-19.6z"/><path fill="#7f542d" d="M-58.6 324.2L-121 589.8l695.3 109.4z"/><path fill="#0c1d16" d="M1097.7 605.5l156.2 203 195.3 39.2z"/><path fill="#fff" d="M1371 925.8l-335.8-234.4 218.7 70.3z"/><path fill="#2793ba" d="M-74.2-105.5l86 367.2 625-375z"/><path fill="#976336" d="M355.5 238.3l570.3 390.6-742.2-257.8z"/><path fill="#fff6e8" d="M754 1019.5L152.2 722.7l406.3 406.2z"/><path fill="#6a6a69" d="M1144.5 980.5l31.3 640.6L207 1175.8z"/><path fill="#ccc6c0" d="M2050.8 816.4L1418 1089.8l250 31.3z"/><path fill="#b8742f" d="M-74.2 769.5L246 1043l328.1 31.2z"/><path fill="#007aa1" d="M269.5 754l250 15.5 281.3 265.7z"/><path fill="#b5d3e4" d="M160.2 402.3L121-27.3l250 140.6z"/><path fill="#06607d" d="M363.3 1254l187.5-125-671.9-117.3z"/><path fill="#fffbff" d="M136.7 441.4l609.4 328.1-242.2-250z"/><path fill="#dacfc3" d="M472.7 105.5L832-11.7 918 457z"/><path fill="#f2e0d7" d="M1293 1324.2l640.6-179.7-789 476.6z"/><path fill="#010000" d="M144.5 543l-23.4 132.8-242.2-125z"/><path fill="#120c05" d="M1418 925.8l-265.7-7.8 86 93.7z"/><path fill="#8ac9e3" d="M2121 363.3l-539 312.5 320.3-796.9z"/><path fill="#ae743b" d="M1035.2 957l-547-296.8L636.8 871z"/><path fill="#097390" d="M1082 910.2L496 519.5l312.6 78.2z"/><path fill="#6fafc8" d="M660.2 136.7L1355.5-121l171.8 804.7z"/><path fill="#d5c4b6" d="M1261.7 1027.3L1644.5 832l-234.3 218.8z"/><path fill="#443b27" d="M1363.3 1097.7l171.9-148.5L1793 918z"/><path fill="#fff4f2" d="M-121 730.5l648.3 304.7-234.3-250z"/><path fill="#a77c55" d="M941.4 402.3l-421.9-125 101.6-117.1z"/><path fill="#f3e1d5" d="M1707 1597.7l-406.2-507.9 414 234.4z"/><path fill="#918884" d="M1902.3 488.3l-593.7 625L2121 683.6z"/><path fill="#ffeee5" d="M-82 1074.2l171.8 320.3L355.5 1254z"/></g></svg>