<svg xmlns="http://www.w3.org/2000/svg" viewBox="0 0 2000 1500"><filter id="b"><feGaussianBlur stdDeviation="12" /></filter><path fill="#909e9f" d="M0 0h2000v1500H0z"/><g filter="url(#b)" transform="translate(4 4) scale(7.8125)" fill-opacity=".5"><ellipse fill="#3f2d1f" rx="1" ry="1" transform="matrix(41.22419 -34.28578 21.69995 26.09136 73.1 181.3)"/><ellipse fill="#fff" rx="1" ry="1" transform="matrix(-33.7651 -34.35961 17.65565 -17.35016 182.4 177.9)"/><ellipse fill="#80d9ff" cx="182" rx="86" ry="86"/><ellipse fill="#002c31" rx="1" ry="1" transform="matrix(-85.02358 -46.16404 4.54981 -8.37971 46.2 93.5)"/><ellipse fill="#003846" rx="1" ry="1" transform="matrix(4.60917 -12.59514 44.47444 16.27533 22.2 136.3)"/><ellipse fill="#fff" rx="1" ry="1" transform="matrix(-54.34966 -26.5081 4.79149 -9.824 40.6 112.6)"/><path fill="#eefbff" d="M114-16L68 45 23 17z"/><ellipse fill="#826456" cx="255" cy="128" rx="64" ry="64"/></g></svg>