<svg xmlns="http://www.w3.org/2000/svg" viewBox="0 0 2000 1500"><filter id="b"><feGaussianBlur stdDeviation="12" /></filter><path fill="#909e9f" d="M0 0h2000v1500H0z"/><g filter="url(#b)" transform="translate(4 4) scale(7.8125)" fill-opacity=".5"><ellipse fill="#fff" rx="1" ry="1" transform="matrix(-38.53157 -51.3044 21.82786 -16.39356 191.5 191)"/><path fill="#3e2919" d="M-5 191l124-72-15 77z"/><ellipse fill="#7ed9ff" cx="183" rx="85" ry="85"/><ellipse fill="#002931" rx="1" ry="1" transform="rotate(117.8 -3.4 63.8) scale(9.77655 71.82526)"/><ellipse fill="#def6ff" rx="1" ry="1" transform="rotate(164.5 31.5 13) scale(45.30198 15.03797)"/><ellipse fill="#fffffc" rx="1" ry="1" transform="rotate(-66 94.3 34.7) scale(11.72478 70.80719)"/><ellipse fill="#053b45" rx="1" ry="1" transform="matrix(-48.81702 -19.22954 4.9396 -12.53989 28.6 139)"/><ellipse fill="#ffe" rx="1" ry="1" transform="rotate(122.8 15.7 66) scale(6.91629 114.13568)"/></g></svg>