<svg xmlns="http://www.w3.org/2000/svg" viewBox="0 0 300 225"><filter id="prefix__a"><feGaussianBlur stdDeviation="12"/></filter><g filter="url(#prefix__a)"><g stroke-linecap="round"><path fill="rgba(41,46,40,255)" stroke="rgba(41,46,40,255)" d="M0 225V0l42 62L0 225"/><path fill="rgba(136,137,141,255)" stroke="rgba(136,137,141,255)" d="M300 225H0l118-38 182 38"/><path fill="rgba(66,52,27,255)" stroke="rgba(66,52,27,255)" d="M0 225 42 62l76 125L0 225"/><path fill="rgba(100,166,192,255)" stroke="rgba(100,166,192,255)" d="M0 0h300L114 94 0 0"/><path fill="rgba(120,180,206,255)" stroke="rgba(120,180,206,255)" d="M300 0 173 99l-59-5L300 0"/><path fill="rgba(146,119,89,255)" stroke="rgba(146,119,89,255)" d="M42 62 0 0l114 94-72-32"/><path fill="rgba(206,170,132,255)" stroke="rgba(206,170,132,255)" d="M118 187 42 62l72 32 4 93"/><path fill="rgba(204,167,133,255)" stroke="rgba(204,167,133,255)" d="m118 187-4-93 46 31-42 62"/><path fill="rgba(192,164,135,255)" stroke="rgba(192,164,135,255)" d="m114 94 59 5-13 26-46-31"/><path fill="rgba(68,58,55,255)" stroke="rgba(68,58,55,255)" d="M300 0v225L196 118 300 0"/><path fill="rgba(126,182,207,255)" stroke="rgba(126,182,207,255)" d="M173 99 300 0 196 118l-23-19"/><path fill="rgba(248,230,218,255)" stroke="rgba(248,230,218,255)" d="m160 125 13-26 23 19-36 7"/><path fill="rgba(234,222,218,255)" stroke="rgba(234,222,218,255)" d="m300 225-182-38 78-69 104 107"/><path fill="rgba(231,235,225,255)" stroke="rgba(231,235,225,255)" d="m118 187 42-62 36-7-78 69"/></g></g></svg>