<svg xmlns="http://www.w3.org/2000/svg" viewBox="0 0 300 225"><filter id="prefix__a"><feGaussianBlur stdDeviation="12"/></filter><rect width="100%" height="100%" fill="#6693ac"/><g filter="url(#prefix__a)"><g stroke-linecap="round"><path fill="rgba(79,69,68,255)" stroke="rgba(79,69,68,255)" d="M300 0v225l-22-86L300 0"/><path fill="rgba(231,225,223,255)" stroke="rgba(231,225,223,255)" d="M268 132 300 0l-22 139-10-7"/><path fill="rgba(133,122,120,255)" stroke="rgba(133,122,120,255)" d="m300 0-32 132-37 22L300 0"/><path fill="rgba(242,233,228,255)" stroke="rgba(242,233,228,255)" d="M300 225H0l231-71 69 71"/><path fill="rgba(82,71,65,255)" stroke="rgba(82,71,65,255)" d="m268 132 10 7-47 15 37-22"/><path fill="rgba(61,56,51,255)" stroke="rgba(61,56,51,255)" d="m278 139 22 86-69-71 47-15"/><path fill="rgba(159,200,219,255)" stroke="rgba(159,200,219,255)" d="M0 0h300L51 62 0 0"/><path fill="rgba(133,184,207,255)" stroke="rgba(133,184,207,255)" d="m300 0-69 154L51 62 300 0"/><path fill="rgba(115,109,107,255)" stroke="rgba(115,109,107,255)" d="M231 154 0 225l66-107 165 36"/><path fill="rgba(255,236,230,255)" stroke="rgba(255,236,230,255)" d="m51 62 180 92-165-36-15-56"/><path fill="rgba(203,162,120,255)" stroke="rgba(203,162,120,255)" d="M0 225V0l17 165-17 60"/><path fill="rgba(191,158,127,255)" stroke="rgba(191,158,127,255)" d="m0 0 51 62-34 103L0 0"/><path fill="rgba(44,111,130,255)" stroke="rgba(44,111,130,255)" d="m51 62 15 56-49 47L51 62"/><path fill="rgba(44,106,127,255)" stroke="rgba(44,106,127,255)" d="M66 118 0 225l17-60 49-47"/></g></g></svg>