<svg xmlns="http://www.w3.org/2000/svg" viewBox="0 0 2000 1500"><filter id="b"><feGaussianBlur stdDeviation="12" /></filter><path fill="#909e9f" d="M0 0h2000v1500H0z"/><g filter="url(#b)" transform="translate(4 4) scale(7.8125)" fill-opacity=".5"><ellipse fill="#fff" rx="1" ry="1" transform="matrix(18.33983 -17.8619 31.08809 31.9199 181.8 176.1)"/><ellipse fill="#3c2a1b" rx="1" ry="1" transform="rotate(137.3 -7.5 107.1) scale(68.43531 33.77804)"/><ellipse fill="#7dd9ff" cx="184" rx="85" ry="85"/><ellipse fill="#fff" rx="1" ry="1" transform="matrix(5.11013 -10.42324 39.9184 19.57052 44.8 115.7)"/><ellipse fill="#002a30" rx="1" ry="1" transform="matrix(4.78213 -8.69988 85.65265 47.08134 37.5 89)"/><ellipse fill="#094046" rx="1" ry="1" transform="matrix(-32.03755 -10.43557 4.77111 -14.64747 31.7 138.5)"/><ellipse fill="#d9edf6" rx="1" ry="1" transform="matrix(71.23093 -34.7872 6.16056 12.61449 65.3 14.6)"/><ellipse fill="#7f6153" rx="1" ry="1" transform="matrix(-11.66289 -62.9273 44.45678 -8.23958 244.8 132.6)"/></g></svg>