<svg xmlns="http://www.w3.org/2000/svg" width="2000" height="1500" viewBox="0 0 2000 1500"><filter id="a"><feGaussianBlur stdDeviation="55"/></filter><rect width="100%" height="100%" fill="#909e9f"/><g filter="url(#a)" fill-opacity=".5"><ellipse fill="#3e2d1e" rx="1" ry="1" transform="rotate(147.3 55 779.4) scale(444.0072 237.9657)"/><ellipse fill="#fff" rx="1" ry="1" transform="matrix(-132.9695 131.14455 -272.21497 -276.00301 1448.8 1391.6)"/><ellipse fill="#7fd9ff" rx="1" ry="1" transform="matrix(-580.80291 -338.7138 321.63842 -551.52323 1415 21.2)"/><ellipse fill="#002a2f" rx="1" ry="1" transform="matrix(-36.69548 69.16612 -811.9191 -430.7566 168.1 630.8)"/><ellipse fill="#e3fbff" rx="1" ry="1" transform="matrix(31.6187 104.98546 -327.18422 98.53877 516 125.2)"/><path fill="#fff" d="M34.2 648l683.3 378.8-72 129.8L-37.8 778z"/><path fill="#003544" d="M542.9 1123l-73.3 172.6-489-207.6 73.2-172.6z"/><ellipse fill="#816555" rx="1" ry="1" transform="matrix(42.38274 276.97242 -559.02924 85.5435 1777 908.3)"/></g></svg>