<svg xmlns="http://www.w3.org/2000/svg" viewBox="0 0 2000 1500"><filter id="b"><feGaussianBlur stdDeviation="12" /></filter><path fill="#909e9f" d="M0 0h2000v1500H0z"/><g filter="url(#b)" transform="translate(4 4) scale(7.8125)" fill-opacity=".5"><path fill="#3c3224" d="M110 193.8l-76-2.6 2-57 76 2.6z"/><ellipse fill="#fff" rx="1" ry="1" transform="matrix(32.58181 44.57205 -21.4464 15.67714 185.3 185.2)"/><ellipse fill="#7ed9ff" cx="184" cy="13" rx="86" ry="69"/><ellipse fill="#002b2d" rx="1" ry="1" transform="rotate(27.9 -162 131.3) scale(65.83547 10.69962)"/><ellipse fill="#ffffe8" rx="1" ry="1" transform="matrix(52.58586 26.28191 -5.98733 11.97967 36.8 114.2)"/><ellipse fill="#fffff3" rx="1" ry="1" transform="matrix(80.51456 47.84903 -3.70673 6.23724 57.6 75.5)"/><ellipse fill="#def7ff" rx="1" ry="1" transform="matrix(-4.67427 -14.50774 43.9065 -14.14631 66.6 15.3)"/><ellipse fill="#7e6151" cx="212" cy="119" rx="55" ry="34"/></g></svg>