<svg xmlns="http://www.w3.org/2000/svg" viewBox="0 0 2000 1500"><filter id="b"><feGaussianBlur stdDeviation="12" /></filter><path fill="#909e9f" d="M0 0h2000v1500H0z"/><g filter="url(#b)" transform="translate(4 4) scale(7.8125)" fill-opacity=".5"><ellipse fill="#3d2b1c" rx="1" ry="1" transform="matrix(46.2908 -45.92772 25.10265 25.3011 62.2 191)"/><ellipse fill="#fff" rx="1" ry="1" transform="matrix(19.24386 -16.02797 33.9375 40.7468 184.4 181)"/><ellipse fill="#7dd9ff" rx="1" ry="1" transform="matrix(5.66052 -56.3882 81.00142 8.13132 182 24.2)"/><ellipse fill="#002c2d" rx="1" ry="1" transform="matrix(68.24507 38.53078 -5.09672 9.02722 43.3 90.8)"/><ellipse fill="#826456" cx="255" cy="128" rx="64" ry="64"/><ellipse fill="#e0faff" rx="1" ry="1" transform="matrix(-41.27759 10.53461 -3.51224 -13.76196 62.5 17.4)"/><path fill="#fff" d="M-16 74.3l24 33.4 78.7 34 9.7-12.8z"/><ellipse fill="#fffff8" rx="1" ry="1" transform="matrix(2.91014 -4.73036 142.47363 87.65036 72.4 83.6)"/></g></svg>