<svg xmlns="http://www.w3.org/2000/svg" width="800" height="600"><path fill="#6ba2b8" d="M0 0h100v100H0z"/><path fill="#aec4cd" d="M100 0h100v100H100z"/><path fill="#c2ccd1" d="M200 0h100v100H200z"/><path fill="#87b7cb" d="M300 0h100v100H300z"/><path fill="#69aec9" d="M400 0h100v100H400z"/><path fill="#78b6ce" d="M500 0h100v100H500z"/><path fill="#83bdd6" d="M600 0h100v100H600z"/><path fill="#87c1d9" d="M700 0h100v100H700z"/><path fill="#aeaaa3" d="M0 100h100v100H0z"/><path fill="#ad9e91" d="M100 100h100v100H100z"/><path fill="#a49c90" d="M200 100h100v100H200z"/><path fill="#a5aba8" d="M300 100h100v100H300z"/><path fill="#9bc2d4" d="M400 100h100v100H400z"/><path fill="#80bbd5" d="M500 100h100v100H500z"/><path fill="#81bfd8" d="M600 100h100v100H600z"/><path fill="#86bbd2" d="M700 100h100v100H700z"/><path fill="#848580" d="M0 200h100v100H0z"/><path fill="#87928f" d="M100 200h100v100H100z"/><path fill="#94a29f" d="M200 200h100v100H200z"/><path fill="#919994" d="M300 200h100v100H300z"/><path fill="#afaba4" d="M400 200h100v100H400z"/><path fill="#a2c0cc" d="M500 200h100v100H500z"/><path fill="#83a4b1" d="M600 200h100v100H600z"/><path fill="#878689" d="M700 200h100v100H700z"/><path fill="#a2a49e" d="M0 300h100v100H0z"/><path fill="#a5b1af" d="M100 300h100v100H100z"/><path fill="#879a99" d="M200 300h100v100H200z"/><path fill="#94a09d" d="M300 300h100v100H300z"/><path fill="#8b8f8b" d="M400 300h100v100H400z"/><path fill="#897e74" d="M500 300h100v100H500z"/><path fill="#948781" d="M600 300h100v100H600z"/><path fill="#837774" d="M700 300h100v100H700z"/><path fill="#79959d" d="M0 400h100v100H0z"/><path fill="#7e8c8a" d="M100 400h100v100H100z"/><path fill="#8a8883" d="M200 400h100v100H200z"/><path fill="#757776" d="M300 400h100v100H300z"/><path fill="#aeacad" d="M400 400h100v100H400z"/><path fill="#c1b3aa" d="M500 400h100v100H500z"/><path fill="#8c827c" d="M600 400h100v100H600z"/><path fill="#877f7c" d="M700 400h100v100H700z"/><path fill="#b4a8a3" d="M0 500h100v100H0z"/><path fill="#676969" d="M100 500h100v100H100z"/><path fill="#595149" d="M200 500h100v100H200z"/><path fill="#727171" d="M300 500h100v100H300z"/><path fill="#a9a8a9" d="M400 500h100v100H400z"/><path fill="#f4e9e2" d="M500 500h100v100H500z"/><path fill="#cdc1bb" d="M600 500h100v100H600z"/><path fill="#86786f" d="M700 500h100v100H700z"/></svg>