<svg xmlns="http://www.w3.org/2000/svg" width="2000" height="1500"><path fill="#909e9f" d="M0 0h2000v1500H0z"/><g fill-opacity=".5"><path fill="#3a2414" d="M855.5 980.5L-121.1 1543l984.4-15.7z"/><path fill="#88d9fd" d="M1558.6 746L2121 19.6-121.1-121z"/><path fill="#fff" d="M1199.2 1621l578.1-242-625-398.5z"/><path fill="#00353c" d="M308.6 535.2L925.8 1082-121.1 566.4z"/><path fill="#fff" d="M832 1066.4l-523.4-46.9-429.7-453z"/><path fill="#02363f" d="M-121 824.2L839.7 1254 58.6 1136.7z"/><path fill="#796657" d="M2004 754L668 636.6 2058.6 1543z"/><path fill="#ffffeb" d="M293 621l-414-460.8L918 808.6z"/><path fill="#fff" d="M363.3 1261.7L-66.4 1082l101.6 336z"/><path fill="#fff9f2" d="M902.3 605.5l-453-531.3-250 54.7z"/><path fill="#fffff5" d="M980.5 738.3l406.2 148.4L707 402.3z"/><path fill="#4f3b1e" d="M1066.4 629L496.1 246l203.1-39z"/><path fill="#003033" d="M191.4 339.8l625 390.7-312.5-336z"/><path fill="#f4f4f2" d="M1332 488.3L722.7 246l796.8 593.7z"/><path fill="#fffff6" d="M941.4 988.3l211-31.3L621 660.2z"/><path fill="#002224" d="M1363.3 980.5L871 660.2l265.6 304.6z"/><path fill="#fbe3d6" d="M1504 1621l-312.6-203 836-328.2z"/><path fill="#0a0000" d="M1832 1043l-273.4 195.3 562.5-203.1z"/><path fill="#fcdcc6" d="M964.8 472.7L543-89.8l-125 203z"/><path fill="#211600" d="M925.8 957L519.5 746l211 195.4z"/><path fill="#5e402b" d="M2121 1425.8L1699.3 1621l31.3-304.7z"/><path fill="#986030" d="M-121 277.3l39 273.5 703 179.7z"/><path fill="#288bac" d="M-43-50.8l-54.7 359.4L457 3.9z"/><path fill="#816b65" d="M2121 379l-125 476.5-656.2-39z"/><path fill="#00698a" d="M1105.5 918L832 613.3l-336-86z"/><path fill="#fff9f1" d="M222.7 738.3l453 367.2L-121 753.9z"/><path fill="#6eb7d6" d="M2121 379l-687.4 359.3L746-121.1z"/><path fill="#030000" d="M160.2 543l-281.3-31.3L97.7 668z"/><path fill="#035c7a" d="M371 1089.8L488.4 1293-121 1043z"/><path fill="#776f6d" d="M441.4 1152.3l742.2 468.8-31.3-664z"/><path fill="#8d633b" d="M886.7 668L199.2 355.5l140.6-140.7z"/><path fill="#b37d46" d="M597.7 1082l-718.8-343.7v211z"/><path fill="#feebde" d="M1722.7 1488.3l-547-515.6 15.7 554.6z"/><path fill="#bfddee" d="M410.2 113.3l-297-93.8 62.6 336z"/><path fill="#cabdb8" d="M1769.5 1074.2l-429.7 54.7 695.4-312.5z"/><path fill="#484747" d="M1660.2 1285.2l109.3 23.4 156.3-117.2z"/><path fill="#1d444a" d="M1269.5 761.7L839.8 496.1l234.4 54.7z"/><path fill="#d6c4b9" d="M1722.7 793l-500 250 289-39z"/><path fill="#f8c08a" d="M949.2 964.8L347.7 629l375 93.8z"/><path fill="#163736" d="M1121 691.4l250 164 86-62.4z"/><path fill="#0d7b9c" d="M347.7 800.8h250L918 1097.7z"/><path fill="#61a8c2" d="M793-121h1039l-828 523.3z"/><path fill="#fee6d3" d="M996 621l187.6 250 242.2 39.2z"/><path fill="#171411" d="M1363.3 941.4l-117.2 78.1-101.6-117.2z"/><path fill="#ebd4bd" d="M1410.2 816.4L964.8 488.3l390.7 46.9z"/><path fill="#726865" d="M2043 1035.2l-23.5-172-539 234.5z"/><path fill="#fff7fa" d="M324.2 519.5L58.6 277.3-121.1 293z"/><path fill="#37291a" d="M1988.3 832l-398.5 164 148.5-132.7z"/><path fill="#86c4e0" d="M2121 379l-187.4-500L1457 730.4z"/><path fill="#edf4fb" d="M621-66.4L519.6 339.8 363.3 230.5z"/></g></svg>