<svg xmlns="http://www.w3.org/2000/svg" viewBox="0 0 2000 1500"><filter id="b"><feGaussianBlur stdDeviation="12" /></filter><path fill="#909e9f" d="M0 0h2000v1500H0z"/><g filter="url(#b)" transform="translate(4 4) scale(7.8125)" fill-opacity=".5"><ellipse fill="#2f3a35" rx="1" ry="1" transform="matrix(8.27149 -14.76668 90.39763 50.63579 77 165.8)"/><ellipse fill="#fff" rx="1" ry="1" transform="matrix(31.9576 40.49349 -20.34874 16.0593 182.5 181.2)"/><ellipse fill="#7dd9ff" cx="184" rx="85" ry="85"/><ellipse fill="#002a31" rx="1" ry="1" transform="matrix(-73.26288 -39.94422 4.54011 -8.32715 51.4 96.5)"/><ellipse fill="#fff" rx="1" ry="1" transform="matrix(59.85316 29.97223 -4.5718 9.12966 29.1 106.8)"/><path fill="#513b2c" d="M-16 193l113 14 18-78z"/><ellipse fill="#32463c" rx="1" ry="1" transform="matrix(-4.1522 6.59358 -96.79856 -60.9573 120.2 96.8)"/><ellipse fill="#ddf5ff" rx="1" ry="1" transform="matrix(45.34344 -16.03486 4.99667 14.1296 63.6 16.6)"/></g></svg>