<svg xmlns="http://www.w3.org/2000/svg" viewBox="0 0 2000 2500"><filter id="b"><feGaussianBlur stdDeviation="12" /></filter><path fill="#195364" d="M0 0h1992v2500H0z"/><g filter="url(#b)" transform="translate(4.9 4.9) scale(9.76563)" fill-opacity=".5"><ellipse fill="#7dd1ff" rx="1" ry="1" transform="matrix(-.17934 28.5713 -181.9886 -1.14236 70.5 75.3)"/><ellipse fill="#002d20" cx="103" cy="205" rx="203" ry="78"/><ellipse fill="#9dcde1" rx="1" ry="1" transform="matrix(-42.94963 18.90796 -8.44058 -19.17287 66.1 77.5)"/><ellipse fill="#0063a9" rx="1" ry="1" transform="matrix(-5.46915 17.54161 -107.59712 -33.5468 178.6 59.9)"/><path fill="#001a35" d="M71 101l74 11-46-31z"/><path fill="#a3deef" d="M164 81.2l-9 24.5-63-23 9-24.4z"/><path fill="#2e6fa4" d="M-15 94l13-60 150 1z"/><ellipse fill="#0b1c43" rx="1" ry="1" transform="matrix(-.59776 25.40512 -183.6911 -4.32211 94.8 1.9)"/></g></svg>