<svg xmlns="http://www.w3.org/2000/svg" width="1992" height="2500" viewBox="0 0 2000 2500"><filter id="a"><feGaussianBlur stdDeviation="55"/></filter><rect width="100%" height="100%" fill="#195364"/><g filter="url(#a)"><g transform="translate(4.9 4.9) scale(9.76563)" fill-opacity=".5"><ellipse fill="#80d4ff" rx="1" ry="1" transform="matrix(0 -27.53617 158.85318 0 81.3 76.9)"/><ellipse fill="#00312b" rx="1" ry="1" transform="matrix(-155.78043 -2.4267 2.08355 -133.75181 102.2 229.8)"/><path fill="#0067ac" d="M97.3 10.6l125.2 55.7-13.8 31L83.5 41.8z"/><ellipse fill="#b3deec" rx="1" ry="1" transform="rotate(-109.1 61.6 19.1) scale(15.06962 41.81012)"/><ellipse fill="#0972a4" cx="102" cy="122" rx="63" ry="16"/><ellipse fill="#9fdbed" rx="1" ry="1" transform="rotate(-150.6 73.2 23.7) scale(40.29029 14.69485)"/><ellipse fill="#0b1b3f" rx="1" ry="1" transform="matrix(-1.63726 23.34983 -202.5028 -14.1992 56.6 .4)"/><ellipse fill="#377baf" rx="1" ry="1" transform="matrix(-96.35751 14.74477 -2.14819 -14.03846 42 52.6)"/></g></g></svg>