<svg xmlns="http://www.w3.org/2000/svg" viewBox="0 0 2000 2500"><filter id="b"><feGaussianBlur stdDeviation="12" /></filter><path fill="#195364" d="M0 0h1992v2500H0z"/><g filter="url(#b)" transform="translate(4.9 4.9) scale(9.76563)" fill-opacity=".5"><ellipse fill="#78cdff" rx="1" ry="1" transform="matrix(166.30805 .97435 -.17696 30.2054 77 74.2)"/><ellipse fill="#00302a" rx="1" ry="1" transform="matrix(7.81188 98.8763 -159.90491 12.63354 93 197.5)"/><ellipse fill="#98d1df" cx="95" cy="76" rx="62" ry="16"/><ellipse fill="#035f89" rx="1" ry="1" transform="matrix(20.2204 -25.02994 26.16842 21.1401 101 119.2)"/><ellipse fill="#0063a5" rx="1" ry="1" transform="matrix(-7.76874 19.17247 -100.0946 -40.55864 182 65.8)"/><ellipse fill="#0a1b3f" cx="129" rx="203" ry="26"/><ellipse fill="#c7eaf0" rx="1" ry="1" transform="matrix(2.26288 7.54609 -27.4772 8.2397 61.4 92.3)"/><ellipse fill="#afdee9" rx="1" ry="1" transform="matrix(-2.78142 8.43097 -31.76587 -10.47972 132.8 90.3)"/></g></svg>