<svg xmlns="http://www.w3.org/2000/svg" width="1992" height="2500"><path fill="#195364" d="M0 0h1992v2500H0z"/><g fill-opacity=".5"><path fill="#95e5ff" d="M2143.6 942.4L815.4 268.6-151.4 1001z"/><path fill="#002b1a" d="M4.9 2651.4l-127-1797 2265.7 1601.7z"/><path fill="#002825" d="M952.1 1547.9l1152.4-732.5 39 1650.4z"/><path fill="#0573bc" d="M2143.6 1030.3l-332-673.9L434.5 249z"/><path fill="#76b1d8" d="M210 405.3l1523.4 419.9-1884.8 156.2z"/><path fill="#00112f" d="M434.6 1108.4l761.7-146.5-205-146.5z"/><path fill="#061f48" d="M1987.3-151.4v605.5l-2138.7-420z"/><path fill="#bbe9f5" d="M1235.4 971.7L766.6 629.9l927.7 351.5z"/><path fill="#007a5d" d="M1831 2104.5L24.5 1762.7 1421 1626z"/><path fill="#22669c" d="M-151.4 405.3L1567.4 161l-1718.8 840z"/><path fill="#afdae7" d="M219.7 1001l888.7-459-459 449.2z"/><path fill="#005f85" d="M1704.1 1264.6l-1435.5 19.6 693.3-478.5z"/><path fill="#4da7c3" d="M766.6 1049.8h420L913 1206.1z"/><path fill="#0a273b" d="M756.8 1186.5l-908.2 488.3 1552.8-19.5z"/><path fill="#399cc9" d="M1430.7 1010.7l712.9-107.4-986.4-546.9z"/><path fill="#77b8cf" d="M1020.5 434.6L249 678.7l1425.8 263.7z"/><path fill="#0d2c51" d="M-73.2-151.4L971.7 337l-1123-29.3z"/><path fill="#131f2e" d="M1723.6 971.7l-322.2 683.6 742.2 117.2z"/><path fill="#034a7e" d="M483.4 180.7L1626 161l517.6 459z"/><path fill="#083049" d="M-151.4 962l957 97.6-957 293z"/><path fill="#004863" d="M1606.4 1264.6l-361.3 312.5L317.4 1294z"/><path fill="#012a46" d="M2104.5 1264.6l-78.1-322.2-849.6 107.4z"/><path fill="#056ea6" d="M2143.6 649.4l-195.4 302.7L1108.4 298z"/><path fill="#0e292e" d="M73.2 2651.4L1792 2456l-1943.4-332z"/><path fill="#024d41" d="M2055.7 2065.4l-1338 361.4-664-703.2z"/><path fill="#8cc8de" d="M1420.9 1001L991.2 639.6 1694.3 962z"/><path fill="#9acfda" d="M444.3 795.9l195.3 185.5L1128 708z"/><path fill="#172c39" d="M1977.5-151.4L581.1 5l1543 234.4z"/><path fill="#004156" d="M200.2 1167l673.8-58.6 117.2-263.7z"/><path fill="#06725f" d="M1762.7 1811.5l-1474.6 58.6 625-263.7z"/><path fill="#00729c" d="M981.4 1088.9l595.7 68.3-146.4 166z"/><path fill="#162633" d="M24.4 1674.8l-175.8-468.7 1347.7 439.4z"/><path fill="#0a5282" d="M-14.6 307.6l732.4 146.5L1069.3 210z"/><path fill="#4487b3" d="M180.7 991.2l-322.3-48.8 712.9-546.9z"/><path fill="#4a94b6" d="M1147.5 376l-791 166 1064.4 127z"/><path fill="#00435b" d="M669 1020.5l712.8 39-439.4-244z"/><path fill="#10282d" d="M2036.1 2534.2l9.8-439.5-732.4 390.7z"/><path fill="#09202d" d="M1342.8 962l87.9 68.3-302.8 48.8z"/><path fill="#80b5cf" d="M1010.7 542L83 971.7l390.6 39z"/><path fill="#182e38" d="M786.1 24.4L5 229.4l-88-380.8z"/><path fill="#096b89" d="M952.1 1108.4l-693.3 39 136.7 156.3z"/><path fill="#0f3034" d="M1235.4 1977.5l-185.6 166-302.7-380.8z"/><path fill="#256e97" d="M669 327.1l546.8 146.5 146.5-205z"/><path fill="#c7e3e4" d="M1010.7 805.7l273.5 185.5-9.8-97.6z"/><path fill="#0f2e35" d="M356.4 1137.7l-507.8 517.6 341.8 996z"/><path fill="#0d2732" d="M1186.5 1215.8l214.9 156.3-254-39z"/><path fill="#025d4d" d="M1831 1753l-585.9-97.7v566.4z"/><path fill="#00487b" d="M1977.5 678.7l136.8-293L1333 268.6z"/><path fill="#177db3" d="M1538 503l605.6 400.3-390.7 58.6z"/><path fill="#113b5e" d="M1440.4 24.4L669 180.7l1201.2 87.9z"/></g></svg>