<svg xmlns="http://www.w3.org/2000/svg" width="1992" height="2500" viewBox="0 0 2000 2500"><filter id="a"><feGaussianBlur stdDeviation="55"/></filter><rect width="100%" height="100%" fill="#195364"/><g filter="url(#a)"><g transform="translate(4.9 4.9) scale(9.76563)" fill-opacity=".5"><ellipse fill="#7fd4ff" rx="1" ry="1" transform="rotate(91.6 .7 73.7) scale(27.98738 160.38378)"/><ellipse fill="#002d20" cx="107" cy="197" rx="203" ry="70"/><path fill="#a5d6e6" d="M34.6 107.8L26 81.2l89.4-29 8.6 26.6z"/><ellipse fill="#0571b5" rx="1" ry="1" transform="matrix(107.70728 39.69212 -6.53879 17.74345 180.2 67.5)"/><path fill="#00546c" d="M156.8 120.6l-19.4 100.6-92.9-107.1 55.3-32.4z"/><ellipse fill="#a1deef" cx="137" cy="84" rx="27" ry="16"/><ellipse fill="#0a1d43" rx="1" ry="1" transform="matrix(.35965 -21.84218 202.97249 3.34216 88 5.6)"/><ellipse fill="#1a5b94" rx="1" ry="1" transform="matrix(3.98661 16.45406 -127.61994 30.92073 9.3 52.6)"/></g></g></svg>