<svg xmlns="http://www.w3.org/2000/svg" viewBox="0 0 2000 2500"><filter id="b"><feGaussianBlur stdDeviation="12" /></filter><path fill="#195364" d="M0 0h1992v2500H0z"/><g filter="url(#b)" transform="translate(4.9 4.9) scale(9.76563)" fill-opacity=".5"><ellipse fill="#7dd1ff" rx="1" ry="1" transform="matrix(153.16177 -.27796 .05209 28.70266 87.6 76)"/><ellipse fill="#00302b" rx="1" ry="1" transform="matrix(-15.95548 113.75142 -161.84887 -22.70192 114.7 213.6)"/><ellipse fill="#025f8a" cx="99" cy="119" rx="33" ry="33"/><ellipse fill="#a3cfe1" rx="1" ry="1" transform="matrix(-5.13606 -16.06076 46.937 -15.00995 60.7 84.3)"/><ellipse fill="#0063a9" rx="1" ry="1" transform="matrix(6.92069 -17.93538 99.36276 38.3409 181.4 64)"/><ellipse fill="#a5ddec" rx="1" ry="1" transform="matrix(-34.13768 -16.82452 6.20364 -12.58746 126.5 82.8)"/><ellipse fill="#0b1b41" rx="1" ry="1" transform="matrix(-202.96908 -3.54284 .34172 -19.57702 130 7)"/><ellipse fill="#3477ac" rx="1" ry="1" transform="matrix(-2.84776 -16.0566 113.2356 -20.08321 18.7 57)"/></g></svg>