<svg xmlns="http://www.w3.org/2000/svg" viewBox="0 0 2000 2500"><filter id="b"><feGaussianBlur stdDeviation="12" /></filter><path fill="#195364" d="M0 0h1992v2500H0z"/><g filter="url(#b)" transform="translate(4.9 4.9) scale(9.76563)" fill-opacity=".5"><path fill="#93e2ff" d="M219 96L82 25l-98 77z"/><ellipse fill="#002d20" cx="99" cy="196" rx="203" ry="68"/><ellipse fill="#0a75be" rx="1" ry="1" transform="matrix(-111.0694 -37.1633 6.53928 -19.54386 182 67.6)"/><ellipse fill="#6ca5d3" rx="1" ry="1" transform="matrix(-52.03309 -.31225 .19192 -31.98069 41.8 72)"/><path fill="#9bd6ed" d="M92.3 52.4l71.4 26-10 27.2-71.4-26z"/><ellipse fill="#00547c" rx="1" ry="1" transform="matrix(26.1042 6.05221 -7.78167 33.56367 96.5 118.6)"/><ellipse fill="#0a2a59" rx="1" ry="1" transform="rotate(87 19.2 42.1) scale(24.24486 188.30876)"/><path fill="#08192d" d="M199 198l-51-94 71-11z"/></g></svg>