<svg xmlns="http://www.w3.org/2000/svg" viewBox="0 0 2000 2500"><filter id="b"><feGaussianBlur stdDeviation="12" /></filter><path fill="#195364" d="M0 0h1992v2500H0z"/><g filter="url(#b)" transform="translate(4.9 4.9) scale(9.76563)" fill-opacity=".5"><path fill="#88daff" d="M182.5 99.4l-188 3.2-1-54 188-3.2z"/><ellipse fill="#002d20" rx="1" ry="1" transform="matrix(.55739 -71.92574 202.9939 1.5731 107 200.3)"/><ellipse fill="#0574ba" rx="1" ry="1" transform="rotate(-66.3 134 -97.3) scale(20.24102 89.28057)"/><ellipse fill="#a0d0e4" rx="1" ry="1" transform="rotate(160 25.3 46.6) scale(46.61209 17.98688)"/><path fill="#002645" d="M98 82l-33 23 79 5z"/><ellipse fill="#bfedf9" rx="1" ry="1" transform="rotate(-67.8 130.9 -52.4) scale(9.67627 30.51042)"/><ellipse fill="#1e629e" rx="1" ry="1" transform="matrix(4.50987 15.86164 -111.0167 31.5649 0 61.4)"/><ellipse fill="#002857" cx="173" cy="12" rx="47" ry="47"/></g></svg>