<svg xmlns="http://www.w3.org/2000/svg" viewBox="0 0 300 375"><filter id="prefix__a"><feGaussianBlur stdDeviation="12"/></filter><rect width="100%" height="100%" fill="#536984"/><g filter="url(#prefix__a)"><g stroke-linecap="round"><path fill="rgba(17,54,86,255)" stroke="rgba(17,54,86,255)" d="M0 0h300L72 57 0 0"/><path fill="rgba(100,153,197,255)" stroke="rgba(100,153,197,255)" d="M0 375V0l72 57L0 375"/><path fill="rgba(3,60,57,255)" stroke="rgba(3,60,57,255)" d="M300 375H0l233-53 67 53"/><path fill="rgba(0,53,54,255)" stroke="rgba(0,53,54,255)" d="m254 328 46 47-67-53 21 6"/><path fill="rgba(20,46,59,255)" stroke="rgba(20,46,59,255)" d="M300 0v375l-63-90L300 0"/><path fill="rgba(0,63,63,255)" stroke="rgba(0,63,63,255)" d="m300 375-46-47-17-43 63 90"/><path fill="rgba(16,105,101,255)" stroke="rgba(16,105,101,255)" d="m254 328-21-6 4-37 17 43"/><path fill="rgba(31,108,100,255)" stroke="rgba(31,108,100,255)" d="M233 322 0 375l222-119 11 66"/><path fill="rgba(8,98,86,255)" stroke="rgba(8,98,86,255)" d="m237 285-4 37-11-66 15 29"/><path fill="rgba(75,151,187,255)" stroke="rgba(75,151,187,255)" d="M72 57 300 0l-87 188L72 57"/><path fill="rgba(8,57,85,255)" stroke="rgba(8,57,85,255)" d="m300 0-63 285-24-97L300 0"/><path fill="rgba(22,44,55,255)" stroke="rgba(22,44,55,255)" d="m237 285-15-29-9-68 24 97"/><path fill="rgba(0,77,103,255)" stroke="rgba(0,77,103,255)" d="M0 375 72 57l141 131L0 375"/><path fill="rgba(18,81,78,255)" stroke="rgba(18,81,78,255)" d="M222 256 0 375l213-187 9 68"/></g></g></svg>