<svg xmlns="http://www.w3.org/2000/svg" viewBox="0 0 300 375"><g filter="url(#prefix__a)"><g stroke-linecap="round"><path fill="rgba(15,49,49,255)" stroke="rgba(15,49,49,255)" d="M300 375H0l86-105 214 105"/><path fill="rgba(2,66,64,255)" stroke="rgba(2,66,64,255)" d="m181 183 119 192L86 270l95-87"/><path fill="rgba(21,43,55,255)" stroke="rgba(21,43,55,255)" d="M0 375V0l86 270L0 375"/><path fill="rgba(19,54,82,255)" stroke="rgba(19,54,82,255)" d="M0 0h300L124 41 0 0"/><path fill="rgba(18,80,106,255)" stroke="rgba(18,80,106,255)" d="m181 183-95 87 30-63 65-24"/><path fill="rgba(15,55,71,255)" stroke="rgba(15,55,71,255)" d="M86 270 0 0l116 207-30 63"/><path fill="rgba(7,95,131,255)" stroke="rgba(7,95,131,255)" d="m181 183-65 24 26-57 39 33"/><path fill="rgba(26,102,150,255)" stroke="rgba(26,102,150,255)" d="m0 0 124 41 18 109L0 0"/><path fill="rgba(130,186,209,255)" stroke="rgba(130,186,209,255)" d="M116 207 0 0l142 150-26 57"/><path fill="rgba(15,49,65,255)" stroke="rgba(15,49,65,255)" d="M300 0v375L260 72l40-72"/><path fill="rgba(19,46,61,255)" stroke="rgba(19,46,61,255)" d="M300 375 181 183l79-111 40 303"/><path fill="rgba(151,202,221,255)" stroke="rgba(151,202,221,255)" d="m181 183-39-33 118-78-79 111"/><path fill="rgba(13,66,108,255)" stroke="rgba(13,66,108,255)" d="M124 41 300 0l-40 72-136-31"/><path fill="rgba(71,155,193,255)" stroke="rgba(71,155,193,255)" d="M142 150 124 41l136 31-118 78"/></g><rect width="100%" height="100%" fill="#536984"/></g><filter id="prefix__a"><feGaussianBlur in="SourceGraphic" stdDeviation="12"/><feComponentTransfer><feFuncA tableValues="1 1" type="discrete"/></feComponentTransfer></filter></svg>