<svg xmlns="http://www.w3.org/2000/svg" viewBox="0 0 300 375"><filter id="prefix__a"><feGaussianBlur stdDeviation="12"/></filter><g filter="url(#prefix__a)"><g stroke-linecap="round"><path fill="rgba(19,45,58,255)" stroke="rgba(19,45,58,255)" d="M300 0v375l-41-117L300 0"/><path fill="rgba(12,86,77,255)" stroke="rgba(12,86,77,255)" d="m300 375-52-66 11-51 41 117"/><path fill="rgba(51,140,196,255)" stroke="rgba(51,140,196,255)" d="m300 0-41 258-9-96L300 0"/><path fill="rgba(21,65,102,255)" stroke="rgba(21,65,102,255)" d="M0 0h300L148 67 0 0"/><path fill="rgba(9,105,156,255)" stroke="rgba(9,105,156,255)" d="m300 0-50 162-102-95L300 0"/><path fill="rgba(11,64,62,255)" stroke="rgba(11,64,62,255)" d="M300 375H0l163-47 137 47"/><path fill="rgba(5,75,65,255)" stroke="rgba(5,75,65,255)" d="m248 309 52 66-137-47 85-19"/><path fill="rgba(7,84,78,255)" stroke="rgba(7,84,78,255)" d="m259 258-11 51-85 19 96-70"/><path fill="rgba(12,57,66,255)" stroke="rgba(12,57,66,255)" d="m250 162 9 96-96 70 87-166"/><path fill="rgba(9,109,143,255)" stroke="rgba(9,109,143,255)" d="m148 67 102 95-87 166-15-261"/><path fill="rgba(22,44,55,255)" stroke="rgba(22,44,55,255)" d="M0 375V0l74 338-74 37"/><path fill="rgba(139,190,213,255)" stroke="rgba(139,190,213,255)" d="m0 0 148 67-74 271L0 0"/><path fill="rgba(19,49,73,255)" stroke="rgba(19,49,73,255)" d="m148 67 15 261-89 10 74-271"/><path fill="rgba(15,54,59,255)" stroke="rgba(15,54,59,255)" d="M163 328 0 375l74-37 89-10"/></g></g></svg>