<svg xmlns="http://www.w3.org/2000/svg" viewBox="0 0 2000 2500"><filter id="b"><feGaussianBlur stdDeviation="12" /></filter><path fill="#195364" d="M0 0h1992v2500H0z"/><g filter="url(#b)" transform="translate(4.9 4.9) scale(9.76563)" fill-opacity=".5"><ellipse fill="#7ed0ff" rx="1" ry="1" transform="matrix(-1.38576 30.51673 -161.01717 -7.31175 54.7 72.5)"/><ellipse fill="#00312b" cx="101" cy="255" rx="160" ry="160"/><ellipse fill="#a0cfe3" rx="1" ry="1" transform="rotate(-19.8 260.4 -139.9) scale(48.43116 19.57247)"/><ellipse fill="#0d7bb3" cx="107" cy="119" rx="57" ry="13"/><ellipse fill="#006bb2" rx="1" ry="1" transform="rotate(-156 94.8 13.5) scale(90.60485 19.4163)"/><ellipse fill="#99d8ec" rx="1" ry="1" transform="matrix(-6.0149 15.72603 -34.74699 -13.29005 132.7 82.7)"/><ellipse fill="#0c2e5f" rx="1" ry="1" transform="matrix(-184.54078 80.11951 -13.66358 -31.47159 57.5 12)"/><ellipse fill="#003a5d" rx="1" ry="1" transform="matrix(-19.1984 -4.9747 2.92269 -11.27925 102.6 98.6)"/></g></svg>