<svg xmlns="http://www.w3.org/2000/svg" width="1992" height="2500"><path fill="#195364" d="M0 0h1992v2500H0z"/><g fill-opacity=".5"><path fill="#94e5ff" d="M795.9 268.6l1347.7 673.8-2295 58.6z"/><path fill="#002b1a" d="M-151.4 835l166 1816.4 2129-195.3z"/><path fill="#002724" d="M2143.6 776.4l-29.3 1669.9-1132.9-898.4z"/><path fill="#0674bd" d="M1821.3 356.4l322.3 664.1-1699.3-752z"/><path fill="#000b2b" d="M1215.8 962L991.2 805.6l-361.3 205z"/><path fill="#74b1d9" d="M1704.1 747l-1855.5 263.7L200.2 415z"/><path fill="#bceaf6" d="M1694.3 991.2l-498-39-459-351.6z"/><path fill="#061f49" d="M1997-151.4l136.8 644.6L-151.4 24.4z"/><path fill="#23679c" d="M4.9 385.7L1538 171-34.2 952.1z"/><path fill="#007a5e" d="M1821.3 2104.5L14.6 1743.2l1435.6-97.7z"/><path fill="#b5deea" d="M1118.2 620.1L180.7 1001l478.5-9.8z"/><path fill="#006085" d="M1616.2 1313.5L298 1264.6 981.4 796z"/><path fill="#4ea9c6" d="M1147.5 1069.3l-351.6-9.7 136.7 156.2z"/><path fill="#7dc5e3" d="M1440.4 1010.7l341.8-68.3-918-351.6z"/><path fill="#09283c" d="M786.1 1176.8l693.4 488.2-1630.9-9.7z"/><path fill="#268fc0" d="M2143.6 903.3l-986.4-576.2 420 664.1z"/><path fill="#71b5cc" d="M258.8 727.5l1484.4 166L961.9 415z"/><path fill="#0c2d55" d="M-73.2 327.1L-83-141.6l1074.2 498z"/><path fill="#072e47" d="M835 1040l-986.4 312.5 68.4-371z"/><path fill="#122130" d="M2143.6 1762.7l-732.5-78.1 263.7-713z"/><path fill="#024a7e" d="M532.2 180.7l1084-9.8 527.4 439.5z"/><path fill="#004e6d" d="M1762.7 962l-371.1 546.8-1045-195.3z"/><path fill="#11262e" d="M-151.4 2651.4V1792l1093.8 752z"/><path fill="#003d56" d="M561.5 1010.7l380.9-127 556.6 195.4z"/><path fill="#025143" d="M1987.3 2085l-1836-381 420 625z"/><path fill="#02739b" d="M1440.4 1323.2l166-185.5-585.9-39z"/><path fill="#0e292d" d="M581 2504.9l1357.5 146.5 205-498z"/><path fill="#172b37" d="M2143.6 229.5L610.4 4.9l1298.8-156.3z"/><path fill="#142a37" d="M-53.7 903.3l97.6 927.8L717.8 1626z"/><path fill="#067e6a" d="M1274.4 1704.1l-537.1-48.8-449.2 234.3z"/><path fill="#91c6d5" d="M493.2 688.5l-117.2 332 820.3-293z"/><path fill="#182d38" d="M-151.4-44L864.3 14.7-151.4 278.3z"/><path fill="#062b45" d="M1206 1049.8l898.5-127 39 371.1z"/><path fill="#146391" d="M1450.2 288l-996.1-48.7 19.5 263.6z"/><path fill="#b3dce2" d="M1284.2 1001l-234.4-185.6 185.6-58.6z"/><path fill="#4791b4" d="M1186.5 337L307.6 532.1 1421 678.7z"/><path fill="#0874ae" d="M2143.6 825.2L1499 444.3l351.6 507.8z"/><path fill="#0b2a38" d="M1567.4 1430.7l-420-88 39.1-117.1z"/><path fill="#0b6d8a" d="M893.6 1128l-654.3 19.5 166 156.2z"/><path fill="#102a30" d="M874 1879.9l185.6 253.9 195.3-224.6z"/><path fill="#04604e" d="M1684.6 1684.6L581 1782.2l1289 273.5z"/><path fill="#4588b3" d="M210 962l322.2-527.4L-151.4 952z"/><path fill="#004158" d="M815.4 903.3L962 815.4l293 156.3z"/><path fill="#6ea7ba" d="M932.6 1049.8l195.3 58.6 39-58.6z"/><path fill="#9bd2dd" d="M1069.3 727.5L727.5 942.4l-244.1-58.6z"/><path fill="#0c3b4c" d="M14.6 1342.8L708 1040l-781.2-58.6z"/><path fill="#9cccdb" d="M1264.6 766.6l273.5 234.4-312.5-58.6z"/><path fill="#062b3e" d="M1167 1088.9l410.1-39.1-273.4-78.1z"/><path fill="#6aa6c2" d="M1049.8 551.8l-527.3-19.6L161 981.4z"/><path fill="#00497d" d="M2143.6 424.8L1323.2 249l820.4 527.4z"/></g></svg>