<svg xmlns="http://www.w3.org/2000/svg" viewBox="0 0 2000 2500"><filter id="b"><feGaussianBlur stdDeviation="12" /></filter><path fill="#195364" d="M0 0h1992v2500H0z"/><g filter="url(#b)" transform="translate(4.9 4.9) scale(9.76563)" fill-opacity=".5"><ellipse fill="#80d2ff" rx="1" ry="1" transform="matrix(.47312 -29.45744 142.91532 2.29537 74.3 75.2)"/><ellipse fill="#00302b" rx="1" ry="1" transform="matrix(-167.26102 -49.4758 33.66022 -113.79386 140.5 220.7)"/><path fill="#026494" d="M171 129L97 83l-69 51z"/><ellipse fill="#7ebada" rx="1" ry="1" transform="matrix(-12.89055 -20.70954 49.83527 -31.01973 76.8 67.7)"/><ellipse fill="#0060a7" rx="1" ry="1" transform="rotate(22.6 -75.7 503.4) scale(109.39448 21.42048)"/><ellipse fill="#b1e5f2" rx="1" ry="1" transform="matrix(-33.76751 -16.60275 5.25227 -10.68234 124.9 83.8)"/><ellipse fill="#0c1b41" cx="107" cy="5" rx="202" ry="21"/><ellipse fill="#175790" rx="1" ry="1" transform="rotate(74.1 -23.6 41) scale(18.36988 127.8724)"/></g></svg>