<svg xmlns="http://www.w3.org/2000/svg" viewBox="0 0 2000 2500"><filter id="b"><feGaussianBlur stdDeviation="12" /></filter><path fill="#195364" d="M0 0h1992v2500H0z"/><g filter="url(#b)" transform="translate(4.9 4.9) scale(9.76563)" fill-opacity=".5"><ellipse fill="#7fd3ff" cx="74" cy="75" rx="189" ry="28"/><ellipse fill="#002d20" rx="1" ry="1" transform="matrix(-202.8555 7.65806 -2.76232 -73.17145 101.4 201)"/><ellipse fill="#8bc5e1" rx="1" ry="1" transform="matrix(-39.2663 30.21484 -13.41093 -17.42844 78.2 68.4)"/><ellipse fill="#0060a4" rx="1" ry="1" transform="matrix(5.15371 -20.06336 152.68798 39.22125 203 66.3)"/><ellipse fill="#00547a" rx="1" ry="1" transform="matrix(-.26404 -30.25598 37.48473 -.32712 98 119.6)"/><ellipse fill="#a1dbed" rx="1" ry="1" transform="matrix(38.95362 14.64921 -4.8074 12.78332 130.8 84)"/><ellipse fill="#0b1c43" rx="1" ry="1" transform="rotate(89.6 51.7 57.9) scale(21.88119 203.00002)"/><ellipse fill="#206197" rx="1" ry="1" transform="matrix(3.573 15.47639 -141.6232 32.6963 6.7 56.2)"/></g></svg>