<svg xmlns="http://www.w3.org/2000/svg" viewBox="0 0 2000 2500"><filter id="b"><feGaussianBlur stdDeviation="12" /></filter><path fill="#195364" d="M0 0h1992v2500H0z"/><g filter="url(#b)" transform="translate(4.9 4.9) scale(9.76563)" fill-opacity=".5"><path fill="#97e6ff" d="M219 96l-235 6L87 28z"/><ellipse fill="#002d21" rx="1" ry="1" transform="matrix(1.1443 71.06775 -202.97369 3.2682 107 197.8)"/><ellipse fill="#0e7ac3" rx="1" ry="1" transform="matrix(7.17188 -18.6442 91.51878 35.2046 164.6 65)"/><ellipse fill="#75abd9" rx="1" ry="1" transform="matrix(-.0969 27.7618 -63.92546 -.22314 31.1 76.4)"/><ellipse fill="#00537c" cx="98" cy="121" rx="34" ry="34"/><ellipse fill="#9bd6ee" rx="1" ry="1" transform="rotate(26.5 -106.4 303.7) scale(44.43086 14.74429)"/><ellipse fill="#0b1c44" rx="1" ry="1" transform="matrix(-.14448 16.55608 -202.99226 -1.77149 106 11)"/><ellipse fill="#008064" cx="107" cy="183" rx="70" ry="14"/></g></svg>