<svg xmlns="http://www.w3.org/2000/svg" width="800" height="1000"><path fill="#153249" d="M0 0h100v100H0z"/><path fill="#143655" d="M100 0h100v100H100z"/><path fill="#12395a" d="M200 0h100v100H200z"/><path fill="#10385b" d="M300 0h100v100H300z"/><path fill="#113a5d" d="M400 0h100v100H400z"/><path fill="#15395c" d="M500 0h100v100H500z"/><path fill="#143553" d="M600 0h100v100H600z"/><path fill="#153044" d="M700 0h100v100H700z"/><path fill="#1f4d77" d="M0 100h100v100H0z"/><path fill="#1c5682" d="M100 100h100v100H100z"/><path fill="#1b608e" d="M200 100h100v100H200z"/><path fill="#256d9b" d="M300 100h100v100H300z"/><path fill="#246d9b" d="M400 100h100v100H400z"/><path fill="#0d5b8e" d="M500 100h100v100H500z"/><path fill="#054a7c" d="M600 100h100v100H600z"/><path fill="#093e67" d="M700 100h100v100H700z"/><path fill="#316f9e" d="M0 200h100v100H0z"/><path fill="#4d8db4" d="M100 200h100v100H100z"/><path fill="#66a6c6" d="M200 200h100v100H200z"/><path fill="#77b5d2" d="M300 200h100v100H300z"/><path fill="#69b1d0" d="M400 200h100v100H400z"/><path fill="#3c98c2" d="M500 200h100v100H500z"/><path fill="#1e7eb0" d="M600 200h100v100H600z"/><path fill="#0a629a" d="M700 200h100v100H700z"/><path fill="#4884b0" d="M0 300h100v100H0z"/><path fill="#70a5c4" d="M100 300h100v100H100z"/><path fill="#85b7ca" d="M200 300h100v100H200z"/><path fill="#4d879f" d="M300 300h100v100H300z"/><path fill="#5f97ae" d="M400 300h100v100H400z"/><path fill="#7db6cd" d="M500 300h100v100H500z"/><path fill="#4896bf" d="M600 300h100v100H600z"/><path fill="#176fa2" d="M700 300h100v100H700z"/><path fill="#183f53" d="M0 400h100v100H0z"/><path fill="#1e566e" d="M100 400h100v100H100z"/><path fill="#125672" d="M200 400h100v100H200z"/><path fill="#0b5c7d" d="M300 400h100v100H300z"/><path fill="#0f5f7f" d="M400 400h100v100H400z"/><path fill="#125a7b" d="M500 400h100v100H500z"/><path fill="#12435c" d="M600 400h100v100H600z"/><path fill="#0f3349" d="M700 400h100v100H700z"/><path fill="#132d3a" d="M0 500h100v100H0z"/><path fill="#103545" d="M100 500h100v100H100z"/><path fill="#0a3b4f" d="M200 500h100v100H200z"/><path fill="#0a4761" d="M300 500h100v100H300zm100 0h100v100H400z"/><path fill="#05435f" d="M500 500h100v100H500z"/><path fill="#0f3143" d="M600 500h100v100H600z"/><path fill="#152b38" d="M700 500h100v100H700z"/><path fill="#12313a" d="M0 600h100v100H0z"/><path fill="#11333b" d="M100 600h100v100H100z"/><path fill="#0f4045" d="M200 600h100v100H200z"/><path fill="#0e4a50" d="M300 600h100v100H300z"/><path fill="#0c4e53" d="M400 600h100v100H400z"/><path fill="#0b414a" d="M500 600h100v100H500z"/><path fill="#10343e" d="M600 600h100v100H600z"/><path fill="#142e38" d="M700 600h100v100H700z"/><path fill="#0c3c3f" d="M0 700h100v100H0z"/><path fill="#084f4a" d="M100 700h100v100H100z"/><path fill="#085d51" d="M200 700h100v100H200z"/><path fill="#0c554d" d="M300 700h100v100H300z"/><path fill="#0b584e" d="M400 700h100v100H400z"/><path fill="#076454" d="M500 700h100v100H500z"/><path fill="#08564e" d="M600 700h100v100H600z"/><path fill="#0a4242" d="M700 700h100v100H700z"/><path fill="#11333a" d="M0 800h100v100H0z"/><path fill="#0c3f43" d="M100 800h100v100H100z"/><path fill="#0a4a45" d="M200 800h100v100H200z"/><path fill="#094540" d="M300 800h100v100H300z"/><path fill="#0a413f" d="M400 800h100v100H400z"/><path fill="#084d47" d="M500 800h100v100H500z"/><path fill="#074f4a" d="M600 800h100v100H600z"/><path fill="#0a4241" d="M700 800h100v100H700z"/><path fill="#133138" d="M0 900h100v100H0zm100 0h100v100H100z"/><path fill="#0e383c" d="M200 900h100v100H200z"/><path fill="#0b3d3c" d="M300 900h100v100H300z"/><path fill="#0c3c3b" d="M400 900h100v100H400z"/><path fill="#0f353a" d="M500 900h100v100H500z"/><path fill="#0e353b" d="M600 900h100v100H600z"/><path fill="#123138" d="M700 900h100v100H700z"/></svg>