<svg xmlns="http://www.w3.org/2000/svg" width="1992" height="2500"><path fill="#195364" d="M0 0h1992v2500H0z"/><g fill-opacity=".5"><path fill="#93e4ff" d="M-151.4 1001l2295-58.6L835 258.8z"/><path fill="#002b1a" d="M14.6 2651.4L-151.4 835l2295 1621z"/><path fill="#002925" d="M2143.6 786.1v1660.2l-1201.2-879z"/><path fill="#036eb7" d="M1850.6 356.4l293 673.9L415 229.5z"/><path fill="#76b1d8" d="M1782.2 776.4L-151.4 1001 171 424.8z"/><path fill="#005176" d="M258.8 1313.5L952 805.7l839.9 498z"/><path fill="#071e46" d="M2026.4-151.4l9.7 605.5L-151.4 24.4z"/><path fill="#bbe9f5" d="M1215.8 971.7L786.1 610.4l888.7 380.8z"/><path fill="#007c5f" d="M34.2 1753l1748 332-351.5-449.3z"/><path fill="#1f639b" d="M1499 161.1L-151.4 405.3v576.1z"/><path fill="#b0dbe7" d="M1157.2 610.4L630 1001H141.6z"/><path fill="#002f47" d="M1274.4 991.2L962 825.2l-449.2 244.1z"/><path fill="#4aadcc" d="M1206 1040l-419.9 39.1 127 136.7z"/><path fill="#122030" d="M1733.4 962l410.2 810.5-820.4-127z"/><path fill="#102437" d="M73.2 1206l-224.6 478.6 1757.8-48.9z"/><path fill="#218dbf" d="M1069.3 317.4l634.8 664 439.5-156.2z"/><path fill="#0c2a50" d="M-112.3-141.6l-39 449.2 1132.7 9.8z"/><path fill="#6fb5cf" d="M1137.7 444.3L1733.4 962 288.1 649.4z"/><path fill="#08253b" d="M-4.9 971.7l-146.5 224.6 918-127z"/><path fill="#03497b" d="M2143.6 600.6L1635.7 161 493.2 171z"/><path fill="#004159" d="M1587 1284.2l-185.6 332-1201.2-351.6z"/><path fill="#0079a4" d="M1616.2 1157.2L923 1089l488.2 205z"/><path fill="#0e292e" d="M1860.4 2475.6L43.9 2651.4l-156.2-517.6z"/><path fill="#012c49" d="M2085 981.4l-1025.4 39.1 1084 254z"/><path fill="#9ccfdd" d="M1372 737.3l117.3 273.4L786 737.3z"/><path fill="#4a8db2" d="M356.4 463.9l849.7-78.2L-151.4 1040z"/><path fill="#024f42" d="M2016.6 2055.7l-1250 332-810.5-683.6z"/><path fill="#125f8d" d="M346.7 268.6l1025.4 9.7L512.7 503z"/><path fill="#06715f" d="M239.3 1899.4L1762.7 1792 874 1616.2z"/><path fill="#004a65" d="M1284.2 1020.5L590.8 1040l400.4-234.3z"/><path fill="#90c8d6" d="M434.6 649.4l693.3 48.8-468.7 273.5z"/><path fill="#117994" d="M317.4 1186.5l48.8 127 459-166z"/><path fill="#162c37" d="M688.5 4.9l1337.9 195.3-39.1-351.6z"/><path fill="#56a9cf" d="M1782.2 952.1l-517.6-468.7 156.3 527.3z"/><path fill="#0f282e" d="M1303.7 2485.4l703.1 166 136.8-634.8z"/><path fill="#182e39" d="M-44-112.3l1142.6 58.6-1250 322.3z"/><path fill="#0771ab" d="M1479.5 405.3l664 459-273.4 87.8z"/><path fill="#307fa5" d="M805.7 376l439.4-68.4 205.1 371.1z"/><path fill="#7eb0cc" d="M649.4 503l-166 507.7-244.1-19.5z"/><path fill="#072a3a" d="M1352.5 962l166 117.1-293-68.4z"/><path fill="#083f59" d="M-151.4 1245.1l927.8-302.7-468.8 322.2z"/><path fill="#0e3135" d="M1049.8 2143.6l185.6-185.6-498.1-195.3z"/><path fill="#003547" d="M952.1 1186.5l-488.2 293 234.3-283.2z"/><path fill="#102d34" d="M268.6 2651.4l-420-1074.3L337 1196.3z"/><path fill="#077091" d="M1176.8 1215.8l-459-166 244.1 234.4z"/><path fill="#015749" d="M1753 2319.3L1264.5 1665l634.8 97.7z"/><path fill="#a8d2de" d="M815.4 903.3l-410.1-19.5 195.3 107.4z"/><path fill="#91b3bc" d="M1157.2 1088.9l-68.3-39.1-88 29.3z"/><path fill="#0e426d" d="M747 366.2H44l459-332z"/><path fill="#b7d9df" d="M991.2 795.9l234.4 166 302.7 19.5z"/></g></svg>