<svg xmlns="http://www.w3.org/2000/svg" viewBox="0 0 2000 2500"><filter id="b"><feGaussianBlur stdDeviation="12" /></filter><path fill="#195364" d="M0 0h1992v2500H0z"/><g filter="url(#b)" transform="translate(4.9 4.9) scale(9.76563)" fill-opacity=".5"><path fill="#87daff" d="M3.5 102.6l-1-52 188-3.2 1 52z"/><path fill="#002c20" d="M208.1 125.3l4.7 134-212.9 7.4-4.7-134z"/><ellipse fill="#0069b1" rx="1" ry="1" transform="matrix(-7.5186 19.0871 -126.98366 -50.0202 203 74.4)"/><ellipse fill="#8cc2de" rx="1" ry="1" transform="matrix(-11.15857 -18.65498 47.19046 -28.22722 75.9 70.8)"/><ellipse fill="#00537a" cx="98" cy="121" rx="34" ry="34"/><ellipse fill="#9ad7ee" rx="1" ry="1" transform="matrix(5.54122 -14.06722 35.77427 14.09186 132 83.6)"/><ellipse fill="#0b1c43" rx="1" ry="1" transform="matrix(-.53802 17.9379 -186.00032 -5.57876 108 9.4)"/><ellipse fill="#21649d" rx="1" ry="1" transform="rotate(165.6 9.8 29.2) scale(131.92192 18.01692)"/></g></svg>