<svg xmlns="http://www.w3.org/2000/svg" viewBox="0 0 300 188"><g filter="url(#prefix__a)"><g stroke-linecap="round"><path fill="rgba(212,208,191,255)" stroke="rgba(212,208,191,255)" d="M300 188H0l79-51 221 51"/><path fill="rgba(65,126,153,255)" stroke="rgba(65,126,153,255)" d="M0 188V0l79 137-79 51"/><path fill="rgba(249,162,93,255)" stroke="rgba(249,162,93,255)" d="M0 0h300L179 102 0 0"/><path fill="rgba(122,164,188,255)" stroke="rgba(122,164,188,255)" d="m300 0-39 103-82-1L300 0"/><path fill="rgba(123,164,186,255)" stroke="rgba(123,164,186,255)" d="M79 137 0 0l179 102-100 35"/><path fill="rgba(101,45,10,255)" stroke="rgba(101,45,10,255)" d="M300 188 79 137l159-8 62 59"/><path fill="rgba(91,139,153,255)" stroke="rgba(91,139,153,255)" d="m79 137 100-35 59 27-159 8"/><path fill="rgba(103,140,146,255)" stroke="rgba(103,140,146,255)" d="m273 144 27 44-62-59 35 15"/><path fill="rgba(116,13,2,255)" stroke="rgba(116,13,2,255)" d="m179 102 82 1-23 26-59-27"/><path fill="rgba(41,116,143,255)" stroke="rgba(41,116,143,255)" d="M300 0v188l-23-49L300 0"/><path fill="rgba(115,137,134,255)" stroke="rgba(115,137,134,255)" d="m300 188-27-44 4-5 23 49"/><path fill="rgba(124,160,184,255)" stroke="rgba(124,160,184,255)" d="M261 103 300 0l-23 139-16-36"/><path fill="rgba(71,124,142,255)" stroke="rgba(71,124,142,255)" d="m273 144-35-15 39 10-4 5"/><path fill="rgba(57,112,132,255)" stroke="rgba(57,112,132,255)" d="m238 129 23-26 16 36-39-10"/></g><rect width="100%" height="100%" fill="#5c8fa4"/></g><filter id="prefix__a"><feGaussianBlur in="SourceGraphic" stdDeviation="12"/><feComponentTransfer><feFuncA tableValues="1 1" type="discrete"/></feComponentTransfer></filter></svg>