<svg xmlns="http://www.w3.org/2000/svg" viewBox="0 0 1024 640"><filter id="b"><feGaussianBlur stdDeviation="12" /></filter><path fill="#728d96" d="M0 0h1024v640H0z"/><g filter="url(#b)" transform="matrix(4 0 0 4 2 2)" fill-opacity=".5"><ellipse fill="#ffb838" rx="1" ry="1" transform="matrix(70.0313 2.81275 -.63255 15.74915 149.1 30.7)"/><ellipse fill="#441c09" rx="1" ry="1" transform="matrix(6.09148 -68.2537 40.90041 3.65026 194 156.6)"/><path fill="#fffdce" d="M0 139h144v21H0z"/><ellipse fill="#227893" cx="43" cy="106" rx="138" ry="26"/><path fill="#14161d" d="M274.2 179.6l-102.8-7.2 2.4-34 102.8 7.2z"/><path fill="#5099b3" d="M189 136l77-152-13 157z"/><ellipse fill="#7db1d5" cx="23" cy="61" rx="255" ry="22"/><path fill="#900000" d="M192 134.6l-20.3-8.6L188 87.4l20.2 8.6z"/></g></svg>