<svg xmlns="http://www.w3.org/2000/svg" viewBox="0 0 1024 640"><filter id="b"><feGaussianBlur stdDeviation="12" /></filter><path fill="#728d96" d="M0 0h1024v640H0z"/><g filter="url(#b)" transform="matrix(4 0 0 4 2 2)" fill-opacity=".5"><ellipse fill="#ffb63c" rx="1" ry="1" transform="matrix(75.2044 3.80969 -.79824 15.75746 149.8 30.5)"/><ellipse fill="#451905" cx="193" cy="159" rx="41" ry="71"/><ellipse fill="#fff7c9" rx="1" ry="1" transform="rotate(-90.9 107.1 43.3) scale(13.89696 84.55253)"/><ellipse fill="#227994" cx="80" cy="105" rx="102" ry="26"/><ellipse fill="#3288a0" rx="1" ry="1" transform="matrix(23.88588 -27.7699 17.86599 15.36717 230.1 110.6)"/><ellipse fill="#7eb3d6" cx="106" cy="62" rx="214" ry="20"/><ellipse fill="#191619" rx="1" ry="1" transform="matrix(.25485 -8.55487 94.50339 2.81526 235.5 152.3)"/><ellipse fill="#3a8cce" rx="1" ry="1" transform="matrix(-118.61262 40.13698 -9.29679 -27.47383 65.6 0)"/></g></svg>