<svg xmlns="http://www.w3.org/2000/svg" width="1024" height="640" viewBox="0 0 1024 640"><filter id="a"><feGaussianBlur stdDeviation="55"/></filter><rect width="100%" height="100%" fill="#718d95"/><g filter="url(#a)"><g transform="matrix(4 0 0 4 2 2)" fill-opacity=".5"><ellipse fill="#442617" cx="200" cy="144" rx="47" ry="56"/><path fill="#ffb63e" d="M72.5 38.8L263 49.9l-90.7-38.2-80.4 6.5z"/><ellipse fill="#fff6c8" rx="1" ry="1" transform="rotate(-91.4 100 51.9) scale(15.28347 102.09942)"/><ellipse fill="#4196ab" rx="1" ry="1" transform="rotate(-30.8 323.4 -374.3) scale(41.2976 26.66462)"/><ellipse fill="#227996" rx="1" ry="1" transform="matrix(103.72365 -4.38484 1.0597 25.06718 79 104.7)"/><ellipse fill="#7cb1d5" cx="118" cy="63" rx="255" ry="20"/><ellipse fill="#870200" rx="1" ry="1" transform="matrix(12.0426 -21.9054 11.71275 6.43914 191.4 110.6)"/><ellipse fill="#ffa65e" cx="144" cy="30" rx="68" ry="16"/></g></g></svg>