<svg xmlns="http://www.w3.org/2000/svg" viewBox="0 0 300 188"><filter id="prefix__a"><feGaussianBlur stdDeviation="12"/></filter><g filter="url(#prefix__a)"><g stroke-linecap="round"><path fill="rgba(112,146,171,255)" stroke="rgba(112,146,171,255)" d="M0 188V0l60 98-60 90"/><path fill="rgba(82,142,179,255)" stroke="rgba(82,142,179,255)" d="M0 0h300L186 28 0 0"/><path fill="rgba(92,148,171,255)" stroke="rgba(92,148,171,255)" d="m300 0-84 50-30-22L300 0"/><path fill="rgba(66,129,164,255)" stroke="rgba(66,129,164,255)" d="M300 0v188l-59-87L300 0"/><path fill="rgba(220,185,79,255)" stroke="rgba(220,185,79,255)" d="m216 50 84-50-59 101-25-51"/><path fill="rgba(253,207,97,255)" stroke="rgba(253,207,97,255)" d="m186 28 30 22-98 13 68-35"/><path fill="rgba(109,158,188,255)" stroke="rgba(109,158,188,255)" d="M60 98 0 0l118 63-58 35"/><path fill="rgba(255,169,111,255)" stroke="rgba(255,169,111,255)" d="m0 0 186 28-68 35L0 0"/><path fill="rgba(121,166,185,255)" stroke="rgba(121,166,185,255)" d="m216 50 25 51-123-38 98-13"/><path fill="rgba(205,197,184,255)" stroke="rgba(205,197,184,255)" d="M300 188H0l223-15 77 15"/><path fill="rgba(96,135,132,255)" stroke="rgba(96,135,132,255)" d="m241 101 59 87-77-15 18-72"/><path fill="rgba(111,150,157,255)" stroke="rgba(111,150,157,255)" d="m0 188 60-90 163 75L0 188"/><path fill="rgba(63,132,155,255)" stroke="rgba(63,132,155,255)" d="m60 98 58-35 105 110L60 98"/><path fill="rgba(69,124,153,255)" stroke="rgba(69,124,153,255)" d="m118 63 123 38-18 72L118 63"/></g></g></svg>