<svg xmlns="http://www.w3.org/2000/svg" viewBox="0 0 300 188"><filter id="prefix__a"><feGaussianBlur stdDeviation="12"/></filter><rect width="100%" height="100%" fill="#5c8fa4"/><g filter="url(#prefix__a)"><g stroke-linecap="round"><path fill="rgba(83,144,188,255)" stroke="rgba(83,144,188,255)" d="m300 0-56 48-82-38L300 0"/><path fill="rgba(227,124,45,255)" stroke="rgba(227,124,45,255)" d="m162 10 82 38-41 12-41-50"/><path fill="rgba(74,136,175,255)" stroke="rgba(74,136,175,255)" d="M0 0h300L103 6 0 0"/><path fill="rgba(80,138,178,255)" stroke="rgba(80,138,178,255)" d="M300 0 162 10l-59-4 197-6"/><path fill="rgba(117,159,181,255)" stroke="rgba(117,159,181,255)" d="M0 188V0l103 6L0 188"/><path fill="rgba(130,162,151,255)" stroke="rgba(130,162,151,255)" d="M300 188H0l202-87 98 87"/><path fill="rgba(123,165,191,255)" stroke="rgba(123,165,191,255)" d="m203 60 41-12-42 53 1-41"/><path fill="rgba(132,155,171,255)" stroke="rgba(132,155,171,255)" d="m162 10 41 50-1 41-40-91"/><path fill="rgba(255,153,72,255)" stroke="rgba(255,153,72,255)" d="m103 6 59 4 40 91-99-95"/><path fill="rgba(74,139,167,255)" stroke="rgba(74,139,167,255)" d="M0 188 103 6l99 95L0 188"/><path fill="rgba(64,123,145,255)" stroke="rgba(64,123,145,255)" d="M300 0v188l-6-20 6-168"/><path fill="rgba(121,161,186,255)" stroke="rgba(121,161,186,255)" d="m244 48 56-48-6 168-50-120"/><path fill="rgba(110,148,153,255)" stroke="rgba(110,148,153,255)" d="m300 188-98-87 92 67 6 20"/><path fill="rgba(50,86,100,255)" stroke="rgba(50,86,100,255)" d="m202 101 42-53 50 120-92-67"/></g></g></svg>