<svg xmlns="http://www.w3.org/2000/svg" width="1024" height="640" viewBox="0 0 1024 640"><filter id="a"><feGaussianBlur stdDeviation="55"/></filter><rect width="100%" height="100%" fill="#718d95"/><g filter="url(#a)"><g transform="matrix(4 0 0 4 2 2)" fill-opacity=".5"><ellipse fill="#452211" cx="196" cy="145" rx="44" ry="57"/><ellipse fill="#ffb537" rx="1" ry="1" transform="matrix(.69874 -15.38744 72.80353 3.30599 152 30.3)"/><path fill="#fffecf" d="M0 139h144v21H0z"/><ellipse fill="#398ea5" rx="1" ry="1" transform="matrix(-15.96244 -20.20918 32.48498 -25.65861 235.3 109.7)"/><ellipse fill="#207895" rx="1" ry="1" transform="matrix(.99396 24.64663 -118.8422 4.7927 60.2 105.7)"/><ellipse fill="#7db2d6" cx="52" cy="61" rx="255" ry="21"/><ellipse fill="#ffaf69" rx="1" ry="1" transform="matrix(1.4833 12.91958 -52.3936 6.0153 126 27)"/><path fill="#910000" d="M187.1 89.1l-19.6 53 32.5-19.6 7.2-28.8z"/></g></g></svg>