<svg xmlns="http://www.w3.org/2000/svg" viewBox="0 0 1024 640"><filter id="b"><feGaussianBlur stdDeviation="12" /></filter><path fill="#718d95" d="M0 0h1024v640H0z"/><g filter="url(#b)" transform="matrix(4 0 0 4 2 2)" fill-opacity=".5"><ellipse fill="#ffb434" rx="1" ry="1" transform="matrix(-73.8048 -5.0942 1.02244 -14.8131 156.9 30.4)"/><ellipse fill="#461d0b" cx="195" cy="150" rx="42" ry="61"/><ellipse fill="#fff5c8" rx="1" ry="1" transform="matrix(86.67957 -1.33088 .25197 16.41082 62.2 152.4)"/><ellipse fill="#247994" rx="1" ry="1" transform="matrix(-107.2499 4.99943 -1.2124 -26.0091 77.2 106.6)"/><ellipse fill="#358ca6" rx="1" ry="1" transform="matrix(-16.55492 -15.88733 29.01365 -30.23282 233.1 108.2)"/><ellipse fill="#1c1a1f" rx="1" ry="1" transform="matrix(55.79874 -.97136 .27832 15.98783 212 156.5)"/><ellipse fill="#7eb2d5" cx="100" cy="62" rx="233" ry="20"/><path fill="#ffa250" d="M75 22h125v18H75z"/></g></svg>