<svg xmlns="http://www.w3.org/2000/svg" viewBox="0 0 1024 640"><filter id="b"><feGaussianBlur stdDeviation="12" /></filter><path fill="#728d96" d="M0 0h1024v640H0z"/><g filter="url(#b)" transform="matrix(4 0 0 4 2 2)" fill-opacity=".5"><ellipse fill="#ffb436" rx="1" ry="1" transform="rotate(-86.6 93.7 -66.7) scale(15.63449 71.76658)"/><ellipse fill="#441e0c" rx="1" ry="1" transform="matrix(41.06194 4.28105 -6.08375 58.35262 193.9 147.5)"/><ellipse fill="#fffbcc" cx="66" cy="152" rx="83" ry="15"/><ellipse fill="#256c85" cx="142" cy="102" rx="255" ry="22"/><path fill="#a20000" d="M186 91.5l25-4.3-12.7 36.1-29.9 13.9z"/><ellipse fill="#7bb1d5" rx="1" ry="1" transform="matrix(-.86463 21.5274 -203.1944 -8.16113 90.4 61.2)"/><ellipse fill="#1a181d" rx="1" ry="1" transform="matrix(-1.31402 14.35817 -85.34824 -7.81082 235.5 157.2)"/><ellipse fill="#d3d5ba" cx="208" cy="137" rx="125" ry="3"/></g></svg>