<svg xmlns="http://www.w3.org/2000/svg" viewBox="0 0 1024 640"><filter id="b"><feGaussianBlur stdDeviation="12" /></filter><path fill="#728d96" d="M0 0h1024v640H0z"/><g filter="url(#b)" transform="matrix(4 0 0 4 2 2)" fill-opacity=".5"><ellipse fill="#442312" cx="199" cy="149" rx="46" ry="60"/><ellipse fill="#ffb536" rx="1" ry="1" transform="rotate(-177.1 75.7 13.4) scale(73.18136 15.32325)"/><ellipse fill="#fff5c8" rx="1" ry="1" transform="matrix(-.97115 -21.3026 85.4669 -3.8963 61.3 157.2)"/><ellipse fill="#3d91a6" rx="1" ry="1" transform="matrix(18.5675 21.01455 -27.05985 23.90886 234.2 113.7)"/><ellipse fill="#1d7694" rx="1" ry="1" transform="matrix(-142.24907 8.20203 -1.39274 -24.15442 35.5 106)"/><ellipse fill="#7db2d6" cx="51" cy="61" rx="255" ry="21"/><ellipse fill="#860000" rx="1" ry="1" transform="matrix(-13.12425 23.89007 -10.45441 -5.74323 190 111.2)"/><ellipse fill="#251e20" cx="205" cy="155" rx="63" ry="16"/></g></svg>