<svg xmlns="http://www.w3.org/2000/svg" width="1024" height="640" viewBox="0 0 1024 640"><path d="M0 50.5C0 90.2.3 101 1.3 101c.8 0 .7.3-.3 1-1.2.8-1.1 1.3.8 3.3a8.2 8.2 0 0 1 2.2 4.5c0 3 1.6 2.8 2.4-.4.5-1.9.2-3-1.1-4-1.7-1.3-1.7-1.4.5-2 1.7-.5 2.2-1.4 2.2-4 0-1.9.4-3.4 1-3.4s1 1.8 1 4 .4 4 .8 4 .6 1.5.4 3.4c-.2 1.9.1 3.7.8 4 .7.5 1 0 .9-1.6-.3-3.8 0-5.8 1.1-5.8.6 0 .9.6.8 1.3-.2.7.7 1.2 2.2 1.2 2 0 2.6-.6 2.8-2.5.6-5 1.3-5.7 2.7-2.5.7 1.7 1.4 2.3 1.4 1.5.2-1.8 4.6-7 6-7 .7 0 .9 1.4.5 4-.6 3.9-.6 4 2.2 4 2.5-.1 2.6-.3.9-1-1.5-.5-.9-.8 2.8-1.1 3.3-.3 4.7 0 4.7.8 0 .7.5 1.3 1 1.3s1 .7 1 1.5.5 1.5 1 1.5c1.3 0 1.3-2.3-.1-3.7-.6-.6-.8-1.6-.5-2.2 1.2-1.9 3.4-1.2 3.9 1.2.3 1.6.5 1.3.6-1 0-3.2-.6-3.8-3.7-3.4a4 4 0 0 1-2.8-1c-1.1-1-1.4-.7-1.4 1s-.6 2.1-3.2 2.1c-3.4 0-3-1.4.7-2.3 1.1-.3.4-.5-1.7-.6-6.2-.2-6.4-5.1-.2-5.1 3.6 0 4.2.8 2.2 2.8-1 1-.8 1.2.5 1.2 1 0 1.7-.5 1.7-1s1.8-1 4-1 4 .5 4 1 1.3 1 3 1c1.6 0 3.2.5 3.6 1.1.4.8 1 .7 1.5-.2 1.3-2.1 1-2.8-1-2.2-1 .3-2.2 0-2.5-.6-.4-.7.1-1.1 1.3-1.1s2.1-.7 2.1-1.5.5-1.5 1-1.5 1 .9 1 2c0 2.7 1.6 2.6 2.3-.1.4-1.3 1.1-2 2-1.6.7.2 2.4 0 3.7-.8 1.8-1 2.8-1 4.2-.1 2.4 1.5 2.3 2.4-.5 2.8-1.2.2-2.1.7-2 1.3.3 1.6 2 1.7 3.4.2.8-.7 2-1.2 2.6-1 1.3.5 6.3-4.3 6.3-6 0-1-2.9 1-4.1 2.7-.4.5-1.2.5-1.8.2-1.3-.8 1-3.6 2.8-3.6.6 0 1.1-.9 1.1-2s-.7-2-1.5-2-1.5-.5-1.5-1c0-2.3 3.2-.7 5.2 2.6 1.5 2.6 2.5 3.3 3.7 2.8.9-.4 2.8-.7 4.3-.6 1.6 0 2.8-.3 2.8-.8 0-.6-.7-1-1.5-1s-1.5-.4-1.5-.9c0-1.7 12-3.5 16.1-2.4 2.2.6 3.9.6 3.9.2 0-.5.9-.9 2-.9 1.4 0 2 .7 2 2 0 1.9.5 2.1 4.3 1.9a11 11 0 0 1 7 1.6c2.7 1.8 2.8 1.7 4.8-.4 2.1-2.2 1.8-4.4-.5-3.5-.8.3-1.7 0-2.1-.7-.6-.9.4-1 3.9-.5 3.4.5 4.6.4 4.4-.5-.2-.6.3-1.4 1-1.6.7-.3 1.2.4 1.2 1.6 0 1.2.5 2.1 1 2.1.6 0 .8-.5.5-1-.4-.6.8-1 3-1 3.5 0 5-2.3 2.3-3.3-.7-.2-1-.8-.5-1.3.4-.5 1.2-.2 1.7.6.8 1.3 1 1.2 1-.3 0-2.4 2.6-2.2 3.3.3.6 2.5 2.7 2.7 2.7.3 0-1.4.2-1.5 1-.4.5 1 1.6 1.1 3.6.6l2.9-.9-3.5-.6c-3.3-.6-3.3-.7-1-1.3 8.3-2 8-2.1 8 2.2 0 2.2.4 4.3 1 4.6.6.4 1-1.2 1-4s-.4-4.5-1.2-4.5c-.9 0-.9-.3-.1-1 .7-.8 1.7-.8 3-.2 6 3 11.3 4 15 2.7 2.1-.7 3.7-1.6 3.6-2-.7-1.4-.2-2.5 1.2-2.5 1 0 1.5 1 1.5 2.5 0 1.4.4 2.5 1 2.5s1-1 1-2.1c0-1.5.5-2 1.5-1.5 1 .3 1.5 0 1.5-1 0-.7-.6-1.3-1.2-1.2-.7.2-1.4-.8-1.6-2.2-.3-2.1-.2-2.2 1.2-1 1.4 1 1.6 1 1.6-.8 0-1 .6-2.5 1.4-3.1 1.6-1.4 2.6 1.2 2.6 7.1 0 6.8 1.7 4 2.7-4.5 1-7.4 1-7.7 1.2-3l.1 5.3h4c3.8 0 4 .1 4.1 3.3.1 2.3.3 2.6.6 1 .2-1.3.9-2.3 1.4-2.3.5 0 .9-1 .9-2.1 0-1.5-.4-2-1.6-1.5-1 .4-1.4.1-1.2-.6.3-.7 1.7-1.4 3.2-1.6 2.4-.3 2.6-.1 2 2.2-.4 1.6-.2 2.6.5 2.6.6 0 1.1-.6 1.1-1.4 0-.8.7-1.6 1.5-2 .8-.3 1.5-1.3 1.5-2.1 0-.9.4-1.3 1-1 .6.3 1 2.2 1 4 0 4.8 1.7 4.4 2.5-.6.5-3 1-3.8 1.7-2.8s1 1.1 1.5.1c.2-.6 1.8-1.2 3.4-1.2 2 0 2.9-.5 2.9-1.5 0-.8-.8-1.5-1.7-1.5-2.4 0-1.3-.6 2.5-1.3 2.3-.5 3-.3 2.6.5-1.3 2 2.4 3.6 7.2 3 3-.3 4.9 0 5.3.7 1 1.6 6.1-.6 6.1-2.6 0-.7 1-1.3 2.3-1.2 1.2 0 1.6.3 1 .6-2.2.8-1.4 2.6.8 2 1.2-.3 3.3-.1 4.7.4 1.8.7 2.8.7 3 0 .5-1.4 4.2-1.4 4.2-.1 0 .5.5 1 1.1 1 .6 0 .9-.9.6-2-.4-1.5 0-2 1.4-2 1 0 1.9.4 1.9 1 0 1.2 6 4.3 6.8 3.5.4-.3 0-1-.8-1.5-2.5-1.6-.5-2.1 8.9-2.4 7.5-.2 8.9 0 8 1-.7.9-3.2 1.4-6.5 1.4-4.7 0-5.4.3-5.4 2 0 1-.8 2-1.8 2.2-1 .3 1.3.4 5 .4 6.9 0 7.7-.3 5.7-2.3-.7-.7 0-1 2.8-1 3.2.2 3.8-.1 4.1-2 .4-2.8 2.2-3 2.2-.3 0 2 .1 2 2.4.5 2-1.3 3-1.4 4.5-.5 1.7.9 2.1.8 2.1-.5 0-2.2 5.7-2 6.3.3.4 1.3.5 1.1.6-.5 0-1.9-.4-2.3-2.6-2.4h-2.8l2.5-1c2-.8 2.2-1.2 1-2-1.5-.9-1.2-1 2.3-1.3.6 0 1.2.4 1.2.9 0 2 1.7 3.5 3.9 3.5 2.8 0 3.6.8 3 2.6-.4.9-2 1.4-4.5 1.4-2.1 0-3.9.5-3.9 1 0 2.2 8 1 10.4-1.5 1.3-1.4 3-2.5 3.7-2.5 1 0 .9.5-.4 1.4-1 .8-1.4 1.7-.9 2 .5.3 1.5 0 2.2-1 .7-.7 2.3-1.4 3.5-1.4 3.1 0 4.3-1.9 4-6.3-.2-2.3.1-3.7.8-3.7 1.1 0 1.4.9 2 7 .2 3 2.4 5 5.2 4.9 1.4 0 1.6-.2.5-.6-3-1.2-3.7-2.7-2.6-6.3l1-3.5 1 3.8c1 4.2 3.2 4.4 3 .3-.2-1.4.1-2.6.7-2.6.5 0 .9.9.9 2 0 2.2 1.6 2.7 2.3.8.2-.7.8-1 1.3-.5.4.4.3 1.7-.4 2.7-1.5 2.5-.5 3 3.8 2.1 2.6-.5 3.6-1.3 3.8-2.9.5-3 2.2-2.8 2.2.3 0 1.7.4 2.3 1.4 1.9.8-.3 2.5.4 3.7 1.5 2.4 2.2 4 2 2.1-.1-.7-1-.6-1.7.3-2.5.9-.8 1.6-1 2-.3.8 1.3 2.5 1.3 2.5 0 0-.4-.9-1.2-2-1.5-2.6-.8-2.6-2.5 0-2.5 1.1 0 2 .7 2 1.5 0 1.8.1 1.8 3.5.5s1.5-4.7-3-5.3l-3-.4 3.3-.1c1.7-.1 3.2-.7 3.2-1.3 0-.8.4-.8 1.3 0 1 .7 1.7.7 2.4 0 .6-.6 1.6-.8 2.2-.5 1.8 1.1 1.3 2.6-1 2.6-1.7 0-1.9.4-1.3 4.3.8 5.4 2.6 7.5 2.3 2.7-.2-2 .2-4.4.9-5.5 1-1.8 1.1-1.8 1.2-.2 0 1 .5 1.5 1 1.2.6-.4 1.7-.1 2.5.5 1.2 1 1.5.9 1.5-.9 0-1.6.6-2.1 2.4-2.1a17 17 0 0 0 4.3-.6c1.6-.5 1.6-.4-.2 1-1 1-2.5 1.4-3.2 1.2-1-.4-1.3.4-1.2 2.7 0 1.8.3 2.4.6 1.5.3-1 1.4-1.8 2.7-1.8a9 9 0 0 0 4.2-1.5c3-2.2 5.7-2 4.9.5-.5 1.6-.2 2 1.5 2 1.6 0 2-.4 1.6-1.6-.8-2 .4-4 1.4-2.5.3.7 1.4.9 2.3.5 1-.3 1.4-1 1.1-1.5-.3-.5 1.3-.9 3.5-.9s4.3-.5 4.6-1c.3-.5 1.6-1 2.8-1 2.2 0 2.2.1.3 1.5-1.1.8-3.7 1.5-5.8 1.5-3.7 0-5 1.2-2.7 2.6.6.3 1.4.2 1.8-.3.3-.6 2.7-1.2 5.4-1.5 4.1-.5 4.7-.3 4.7 1.3 0 1-.4 1.9-1 1.9s-1 .4-1 1c0 .4 1.3.8 2.9.8 1.5 0 3.3.2 4 .6.6.4 1.1 0 1.1-.8 0-.9.9-2.1 2-2.8 2.4-1.5 2.6-2.8.5-2.8-.8 0-1.5.4-1.5 1 0 .5-.9.8-2 .7-2.3-.1-2.8-1.7-.5-1.7.8 0 1.5-.5 1.5-1 0-1.7 2.9-1.1 5 1 2.7 2.7 3 2.6 3-1.5 0-2.4.5-3.5 1.4-3.5 2.4 0 3 2 1 3.5-1.8 1.3-1.8 1.4-.1 1.5 1 0 1.7.8 1.7 2 0 1.3.7 2 2 2s2-.7 2-2c0-1.5.7-2 2.5-2 2.3 0 2.4-.2 1.5-2-1.4-2.6-3.6-2.6-4.3 0-.3 1.1-1.3 2-2.2 2-1.4 0-1.3-.4.6-3 1.6-2.4 2.7-3 4.3-2.6 5 1.4 13.6 1.9 13.6.7 0-.6.4-1.1 1-1.1s1 .9 1 2 .5 2 1 2c.7 0 .9-.8.6-1.8-.7-2.2 3.8-7 4.9-5.3.3.6.2 1.1-.4 1.1-.6 0-.8.7-.5 1.5.4.8.1 2.2-.5 3-.8.9-.9 1.5-.1 2 .5.3 1 .1 1-.4 0-.6.7-1.1 1.5-1.1s1.5-.7 1.5-1.5 1-2 2-2.5c1.9-1 2-.9 1.5 1.3-.4 1.4-.2 2.8.4 3.2.6.3 1.1 0 1.1-.6 0-.9 1.7-1 6.3-.6 5.1.5 5.8.4 3.7-.6-2.4-1-2.4-1.1 1.5-1.5 2.2-.2 4.2-.8 4.5-1.3.4-.5 2-.4 4 .4 2.7 1 3.4 1 3.8 0 .3-1 .7-1.1 1.8-.2 2.4 2 1.5 2.9-3 2.9-5.4 0-10.6 1-10.6 2 0 1.3 5 1.8 8.3 1l6-1.5c1.5-.3 2.6-.9 2.3-1.3-.2-.4.2-1.6 1-2.7 1-1.4 1.7-1.6 2.2-.8 1 1.6 9.1 2 10 .5.7-1 1.3-.7 2.7.8 1.8 2 1.8 2-1.5 2-2.8 0-3 .2-2 1.5 1 1.2 1.6 1.3 2.7.3 1.2-1 1.8-.9 2.9.6 1.2 1.7 1.3 1.4 1.2-2.8 0-5 .8-6.9 2.1-4.7.5.7 2 1.4 3.4 1.4 2 0 2.4.4 2 2-.4 1.7-.2 1.9.5.8.7-1 1.6-1.1 2.8-.6 2.5 1.2 13.4 1.3 13.4.2 0-.5.7-.6 1.6-.3 5 1.9 6.4 1.8 6.4-.3 0-1.2.6-2.1 1.5-2.1.8 0 1.5.4 1.5 1 0 1.2 6 4.3 6.8 3.5.4-.3 0-1-.6-1.4-.8-.5-1-1.9-.6-3.9.8-3.8 2.6-3.2 2.2.6-.3 2.9 3.7 4.6 5.2 2.3.4-.7 2.4-1.4 4.6-1.7 3-.3 3.4-.2 1.8.5a7.5 7.5 0 0 0-2.8 2c-.3.5-2 1.2-3.6 1.6-1.7.4-3 1-3 1.6 0 1.3 2.1 1.1 5.4-.6a14 14 0 0 1 3.8-1.5c.5 0 1.6-.7 2.4-1.5 1.1-1.1 2-1.2 3.4-.5 2.8 1.5 4.4 1.2 2.6-.5a5.3 5.3 0 0 0-3-1.5c-1 0-1.4-.5-1.1-1 .3-.5 1.5-1 2.5-1 1.3 0 2.2-1 2.8-3.3l.8-3.2.8 4.4c.4 2.4.3 4.7-.1 5-.4.3-.9 1.4-1 2.4-.2 2.6 2 1.5 2.8-1.4.7-2.4.7-2.4.8.4 0 1.5-.3 2.7-.8 2.7s-1.1.9-1.4 2c-.3 1.1-.2 2 .2 2 1 0 3.6-4.2 3.7-6 .4-4.6 1.8-7.9 3.5-8.3 1.3-.3 1.7-1 1.3-2.1-.8-2 .3-2 2.2-.1 1.2 1.2 1.2 1.5.2 1.5-.8 0-.7.4.4 1 2 1.3 1.6 4.5-1.2 7.5l-2 2.2 2.5 1.1c1.5.7 2.3 1.7 2 2.2-.3.6-.1 1 .4 1 2 0 1.1 2-1.1 2.9-1.8.7-1 1 4 1.6 7.3.8 8 .5 5.8-3-1.8-2.7-2.2-8.5-.5-8.5.6 0 .8.9.4 2.3-.7 2-.6 2.1 1 .5 1.5-1.4 1.6-2 .5-3.3-1-1.3-1-1.5 1-1.5 1.4 0 2 .5 1.8 1.6-.5 2.7 2.1 2.8 3.1.2.9-2.1 1-2 1.1 1.2.2 2.9.3 3.1.9 1.2.8-3 2.5-3.3 2.9-.7.7 4.3 1.1 4.8 2.7 3.5a3 3 0 0 0 1-3c-.4-1.3 0-2 1.4-2.5 2.8-.8 4.3.2 3.6 2.5-.3 1 0 2.2.6 2.5.8.6.7 1-.2 1.7-1 .7-.4.8 1.9.4 1.8-.3 3.2-.1 3.2.4 0 .6 1.4 1 3 1 2 0 3-.5 3-1.5s-1.1-1.5-4-1.5c-3.3 0-4-.4-4-1.9s.9-2 4.4-2.3c4.6-.3 6.6 1.1 6.6 4.8 0 2.3 2.4 1.1 2.8-1.4.4-2.6 2.2-3 2.3-.5v2.5c0 .5.6.8 1.4.8 1.2 0 1.3-1 .8-4.5-.6-4.5 1.2-6.8 1.9-2.5.4 2.7 2.2 2.7 2.6 0 .3-1.7.6-1.9 1.7-1 .8.6 1.1 1.8.8 2.6-.3 1 .2 1.4 1.6 1.4 1.4 0 2-.5 1.9-1.4-.2-.8 0-1.5.5-1.5 2.2-.2 2.6 0 2 1.6-.4 1-.2 1.4.4 1 .6-.4 1.4 0 1.7 1 .6 1.4 1 1.3 3.4-1a9 9 0 0 1 9.7-2c1.4.5 1.2.8-1.1 1.8l-2.9 1.2 3.4 1.7c3 1.6 3.3 1.6 2.8.2-.7-1.7-.3-2 4.5-3 2.4-.5 2.8-.3 2.8 1.5 0 1.7-.3 2-1.4 1-1-.8-1.6-.8-2-.2-.7 1 2.4 3.1 4.6 3 1 0 1 0 0-.8-1.8-1 1.1-3.6 3.3-2.8 2 .8 2.8-.8 1-2.3-1.5-1.2-2-4-1-4 1.3 0 3.4 2.9 4 5.4.8 3 2.5 3.5 2.5.6 0-1.1.5-2 1-2s1-.9 1-2 .5-2 1-2 1 .8 1 1.8c0 1.8 4.1 4.2 7.2 4.2 2.4 0 2.5-4.7 0-5.3-1.2-.3-1-.5.7-.6 2.1 0 2.3.2 2 4.4-.4 4-.2 4.5 2 5 3.2.8 4.2-1 3.9-6.3-.2-2.3 0-4.2.4-4.2.5 0 .9 1 1 2.3 0 1.6.1 1.8.5.5.5-1.9 3.3-2.5 3.3-.8 0 .5-.9 2.4-2 4.2-2.5 4-2.7 7.3-.4 6.4l2.1-.6c.3 0 0-.7-.7-1.5-.9-1-.9-1.5-.1-1.5.6 0 1.1-.9 1.1-2 0-3 2-2.4 3.1 1 1.5 4.3 4.9 2 4.9-3.2 0-3.2.3-3.8 2-3.8 1.8 0 2 .3 1 2-.7 1.4-.8 2.6 0 3.8.5 1 1 1.2 1 .5s.9-1.3 2-1.3 2-.4 2-1c0-1.5 4.4-1.6 5.7 0 1 1.3 1.4 1.3 2.2 0 .8-1 1.2-1.1 2.4-.1 1.3 1 1.6.9 2-.6.3-1 .5-.2.6 1.8 0 2 .8 4.4 1.6 5.5 1.5 1.9 1.5 1.9 3 0 1-1.3 1.2-2.2.5-2.4-.5-.2-1-1.1-1-2 0-1.5.3-1.4 1.5.2 1.5 2 1.5 2 1.5-.2 0-1.8.6-2.2 3.4-2.2 3.2 0 3.3.1 3 3.5-.1 2 .2 3.5.7 3.5.5 0 .9.6.9 1.3 0 .7 1.5 1.2 4 1.2 3.5 0 4-.3 4-2.3 0-2-.5-2.2-4-2.2-3.2 0-4-.4-4-1.8 0-1.5.7-1.8 4-1.6 2.9.1 4-.2 4-1.2 0-.8.5-1.4 1-1.4s1 .6 1 1.4c0 .8.6 2 1.3 2.8.7.7 1.6 2 2 3 .9 2.4 2.3 2.3 3-.2.3-1.1 1.2-2 2.1-2 1 0 1.6-.8 1.6-2 0-1.1.7-2 1.6-2 1 0 1.3.6 1 2-.4 1-.2 2.1.4 2.5.5.3 1 0 1-.8 0-1.2 4-2.7 7.1-2.7 2.5 0 .4 2-2.4 2.2l-3.2.4 3 .8c1.6.5 4 1.8 5.2 2.9l2.2 2 1.2-2.7c.7-1.4 1.6-2.6 2-2.6.5 0 .9-.7.9-1.5s.5-1.5 1-1.5c.7 0 1 .6.7 1.3-.2.6.2 2.5 1 4 1.4 2.8 1.5 2.8 3.4 1.1 1.8-1.6 1.9-1.6 2 .2 0 1.7.2 1.6 2-.6l2.1-2.5-2.3-.6c-1.8-.5-1.3-.7 1.9-.8 3.1 0 4.2-.5 4.2-1.7 0-1.3.5-1.2 2.9.5 3.2 2.3 4.8 2.6 5.3 1 .7-2.1 3.3.2 3.5 3.3.3 3.7 2.3 6.4 2.3 3 0-3.8 1-4.9 4-4.4 2.5.4 2.8.7 2 2.3-.9 1.6-.7 1.9 1 1.9s2-.4 1.5-2c-.7-2.3.7-2.6 2.7-.8 5 4.7 9.1 4.7 4.8 0-1.9-2-1.9-2.2-.3-2.2 1.5 0 1.5-.2-.3-1.5-1.7-1.3-1.7-1.4-.1-1.5 1 0 1.7.5 1.7 1.1 0 .6.9.9 2 .6 1.1-.3 2-.1 2 .4s-.7.9-1.5.9-1.5.7-1.5 1.6c0 1.3.3 1.4 1.3.5 1.8-1.4 2.7-.4 2.7 3 0 3-2.4 4-3.3 1.6-.3-.6-.6-.3-.6.8 0 1.2-.6 2.6-1.2 3.2-.7.7-.6 1.2.6 1.7 1.2.4 1.8 0 2.2-1.4.8-3 1.9-2.5 3 1.3.9 3 1 3 1.8-3.3l1-6.5.5 7c.5 5 .7 5.8.8 2.8.3-5.7 3.2-6.2 3.2-.5 0 2 .5 4.4 1 5.2 1.1 1.7 1.3 1 1-4.2 0-2.3.5-4.4 1.4-5.4.9-.8 1.6-1 1.6-.5 0 .6.7 1.1 1.5 1.1 1 0 1.5 1.1 1.5 4 0 2.2.5 4 1 4s1-1.7 1-3.8c0-2.1.6-4.7 1.4-5.7 1.3-1.8 1.4-1.8 2.1.5.5 1.5.4 2.5-.4 2.8-.6.2-1.1 1.4-1.1 2.7 0 2.4 0 2.4 3 .7 1.7-1 2.8-2.3 2.5-3-.7-1.9 1.7-5.2 3.7-5.2 2.3 0 2.3 1.9 0 2.8-1.2.5-.3.9 2.8 1.2 2.5.3 5.3 0 6.3-.5 1.2-.7 2.3-.6 3.7.3 1.8 1 2 1 2-1 .1-1.3.4-1.7.7-1 .2.6 1 1.2 1.8 1.2.7 0 1.6.7 1.9 1.6.3.8 1 1.2 1.6.9.6-.4.8-1 .6-1.4-.8-1.2.8-2.8 3.6-3.5 1.8-.4 2.8-.2 2.8.5 0 1.9 2.8 4 3.3 2.6.3-.6.6.7.6 3 0 3.1.5 4.3 1.6 4.3 1.7 0 2.2-7.6.5-8.2-.5-.2-.6-.9 0-1.7 1.2-2 6.3 3.5 5.4 6-.3 1 0 1.9.5 1.9.6 0 1.1-.5 1.1-1 0-1.5 3-1.2 4.6.5.9.8 3.3 1.5 5.4 1.5 2.7 0 3.8.4 3.6 1.3-.1.6 0 .9.1.5.3-.5 1-.8 1.7-.8s2.1-.9 3.1-2c2-2.2 3.5-2.6 3.5-1 0 1.7-4.2 5-6.3 5-1 0-1.7.7-1.7 1.5 0 2.8 5.3 1.6 10-2.2.2-.2-.2-.8-1-1.3-1.1-.7-.9-1 1.2-1 1.5 0 3 .6 3.5 1.4 1.2 2 12.1 2.7 13.2.9.6-1.1 1.4-.9 4 1.4 3 2.7 4.1 5.3 2.1 5.3-.5 0-1 .4-1 .9 0 .4 1.8.8 4 .8 3.8 0 5.4-1 2.8-2-.7-.2-.9-1-.4-2.3.6-1.2 1-1.5 1.3-.7.3.8 2.2 1.3 4.4 1.3 3.6 0 3.9.2 3.9 2.9 0 3.5 2.1 4.3 10.2 3.4l5.7-.6.4 12.4c.1 6.8.4-10.2.5-37.8L1025 0H0v50.5m415 61.7a17.8 17.8 0 0 0-4.8 3c-.6 1.4-2.2.9-2.2-.7 0-.8-.9-1.5-2-1.5s-2 .7-2 1.5c0 .9-2.7 6.7-6 13l-6 11.4 4.8 2.2c5.8 2.6 10.6 3 10.8.9l.4-9.5c0-4.4.4-7.4.7-6.8.6 1.5 3.2 1.7 3.4.3l.3-1.9c0-.5 2-3.5 4.4-6.6 6-8.2 5.7-9-1.8-5.3m214.8 10.5a80 80 0 0 1-.7 4c-.2 2.6-4.1 1.4-4.1-1.2 0-6.3-3.5-1-10.5 16-2 5-4 9.4-4.4 10-.4.6-3 6.7-5.6 13.8a61 61 0 0 1-5.8 12.7c-.4 0-.5.4-.2 1s.2 1-.3 1c-.6 0-1 1-1 2.3 0 1.2-1.3 23.6-3 49.7a29684.4 29684.4 0 0 0-5.8 87l-.6 8.6-293.9-.4-293.8-.4v4.5l.2 4.6 11.6.4 11.6.3-11.8.2L0 337v47c0 43.8.1 46.9 1.8 47.3 1.6.4 1.6.5 0 .6-2.3.1-2.7 18.6-.6 19.4 1 .4 1 .6 0 .6-2.2.2-1.7 29 .6 29.2 1.4 0 1.4.2-.3.8l-2 .8 2 .5c1.6.5 1.7.6.3.7-1.5 0-1.8 1-1.8 5.5 0 4.4.4 5.5 1.8 6 1.5.3 1.5.4 0 .5-2.4.1-2.3 7.8 0 8.4 1.5.4 1.5.5 0 .6-3.2.2-2 3 1.4 3.4l3.3.4-3.3.1-3.2.2v16.9l3.3 1 3.2 1-3.3-.2c-3.9-.4-4.3 1-.5 1.6l2.8.4-3 .3c-2.8.3-2.7.3 1 1l4 .7-3.8.2c-3.3 0-5.6 2-2.5 2.1 1 0 .9.3-.1 1-1.1.6-.9 1 1 1.3 2 .4 2.1.4.3.6-2.7.1-3.1 5.6-.6 7 1.6 1 1.6 1 0 1-1 0-1.8.8-1.8 1.6 0 1.7 7.2 1.1 7.8-.6.2-.5 1.3-.9 2.5-.8 2.1 0 2.1 0 .2 1-1.7.8-1.7.9.5.4a54 54 0 0 1 7-.6c3.2-.1 1.6-.5-5.3-1.4C1.5 543-.8 542 7.1 541.9c4 0 4.9-.3 3.4-.9-2-.8-1.9-.9.3-1 1.2 0 2.2-.4 2.2-.9 0-1.1-2.5-3.2-3.6-3L6 536c-2.1-.2-2-.4 1-1l3.5-.7L6 534l-4.5-.3 5.3-.7c3-.5 7.5-.5 10 0 2.6.4 3.7.8 2.4.9-1.2 0-2.2.5-2.2 1 0 1.4 3.4 2.3 5.5 1.5 1.3-.5 1.6-.4 1.1.4s-.1 1 1.1.6c1.5-.5 1.6-.4.3.5-1.2.8-.5 1 3 1 3.4 0 4-.2 2.5-.9-1.4-.6-.4-.9 3.8-1 3.3 0 5.6-.4 5.3-1-.4-.4 2.4-1.2 6.1-1.6 4.7-.5 6.2-1 4.8-1.4-1.1-.4-3.4-.6-5-.4-2.7.3-2.8.2-1.2-1 1.8-1.4 1.8-1.4 0-1.9-1-.3-.3-.5 1.5-.6 1.8 0 4 .6 4.8 1.4 1 1 3.5 1.5 7.4 1.5 3.2 0 6.1.4 6.5 1 .3.5-1 .7-3.2.4-3.7-.4-3.8-.4-.8.6 5 1.8 18 2.2 21.7.7l3.3-1.4-4.6-.7c-3.5-.5-4.6-1.1-4.5-2.4 0-1.4-.7-1.7-4.4-1.6-2.8.1-3.6 0-2-.4 2-.5 1.7-.7-2-1.3-3.6-.5-3.1-.6 2.5-.4 3.8.1 7.7.5 8.6.9.8.4 2.8.2 4.3-.4 3.2-1.2 6-1.2 3.1 0-1.3.5-.1.7 3.5.5 4.9-.2 5-.2 1.5.5l-4 .7 5.5.3 5.5.3-4.7.6c-8.2 1.2-6.6 2.4 2.2 1.7 6.4-.6 8.1-.4 7 .4-1.1.9 0 1 5 .5 4.5-.4 6-.3 5 .5-1.2.8-1 1 1 1 2.4.2 2.4.2-.5 1.2L107 537c-2.7.6-2 .7 3 .4 3.5-.3 6.7-1 7-1.6.5-.7 1.3-.8 1.9-.5.6.4 1.1.2 1.1-.3 0-.6-1-1.2-2.3-1.2-1.6-.1-1.8-.2-.5-.6 1-.2 1.8-.9 1.8-1.4 0-.5.8-1 1.8-1s.1-.5-1.8-1c-2.2-.6-5-.5-7.6.2-6.4 1.7-8.8.7-3.4-1.4l4.5-1.7-4 .5c-2.2.3-5 .8-6.4 1.2-1.6.4-2.2.3-1.8-.4.4-.6 3-1.4 6-1.8a23 23 0 0 0 6.2-1.5c1.9-1.4 6.7-1.8 9.6-.7 3.2 1.3 4 3.2 1 2.2-1.6-.5-2-.3-1.5.8.5 1.4 4 2.3 12.3 3 2 .1 3.6.7 3.8 1.3.4 1.2 8.6.5 9.4-.8.3-.5 4.7-.9 9.7-.9 5.2 0 9.2-.4 9.2-1 0-.5.9-.9 2-.9a5 5 0 0 0 3.2-1.4c.8-.8 2.3-1.5 3.3-1.7 1-.2 1.7-.7 1.4-1.1-.7-1.1 3.4-3.7 5.8-3.8 1.3 0 2.3.5 2.3 1s.8 1 1.8 1c1.4 0 1.5.2.2 1-.8.5-2.7 1-4.3 1-1.5 0-2.7.4-2.7 1 0 .4-1 1-2.3 1.3-1.2.2-.3.5 2 .6 6 .2 6.5 2 .6 2.3-3.3 0-3.9.2-1.9.5 2.2.3 2.6.7 1.6 1.3-2 1.3-1 1.8 4 2.5 3.3.4 4 .3 2.5-.4l-2-1 2-.2 6.3-.4c4.2-.2 6.7-1.9 5.5-3.8-.3-.5-1.4-.7-2.4-.4-1 .3-1.9 0-1.9-.5 0-1 3.5-.8 12.5.7 2.2.4 2.5.3 1-.3-1.8-.8-1.8-.9.4-1.5 1.3-.3 3.3-.3 4.5.1 1.1.4 4.6.5 7.6.1 3-.3 4.2-.6 2.7-.7-1.5-.1-3-.9-3.3-1.7-.8-2.1-2.5-1.9-1.8.3.4 1.2.3 1.3-.3.4-.5-.7-1.7-1-2.5-.7-.9.4-1.8 0-2.1-1-.4-.8-1.7-1.6-3-1.6-1.2-.1.3-.5 3.3-.9 3.3-.4 5.8-.3 6.2.3.4.7 4 .7 10 .2 14.4-1.2 16.3-1.2 16 .3-.1.9.4 1.2 1.5.8 2-.6 7.5-.9 11.8-.6 2.6.1 2.7.3 1 1-1.1.4-2.4.5-3 .2-.4-.3-.5 0-.2.5.4.6-1.7 1.3-5.4 1.7a28 28 0 0 0-7.6 1.5c-2.5 1.3 5.8 2.4 12.3 1.6 4.7-.6 5.3-.4 4.8 1-.6 1.4.1 1.6 5.5 1.3 3.3-.1 6.1-.6 6.1-1 0-.5 1.7-.9 3.8-1 4.5 0 10.7-1.5 7.7-1.7-1.9-.1-1.9-.2-.2-1.2 2.2-1.3 6.7-.1 4.6 1.2-1 .6-.1 1 2.6 1 3.5 0 3.7.2 1.5.9-2.5.8-2.4.8.5 1 2 0 2.6.3 1.7.9-2.5 1.5 3.9 2 7.2.5l3.1-1.3h-5c-9.2-.1-3.2-2.1 8-2.7 12-.6 15-1.4 6.4-1.5-3 0-4.8-.3-4.1-.6.6-.2 1-1 .6-1.5-.5-.7 0-1 1.4-.6 1.2.4 2.2.1 2.2-.4 0-.7-1.5-.8-4.3-.4-2.3.4-5.6.7-7.2.7-2.8 0-2.8.1-.6.8l2.4.6-2.7 1.3c-3.2 1.5-7 1.6-6.1.2.3-.5 0-1-.7-1-2.4 0 1.4-1.6 8.5-3.5 8.5-2.3 9.4-3.5 2.5-3.5-5.2 0-10.8 1.8-6.3 2 4.4.3-9.4 3.1-14.3 3-3 0-5.2.3-5.2 1 0 .5.5 1 1.2 1 .6 0 .8.3.4.7-.4.4-2.2.6-4 .5-1.9-.2-3.7.2-4 .7-.4.6-1.2.8-1.9.4s-.4-1 .9-1.5c1-.4-1.5-.6-6-.3-5 .3-7.5.1-7.1-.5.3-.6 4.8-1 9.8-1 5.4-.1 8.4-.5 7.2-1-1.7-.6-1.6-.8 1-1.4 4.7-1.2 1.5-2.5-3.7-1.6a15 15 0 0 1-7 0c-1.3-.5-2-.9-1.8-1a52 52 0 0 0 13.5-3c1.7-1.4.8-4-1.4-4-1.4 0-1.4-.2-.1-1 1.1-.8.7-.9-1.5-.4-2.4.4-2.7.3-1.5-.6 1.2-.9.5-1-3.3-.8-3.7.2-4.6 0-4.2-1 .4-1-.2-1.3-2.2-.9-4.8 1-9.9 2.5-8.6 2.6.7 0 1.3.6 1.3 1.2 0 .8-1.5 1-4.5.7-2.4-.3-4.2-.2-4 .3.4.5 3 .9 5.7.9 6.8 0 5.7.9-1.4 1.2-5.4.2-9.8-1.8-8-3.7.4-.5-.1-.5-1.1-.2-1.8.7-5.2-1.5-4.1-2.6.3-.3 3 .2 6.1 1 3.1.8 5.9 1 6.2.6.3-.5 3.3-1.5 6.6-2.2 3.3-.7 7.4-1.6 9-2.2 1.8-.5 4-1 5-1 2 0 2 0 0-1.4-1.8-1.4-1.7-1.5 1-1.6 1.9 0 2.3-.3 1.2-.6-1-.3-1.6-1-1.3-1.9a2 2 0 0 0-.4-2c-1.7-1-1-2.4 1-2.4a4 4 0 0 0 3-1.8c.6-1 1.3-1.3 1.7-.7 1.5 1.9 12.8 3.3 16 2 1-.4 5.6-.7 10.3-.7 6.3 0 7.6-.2 5-.8l-3.5-.7 3.7-.2c2 0 3.8.4 4 1 .4 1.3 2.3 1.3 14.7.3 5-.4 7-.9 6-1.5-.9-.5 1.1-.8 5.6-.7 5.5.1 6 .2 2.3.5-2.7.2-4.8.8-4.8 1.4 0 .5-3 .9-6.5.9-3.7 0-6.5.4-6.5 1s-1.7 1-3.8 1h-3.7l3 1.4a16 16 0 0 0 6 1.1c1.6-.1 3.6.2 4.3.8.9.7 1.6.7 2.4-.1 1.5-1.5 8.8-1.6 8.8-.2 0 .6-2 1-4.3 1h-4.2l3 1.7a84.5 84.5 0 0 0 31.2-.9c1-.7 1.3-.7 1.3 0s-.6 1.3-1.3 1.3c-2.2.2 4.7 1.7 8.5 1.8 2.3 0 4.1.7 4.8 1.9.8 1.2 1.3 1.3 1.6.4.8-1.8 3.7-1.5 3 .3-.4 1.2.4 1.5 4.2 1.5 10.4 0 22.9 1 26.2 2 4 1.2 12.5 1.2 19 0 4-.7 3.7-.8-4-1-5.3-.1-7.4-.5-5.6-.9 1.6-.3-2.3-.7-8.7-.8-14.2-.1-28.1-2.2-22.9-3.4 5.8-1.2 4.6-1.8-3.6-1.7-8 0-10.2-.5-10.2-2.2 0-.6 1-.6 2.6 0 4.2 1.6 11.7 1.3 11-.5-.5-1.4 1.5-2 5.1-1.6 2 .3 1.5-2.7-.4-3.2-1-.2 3-.6 9-.8 6-.2 11.1 0 11.4.4.2.4-2.6.7-6.4.8-11.6.2-13 1.5-2.3 2.3 15 1.1 22 2.6 23.3 4.7a5 5 0 0 0 3.7 2c2.3.2 2.4.2.3.6-4.5.9-1.3 3.3 4.4 3.3 1.3 0 2.3.4 2.3 1s2.6 1 5.8 1.2c5 .1 5.1.2 1.4.5-2.3.2-4.2.8-4.2 1.4 0 1.3 14.6.8 19.5-.7l4-1.3h-4c-2.6-.1-3.5-.4-2.7-1 .7-.4 3-.5 5-.2 4.9.8 9 .3 7.1-1-1.1-.7-1-.9.5-.9 1.2 0 1.6.5 1.2 1.6-.4 1 0 1.5 1.2 1.3l8.2.1c6 .3 6.2.3 2.5 1l-4 .7 3.5.1c5 .2 9-.9 6.5-1.8-1.3-.4.1-1 4-1.4 3.2-.3 6.1-.3 6.4.2.3.5 4.4 1.3 9.1 1.6 9.1.8 15.2 0 12.8-1.5-.8-.6 4-.9 12-.8 7.2 0 13.2.5 13.2 1 0 1.1 6.8 1 9.5-.1 1.5-.6.6-1-3.5-1-7.2-.3-2.4-1.7 6.3-1.9 6.1-.1 7.2-1.5 1.6-2-4.7-.3-5-1.1-.3-1 5.5 0 9 1 7.2 2-.9.6-.4.9 1.5.9 1.7 0 2.7.5 2.7 1.5 0 1.5-.7 1.7-9.3 2-2.6.1-5 .5-5.5 1-.4.4 2.8.5 7 .2 7.4-.5 10 .2 6 1.8-1.6.6-1.6.7 0 1.6 3.6 2 1.6 2.5-6.8 1.6-5.6-.6-9.6-.6-11.7 0l-3.2 1.1 3.8.1c2 0 3.7.5 3.7.9s.9.8 2 .8 2-.4 2-.8-.8-.8-1.7-.8c-.9 0-1.4-.3-1-.6 1-1 5.8.5 5.2 1.6-.4.6 1.4 1 4.4 1 5.2 0 7 1.5 2.9 2.3l-2.3.4 2.3.2c1.4 0 2.2.6 2 1.4-.3.6-1.3 1.1-2.2 1-.9 0-1.6.3-1.6.8s.7.9 1.5.9 1.5.6 1.5 1.4c0 .8.3 2 .6 2.9.4 1-.1 1.4-1.8 1.2-1.3-.1-1.5 0-.5.2 1.8.4 1.9 1.5 1.2 18.6-.7 18-.7 18.2 1.6 20.6 1.7 1.8 2.5 4.3 3.2 9.5 1 8.1 1 7.1.2 15.6-.3 3.6-.7 12.4-1 19.5-.1 7.1-.6 16-1 19.8-.6 6.6-.6 6.7 1.8 6.7 2.6 0 3.5-4.9 3.9-22.3 0-3.1.5-5.7 1-5.7.4 0 .8.6.8 1.3 0 .9 3.1 1.1 13 .9 10.2-.3 13 0 13 1 0 2-7.3 7.6-10.6 8.3-5.8 1.3-6 1.5-4 3a7 7 0 0 0 3.9 1.5c1 0 4 1.8 6.7 4 2.6 2.2 5.3 4 6 4 3.2 0-.2 2.6-4 3.1-2.5.3 89.7.7 204.8.8l209.2.1v-58.5l-8.3-3.8c-8.5-3.9-12.8-4.4-20-2.8-3.6.9-4.5.6-9.2-2.5-6-4-8-4.2-18.2-2.4-7.2 1.3-16.3.1-16.3-2 0-.5-2.1-1.2-4.8-1.5A332.6 332.6 0 0 0 898 557c-2 0-6 .8-9 1.7a72.2 72.2 0 0 1-29.2.4c-2.2-.7-6.8-1.3-10.4-1.2h-6.5l.6-5.2c.3-2.8.6-6.6.6-8.2 0-1.6.4-2.5.8-1.9.8 1.3 3.6.4 4-1.3 0-.7-.7-1-1.9-.8-2.8.5-3.8-2.4-1.4-4.1 1.4-1 1.5-1.4.4-1.4-1.2 0-1.2-.2.1-1 1-.6 1-1 .3-1-.9 0-1.3-1.6-1.3-4.6 0-2.5.4-4.3 1-4 .4.4 1.1.2 1.5-.4.3-.6 0-1.3-1-1.6-2.8-1.1-1.6-2 3-2.1 2.4-.1 4.8.3 5.1.9.4.6 0 .8-1.2.4-2.4-.7-5.3 1-3.9 2.3 1.4 1.3 19 2.6 18.2 1.3-.4-.5.3-1.2 1.5-1.5 1.2-.4 2.5-.2 2.9.4.3.6.9.1 1.2-1 .4-1.7.2-2.1-1-1.7-.8.3-1.1.1-.8-.4.4-.6-1-1-3.4-1-2.1 0-4.7-.3-5.7-.7-1.2-.4-1.5-.3-1 .5.4.7.1 1.2-.8 1.2s-1.6-.4-1.6-.8c0-.5-.8-.9-1.8-.9-7 0-9.1-.4-8.6-1.8.4-.8 1.8-1.6 3.3-1.6 2-.2 1.6-.4-1.4-1-3.4-.6-3-.6 2-.4 3.3.1 4.9 0 3.5-.3-2-.5-1.7-.7 2-1.3l4.5-.7-5.2.1c-2.8.1-4.9-.1-4.6-.5.2-.5 0-.8-.6-.8a2 2 0 0 0-1.6 1c-.8 1.3-5.5 1.3-5.5 0 0-1.6 3-4 5.3-4 2.1-.1 2.1-.2.2-1a5.5 5.5 0 0 0-3.3-.3c-.6.3-1.2 0-1.2-.7 0-1 1.3-1 5.3-.5 7.2 1.1 12.8 1.2 13.3.3.3-.4 0-.9-.8-1-.7 0 0-.4 1.7-.8 2.3-.6 1.4-.8-3.5-.8-5.6 0-6 .2-3 .9 2.6.6 1.8.7-2.9.4l-8.2-.5c-1.6 0-1.9-.8-1.9-5.4V493l5.3-.4 5.2-.3-5.3-.2c-2.8-.1-5.2-.6-5.2-1 0-.7 6.2-.8 20.3-.3 1.6 0 2.6.5 2.2 1.1-.3.6 0 1 .7 1.2.7 0-1.2.4-4.2.7-3 .4-6.2.3-7 0-.8-.4-2.9-.1-4.5.6l-3 1.3h4c5.4 0 15.5 1.3 16 2.2.3.4-3 1-7.3 1.4A94 94 0 0 0 852 501l-3.5 1 3.7-.3c2-.2 3.5 0 3.3.4-.5.6 4 .1 6.5-.8a19 19 0 0 1 3.5-.8l7.9-1c4-.6 5.7-.5 5.3.2-1 1.6 1.8 2.3 9.5 2.3 9 0 8.5-1-.5-1.1-4.5-.1-6.7-.6-7.1-1.5-.4-1 .3-1.4 2.2-1.5 2.6-.2 2.6-.2.3-.6-2-.4-2.1-.7-1-1.5 1-.7.7-.7-1-.3-1.6.5-2.1.4-1.7-.4.4-.6 1.8-1.1 3-1.1 3.3 0 5.7-1 5-2.1-.3-.5.2-.9 1-.9.9 0 1.6.4 1.6 1 0 1.6 5.8 1.2 8.5-.6 2.4-1.6 20-1.2 19 .5-.1.3-3.6.4-7.7 0-4.9-.3-8.3-.1-10.3.8-1.8.7-2.3 1.2-1.3 1.3 1 0 1.8.4 1.8 1s-.9.6-2.6 0c-3.2-1.3-4.3-1.3-2.4 0 1 .7.1 1-3.4 1-2.7 0-4.7.3-4.4.6.4.3 11.6.6 25 .7 13.3.2 21.8 0 18.8-.4-5.9-.6-3.5-1.3 4-1 3.6 0 4.1-.1 2.5-1-1.7-.8-1.6-.8.5-.3 1.4.4 5.6.7 9.5.6h7l-6.5 1.3-6.5 1.4 6.3-.3c3.4-.1 5.7.1 5 .6-.8.4.5.8 3.2.9l4.5.1-3.8.8c-2.1.4-4.8.5-6 .3-1.6-.3-2.4 0-2.4 1 0 1.2 1 1.4 5.5 1 3.1-.4 5.7-.2 6 .4.4.5 4.3 1.2 8.7 1.6 4.6.3 7 .2 5.5-.3-1.4-.5-1.9-.9-1-1 .8-.2 0-.6-2-1-3.2-.7-3.1-.7 1.8-.9 3.3 0 5 .3 4.7.9-.6 1 4.3 1.5 15 1.3 3.6 0 6.3.4 6.7 1 .6.9.8.9.8 0 0-.7 1-1.3 2.3-1.3 1.6 0 1.8.3.8.9-1 .7-1 1 0 1.7.7.4 1.4.3 1.7-.4.2-.7 1.8-1.2 3.5-1.2h3.2l-3 1.5c-2.8 1.3-2.6 1.3 4.5 1.3 7-.1 7.2-.2 2.5-.8-5-.7-5-.7-1-.8 2.2-.1 5.5.2 7.3.7 2.5.7 3.2.7 3.2-.4 0-.8-.8-1.2-2.3-.9-2 .4-2 .4-.2-.5 1.6-.7.7-1-4-1.6-12.3-1.5-14.3-2.4-4.6-2 6.2.3 9.7.9 10.3 1.7.6 1 .8.9.8-.4 0-1-1-1.8-2.3-2-2.1-.5-2.1-.5 0-.7 2 0 2-.7 2.2-8.2 0-4.4-.2-7.8-.6-7.6-.5.3-2.6.1-4.8-.3l-4-.9 4.5.2 4.5.2.3-15.7c.3-14.4.2-15.7-1.5-16.1-1.7-.4-1.7-.5 0-.6 1.6 0 1.7-3.7 1.6-62.4 0-34.2-.3-61.6-.6-61-.4 1-43.8 1.3-211.9 1.3H601v-2.3c0-2.4 4.4-71.7 6-94.7l2.5-36.5c1.3-18.2 2-23.5 4.3-30.7l2.7-8.6 9.2.5c10.2.7 10 .8 7.8-5.7-.8-2.3-1.5-4.9-1.5-5.6 0-.8.7-1.4 1.5-1.4s1.6-.9 1.6-2c.2-2.8.3-3.2 1.6-5.5.5-1.1 1.6-3.6 2.2-5.6.7-2.3 2.2-4 3.9-4.9l2.7-1.2-2.4-1c-3-1-8.1-.7-8.1.6 0 .6-.5.5-1.2-.2-1.3-1.3-3.7-1.6-4-.5m17.7 2.7c-2 1.4-1.9 1-1.5 27.7 0 5.5.5 8 1.5 9 1.2.9 1.3 1.5.4 2.5s-.8 1.4.5 1.4c1.2 0 1.6 1 1.6 4 0 2.1.5 4.2 1 4.5.5.3 1 2.4 1 4.5s.6 4 1.3 4.3c.6.3.2.6-1 .6-3 .1-2.9 1.7.2 2.5s5-.1 3.6-1.7c-1.1-1.4-2-17.7-.9-17.7.5 0 .8-1.1.8-2.5s.6-2.5 1.3-2.5c.8 0 1.4-1.5 1.5-3.8.4-6.8 1.3-11.7 3-15.2.8-2 1.6-4.3 1.7-5.4.1-1 1-2.3 1.9-2.8.9-.5 1.4-1.3 1-1.9-.3-.5.2-.9 1.1-.9.9 0 1.3.4 1 1-.3.6 0 1 .8 1 1.2 0 2.7-2 2.7-3.6 0-.2-1.8-.4-4-.4s-4-.4-4-1c0-.4-1-1-2.3-1.3-1.8-.3-1.6-.5.8-.6 3-.2 3-.2-1-1.6-5-1.9-11.6-1.9-14-.1M832.3 137c3.3 1.3 4 5.5.7 4.6-3.4-.9-2.2 1.5 3.1 6.5 4.8 4.5 5.3 4.7 7 3.3 1-1 1.5-2.5 1.2-3.8l-.4-2.2 1.3 2.2c.7 1.2 1.3 4.4 1.3 7-.1 5.3-2 6-7 2.7-3.4-2.2-14.2.4-53.3 12.9-2.2.7-2.9 1.3-2 1.9 1.8 1.1 6.5 1 8.6-.3 1.3-.8 3.6-.5 9.2 1.1l12.5 3.6c2.8.7 7 1.4 9.6 1.4 2.5 0 7 .8 10 1.8 10.5 3.6 10.6 3.6 12.4-.2 1.3-2.7 1.4-4 .5-5.5-.9-1.8-.8-2.1.7-2.1 1.4 0 1.3-.4-.7-1.5-1.4-.8-2-1.5-1.5-1.5s.3-.5-.5-1.1c-1.3-1-1.2-1 .3-.5 1.1.3 1.7 0 1.7-1 0-1.4.3-1.4 1.6-.3.8.7 1.3 2 1 3-.5 2.2.3 2.3 3.8.7 2-.9 2.3-1.4 1.5-2.5-.9-1-.8-1.7 0-2.7.8-1 .9-1.6.1-2a2 2 0 0 1-.8-2c0-.6-.2-3.1-.7-5.6-1-6-.8-11 .7-12.7 1.7-2.1-1.7-4.6-5.5-3.9-1.5.3-2.7.2-2.7-.3 0-1.3-5.4-2-6.1-.9-.4.6-1.3.7-2 .2-.7-.4-3-.9-4.9-1-3.4-.3-3.4-.3-.8.7m93.5 16.5c-.3.3-.3 1.3 0 2.2.3 1.1.2 1.3-.4.5-.6-.8-1.8-.3-4 1.8-3.1 2.7-4.2 4.9-2.5 5 2.2 0 8.2 15 8.2 20.6 0 3.8 1 4.1 3.5 1.3 1.6-1.7 1.7-3.3 1.2-13.3-.4-6.3-1-12.2-1.3-13.3l-1-3.4c-.5-1.3-.6-1.3-1.5 0-1 1.2-1 1.2-.5-.3.5-1.6-.4-2.3-1.7-1.1M902 168.1a135 135 0 0 1-15.8 11 40 40 0 0 0-7.2 4.8c0 .6 18.9 8.1 20.3 8.1 1.3 0 12.5-29.6 11.5-30.6-.2-.1-4.1 2.9-8.8 6.7M237.5 336.8c.4.4 3.4.8 6.8.8 10 .2 10.9.3 10.2 1.4-.4.6.9 1 3.2 1 3-.1 3.4-.3 1.8-1-1.4-.7-.4-.8 3.3-.6 2.9.2 5.5.6 5.9 1 1 1 2.3.7 2.3-.7 0-.8 1.4-1 4.8-.8 4 .4 4.3.5 2.2 1.2l-2.5.7 2.8.1c1.8 0 2.7-.4 2.7-1.5 0-.9.6-1.4 1.3-1.1.6.2 1 1 1 1.6-.2.6.1 1.1.7 1.1s1-.4 1-1 .5-1 1-1c.6 0 .8.4.5 1-.9 1.4 32.8 1.3 34.2 0 .8-.9 1.3-.9 1.7 0 1.1 1.7 2.6 1.2 1.9-.8-.6-1.4-.4-1.5.9-.5.8.7 1.9 1 2.3.5.5-.4.5 0 0 .7-.6 1.1-.3 1.2 1.6.6 1.3-.5 7.2-.9 13.1-1 6 0 10.8-.4 10.8-.9s.6-.4 1.3.1c1.5 1.3 10.9 1.4 10.1.2-.6-1 1-1.2 2-.2s11 1.1 12.4 0c.8-.6 1.2-.6 1.2 0 0 .7 2.6 1 6.5 1 4.4-.1 6.5-.6 6.5-1.4 0-1-16.7-1.3-78-1.2-43 0-77.9.4-77.5.7m348.4.6c-.3.2-73.7 1.5-91.6 1.6-.7 0-1.3.4-1.3.8s21.1.8 47 .9c45.5.1 47 0 47-1.8 0-1.9-.3-2.2-1-1.5m14 2c0 1.6.5 1.7 3.6 1.2 2-.4 10.6-.7 19.2-.8 10.4 0 14.7-.3 12.7-.9-2.1-.6-1.4-.6 2.5-.2 3 .3 6 .4 6.5.3l18-1c13.5-.5 8.7-.7-22.7-.6-38.1.1-39.8.2-39.8 2m116.7 24.2c-.3.3-.3 1.2 0 2s-.1 1.4-1.1 1.4-2 1-2.5 2.3c-1.1 3 0 4.7 1.2 1.9 1.2-2.6 4-3 3-.4-.6 1.5-.5 1.5 1 .3 1.2-1 1.7-1 1.7-.2 0 .6-1 1.5-2.2 2-1.4.5-1.7 1-1 1.5 1.5.9 1.6 3.6.2 3.6-.5 0-1-.9-1-2s-.4-2-.9-2c-1.4 0-3.3 2.8-2.7 3.9.3.5 0 1.2-1 1.5-1.1.4-1.3 0-.8-2.2.6-2.4.5-2.5-.9-1.2-2.2 2.2-3.2 6.1-1.4 5.4.8-.3 1.7.2 2 1 .5 1.1.3 1.5-.5 1-.6-.4-.8-.3-.4.4.3.6.2 1.3-.4 1.7-.5.3-1 0-1-.8 0-2.5-2.7-1.4-3.8 1.5-.8 2.2-.8 2.8.4 2.8.8 0 1.4.4 1.4 1 0 .4-.9.6-2 .3-1.9-.5-4.6 2.8-3.3 4 .3.4-.5.7-1.8.8-2.2 0-2.3.1-.4.9 1.1.5 1.5.9 1 1-.6 0-2.6 3-4.4 6.5-2.5 4.8-4 6.5-5.5 6.6-1.5.1-1.7.2-.4.6 1.5.4 1.5.8-.4 5.1-1.2 2.6-2.4 5-2.7 5.2a10 10 0 0 0-1.8 3.3c-.7 1.5-1.7 2.7-2.2 2.7-.6 0-.8.9-.6 2 .2 1.1 0 2-.6 2-.5 0-.9-.5-.9-1.1 0-.8-1.5-1-4.7-.5-6.1.8-8 2.6-2.2 2 3.2-.3 3.8-.2 2.4.5-1.9.8-1.8 1 .6 1.6 2.4.6 2.5.9 1.5 3-.6 1.4-1.5 2.5-2 2.5-.4 0-.5.4-.1 1 .3.4-.1 1.5-1 2.3-.7.8-1.1 1.7-.8 2 .4.4-.5.7-1.8.7-1.7 0-2 .3-1 .9 1.4.9-1 7.7-3.3 9.3-.6.4-.7 1-.4 1.4.8.8-1.6 3.4-3.1 3.4-.6 0-.8.6-.5 1.4 1 2.6-1.4 5.7-4.1 5.2-1.4-.3-2.5 0-2.5.5s.9.9 2 .9c2.1 0 2.6 1 1 2.6-.4.5-2.9 4.7-5.3 9.4-4.2 7.8-4.8 8.5-8.2 9.1-2 .3-3.8.2-4-.3-.4-.4 1.1-.9 3.2-1l3.8-.1-3.4-.4c-4.1-.5-8.1.4-8.1 1.8 0 .5.3.8.8.6.4-.3 1.6 0 2.7.4 1.8.7 1.8.8-.5.9-2.4 0-2.4.1-.6 1.5 1.1.8 3 1.6 4 1.6 1.2 0-1.5.7-5.9 1.4l-8 1.2 5.7.2c5.8.1 8.8.8 8.8 2s-14.1-.9-16.3-2.4c-2.5-1.8-8.2-2-7.1-.4.4.8-.3 1-2.4.4-1.6-.3-3.3-.2-3.6.3-.3.6 2.7 1.2 7.2 1.6 4.2.3 8.6.7 9.7 1 1.1.2 4.2.4 6.8.5l4.8.1-7.2 13.8-7.4 14c-.1.1-3.3-3-7.1-7-17.3-18-18.4-19-18.8-17.7l-1 4.1c-.4 1.6-1 2.8-1.6 2.8-.5 0-.7-.6-.4-1.3.3-.8-.5-1.9-1.8-2.5l-2.3-1.2 2.5.3c1.8.1 2.6-.3 2.8-1.8.2-1.8-.4-2-5.8-2.2l-6-.2v6.4c0 6.2 0 6.4 2.8 6.7 3.2.4 3.7 3 .7 4-1 .4.5.5 3.5.2 4.2-.5 5.2-.3 4.4.6-1.3 1.3-5.8 1.6-9.4.6-1.9-.6-2.1-.5-1 .3 1.3 1 1.3 1-.3 1-1 0-1.7.6-1.7 1.2 0 .5.8 1 1.8.8 1-.1 2.8.3 4.2.9 2.3 1 2.2 1-1.8 1.1-3.6 0-4.2.4-4.3 2.4L587 557c-.5 8.5-1 17.8-1 20.7v5.2l3.8-1.3c2-.7 5.7-1.7 8.2-2 2.4-.5 5-1.5 5.8-2.3.9-.8 2.2-1.1 3.5-.7 2 .6 2 .5.8-1-.7-.9-1-1.6-.6-1.6s1.4.8 2 1.7c.8 1 1.7 1.4 2.1 1 .5-.4.3-1.1-.3-1.5-.8-.5-.9-1.2-.2-2.2.8-1.3 1-1.3 2 0s1 1.2.5-.3c-.4-1.2-.2-1.6.6-1 .8.4 1 0 .5-1-.5-1.2-.3-1.6.4-1.1.7.4 1 .1.7-.6-.2-.7.6-2.4 1.9-3.8 1.2-1.3 2-2.8 1.8-3.2-.3-.5-.1-1 .3-1.2.8-.3 7.3-11 10.4-17.3l17.5-32.5c40.9-75.3 44.2-81.6 43.9-83.6-.2-1-.1-1.3.1-.5.8 2.2 16.3-27 15.7-29.4-.4-1.7-.3-1.8.6-.5 1 1.3 1.1 1.2.6-.3-.3-1-.2-1.5.4-1.2.5.3 2.3-2.1 4-5.4 3.2-6.5 3.6-7.6 2-6.6-.5.3-1 .2-1-.4 0-1.6 1.8-2.2 2.4-.9.3.7.3.2 0-1.2-.4-1.8-.3-2.1.4-1.1.8 1 1.5.5 3.1-2.7 2.4-4.8 2.6-5.6.9-4.6-1 .6-1 .3 0-.9 1.2-1.3 1-2.1-1-5.1-1.4-2-2.7-3.3-3-3m-132.9 49.5c0 1.3-.2 3.5-.4 4.9-1.4 9-2.4 34.4-1.5 35.6.7.7.7 1.3.1 1.6-1.7.6-2.5 10.8-.7 10.8 1.1 0 1.3-.8 1-3.5-.5-2.3-.3-3.5.5-3.5 1.2 0 1.5-6.4 1.3-26.5 0-5.3.2-7.5.8-6.5.8 1.3 1 1.2 1-.3 0-1-.5-1.7-1-1.7s-1-.8-1-1.8c0-1.4.2-1.5 1-.2.6 1 .7-.6.3-4.5-.6-6.4-1.2-8.4-1.4-4.4m4.7.6c-.2 1-.8 8-1.2 15.6-.6 12.2-.5 13.7 1 13.7.9 0 1.6.7 1.6 1.5 0 .9-.6 1.2-1.5.9-1.9-.8-2.2.4-2.8 8.8-.3 4 0 6.5.5 6.2.5-.3.6.6.3 2.3-.5 2.1-.4 2.4.4 1.3.9-1.2 1-1 1.1 1l.1 2.5 1-2.4c.5-1.3 1-4.9 1-8 0-6.2 1.5-21 1.7-17.2.1 1.3.4 2.2.7 2 .2-.3 0-4-.4-8.3-.5-4.2-.5-9 0-10.4.6-2.2.8-1.7 1 2.8 0 3 .3 4.7.6 3.8.2-1 .9-1.8 1.4-1.8.6 0 .7.4.4 1-.4.6.6 1 2.2 1 2 0 2.4-.3 1.4-.9-1.1-.7-1.1-1 0-1.4.8-.3 0-.6-1.7-.6-3-.1-3.2-.4-3.8-4.7-1-7-.8-10.2.4-8.4.8 1.3 1 1.2 1-.3 0-1.2-.8-1.7-3-1.7-1.9 0-3 .6-3.4 1.8m-26.3 10.4c-.2.5.7.8 2.1.8 1.4 0 2.6.4 2.6 1 0 1.3-1.2 1.3-4.5 0-1.5-.6-6-1.2-10-1.3-6.9-.3-7.3-.2-6.4 1.6.8 1.4 1.4 1.6 2.4.7.8-.6 3.2-.8 6.1-.5l11.9 1.4c6.3.7 5.5.8-7 1-16.6.2-21.8 1.8-6.4 2 5.7 0 12.2.6 14.4 1 2.2.6 5.6 1 7.5 1l3.5-.2-4-.8c-3.9-.7-3.8-.7 1.3-.6 4.3.2 5.2 0 5.2-1.6 0-1-.7-1.7-1.8-1.7-1.4 0-1.5.2-.2 1 1.1.7.7 1-1.8 1-2.2 0-3.2-.5-3.2-1.5s-1.3-1.8-3.3-2.2c-3-.7-2.8-.8 2.8-1.8l6-1.2-8.3.1c-4.6 0-8.6.4-8.9.9m44.1 2.3c1.9.6 1.8.7-.5 2-2 1-2 1.3-.6 1.4 1 0 2.5-.7 3.3-1.5.9-.8 2-1.5 2.7-1.5.7 0 .6.5-.3 1-1.1.9-.5 1 2.3.5 2.7-.4 3.7-.2 3.7.7 0 1-1.3 1.3-4.3 1.2l-4.2-.2 4 .7c3.8.8 3.8.8 1 1.1-1.6.2.1.6 4 1 7.9.6 11.5.2 11.5-1.2 0-.5-2-.8-4.5-.7-2.4.2-4.8 0-5.1-.4-.4-.4.1-.7 1.2-.8l4.4-.4 9-1.4c6.3-.9 6.1-1-4.5-.8-6 0-14.1-.2-18-.6-3.9-.3-6.1-.4-5 0m31.8 2c-7.6 2-9.5 4.6-3 4.3 6.7-.4 11.1 0 10.3.7-.4.5-3.5.8-6.8.8-3.7 0-6.3.5-6.5 1.1-.5 1.5 10 1 14-.5a23 23 0 0 1 6.5-1.2l3.7-.1-4-1c-2.1-.4-4.1-1.1-4.4-1.4-1.5-1.6 17.1 2.8 19.3 4.5 1.8 1.4 7.5 2.1 8.1 1 .4-.5-.7-.9-2.4-.9-4.2 0-6.7-1-5-2.1 1-.6.7-.9-1-.9-1.4 0-2-.4-1.5-1.1.5-.9-.4-1-3.2-.6-3 .5-3.4.4-1.9-.3 1.7-.9 1.6-1-.8-.7-1.5.3-2.7.1-2.7-.2 0-.4-1.7-.6-3.8-.4-3.5.2-3.6.2-.7-.6l3-.9h-3.2c-1.7-.1-3.5.3-3.9 1-.5.7-1 .5-1.6-.6-.5-.9-1.2-1.6-1.6-1.5l-7 1.7M486 434.2c-1.5.6-2 1.2-1.3 1.5.7.3 1.3.9 1.3 1.4 0 .6-.7.6-1.9 0-1-.6-4-.9-6.7-.6-12.9 1.2-19.8 1.4-17.4.5 1.8-.7.7-.8-3.5-.4-3.3.3-8.5.4-11.5.3-3-.2-7.9-.2-10.8 0-4 0-5.2-.2-4.6-1 .5-.9.2-1-1-.6-1 .4-3.6.8-6 .8-4 .1-4 .2 1.4 1 7 1.2 62.8 1.9 65.5.8 1.1-.4 1.4-.8.6-.8-1 0-.6-.8.9-2.1l2.3-2H491c-1.3.1-3.5.6-4.9 1.2m33 1.9c4.5.7 4.5.7-1.5.7-11.2 0-15.8.2-15.2.8.7.7 18.3.6 23.7-.1 2.8-.4 3.1-.3 1.5.5-1.5.7-.4.9 4 .4 7.3-.7 6.2-.7 11-.4l4 .2-3.5 1c-3.1 1-2 1.3 10.4 2.4 8.9.8 14.7 1 16.3.3 3.4-1.3 7.3-1.2 5.3.1a9 9 0 0 1-4 1c-3.7 0-2 .7 3.8 1.4 4.4.6 5.2.4 5.2-1 0-1.1-.6-1.4-2.2-.8-2.1.6-2.2.5-.8-1.1 1.4-1.7 1-1.8-10.5-1.2-6.6.3-13.8.2-16-.3-3.2-.8-2.5-.9 4-.5 9.7.5 7.1-1-3.5-2-4-.3-8-1-8.5-1.3-1.8-1.1-8.3-1.3-9-.2-.3.5-1 1-1.6 1-.6 0-.8-.4-.5-.8.2-.4-3.5-.8-8.2-.8-7 0-7.8 0-4.2.7m-85.5 45.5c.9 1 4.2 2 7.3 2.3 5.5.7 5.6.7 2.3 1.5-2.4.6-3 1-2 1.6.7.5 2 .5 2.7 0 1.8-1 5.4-.1 4.6 1.1-.3.5-2 1-3.7 1l-3.2.2 3.5.6c2.1.4 4 .3 5-.4.9-.7 2.5-.9 4-.4 2.3.6 2.2.7-1 1-2.3 0-2.8.3-1.4.6 1.7.3 2 1 1.6 2.5-.3 1.5-.1 1.9.7 1.4.6-.4 1-1.1.6-1.6-.5-.9 3-2 6-2l2 .1-2 1c-1.5.7-1 .8 1.8.4 2.4-.4 4.4-.1 5.3.6 1.1 1 1.8 1 2.6 0 .7-.6 2.9-1.1 5-1.1 2 0 4-.5 4.3-1 .4-.7-.8-.8-3.7-.4-4.6.7-4.5-1 .2-1.9 1.4-.2 0-.5-3.2-.6-3.2 0-6 .4-6.4 1-.4.7-2.3.8-5.3.4-6.4-1-8.3-2.2-3.5-2.3a355.9 355.9 0 0 1 22.7-1c5.3-.1 9.7-.6 9.7-1 0-.6-.6-1-1.3-.9a75 75 0 0 1-15.2-2.2c-.6-.3 1.5-.9 4.5-1.2 4.5-.5 3.9-.6-3.5-.6-5 0-7.5.2-5.8.4 1.8.2 3.3.8 3.3 1.4 0 .5-1.5 1-3.3 1-2.2 0-2.6.3-1.5.7 1 .4-3.2.7-9.1.7-7.4 0-10.7-.3-10.4-1 .2-.8-.7-1-2.6-.7-1.7.2-4.8 0-6.8-.4l-3.8-.8 4.5-.6 4.5-.7-5.8-.2c-5.4 0-5.7 0-4.2 1.5M203 488.2c0 .5 1.2.9 2.8 1 1.8 0 1.2.3-1.8.8-4.3.7-4.1.7 2.3.9 3.8 0 6.6.4 6.4.9-.3.4 4.5.7 10.6.8 8.5 0 10.2-.2 7.2-.8-5.9-1.3-7.2-3.3-1.5-2.3 2.5.4 6.8.7 9.5.6 4.5-.1 4.8 0 3.2 1.3-2 1.6-1.4 4.2.6 2.9.7-.4 2-.6 3.1-.4 1.9.3 1.9.2.1-1.5-2.2-2.2-1-2.7 4.1-1.6 2.2.5 5.7.4 7.9 0 2.2-.5 5.4-.7 7-.4 2.1.4 2.6.3 1.5-.4-1-.6-.2-.8 2.7-.5 2.4.2 4.5 0 4.8-.5.7-1.2-10-2.4-13.2-1.4a12 12 0 0 1-3.6.5c-.5 0-.6.2-.3.7.7 1.1-1.2 1.1-10.9.1a238 238 0 0 0-31-1.2c4.4 1 3.8 2.3-1 2.2-3.6 0-4.4-.3-3-.8 1.5-.6.8-1-2.8-1.2-2.6-.2-4.7 0-4.7.3m469.1 2c0 2.1-.6 3.8-1.2 3.8-.7 0-1 1-.6 3 .4 1.7.2 3-.5 3.2-1 .4.7 13.5 4.8 37.4l.6 3.2-4.6-.9c-4.6-.8-27-7.4-28.6-8.4-.4-.3-1 0-1.3.7-.2.7 2.3 4.2 5.7 7.8a1173 1173 0 0 1 14 15.1c7.5 8.5 8 8.7 13.4 9.5l5.7.9.5 4c.5 4 .5 4 1.3 1 .7-2.3 1-2.6 1.8-1.4.8 1 .8.7.3-1.1-.3-1.4-.3-2.1.2-1.7.5.5 1.4 3.4 2 6.5.6 3.1 1.2 4.6 1.3 3.2 0-2-9.3-59.7-13.9-85l-.8-4.5v3.8m-116.7-.6c-4.5 1-3.6 2.2 1.3 1.6 3.3-.4 5.2-.2 5.2.4 0 1.6-3.2 2.1-12.2 1.8-4.6-.1-6.4 0-4 .2 2.8.3 4 .8 3.6 1.5-.5.7-.1 1 1 .5.9-.3 1.6-.3 1.6 0 0 .5 1.4.8 3 1 1.7 0 3-.3 3-.7 0-1.4 18.3-2.1 19.2-.8.5.9.8.4.8-1.3 0-2.5-.2-2.6-5-2.1-3.4.3-6 0-8.4-1.2a11.5 11.5 0 0 0-9.1-.9m-307 4.4c-1.6.7-1.3.8 1.6.5 2-.2 4.2 0 5 .5 1 .6.7.9-1.3.9-1.6 0-2.8.4-2.8.9 0 1-14 2.2-15.4 1.4-.4-.3-.2-1 .5-1.4 1-.6.8-.9-.8-.9-1.4 0-2.3.6-2.3 1.5 0 .8.5 1.5 1 1.5.6 0 .9.4.6.9-.3.4-5.6.7-11.8.6-10.3-.2-10.8-.2-5.3.7 3.3.5 8.5 1 11.5.9 4-.1 5 .1 4 .9-1.2.8-1 1 1 1s2.2.2 1 1c-1.2.8-1 1 .8 1 1.3 0 2-.4 1.7-1-.3-.4 1-1 2.7-1.3l3.3-.4-3.1-.1c-2.9-.2-7.2-3.2-4.6-3.2a2 2 0 0 1 1.7 1c.3.6 1.2 1 1.8 1 .8 0 .8-.3-.1-.9-1-.6-.7-1 1.4-1.5 1.7-.5 3-.3 3.5.5.7 1.2 8.6 1.4 12 .3 1-.2 2 0 2.4.6.3.5 1.7.7 3 .4 1.5-.4 2.5-.2 2.5.5 0 .6.8 1.1 1.7 1.1 4.4 0-1.8-3.1-7.8-4-6-.9-5.8-.9 3-.5 6.2.3 9 .1 8.6-.6-.4-.5-1.4-1-2.3-.8-3.3.3-10.7-.4-8.4-.8 2-.4 3.2-2.2 1.4-2.4-7.4-.7-10-.6-11.7.2m26 .4c-1.8 1.4-1.8 1.5 0 1.5 1 0 2.3.7 3 1.6.7 1 3.2 1.8 6.6 2 3 .3 6.9 1 8.6 1.4 1.8.5 3.3.5 3.3 0s-1-1-2.3-1.3c-1.8-.3-1.6-.5.8-.7 3-.2 3-.2.5-1-2-.8-1.6-.8 1.5-.5l6 .6c1.6 0 1.7.2.5.9-.9.5 3.3 1 11.4 1.2 7 .2 13 0 13.3-.4.2-.5-2.4-.8-5.9-.9-4.7 0-5.7-.3-3.8-.9l2.5-.8-2.8-.1c-1.6 0-2.6-.5-2.2-1.1.3-.6-.1-1-1-1s-1.3.4-1 1c.3.6.1 1-.4 1-.6 0-1.1-.4-1.1-1s-.8-1-1.8-1c-1.4 0-1.5.2-.2 1 1.1.7.4 1-2.5 1-3.1-.1-3.6-.3-2-1 1.3-.6-1-.9-7-1-6.2 0-8.5.3-7.5 1 1.7 1.1 0 1.3-2.6.3-1.6-.6-1.6-.7.2-1.4 1.4-.6 1-.8-1.6-.8-2 0-5-.4-7-.6-2.3-.4-4.2 0-5.4 1m528.6 0c-1 1-1.1 2.6-.6 4.8.4 1.8.7 3.5.6 4-.1.4.2.7.7.7.4 0 .6 1.1.3 2.5-.3 2 0 2.5 1.4 2.6 1 0 1.4.3.6.6-1.9.7-1.5 4.3.5 4.3 1.5 0 1.6.2.3 1-1.7 1.1 1.3 1.4 12.5 1.1 5-.1 7.3-.6 8.2-1.7 1-1.4 1.2-1.4 2 .2.7 1 1.7 1.5 2.7 1 .9-.3 1.6-.2 1.6.3 0 1.7-21.6 3.6-22.6 2-.6-1-2.5-1.1-4-.1-.9.5-.8 2.4.1 7.2.7 3.6 1.3 6 1.4 5.3 0-.7.6-1.3 1.1-1.3.7 0 .7.7 0 2-1.4 2.6-.5 5.7 1.8 6.3 1.5.4 1.5.5-.1.6-1.9.1-1.8 2.8.3 12.4 1 4.6.2 4 7.6 6.5 5.1 1.6 17.3 2.2 19 .8.2 0 .5-5.6.7-12.4l.6-12.2h-3.4c-3.2 0-5.5-2.3-3.5-3.5.6-.4 1 0 1 1s1 1.5 3 1.5c2.9 0 3-.2 3-4.5 0-4.2-.2-4.5-2.8-4.5-2 0-2.3-.3-1.3-1a4 4 0 0 1 2.8-.3c.9.3 1.3-.3 1.3-2.1 0-1.5-.7-3-1.5-3.2-.8-.4-1.2-1-1-1.5.4-.5-.6-1-2.2-1-2 0-2.4-.2-1.4-.8 1-.7.7-1-1.5-1.3l-2.9-.4 2.8-1.4c4-2 3.4-2.8-2-3.3-2.7-.2-1.6-.3 2.4-.2 8.2.4 8.3.3 8.3-8v-5.3l-8.3.4c-4.5.3-9.2.6-10.4.8-1.3.2-2-.1-1.6-.7.4-.7 0-.7-1.3-.2-1 .5-3.7.8-5.9.8l-4-.1 3.5 1.2 3.5 1.3-3.3.5c-1.7.2-3.2 0-3.2-.4s-1.5-.8-3.3-.9h-3.2l3.5-1.4 3.5-1.3h-3c-1.6-.1-3.6.6-4.3 1.4M471 495c-5.2.3-8.2.7-6.6.8 2.4.2 2.7.4 1.6 1.7-1 1.3-.9 1.5 1.1 1.6 2.2 0 2.2.1.4.8-2.6 1 2.9 2 10 1.6 4.7-.2 10.3 1.2 6.5 1.6-4.2.5 10 1.7 20.3 1.8 7.6 0 11.6.5 11.2 1.1-.4.6.6 1 2.2 1 2.3-.1 2.5-.3.9-.9-3.6-1.4 0-2 13.1-2.2a76 76 0 0 0 14.5-1c.9-.6.3-.9-1.7-.9-4.3 0-7.6-1-6.9-2.2.3-.5 0-.8-.8-.7-.7.1-2.4-.3-3.8-.8-2.7-1.2-.3-1.7 11-2.7a170.3 170.3 0 0 0-16 .8c-2 .2-9.3.7-16.4 1-7.2.3-13.2 1-13.6 1.6-.4.6-3 .7-7.1.2-3.6-.4-7.9-.4-9.5 0-3.4 1-12.4 0-12.4-1.3 0-.5 3.7-1 8.3-1 4.5-.1 7-.4 5.7-.7-2.3-.4-2.4-.5-.5-1.3l2-.8-2 .2-11.5.7m-74.4 3c-.5.6.6 1 3 1.1 3.5 0 3.6.2 1.4.9s-2 .8 1.5 1c4 0 4 0 1.5 1.4-2.2 1.3-.6 1.4 13.2 1.4 9.6-.1 15.5-.5 15.1-1-.3-.6-2-.8-4-.5-1.8.3-3.3.2-3.3-.4 0-.5-3.7-.9-8.2-.9-4.5 0-7.9-.3-7.6-.6.8-.7 12.8-.7 18.5.2 5.5.8 5.3-.3-.4-1.7-6.2-1.5-30-2.3-30.7-1m-118.1 5l5 2H275c-9.6.2-8.5 1.4 2.5 2.6 8.7 1 12.5.9 14-.5.7-.8-.2-1-3.2-.9-6.7.4-6-.8.8-1.6 4.4-.5 6.4-.4 6.7.4.2.6 1.6 1.1 3 1.1 4.8 0 6 1.8 1.8 2.5-2 .4-4 .5-4.3.1-.4-.3.2-.6 1.2-.6s1.6-.3 1.3-.6a44 44 0 0 0-11.7 3.3c-.2.1.4 1 1.3 1.8.9 1 1.6 1.2 1.6.7s1.2-.8 2.8-.5c2.3.3 2.4.2.7-.6-2.5-1 5.8-2.6 10.5-1.9 1.7.3 3.3 0 3.6-.4.3-.4 0-.8-.8-.8-.7 0-.2-.7 1.2-1.5 2-1 5.4-1.3 15.3-1 7 .2 12.7 0 12.7-.5s1-1 2.3-1.3c1.2-.3-3.4-.3-10.3 0-12.8.5-20.2-.7-17-2.7 1-.7-.3-1-4-.8-5 0-5.2.2-2 .8 3 .7 2.7.7-1.5.5-3.4-.2-4.4 0-3 .5 2 .8 1.9.9-.3 1-1.2 0-2.2-.3-2.2-.8 0-.8-.5-.9-14.5-1.6l-10-.6 5 2m219.5 7.2l-14.5 1.4c-5.9.5-6.6.8-4.5 1.6 1.4.5 4 .7 5.8.4 1.7-.2 3.2-.1 3.2.3s3.7.5 8.3.3c6.4-.3 9 0 11.5 1.2 1.9 1 3.2 1.2 3.2.6 0-1.8-4.8-3-12.8-3.1-6-.2-4.5-.4 6.3-1a138 138 0 0 1 17-.4c1.8.3 2.6.2 2-.4-1.3-1.3-16.1-1.8-25.5-.9m291 0c-1.8.7-2.1 1.1-1.1 1.7 1.9 1.2-6.6 2-10.2 1a8.9 8.9 0 0 0-4.5-.1c-1.2.4-.4 1 2.8 1.8l4.5 1.2-5 .1c-3.6.1-4.6.4-3.5 1.1 1.3.9 1.3 1 0 1-1 .1-.8.4.5 1 1.7.8 1.6.9-.9 1-2.2 0-2.6-.3-1.8-1.3.8-.9.5-1.2-1.3-1.2-1.3 0-2 .4-1.8.9.4.5.1.6-.4.3-.6-.4-1.8.2-2.7 1.2-1.6 1.7-1.4 1.8 5 2.4 3.7.4 7 1 7.3 1.6.3.5 2.5.7 4.9.6 2.3-.2 4.2 0 4.2.6 0 .5.8 1 1.8 1s.1.6-1.8 1.3c-2.8 1-4.6 1-9.5 0-5.6-1.3-18-2.8-14.2-1.7 1 .2 1.5.9 1.1 1.4-.4.6-1 .6-2-.1-1.3-1.2-4 2-2.7 3.4.3.3 0 .6-.7.6-.9 0-.5 1 1 2.5 1.3 1.4 3 2.5 3.8 2.5.9 0 1.3.2 1 .5-.3.3 2.4 3.4 6 6.8l10.9 10 4.1 4 8.3-1.2a71 71 0 0 0 8.7-1.5c.9-1-2-14.7-3.5-16.1-.8-.8-1-1.5-.5-1.5s.5-2.2-.1-5.4c-1-5.2-1.1-5.4-5.1-6.4l-4.1-1 4-.2 4-.3-4.5-.7-4.5-.7 4.1-.1c3.8-.2 4-.4 3.6-2.7-.2-1.4-1.1-2.5-2-2.6-1.3 0-1.2-.2.3-.8 2-.8 2-.8-.3-1.5-2.5-.8-3-2.6-.7-2.6 1.6 0 2-1.6.8-2.3-.5-.3-2 0-3.3.5m-481 .7c-1 .7-.6 1.2 2 2l3.5 1-4-.5-5.2-.6c-.7 0-1-.5-.7-1 .3-.4-.2-.8-1.1-.8-.9 0-1.3.5-1 1 .4.7 0 1-.6 1-.8-.2-2.5-.2-3.8-.1-4.4.2-1.2 1.5 6.7 2.6 6.6.9 7.7 1.3 7.4 2.9-.2 1.3 0 1.6 1 1 .7-.5 1.8-.9 2.3-1l2.1-.2c.7-.1 1.5-1 1.8-1.8.5-1.3.1-1.5-1.8-1-1.4.3-2.8.1-3.2-.6-.5-.8.8-1 5.2-.5 5.2.6 5.7.5 4-.8-1.7-1.3-1.6-1.4 1.5-2.4 2.8-.8 2-1-5.6-1-5 0-9.6.3-10.4.8M897 512c-1.2.8-1.2 1 .5 1a8 8 0 0 1 3.5 1c1.2.8.8 1-1.5 1-1.6 0-5 .3-7.4.6-5.5.8-3.6 2.4 2.9 2.4 3.3 0 4 .3 3 1-.8.5-3.2 1-5.3 1-2 0-3.7.5-3.7 1 0 .6-1.1.3-2.5-.6a6.4 6.4 0 0 0-5-1c-2.9.7-2.5 2.6.6 2.6 1 0 1.9.3 1.9.8 0 .4-1.5.7-3.4.7s-3.8-.3-4.2-.8a3 3 0 0 0-1.8-.7c-.6 0-.5.5.2 1.2 1.7 1.6 1.5 2.8-.4 2.8-.9 0-1.2.5-.8 1.2.5.7.3.8-.7.3-1.2-.8-1.2-.6 0 .9 1.3 1.6 1.6 1.5 3.8-1.1l2.3-2.8 2.4 2.7c2.2 2.4 2.6 2.5 4.2 1.2 1.7-1.4 1.7-1.5.2-1-1 .3-2 0-2.3-.4-.4-.6 1.6-1 4.7-1.1 3 0 4.5-.3 3.5-.6-1-.2-1.7-.9-1.7-1.4 0-1.3 2.4-1.1 4 .4 1 1 1.2.9.7-.5-.4-1.2-.1-1.8.9-1.8s1.2.5.8 1.3c-.5 1-.4 1 .6 0 .7-.6 2.9-1 4.9-.7 2 .2 2.8 0 1.8-.2-1-.3-1.4-1-1-1.6.4-.7-.1-1-1.5-.6-2.3.6-3-.7-1-1.5 1-.4 1-.6 0-.6s-.5-.8 1-2c2.2-1.8 5.4-1.8 4.2 0a1 1 0 0 1-1.5.4c-.5-.4-.9.2-.9 1.1 0 1.4.3 1.5 1.2.6 1.7-1.7 3.8-1.5 3.8.3 0 .9.6 1.2 1.5.9 2-.8 1.9-2.1-.3-2.8-1-.3 1-.2 4.3.1 3.3.3 10.5 1 16 1.3 5.5.4 8.3.8 6.3.8-2.9.2-3.8.6-3.8 2 0 1.6-.1 1.6-1 0-.8-1.4-2.3-1.8-5.8-1.7-4.2.1-4.4.2-1.7.9 1.6.4 2.4.8 1.8.9-1.5.1-1.3 2.2.2 3.3.5.4 0 .8-1.4.8-3.5 0-2 1 3 1.9 4.4.8 4.4.8 1.4 1.6-3 .9-6.5 3.5-4.6 3.5.6 0 2-.5 2.9-1 1-.5 3-1.5 4.6-2 3.5-1.3 2.9-2-2.1-3-3.8-.8-3.8-.8 1.2-.9 3.6-.1 4.6-.4 3.5-1.1-1.1-.7-.4-1 2.5-1 3.3.1 3.6.3 2 1-1.9 1-1.8 1 .3.6 1.2-.2 2 0 1.6.5-.3.5 0 .9.5.9s1.3-.5 1.6-1c.3-.5 0-1-.7-1-1 0-1-.2 0-.9 1-.6.8-1-.8-1.4-1.7-.4-2-1-1.5-2.6.5-1.7.2-2.1-1.7-2.3-1.3 0 0-.4 2.7-.7 4.3-.5 4.7-.7 3-1.7-2.5-1.4-11.7-2.5-11-1.3.4.5-2.3.7-6.2.4-4.6-.3-6-.2-4.3.4l2.5.9-2.5.2c-4.5.4-7.5-.1-8.5-1.5-.7-.8-3-1.3-6-1.2a36 36 0 0 1-7-.6 4.7 4.7 0 0 0-3.5.3m97.5 3l-3 .7 3.7 1.6c2 1 5 1.7 6.5 1.7 2.2 0 2.5.2 1.3 1-1.3.9-1.3 1 0 1 1 .1.8.4-.5 1-1.4.6-.4.9 3.7 1 3.1 0 6 .5 6.4 1.2.5.8-.2 1-2.7.5-1.9-.4-2.9-.4-2.3 0 2.6 1.8-2.4 3.8-6.5 2.7-2.4-.6-2.5-.7-.6-1.4 1.1-.5 1.4-.9.7-1-.7 0-1-.4-.7-1 .7-1.2-5.5-.2-7 1.1-.5.5-1.4.9-2 .9-.5 0-.1-.7 1-1.5 1.8-1.5 1.8-1.5-.6-1.5-2 0-2.1-.2-.9-1 1-.8.1-.9-3.3-.4-3.3.4-4.7.3-4.7-.5 0-.7.4-1 1-.6.5.3 2 .3 3.4 0 3.5-1 1-3.5-3.6-3.6-3.2-.1-3.2-.1-.8-1 2-.7 1.7-.8-1.5-.4a72 72 0 0 1-5.8.5c-1 0-1.5.5-1.2 1 .3.5 2.3 1 4.3 1h3.7l-3 2c-1.6 1-3.1 1.5-3.3 1-.2-.6-2.5-1-5-.9-4.6.2-4.6.2-1.2.9 2 .4 3 .8 2.3.9-3.6.3-.7 2 3 1.7 4.5-.4 7.7.7 6.4 2-.9 1 2.5 3.4 3.7 2.6.5-.3.1-.9-1-1.3-1.8-.7-1.8-.8.1-.8 4.2 0 6 1.3 4.1 3.1-1.2 1.2-1.3 1.8-.3 2 .6.3.8 1 .4 1.4-.4.5-1.2.2-1.7-.6-.9-1.3-1-1.3-1 0 0 2.4 3.1 3.7 8.5 3.5 2.8-.1 4.4 0 3.7.2-2.2.8-.1 2.3 3.1 2.2 2.5-.1 2.7-.3.9-.6-2.3-.4-2.3-.5-.5-2 1.6-1.3 1.6-1.4 0-1-.9.4-1.9.2-2.2-.3-.4-.6-.2-1 .4-1 .6 0 .8-.7.5-1.5-.4-.8 0-1.5.7-1.5s1 .3.6.6c-1.7 1.7 2.4 3.4 6.5 2.7l4.3-.8-5-.6c-4.6-.5-4.7-.6-1.1-.7 2.8-.2 3.7-.6 3.3-1.6-.7-1.7 1.3-2.6 5.4-2.6 2 0 2.9-.5 2.9-1.5s.9-1.5 2.3-1.4c1.2 0 1.6.3 1 .6-.7.2-1.3 1-1.3 1.4 0 .6.5.7 1 .4.5-.3 1 0 1 1 0 .8.5 1.5 1 1.5s1-1.6 1-3.6v-3.7l-4 .7c-2 .3-4 .2-4.2-.2-.1-.5-1.6-1.2-3.1-1.6-1.9-.4-2.6-.3-2.2.4.3.5.1 1-.4 1-.6 0-1.1-.4-1.1-.9 0-.4-1.2-.6-2.8-.4-2.1.4-2.4.2-1.2-.6.8-.6 3.2-1 5.3-1 2 0 3.7-.6 3.7-1.2 0-.7-1.1-1-3-.5-2 .3-2.9.2-2.5-.4.3-.6-.3-1-1.5-1s-1.8.5-1.5 1c.3.5 0 1-.9 1-.8 0-1.8-.5-2.1-1-.3-.5-1-1-1.6-1-.6 0-.7.5-.4 1 .4.7-.3.8-2.2.4-3.4-.8-4.2-1.4-2-1.4 1 0 1.7-.5 1.7-1s-.1-1-.3-.9l-3.2.9m-40.6 2.6c-1 1.3-1 1.7.2 2.5 1 .6.5.9-1.7.9-1.9 0-3.4.6-3.8 1.5-.3.8 0 1.5.7 1.5.8 0 .6.4-.3 1-1.2.8-1.3 1 0 1 .7 0 1 .3.8.6-.4.3-1.5.1-2.5-.4-2.3-1.2-4.3-.5-4.3 1.5 0 1.3-.9 1.5-4.5 1-2.5-.2-4.5 0-4.5.4 0 .5.7.9 1.6.9 1.4 0 1.4.2 0 1.5-.8.8-2 1.5-2.8 1.5-1 0-1 .3.2 1 .8.5 3.5 1 5.9 1 3.6 0 4.2.2 3.2 1.4-1.5 1.8-4.4 1.5-9.3-.9-3.3-1.6-3.8-1.6-5.2-.2a4 4 0 0 1-3.7 1c-1.6-.4-1.7-.8-.7-1.4 1.2-.8-.9-1.4-3.5-1-.4 0-.7-.4-.7-1 0-.8-.4-.8-1.4 0-1 .9-1.5.8-2-.4-.4-1.1.2-1.5 2.2-1.6 2.4 0 2.2-.2-1.1-1.2-2.2-.7-3.6-1.5-3.1-2 .4-.3.1-1.3-.6-2.2-.8-1-.8-1.5-.2-1.5.6 0 1.7.8 2.4 1.8 1.3 1.8 6.2 5.2 7.4 5.2 1 0-3.9-4.6-5.6-5.3-1-.4-1-.6.5-.6 1.7-.1 1.8-.3.5-1.2-1.2-.9-1-1 .8-.6 1.5.3 2.2 0 2.2-.9 0-1.4-.8-1.7-5-1.5-2.4 0-2.4 0 .5-1.4 3-1.4 1.8-2-2.2-.9-1.3.4-2 1.1-1.6 1.7.4.6 0 .8-1 .4s-1.7-.2-1.7.3c0 .6 1.1 1 2.5 1 4 0 2.9 1.5-1.3 1.6l-9 .3c-3 0-5 .5-4.8 1 .4.5 1.6.7 2.8.3 1.3-.3 1.9-.1 1.4.6-.3.5 0 1.2.6 1.5.8.3.3 1-1.2 1.6-2.1 1-1.6 1 3 .6 3.5-.3 4.6-.1 3 .4-2.4.7-2.5.8-.4 1.5a9 9 0 0 0 3 .5h3.4l2.5.3-2.5.8c-1.4.4-5 .8-8 .9-6.8.1-6 .9 2.8 2.7 5.1 1 7.7 1.2 9.7.4 2.2-.8 3.3-.7 5.3.6 1.8 1.2 3.8 1.5 8 1 3.3-.3 4.6-.2 3.2.3-2.3.7-2.2.8 1.5 1.4 6.2 1 7.5.9 6.9-.8-.4-1 0-1.5 1.2-1.6 1 0 1.4-.3.7-.5-.6-.3-1-1.2-.6-2 .3-.7 1-1.1 1.4-.8.5.3.7 1 .4 1.4-.8 1.4 3.3 2.2 5.2 1 1.7-.9 1.6-1-.4-1.6-1.3-.3-2-1.1-1.6-1.7.4-.6.1-.7-.7-.2-.9.5-1 .4-.6-.4.6-.9 0-1-2-.6-1.7.4-2.4.3-1.7-.2.6-.4 1-1.7 1-2.8-.1-1.2.5-2 1.8-2.2 1.1-.1 1.4 0 .8.3-2.3 1-1.3 2.4 1.2 1.8 2.6-.6 3.3.4 1.5 2.2-.6.6.6 1 3.6.8 2.6-.1 6 .2 7.5.6 1.7.5 2.9.5 2.9 0 0-1.3 3.3 0 4.3 1.7.6 1 2.4 1.2 6.8.8 5.4-.5 5.9-.4 5.9 1.5 0 1.5.6 2 2.8 2 2.6-.1 2.7-.1.4-1-1.3-.6-2-1.5-1.7-2 .4-.7-.2-1.4-1.4-1.7-1.2-.3-2.1-1-2.1-1.5 0-.6.9-.8 1.9-.5 1 .2 2.5 0 3.2-.4 1-.7 1-.9-.4-.9-1.1 0-1.5-.4-1.1-1.1.5-.9 0-1-2-.5-1.5.4-2.6.2-2.6-.4 0-.5.8-1 1.8-1 1.2-.1 1-.4-.6-1-1.3-.6-2.8-.8-3.2-.5a1 1 0 0 1-1.4-.3c-.8-1.3-8.6-1.1-8.6.1 0 .6.3.7.6.4.4-.4 1.5.3 2.5 1.5 1 1.1 2 1.7 2 1.2s.4-.2.9.6c.6 1 .5 1.7-.3 2.2-1.6 1-3 1-2.3 0 .3-.5-3.1-1-7.6-1a24 24 0 0 1-9.2-1.2c-.8-.8.6-1 5.6-.8 3.7.1 7 0 7.4-.5.4-.4-.8-.8-2.7-.8l-3.4-.1 3-.8c2.2-.6 2.5-.8 1-1-1.7-.2-1.7-.3.5-1 1.8-.6 2-.8.7-.9-1 0-1.5-.6-1.2-1.1.3-.5.1-1-.4-1-.6 0-1.1.5-1.1 1s-.5 1-1 1c-.6 0-.8-.5-.4-1.1.3-.6 0-1.6-.7-2.1-1-.7-.8-.8 1-.5 1.7.4 2.1.2 1.7-1-.4-1-.2-1.3.9-1 .8.4 3 .3 4.8 0 3-.7 3-.8-1.8-1.4-8.2-1.2-11.2-1-12.6.7m-828.9 4l-4.5 1.4 4-.4c2.2-.2 4.8-.7 5.8-1.1 1-.4 1.7-.3 1.7.3s-1.4 1.3-3 1.7c-4 .9-3.2 1.6 2.7 2.7 10.2 1.9 10.6 2 9.2 3-1.1.6-1.1.8.1.7 2 0 5.9-1.7 4.3-1.8-2.1-.1-1.4-2.1.7-2.1 1.1 0 2-.7 2-1.5 0-1-.6-1.2-1.8-.9-1.3.4-1.4.3-.4-.4 2.2-1.5-1-2.3-5-1.1-4.8 1.3-6.8 1.2-6.2-.6.8-1.9-3.1-1.8-9.6.1m103 7.4c-2.5.8-2.5.8.5 1 3 .2 3 .2.5 1-1.4.4-1.8.9-1 1 1 0 .7.4-.7 1a10 10 0 0 1-5.7-.1c-2-.6-4-.8-4.5-.4-.5.3-1.1.2-1.4-.2-.2-.5-.2-.3 0 .4 0 .7-.5 1-1.5.7-1.4-.5-1.3-.3.2 1 2.3 1.9 7.3 2 11.3.5a48 48 0 0 1 8.3-1.9l7.8-1.3c1.5-.4 2.2-.1 2.2.9 0 .8-1 1.4-2.8 1.5-5.6.1-7 1.8-1.5 1.8 3.2 0 5.3-.4 5.6-1.1.3-.8.6-.6.6.5 0 1.3-.7 1.7-4 1.7-2.3 0-3.8.4-3.4 1 .3.5-1.6 1-4.2 1.3A82.4 82.4 0 0 0 249 538c2.6-.2 6.3-4.2 4.7-5.2-.9-.6-.4-.9 1.7-1 2.4 0 2.7-.2 1.4-1a48.4 48.4 0 0 0-19-.1c-2.6.7-4 .6-5.3-.4-1.6-1.2-1.6-1.3 0-1.7 1.7-.4 1.7-.5-.1-.5-1.1 0-3.1.4-4.5.8m505.8 2.3c-.7.6-2 1.3-2.8 1.5l-13.5 4.4a69 69 0 0 1-21.2 4.6l-9.3.5.6 4c1.2 9.5 2.6 17.7 3 17.7 2.7 0 5.4-2.2 4.5-3.8-.8-1.6-.4-2.3 2.2-4.3 3-2.2 4.1-2.4 16.5-2.6 8.4 0 13.8-.5 14.7-1.3 1.9-1.6 5.6-8 4.7-8-.5 0-1.7-.7-2.8-1.5-1.8-1.4-1.7-1.5 1-.9 2.3.6 3.2.2 5.2-2.2 3-3.7 3-4.4-.1-4.4-1.4 0-2.5-.4-2.5-1 0-.5.8-.7 1.8-.4 1.4.5 1.5.4.2-.5-1.3-1-1.2-1 .3-1 1 0 1.5-.6 1.2-1.1-.8-1.3-2-1.3-3.7.3m10.7 17.2c-4.3 6.7-4.5 6.2 1.8 6.1 2.8 0 8 .3 11.4.6 7.1.6 7.1.2-.8-7-6.8-6.2-8.3-6.2-12.4.3m-731.4.2c1.3 1.5 1.2 1.6-.6.8-1.1-.4-3.3-1-5-1.1-2.8-.3-2.9-.3-.5.5 2.1.8 1.8 1-2.3 1-4 0-4.7.4-4.7 2.2 0 1.4.5 2 1.5 1.6.8-.4 2.3.5 3.5 2 1 1.4 2 2 2 1.4 0-.6.9-1.1 2-1.1 1.3 0 1.8-.5 1.4-1.5-.4-.8-1-1.2-1.6-.9-.6.4-.9 0-.6-.7.2-.8 2-1.5 3.7-1.7 2.2-.2 3 0 2.6.7-.9 1.5 1.5 1.4 4.7-.3 1.8-1 3.7-1.1 6-.6 1.8.4 2.6.8 1.8.9-1 0-.8.6.8 1.7 3 2.1 1.7 4-1.4 2-2.2-1.5-2.5-1.5-3 0-.4.8-1.3 1.3-2 1-.8-.3-1.4-.1-1.4.4 0 .6-1.1 1-2.5 1s-2.5.5-2.5 1c0 1.2 1 1.2 6.8 0 2.3-.4 4.5-.4 4.8.1.2.5 1.7.6 3.2.4a136 136 0 0 1 10-1.4c.7 0 1-.6.7-1.1-.8-1.3 1.8-.8 2.7.5.5.6.8.3.8-.7 0-2.5-1-2.7-6-1.4-4.8 1.3-7 1-7-.5 0-.5 2-1 4.3-1s3.6-.3 3-.6c-.7-.2-1-.9-.7-1.4.6-1-1-1.2-2-.2-.3.4-2.3.8-4.4 1-2.7.2-3.3 0-2.2-.7.8-.5 2.3-1 3.3-1 1.5 0 1.6-.2.5-1.4-.7-.8-1.4-1.1-1.6-.8 0 .4-3 .6-6.4.4-5-.2-6.6.1-7.5 1.5-1.2 1.6-1.3 1.6-1.3 0 0-1-.6-1.7-1.3-1.8-.6 0 0-.5 1.3-.9 2.3-.7 2.3-.8-.9-.9-3 0-3.2 0-2 1.6m620.3-.5c-1.2.6-3 2.6-4.1 4.6a2164.7 2164.7 0 0 0-11.4 20.8l-3 5.2 2.3.6c4.3 1.1 6.6.7 7.3-1.4.4-1.1 1.8-2.2 3.3-2.5a96 96 0 0 0 6.2-1.6c2-.6 6.5-1 10-.7l6.4.3.4-4c.2-2.2.8-4.2 1.3-4.5a33 33 0 0 0-6.7-8.8c-4.2-4.5-8-8-8.4-7.7-.5.3-1 .1-1.2-.4-.1-.4-1.2-.4-2.4.1" fill="#dd852f" fill-rule="evenodd"/></svg>