<svg xmlns="http://www.w3.org/2000/svg" viewBox="0 0 1024 640"><filter id="b"><feGaussianBlur stdDeviation="12" /></filter><path fill="#728d96" d="M0 0h1024v640H0z"/><g filter="url(#b)" transform="matrix(4 0 0 4 2 2)" fill-opacity=".5"><ellipse fill="#451904" rx="1" ry="1" transform="rotate(100.7 34.4 152.6) scale(59.00052 36.82092)"/><ellipse fill="#ffb53d" rx="1" ry="1" transform="matrix(.67873 -15.92548 75.14504 3.20262 149 31.3)"/><path fill="#fffaca" d="M146.3 174l-170 3-.6-37 170-3z"/><ellipse fill="#1f1a1d" rx="1" ry="1" transform="matrix(-93.46328 -7.4599 1.24905 -15.64909 238.5 158)"/><ellipse fill="#207794" cx="56" cy="105" rx="125" ry="25"/><ellipse fill="#3188a1" rx="1" ry="1" transform="matrix(17.36064 14.311 -23.90052 28.99365 229.7 110.1)"/><ellipse fill="#7bb2d6" rx="1" ry="1" transform="matrix(-247.24232 -14.74726 1.2911 -21.64564 39.2 56)"/><ellipse fill="#ffa048" rx="1" ry="1" transform="matrix(75.46824 4.30232 -.60928 10.6875 152.2 33.2)"/></g></svg>