<svg xmlns="http://www.w3.org/2000/svg" viewBox="0 0 1024 640"><filter id="b"><feGaussianBlur stdDeviation="12" /></filter><path fill="#728d96" d="M0 0h1024v640H0z"/><g filter="url(#b)" transform="matrix(4 0 0 4 2 2)" fill-opacity=".5"><ellipse fill="#421a07" rx="1" ry="1" transform="matrix(12.71404 -60.85866 35.0201 7.31608 193.5 147.3)"/><ellipse fill="#ffb634" rx="1" ry="1" transform="rotate(92.1 59.3 87) scale(14.79441 73.73783)"/><ellipse fill="#fff7c9" rx="1" ry="1" transform="matrix(-90.6811 4.31705 -1.06126 -22.29207 58 159)"/><path fill="#1c1416" d="M149 144h107v16H149z"/><ellipse fill="#217793" rx="1" ry="1" transform="matrix(-126.0381 4.19961 -.84656 -25.4069 58.4 106)"/><ellipse fill="#388ca2" rx="1" ry="1" transform="matrix(-13.6833 -16.53237 36.63471 -30.32134 233.8 110)"/><ellipse fill="#7db2d5" cx="72" cy="61" rx="226" ry="21"/><ellipse fill="#ffa05e" rx="1" ry="1" transform="matrix(-66.39484 -7.37654 1.89975 -17.09924 163 31.8)"/></g></svg>