<svg xmlns="http://www.w3.org/2000/svg" width="1024" height="640"><path fill="#718d95" d="M0 0h1024v640H0z"/><g fill-opacity=".5"><path fill="#ffb53e" d="M1054 186L578 26 202 150z"/><path fill="#451602" d="M786 330L574 622l512 80z"/><path fill="#fff9cb" d="M-62 562l288 140 500-156z"/><path fill="#1a7595" d="M-62 326l948 8L70 558z"/><path fill="#76aed6" d="M1046 274L58 346-58 58z"/><path fill="#4f97b5" d="M1086 574l-312-24L998-62z"/><path fill="#870000" d="M894 350l-164 20-36 188z"/><path fill="#ff9f48" d="M574 50l376 124-684-32z"/><path fill="#3386c8" d="M26-62l736 72-808 136z"/><path fill="#ebd3b9" d="M-18 634l528-92 188 160z"/><path fill="#1a2129" d="M562 574l360 128 164-124z"/><path fill="#dbd0ae" d="M1086 578l-172-64-168 32z"/><path fill="#1d697d" d="M786 326h300L970 546z"/><path fill="#3889c7" d="M498 38l540 60-12-160z"/><path fill="#ffb86b" d="M486 50l140 136-380-64z"/><path fill="#83a8c1" d="M1086 326V126L414 322z"/><path fill="#536f6b" d="M698 470L598 202l-20 360z"/><path fill="#5490ba" d="M-62 182l360-20 20-176z"/><path fill="#42818f" d="M162 530l536-36 52-172z"/><path fill="#fd9e50" d="M926 146L698 54l-48 132z"/><path fill="#811100" d="M722 358l32 184 80-172z"/><path fill="#588a8f" d="M1050 518l-348 36 260-156z"/><path fill="#ffab8b" d="M618 46l-8 84-236-56z"/><path fill="#bd3c00" d="M666 118l-64 16 56 36z"/><path fill="#cec4b2" d="M558 634L54 542-62 690z"/><path fill="#5e0a00" d="M726 538l-124-32 196-28z"/><path fill="#ffe6c5" d="M1034 578l52-44-168 16z"/><path fill="#74aed0" d="M594 194l360 52-160-76z"/><path fill="#7f0d00" d="M854 150l-44 16 36 16z"/><path fill="#5a99c6" d="M762 62l324 164V70z"/><path fill="#7f512f" d="M630 142l-36 132v-96z"/><path fill="#303b41" d="M1086 702L658 558h272z"/><path fill="#a3bbb1" d="M658 546l32 20 72-36z"/><path fill="#327f9d" d="M234 426l-296-96 656-4z"/><path fill="#1d86ac" d="M594 382l32-64 224 28z"/><path fill="#a5631e" d="M574 650l4-128 20 84z"/><path fill="#548290" d="M42 558l668-132-772-64z"/><path fill="#131d21" d="M878 382l-16 44-36-8z"/><path fill="#7cabc4" d="M734 238L610 338l4-180z"/><path fill="#e2d4b5" d="M298 702l272-28 12-108z"/><path fill="#ffaa41" d="M590 178l36-68-260 8z"/><path fill="#913500" d="M602 270l-8 52-4-36z"/><path fill="#806b4f" d="M578 526l16-212 24 112z"/><path fill="#4087a2" d="M602 338l-8 192 100-132z"/><path fill="#3b383a" d="M710 554L530 702l556-112z"/><path fill="#807b73" d="M698 598l-20-128-24 100z"/><path fill="#ef976f" d="M614 50l204 44-244 36z"/><path fill="#83948d" d="M138 510l132 44-296 4z"/><path fill="#d48f2e" d="M818 106l44 84 40-8z"/><path fill="#7b1e00" d="M798 494l32-140-180 180z"/></g></svg>