<svg xmlns="http://www.w3.org/2000/svg" width="1024" height="640"><path fill="#718d95" d="M0 0h1024v640H0z"/><g fill-opacity=".5"><path fill="#ffb53b" d="M582 22L206 146l804 40z"/><path fill="#441704" d="M1082 702l-504-84 204-300z"/><path fill="#fff9cb" d="M738 542L250 702-62 566z"/><path fill="#448fb7" d="M-62 562L18-62l716 468z"/><path fill="#5098b7" d="M782 550L990-62l96 640z"/><path fill="#8db1ca" d="M1062 298L210 98-62 334z"/><path fill="#ff9e4e" d="M254 146l720 20L654 42z"/><path fill="#2e7487" d="M870 334l-932-16 20 244z"/><path fill="#850200" d="M734 370l164-24-216 228z"/><path fill="#328bce" d="M662-62L198 30l868 60z"/><path fill="#1b687f" d="M774 326l216 208 96-208z"/><path fill="#1e2128" d="M646 702l440-124-484-8z"/><path fill="#b4bda5" d="M1074 570l-128-80-268 56z"/><path fill="#e7d0b7" d="M-62 630l772 72-220-168z"/><path fill="#ffb26c" d="M626 42L282 98l320 92z"/><path fill="#4387bf" d="M282 170L-62 14l436-76z"/><path fill="#3e7c87" d="M190 522l560-196-48 160z"/><path fill="#75a6c2" d="M1086 186L798 358 290 174z"/><path fill="#6e6b59" d="M574 630l84-92-64-284z"/><path fill="#850d00" d="M834 366l-76 164-36-168z"/><path fill="#fd9c2f" d="M654 186l-36-76 288 36z"/><path fill="#814925" d="M594 178v108l52-184z"/><path fill="#467c86" d="M770 542l100-224 216 208z"/><path fill="#ffe8c5" d="M1086 586l-176-32 120-16z"/><path fill="#5091c0" d="M1042 226l-4-288-288 92z"/><path fill="#600700" d="M750 530l72-92-180 84z"/><path fill="#922500" d="M846 146l16 32-64-8z"/><path fill="#6698be" d="M-6 274l-56-164 512-80z"/><path fill="#1880a5" d="M606 326l252 4-260 68z"/><path fill="#2e383e" d="M954 702L698 554l376 24z"/><path fill="#ffa585" d="M674 118L306 98l180-44z"/><path fill="#201218" d="M858 442l-24-32 44-24z"/><path fill="#54888f" d="M494 554l252-188-788 144z"/><path fill="#f0a762" d="M770 78l-80 100 224-36z"/><path fill="#cac0af" d="M-62 562L86 702l280-152z"/><path fill="#ffb94c" d="M270 130l336 48-72-80z"/><path fill="#7ea3bb" d="M602 326l484-228-64 228z"/><path fill="#57bcff" d="M618 206l20-44-24-8z"/><path fill="#80817b" d="M698 614l-20-116-28 48z"/><path fill="#e4d4b4" d="M406 702l204-84-128-28z"/><path fill="#4b86b0" d="M218-62L702 42-58 82z"/><path fill="#f7ac7d" d="M762 78l-272 24 104-56z"/><path fill="#aa4b13" d="M402 118l-4 32 40-44z"/><path fill="#efd8bb" d="M874 562l-64-20h112z"/><path fill="#dbd6c3" d="M590 546v32l56-16z"/><path fill="#b95202" d="M654 190l-32-68h48z"/><path fill="#892400" d="M838 358l-92 16-60 152z"/><path fill="#7da4ba" d="M394 134l184 188-308 4z"/><path fill="#d9922b" d="M858 190l-28-80 76 80z"/><path fill="#4e89af" d="M1014 102l44-164L530 38z"/></g></svg>