<svg xmlns="http://www.w3.org/2000/svg" viewBox="0 0 1024 640"><filter id="b"><feGaussianBlur stdDeviation="12" /></filter><path fill="#718d95" d="M0 0h1024v640H0z"/><g filter="url(#b)" transform="matrix(4 0 0 4 2 2)" fill-opacity=".5"><ellipse fill="#ffb93a" cx="148" cy="30" rx="72" ry="16"/><ellipse fill="#451f0d" cx="195" cy="144" rx="42" ry="55"/><path fill="#fffdce" d="M-10.8 140.4l155-2.7.6 40-155 2.6z"/><ellipse fill="#267a95" rx="1" ry="1" transform="rotate(-91.4 86 21.2) scale(27.15556 114.79625)"/><ellipse fill="#4190a7" rx="1" ry="1" transform="matrix(42.7298 -37.6439 19.50074 22.1354 246.4 99.6)"/><ellipse fill="#7cb1d6" rx="1" ry="1" transform="matrix(-.69319 20.73428 -197.91634 -6.61673 98 61)"/><path fill="#8a0000" d="M195 125.7l-24.8 12.9 13.2-45.7 35-5.4z"/><path fill="#1c181c" d="M153 143h103v17H153z"/></g></svg>