<svg xmlns="http://www.w3.org/2000/svg" viewBox="0 0 1024 640"><filter id="b"><feGaussianBlur stdDeviation="12" /></filter><path fill="#728d96" d="M0 0h1024v640H0z"/><g filter="url(#b)" transform="matrix(4 0 0 4 2 2)" fill-opacity=".5"><ellipse fill="#ffb739" rx="1" ry="1" transform="matrix(-.66 15.8302 -71.28874 -2.9722 147.8 30.5)"/><ellipse fill="#451d0a" cx="194" cy="150" rx="42" ry="61"/><path fill="#fffccd" d="M0 139h145v21H0z"/><ellipse fill="#338aa2" rx="1" ry="1" transform="matrix(23.923 -29.43725 17.78873 14.4565 229.9 110.2)"/><ellipse fill="#227894" cx="50" cy="106" rx="130" ry="26"/><ellipse fill="#7cb2d6" rx="1" ry="1" transform="matrix(.56481 -20.22054 189.21432 5.28523 113.2 61.4)"/><ellipse fill="#1b1a1f" rx="1" ry="1" transform="matrix(-1.30925 15.27178 -73.26313 -6.28087 225.8 156.7)"/><ellipse fill="#ffa35d" cx="143" cy="29" rx="68" ry="15"/></g></svg>