<svg xmlns="http://www.w3.org/2000/svg" width="1024" height="640" viewBox="0 0 1024 640"><filter id="a"><feGaussianBlur stdDeviation="55"/></filter><rect width="100%" height="100%" fill="#718d95"/><g filter="url(#a)"><g transform="matrix(4 0 0 4 2 2)" fill-opacity=".5"><ellipse fill="#ffb83d" cx="149" cy="29" rx="73" ry="16"/><ellipse fill="#452211" cx="197" cy="143" rx="44" ry="54"/><ellipse fill="#fff8cb" rx="1" ry="1" transform="matrix(-91.70624 6.5727 -1.57614 -21.99129 54.8 159)"/><ellipse fill="#3a90ab" rx="1" ry="1" transform="matrix(27.34991 -34.7481 18.08203 14.2322 232.8 105.3)"/><ellipse fill="#257a96" rx="1" ry="1" transform="matrix(-.70435 -26.89805 109.99157 -2.88023 71 106.2)"/><ellipse fill="#7db1d5" rx="1" ry="1" transform="matrix(185.72613 7.6154 -.85432 20.83532 95.3 60.4)"/><ellipse fill="#830200" rx="1" ry="1" transform="matrix(9.62806 6.6804 -16.8042 24.21887 190 111.2)"/><ellipse fill="#1e1c20" rx="1" ry="1" transform="matrix(71.2681 4.25562 -.69622 11.65946 220.1 152.5)"/></g></g></svg>