<svg xmlns="http://www.w3.org/2000/svg" width="1024" height="640"><path fill="#718d95" d="M0 0h1024v640H0z"/><g fill-opacity=".5"><path fill="#ffb439" d="M242 146L546 22l504 164z"/><path fill="#441805" d="M1082 702l-508-76 216-308z"/><path fill="#fff9cb" d="M234 702l508-160-804 24z"/><path fill="#197596" d="M62 554l812-224-936-4z"/><path fill="#77aed5" d="M-46 46l-16 292 1112-36z"/><path fill="#4e97b6" d="M778 554l308 12-88-628z"/><path fill="#3385c8" d="M742 14L30-62l-92 212z"/><path fill="#840700" d="M866 354L706 602l12-236z"/><path fill="#ffa450" d="M594 42l348 148-668-44z"/><path fill="#191f26" d="M578 582l344 120 164-128z"/><path fill="#ead2b8" d="M506 542l-520 92 712 64z"/><path fill="#cdc9aa" d="M878 502l188 68-324-20z"/><path fill="#1d677c" d="M982 542l104-212-292-4z"/><path fill="#3889c6" d="M462 42L978-62l108 152z"/><path fill="#ffb262" d="M482 54l140 136-328-84z"/><path fill="#81abc7" d="M538 182l456 152 84-164z"/><path fill="#3b7e8c" d="M694 490l-492 36 552-212z"/><path fill="#fe8e4a" d="M950 158l-540-16 324-80z"/><path fill="#8b4c18" d="M586 350l36-76-20-100z"/><path fill="#558a8e" d="M678 554l408-188v152z"/><path fill="#620600" d="M698 542l-80-36 196-36z"/><path fill="#ffe6c4" d="M1082 526l-12 60-148-32z"/><path fill="#8e1800" d="M690 538l152-180-104 12z"/><path fill="#8c591a" d="M566 522l16 64 8-124z"/><path fill="#ffaf8c" d="M638 50l-52 80-180-64z"/><path fill="#851e00" d="M862 142l-16 36-48-8z"/><path fill="#5c93ba" d="M270 218l60-196-392 128z"/><path fill="#cfc2b1" d="M442 554H-62l84 148z"/><path fill="#b74e00" d="M666 190l-52-60 48-12z"/><path fill="#5b9ac8" d="M1086 66l-300-4 264 160z"/><path fill="#7fa7bd" d="M1086 322l-480-4 12-132z"/><path fill="#253035" d="M834 430l40 4-4-96z"/><path fill="#343334" d="M922 558L606 702l20-128z"/><path fill="#ffc177" d="M298 114l60 48 68-96z"/><path fill="#7e857e" d="M682 482l12 124-36-36z"/><path fill="#f6c950" d="M674 138l-36 56 216-48z"/><path fill="#905e34" d="M598 334l-20 76 28 16z"/><path fill="#6fa4c1" d="M606 310l8-164 64 52z"/><path fill="#670200" d="M786 362v136l-104 44z"/><path fill="#54828f" d="M674 430L-14 566l28-184z"/><path fill="#dfd3b7" d="M574 534L422 662l152-12z"/><path fill="#2c8fb7" d="M918 334l-148 28-20-44z"/><path fill="#ffca43" d="M858 194l-4-52 64 8z"/><path fill="#a4621b" d="M594 582l-20 64 4-100z"/><path fill="#fee867" d="M574 162H406l48-36z"/><path fill="#6ea7c7" d="M978 262l-184-92-172 24z"/><path fill="#347f9e" d="M138 422L-30 322l484 8z"/><path fill="#e59970" d="M554 126l288-20-184-52z"/><path fill="#4f8cb2" d="M942 126L1086 2 486-6z"/><path fill="#578592" d="M702 478l-264-68 292-12z"/></g></svg>