<svg xmlns="http://www.w3.org/2000/svg" width="800" height="1100"><path fill="#dfddde" d="M0 0h100v100H0z"/><path fill="#e1dfdf" d="M100 0h100v100H100z"/><path fill="#e2e1df" d="M200 0h100v100H200z"/><path fill="#e2e1e1" d="M300 0h100v100H300z"/><path fill="#e4e3e3" d="M400 0h100v100H400z"/><path fill="#e7e5e5" d="M500 0h100v100H500z"/><path fill="#e8e6e6" d="M600 0h100v100H600z"/><path fill="#e8e7e8" d="M700 0h100v100H700z"/><path fill="#dad9db" d="M0 100h100v100H0z"/><path fill="#dcdada" d="M100 100h100v100H100z"/><path fill="#dcdadb" d="M200 100h100v100H200z"/><path fill="#dcdbdb" d="M300 100h100v100H300z"/><path fill="#dddcdc" d="M400 100h100v100H400z"/><path fill="#e0dfdf" d="M500 100h100v100H500z"/><path fill="#e5e4e4" d="M600 100h100v100H600z"/><path fill="#e6e5e6" d="M700 100h100v100H700z"/><path fill="#d3d3d3" d="M0 200h100v100H0z"/><path fill="#dfddde" d="M100 200h100v100H100z"/><path fill="#e6e5e5" d="M200 200h100v100H200z"/><path fill="#e2e2e3" d="M300 200h100v100H300z"/><path fill="#e5e5e7" d="M400 200h100v100H400z"/><path fill="#eaebec" d="M500 200h100v100H500z"/><path fill="#e4e4e4" d="M600 200h100v100H600z"/><path fill="#e0e0e1" d="M700 200h100v100H700z"/><path fill="#d7d7d7" d="M0 300h100v100H0z"/><path fill="#b1b0b0" d="M100 300h100v100H100z"/><path fill="#696765" d="M200 300h100v100H200z"/><path fill="#777473" d="M300 300h100v100H300z"/><path fill="#797877" d="M400 300h100v100H400z"/><path fill="#868483" d="M500 300h100v100H500z"/><path fill="#c9c8c9" d="M600 300h100v100H600z"/><path fill="#dfdfe2" d="M700 300h100v100H700z"/><path fill="#d1d1d2" d="M0 400h100v100H0z"/><path fill="#4f504f" d="M100 400h100v100H100z"/><path fill="#231f1b" d="M200 400h100v100H200z"/><path fill="#12100f" d="M300 400h100v100H300z"/><path fill="#0f0d0c" d="M400 400h100v100H400z"/><path fill="#33302b" d="M500 400h100v100H500z"/><path fill="#4f4d4c" d="M600 400h100v100H600z"/><path fill="#d5d6d8" d="M700 400h100v100H700z"/><path fill="#ceced0" d="M0 500h100v100H0z"/><path fill="#a0a0a2" d="M100 500h100v100H100z"/><path fill="#3b332f" d="M200 500h100v100H200z"/><path fill="#2f2b28" d="M300 500h100v100H300z"/><path fill="#352e2b" d="M400 500h100v100H400z"/><path fill="#51443e" d="M500 500h100v100H500z"/><path fill="#777675" d="M600 500h100v100H600z"/><path fill="#bec0c3" d="M700 500h100v100H700z"/><path fill="#cacccd" d="M0 600h100v100H0z"/><path fill="#babbbd" d="M100 600h100v100H100z"/><path fill="#302724" d="M200 600h100v100H200z"/><path fill="#3f332f" d="M300 600h100v100H300z"/><path fill="#4d3c36" d="M400 600h100v100H400z"/><path fill="#423530" d="M500 600h100v100H500z"/><path fill="#b9bcbe" d="M600 600h100v100H600z"/><path fill="#d3d7db" d="M700 600h100v100H700z"/><path fill="#bebfc0" d="M0 700h100v100H0z"/><path fill="#c2c4c4" d="M100 700h100v100H100z"/><path fill="#4a4644" d="M200 700h100v100H200z"/><path fill="#231511" d="M300 700h100v100H300z"/><path fill="#3f2c26" d="M400 700h100v100H400z"/><path fill="#302a26" d="M500 700h100v100H500z"/><path fill="#b4b9bc" d="M600 700h100v100H600z"/><path fill="#ccd0d4" d="M700 700h100v100H700z"/><path fill="#babcbd" d="M0 800h100v100H0z"/><path fill="#a4aeb0" d="M100 800h100v100H100z"/><path fill="#7d8d90" d="M200 800h100v100H200z"/><path fill="#252422" d="M300 800h100v100H300z"/><path fill="#190f0b" d="M400 800h100v100H400z"/><path fill="#3f4648" d="M500 800h100v100H500z"/><path fill="#b7c3c8" d="M600 800h100v100H600z"/><path fill="#c5cacf" d="M700 800h100v100H700z"/><path fill="#b6b9bb" d="M0 900h100v100H0z"/><path fill="#879699" d="M100 900h100v100H100z"/><path fill="#8ea7af" d="M200 900h100v100H200z"/><path fill="#85989c" d="M300 900h100v100H300z"/><path fill="#3b3934" d="M400 900h100v100H400z"/><path fill="#849397" d="M500 900h100v100H500z"/><path fill="#a9bcc4" d="M600 900h100v100H600z"/><path fill="#c1c8ce" d="M700 900h100v100H700z"/><path fill="#acb4b6" d="M0 1000h100v100H0z"/><path fill="#798c92" d="M100 1000h100v100H100z"/><path fill="#839499" d="M200 1000h100v100H200z"/><path fill="#9cb3bb" d="M300 1000h100v100H300z"/><path fill="#82887e" d="M400 1000h100v100H400z"/><path fill="#869da3" d="M500 1000h100v100H500z"/><path fill="#84a3b0" d="M600 1000h100v100H600z"/><path fill="#b2bdc5" d="M700 1000h100v100H700z"/></svg>