<svg xmlns="http://www.w3.org/2000/svg" width="2001" height="2785"><path fill="#989b9a" d="M0 0h2001v2785H0z"/><g fill-opacity=".5"><path d="M1724.3 886.6l-1534-10.8 979.2 2077.8z"/><path fill="#fff" d="M2170.3 1289.2l-2339-1175 2154.1-282.8z"/><path fill="#fffefc" d="M-168.6 1321.8l185-1490.4 2154 87z"/><path fill="#110700" d="M614.7 2213.9l1153.1-1044.4L451.5 832.2z"/><path fill="#f7ffff" d="M1550.2 1833.1l620.1-1109.7-217.5 2230.2z"/><path fill="#e0e5e6" d="M212.1 2953.6L495 1289.2l-663.6-272z"/><path d="M549.4 1909.2l609.2 620.1 446-718z"/><path fill="#97bcbe" d="M560.3 2083.3L1920 2953.6l-1305.4-272z"/><path fill="#f0f1f1" d="M549.4 810.5L2148.6-38.1l-10.9 924.7z"/><path fill="#c6d6dd" d="M1463.2 2551.1l707.1-108.8-587.4-1175z"/><path fill="#212119" d="M1844 1408.8L1582.9 941 549.4 821.4z"/><path d="M625.5 854l-326.3 261-11 217.7z"/><path fill="#215968" d="M495 2007.2l119.7 946.4-315.5-54.4z"/><path fill="#dddcdc" d="M16.3 1517.6L984.5 125.1 5.5-168.6z"/><path fill="#e6e7e7" d="M1952.8 1485l54.4-1653.6L1452.3 756z"/><path fill="#4e3d31" d="M1419.7 821.4l141.4 968.2-772.4 185z"/><path fill="#b7c0c1" d="M712.6 2116L-168.6 799.5l108.8 2154z"/><path fill="#201912" d="M538.5 1822.2L1572 2692.5 418.8 984.5z"/><path fill="#070701" d="M1169.5 2333.5L1485 1311l-21.8 870.3z"/><path fill="#96bcc1" d="M1234.8 2388l-11 271.9 304.7-598.3z"/><path d="M962.8 908.4l348.1 315.5-533 217.6zm359-43.5l456.9 554.8-152.3-402.5z"/><path fill="#ac0c00" d="M440.6 2953.6l380.8-282.8 87 272z"/><path fill="#542200" d="M1071.6 2344.4l163.2 10.9-32.7 598.3z"/><path fill="#003348" d="M1691.7 2420.6l195.8 478.6-163.2-195.8z"/><path fill="#b3dbe4" d="M1398 2344.4l348 609.2-217.5-968.2z"/><path fill="#d3d6d8" d="M1615.5 1256.5l228.5 457-359 609.1z"/><path fill="#cccecd" d="M408 1191.2l130.5 761.6h-641.8z"/><path fill="#d7c2b1" d="M799.6 1267.4l-108.8 10.9 65.3 119.6z"/><path fill="#6b6b63" d="M1528.5 1234.8l-337.3 217.5L1332.7 941z"/><path fill="#325c65" d="M527.6 1985.4l43.5 739.8L408 2257.4z"/><path d="M1267.4 2420.6l-402.5-119.7-304.6-446z"/><path fill="#d8d8d7" d="M1854.9 669L-136-168.5 364.4 875.8z"/><path fill="#252620" d="M277.4 1256.5L1245.6 865l-772.4-11z"/><path fill="#a7cad4" d="M560.3 2877.5L397 2910l54.4-565.7z"/><path fill="#33261b" d="M1691.7 1126l32.6 337.2 87-119.7z"/><path fill="#c8d0d8" d="M1735.2 2094.2l76.1 837.7 359-217.6z"/><path fill="#4c5a51" d="M1582.9 2126.8l152.3 174-87 54.5z"/><path fill="#d1d8d9" d="M484.1 1343.5l-108.8-174-119.6 424.3z"/><path fill="#98b2b8" d="M549.4 1996.3l522.2 456.9-435.2 250.2z"/><path d="M397 2485.8l11 185-87 163.2z"/><path fill="#d5d7d9" d="M1561.1 1376.2l-32.6 380.7 424.3-119.6z"/><path fill="#423228" d="M1528.5 1800.5l-1175-641.9 794.2 859.4z"/><path fill="#d8d9d9" d="M375.3 288.3L1757 1049.8l413.4-326.4z"/><path d="M723.4 1245.6l478.7 195.9-119.6-478.7z"/><path fill="#090802" d="M582 1463.2l32.7 478.7-152.3-435.2z"/><path fill="#000503" d="M288.3 1365.3l43.5-293.7L495 951.9z"/><path fill="#b3b8b7" d="M375.3 1202.1l-544 1631.9h500.5z"/><path fill="#000604" d="M1213 2257.4l185 10.9 76-522.2z"/><path fill="#57524a" d="M1082.5 1365.3l282.8 511.3L843.1 1398z"/></g></svg>