<svg xmlns="http://www.w3.org/2000/svg" viewBox="0 0 300 418"><filter id="prefix__a"><feGaussianBlur stdDeviation="12"/></filter><rect width="100%" height="100%" fill="#4d849a"/><g filter="url(#prefix__a)"><g stroke-linecap="round"><path fill="rgba(218,218,222,255)" stroke="rgba(218,218,222,255)" d="M300 0v418l-94-277L300 0"/><path fill="rgba(51,41,37,255)" stroke="rgba(51,41,37,255)" d="m163 182 43-41-13 218-30-177"/><path fill="rgba(198,207,212,255)" stroke="rgba(198,207,212,255)" d="m206 141 94 277-107-59 13-218"/><path fill="rgba(146,175,189,255)" stroke="rgba(146,175,189,255)" d="M300 418H0l105-46 195 46"/><path fill="rgba(131,164,171,255)" stroke="rgba(131,164,171,255)" d="m193 359 107 59-195-46 88-13"/><path fill="rgba(205,205,207,255)" stroke="rgba(205,205,207,255)" d="M0 418V0l83 225L0 418"/><path fill="rgba(50,96,117,255)" stroke="rgba(50,96,117,255)" d="M105 372 0 418l83-193 22 147"/><path fill="rgba(88,78,69,255)" stroke="rgba(88,78,69,255)" d="m163 182 30 177L83 225l80-43"/><path fill="rgba(10,8,9,255)" stroke="rgba(10,8,9,255)" d="m193 359-88 13-22-147 110 134"/><path fill="rgba(227,225,225,255)" stroke="rgba(227,225,225,255)" d="M0 0h300L140 28 0 0"/><path fill="rgba(226,226,226,255)" stroke="rgba(226,226,226,255)" d="m300 0-94 141-66-113L300 0"/><path fill="rgba(214,216,217,255)" stroke="rgba(214,216,217,255)" d="m206 141-43 41-23-154 66 113"/><path fill="rgba(85,86,81,255)" stroke="rgba(85,86,81,255)" d="m163 182-80 43 57-197 23 154"/><path fill="rgba(217,215,215,255)" stroke="rgba(217,215,215,255)" d="M83 225 0 0l140 28-57 197"/></g></g></svg>