<svg xmlns="http://www.w3.org/2000/svg" viewBox="0 0 2000 2785"><filter id="b"><feGaussianBlur stdDeviation="12" /></filter><path fill="#989b9a" d="M0 0h2001v2785H0z"/><g filter="url(#b)" transform="translate(5.4 5.4) scale(10.8789)" fill-opacity=".5"><ellipse rx="1" ry="1" transform="matrix(42.65551 -13.28571 23.40993 75.16064 90.5 146)"/><path fill="#fff" d="M-34.7 76.8l1.4-80 254 4.4-1.4 80z"/><path d="M27 85h123v38H27z"/><ellipse fill="#dde9ef" rx="1" ry="1" transform="matrix(-23.91944 -1.67239 9.287 -132.8282 165.4 180)"/><ellipse fill="#0e0000" rx="1" ry="1" transform="matrix(37.04967 -12.19493 15.1635 46.06853 96.3 169.8)"/><ellipse fill="#dde1e2" cx="14" cy="155" rx="26" ry="105"/><path d="M146 89.3l-32.2-10.6 49.9 57 3-16.2z"/><ellipse fill="#efefed" cx="113" cy="12" rx="152" ry="66"/></g></svg>