<svg xmlns="http://www.w3.org/2000/svg" viewBox="0 0 2000 2785"><filter id="b"><feGaussianBlur stdDeviation="12" /></filter><path fill="#989b9a" d="M0 0h2001v2785H0z"/><g filter="url(#b)" transform="translate(5.4 5.4) scale(10.8789)" fill-opacity=".5"><path d="M140.4 217.5l-99.9-5.2 7.1-135.8 99.9 5.2z"/><path fill="#fff" d="M182.3 84.2l-183-6.4 4.4-124 183 6.4z"/><ellipse fill="#d8e8f0" rx="1" ry="1" transform="matrix(-31.67665 -4.86347 18.39242 -119.79306 167.5 182.5)"/><path fill="#120600" d="M28 88l78 171 51-163z"/><path fill="#e1eaec" d="M-13 183l94 46L-5 50z"/><path d="M166 117.8L125.1 77l29.4 48.7 6.2 14z"/><ellipse fill="#f7f5f5" cx="170" cy="23" rx="68" ry="72"/><path fill="#ebe9e8" d="M-16 154.4L64.7 55 199 11 .8-16z"/></g></svg>