<svg xmlns="http://www.w3.org/2000/svg" viewBox="0 0 2000 2785"><filter id="b"><feGaussianBlur stdDeviation="12" /></filter><path fill="#989b9a" d="M0 0h2001v2785H0z"/><g filter="url(#b)" transform="translate(5.4 5.4) scale(10.8789)" fill-opacity=".5"><ellipse rx="1" ry="1" transform="matrix(48.56033 -10.05636 14.85723 71.74285 93 148.4)"/><path fill="#fff" d="M185.8 80.6l-183-3.2 1.4-80 183 3.2z"/><ellipse cx="115" cy="109" rx="40" ry="29"/><ellipse fill="#ddeaf1" rx="1" ry="1" transform="rotate(-172.6 89.7 78.5) scale(28.55738 182.99999)"/><ellipse rx="1" ry="1" transform="matrix(35.54118 0 0 24.34924 66.4 100.9)"/><ellipse fill="#e7e9ea" cy="127" rx="27" ry="183"/><ellipse fill="#0b0000" rx="1" ry="1" transform="matrix(-30.86998 -43.27278 24.48644 -17.46816 91.8 178.7)"/><path d="M167 121l-8 17-20-50z"/></g></svg>