<svg xmlns="http://www.w3.org/2000/svg" width="2001" height="2785"><path fill="#989b9a" d="M0 0h2001v2785H0z"/><g fill-opacity=".5"><path d="M201.3 864.9l968.2 2088.7 544-2023.5z"/><path fill="#fff" d="M2105 1256.5L-168.5 114.2l2154-282.8z"/><path fill="#fffefc" d="M2061.6-16.3L-157.7 1310.9-5.4 5.4z"/><path fill="#090300" d="M658.2 2235.6l870.3-1359.8L386.2 843z"/><path fill="#f2fbff" d="M2170.3 538.5l-652.7 1468.7 457 946.4z"/><path fill="#130700" d="M1365.3 2518.5l-663.6-380.8 935.6-1120.5z"/><path fill="#e0e5e6" d="M-168.6 1028L212 2953.7l283-1664.5z"/><path fill="#96bec3" d="M1746 2953.6l-108.7-990-761.5 805z"/><path fill="#f2f2f2" d="M2170.3 908.4l-1501.2-87L2115.9-27.2z"/><path d="M1452.3 886.6l293.8 587.5 76.1-174z"/><path fill="#9ec7ce" d="M1136.8 2529.3L636.4 2747l-65.3-750.6z"/><path fill="#dedddd" d="M-168.6 1648.2l185-1816.8L1213-5.4z"/><path fill="#f8ffff" d="M1550.2 1931v-598.3L1757 1485z"/><path d="M277.4 1354.4l32.6-261 391.7-261.2z"/><path fill="#0a0500" d="M1452.3 2518.5L593 2007.2l-119.7-500.5z"/><path fill="#215968" d="M484.1 2007.2l-174 870.3 315.4 76.1z"/><path fill="#e9eaec" d="M1941.9 886.6l152.3 870.3-533-870.3z"/><path d="M1387 2290l174.1-544-359 304.7z"/><path fill="#311800" d="M1234.8 2181.2l-261.1-174 239.3 946.4z"/><path d="M788.7 1452.3l533-228.4L952 930z"/><path fill="#c4c8c9" d="M560.3 1865.7l-718-1349 163.1 2437z"/><path fill="#102f3b" d="M1582.9 2681.7L1332.7 2551l43.5-141.4z"/><path d="M1735.2 1354.4l-119.7-369.9-282.8-108.7z"/><path fill="#bbd5dd" d="M1757 2855.7L1300 2301l272-217.6z"/><path fill="#002946" d="M1702.5 2464l163.2 489.6h-141.4z"/><path fill="#59483b" d="M1506.7 1115L767 1583l587.4 326.3z"/><path fill="#ae1c00" d="M832.2 2834l11-174.1-261.2 174z"/><path fill="#fae1cc" d="M701.7 1267.4l65.3 10.9 10.8 141.4z"/><path d="M1234.8 2464l-631-620L854 2290z"/><path fill="#d5d6d5" d="M1104.2 157.7L451.5 571.1l1642.7 533.1z"/><path fill="#eef6f6" d="M342.7 1191.2h76.1l21.8 217.6z"/><path fill="#8ea3a4" d="M-27.2 2529.3l1022.6-87L571.1 1931z"/><path fill="#5c5a4f" d="M1441.5 1495.8l-43.6-598.3-282.8-65.3z"/><path fill="#545b53" d="M1593.8 2137.7l141.4 141.4-98 87z"/><path fill="#a6c8d2" d="M592.9 2953.6l-185-141.4 43.6-413.4z"/><path fill="#dddedd" d="M549.4 701.7L244.8 854l-185 620z"/><path fill="#ccd0d3" d="M1615.5 1278.3l-119.7 413.4 674.5 696.2z"/><path d="M1071.6 962.8l152.3 565.7-413.4-457z"/><path fill="#000501" d="M527.6 1354.4L593 865l-250.3 250z"/><path d="M375.3 1082.5l-65.3 272-21.7-206.8z"/><path fill="#82abb6" d="M1278.3 2355.3l380.7 598.3-489.5-435.1z"/><path fill="#cfd4d4" d="M505.9 1996.3l-359-565.7 315.5-163.2z"/><path fill="#071f27" d="M299.2 2910.1l119.6-32.6-21.7-424.3z"/><path fill="#b2b6b6" d="M321 2953.6L375.2 1572l-544 1033.5z"/><path fill="#91b0b5" d="M1049.8 2388l-533-239.4 478.6 805z"/><path fill="#ad671a" d="M1104.2 2496.7l119.7-65.3-32.7 326.4z"/><path d="M1648.2 1191.2l-108.8 185L1474 941z"/><path fill="#213539" d="M592.9 2844.8L538.5 2377l-54.4 196z"/><path fill="#47443b" d="M1126 843.1H799.6l-315.5 500.4z"/><path fill="#d4a78c" d="M1223.9 1441.5l-32.7-87 76.2-65.3z"/></g></svg>