<svg xmlns="http://www.w3.org/2000/svg" width="2001" height="2785" viewBox="0 0 2000 2785"><filter id="a"><feGaussianBlur stdDeviation="55"/></filter><rect width="100%" height="100%" fill="#989b9a"/><g filter="url(#a)"><g transform="translate(5.4 5.4) scale(10.8789)" fill-opacity=".5"><ellipse rx="1" ry="1" transform="matrix(-20.5887 -72.15093 45.38362 -12.9505 92.2 149.3)"/><ellipse fill="#fff" rx="1" ry="1" transform="rotate(91.6 40.5 73.2) scale(45.57793 183.00002)"/><ellipse rx="1" ry="1" transform="matrix(4.3454 32.1762 -41.4042 5.59163 112.1 111.8)"/><ellipse fill="#dae9f0" rx="1" ry="1" transform="matrix(30.63351 4.03298 -17.17706 130.4727 169.4 177.1)"/><ellipse cx="68" cy="100" rx="39" ry="23"/><ellipse fill="#dde1e1" rx="1" ry="1" transform="matrix(3.6023 101.77354 -28.19207 .99787 10.9 158.7)"/><ellipse fill="#060000" rx="1" ry="1" transform="rotate(142.4 11.6 104) scale(22.90576 57.8938)"/><path d="M135.8 99.5l9.7-7 24.7 34-9.7 7z"/></g></g></svg>