<svg xmlns="http://www.w3.org/2000/svg" viewBox="0 0 300 418"><g filter="url(#prefix__a)"><g stroke-linecap="round"><path fill="rgba(182,206,210,255)" stroke="rgba(182,206,210,255)" d="M300 418 167 284l35-37 98 171"/><path fill="rgba(202,166,152,255)" stroke="rgba(202,166,152,255)" d="M300 418H0l76-29 224 29"/><path fill="rgba(123,112,106,255)" stroke="rgba(123,112,106,255)" d="m167 284 133 134-224-29 91-105"/><path fill="rgba(28,15,11,255)" stroke="rgba(28,15,11,255)" d="m202 247-35 37-7-20 42-17"/><path fill="rgba(22,15,11,255)" stroke="rgba(22,15,11,255)" d="M167 284 76 389l84-125 7 20"/><path fill="rgba(223,221,221,255)" stroke="rgba(223,221,221,255)" d="M0 0h300L62 175 0 0"/><path fill="rgba(206,206,208,255)" stroke="rgba(206,206,208,255)" d="M0 418V0l62 175L0 418"/><path fill="rgba(182,186,187,255)" stroke="rgba(182,186,187,255)" d="M76 389 0 418l62-243 14 214"/><path fill="rgba(55,38,32,255)" stroke="rgba(55,38,32,255)" d="M160 264 76 389 62 175l98 89"/><path fill="rgba(213,214,218,255)" stroke="rgba(213,214,218,255)" d="M300 0v418l-67-239L300 0"/><path fill="rgba(206,209,214,255)" stroke="rgba(206,209,214,255)" d="m300 418-98-171 31-68 67 239"/><path fill="rgba(219,219,221,255)" stroke="rgba(219,219,221,255)" d="M62 175 300 0l-67 179-171-4"/><path fill="rgba(39,29,25,255)" stroke="rgba(39,29,25,255)" d="m202 247-42 17 73-85-31 68"/><path fill="rgba(26,24,23,255)" stroke="rgba(26,24,23,255)" d="m160 264-98-89 171 4-73 85"/></g><rect width="100%" height="100%" fill="#4d849a"/></g><filter id="prefix__a"><feGaussianBlur in="SourceGraphic" stdDeviation="12"/><feComponentTransfer><feFuncA tableValues="1 1" type="discrete"/></feComponentTransfer></filter></svg>