<svg xmlns="http://www.w3.org/2000/svg" viewBox="0 0 2000 2785"><filter id="b"><feGaussianBlur stdDeviation="12" /></filter><path fill="#989b9a" d="M0 0h2001v2785H0z"/><g filter="url(#b)" transform="translate(5.4 5.4) scale(10.8789)" fill-opacity=".5"><path d="M20 76l139 13-56 182z"/><path fill="#fff" d="M-22.5 85.4l-6.6-125.9 245.6-12.9 6.6 125.9z"/><ellipse fill="#0a0000" cx="78" cy="137" rx="35" ry="62"/><ellipse fill="#e2ecf3" rx="1" ry="1" transform="rotate(-170.8 96.7 57.3) scale(37.49475 146.26477)"/><ellipse fill="#dddfe0" rx="1" ry="1" transform="matrix(9.94108 170.49166 -29.99371 1.74888 7.2 98.8)"/><ellipse rx="1" ry="1" transform="matrix(14.5757 9.32155 -21.28368 33.28037 116.7 189.8)"/><path fill="#020100" d="M170 124L63 111l69-32z"/><path d="M20 130l14-43 33-13z"/></g></svg>