<svg xmlns="http://www.w3.org/2000/svg" viewBox="0 0 2000 2785"><filter id="b"><feGaussianBlur stdDeviation="12" /></filter><path fill="#989b9a" d="M0 0h2001v2785H0z"/><g filter="url(#b)" transform="translate(5.4 5.4) scale(10.8789)" fill-opacity=".5"><path d="M39 210.3l7-133.8 99 5.2-7 133.8z"/><path fill="#fff" d="M182.8 83.2l-183-6.4 3.4-96 183 6.4z"/><ellipse fill="#d8e8f0" rx="1" ry="1" transform="matrix(18.6369 -151.25675 34.84194 4.293 169.4 208.1)"/><ellipse fill="#dee8ea" rx="1" ry="1" transform="matrix(-46.05506 -78.06572 19.7851 -11.67226 14.3 144.3)"/><ellipse fill="#070000" rx="1" ry="1" transform="matrix(34.36134 43.8688 -20.22754 15.84373 86.1 181.3)"/><ellipse fill="#0c0700" cx="93" cy="107" rx="65" ry="30"/><path fill="#f7f4f4" d="M199 151L48-16 199-6z"/><path d="M144.9 94.8l-13.5-13 27 54.7 9.6-15.8z"/></g></svg>