<svg xmlns="http://www.w3.org/2000/svg" width="2001" height="2785"><path fill="#989b9a" d="M0 0h2001v2785H0z"/><g fill-opacity=".5"><path d="M1169.5 2953.6l554.8-2067h-1534z"/><path fill="#fff" d="M1985.4-168.6l185 1457.8-2339-1175z"/><path fill="#fffdfb" d="M-125.1 1311L2072.4-27.3 16.4-168.6z"/><path fill="#070100" d="M1485 843.1L658.2 2203 375.3 875.8z"/><path fill="#e6f4fc" d="M1387 2366.2l783.3 544V462.3z"/><path fill="#040000" d="M505.9 1887.5l1087.9-130.6-391.7 805z"/><path fill="#e0e5e6" d="M495 1289.2L212 2953.6l-380.7-1925.5z"/><path d="M1506.7 1278.3l-43.5-391.7 413.4 489.6z"/><path fill="#e7e8e8" d="M2170.3-125.1l-2339 750.6 2273.8 380.8z"/><path fill="#94bbbe" d="M2094.2 2953.6L582 2670.8l32.7-511.3z"/><path fill="#e5eaed" d="M1952.8 1626.4l-424.3 435.2 32.6-696.3z"/><path fill="#dbdbda" d="M27.2-168.6l1000.9 272L-168.6 1746z"/><path fill="#205867" d="M603.8 2866.6L484 2028.9l-195.8 924.7z"/><path d="M277.4 1354.4l457-554.8-413.5 250.2z"/><path fill="#7da3aa" d="M1974.5 2953.6l-413.4-957.3-391.6 489.5z"/><path fill="#321f12" d="M1550.2 1213L516.7 1800.5l913.9 456.9z"/><path fill="#e8e8e9" d="M2170.3 1909.2l-130.5-979-446-11z"/><path fill="#b7c0c0" d="M712.6 2137.7l-598.4-990-217.5 1806z"/><path fill="#183640" d="M1321.8 2355.3l282.8 369.9-282.8-195.9z"/><path fill="#0e0a02" d="M473.2 1528.5l108.8 446 620.1 446z"/><path fill="#001e32" d="M1789.6 2594.6l-10.9 261.1-98-348.1z"/><path d="M930.1 908.4l435.2 359-554.8 130.5z"/><path fill="#672600" d="M1060.7 2322.6l152.3 631 21.8-337.2z"/><path fill="#ad0c00" d="M962.8 2953.6l-152.3-272-369.9 272z"/><path d="M1321.8 864.9l456.9 554.8-141.4-413.4z"/><path fill="#d8d9d8" d="M277.4 821.4l1436 32.6-783.3-979.1z"/><path fill="#d0d2d2" d="M571.1 1920.1l-533-141.4 359-576.6z"/><path fill="#39626b" d="M527.6 1963.6l43.5 772.4-184.9-456.9z"/><path fill="#e1e5e6" d="M1626.4 1245.6l108.8 282.9-217.6 54.4z"/><path fill="#22190f" d="M1659 1213l152.3 119.7-87 152.3z"/><path fill="#c3d8dd" d="M1735.2 2953.6l-337.3-554.8 141.5-478.7z"/><path fill="#a9ccd5" d="M397 2921l54.5-565.7 87 402.5z"/><path fill="#f3d1b6" d="M788.7 1332.7l-76.1-98 43.5 174.1z"/><path fill="#090a04" d="M756 2170.3l750.7-130.5-337.2 424.3z"/><path fill="#d7dfe1" d="M353.6 1180.4L484 1321.8l-65.3 315.5z"/><path fill="#13150e" d="M484.1 864.9L767 832.2 277.4 1213z"/><path fill="#d7d7d7" d="M734.3 353.6L125.1 1419.7-70.7-168.6z"/><path fill="#4b3f35" d="M1115 1376.2l-435 32.6 565.6 913.8z"/><path fill="#59564a" d="M1082.5 854l304.6 21.8 54.4 631z"/><path fill="#00050f" d="M397 2485.8L331.9 2747l76.2-21.7z"/><path fill="#687069" d="M1582.9 2159.5l130.5 359v-272z"/><path fill="#ced5da" d="M2170.3 2213.9l-489.5 119.6 206.7 620.1z"/><path fill="#b0c6c6" d="M777.8 2235.6L952 2518.5l119.7-76.2z"/><path fill="#8e7264" d="M1245.6 1506.7l206.7-130.5-250.2-108.8z"/><path fill="#e4e5e4" d="M1006.3 38l1164-21.7-348 1294.6z"/><path fill="#8da8ac" d="M1463.2 2159.5L1245.6 2377l-21.7 370z"/><path fill="#000100" d="M1158.6 1408.8l76.2-380.7-576.6 195.8z"/><path fill="#afb4b4" d="M331.8 2953.6l-500.4-239.3 511.3-1011.8z"/><path fill="#444137" d="M625.5 875.8L549.4 1485l456.9-642z"/><path fill="#000102" d="M1234.8 2007.2l152.3 272 87-522.3z"/></g></svg>