<svg xmlns="http://www.w3.org/2000/svg" width="2001" height="2785" viewBox="0 0 2000 2785"><filter id="a"><feGaussianBlur stdDeviation="55"/></filter><rect width="100%" height="100%" fill="#989b9a"/><g filter="url(#a)" fill-opacity=".5"><path d="M1555.6 904l-77.4 1477.6-1043-54.7 77.5-1477.5z"/><ellipse fill="#fff" rx="1" ry="1" transform="matrix(27.88453 -514.87313 1976.9446 107.0675 983.4 343.7)"/><path fill="#0f0400" d="M1191.2 2823l-903-1816.7L1670 984.5z"/><path fill="#e3eced" d="M843.1 2409.7L-168.6 233.9l87 1871.2z"/><ellipse fill="#eef3f6" rx="1" ry="1" transform="matrix(-353.0247 12.49534 -60.6568 -1713.7064 1988.7 1465.6)"/><path d="M1811.5 1279l4.6 19.8L1751 1546l-284-643.3z"/><path fill="#edebea" d="M-168.6 1495.8L1604.6-168.6-146.9-27.2z"/><ellipse fill="#bfdee6" rx="1" ry="1" transform="matrix(-211.93664 -52.21034 68.55377 -278.27927 1607.6 2300.3)"/></g></svg>