<svg xmlns="http://www.w3.org/2000/svg" width="2000" height="2000"><path fill="#6f807c" d="M0 0h2000v2000H0z"/><g fill-opacity=".5"><path fill="#2b0000" d="M2121 1886.7l-2242 234.4 210.8-945.3z"/><path fill="#99e6fb" d="M1941.4-121l179.7 1406.2-2242.2-898.5z"/><path fill="#5d330a" d="M1996 2121l15.7-1062.4L-121 1425.8z"/><path fill="#8acfde" d="M66.4 1324.2L1308.6-121-121.1 11.7z"/><path fill="#d0cece" d="M433.6 1394.5L410.2 386.7l-531.3 257.8z"/><path fill="#3d3d36" d="M371 761.7l398.5 1359.4L949.2 816.4z"/><path fill="#a5acaf" d="M1722.7 332l-586 1117.2-414-304.7z"/><path fill="#2f2401" d="M-121 1441.4l148.3 679.7 1875-23.4z"/><path fill="#4babbb" d="M-121 66.4L2097.6-121l-132.9 632.8z"/><path fill="#010806" d="M1839.8 1293l54.7 757.8 226.6-445.3z"/><path fill="#a0b8bc" d="M-121 410.2l2242 914V441.4z"/><path fill="#745032" d="M1691.4 2121l-554.7-1070.2 718.8 15.6z"/><path fill="#232628" d="M457 972.7h148.5l-93.8-484.4z"/><path fill="#cdb09b" d="M441.4 1269.5L425.8 918l-546.9 351.5z"/><path fill="#233137" d="M1019.5 1129l-336-297 250-46.8z"/><path fill="#5eacba" d="M-121-50.8l2242 62.5L207 480.5z"/><path fill="#a1a7a9" d="M636.7 730.5l93.8 281.2-70.3 281.3z"/><path fill="#5e4a2b" d="M-121 1339.8l390.5-109.3 773.5 734.3z"/><path fill="#6d979d" d="M2121 1082l-859.3 23.5 78.1-226.6z"/><path fill="#4a3622" d="M2027.3 1464.8l-406.2-390.6-312.5 343.8z"/><path fill="#adcad0" d="M1074.2 410.2l-86 507.8 367.3 164z"/><path fill="#895e38" d="M1871 1558.6l-460.8-250 39 812.5z"/><path fill="#52432c" d="M472.7 1964.8l265.6-742.1 726.5 398.4z"/><path fill="#f5d3c6" d="M1214.8 1261.7l-54.6 195.3-15.7-304.7z"/><path fill="#a7c2c9" d="M82 754l-203-351.7 796.8 367.2z"/><path fill="#00171b" d="M910.2 1863.3l117.1-218.8 218.8 250z"/><path fill="#ffede1" d="M425.8 1144.5v203.2L293 1214.8z"/><path fill="#606a6c" d="M871 933.6l578.2 195.3-1023.4-23.4z"/><path fill="#d5b1a3" d="M1082 1058.6l-164 132.8 179.7 250z"/><path fill="#0f2932" d="M629 816.4l-273.5-39 289 218.7z"/><path fill="#6a98a0" d="M300.8 910.2l7.8 265.6-414-15.6z"/><path fill="#000e0d" d="M50.8 1621l437.5 265.7v-156.2z"/><path fill="#6f5e58" d="M1386.7 933.6l-62.5 211-15.6-429.8z"/><path fill="#7c6039" d="M1254 1550.8l31.2 406.2-195.4 39z"/><path fill="#4f3922" d="M1972.7 2121l-132.9-843.7-109.3 734.4z"/><path fill="#b48465" d="M1019.5 1464.8l70.3 164.1-117.1 15.6z"/><path fill="#4b6c79" d="M1183.6 1425.8l15.6-468.8 125 250z"/><path fill="#1f292c" d="M1097.7 1207l-7.9 351.6 70.4-125z"/><path fill="#9cbdc5" d="M496 629L136.8 238.2-121 1261.7z"/><path fill="#233439" d="M660.2 691.4l109.3 242.2-54.7 179.7z"/><path fill="#a5c3ca" d="M714.8 410.2l1218.8 367.1-1250 15.7z"/><path fill="#302b1e" d="M1136.7 1464.8L66.4 1597.7l586-242.2z"/><path fill="#9f9d9a" d="M1722.7 1011.7l226.5 273.5-265.6-140.7z"/><path fill="#78b5c0" d="M2121 254L129 82l1398.3 507.8z"/><path fill="#67787d" d="M418 957h593.7L582 1300.8z"/><path fill="#ffdece" d="M363.3 793l-62.5 218.7 117.2-39z"/><path fill="#775330" d="M129 1363.3l195.2 156.2L957 1238.3z"/><path fill="#2d3332" d="M543 777.3l-31.3-242.1 54.7 101.5z"/><path fill="#503b21" d="M1332 1105.5l-31.2 421.8 437.5-195.3z"/><path fill="#a2bfc6" d="M1269.5 394.5l851.6 515.7-703.1 70.3z"/></g></svg>