<svg xmlns="http://www.w3.org/2000/svg" width="2000" height="2000"><path fill="#6f807c" d="M0 0h2000v2000H0z"/><g fill-opacity=".5"><path fill="#2b0000" d="M27.3 2121l2093.8-250-2242.2-750z"/><path fill="#99e6fa" d="M-121 394.5L2121 1293 1949.3-121z"/><path fill="#512d06" d="M1972.7 2121L2121 996l-2242.2 648.5z"/><path fill="#8acfdf" d="M-19.5 1379L1261.7-11.8-19.5-105.5z"/><path fill="#3f3b34" d="M769.5 2121L972.7 800.9l-586-23.5z"/><path fill="#d2cfce" d="M441.4 1394.5l-54.7-1000-507.8 289z"/><path fill="#48a9bb" d="M1980.5-121L2082 496-121 50.9z"/><path fill="#a7a5a6" d="M1168 1480.5l281.2-929.7-726.5 586z"/><path fill="#241e01" d="M19.5 1488.3l-86 632.8L918 1964.8z"/><path fill="#030908" d="M1863.3 1339.8l257.8 187.5-226.6 593.8z"/><path fill="#a3b8bc" d="M2050.8 1300.8l70.3-820.3-2132.8-31.3z"/><path fill="#704e2f" d="M839.8 1644.5L1629 957l359.4 1164z"/><path fill="#1b2427" d="M488.3 933.6l140.6 39-117.2-500z"/><path fill="#493825" d="M2019.5 1511.7l-804.7-234.4-7.8-265.6z"/><path fill="#cdb19d" d="M425.8 894.5l7.8 351.6-531.3 31.2z"/><path fill="#00131b" d="M371 769.5l179.8 15.7-140.6 101.5z"/><path fill="#513715" d="M-121 1543l1273.3-54.7-367.1-250z"/><path fill="#2f3120" d="M699.2 1879l804.7 242-218.7-609.3z"/><path fill="#637276" d="M1277.3 1019.5l-835.9-70.3 7.8 390.6z"/><path fill="#68b1bd" d="M1964.8 371l-2039-492-46.9 554.6z"/><path fill="#9f6c43" d="M1699.2 1425.8l-351.5 78.1 445.3 421.9z"/><path fill="#a9cad1" d="M1347.7 1089.8l-367.2-164L1097.7 332z"/><path fill="#5e9ca8" d="M2027.3 1004l-632.8 93.7-86-203.2z"/><path fill="#082732" d="M738.3 988.3l203.1-187.5-250-7.8z"/><path fill="#abbcbf" d="M652.3 410.2l23.5 593.7L503.9 457z"/><path fill="#765325" d="M464.8 1558.6l-585.9-250 406.3-78.1z"/><path fill="#f5d6c8" d="M1136.7 1105.5l70.3 117.2-46.8 226.5z"/><path fill="#805d35" d="M1300.8 1964.8l-226.6 156.3 171.9-578.1z"/><path fill="#6a949a" d="M-121 1183.6h429.6l-31.3-257.8z"/><path fill="#735d53" d="M1394.5 910.2l-62.5 265.6-15.6-414z"/><path fill="#a3c2c8" d="M683.6 371L707 793l1351.6-47z"/><path fill="#a3bec5" d="M613.3 777.3L11.7 754l-117.2-531.2z"/><path fill="#d2afa0" d="M910.2 1183.6l187.5 242.2L1082 1043z"/><path fill="#fff6ec" d="M418 1191.4l-109.4-31.2L418 1332z"/><path fill="#5c4d34" d="M480.5 1597.7l765.6-218.8-656.3 648.4z"/><path fill="#00151a" d="M1027.3 1660.2L925.8 1871l320.3 23.4z"/><path fill="#433220" d="M1699.2 2121l164-851.5L1918 1879z"/><path fill="#3d484a" d="M941.4 793l78.1 390.6-273.4-382.8z"/><path fill="#687478" d="M1230.5 1558.6l-62.5-546.9 171.8 46.9z"/><path fill="#343a3a" d="M1129 1207l31.2 437.5-109.4-54.7z"/><path fill="#879799" d="M683.6 941.4l23.4 382.8-109.3-86z"/><path fill="#3c4547" d="M1152.3 1027.3L1082 1082l23.5 187.5z"/><path fill="#202728" d="M839.8 1402.3l101.6-179.6 31.3 460.9z"/><path fill="#906c52" d="M1082 1621l-39-367-70.3 398.3z"/><path fill="#ffe8d8" d="M1261.7 1004l54.7 78-15.6-257.8z"/><path fill="#7a7e78" d="M1652.3 1058.6h468.8l-46.9 421.9z"/><path fill="#19343b" d="M629 800.8l-273.5-23.5 273.4 211z"/><path fill="#0d1a1b" d="M261.7 1504L74.2 1636.6 496.1 1871z"/><path fill="#573e26" d="M1925.8 1574.2l-265.6-500L1332 1254z"/><path fill="#845c34" d="M1660.2 2121l-195.4-976.5-70.3 757.8z"/></g></svg>