<svg xmlns="http://www.w3.org/2000/svg" width="2000" height="2000" viewBox="0 0 2000 2000"><filter id="a"><feGaussianBlur stdDeviation="55"/></filter><rect width="100%" height="100%" fill="#6f807c"/><g filter="url(#a)" fill-opacity=".5"><ellipse fill="#3a0600" rx="1" ry="1" transform="rotate(-4 25794.8 -11264.8) scale(1992.1875 501.87709)"/><ellipse fill="#91e4fa" rx="1" ry="1" transform="matrix(-1949.40774 -410.63426 109.21506 -518.47764 1290.4 439.7)"/><ellipse fill="#d0dee2" rx="1" ry="1" transform="rotate(60.8 -624.8 510.6) scale(519.58236 233.99569)"/><path fill="#111215" d="M425.8 793h546.9v171.8h-547z"/><ellipse fill="#2f2808" rx="1" ry="1" transform="rotate(-85.5 1233 617.6) scale(387.44641 616.61265)"/><ellipse fill="#d7c6bc" rx="1" ry="1" transform="rotate(129.9 234.5 888.6) scale(114.16458 174.54011)"/><ellipse fill="#734f1f" rx="1" ry="1" transform="matrix(-85.001 507.946 -367.56844 -61.50986 1505.3 1606.9)"/><ellipse fill="#4aa9b9" rx="1" ry="1" transform="matrix(16.64184 -276.43696 1570.56256 94.54976 1002.8 61)"/></g></svg>