<svg xmlns="http://www.w3.org/2000/svg" width="2000" height="2000"><path fill="#6f807c" d="M0 0h2000v2000H0z"/><g fill-opacity=".5"><path fill="#2a0000" d="M89.8 1175.8L-121 2121l2242.2-218.8z"/><path fill="#99e6fa" d="M2121 1293L1949.3-121-121 394.4z"/><path fill="#5d330b" d="M1972.7 2121l125-1093.7-2218.8 398.5z"/><path fill="#8acfdf" d="M50.8 1332L1308.6-121-121.1 4z"/><path fill="#d3cfce" d="M386.7 425.8l62.5 984.4L-121 636.7z"/><path fill="#212a30" d="M355.5 754l648.4 78-453.1 328.2z"/><path fill="#abbabe" d="M949.2 418l1039 125-968.7 906.2z"/><path fill="#302501" d="M1550.8 1996l-1671.9 125v-695.2z"/><path fill="#4aaabb" d="M2121 519.5L1972.8-121-121.1 66.4z"/><path fill="#000505" d="M1847.7 1308.6l273.4 296.9-226.6 453z"/><path fill="#583b23" d="M1910.2 1754l-47-515.7-898.4-257.8z"/><path fill="#45352f" d="M558.6 574.2L543 839.8l-86-390.6z"/><path fill="#815c37" d="M1910.2 2121L1293 707l156.2 1265.7z"/><path fill="#ae9a95" d="M1191.4 1082l-421.9 101.6 422 304.7z"/><path fill="#56462e" d="M699.2 1863.3l742.2-429.7-1562.5-164z"/><path fill="#79989c" d="M2121 988.3L1964.9 1293l-648.4-343.8z"/><path fill="#d2b29d" d="M-11.7 1269.5l445.3-382.8 7.8 382.8z"/><path fill="#a9c2c7" d="M589.8 785.2L2043 793 504 371z"/><path fill="#5f6362" d="M847.7 1269.5L668 683.5 425.8 1332z"/><path fill="#68b1bd" d="M2027.3 371L-121 418 50.8-121z"/><path fill="#d7c1b6" d="M652.3 1058.6l-15.6-281.3 62.5 86z"/><path fill="#343b3e" d="M675.8 847.7l359.4 296.8-93.8-359.3z"/><path fill="#34291a" d="M1074.2 1457l-312.5-250L457 1558.6z"/><path fill="#a2bec4" d="M527.3 379L-121 504l570.3 273.3z"/><path fill="#0e2429" d="M652.3 1011.7l-289-234.4 265.6 31.3z"/><path fill="#00161b" d="M918 1879l304.7 15.5-195.4-250z"/><path fill="#634323" d="M1714.8 1058.6l-296.8 78.1-242.2 640.6z"/><path fill="#675a4d" d="M957 1668l179.7-70.3-7.8-554.7z"/><path fill="#b3c8cc" d="M613.3 589.8l711 234.4-15.7 250z"/><path fill="#6d959a" d="M300.8 933.6l-421.9 226.6 429.7 23.4z"/><path fill="#fffbf2" d="M433.6 1191.4l-101.6-7.8 93.8 179.7z"/><path fill="#c8b2a8" d="M1105.5 1425.8l-23.5-312.5-179.7 23.4z"/><path fill="#010f0f" d="M105.5 1566.4l546.8 289-406.2-70.2z"/><path fill="#53a2b6" d="M1582 988.3l-234.3-23.5L1418 1168z"/><path fill="#714f2a" d="M-121 1355.5l539 132.8-187.5-273.5z"/><path fill="#795e39" d="M1293 2027.3l-234.4 47L1246 1582z"/><path fill="#ebd5cb" d="M1152.3 1144.5l70.4 257.8-78.2-7.8z"/><path fill="#91623c" d="M1738.3 1855.5l78.1-414-586 7.7z"/><path fill="#adbfc5" d="M2121 933.6L1425.9 957 2121 504z"/><path fill="#403323" d="M1457 1191.4l-195.3 367.2 468.8-250z"/><path fill="#647072" d="M433.6 957l7.8 367.2 695.3-336z"/><path fill="#516c78" d="M1238.3 918l86 296.8-148.5 242.2z"/><path fill="#202a27" d="M1082 1558.6l101.6 156.2-70.3-445.3z"/><path fill="#9ebdc5" d="M-121 1207l695.2-765.6-695.3-86z"/><path fill="#1b3033" d="M699.2 964.8l-39-226.5 187.5 195.3z"/><path fill="#52a4b3" d="M2121-113.3L746 58.6l1375 195.3z"/><path fill="#27271f" d="M1738.3 1746l289 242.3-39-593.8z"/><path fill="#00060d" d="M613.3 2121L793 1808.7l46.8 125z"/><path fill="#b19482" d="M2058.6 1214.8L1582 1035.2l289 218.7z"/><path fill="#ffdbcc" d="M441.4 1058.6l-125-125 39-156.3z"/></g></svg>