<svg xmlns="http://www.w3.org/2000/svg" viewBox="0 0 2000 2000"><filter id="b"><feGaussianBlur stdDeviation="12" /></filter><path fill="#6f807c" d="M0 0h2000v2000H0z"/><g filter="url(#b)" transform="translate(4 4) scale(7.8125)" fill-opacity=".5"><ellipse fill="#390600" cx="152" cy="215" rx="255" ry="57"/><ellipse fill="#91e4fa" rx="1" ry="1" transform="matrix(-250.05674 -49.96627 13.29062 -66.51304 169.4 56.8)"/><path fill="#d7e3e8" d="M-16 96l64-51 8 132z"/><path fill="#0f1216" d="M122.2 104.7l-76-7.6 13.5 28.3 67-5.3z"/><ellipse fill="#372d0b" rx="1" ry="1" transform="matrix(-2.3747 54.38938 -103.26156 -4.5085 77.4 230.7)"/><path fill="#bbb8b4" d="M118 166l40 29-18-149z"/><ellipse fill="#744f22" rx="1" ry="1" transform="matrix(-5.40655 68.48943 -46.73477 -3.68924 195.2 205.7)"/><ellipse fill="#4aa8b9" rx="1" ry="1" transform="matrix(-247.8993 -9.62763 1.45264 -37.40358 151.5 5.2)"/></g></svg>