<svg xmlns="http://www.w3.org/2000/svg" width="800" height="800"><path fill="#5eabba" d="M0 0h100v100H0z"/><path fill="#66adbb" d="M100 0h100v100H100z"/><path fill="#69aebd" d="M200 0h100v100H200z"/><path fill="#68aebd" d="M300 0h100v100H300z"/><path fill="#67adbc" d="M400 0h100v100H400z"/><path fill="#62abba" d="M500 0h100v100H500z"/><path fill="#5ea8b8" d="M600 0h100v100H600z"/><path fill="#5fa6b6" d="M700 0h100v100H700z"/><path fill="#86b6c2" d="M0 100h100v100H0z"/><path fill="#84b8c3" d="M100 100h100v100H100z"/><path fill="#84b8c4" d="M200 100h100v100H200zm100 0h100v100H300z"/><path fill="#82b7c3" d="M400 100h100v100H400z"/><path fill="#7bb5c2" d="M500 100h100v100H500z"/><path fill="#76b2c0" d="M600 100h100v100H600z"/><path fill="#77b0bd" d="M700 100h100v100H700z"/><path fill="#a6c0c7" d="M0 200h100v100H0z"/><path fill="#9cb4ba" d="M100 200h100v100H100z"/><path fill="#8fa8af" d="M200 200h100v100H200z"/><path fill="#a2c1c9" d="M300 200h100v100H300z"/><path fill="#a1bfc6" d="M400 200h100v100H400z"/><path fill="#9cbbc4" d="M500 200h100v100H500z"/><path fill="#9bbac2" d="M600 200h100v100H600z"/><path fill="#94b7c0" d="M700 200h100v100H700z"/><path fill="#a8c6cf" d="M0 300h100v100H0z"/><path fill="#8b9496" d="M100 300h100v100H100z"/><path fill="#505a5f" d="M200 300h100v100H200z"/><path fill="#68787e" d="M300 300h100v100H300z"/><path fill="#9ab2b8" d="M400 300h100v100H400z"/><path fill="#9cb6bd" d="M500 300h100v100H500z"/><path fill="#9cbfc9" d="M600 300h100v100H600z"/><path fill="#95b8c4" d="M700 300h100v100H700z"/><path fill="#92a2a2" d="M0 400h100v100H0z"/><path fill="#a39d9a" d="M100 400h100v100H100z"/><path fill="#616b6d" d="M200 400h100v100H200z"/><path fill="#747676" d="M300 400h100v100H300z"/><path fill="#8b8e90" d="M400 400h100v100H400z"/><path fill="#72746e" d="M500 400h100v100H500z"/><path fill="#71726b" d="M600 400h100v100H600z"/><path fill="#7f9191" d="M700 400h100v100H700z"/><path fill="#6d4f37" d="M0 500h100v100H0z"/><path fill="#735a46" d="M100 500h100v100H100z"/><path fill="#584939" d="M200 500h100v100H200z"/><path fill="#604e40" d="M300 500h100v100H300z"/><path fill="#837267" d="M400 500h100v100H400z"/><path fill="#6b4c34" d="M500 500h100v100H500z"/><path fill="#634128" d="M600 500h100v100H600z"/><path fill="#5d4734" d="M700 500h100v100H700z"/><path fill="#3c2d1d" d="M0 600h100v100H0z"/><path fill="#3d2f20" d="M100 600h100v100H100z"/><path fill="#523f2b" d="M200 600h100v100H200z"/><path fill="#503f2e" d="M300 600h100v100H300z"/><path fill="#503e2d" d="M400 600h100v100H400z"/><path fill="#6d4e30" d="M500 600h100v100H500z"/><path fill="#865e40" d="M600 600h100v100H600z"/><path fill="#413528" d="M700 600h100v100H700z"/><path fill="#3e2f1e" d="M0 700h100v100H0z"/><path fill="#392d1d" d="M100 700h100v100H100z"/><path fill="#4a3826" d="M200 700h100v100H200z"/><path fill="#3f3426" d="M300 700h100v100H300z"/><path fill="#3c3427" d="M400 700h100v100H400z"/><path fill="#5c432a" d="M500 700h100v100H500z"/><path fill="#724f32" d="M600 700h100v100H600z"/><path fill="#4a3a2b" d="M700 700h100v100H700z"/></svg>