<svg xmlns="http://www.w3.org/2000/svg" viewBox="0 0 2000 2000"><filter id="b"><feGaussianBlur stdDeviation="12" /></filter><path fill="#6f807c" d="M0 0h2000v2000H0z"/><g filter="url(#b)" transform="translate(4 4) scale(7.8125)" fill-opacity=".5"><ellipse fill="#3a0600" cx="139" cy="210" rx="255" ry="52"/><ellipse fill="#92e3fb" rx="1" ry="1" transform="rotate(9.2 -282 1172.7) scale(233.72522 67.46908)"/><ellipse fill="#d7e4e9" rx="1" ry="1" transform="matrix(32.71308 52.69266 -23.17776 14.3894 17.2 108)"/><path fill="#141317" d="M52.7 123.1l1.8-25 66.8 4.8-1.8 25z"/><ellipse fill="#2a2304" rx="1" ry="1" transform="matrix(12.23775 -37.74754 135.93181 44.06909 84.9 249.3)"/><ellipse fill="#d2bfb5" rx="1" ry="1" transform="rotate(55.8 -84.7 210.5) scale(22.4267 16.99309)"/><ellipse fill="#795123" rx="1" ry="1" transform="matrix(-39.35922 -16.8608 21.663 -50.56932 194 190)"/><ellipse fill="#4ba8b9" rx="1" ry="1" transform="rotate(92.1 65.7 77.4) scale(29.53031 183.97886)"/></g></svg>