<svg xmlns="http://www.w3.org/2000/svg" viewBox="0 0 2000 2000"><filter id="b"><feGaussianBlur stdDeviation="12" /></filter><path fill="#6f807c" d="M0 0h2000v2000H0z"/><g filter="url(#b)" transform="translate(4 4) scale(7.8125)" fill-opacity=".5"><ellipse fill="#3a0600" rx="1" ry="1" transform="rotate(-91.5 177 38.4) scale(57.65701 255)"/><ellipse fill="#92e4fb" rx="1" ry="1" transform="rotate(14.2 -114.8 562.4) scale(255 70.90346)"/><ellipse fill="#d9e4e9" rx="1" ry="1" transform="matrix(-20.41855 -46.80587 21.60649 -9.4256 28.5 115.8)"/><path fill="#191b1f" d="M57 99h66v25H57z"/><ellipse fill="#282304" rx="1" ry="1" transform="matrix(.55523 -38.6071 116.09425 1.6696 32.2 236.7)"/><ellipse fill="#cbbab0" rx="1" ry="1" transform="rotate(141.7 39.8 104.3) scale(16.46118 25.1894)"/><ellipse fill="#764f1e" cx="197" cy="210" rx="43" ry="74"/><ellipse fill="#b2bfc4" rx="1" ry="1" transform="matrix(216.84383 32.40753 -3.47138 23.22753 150.3 86.9)"/></g></svg>