<svg xmlns="http://www.w3.org/2000/svg" viewBox="0 0 300 300"><g filter="url(#prefix__a)"><g stroke-linecap="round"><path fill="rgba(98,170,186,255)" stroke="rgba(98,170,186,255)" d="M0 0h300L180 15 0 0"/><path fill="rgba(69,44,27,255)" stroke="rgba(69,44,27,255)" d="M300 300H0l245-31 55 31"/><path fill="rgba(93,169,185,255)" stroke="rgba(93,169,185,255)" d="M180 15 300 0l-53 49-67-34"/><path fill="rgba(122,105,87,255)" stroke="rgba(122,105,87,255)" d="M245 269 0 300l181-111 64 80"/><path fill="rgba(158,188,198,255)" stroke="rgba(158,188,198,255)" d="m180 15 67 34-66 140-1-174"/><path fill="rgba(150,136,123,255)" stroke="rgba(150,136,123,255)" d="M300 0v300l-29-53L300 0"/><path fill="rgba(149,183,194,255)" stroke="rgba(149,183,194,255)" d="m247 49 53-49-29 247-24-198"/><path fill="rgba(27,24,19,255)" stroke="rgba(27,24,19,255)" d="m300 300-55-31 26-22 29 53"/><path fill="rgba(116,85,55,255)" stroke="rgba(116,85,55,255)" d="m245 269-64-80 90 58-26 22"/><path fill="rgba(170,114,87,255)" stroke="rgba(170,114,87,255)" d="m181 189 66-140 24 198-90-58"/><path fill="rgba(143,156,166,255)" stroke="rgba(143,156,166,255)" d="M0 300V0l36 185L0 300"/><path fill="rgba(90,66,44,255)" stroke="rgba(90,66,44,255)" d="M181 189 0 300l36-115 145 4"/><path fill="rgba(147,187,197,255)" stroke="rgba(147,187,197,255)" d="m0 0 180 15L36 185 0 0"/><path fill="rgba(37,74,81,255)" stroke="rgba(37,74,81,255)" d="m180 15 1 174-145-4L180 15"/></g><rect width="100%" height="100%" fill="#68adbb"/></g><filter id="prefix__a"><feGaussianBlur in="SourceGraphic" stdDeviation="12"/><feComponentTransfer><feFuncA tableValues="1 1" type="discrete"/></feComponentTransfer></filter></svg>