<svg xmlns="http://www.w3.org/2000/svg" viewBox="0 0 2000 2000"><filter id="b"><feGaussianBlur stdDeviation="12" /></filter><path fill="#6f807c" d="M0 0h2000v2000H0z"/><g filter="url(#b)" transform="translate(4 4) scale(7.8125)" fill-opacity=".5"><ellipse fill="#3a0600" rx="1" ry="1" transform="matrix(5.96903 60.41463 -253.76443 25.0722 91 222.6)"/><ellipse fill="#92e4fc" rx="1" ry="1" transform="matrix(14.97425 -67.58596 248.87112 55.13955 153.4 50.3)"/><ellipse fill="#d2dfe5" rx="1" ry="1" transform="matrix(-28.55597 -52.58634 25.555 -13.87714 19.2 108.3)"/><path fill="#181c21" d="M55 100h67v26H55z"/><ellipse fill="#312909" cx="67" cy="255" rx="81" ry="81"/><path fill="#b8bbbb" d="M121 59h33v121h-33z"/><ellipse fill="#754f1f" rx="1" ry="1" transform="matrix(-.36184 -69.10545 44.75215 -.23432 196.6 207)"/><ellipse fill="#4aa8b9" rx="1" ry="1" transform="rotate(-88.4 96.7 -82.8) scale(26.81184 233.36863)"/></g></svg>