<svg xmlns="http://www.w3.org/2000/svg" viewBox="0 0 300 300"><filter id="prefix__a"><feGaussianBlur stdDeviation="12"/></filter><g filter="url(#prefix__a)"><g stroke-linecap="round"><path fill="rgba(123,183,195,255)" stroke="rgba(123,183,195,255)" d="M0 0h300L120 166 0 0"/><path fill="rgba(4,11,9,255)" stroke="rgba(4,11,9,255)" d="M300 300H0l46-27 254 27"/><path fill="rgba(165,148,138,255)" stroke="rgba(165,148,138,255)" d="M300 0v300l-39-61L300 0"/><path fill="rgba(98,82,59,255)" stroke="rgba(98,82,59,255)" d="M300 300 46 273l215-34 39 61"/><path fill="rgba(60,52,55,255)" stroke="rgba(60,52,55,255)" d="M261 239 46 273l84-85 131 51"/><path fill="rgba(158,187,195,255)" stroke="rgba(158,187,195,255)" d="M120 166 300 0l-93 183-87-17"/><path fill="rgba(164,190,197,255)" stroke="rgba(164,190,197,255)" d="m300 0-39 239-54-56L300 0"/><path fill="rgba(132,88,43,255)" stroke="rgba(132,88,43,255)" d="m261 239-131-51 77-5 54 56"/><path fill="rgba(213,197,192,255)" stroke="rgba(213,197,192,255)" d="m130 188-10-22 87 17-77 5"/><path fill="rgba(149,149,147,255)" stroke="rgba(149,149,147,255)" d="M0 300V0l46 234-46 66"/><path fill="rgba(86,68,52,255)" stroke="rgba(86,68,52,255)" d="M46 273 0 300l46-66v39"/><path fill="rgba(236,215,206,255)" stroke="rgba(236,215,206,255)" d="m0 0 120 166-74 68L0 0"/><path fill="rgba(70,61,52,255)" stroke="rgba(70,61,52,255)" d="m120 166 10 22-84 46 74-68"/><path fill="rgba(30,14,3,255)" stroke="rgba(30,14,3,255)" d="m130 188-84 85v-39l84-46"/></g></g></svg>