<svg xmlns="http://www.w3.org/2000/svg" viewBox="0 0 2000 2000"><filter id="b"><feGaussianBlur stdDeviation="12" /></filter><path fill="#6f807c" d="M0 0h2000v2000H0z"/><g filter="url(#b)" transform="translate(4 4) scale(7.8125)" fill-opacity=".5"><ellipse fill="#3a0600" rx="1" ry="1" transform="matrix(1.8619 53.33855 -250.71032 8.75158 131.8 212.5)"/><ellipse fill="#93e4fb" rx="1" ry="1" transform="rotate(-169.5 87.5 21.2) scale(255 65.92293)"/><ellipse fill="#d7e5ea" rx="1" ry="1" transform="matrix(-30.05086 -48.51419 23.02745 -14.26376 18.6 110)"/><path fill="#0d0d11" d="M52 102h70v21H52z"/><ellipse fill="#312909" cx="67" cy="255" rx="81" ry="81"/><ellipse fill="#cdbbb3" rx="1" ry="1" transform="matrix(-10.31479 12.64718 -18.8598 -15.38168 133.8 160)"/><ellipse fill="#744f1f" rx="1" ry="1" transform="rotate(-178.3 99.5 101.7) scale(46.09729 68.9147)"/><ellipse fill="#4ba9ba" rx="1" ry="1" transform="matrix(-233.59503 -12.25836 1.72598 -32.8902 166.3 12.9)"/></g></svg>