<svg xmlns="http://www.w3.org/2000/svg" viewBox="0 0 2000 2000"><filter id="b"><feGaussianBlur stdDeviation="12" /></filter><path fill="#6f807c" d="M0 0h2000v2000H0z"/><g filter="url(#b)" transform="translate(4 4) scale(7.8125)" fill-opacity=".5"><ellipse fill="#390600" rx="1" ry="1" transform="rotate(85.9 -63.2 168.4) scale(58.73328 251.88108)"/><ellipse fill="#90e4fa" rx="1" ry="1" transform="rotate(-166.2 72.8 12.6) scale(255 75.56791)"/><path fill="#ccdee2" d="M-16 120l79 58L31 22z"/><path fill="#18191d" d="M54 100l-1.2 22.9 75.1.6-8.7-22.9z"/><path fill="#b6baba" d="M122 60h34v120h-34z"/><ellipse fill="#3b2e0c" rx="1" ry="1" transform="rotate(-150.9 76 115.8) scale(138.34577 70.56755)"/><ellipse fill="#764f1f" rx="1" ry="1" transform="matrix(37.70994 -9.59184 17.16013 67.46438 203.5 204)"/><ellipse fill="#4da9b9" cx="126" cy="12" rx="255" ry="35"/></g></svg>