<svg xmlns="http://www.w3.org/2000/svg" viewBox="0 0 300 300"><filter id="prefix__a"><feGaussianBlur stdDeviation="12"/></filter><rect width="100%" height="100%" fill="#68adbb"/><g filter="url(#prefix__a)"><g stroke-linecap="round"><path fill="rgba(107,175,188,255)" stroke="rgba(107,175,188,255)" d="M0 0h300L102 63 0 0"/><path fill="rgba(166,191,198,255)" stroke="rgba(166,191,198,255)" d="M0 300V0l20 52L0 300"/><path fill="rgba(108,178,190,255)" stroke="rgba(108,178,190,255)" d="m0 0 102 63-82-11L0 0"/><path fill="rgba(167,190,198,255)" stroke="rgba(167,190,198,255)" d="M102 63 0 300 20 52l82 11"/><path fill="rgba(167,152,133,255)" stroke="rgba(167,152,133,255)" d="M300 0v300l-16-65L300 0"/><path fill="rgba(78,57,28,255)" stroke="rgba(78,57,28,255)" d="M300 300H0l284-65 16 65"/><path fill="rgba(43,39,44,255)" stroke="rgba(43,39,44,255)" d="m0 300 221-148 63 83L0 300"/><path fill="rgba(130,184,198,255)" stroke="rgba(130,184,198,255)" d="M102 63 300 0l-98 132-100-69"/><path fill="rgba(151,185,196,255)" stroke="rgba(151,185,196,255)" d="m300 0-79 152-19-20L300 0"/><path fill="rgba(68,81,87,255)" stroke="rgba(68,81,87,255)" d="M0 300 102 63l100 69L0 300"/><path fill="rgba(135,125,116,255)" stroke="rgba(135,125,116,255)" d="M221 152 0 300l202-168 19 20"/><path fill="rgba(154,184,194,255)" stroke="rgba(154,184,194,255)" d="M221 152 300 0l-26 191-53-39"/><path fill="rgba(154,187,194,255)" stroke="rgba(154,187,194,255)" d="m300 0-16 235-10-44L300 0"/><path fill="rgba(53,33,12,255)" stroke="rgba(53,33,12,255)" d="m284 235-63-83 53 39 10 44"/></g></g></svg>