<svg xmlns="http://www.w3.org/2000/svg" width="2000" height="2000" viewBox="0 0 2000 2000"><filter id="a"><feGaussianBlur stdDeviation="55"/></filter><rect width="100%" height="100%" fill="#6f807c"/><g filter="url(#a)"><g transform="translate(4 4) scale(7.8125)" fill-opacity=".5"><ellipse fill="#390600" cx="143" cy="218" rx="255" ry="60"/><ellipse fill="#90e3f9" rx="1" ry="1" transform="matrix(248.72689 56.2133 -15.45319 68.3757 151.2 51.2)"/><ellipse fill="#d5e0e3" rx="1" ry="1" transform="rotate(151.5 -1.6 61) scale(23.05521 60.45496)"/><ellipse fill="#202125" rx="1" ry="1" transform="matrix(-1.32041 16.47554 -36.26758 -2.90662 88.6 114.4)"/><ellipse fill="#2a2405" cx="36" cy="231" rx="118" ry="35"/><ellipse fill="#d3c0b6" rx="1" ry="1" transform="matrix(7.10508 20.6087 -16.51213 5.69274 138 160.6)"/><ellipse fill="#734f20" rx="1" ry="1" transform="matrix(-3.54978 64.9735 -47.35698 -2.58731 195.5 201.7)"/><ellipse fill="#b5c2c5" rx="1" ry="1" transform="rotate(-15.8 429.2 -548.2) scale(45.71707 36.49845)"/></g></g></svg>