<svg xmlns="http://www.w3.org/2000/svg" viewBox="0 0 2000 3000"><filter id="c"><feGaussianBlur stdDeviation="55" /></filter><path fill="#edcbd3" d="M0 0h1992v3000H0z"/><g filter='url(#c)' fill-opacity='.5'><ellipse fill="#a24d54" fill-opacity=".5" rx="1" ry="1" transform="matrix(-322.18973 -233.4247 288.98034 -398.87167 1022 1472.5)"/><ellipse fill="#faeaf1" fill-opacity=".5" rx="1" ry="1" transform="matrix(-17.90801 -512.8184 1979.26231 -69.11736 791.6 468)"/><path fill="#310110" fill-opacity=".5" d="M1041.4 1031.6l472.4 369.8-144.4-31-347.2-285.7z"/><path fill="#2b0024" fill-opacity=".5" d="M779.3 1599.6h351.6v58.6H779.3z"/><path fill="#491a1c" fill-opacity=".5" d="M791 1330l35.2-187.4 211-152.4z"/><ellipse fill="#653b3f" fill-opacity=".5" rx="1" ry="1" transform="matrix(71.45726 -272.37888 38.93846 10.21531 1326.4 1551)"/><path fill="#f7d2d7" fill-opacity=".5" d="M2173.8 2795l-1125-1125-1230.4 621z"/><path fill="#f9dfe3" fill-opacity=".5" d="M1347.4 1512.8l213.6-223.7 416.8-1470.7 56 3252.8z"/></g></svg>