<svg xmlns="http://www.w3.org/2000/svg" width="2000" height="3000" viewBox="0 0 2000 3000"><path d="M1245.3 905c-1.3.5-2.3 1.3-2.3 1.7.1 1.8 4 5.3 6 5.3 1 0 2 .3 1.9.8-.3 1.9.2 3.3 1 2.8.5-.3 2 .5 3.2 1.9 1.3 1.4 3.2 2.5 4.2 2.5 2.3 0 6.7 2.9 6.7 4.4 0 .6 1.4 1.7 3.2 2.5 3 1.3 3.3 1.3 5-.9 1.4-1.7 1.6-2.6.7-3.6a93.1 93.1 0 0 0-18-13 31.6 31.6 0 0 0-9.1-5.3c-.2 0-1.3.4-2.5 1m-265 49.2c-2.8 2.8-2.9 4.3-.5 5.6 2.4 1.3 1.8 8-.7 8.3-4.6.5-11 .3-10.5-.3.2-.4-.6-1-1.7-1.2-1.5-.4-2-.2-1.5.8.3.8-.3 1.6-1.2 1.9-1 .3-.5.4 1 .2 3.6-.4 4.4.9 2.4 4-1 1.3-1.2 2.4-.6 2.4.5 0 1 .6 1 1.3 0 1.5 5 6.3 6.3 6 .4-.2.7.4.7 1.2 0 .8 1.1 2 2.5 2.7 2.9 1.5 19.2 17.4 20.6 20 .6 1 1.4 1.6 1.9 1.3.5-.3 1.1.3 1.4 1.3a7 7 0 0 0 3.1 3.2c5 2.7 3.2 4.6-5 5.3-4 .4-9.3 1.1-11.7 1.7l-7.9 1.5c-2 .3-7 2.8-11.4 5.5-4.4 2.8-8.8 5-9.9 5-1 0-1.6.3-1.3.6.4.4-1.5 2-4 3.8-4.7 3-6 4-11.1 8.4-2.2 1.8-2.8 2-3 .7-.3-1.1-.6-1.2-1.6-.2-.8.6-1.1 1.8-.9 2.5.4 1 0 1-1.9.3-1.7-.6-3-.5-4.3.5-1.6 1.2-1.7 1.4-.2 1.4 1 0 1.4.5 1 1.6-.5 1.3-.8 1.3-1.5.2-.7-1-.8-1-.6.2.2.8-.2 1.6-.7 1.8-1.3.3-1.3-2.1 0-3 .6-.5.3-.8-.8-.8-1 0-1.7.5-1.7 1s-.6 1-1.3 1c-.8 0-2.2.9-3.2 2-1.6 1.8-1.6 2-.2 2 1 0 1.7.5 1.7 1 0 1.6-2.7 1.2-3.4-.6-.3-.8-1-1.2-1.7-.9-.6.5-.4 1.1.7 2 1.7 1.2 1.2 3.5-.7 3.5-1.3 0-3.3 2-4.8 4.8-1.4 2.6-3.1 3-3.1.6 0-1.3-.6-1-2.5 1-1.4 1.5-2.2 3.2-1.9 3.8.5.7.2.8-.7.3-.8-.5-1-.5-.7 0 .5.5-1.3 2.3-4 4-2.6 1.9-7 5.4-9.7 8-5.4 5-7.1 5.6-6 2.3.4-1.3 1-4.8 1.2-7.8.5-5.5.5-5.5-1.5-3.5a30 30 0 0 0-4.2 8.5 57 57 0 0 1-4.1 9.2 11 11 0 0 0-1.9 3.5 18 18 0 0 1-3.8 4.9 50 50 0 0 0-9.2 12.1c0 .5-.9 1.5-2 2.3-1.1.8-2 1.8-2 2.2 0 .4-2.5 4.3-5.5 8.5-3 4.3-6.8 10-8.4 12.8-1.6 2.8-4.7 7-7 9.7a23 23 0 0 0-4.1 5.6 13 13 0 0 1-3 4.2c-1.6 1.8-3 3.6-3 4.1 0 .5-.5.9-1 .9s-1 .6-1 1.3c0 .8-1 2.2-2 3.2a32 32 0 0 0-4.7 6.7c-1.4 2.6-3 4.8-3.5 4.8-.4 0-.8.5-.8 1a20 20 0 0 1-3 5.2c-1.7 2.3-4 6-5 8.3-4 8-4.8 9-7.7 9-2.3 0-2.8.4-2.9 2.5 0 3.9-3.1 8-4.5 6-.8-1.1-1.2-1.2-1.6-.3a2 2 0 0 1-1.8 1.3c-2 0-2.4 2.3-.7 4.3 1.4 1.6 1.4 1.9 0 3a16 16 0 0 0-3.2 4.2c-.8 1.7-1.5 2.4-1.6 1.8 0-.7-.5-1.3-1-1.3-.7 0-.9.9-.5 2.1.6 1.9.4 2.1-1.5 1.6-1.5-.4-2-.2-1.7.7.5 1.3-4.7 4-6.2 3.2-.5-.3-1.1 0-1.4.8-.3.8 0 1.7.6 2 .9.5.9.7 0 1.1-.6.3-.9 1.6-.6 2.8.4 1.8.3 2-.6.7-1-1.3-1-1.3-1.2 0 0 1-.4.7-1.1-.8-.6-1.2-1.8-2.2-2.7-2.2-1 0-.8-.5.9-1.5 2.4-1.4 2.4-1.4.3-1.5-1.2 0-2.4-.6-2.7-1.3-.5-1-.7-1-1.2 0-.3.7-1.5 1.3-2.6 1.3-1.7 0-1.8.3-.8 1.5 1 1.3 1 1.5-.8 1.5-2 0-2.3 1.4-.8 3.8.6 1 .2 1.1-1.6.7-2-.5-2.7 0-4 3-2.2 4.4-2.2 4.2.2 4.8 2.2.6 2.8-.8.8-1.6-.7-.3-.2-.6 1.1-.6a8 8 0 0 0 4.8-2.3c2-1.9 2.3-2 2.3-.4 0 1 .4 1.5.8 1.2.4-.2 1.4 0 2.2.5 1.3.7 1.2.9-.2.9-1 0-2 .5-2.4 1.2-.5.8-.2 1 1 .5 1.5-.6 1.7-.3 1.3 1.3-.3 1-.1 2.3.4 2.6.5.3.9 1 .9 1.7 0 .8-.3.8-1.2-.1a4.4 4.4 0 0 0-2.8-1.2c-1.2 0-1.1.3.3 1.1 1.4.8 1.6 1.4.6 2.5-1 1.2-1.4 1.2-2.5-.3-.7-1-1.4-1.3-1.4-.8l-.5 2.7c-.2 1 .1 2 .6 2.4 1 .6.2 2.4-1.2 2.4-.5 0-.9-.7-.9-1.5s-.4-1.5-1-1.5c-.5 0-.7.7-.4 1.5.5 1 .2 1.3-1 .9-.9-.3-1.6-.1-1.6.5s1 1.1 2 1.1c1.8 0 2 .4 1.4 2.3-.4 1.2-1 2.4-1.5 2.5-.5.2-.9 1-.9 1.9 0 1-.6 1.2-2 .8-1.6-.5-2-.2-2 1.4 0 2.1-5.8 11.1-7.2 11.1-1.3 0-1-1.2.9-3.2 1.3-1.4 1.4-2.1.5-3-1-1-1.2-1-1.2 0 0 .7-1.2 3-2.6 5.2-1.5 2.2-2.4 4.4-2 4.7.4.4 1.1 0 1.6-.7.5-.8 1.1-1.2 1.4-.9.6.5-.4 2.7-6.2 13.2-1.8 3.1-2.9 5.7-2.6 5.7.4 0 0 .7-.6 1.5-2.3 2.8.2 1.5 3-1.5 3.6-3.8 4.7-3.8 5.6.3.4 1.7.9 2.6 1.1 2 .3-.7 1.2-1.3 2-1.3 1.4 0 1.3-.3-.3-1.5-1.7-1.3-1.7-1.4-.1-1.5 1 0 1.7.5 1.7 1 0 1.9 3.9 1 5.4-1.2l1.6-2.2v2.2c0 1.5.4 2 1.1 1.6.7-.4 1-2.2.6-4.4l-.5-3.7 2.8 1c1.6.6 2.7 1.4 2.5 1.8-.3.4.6.9 2 1.1 2.6.5 3.5-.6 1.1-1.5-1.5-.6-1-5.3.7-6.4.6-.4.8 0 .4 1s-.2 1.7.3 1.7c1 0 2.5 4 2.1 6.2 0 1 .7 2 1.9 2.3 2.1.7 2.4 1.4 1.4 4-.5 1.3-.8 1.4-1.5.3-.6-.8-.9 0-.8 2.2 0 3.1.1 3.2 1 1.3.4-1.3 1.6-2.3 2.6-2.3 1.7 0 1.7.1 0 1-1 .6-1.7 1.5-1.7 2 0 1.1 5.3.8 6.2-.5.5-.6.8-.4.8.5s-.5 2.1-1.2 2.8c-1 1-1 1.2.1 1.2 1 0 1.1.3.1 1.5-.8 1-.8 1.5-.2 1.5.6 0 1.3-.6 1.5-1.3.4-.7.6-.6.6.5 0 .9-.2 1.8-.6 2-.5.3-.2.3.5.2 1.7-.5 1.5.6-.5 2.8-2 2.3-1.2 3.3 1.6 1.8 1.2-.6 2.1-.7 2.1-.1 0 .5-.6 1.2-1.3 1.4-.8.4-.9.8-.1 1.4.6.4 1.3 1.6 1.7 2.5.8 2.2 2.6 2.3 3.3.3.8-1.9 3.4-2 3.4-.1 0 .7-.9 1.6-2 1.9-1.1.3-2 1-2 1.7 0 .6.5.8 1.1.4.6-.3 1.5 0 2 .7.5.8.3 1.6-.4 2-.6.5-.8 1.2-.3 1.6.5.4 1 .2 1.3-.5.3-.6.9-1.2 1.4-1.2 1.2 0 4.1 5.9 3.4 7-.3.6.4 1 1.7 1.1 1.7.1 1.8.3.5.6-1 .2-1.7.8-1.7 1.3 0 1.6 2 2.2 3.4 1.1.7-.6 1.6-.8 2-.4.3.3 1.5-.2 2.6-1.2s2.3-1.6 2.6-1.2c1 1-.6 2.7-3.2 3.7-1.6.6-2.4 1.7-2.3 3.2 0 2.3 0 2.3 1-.2 1-2.4 1.1-2.4 1.9-.5l.7 2 .5-2c.5-1.9.6-1.9.7.2 0 1.6.6 2 2.2 1.6 1.8-.5 2-.3 1.1 1.3-1.5 3-.4 4.9 1.9 2.8 1.2-1 1.9-1.3 1.9-.5 0 .7.5 1 1 .6.5-.3 1-.1 1 .4 0 .6-.5 1.1-1 1.1s-1.9.9-3 2-2 1.5-2 1c0-.6-.5-.8-1-.5-.7.4-.9-.3-.5-2.2.5-2.6.5-2.7-.6-.5-.7 1.2-2 2.2-3.1 2.2-1 0-1.6-.5-1.3-1 1-1.7-.7-1-2.1.8-.7 1-1.3 2.8-1.3 4.2l.1 2.5 1.1-2.8c1.3-3.3 2.7-3.5 2.7-.5 0 2 .2 2 1 .6.6-1 1.7-1.5 2.5-1.2 1.1.5 1 1-.6 2.7a21.3 21.3 0 0 0-4.9 9.4c0 1.7-5 6.2-6.8 6.3-.7 0-1 .4-.8.9.3.5-.1 1.2-1 1.5-1 .4-1.3.2-.8-.6.4-.7.3-.8-.4-.4s-1.2.2-1.2-.3c0-.6-.5-1.1-1.1-1.1-.6 0-.9.7-.5 1.5.3.8-.3 1.9-1.2 2.5-1.4.8-1.5 1.1-.3 1.9.9.6 2.5.1 4.9-1.5 1.9-1.3 3.9-2.4 4.3-2.4 1.5 0 1 1.7-.6 2.4-.8.3-1.5 1.5-1.5 2.7 0 1.8-.2 2-1.5.9-1.2-1-1.9-1-2.7-.2-1 1-.7 1.2.8 1.3 1 0 1.4.3.7.5-.6.3-1 1.2-.6 2 .3.8 0 1.4-.6 1.4s-1.1-1-1.1-2c0-2 0-2-2.5-.3-1.3 1-2.5 2.4-2.5 3 0 .7-1 1.3-2.3 1.3-1.4 0-3.3 1.6-5.5 4.4-3.8 5.1-3.9 5.6-1 5 2.3-.5 2.3-.5.3 1-1 1-2.5 1.4-3.3 1.1-.7-.2-1.5.2-1.8 1-.4.8-1 1.5-1.5 1.5-1 0 .7-3.8 2.8-5.8 1.8-1.8 1.7-3.3-.2-2.6-.8.4-1.5.1-1.5-.5s.6-1.1 1.3-1.1c.8 0 .7-.3-.3-1-.8-.5-1.1-1.2-.8-1.6.4-.3 1.4 0 2.3 1 1.6 1.6 4 1.3 3-.4-1.3-2.2.8-4.2 4.2-3.8 2.6.3 3.2 0 2.8-1-.3-.7-.5-1.8-.5-2.3 0-.5-.5-.9-1-.9s-1 .7-1 1.5c0 1-1 1.5-2.4 1.5-1.6 0-2.7.7-3.1 2-.3 1.1-1 2-1.6 2-1.4 0-1.1-1.1.8-3.2 1.8-2 .4-2.5-1.5-.6-.7.7-2 1.3-3 1.3s-1.6.6-1.4 1.4c.7 3.3-3.9 9.5-8.7 11.9-2.2 1-3 1.8-2 2 .8.3 1.8 1.1 2.2 1.8.4.8 1.7 1.4 2.8 1.4 1 0 1.9.7 1.9 1.6 0 1-.6 1.3-2 1-1-.4-2.1-.2-2.5.4-.3.5-1.4 1-2.3 1-1.5 0-1.4-.3.3-1.5 1.9-1.5 1.9-1.6-.4-3.8l-2.3-2.2.7 2.3c.8 2.8-2.8 7.4-5.1 6.5-1-.4-1.2 0-.8 1.1.4 1 1.3 1.5 2.1 1.2.9-.4 1.3-.1 1 .6-.2.7-1.3 1.2-2.4 1-1.4 0-2.6 1-3.9 3.3-1 1.8-2.2 3.1-2.6 2.8-.5-.2-.4-1.1.3-1.9.8-1 .8-1.4 0-1.4-.6 0-1.1-.7-1.1-1.6 0-.9.5-1.2 1.2-.8.7.5.8.3.3-.6-.5-.8-.4-1 .3-.6.6.3 1.3.2 1.6-.3 1.4-2.2-1.6-2-4.2 0-3.2 2.8-4 5.9-1.7 5.9 1 0 1.5.6 1.3 1.3-.3.6-1 1.2-1.5 1.2a3 3 0 0 0-1.9.8c-1 1-2.5 1-2.1 0 .4-1.3-1.7-1.1-3.8.3-1 .8-1.4 1.4-.7 1.4.8 0 .6.7-.5 2-4.3 4.6-4.7 5.4-3.5 5.8 2 .6 1.3 2-.8 1.5-1-.3-1.7-1-1.4-1.4.3-.5 0-.9-.5-.9-.6 0-1.1.7-1.1 1.6 0 1-.7 1.4-1.8 1.2-2-.3-5.2 1.8-5.2 3.4 0 .6 1.1.3 2.5-.6 1.4-1 2.5-1.2 2.5-.7s-.5 1.3-1 1.6c-2.2 1.3-9 10.7-8.4 11.6.3.5 0 .9-.7.9-1 0-1 .3-.1 1.2 2 2 1.4 3.8-1 3.7-1.7-.1-1.8-.3-.6-.6 1-.2 1.5-1 1.2-1.8-.6-1.3-6.4 1-6.4 2.7 0 .3-.9.4-2 .1-1.5-.4-1.9 0-1.8 1.8.2 3 1.7 5 3 4.2.7-.4.9 0 .5 1s0 1.7 1.1 2c1 .3.5.5-1 .6-1.6 0-2.8.5-2.8 1.1 0 .5-.4 1-1 1-.5 0-.6-.8-.3-1.8.6-1.5.4-1.5-1.5.2-2.6 2.2-2.8 3-.7 2.2.8-.3 1.5-.1 1.5.3 0 1.4-2.8 2-3.3.8-.2-.7-.8-.8-1.3-.4s-.3 1.2.5 1.6c1 .7 1 1-.3 1.4-1 .4-1.6 0-1.6-1 0-1.6-.2-1.6-1-.3s-1 1.2-1-.3c0-1 .7-2 1.5-2.3.8-.4 1.5-1 1.5-1.5 0-1.7-4.8 1.4-5.4 3.5-.5 1.9-.6 2-1.8.4-1.1-1.5-1.5-1.5-2.6-.2-1 1.1-1 1.4 0 1.4s.8.4-.3 1.3a9 9 0 0 0-2.2 2.7c-.5 1.3-.6 1.3-.6 0-.1-2-2.8-2.2-3.5-.4-.3.7.2 1.8 1 2.4.8.7 1.4 1.8 1.4 2.4 0 .6-.5.4-1-.4-.8-1.3-1-1.2-1 .4 0 1-.3 1.7-.6 1.3-.4-.3-1.3 0-2 .8-2.3 2.2-4.3 1.9-3.7-.6.3-1 1.1-1.8 1.8-1.5.8.3 1.2-.8 1.3-3.2.2-3.5.1-3.5-1.4-1.4a5.7 5.7 0 0 1-3.7 2.3c-1.7.1-1.8.2-.5.6 1 .2 1.8.8 1.8 1.3s-.7.7-1.5.4c-1-.4-1.5 0-1.5 1 0 .9-.7 1.6-1.5 1.6-.9 0-2 1-2.5 2.4-1.4 3.8-3 4.1-3 .7 0-3.1-1.4-4.2-2.3-1.8-.3.7-.6.5-.6-.5-.1-1.7.9-2.2 3.5-2 1.4.3 1-4-.4-4.6-.7-.2-1.2.1-1.2.7s-.9 2-2 3c-2.1 2.2-1.7 6.3.6 5.4.8-.3 1.4 0 1.4.5 0 .6-.9 1.4-2 1.7a3 3 0 0 0-2 2.8v2.2l2-2.4c1.3-1.5 2-1.8 2-.9 0 .8-.9 2.3-2 3.3-1 1-1.8 2.2-1.7 2.9.1.6-.6 1-1.6.8-1-.2-2.5.5-3.3 1.5-1.2 1.6-1.5 1.6-2.5.3s-1-1.2-.5.3c.3 1 .1 1.7-.4 1.7-.6 0-1 .8-1 1.7 0 .9-.3 1.4-.6 1a32 32 0 0 1 2.7-12.3c.5-.6.6-1.4.2-1.7-.3-.4-.1-.7.5-.7.7 0 1.2-.5 1.2-1.1 0-.8-.5-.8-1.5.1-1.2 1-1.5 1-1.5-.4 0-1 1.1-2 2.5-2.6 3-1.1 3.1-1.8.9-3.5-1.4-1-1.5-1.5-.3-3.6l1.3-2.4.6 2.5.6 2.5.7-2.5c1-3.8.9-4.2-1.3-3.5-2.6.8-2.5-.3.2-3.2 1.6-1.7 1.8-2.3.7-2.3-2.2 0-3.9 2-3.9 4.7 0 1.3-.5 2.3-1.1 2.3-.7 0-.9 1.2-.5 3.5.6 3.2.4 3.5-3.1 5.3-2 1-4.4 1.7-5 1.5-.7-.3-1.3 0-1.3.6s.7 1.1 1.6 1.1c.8 0 1.2.5.9 1-1 1.6 1.1 1.2 2.5-.5.7-.9 1.5-1.3 1.8-1 1 1-3 4.4-4.4 3.8-.8-.3-1.4 0-1.4.6s-.7 1.1-1.6 1.1c-1 0-1.4-.6-1-1.8l1-5.5c.4-2 1.2-3.7 1.8-3.7.6 0 .8-.3.5-.7-.4-.3 0-1.6.7-2.7 1.1-1.8 1-2.9-.4-7.6-1-3-1.4-5.7-.9-5.8.5-.2.9-1.7.9-3.3 0-1.6.5-2.9 1-2.9.6 0 2-.9 3.2-2 2-2 2-2 .2-2-1.9 0-1.9 0 0-1.5 2-1.5 2-1.5 0-1.6-1.8 0-1.8 0 0-.8 1-.4 1.6-.9 1.5-1.1-.7-1.3 1.1-5 2.5-5 3 0 5.4-3.6 6-9 .2-2.8 1-5.7 1.5-6.4.6-.7.8-1.5.5-1.8-.3-.3.9-1.2 2.5-2 3-1.2 3.1-1.6 3.2-7.3a158.3 158.3 0 0 0-.2-11.6c0-2.4-.6-7.5-1.1-11.2-1-7-.7-8.7 4.7-23.7a40.8 40.8 0 0 0 2.9-13.4c-.3-.7-2.3-1-4.7-.9-2.3.2-3.6 0-3-.3.7-.3 1.3-1 1.3-1.5 0-.6-.5-.7-1-.4-.5.3-1 .2-1-.3 0-2.2-3.9-2-4.2.2-.3 1.8-.9 2-4.3 1.8-2.2-.2-4.5-.8-5.2-1.4-.7-.6-1.3-.6-1.3-.1s-.9.9-2 .9c-2.2 0-2.7-1.2-.8-1.9.7-.2-.5-.7-2.6-1.1-2.8-.5-4.2-.4-4.8.6-.7 1-.8.8-.4-.5.6-2-1.1-2.2-3.6-.3-2.2 1.6-2.5 7.6-.4 7.6.8 0 1.3 1.1 1.4 2.8l.1 6.2c.2 4.2 0 4.5-4.1 19.1-1.2 4.2-1.5 11-.5 12.5.3.6.4 2.4.2 4.1-.3 2 .1 3.3 1 3.7 1.7.6 2 3.9.5 6.7-.7 1.3-.7 1.9 0 1.9.6 0 .6.9 0 2.4-.6 1.7-.5 2.6.3 3 .9.3.9.7.1 1.3a15 15 0 0 0-2.6 7.5c.1.5-.4.8-1.2.8-1 0-1.2 1.1-1 4 .2 2.6-.1 4-1.1 4.4-.8.3-1.2 1.2-.9 2 .3 1 .1 1.6-.5 1.6s-2.4 2.6-4 5.9c-1.9 3.6-3.8 6-5 6.4-1.8.4-2 1-1.5 3.1.3 1.5.2 3.2-.4 3.9a11 11 0 0 0-1.4 4.7c-.2 2.1-.8 3.4-1.5 3.3-.7-.2-1.3.2-1.3.7 0 .5.6 1 1.3 1 .7 0 .5.6-.5 1.4-1 .7-1.8 1.8-1.8 2.5 0 .6-.5 1.1-1 1.1s-1 .7-1 1.5-.3 1.5-.8 1.5c-.4 0-.8 1.2-.9 2.7 0 1.5-.6 2.9-1.2 3.1-.6.2-1.1 1.3-1.1 2.5s-.6 3.2-1.3 4.4a86.4 86.4 0 0 0-8 15.6c-.9 3.3-5.7 11.7-6.8 11.7-.5 0-.4-1.1.1-2.6 1.3-3.2 1.3-4.4 0-4.4a1 1 0 0 0-1 1c0 2.2-4 9.6-6.7 12.6-6.9 7.5-11.5 17.7-9.8 21.7.5 1.2.1 2.5-1.2 4a7.2 7.2 0 0 0-1.7 4.5c0 1.8-.3 2.1-1.8 1.6-1-.3-1.7-.1-1.6.4.2.6-.1 1-.6.9-.8-.2-2.6 3.3-3 5.8-1 5.2-2 7.5-3.2 7.1-.7-.3-1.5.2-1.8 1-.3.8 0 1.4 1 1.4 2 0 1.8 5.6-.4 7-1.6.9-1.5 1 .3 1 1.5 0 1.7.2.6 1-.8.4-1.1 1.5-.8 2.5.4 1-.1 2.5-1.3 3.8-1.1 1.2-1.8 2.7-1.6 3.4.3.8-.2 1.3-1.4 1.3s-2 .7-2 1.6c0 1-.6 1.4-1.4 1-.8-.2-1.7.2-2 1-.3.9.1 1.4 1.2 1.4 1.6 0 1.6.1 0 1.4-2.2 1.6-2.4 3-.3 2.2 3.2-1.2-.1 8.3-3.4 9.6-2.5 1.1-2.5 1.2 1.9 1.9 4.7.7 8-1.3 8-5.1 0-.9 1-2.3 2-3.3 1.1-1 2.3-3.1 2.7-4.8.3-1.8 1.5-3.5 2.7-4 1.2-.6 3-3 4-5.5s2.5-4.8 3.2-5c.8-.4 1.4-1.5 1.4-2.5s.4-1.9.8-1.9c.5 0 1.4-1.1 2-2.5.6-1.4 1.6-2.5 2-2.5 1.6 0 2 4.8.6 5.4-.8.3-1.4 1.4-1.4 2.4a5 5 0 0 1-1.2 3c-.7.7-.8 1.2-.3 1.2.6 0 .4.4-.4 1-.9.5-1.1 1.7-.7 3.3.5 2.3.8 2.4 3.4 1.5 4.2-1.6 5.4-4.9 2.6-7.3-2.3-2-2.2-4.4 0-2.5 1 .8 1.5.6 2-.5.3-1 1-1.3 1.7-1 .6.4 1.5.1 2-.6.7-1.1 1-1 2.2.5 1.2 1.7 1.4 1.7 2 .2.4-.9 1.3-1.6 2.2-1.6 1.3 0 2-1.2 1.6-3.3 0-.4.5-.7 1.1-.8.7 0 .4-.4-.7-.9-1.9-.8-1.9-.9-.1-1 1.5 0 1.6-.3.6-1.5s-1-2 .4-4c.9-1.3 1.6-3.8 1.6-5.5 0-1.6.4-3 1-3 .5 0 .7-.7.4-1.5-.4-1 0-1.5 1-1.5 1.4 0 2-1.1 1.7-3.2 0-.4 1.5-1 3.4-1.4 2-.3 3.3-1 3-1.3-.2-.4.5-1.5 1.6-2.4 1-1 1.9-2.6 1.9-3.7 0-2.5 2-6 4.1-7.7 2.2-1.7 3.3-5.7 1.4-5-.8.4-1.7.2-2-.3-.3-.5.3-1 1.2-1.3 1.6-.4 1.6-.5-.1-.6-2-.1-2-.1 0-1.6 1.9-1.5 1.9-1.6-.1-1.4-3.7.3-5.5-.1-5.5-1.1 0-.5.7-1 1.6-1 1 0 1.4-.5 1-1.6-.5-1.2-.2-1.5 1-1 .8.3 2 .6 2.5.6.6 0 .7.5.4 1-.3.5 0 1 1 1 1.7 0 2-2.5.5-3.5-1-.7-.2-5.6 1-6.5.5-.3 1-1.6 1.1-3 .4-2.7 3.9-3 6.7-.7 1.4 1.1 3.6-1 2.6-2.5-.3-.4 0-.8.6-.8.7 0 1-.6.7-1.4-.3-.8 0-1.7.6-2 .7-.2.3-.5-.8-.5-1.7-.1-1.7-.3-.5-1.1 1.3-.8 1.2-1-.3-1-2.7 0-4.9-2.4-3.5-3.8.8-.8.8-1.5-.2-2.6-1-1.3-1-1.7.4-2.2.9-.3 1.6-1.3 1.6-2 0-.9.5-1.2 1-.9.5.3 1-.1 1-1 0-.8.7-1.8 1.6-2.2.8-.3 1.3-1.2 1-2-.3-.7-.2-1.3.3-1.3 1.1 0 6.6-11.1 6.3-12.8-.4-1.6 1.3-1.6 2.6 0 1.6 2-1.6 10.2-4.2 11.4a4 4 0 0 0-2.2 3.4c-.2 5.3-.4 6.1-1.4 5.5-.5-.3-1 0-1 1 0 .8-.6 1.5-1.3 1.5-.8 0-.7.3.3 1 .8.5 1 1.2.7 1.7-.5.4-1.2 0-1.7-.7-.8-1.3-1-1.3-1 .1 0 1 .6 2 1.4 2.2 1.9.7 3.8-1.6 3-3.6-.3-1 .2-1.7 1.4-2.1 1.4-.5 1.8-1.4 1.5-3.4-.2-2-.1-2.2.5-.9.7 1.7.9 1.7 2-.5.6-1.3 1.3-3.2 1.6-4.3.7-3-.2 8.5-1 12-.9 4.2-2.7 8.5-3.6 8.5-.5 0-.8 1.6-.8 3.6 0 2.7-.4 3.5-1.4 3-1-.3-1.6.5-2 2.6a12 12 0 0 1-2.9 5.3c-5.4 5.3-10.5 13.7-8.8 14.3 1.8.6 1.2 2.3-.6 2-1-.2-1.9.5-2.1 1.6-.2 1.1 0 1.6.7 1.2.6-.4 1.1-.3 1.1.3 0 .5-.4 1-.8 1.3-.4.1-1.9 2-3.2 4.2a18.3 18.3 0 0 0-3.2 9.3c0 .7-.7 1.4-1.5 1.7-.7.3-1.3 1.2-1.3 2 0 1-.5 1.6-1 1.6-.7 0-.9.9-.5 2 .4 1.4.1 2.2-1 2.6-1.1.5-1.5 1.4-1 3 .4 1.8.2 2.2-1 1.8-1.8-.7-2 1.8-.4 4.7.8 1.5.7 2.6-.3 4.2-.8 1.2-1.5 3.8-1.6 5.7-.4 5-6 9.3-7.5 5.8-.3-.8-.6-.5-.6.6 0 1.2-.6 1.6-1.6 1.2-1.2-.4-1.5.4-1.5 3.8 0 6.4 1.9 7.3 6 2.9 3-3.5 3.3-3.6 4.6-1.8a7 7 0 0 1 1.4 3.2c0 .7.9 1.7 2 2.3 1.4.8 2 2 2 4.5 0 2 .4 3.5.9 3.5.4 0 1.4 2.6 2 5.8 1 5.3 1.4 6 4.6 7.2 2 .8 3.5 2 3.5 2.7 0 .7.4 1.3.9 1.3s1.8 1.6 3 3.5c1.1 2 2.6 3.5 3.4 3.5.7 0 2.4 1.1 3.7 2.5 1.3 1.4 2.9 2.4 3.4 2.2.6-.2 2.5.4 4.1 1.3 1.6.9 5.3 2.2 8 2.9l9 2.2c5.7 1.4 8.5 3 8.5 4.8 0 1.4.2 1.4 1 .1 1-1.5 2.4.4 2 2.6-.5 2 .1 2.8 1 1.4.8-1.3 1-1.3 1 .1 0 1 .9 1.9 2 2.2 1.1.3 2 0 2-.5s.4-.7.8-.4c.5.3 1.6-1 2.5-3 1.8-3.7 1-4.7-1-1.4-.8 1.1-1.7 2-2.2 2-1.5 0-.7-7.4 1-9 1.3-1.2 1.5-2 .8-3-.8-1.1-1.2-1.2-1.6-.3-.3 1-.8 1-2-.2-1-1-1.1-2-.4-3.2 1-1.7 1-1.7 1 .2 0 1.4.4 1.6 1.3.7.9-.9.9-2 0-4.9-1.2-3.9-.6-5.5 2.3-5.9.8-.1 1.5.2 1.5.7 0 .5-.4.9-.9.9s-1.1.9-1.4 2c-.6 2.4 0 2.5 2 .4 1.2-1.2 1.8-1.2 2.3-.3.4.6 1.3.8 1.9.5.6-.4 1.1-.2 1.1.3 0 1.5 2.7 1.4 3.3-.2.3-.7.6-.4.6.6.1 2.2 2.1 1.3 2.1-1 0-.7-.5-1.1-1-.8-.6.3-1-.5-1-1.9s.5-2.8 1-3.1c.5-.3 1-1 1-1.6 0-.6-.5-.7-1-.4-.5.3-1-.1-1-1s-.5-1.3-1-1c-1.7 1-1.1-1.2.7-2.6 1.5-1.2 1.6-1.2 1 .3-.3 1-.4 1.8-.1 1.8 1 0 5.2-5.5 4.7-6.3-.3-.5-1.1 0-1.9 1-1.1 1.5-1.3 1.5-1.4.3 0-.9.6-2.2 1.2-2.8 1-1 1-1.5-.2-2.2-1-.7-1.1-1-.2-1 2.3 0 7.6-6.2 6-7-.8-.6-1.8 0-2.8 1.5-1 1.5-2 2.1-2.9 1.6-.9-.6 0-1.8 3-4.5 2.8-2.3 4-3.9 3.3-4.3a7.5 7.5 0 0 1-1.7-3.8c-.3-1.7-.4-2.4 0-1.8.2.7 1 1.3 1.6 1.3.8 0 .7-.4-.1-1.2-.7-.7-1.2-1.6-1.2-2.2 0-.6.5-.5 1.2.2s1.7 1.2 2.3 1.2c.5 0 .1-.7-1-1.5-1.6-1.3-1.6-1.5-.3-1.5 1.2 0 1.6-.7 1.3-2.8-.2-1.5-.2-2.1.1-1.4.5 1 1 1 2.5-.4 1-1 1.9-1.2 1.9-.6s.7.9 1.5.6c.8-.4 1.2-1 .9-1.6-.3-.5 0-1.7.9-2.6.8-1 1.7-2.4 2-3.2.4-1.1.6-1 .6.4 0 1.5.4 1.6 1.5.7 1-.9 1.5-.9 1.8 0 .2.7.8.6 1.7-.5 1.2-1.4 1-1.6-.7-1.6-1.5 0-2-.5-1.6-1.5.3-.8 1-1.3 1.7-1.2 1.1.2 1.6-2 1.8-8.3.1-2 .4-2.7.6-1.8.5 1.9 2.3 2.5 2.3.9 0-.5.2-1.6.5-2.4.7-1.6-3.5-1.8-4.8-.2-.6.6-1 .6-1.4-.3-.2-.6-1-1-1.6-.5-.7.4-.8 0-.4-1.1l.7-2.2c0-.3.5-.2 1 .1 1.4.9 1.3-1.1-.2-3.5-1.3-2.1.4-5.2 2-3.5.4.4.2 1-.5 1.2-1 .4-1 .7 0 1.8.7.7 1.4 1 1.7.6a27 27 0 0 1 9.2-5.1c2 0 4.9-2.3 5.1-4 .2-.8.9-2.4 1.6-3.5 1.1-1.8 1.2-1.8.6.8-.4 1.9-.2 2.6.5 2.2.5-.3 1-1.8 1.1-3.3 0-1.7.3-2 .6-1 .5 1.8 2.3 2.5 2.3 1 0-1.6 6.3-3.8 6.7-2.5.3.7 1 1 1.9.6 2.3-.8 1.6-2.3-1.1-2.3-1.4 0-2.5-.5-2.5-1 0-.6.5-.8 1-.5.5.3 1 .1 1-.4 0-.6-.4-1.1-1-1.1-1.7 0 0-2.5 3.3-4.8 4.7-3.1 5.8-2.7 2 .7-1.8 1.6-3.3 3.4-3.3 4 0 1.5 1 1.4 2.4-.3a8 8 0 0 1 3.4-2.1c2-.6 2.3-.4 1.8 1.3-.6 1.7-.3 2 1.4 1.5 1.1-.3 2.3-1 2.6-1.4a2 2 0 0 1 1.5-.9c.6 0 .7.6.2 1.3-.4.6-.6 2-.4 3a4 4 0 0 1-1.6 3.2c-1 .8-1.4 1.7-1 2.2.6.4 1.2.2 1.4-.5a2 2 0 0 1 1.8-1.2c.7 0 1.6-.6 1.8-1.3.4-.9.6-1 .6 0 0 .7.8 1 1.6.7 1.8-.7 2 .7.3 2.4-.7.7-.8 1.2-.3 1.2.6 0 .3.5-.5 1.1-1.3 1-1.2 1 .3.5 1-.3 1.7-.1 1.7.4 0 .6-.5 1-1 1s-1 .8-1 1.8-.3 2.2-.7 2.6c-1.9 1.8-2 12.5-.2 13.7.9.6 1 1.2.4 1.7-.5.4-1 1.2-1.2 1.7a21 21 0 0 1-.9 3c-.5 1.3-.4 1.6.4 1.1.7-.4 1.2 0 1.2 1s.5 1.4 1.4 1.1c1.5-.6 2 4.9.5 5.9-.5.3-.6 1-.2 1.7.4.6.8 2.7 1 4.7l.6 6c.2 2-.3 2.6-2.6 2.8-1.5.2-2.5.7-2.2 1.2.3.5 1.1.8 1.8.6.7-.1.9 0 .4.1-.4.3-.4 1 0 1.6.4.6.8 1.8.9 2.7 0 .8.5 2.3.9 3.3.5 1.2.2 1.7-1 1.7-1 0-2-.9-2.2-2-.3-1-1-1.7-1.4-1.4-1.4.9-1 4.1.6 4.8.8.3 1.5 1.2 1.5 2s.7 2.2 1.6 3c.9 1 1 1.6.4 1.6-.7 0-.9.8-.5 2 .3 1 0 3-1 4.3-1.5 2.3-1.4 2.5.5 3 2 .5 2.9 2.7 1.2 2.7-.5 0-1 1.4-1 3 0 1.8-.6 3.8-1.3 4.6-.9 1-.9 1.4.1 1.4s1 .4 0 1.6c-1.1 1.3-1.1 1.7 0 2.4 1.2.7 1.2 1.2.2 2.2-1.4 1.4-1.6 3.2-.2 2.3 1.6-1 1.1 3.7-.5 4.9-.8.6-1.6 2.8-1.7 4.8-.2 2-.9 4-1.5 4.2-.7.3-1 1.2-.7 2 .3.7-.2 1.6-1.1 2-.9.3-1.3 1-1 1.6.3.6-.2 1.8-1.1 2.8-1.8 1.7-2 1.8-5 2-1.2.2-1.3.5-.2 1.6.8.9 1.7 1 2.3.5 1.7-1.7 2.4-.9 2 2.7-.4 4.5-1.5 5.7-1.6 1.8 0-1.7-.3-2.2-.6-1.2-.2 1-.9 1.8-1.4 1.8-.6 0-.8-1-.4-2.3.6-2.2.6-2.2-1-.2-.9 1.1-1.9 3.2-2.2 4.7-.3 1.6-1 2.5-1.6 2.1-.6-.4-.8 0-.5.8.3.8 0 2.6-.8 4-.8 1.5-1.4 1.8-1.4.9 0-1.2-.4-1.1-1.5.3-.7 1-1 2.6-.8 3.5.4 1 .2 1.3-.5.8-.7-.4-1.2-.2-1.2.4 0 .6-.4.9-.9.6-.5-.3-1.2.1-1.5 1-.4 1-1 1.4-1.3 1-.3-.3 0-1.2.6-2 .9-1 .7-1.5-1-1.9-1.5-.4-1.9-.2-1.4 1.2.6 2-3 5.8-4 4.2-.3-.5.2-1.4 1-1.9 1.6-.8 1.6-1 0-3-1.4-1.6-2.2-1.9-3.2-1-1 .8-1.3.6-1.3-.6 0-.9-.5-1.6-1-1.6s-1 1-1 2.4c0 2-.4 2.3-2 1.9-1.3-.4-2-1.4-2-3 0-1.3.4-2.2 1-1.8.5.3.6 1.3.3 2.3-.5 1.3-.3 1.5.7.5 1.7-1.6.5-4.5-1.7-4.1-1.1.2-2 1.4-2.1 3-.2 1.6-.8 2.6-1.3 2.3-.5-.4-.9-.1-.9.4 0 .6.7 1.1 1.6 1.1.9 0 1.4.8 1.3 1.8-.4 4.5 0 5.3 2.2 4.1 2-1 2.2-1 1.6 2-.4 2-.3 3 .3 2.6.6-.4.6.3 0 2-.6 1.5-1 4-1 5.6 0 1.6-.5 2.9-1 2.9-.6 0-.8-.5-.4-1.2.5-.8.2-1-1-.5-.9.4-1.6.2-1.6-.4 0-.6-.6-.9-1.3-.6-.6.2-1 1.1-1 2 .2.8-.1 1.8-.7 2.2-1 .6-1.4-.8-1-2.8 0-.5-.7-.7-1.7-.5-1 .2-2.3-.3-3-1.2-1-1.3-1.2-1.2-1.3.7 0 1.2.6 2.8 1.3 3.5.8.6 1.1 2.2 1 3.5-.4 1.6 0 2.3 1 2.3 1.1 0 1.4.5 1 1.7-.4 1-.2 1.4.5 1 1.4-1 2.7 3.2 1.4 4.5-.7.7-1.5.4-2.4-1-1.5-2.6-2.8-2.8-2.8-.7 0 .8.5 1.5 1 1.5.6 0 .8.5.5 1-.3.5.3 1 1.4 1 2.1 0 2.8 1.4 1.2 2.4-1.2.8-2 4.6-1 4.6.5 0 1-.8 1-1.8s.3-1.2.6-.5c.2.7 1 1.3 1.7 1.3s2.4 1 3.8 2.4c1.8 1.6 3 2 4.1 1.4 1-.5 2.9-.2 5.2 1 3.4 1.6 3.6 2 3.3 6-.2 2.3 0 4.2.5 4.2s.5.5.1 1.2c-.5.7-.2 1 .8.6.8-.4 2 .2 2.6 1.3.7 1 1.5 1.8 2 1.7 2.8-.8 5 1.4 4.2 4.2-.5 1.8-.5 3 0 3 1 0 5 5.8 5 7.2 0 .4-.7.5-1.5.2-1-.4-1.5 0-1.5 1 0 .9-.5 1.6-1 1.6a1 1 0 0 0-1 1c0 .5.7 1 1.5 1s1.5.5 1.5 1 .6 1 1.4 1c1.7 0 3.1 3.3 1.7 3.8-.6.2-1.1.8-1.1 1.4 0 .6.7.8 1.5.4 1-.3 1.5 0 1.5 1 0 .8.5 1.2 1 .9.5-.3 1-.1 1 .4 0 .6.7 1.1 1.5 1.1s1.5.6 1.5 1.4c0 2.4 2.6 3.9 5 2.6 1.2-.7 2-.7 2 0 0 1.5 8.6 7 12.2 7.7 1.8.3 3.7 1.2 4.1 2a3 3 0 0 0 2.3 1.3c.7 0 1.4.4 1.4 1 0 .4 1.6 1.4 3.4 2 2.2.7 3.3 1.6 3 2.4-.4 1 .3 1.3 2 1 1.5-.1 2.4.1 2.1.5-.2.4.2.8 1 .8s1.5-.7 1.6-1.6c0-1 .4-.8 1 .7.4 1.2 1.5 2.2 2.4 2.2.8 0 1.5.5 1.5 1s1 1 2.1 1c1.5 0 2 .5 1.5 1.5-.8 2.2.3 1.8 2.6-.8l2-2.2-.6 2.8c-.5 2.2-.3 2.7 1.4 2.7 1 0 2 .5 2 1s-.4 1-1 1c-.5 0-.7.8-.3 1.8 1 3 3.5 5.2 5.7 5 1.5 0 1.6-.2.5-.5-2.3-.6-4.3-5.2-3-6.8.6-.6.8-1.5.4-1.8-.3-.4 0-.7.7-.7s1-.3.7-.6c-.4-.4.2-1.5 1.3-2.4 1.7-1.5 1.8-1.9.6-2.3-.9-.4-1.7.1-2 1.1-.6 1.8-4.5 4.7-5.3 3.9-.2-.3 0-1.4.6-2.6 1.2-2.1 0-3.8-1.9-2.6-1.8 1.1-1-1 1.5-3.8 2.1-2.4 2.7-2.6 4.5-1.5 1.1.7 1.8 1.9 1.5 2.5-.2.7 0 1.3.5 1.3 1.8 0 1-3.5-1-4.8-1.5-1-1.8-1.9-1.4-4.2.4-2 .2-3-.5-3s-1 .4-.7.9c.3.5 0 1.4-.8 2-1 .9-1.5.8-2-.3-.2-.8 0-1.7.7-2 .9-.3.8-.7-.2-1.4-1-.8-1-1.4.4-3.5a15 15 0 0 0 2-4.9l1-4.5c.5-1.5.3-2.3-.4-2.3-.6 0-1.1.5-1.1 1 0 1.4-1.3 1.2-3.6-.6-1.8-1.5-1.8-1.5.3-.9 1.8.5 2.4.1 2.9-2l.6-2.6 2.5 3.6c1.3 2 2.9 3.3 3.5 2.9.7-.4.5-1-.6-1.6-1.3-.7-1.3-1.2-.3-2.2.9-1 1.4-1 2-.2.5.8.7.7.7-.2 0-1.8-6.3-7.2-7.8-6.7-1.4.5-1.5-.4-.3-2.4.7-1.1 1.4-.8 3.5 1.4 4.7 5.1 8.2 4 7-2.1-.6-3.4-.8-3.6-2-1.9-1.3 1.8-1.4 1.7-1.5-.6-.2-3.6.1-5.3 1.3-6.4.6-.7.7 0 .2 2-.7 2.7-.6 2.9 1 1.6 1.4-1.2 1.6-1.1 1.6.2 0 1 .6 1.4 1.5 1 1-.3 1.6.4 2 2.2.6 2 1 2.3 1.6 1.3 1-1.7 1.2-4 .1-3.4-.4.2-.8-.4-.8-1.5s.7-1.9 1.7-1.9 1.6.6 1.5 1.4c-.3 3.6 2.5 1.6 3.8-2.7.3-1 1.3-1.7 2.3-1.7 1.7 0 1.7.1 0 1-2 1.3-2.2 3-.2 3 .8 0 1.5-.7 1.5-1.6 0-1 .5-1.4 1.7-1 1.7.7 4.7-1.9 4.9-4.2.3-3.6.5-4.2 1.3-4.2.5 0 .5 1.5.1 3.5-1 4 .6 4.9 1.6.9.5-2.1.9-2.3 1.5-1.1 1.5 2.6 0 4.7-3.5 4.7-2.8 0-3 .2-1.4 1.4 1 .7 1.5 1.6 1 2-.3.3.3.5 1.4.3 1-.1 2-.7 2.2-1.2 1.2-3.5 4.2-4.6 3.5-1.3l-.5 2.3 2.1-2.3c1.4-1.6 2.7-2.2 4-1.7 1.3.4 2.1.2 2.1-.5 0-.6.8-.9 1.8-.6 1.2.4 2.3-.3 3.4-2.2 1.7-2.6 1.7-2.6 1.8-.4 0 1.3-.7 3.6-1.5 5.3-1.2 2.2-1.3 2.9-.3 2.9.7 0 2-1.5 2.8-3.3 1-2.4 1.5-2.7 1.8-1.4.2 1 .7 1.5 1.2 1.2.5-.3.7-1.2.3-2-.3-.9 0-2.2.7-3 1-1.2 1-1.5-.1-1.5-2.3 0 1.2-2 3.5-2 2 0 2 0 .1 1.3-1.2 1-1.4 1.6-.7 2.1.7.4 1.2 1.7 1.2 3 0 2 .1 2 1.5.2a13 13 0 0 0 1.8-3c.2-.6.8-.8 1.2-.4.4.4.2 1.4-.4 2.2-.8 1-.9 1.6-.2 2 .6.4 1.3-.4 1.7-1.8a4.5 4.5 0 0 1 2.5-3c1.4-.3 1.7-1 1.2-2.3-.6-1.6-.5-1.6 1-.4 1 .7 1.7 2 1.7 2.8 0 2 2.3 1 3.6-1.6 1-1.8 1.3-2 1.7-.7.4 1 1.3 1.3 2.3 1 1.1-.5 1.5-.4 1 .4-.3.6-.3 1.3.2 1.6 1 .6 3.7-1 3.8-2.4l.3-2c0-.5.5-1 1-1 .6 0 .8.9.6 2-.5 2.7 1.3 3.5 3.4 1.6 2.5-2.3 3.2-2 2.5.9-.5 2-.2 2.5 1 2.5 1 0 1.4-.5 1.1-1-.7-1 1.1-1.4 6-1.1 1.5 0 3.2-.4 3.7-1.1.6-1 .8-1 .8 0 0 .6.7 1.2 1.5 1.2s1.5-.9 1.5-2 .5-2 1-2c.6 0 1 .7.8 1.6-.2 1 .3 1.9 1 2.1.6.3 1.2 0 1.2-.7s.5-.7 1.4.2c.8.7 1.2 1.6 1 2-.3.5-.2 1.4.3 2 .5.9 1 .3 1.3-1.6.3-1.6 1.1-3.1 1.9-3.4.8-.3 1.1 0 .7.6-.4.7.8.9 3.8.6 4.3-.5 4.4-.4 4.2 2-.4 3.2 1.8 3 2.2-.2.2-1.3 1-2.2 2-2.2s2.3-.5 2.9-1.1c.8-.8 1.3-.5 1.8 1 .9 2.8 2.8 2.7 2-.2-.5-1.9-.4-2 .7-.7 1.6 1.9 6 2.2 5.4.4-.3-.7.2-1.5 1-1.8.8-.3 1.4 0 1.4.8 0 2.7 2.8 4 4.7 2 1-1 1.8-1.3 2-.5.3.6 1.1 1.1 1.9 1.1.7 0 1.6 1 2 2.4l.6 2.4 2.4-2c1.3-1.2 2.4-3 2.4-4s.5-1.8 1-1.8c.7 0 .9.8.6 1.8-.3 1-.1 2.4.4 3.2.5.8 1 1.2 1.1.8 0-.5.3-1.3.4-1.8l.4-2.5c0-.8.7-1.5 1.5-1.5 2.1 0 4.5 3.8 4 6.3-.5 2-.4 2 .6.4.7-1 1-3.2.6-4.8-.3-1.9-.2-2.8.4-2.4.6.3 1 0 1-.7.1-.7.5-.3 1 1 1.4 3.3 3.5 2.2 3.5-1.6-.1-3.2.5-3.9 1.9-2.5 1 1 5 1 5.8-.2.5-.6.8-.3.8.7s.5 2 1.1 2.4c.8.4.9 0 .4-1.5-.8-2.7.3-2.7 2.7.1 2 2.4 9.6 2.8 11 .6.3-.6.8-.3 1 .8.5 1.7.6 1.7.7.2.1-2 1.6-2.4 2.6-.8 1 1.5 2.5 1.2 2.5-.5s1.6-2 2.5-.5c.7 1.2 3.6.1 5.3-2 1.1-1.3 1.2-1.3 1 .5-.3 1.7.2 2 3.6 1.9 2-.1 4.2-.7 4.6-1.3.4-.7 2.2-1 4.2-.8 3 .3 3.8 0 4.8-1.8s2-2.3 5.1-2.1c2.2 0 3.9-.3 3.9-.7 0-1.5 3-3.8 4-3.2.5.3 1 1.4 1 2.3 0 1.5.2 1.5 1.1.2 1-1.3 1-1.2.5.3-.7 2 1.2 2.3 2 .2.3-.8 1.4-1.7 2.4-2 1.1-.3 1.6-1.2 1.3-2.3-.3-1.5.2-1.7 3.8-1.5 2.3.1 5-.4 6.4-1.3 1.2-.8 3-1.2 3.9-.8 1 .4 1.6.1 1.6-.6s.7-1 1.5-.6c.8.3 1.8 0 2.2-.8 1.2-1.8 6.7-3.8 10.7-3.8 2 0 3.6-.4 3.6-.8 0-.7 2.2-1.7 5.5-2.5.5 0 2.7-.3 4.9-.3 3.1-.2 3.6-.5 2.7-1.6-1-1-.5-1.5 2-2 1.6-.3 2.8-1 2.5-1.5-.5-.8 2-1.9 6.9-2.8 1-.2 2.3-.9 2.7-1.6.6-1 1-1 1.7.1s1 1.1 2.2 0c1.7-1.7 5.9-3 5.9-1.8 0 1.3 4.3.7 5.9-.8.7-.7 2-1 2.7-.8.8.3 1.4 0 1.4-.9s.6-1.2 1.5-.9c.9.4 2.3-.3 3.3-1.4 2.7-3.3 7.2-4 7.2-1.2 0 2 .1 2 1.6.6.8-.9 2-1.6 2.5-1.6.6 0 .7-.5.4-1-.3-.5 0-1 .6-1 .7 0 2.1-.8 3.2-1.8 2-1.7 2-1.6 1.3 1-.6 2.7.3 3.4 3.7 3 .4-.1.7.5.7 1.3s.4 1.5 1 1.5c.5 0 .7-.7.4-1.5-.4-1 0-1.5 1-1.5s1.3.6 1 1.5c-.4.8-.1 1.5.5 1.5s1.1-.6 1.1-1.3c0-.8.4-.7 1 .3 1.2 1.8 1.3 3.3.2 2.6-.4-.2-1.4 0-2.2.5-2.2 1.4.7 3 4.3 2.4 2.6-.5 3.7.8 1.7 2-.5.3-1 1.3-1 2 0 .9.5 1.5 1 1.5s1-.7 1-1.5.5-1.5 1-1.5 1 .5 1 1.1c0 .6.7.9 1.5.6.8-.4 1.7-.2 2 .3.6.9-.8 1.4-2.7 1.1-.4 0-1.2.8-1.8 2-1.2 2.1 0 2.6 1.8.7 1-1 1.2-1 1.2 0 0 .9.7 1.1 2 .7 1.1-.4 2-.2 2 .4 0 .6-.5 1.1-1 1.1s-1 1-1 2.3c-.1 2-.2 2-1 .2-.4-1.3-.7-.5-.7 2.8-.1 4.7 1.3 6.6 1.9 2.5.2-1.2 1-2.3 1.7-2.6 1-.3 1.1.1.7 1.6-.7 2.2 2.3 4 4.4 2.7.7-.4.9.2.5 1.7-.3 1.3 0 3.1 1 4.3 1.4 2 1.4 2 1.5-.3 0-1.2.4-2.2.8-2.2 1.5 0 .6 4.5-.9 4.6l-2.4.3c-.5 0 .1 1 1.5 2.1 1.6 1.2 2 2 1 2s-1.1.3-.2 1.2a5 5 0 0 1 1.2 3c0 1.2.5 1.8 1.3 1.5.6-.2 1-1.1 1-2-.3-1.1.1-1.5 1.2-1 1 .3 1.3 1.4 1 3.2-.3 1.4-.2 2 0 1.3 1.4-2.7 2.2-1 1.4 3-1.1 6-1.2 5.8 1.3 6 1.4 0 1.7.2.8.5-2.2.5-4.4 6.4-2.8 7.4.7.4 2 .3 3-.2 1.2-.7 1.8-.6 1.8.1 0 .6.5.8 1 .5.6-.4 1 .6 1 2.4 0 1.6-.5 3.3-1 3.6-.5.3-1 1.3-1 2.1s.4 1.3.9 1c.5-.3 1.4.1 2.1 1a3 3 0 0 0 3 .9c1.4-.5 1.7-.1 1.3 1.4-.3 1.2-1 1.7-1.9 1.4-.8-.3-1.4 0-1.4.7 0 .6.4.9.9.6.8-.5 2.1 1.5 2.1 3.3 0 .4-1.1 1.3-2.5 2-1.4.5-2.5 1.5-2.5 2.1 0 .6.5.8 1 .5.5-.3 1-.1 1 .4 0 .6-.8 1.1-1.8 1.1-1.3 0-1.4.2-.4.9 1.1.7 1 1-.2 1.4-.9.4-1.6 1.5-1.6 2.6s-.6 1.9-1.3 1.7c-.6-.1-.9 0-.5.1.5.3.8 1 .8 1.4 0 .6-.5.7-1 .4-1.2-.7-4.2 2-3.3 2.9.4.3-.3 1.5-1.5 2.6-1.1 1-2.3 1.6-2.7 1-.3-.4 0-1 .7-1.3.9-.4.7-.6-.3-.6a4 4 0 0 0-2.9 1.4c-.7.8-2 1.5-2.7 1.5-.8 0-1.3.6-1 1.3.2.6-.4 2-1.4 3.1-1.9 2-1.9 2-2-.5 0-1.7-.2-2-.8-1-.5.7-.6 2.1-.4 3.1.7 2.6-1.6 3.5-3.2 1.3-1.3-1.7-1.4-1.7-3.7.5a8.6 8.6 0 0 1-5.6 2.2c-1.8 0-3.2.5-3.2 1 0 .7-.9.9-2 .5s-2-.2-2 .4c0 .6-.7 1.1-1.6 1.1-.8 0-1.2.5-.9 1 .4.6.3 1-.2 1-1.8-.4-3.6 0-3 .7.8.8-5.6 3.4-9.3 3.8l-3.2.4c-.4 0-.5 1-.3 2.2.3 1.5 0 2-1 1.5-1-.3-1.3-.2-1 .4.7 1.2-5.8 3-8.5 2.3-1.2-.3-2 0-2 .7 0 .8-1 1-2.7.7-1.8-.3-3.1 0-4 1.1-1 1.4-1.5 1.5-3.3.4-1.7-1-2-1-2 0 .5 3.2 0 4.4-1 2.8-.5-.8-1-1-1-.4 0 .7-.9 1.4-2 1.7-1.3.3-2 0-2-1 0-.8-.5-1.1-1-.8-.7.4-.9 1.3-.6 2.1.3.8 0 1.4-.9 1.4-.8 0-3 .9-4.9 2-1.9 1-3.7 1.6-4.2 1.2-.4-.4-.4 0 0 .7.6 1 .5 1.2-.2.7-.7-.4-1.2-.3-1.2.2s-1.4 2.3-3 4c-3 2.9-3 2.9-1 4.7 2.3 2 2.8 4.4.5 2.5-1-.9-1.5-.9-1.5-.1 0 .6.5 1.1 1 1.1.6 0 .9.4.6 1-.4.4 0 1 .6 1.3.7.3.2.6-1 .6-1.7 0-2.2.5-1.8 1.6 1.1 3-.5 4.7-4 4-2.1-.3-3.4-.2-3.4.5 0 1 2 1.4 4.8 1 .6 0 1.2.6 1.2 1.3 0 .8 1 2.1 2.3 3 1.8 1.2 2 1.8 1 2.8-1 1-1.3 1-1.3-.4 0-3.3-3-1.8-3 1.5-.1 1.8-.4 2.7-.7 2-.2-.6-.9-1.2-1.4-1.2-.4 0-.6.7-.3 1.5.4.8 1.3 1.5 2.2 1.5 1.2 0 1.3.3.4 1.2-1 1-1.5 1-2.4 0-2-2-2.8-1.3-1.6 1.3.6 1.4 1.7 2.5 2.5 2.5.7 0 1.3.9 1.3 2s-.4 2-.9 2c-2.1 0-5.7 4.7-5.9 8-.1 1.9-.6 3.7-1 4-.4.3-1.3 1.5-2 2.8-1.2 2.1-1 2.2 2.7 2.2 4.1 0 5.9-1.3 6.4-4.8.2-1.2 1.3-3.2 2.5-4.5 1.2-1.3 2.2-2.9 2.2-3.5 0-.7.6-1.2 1.4-1.2 2.8 0 8.9-6.7 8.3-9.2-.4-1.3-.2-3 .3-3.8.7-1 1-1 1-.3 0 .8 1.5 1.3 4 1.3 2.9 0 4-.4 4-1.5 0-.8.9-1.5 2-1.5s2-.4 2-1c0-.5 2-.9 4.4-.8 3 .2 4.9-.3 6.2-1.7 1.9-1.8 2-1.8 2.2.5.4 2.6 2.7 6.6 5.2 9.1.9.9 2.2 4.2 3 7.3 1.8 7.7 7.4 13.5 12.3 12.7.8-.1 2.7 1.3 6 4.5 1.2 1.2 3.2 2.4 4.5 2.8 1.2.4 2.2 1.4 2.2 2.3 0 1 .6 1.3 1.5 1 .8-.4 1.7-.2 2 .3.3.5 2 1 3.8 1 5.3 0 6.7.3 6.7 1.2 0 .4.5.8 1 .8s.9-.5.8-1.1c-.2-.6.3-1.4 1-1.6.6-.3 1.2.2 1.2 1 0 1.1 1.5 1.4 7 1.3 3.8 0 7 .2 7 .6 0 .5.9.8 2 .8 2 0 3.4 1.2 6 4.9 1 1.3 2 1.9 3.2 1.5 1-.3 1.8-.1 1.8.4 0 .6.9.8 1.9.5 3.4-.9-.5-6-5.6-7.4-2.4-.6-4-1.5-3.7-2 .8-1.4-4.6-7.9-7.2-8.5-1.3-.3-2.4-1-2.4-1.6 0-.6-1.3-.8-3.3-.4-2.6.5-3.8.1-6-1.9a11 11 0 0 0-3.4-2.5 15 15 0 0 1-4.2-3c-2.1-2-3.7-2.8-4.5-2.2-1 .7-3 .8-7.8.3-.5 0-.8-.7-.8-1.5a4 4 0 0 0-1.3-2.5 12 12 0 0 1-2.6-5c-.6-2.3-1.6-4.1-2-4.1-.6 0-1.2-.9-1.6-1.9-.3-1-1.6-2.2-3-2.5-4-1-13.2-17.2-14.7-25.8-.6-3.2-1.4-5.5-1.9-5.2-1.1.7-4.9-1.4-4.9-2.7 0-.6.5-.7 1.2-.3.8.5 1 .2.5-1-.8-2 1-5 2.4-4 .5.3.9.1.9-.4s.6-.9 1.3-1c.6 0 3.5-.5 6.2-1.2l6.3-1.2c.6 0 1.2-.5 1.2-1s.6-.8 1.3-.7c2 .4 6.5-1.2 7.7-2.6.6-.8 1.8-1.1 2.5-.9 1 .4 1.2 0 .8-1.4-.6-2.4 1.9-4 7.4-4.7 3.7-.5 13.3-3.5 14.3-4.5s4.5-.8 5.2.3c.5.8.8.6.8-.5 0-1.7 1.6-2.3 4.8-1.9.6.1 1.2-.3 1.2-.8 0-.7 1.9-1 4.8-.7 3.3.3 4.1.2 2.7-.5-1.4-.6-1-.7 1.6-.3 2.5.4 4 .2 4.5-.8.9-1.3 2.6-1.8 7.2-2 1.2 0 2.2-.3 2.2-.7 0-.4.9-.8 2-.9 4.3-.4 5-.6 5-1.3 0-.4 1.6-1 3.7-1.4 2-.3 5.9-1.7 8.6-3 2.8-1.4 6.5-2.5 8.2-2.5a11 11 0 0 0 5.3-1.6c1.3-.9 5-2.2 8.3-3 3.3-.8 8.1-2.4 10.7-3.6a47 47 0 0 1 8.2-2.8c2.1-.4 3.4-1.1 3.2-2-.2-.9.4-1 2.2-.6 3.4.8 6.8-.6 10.7-4.7 1.9-1.9 4.4-3.8 5.7-4.1 1.2-.4 2.2-1.2 2.2-1.8 0-.6 1-.8 2.2-.5 1.2.4 2.8.1 3.6-.5 1-.9 1.6-.8 2.2.2.7 1.2 1.3 1 3.3-.8a8.7 8.7 0 0 1 5-2.2c4.2 0 3.7-4-.7-6.4-3.2-1.7-5.5-6.1-4.7-9 .1-.5-.2-1.2-.6-1.5a9.7 9.7 0 0 1-1.8-2.5c-.6-1-3.3-2.6-6-3.4-6.3-2-6-1.6-4-5 1.8-3 1.8-3.2 0-7.7-1.7-4.7-1.7-4.8.5-9.6 1.3-2.7 2.8-5 3.4-5a26 26 0 0 0 7.6-1.5c.3-.3.6-4.2.6-8.7.1-9 1.6-15 6.3-24.7a46 46 0 0 0 3.1-7.6c0-1.3 8.2-10.2 11.5-12.5 2.2-1.5 8.1-8.2 10.5-11.8 2.9-4.4 18.2-24.6 20.6-27.1 3.7-4 5.2-10.6 4.7-20.7a52 52 0 0 1 5.7-26.8c3.1-6.5 4.4-21.1 2.1-24.4a99.8 99.8 0 0 1-7.8-17.6c-.3-1.1-1.4-3.2-2.5-4.7-1-1.5-1.8-4.3-1.8-6.8 0-3.5-.3-4.1-1.7-3.6-1 .4-3-.4-5.2-2.2-2-1.6-4.7-3.5-6-4.2-1.5-.7-4.2-2.8-6-4.6l-3.6-3.4v-11.2c0-6.2.7-15.1 1.5-19.8a73 73 0 0 0 1.2-9.3c-.3-1 6-4.7 7-4.1.3.2 1 0 1.3-.6.3-.5 1.4-1 2.3-1 2.4 0 8.6-6.7 7-7.4-1.8-.7 2-3.6 3.8-3 .8.4 1.7-.1 2-1 .3-.9 1.2-1.6 1.8-1.6 1.8 0 6.6-2.4 6.6-3.3 0-.4 1.5-.7 3.4-.7 5.4 0 9.6-1.1 9.6-2.6 0-.8.8-1.4 1.7-1.4.9 0 1.4-.2 1-.5-.6-.8 2.8-13.8 4.4-16.3.9-1.4 2.6-2.2 4.8-2.4 3.1-.3 3.8-.9 6.1-5.3 2-4 3.2-5 5.4-5.3 1.5-.2 4-1.3 5.4-2.5a138 138 0 0 0 14.3-14.7c1.2-1.7 2.8-2 10.9-2.4 14.3-.7 21-2.3 21-5.3 0-.7.5-1.3 1-1.3s1-.6 1-1.4c0-.8 1.5-1.6 3.6-2 2-.2 4.3-1.4 5.3-2.5 1-1 3.3-2.2 5.3-2.6 6.6-1.3 7.5-2.5 5.4-7.6l-2.6-6.4c-1-2.7-2.4-6.2-4.4-10.7a20 20 0 0 1-1.6-4.8c0-.7-1.3-2.9-2.9-4.9-2.4-3-3.4-7.4-2.1-8.8.2-.3.3-4.4.1-6.3 0-.5-.6-.9-1.1-.8-.6.2-1.2-2.3-1.4-6-.2-3.4 0-6.2.4-6.2.5 0 1.1-.8 1.5-1.9.7-2.3 7.5-3.7 8.8-1.8.5.7.7.3.3-1.3a26 26 0 0 1-.6-3.3c0-.4-.5-.7-1-.7-.6 0-.8.5-.5 1 .3.5 0 1-.9 1-.8 0-1.8-.5-2.1-1-.3-.5.1-1 1-1 1.5 0 1.5-.3.5-1.5-.7-.9-1-1.8-.8-2 1-1 3.8.7 3.8 2.2 0 1 .7 1.4 2 1 1.2-.3 2 .1 2.3 1.4.3 1.1 1.1 1.8 1.8 1.7.9-.2 1.3.7 1.3 2.5 0 1.5.3 2.7.7 2.7.5 0 .9-.4.9-1 0-1 2.8-.9 4.7.3.6.4 1.4.1 1.6-.5.4-1 .7-1 1.5 0 1.6 2.3 2.2-1 .9-5.1-.9-2.7-1.6-3.5-2.8-3.2-1 .3-1.7 0-1.6-.7.1-3.5-.5-4.8-2-4.8-2.1 0-4.8-2.8-4.8-5 0-.8-.7-1.4-1.6-1.2-1 .1-2.4-.9-3.2-2.2-1.1-1.6-2.3-2.3-3.6-2-1.3.4-2.3-.1-3-1.5-.7-1.2-1.6-2-2-1.6-.6.3-1-.3-.9-1.2.1-1-.4-3.5-1.1-5.6-.9-2.6-1-4.2-.3-4.9 1-1-.6-5.8-2-5.8-1.3 0-1.8 1.9-.8 2.5 1 .7-1.5 3.4-3.2 3.5-1 0-.6-4.3.5-5.8.6-.8.6-1.2-.2-1.2-.6 0 .4-1.4 2.1-3 2.8-2.7 3-3.4 2-5-.7-1.1-1.2-3.6-1.2-5.5 0-2.8-.4-3.5-2-3.5-1.1 0-2-.7-2-1.5s-.6-1.5-1.4-1.5c-.7 0-1.6-1-2-2.1-.2-1.2-1-1.8-1.5-1.4-.6.3-1.1.1-1.1-.4 0-.6.8-1.1 1.8-1.2 1 0 .8-.4-.8-.8-1.4-.4-2.5-1.3-2.6-2.1-.1-4.2-6.5-7-7.8-3.4-.3.7-1.4 1-2.5.7-2.9-.7-2.2-5.8.8-5.7 2.5 0 2.7-.9.5-2.6-2.4-2-6.2-2.1-6.7-.2-.3 1-.5.5-.6-1 0-1.6-.7-2.9-1.3-3l-3.6-.3c-2.7-.3-4.2-1.5-1.8-1.5 1.8 0 1.9-2.8.1-4.3-.6-.5-.3-.7.8-.3 1 .3 1.7.2 1.7-.3s-.9-1.1-2-1.4c-1.5-.4-2-1.4-2-3.6s-.4-2.9-1.5-2.5c-1.1.5-1.2 1-.3 2.4.9 1.4.9 2.2 0 3.3-1.5 1.8-.4 5 1.4 4.3.8-.3 1.4-.1 1.4.4 0 1.7-4.8 1-5.4-.7-.5-1.2-1-1.3-1.8-.5-1 1-5.4-1.1-7.8-3.8a6 6 0 0 0-2.5-.8c-2.6-.5-3.3-1.2-1.2-1.2 1 0 1.7-.5 1.7-1 0-2-2.8-1-4.6 1.8-2.5 3.7-1 8.6 2.4 7.4.7-.2 1.2.5 1.2 1.8 0 1.2.5 1.8 1 1.5.5-.3 1-.1 1 .4 0 .6.6 1.1 1.4 1.1.8 0 2 1.7 2.7 3.7 1 3.3 1.3 3.5 2 1.8.7-1.9.8-1.9.8.3 0 1.2.6 2.2 1.1 2.2.6 0 1.8 1.6 2.7 3.5 1.3 2.6 2.3 3.5 4.2 3.5 2.5 0 6.1 2 6.1 3.3 0 .9-3.4-.4-4.1-1.6-.3-.5-.9-.2-1.2.7-.4 1 0 1.6 1 1.6s1.3.6 1 1.6c-.8 1.8 1.8 4.8 3.3 3.9.5-.3 1.4.5 2 1.8.7 2 4.9 5.7 6.5 5.7.3 0 .5-1 .5-2.3 0-1.9.3-1.7 1.6 1 1 1.8 2 3.3 2.5 3.3 1.3 0 9.4 8.6 10.7 11.4.9 2 .8 2.5-.3 3-1.5.5-1 6.5.5 7.6a9 9 0 0 1 1.5 3 13 13 0 0 0 2.3 4c1.4 1.3 1.4 1.5-.1 1.8-1.4.3-1.7 1.2-1.4 4.9.3 3.6 0 5-1.7 6.4-4.5 4.2-8.9 1.4-8.8-5.7 0-2.7-.2-4.3-.5-3.7-1 2.6-2 1.2-2.8-3.3-.6-4-.4-4.8 1.5-6 2-1.6 2-7 0-9.9-.4-.5-1-2.2-1.4-3.7-.8-3.3-5.3-8.1-6-6.5-.2.7-.5.2-.5-1-.1-2.3-2.1-3.3-2.1-1 0 .6-.7.2-1.5-1-1-1.3-2.2-2-3-1.7-.8.4-1.5.1-1.5-.5s-.6-1.1-1.4-1.1c-.8 0-1.7-1.1-2-2.5-.4-1.6-1.3-2.5-2.6-2.5-1.1 0-2.9-.9-4-2s-2-1.7-2-1.4c0 .3-1.9-1.5-4.1-4a19.2 19.2 0 0 0-5.2-4.6c-1.3 0-3.2-2.5-6-7.9a18.5 18.5 0 0 0-4.7-6 85 85 0 0 1-8.4-7.3 34.5 34.5 0 0 0-6.9-5.8c-.5 0-3-1.8-5.3-4-2.4-2.2-5-4-5.9-4-.8 0-1.5-.5-1.5-1 0-.6-1-1.5-2.3-2-7.4-3.6-15.7-10.4-15.7-13.2 0-.3-1.7-1.7-3.8-2.9-5-3-10.6-7.9-9-7.9.6 0-.2-1.1-1.8-2.5s-3.5-2.5-4.2-2.5c-1.3 0-5.7-4-4.5-4 .5 0 .1-.5-.7-1.1-1.2-.9-1-1 .9-.6 2.5.6 7.1-1 7.1-2.5 0-.5-1.5-1.5-3.4-2.3a12 12 0 0 1-4.1-2.5c-.4-.6-1-.8-1.4-.6-1 .6-5.1-3-5.1-4.4 0-.6-.6-1-1.3-1a32 32 0 0 1-9.7-10c0-.5-.5-.9-1.2-.8-.7.2-1.3-.4-1.4-1.2-.3-3.7-.5-4-1.3-3.6-.5.3-1.4 0-2.1-1-.9-1-.9-1.4-.1-1.4.6 0 1.1-.5 1.1-1 0-.7-.8-1-1.8-.8-1 .2-2.2-.3-3-1.2-1-1.3-1.1-1.1-1.2 1.2 0 1.4.5 2.8 1.2 3 .6.2 1.2 1.3 1.3 2.4.2 1 .6 2.7 1 3.7.5 1.3.2 1.7-1.2 1.7-2 0-8.6-5.8-9-8-.5-2-4.6-7-5.7-7-1.7 0-5-3.2-7.1-6.8-1-1.7-2.3-3.2-2.7-3.2-.4 0-.8-.7-.8-1.5s-2.5-3.4-5.5-5.8c-3-2.3-5.5-4.7-5.5-5.3 0-.6-1.2-.9-2.8-.6-2.3.3-3.2-.2-4.7-2.5-1-1.5-3.3-4.2-5.2-6-1.8-1.7-3.3-3.6-3.3-4.2 0-.6-.7-1.1-1.5-1.1s-1.5-.4-1.5-.9c0-.4-1.1-.6-2.5-.3-3 .5-3.1-.2-.6-3 1.8-1.9 2-1.9 3-.1 1.4 2.7 2.2 1.1 1.2-2.5-1-3.7-3.6-6.6-5-5.8-.5.4-1.1 0-1.3-.6-.5-1.5-2.8-.1-2.8 1.7 0 .7.7 1.5 1.5 1.9.8.3 1.5.1 1.5-.4 0-1.9 1.9-1 2.5 1.1 1.1 3.4-1.5 4.2-4.4 1.3-2.8-2.8-3.6-5.5-1.8-6.6.6-.4.8-1 .4-1.5-.5-.4-1.2 0-1.7.7-.8 1.3-1 1.3-1-.1 0-1 .7-2 1.5-2.3 1.3-.5 1.3-.8-.2-2.6l-1.8-2-.7 2.2c-.5 2-.6 2-.8-.7-.1-1.7-.2-3.4-.1-3.8 0-.5-.7-.8-1.6-.7-3.5.4-4.5 0-4-1.5.4-.8.2-1.5-.2-1.5-.5 0-1.2.6-1.4 1.3-.3.6-.6.2-.6-1 0-1.3-.5-2.3-1.1-2.3-.5 0-1-.7-1-1.5 0-1-1.2-1.8-3-2.1-1.6-.4-2.8-1-2.7-1.4.1-.5-2-2.9-4.6-5.4-3.9-3.8-5.4-4.6-8.5-4.6-2.6 0-3.3-.3-2.2-1 1.6-1-2.3-5.3-6-6.5-1.5-.5-2-1.2-1.5-2.6.5-1.4.3-1.7-1-1.3-1 .5-1.5 0-1.5-1.8 0-2.3-2.5-4.4-5.5-4.6-.5 0-1.2-1-1.7-2.1a3.1 3.1 0 0 0-2.8-2.1c-2.3 0-2.4.3-.8 3 1.6 2.4.3 3.8-2.2 2.3-1.5-1-2-.9-2.4.3-.9 2.2-.8 2.3 1.4 1.7 1.4-.4 2 0 2 1.2 0 1.1-.5 1.5-1.5 1.1-.8-.3-1.5-.2-1.5.3 0 1.3 3.9 2 4.6 1 1-1.8 3.6 1.4 3.1 3.8-.2 1.3 0 2.6.4 2.9.5.3 1-.7 1-2.3v-2.8l1.1 3c.8 2.1.8 3 0 3.3-1.7.5-1.5 3.2.3 3.2.8 0 1.5.7 1.5 1.6 0 .8.4 1.3.8 1 .5-.3 1.5.4 2.2 1.4.8 1 1.7 1.7 2.2 1.4.4-.3.8.1.8 1 0 .7 1.6 2.1 3.5 3 1.9 1 4 2.6 4.5 3.6.6 1.1 1.6 1.9 2.2 1.7.6 0 1.3.4 1.6 1.2.3 1 0 1.2-1.2.8-1.4-.6-1.6-.3-1.1 1.3.5 1.5.2 2-1 2-1.1 0-1.5-.5-1.1-1.6.4-1.2.1-1.4-1.4-.9-1.1.3-2 .2-2-.3s-1.5-1.6-3.3-2.3c-3.7-1.5-5.9-3.4-5-4.3.4-.3 0-.6-.6-.6-1.5 0-3.1-1.5-5.5-5.3-1.5-2.2-2.1-2.5-3.3-1.6-.7.7-1.6 1-2 .6-.3-.4-1.4-.2-2.4.4-1.5.7-1.9.6-1.9-.5 0-.8-.6-1.7-1.3-2-.6-.4-.3-.5.9-.2a6 6 0 0 0 3.8-1c1.7-1.2 1.7-1.3-.2-2.3-1.3-.7-2.2-.7-3 0-.7.8-1.2.7-1.6 0-.4-.6 0-1.1.9-1.1s1.3-.5 1-1c-.5-.8-1.2-.7-2.2.2-1.2 1-1.8.9-3-.7-.7-1-2.6-2-4-2l-4.7-.4c-1.4 0-1.7-.7-1.4-3.1.3-2 0-3-.8-3-.7 0-2-.7-2.7-1.5-2.4-2.3-3.7.2-2.7 5.3.4 2.3.3 4.2-.1 4.2-.5 0-.9.7-.9 1.5 0 1 .6 1.2 1.7.8 1.3-.5 1.5-.2 1 1.1l-.7 2.2c0 .2-1 .4-2 .4-1.4 0-2.4.8-2.7 2-.4 1.3-1.1 1.9-2 1.6l-2.6-.7c-.7 0-.3-.4.8-.9 1.7-.7 1.6-.9-1-1l-3-.1 3.3-1.7c3.3-1.6 3.8-3.8.8-3.6-2 .2-2-.5.2-2.2 1.6-1.3 1.6-1.3 0-1.4-1.9 0-2.6-2-.8-2 .5 0 1-.6 1-1.3 0-.7.5-1.8 1.2-2.5 1.6-1.6 1.8-5.2.2-5.2-.8 0-1.2-1.6-1.2-4.5 0-4.1-.5-5-5.6-10-3-3-5.6-6-5.6-6.6 0-.5-.8-.9-1.7-.7-1 .2-1.9-.5-2.1-1.7a22 22 0 0 0-3.3-6 16.3 16.3 0 0 1-2.9-5.2c0-.7-.7-1.3-1.5-1.3-1 0-1.2.6-.6 2.2.7 1.9.3 2.6-2 4-1.7 1-2.7 2.3-2.4 2.8.3.6.1 1-.5 1s-1.7.6-2.4 1.3c-1.7 1.7-2.7 4.7-1.6 4.7.6 0 1 .7 1 1.5s-.5 1.5-1 1.5-1-.6-1-1.3c0-.9-1-1.2-3.4-1-3.1.5-3.3.6-2.2 2.9.6 1.3 2 2.4 3.1 2.5h2l-2 .9c-1.7.7-1.7.9-.3 1 1.1 0 1.5.5 1.2 1.5-.4.8-.1 1.5.5 1.5s1.1.9 1.1 2c0 1 .7 2.3 1.5 2.7 1.8 1 3.3 12.3 1.6 12.3-.6 0-1.1-1-1.1-2.3 0-1.8-.2-2-1.1-.7-1 1.3-1 1.3-.6-.1.6-1.8-3-5.9-5.2-5.9-1.7 0-4.2-2.6-3.3-3.5.4-.5.1-.5-.5-.1-.9.5-1.3 0-1.3-1.2 0-1-1-2.4-2.3-3-2.1-1.2-2-1.2.5-.7 3.4.7 3.5.3.3-3.1-2.3-2.4-2.7-2.6-3.8-1.1-2.5 3.2-5.3 2.4-3.9-1.2.4-1.2.7-1.1 1.1.2.6 1.5.8 1.4 2-.4 1.1-2 1.1-2.1-.3-1.6-1 .4-1.6 0-1.6-1 0-.9.3-1.4.6-1 .3.3 1.2 0 2-.6 1-1 .7-1.7-1.4-4-2.7-2.8-4.4-3.5-4-1.6.2.6-.3 1.4-1.1 1.7-1 .3-1.2 0-.8-1.1.3-1 .2-1.9-.3-2.2-.6-.4-1 .2-1 1.2 0 1.5-.3 1.4-1.3-.5-1-1.8-1.5-2-2.6-1s-1.3 1-.8-.5c.4-1 .2-1.7-.3-1.7a1 1 0 0 1-1-1c0-.7-.8-1.9-1.7-2.8-1.5-1.6-1.6-1.5-1 1.1.6 2 .4 2.7-.4 2.2-.6-.5-.9-2-.5-3.9.4-2.2.3-2.7-.4-1.6-1 1.5-1.5.3-1.1-2.3 0-.4-1-1.1-2.2-1.6-1.2-.5-2.9-1.6-3.6-2.5a4.8 4.8 0 0 0-3.2-1.6c-1.3 0-1.7-.5-1.3-1.8.5-1.4.4-1.5-.5-.2-.8 1.1-1 1.2-1 .2 0-.7-.5-1-1.1-.7-.5.3-1 .2-1-.3 0-.6-.9-.8-2-.5-1.1.3-2 0-2-.6s-.9-1.1-2-1.1-2-.7-2-1.5-.7-1.5-1.5-1.5-1.2-.6-1-1.3c.3-.6-.8-1.8-2.4-2.5-1.6-.7-3.1-2.1-3.4-3.1-.4-1.7-1.5-1.9-11.6-1.6-12.4.2-12 .1-12.4 4.1l-.2 3h-7.8c-4.9-.1-7.7-.5-7.7-1.2 0-1.1-4.4-3.6-7-3.9-4-.5-5.8-1.7-5.8-4 0-1.4.4-2.5 1-2.5.4 0 .8-.9.8-2s-.5-2-1-2c-.6 0-.8.5-.5 1 .3.5.1 1-.4 1-.6 0-1.1-.7-1.1-1.5 0-.9-1-1.5-2.2-1.5-2 0-2 0-.4-1.3 1.7-1.3 1.7-1.4.1-3-.9-1-1.2-1.7-.7-1.7 1.3 0 2-6.3 1-9-.6-1.6-1.3-2-2.8-1.5-1.1.4-2 .2-2-.4 0-.6.5-1.1 1-1.1.6 0 .9-.4.5-1-.3-.5-1.3-.7-2.3-.4-1.5.5-1.5.4-.2-.6s1.3-1.1-.2-.7c-1 .3-1.8.2-2-.3-.2-.5-1.9-1.2-3.8-1.5-2.8-.5-3.2-.4-1.8.5 1.6 1 2.6 5 1.3 5-.8 0-4.2-3.6-4.6-5-.3-.7-1.3-.2-2.7 1.3m341.5 47.4c-1.4 1.3-.6 2.5.8 1.3.9-.7 1.9-1 2.2-.6.4.4.2 1-.6 1.5-1 .7-1 1 .3 1.4.9.4 1.6 1.3 1.6 2.2 0 .9.9 1.5 2.2 1.5 2 0 2 .1.5 1.8-1 1-1.4 2.1-1 2.5.3.4 0 1.7-.8 3-1.5 2.3-1.6 3.8-.4 7.5.5 1.6 1 2 1.5 1.2.5-.9 1-.6 1.5.9.3 1.1 1.5 2.1 2.5 2.1 1.3 0 1.7.5 1.3 2-.4 1.4 0 2 1.1 2 1 0 2 .8 2.3 1.8.9 2.3 3.4 4 5 3.5.7-.3 1.7.5 2.2 1.8.8 2.1 1 2.2 1.6.7.8-2 5.5-2.4 7.3-.6 1 1 1.2.5 1.2-2 0-4.7-2.5-10.2-4.7-10.2-1.8 0-4.5-3.2-5-5.8-.3-2-3.2-6.2-4.3-6.2a1 1 0 0 1-1-1c0-1.2-4-5.4-4-4.3 0 .5-.8-.7-1.6-2.4-1-1.8-2.1-3-2.7-2.6-.6.4-.7.1-.2-.7.5-.8.3-1.1-.6-.8-.8.3-2-.1-2.7-.9-1.4-1.4-4.4-1.7-5.5-.6m-247 5.7c-1 .9-1.2 1.7-.6 2.9.6 1 .7 2.2.3 2.9-.5.8-1 .6-1.5-.8-.6-1.6-.8-1.4-.8 1 0 2.6.1 2.8 2.6 2.1 2.3-.5 2.5-.4 1.4 1-.8.8-1 1.5-.7 1.5 1 0 3.2-2.3 3.9-4 .4-1 .6-.8.6.7 0 1.2.3 2.7.4 3.5.2.7.2 1 0 .5-.3-.4-1-.7-1.5-.7-.6 0-.6.6.2 1.5.6.8.9 1.9.5 2.5-.3.5-.1 1 .5 1 .8 0 1 1 .5 3-.4 1.9-.2 3.6.5 4.5 1 1.2 1 1.5-.1 1.5-1 0-.8.5.5 1.5a7 7 0 0 0 3.5 1.5c1.3 0 1.3-.2-.2-1-1.6-1-1.6-1.2-.1-2.7 1.5-1.5 1.7-1.5 2.6 0 .5 1 1.4 1.7 2 1.7.5 0 .6-.6.1-1.2-.4-.7-.6-2.6-.4-4.2.2-2.5 0-2.8-1.8-2.3-1.2.3-2.6-.1-3.3-1-1.1-1.4-1-1.5 1.2-.9 2.4.7 2.4.6.6-.8a9.6 9.6 0 0 0-3-1.7c-.6 0 0-.5 1.4-1.1 2.3-1 2.3-1.1.5-1.5-2.4-.6-4.5-2.3-2.7-2.3.7 0 1.2-.5 1.2-1 0-.6-.4-.9-.8-.6-.4.2-1.4-1-2.2-2.7-2-4.7-3.3-5.7-5.2-4.3M994 1078c0 1.6-.8 1.8-7 1.5-4.3-.2-7 0-7 .7 0 .6-.7.7-1.6.4-1.4-.5-1.6-.1-1 2.3.4 2.1 0 3-1 3.5-1 .4-1.4 1.3-1 2.1.6 1.8-.5 2-2.2.3-.9-.9-1.4-.6-2 1.3-.7 1.7-.6 2.6.4 3.2 2.2 1.3 1.7 3-.5 1.7-2.6-1.3-4-1.3-2.1.1 1.3 1 1.2 1-.3.5-2-.6-2.2.6-.7 3.5.6 1 2 1.9 3 1.9 2.8 0 3.4 1.7 1 3-2.3 1.2-4.4.5-3.4-1.2.4-.7.2-.8-.4-.4-.8.5-1 0-.6-1.1.4-1.4 0-1.2-1.5.6-2.3 2.5-2.7 4.1-1 4.1.5 0 .7.5.4 1-.5.8-1.1.7-2 0-1.1-1-1.5-1-1.5-.1 0 .6.5 1.1 1 1.1s1 .5 1 1-1.4 1-3 1-3 .5-3 1c0 .7 1 .9 2.3.5 1.7-.5 1.9-.4.7.4-1 .7-1.1 1-.3 1 .7 0 1.3.6 1.3 1.2 0 .5-.5.7-1 .4-.5-.3-1 .1-1 1 0 3-6.4 7.6-7.3 5.2-.3-.6-.6-.4-.6.7 0 1.4.4 1.7 1.9 1.3 1.1-.3 2.2-.1 2.5.3.3.5-.8 1.1-2.5 1.5-2.8.6-4.4 3.8-1.8 3.4 2.7-.3 4.8.1 4.8 1 0 .6-.7.8-1.6.4-1.2-.4-1.5 0-1.3 2.3.5 6 0 7.6-2 7-1.1-.4-2.6 0-3.5 1-2.1 2-2 3.4.3 3.4 1.3 0 2 .9 2.3 3 .3 1.7 0 3-.4 3s-.9-1.2-1-2.8c0-2-.2-2.2-.5-.6-.2 1.2-1.5 2.7-2.8 3.4a7 7 0 0 0-3 3.2c-.6 1.8-.8 1.8-2.5.3s-1.9-1.5-3.4.7c-2.4 3.4-2 5.6.5 2.7 1.6-1.9 2.2-2 2.9-1 .5.9.6 1.9.4 2.3-.3.4.2.8 1 .8.9 0 1.6.5 1.6 1 0 .6-.5.8-1.2.4-.7-.5-.8-.3-.3.6.6.9.2 1-1.6.5-2-.7-2.2-.6-1.1.7 1.7 2-3 8-5.5 7-1.2-.4-1.5-.1-1 1 .3 1 0 1.8-.5 2-1.6.6-2 4.1-.5 5 .8.5.7.8-.4.8-1 0-2 .7-2.3 1.6-.4 1-1.4 1.5-3 1.2-1.6-.3-2.5.2-3.3 1.9-.6 1.3-.7 2.3-.2 2.3.5 0 1.2-.7 1.5-1.5.7-1.8 3-2 3.6-.3.5 1.4-1.4 5.8-2.4 5.8-.3 0-.9-.8-1.2-1.8-.3-1-.4 0-.1 2 .2 2.1 0 3.8-.6 3.8-.5 0-.9-.5-.9-1 0-.6-.6-.5-1.4.2-1 .9-1 1.5-.3 2 .8.4.7 1-.1 2-1.7 2-1.7 9.8 0 9.8.4 0 .8.5.8 1 0 .6-.5.8-1 .5-.5-.3-1 .3-1 1.4 0 1.2.5 2.1 1 2.1s1 .5 1 1c0 .6-.5.8-1 .5-1.4-.8-1.3 1.8.2 5 1 2.2 1 2.8-.3 3.6-1.1.7-1 .9.5.9 1 0 1.7.3 1.3.6-.3.3-.2 1.6.3 2.9.9 2.3-2 6-3.6 4.7-.4-.4-.4.2 0 1.2.4 1.1.2 2.2-.5 2.7-1 .5-.8 1.1.4 2.3.9 1 1.4 2.3 1.1 3-.4 1 .3 1.2 2.3 1 2.7-.3 2.7-.3.3.4-2.1.7-2.2.9-.8 1.5 1.2.4 1.8 1.7 1.8 3.6 0 1.6.6 3.1 1.5 3.5.8.3 1.5.1 1.5-.4 0-.6.5-1 1.1-1 .6 0 .8.7.5 1.6-.4 1-.2 1.3.6.8.7-.4.8-.3.4.4s0 1.2.8 1.2c.9 0 1.5.3 1.5.8-.4 2 .2 3 1.5 2.6 1-.4 1.3 0 1 1.5-.4 1.2-.1 2.7.5 3.5.6.7.9 2.2.5 3.2-.4 1.4-.3 1.5.4.6 1-1.6 2.7 1.2 1.6 2.9-.8 1.4 2.4 4.2 4 3.5.9-.3 1.8 0 2.1.4.4.6 0 1-.7 1-.8 0-.4.8.8 1.9a8 8 0 0 1 2.5 3.5c.2 1 .9 1.6 1.4 1.4.5-.2.9-.6.8-1-.2-.5.2-.8.8-.8.6 0 .9.9.6 2-.6 2.4 3 2.4 5 0 1-1.3 1.2-1.3 1.3.3 0 1 .6 1.7 1.4 1.7.8 0 2.1.3 3 .6 1 .4 1.7-.2 2.2-2.1l.7-2.7 1.5 3.1c.8 1.7 2 3.1 2.8 3.1.8 0 1.4.4 1.4.9s.7 1.2 1.6 1.5c1.1.4 1.5.2 1-.8-.2-.8.2-2 1-2.6 1.1-1 1.4-.8 1.5 1.1 0 2.2.1 2.3.9.4.7-1.7.9-1.7 1-.3 0 2.2 3 2.4 3 .3 0-.8-.7-1.5-1.5-1.5s-1.5-.4-1.5-.9c0-.4 1.2-.6 2.6-.3 1.7.3 2.3 1 2 2-.3.7-.6 2.4-.6 3.7 0 1.6-.8 2.6-2.3 3-2.1.8-2.1.8-.2 1.5 2.4.9 3 0 4-5.8.4-2.3 1-4.2 1.6-4.2.5 0 1-.8 1-1.8s.2-1.3.7-.6c.4.7 1.6 1.4 2.7 1.7 1.8.4 1.8.5-.3.6-2.6.1-2.7.7-.7 2.8 2 2 4.5 1 3.8-1.6-.6-2.4 3-3 4.3-1 .5.8.2 1-.8.7-1-.5-1.5.1-1.5 2.2s.4 2.7 1.6 2.3c1.4-.4 1.4-.3 0 .9-1.5 1.4-1.4 5.8.2 5.8.5 0 1-1 1-2.3 0-1.2.6 0 1.3 2.8.6 2.8 1.4 4.9 1.9 4.8 1.4-.5 4.2-.1 3 .4-2 .7-1.6 4.3.5 4.2 1 0 1.2-.3.5-.6-2.2-.8-1.4-2.3 1.3-2.3 1.8 0 2.5.4 2 1.4-.2.8.4 1.7 1.7 2.1 2 .7 2 .8-.6 1.2-3 .5-2.4 1.7 1.8 4 1.8 1.1 1.8 1.2.2 1.3-1 0-2 .7-2.3 1.5-.4.8-1.3 1.5-2.2 1.5-1.3 0-1.3-.2.1-1.8 2.2-2.4 2.2-3.8 0-2-1.3 1-1.7 1-2 0-.3-.6-1-1.2-1.5-1.2s-.6 1-.3 2.1c.5 1.5.4 2-.4 1.4-.8-.4-1 .3-.6 2.4.4 2.6.2 3-1.2 2.5-1.6-.5-1.6-.4-.2.8 1.9 1.6 2 6 .2 5.4-.7-.3-1.3.1-1.3 1 0 .7.5 1.4 1.1 1.4.8 0 .8.4 0 1.5-1.4 1.5-7 1-8.2-.8-.4-.5-1-.5-1.3.2-.4.6 0 1.4.9 1.7 1.1.5 1.3 1 .5 2-.8.8-.8 1.4 0 1.9 1.8 1 1.1 2.3-1 1.8-2-.6-2.9 1.2-.8 2 .8.2.8.8 0 2.3-1 1.7-1.1 1.7-1.2.2 0-1-.5-1.8-1-1.8s-1-.7-1-1.5-.4-1.5-1-1.5c-1.4 0-2.2 1.8-1 2.5 1.8 1.1 1 2.7-1 2-1.1-.4-2-.2-2 .4 0 .6 1 1.1 2.3 1.2 1.2 0 1.6.3 1 .6-.7.2-1.3 1.1-1.3 1.9 0 .8-.5 1.4-1 1.4s-1-.7-1-1.5-.9-1.5-2-1.5-2 .5-2 1c0 .6.5.8 1 .5.5-.3 1-.2 1 .4 0 .5-.9 1.3-2 1.6-2.8.9-2.5 2.3.5 2.3 1.3 0 2.2-.4 2-1-.4-.4-.1-.8.4-.8.6 0 1.1.5 1.1 1s.5 1 1 1c.6 0 .8-.5.5-1-.3-.5.1-1 1-1 1.3 0 1.4.4.5 2-.6 1.1-1.6 1.7-2.5 1.4-1-.4-1.3-.2-1 .7.6 1.9-1.4 5-2.2 3.2-.7-1.8-2.6-1.6-2 .2.4 1 0 1.5-1.3 1.5-1 0-2.2.5-2.5 1-1 1.7-2.3 1.1-2.8-1.3l-.4-2.2-.2 2.3c0 1.2-.5 2.2-1 2.2-.7 0-.7 1 0 2.6 1 3 .4 4.3-1.3 2.6-1.5-1.5-5.8-1.6-5.8-.2 0 .5-.6 1-1.4 1-.8 0-2 1.3-2.7 3-1.5 3.3-2.9 3-2.9-.6 0-2-.3-2.3-1.8-1.6-1 .5-2.3.7-3.1.4-.8-.2-2 .3-2.8 1.4-.7 1-1.3 1.4-1.3 1 0-.5-.9-.1-2 .9-2.1 2-2.6 1.4-3.2-3.3l-.3-2.2-3.4 2c-1.8 1.2-3 2.4-2.7 2.7.3.3 1.2 0 2-.7 1-.8 1.6-.9 1.6-.2 0 1.4-3.3 3.2-6 3.2-1 0-2-.6-2-1.3 0-.6-1.1.1-2.5 1.7-1.4 1.6-2.5 3.6-2.5 4.4 0 .8-.6 1.2-1.5.8-.9-.3-1.5 0-1.5.9s-.6 1.2-1.5.9c-.8-.4-1.5-.1-1.5.5s.5 1.1 1 1.1 1 .5 1 1.1c0 .8-.4.8-1.3 0-1.5-1.2-3-.3-4 2.4-.7 1.6-1 1.7-1.7.5-.8-1.2-1-1-1 .9 0 1.6.4 2.1 1.5 1.7.8-.3 1.5 0 1.5.7 0 1.7-2.5 4.7-3.8 4.7-.7 0-.9-.7-.5-1.8.6-1.5.5-1.5-1.1-.2-1.2.9-1.4 1.6-.7 1.8.9.3.9.8.1 1.7-.6.7-1 1.9-.8 2.6.2.7-.6 1.4-1.7 1.6-1.6.3-1.7.2-.5-.6 1.3-1 1.2-1-.3-1-1 0-1.7.4-1.4 1.2.2.6-1.1 2.1-3 3.2a12.9 12.9 0 0 0-3.5 3c-.2.5-.6.9-1 .8-.5-.2-.8.2-.8.7 0 .5.4 1 1 1 1.1 0 0 6.3-1.2 6.8-.4.2-.5.8-.2 1.4.3.5-.4 2-1.6 3.3-2.3 2.5-1.9 5 .8 4 .8-.3 2 0 2.4.7.5 1 .8.8.8-.5 0-1 .4-1.6 1-1.2.5.3.7 1.2.3 2-.4 1 0 1.3 1 .9 1-.3 1.7-.1 1.7.6s.6.6 1.6-.4c.8-.9 2.4-1.6 3.5-1.6 2 0 2.5 2 .8 3.7-2 2-.2 5 3 4.5 1.8-.2 4 .5 6.6 2.2 3.4 2.4 3.6 2.6 1.4 2.7h-2.4l2.3 1.1c1.2.6 2.2 1.5 2.2 2 0 .4 1 .8 2.3.8 1.8 0 2 .2.7 1-1 .8 0 1 3.8.6 3.1-.4 5.2-.2 5.2.4 0 .6-.5 1-1.2 1-2.1 0 0 1.2 3.7 2 3 .7 3.6.6 3-.7-.4-1.1 0-1.3 1.2-.8 1 .4 3.6 1 5.8 1.3 2.6.3 3.3.7 2.2 1.1-1.5.6-1.5.8.4 2 2 1.1 2.1 1.1 1.6-.3-.6-1.5-.2-1.7 6.5-3 1.1-.3 1.8.2 1.8 1.1 0 1.1.9 1.4 3.5 1.1 2-.2 3.5 0 3.5.4s.9.8 2 .8 2-.5 2-1c0-.7.7-.7 2 0 1.8 1 2.4.8 3.4-.6.7-1 1.8-1.4 2.4-1 .7.4 1.2.3 1.2-.2s.7-.9 1.5-.9 1.5.4 1.5.8c0 .5.7.6 1.5.3.8-.4 1.5-.1 1.5.5s.5 1.1 1 1.1 1-.7 1-1.5c0-1.4 2.2-2 6.3-1.5 1.1 0 2-.7 2.4-2 .4-1.6 1.3-2 4.4-2 3.8 0 5.2 1.3 2.6 2.3-1 .4-1 .6 0 .6.7 0 1.3.8 1.3 1.6 0 1.8 1.7 2 2.2.3.8-2.3 3 .4 2.3 2.9-.4 1.7-.2 2.3.5 1.8.8-.5 1.1.1 1 1.6-.3 3.8 0 5 1 4.4a14 14 0 0 1 4-.9c1.8-.2 3.6-1 4-1.7 1.2-1.8 3.8-2 4.4-.2.3.8 1 1.2 1.5.9.5-.3 1.2.1 1.5 1 .4 1.2 1 1.3 2.6.4a27 27 0 0 1 13.1.6c.9.5 6.9 1.2 14.4 1.8 6.5.4 6.5.4 6.5 2 0 .7.9 1.6 2 1.9 1.1.3 2 .1 2-.4s1.5-.3 3.3.4c1.9.8 4.2 1 5.7.6 1.4-.4 2-.7 1.3-.8-1.8-.1-1.6-2.1.1-2.1.8 0 2 1.5 2.6 3.4 1 3.2 1.3 3.3 5.5 3 2.5-.1 4.5.2 4.5.7 0 .5-.5.9-1 .9-1.5 0-1.2 1.7.4 2.3 2.3.9 5.8-.4 5.2-2-.8-2 1.2-1.6 2.4.6 1.3 2.5 1.3 3.4 0 2.6-.5-.3-1 0-1 .7s1.4 2 3 3c1.8 1 2.9 2.2 2.6 2.6-1.3 2.2 3.4 4 9.4 3.8 4.3-.2 6.3.1 6.7 1 .4 1.1 2.2 2.1 5.3 3 5.3 1.4 9 3.7 9 5.7 0 1.5.5 1.8 2.5 1.5 2-.4 2.5-.1 2.5 1.6 0 3.5 1.4 5 3 3.1 1.4-1.7 3-2 3-.5 0 .6 1.2 2.2 2.8 3.5 1.5 1.3 2.1 2.5 1.4 2.5-2.7 0 1.2 4 4 4 1.6 0 2.9.6 3 1.3 0 .6 0 1.9.2 2.7 0 .8 1.2 1.7 2.5 1.8 1.3.2 2.5 1.2 2.8 2.2.3 1 1.6 2.1 2.9 2.4 1.4.4 2.4 1.4 2.4 2.4s1.3 2.8 3 4c1.5 1.2 3 3.1 3.2 4.3.4 2.6 2.8 3.8 2.8 1.5 0-.9.5-1.6 1-1.6s1 .5 1 1 .6 1 1.3 1c2.2 0 5.1 3.7 3.5 4.4-.7.3.1.3 1.9 0 1.7-.3 3.4 0 3.8.5 1 1.8 3.6 1.3 3.3-.6-.2-1 .5-1.9 1.7-2.1 1.1-.3 2.3-1 2.7-1.6 1.2-2 3.8 2.5 2.7 4.7-1.3 2.4-2.8 1.3-2.2-1.6l.5-2.2-1.7 2.3c-1.6 2.2-1.6 2.4.1 3.7 1.7 1.3 2.1 1.2 4-1 2.4-3 4.4-3.2 4.4-.4 0 1.4 1 2.4 3 3.2 1.7.6 3 1.5 3 2 0 .3.8.7 1.7.7 1.3 0 1.4.3.5 1.2-1 1-1.5 1-2.4 0-1.6-1.6-2.9-1.5-2.5 0 0 .7-.8 1.4-2 1.6-1.6.2-2.3-.2-2.3-1.2 0-.9-.5-1.6-1.1-1.6-.7 0-.8.7-.4 1.8l1.7 4.5c1.4 3.8 4.7 3.7 5.5-.3.3-1.7 1-3 1.4-3 .4 0 .7 1.3.7 3 0 2-.6 3-1.6 3-1.2 0-1.2.3.4 1.4 1 .8 1.6 1.8 1.2 2.2-.5.4-1.8-.1-3-1.2-2-1.9-2-1.9-1.3.4.6 2 .4 2.3-2.2 2-2.5-.3-2.8 0-2.8 2.7 0 1.7 1 4.3 2.2 5.8a11 11 0 0 1 2.3 3.9c0 .7.5.6 1.4-.1 1.8-1.5 4.6-.4 4.6 1.8 0 1 .5 2.2 1.2 2.9 1 1 .8 1.5-.7 2.5-1.2 1-1.4 1.6-.7 2.1.7.4 1.2 1.6 1.2 2.7 0 1 .5 1.9 1 1.9.6 0 1.8 1.6 2.6 3.5.8 2 2.1 3.5 3 3.5 1.2 0 1.3.4.4 2-1.7 3.2-.7 4.3 1.7 2 2.9-2.6 3.3-2.5 3.3.5 0 1.6-.6 2.5-1.5 2.5-.8 0-1.5.7-1.5 1.5s.4 1.5.8 1.5c.5 0 1.4 1.1 2 2.5.6 1.4 1.6 2.5 2 2.5.6 0 1.3-1.1 1.6-2.5.4-1.4 1.3-2.5 2.2-2.5.8 0 1.2-.5.9-1-.5-.8-1.1-.7-2 0-1.2 1-1.5 1-1.5-.4 0-.9.4-1.6.9-1.6s1.1-.9 1.4-2c.6-2.4 3.7-2.7 3.7-.3 0 1.4.3 1.3 2-.5 1.2-1.2 2.5-2.2 3-2.2l2.4-.6c1.2-.5 1.5-.2 1 1-.4 1.2-.2 1.5.9 1 1-.4 1.5-1.8 1.3-5 0-2.4.2-4.4.7-4.4.4 0 .7.8.7 1.7 0 1.5.2 1.4 1.4-.3.8-1 1-2 .5-2.2-1.4-.6-1-2.2.5-2.2.8 0 2 .8 2.5 1.8 1 1.6 1 1.6 1 0 0-1-.4-2-1-2.3-.5-.4-.7-1-.3-1.6.3-.6-.4-.7-2-.4-2.4.7-5.1-1.5-2.8-2.3.6-.2.8-1 .5-1.8-.3-.8 0-1.4.7-1.4.8 0 1 .8.7 2-.3 1.3-.1 2 .6 1.7 1.2-.4 2.9-6.7 1.8-6.7-.4 0-1.2.5-1.8 1-.8.9-1.3.9-1.8 0-.4-.6.1-1.7 1-2.4 1.8-1.3 1.8-1.5.2-4-1-1.5-1.3-2.7-.7-3.1 1.5-1 1.2-2.5-.4-1.9-.9.3-1.3 0-1.3-1.1.2-1.3-.8-1.8-3.6-2-4.6-.5-5.8-1.2-5-3 .3-.8 0-1.5-.5-1.5s-1.3 1.5-1.6 3.4l-.7 3.4-3-1.5c-3.3-1.7-4-3.4-.8-2.6 1.7.5 2 .2 1.6-2.3-.3-1.6-1-2.8-1.6-2.7-.6.2-1.1-.2-1.1-.7 0-.5.5-1 1-1 .6 0 .8-.5.4-1.2-.4-.6.1-1.7 1.1-2.4 2-1.5 3.1-8.4 1.5-8.4-.6 0-1 .9-1 2s-.5 2-1 2-1-.8-1-1.8c0-2.2-2.9-6.3-3-4.5a23 23 0 0 1-.9 4c0 .5-.6.1-1-.7-.7-1-.5-2 .7-3.3 1.4-1.6 1.4-2 .2-2.7-.8-.5-1.1-1.2-.7-1.6.3-.4 1.3-.2 2 .4 1.4 1.2 2.7.7 2.7-1 0-.5-.4-.7-.9-.4-1.4 1-3.4-2.2-2.8-4.5.8-2.8-.2-4.9-2.2-4.9-1.4 0-1.4.2-.1 1 1 .7 1.1 1 .2 1-.7 0-2.4-1-3.7-2.4-2.3-2.3-2.3-2.4-.4-4 2.7-2.2 3.2-2 2.4 1-.5 2.4-.4 2.6 1 1.5 1-1 1.5-1 1.5-.2 0 .6 1 .9 2.3.7l2.7-.5c.3 0-.2-.6-1-1-.8-.6-1.5-1.5-1.5-2.1 0-.6-.7-1.5-1.5-2-1-.7-1-1-.3-1s1.3-.5 1.3-1c0-1.7-3.8-1-4.4.8-.3 1-.4.6-.3-.8.2-2 .7-2.4 2.5-2.3 1.6.2 2.2-.2 2.2-1.7 0-1.1-.6-2-1.3-2-.8 0-.7-.3.3-1 .8-.5 1.8-.6 2.4-.3.5.4.7-.1.3-1.1l-.7-2.1c0-.3-.6-.2-1.4.1-2 .8-3-1.4-1.2-3.1 1-1 1.7-1.2 2.1-.5.5.8 1.1.7 2 0 1.2-1 1.5-1 1.5.4 0 .9-.7 1.6-1.7 1.6-1.5 0-1.4.2.2 2 2.2 2.4 3.4 1.8 2.8-1.3-.3-1.6 0-2.6 1.1-3 .9-.4 1.6-.2 1.6.3 0 .6.5 1 1 1 1.7 0 1.1-1.8-1.2-4-1.3-1.2-2.4-1.6-2.6-1-.2.5-.8 1-1.4 1-.6 0-.6-.6.2-1.5.7-.8.9-1.5.5-1.5s-1.4.8-2 1.7c-.8 1-1.6 1.5-2 1.2-.3-.3.9-2 2.7-3.8 3.2-3.1 3-4.5-.3-1.5-1 1-2 1.1-2.3.5-.4-.5.3-1.3 1.5-1.6 1.2-.4 1.8-1.2 1.5-2.1-.4-1 0-1.4 1-1.2 1.8.3 3.9-3.8 2.4-4.7-.6-.4-1 0-1 .6 0 1-.3 1-1 .2-.9-.8-.8-1.7.2-3.2 1.5-2.5 2.8-2.7 2.8-.6 0 .8.6 1.5 1.4 1.5 1.7 0 2.8-3.7 1.2-4.4-.6-.2-.3-.5.8-.5 1.4 0 1.6-.4.8-1.3a6 6 0 0 1-1.2-2.3c-.3-1.5-1-2-1-.6 0 .8-.5.7-1.6-.4-1.5-1.4-1.5-1.7-.1-2.8.8-.7 1.7-1.9 2-2.7.4-.8.6-.4.5 1-.3 3.7 1.5 4 2.3.4.9-4.5 3.5-8 4.3-5.9.3.9 1 1.3 1.6 1 .6-.4.8-1 .5-1.6-.4-.5 0-.9 1-.9.8 0 1.5-.5 1.5-1 0-1.8 1.7-1 2.8 1.3.8 1.7 1 1.8 1.1.5 0-1-.4-2-.9-2.3-.5-.3-1-1.2-1-1.8 0-.7.4-.6 1 .3.8 1.3 1 1.3 1-.2 0-.9.6-1.9 1.3-2.1.9-.4.8-.8-.3-1.6-1.3-.9-1.1-1 .6-1 2.8-.1 3.6-2.2 2-5.3-1-2-1-2.8 0-4.2 1.4-2 3-.4 2.6 2.9-.3 2.7 1.3 5 2.8 4 1-.6 1-1 0-1.5-.7-.4-1-1.3-.5-2 .5-.8 1-.8 2 0s1.4.7 1.7-.7c.2-1.4.8-1 2.5 1.7l2.3 3.5v-2.8c0-1.5-.5-2.7-1-2.7s-1-.4-1-.8c0-.5.7-.9 1.5-.9s1.5.4 1.5.8c0 .5.6.6 1.4.3 1-.4 1.6.6 2.1 3.3.4 2 1 3.2 1.2 2.5.3-.6.9-1 1.4-.6.5.3.9 0 .9-.5 0-.6.7-1.1 1.6-1.1 1 0 1.4-.5 1-1.5-.3-1 0-1.5 1-1.5.7 0 1.4.7 1.4 1.5 0 1.8 2.1 2 3.8.3 1.5-1.5 1.6-3.1 0-2.2-.6.4-.9.3-.6-.2.6-1-2.8-4.5-3.6-3.7-.3.4-.6.1-.6-.5 0-.7.7-1.2 1.5-1.2s1.5.5 1.5 1 .7 1 1.5 1 1.5.5 1.5 1 .7 1 1.5 1 1.5-.7 1.5-1.5.4-1.5 1-1.5c1.5 0 0 3.2-3.2 6.5-2.9 3.1-3.9 5.6-1.4 3.6 1-1 1.5-.9 1.8 0 .2.7 1.4 1.3 2.6 1.4 1.8.1 2.2-.4 2.2-3 0-2 .3-2.6.9-1.7.4.7.6 2.4.3 3.8a4 4 0 0 0 1.4 4c2.7 2 3.6 1.7 2.4-.5-.7-1.3-.7-2.2 0-2.6.5-.3 1 0 1 .6 0 1 .3 1 1.2.1 1.7-1.7-.6-6.2-3.2-6.2-1 0-2-.5-2-1 0-.6-.4-.9-.9-.6-.5.3-1.1-.3-1.4-1.4-.5-1.8 0-2 2.9-1.8 2.7.2 3.4.6 3.4 2.3 0 1.2.3 1.5.8.9.4-.6 1.7-1.4 3-1.8 1.7-.6 2-1.2 1.5-3.6-.5-2.9 1.3-6 3.6-6 .6 0 .8-1.5.6-3.5-.4-2.7-.1-3.5 1-3.5 1 0 1.3.5 1 1-.3.6.4 1.4 1.7 2 1.3.5 1.6.9.8 1-1 0-1.1.3-.2 1.2 2 2 2.7-.2.8-3.2-1-1.7-1.4-3.5-1.1-4 1-1.5-1.7-1.1-4 .5-1.6 1.3-2 1.3-3-.3-1.7-2.1-.8-3.7 1.1-2 1 .7 1.8.8 2.5.1.7-.7.5-1.4-.6-2.3-.8-.7-1.5-2-1.5-2.7 0-.8-.9-2.7-2-4.3-1.8-2.6-1.9-2.9-.3-4.1 1.4-1.2 1.6-1.2 1.1.6-.3 1.3.4 2.8 1.9 4.3 1.3 1.2 2.3 2 2.3 1.5 0-.4.6.1 1.3 1.2.9 1 1.9 1.5 2.7 1 .9-.6 1-1 0-1.5-1-.6-1.7-2.4-2-5.3 0-.5-.8-.6-1.9-.2-1.3.4-2 0-2.4-1.5-.4-1.5-1.3-2-3.6-2-1.7 0-3.1-.5-3.1-1s1.3-1 3-1c2.2 0 3-.5 3-1.8 0-1 .3-1.3.8-.7 1 1.5 4.6 2 3.7.4-.5-.7-.3-1 .6-.7.8.2 1.8 1.3 2.3 2.4 1.6 3.6 5 4.4 7 1.6l2-2.5-2.7.7c-2 .5-3 .1-4-1.5-.9-1.2-2-1.8-2.6-1.4-.6.3-1.1 0-1.1-1 0-.8.9-1.5 2-1.5s2-.7 2-1.5c0-1.7-1.6-2-2.5-.5-.4.6-1 .8-1.6.4-.5-.3-.6-1-.3-1.6.5-.7.1-1-1-.5-1.3.5-1.5.2-1-1.8.4-1.5.2-2.5-.5-2.5-.6 0-1.1.6-1.1 1.4 0 .8-.3 2.2-.7 3.2-.4 1.2-.3 1.5.5 1 2.3-1.4 1.2.6-1.9 3.5-1.8 1.6-3.6 2.6-4.3 2.2-.7-.5-.5-.9.7-1.1 2-.4 2.1-1 .2-3.5-.7-1-1.1-2.5-.8-3.3.4-1-.3-1.4-2-1.4-3 0-3.4 1-1.5 2.8 1 1 .8 1.2-.5 1.2-1 0-1.7-.8-1.7-2s-.5-1.8-1-1.5c-.5.3-1 0-1-.7 0-1-.2-1-.9 0-.7 1.1-1.3 1.2-3 .3-2.2-1.2-2.4-1.9-2.1-6.3.1-2.1-.3-2.8-1.7-2.8-1.5 0-1.6-.2-.3-1 1-.7 1.8-.5 2.6.5a4 4 0 0 0 2.8 1.5c.9 0 1.6.7 1.6 1.6 0 .8-.5 1.2-1 .9-.5-.3-1-.2-1 .3 0 2 2.9 2 3.5.1.4-1 1-1.9 1.6-1.9 1.2 0 1.2 1.7-.1 2.5-.5.3-1 1.2-1 2 0 1.6 4.1 1.6 5.2 0 1.2-1.6 1-2.7-.4-1.9-.7.5-.8.3-.3-.6.6-1 .4-1-.5-.5-.8.5-1.1.3-.8-.5.6-2-3-5.2-5.1-4.5-1 .3-2.6-.1-3.4-1-.9-.8-2-1.5-2.7-1.5-.6 0-.8-.5-.4-1.1.5-.9-.8-1-4.5-.7-5.4.5-7.4-.4-4.4-2 1.6-1 1.5-1.2-1.2-2.2-2.3-.9-2.6-1.3-1.5-2 1-.6 1.6-.6 1.8 0 .2.6 1.2 1 2.3 1 1 0 1.9.6 1.9 1.4 0 1 1.8 1.6 5.5 2 4.7.6 5.5 1 5.5 2.8 0 1.7.3 1.8 1.5.8s1.5-1 1.5.1c0 .8.9.3 2-1.1 1.9-2.4 2-2.4 2-.3 0 1.2-.5 2.3-1.2 2.5-.7.3-.8 1-.4 1.7.7 1 1 1 1.7 0 .6-1 .9-1 .9-.2 0 .7.5 1.3 1 1.3s1-1.2 1-2.6c0-1.4-.4-2.3-1-1.9-.5.3-1-.3-1-1.4 0-1.2-.7-2.1-1.5-2.1s-1.5.5-1.5 1c0 .6-.5.8-1 .5-.6-.4-.7-1.1-.4-1.7.5-.8.1-1-1-.5-1.4.5-1.7.3-1.2-.8.3-.8.1-1.5-.3-1.5-.5 0-1.2.6-1.4 1.3-.3.7-.6.4-.6-.7 0-1.2-.6-1.6-1.6-1.3-.8.4-1.7.2-2-.3-.4-.6 0-1 1-1 .8 0 1.5-.9 1.5-2 0-2.4-1.7-2.7-2.2-.3-.3 1.5-.4 1.5-1.7 0-1.2-1.5-1.1-1.7.2-1.7 1 0 1.4-.6 1-1.5-.7-2 .1-2 2.1 0 1.5 1.5 1.6 1.5 1.6 0 0-.8.7-1.8 1.5-2.1 2.6-1 1.7-2.7-1-2-2.3.6-2.6.4-2-1.4.5-1.5.3-1.9-1-1.4-1 .4-1.4 1.3-1 2.1.4 1 0 1.3-1 1-1.1-.5-1.6-.1-1.4 1 .3 3.1 0 3.6-1.6 2.3-.9-.7-1.9-1-2.3-.5-.4.4-.1 1 .5 1.2.7.3 1.3.8 1.3 1.2 0 .4-.6.8-1.3.8-.6 0-2.8.4-4.7.8-3.3.7-3.4.7-1.5-.8a7.5 7.5 0 0 1 3.3-1.7c.6 0 1.2-.6 1.2-1.4 0-1-.7-1.2-2-.9-1.1.3-2 0-2-.5 0-.6-1-.9-2.1-.7-1.2.2-2.7-.2-3.5-1-2-2-1.7-2.7.8-2 2 .7 2.1.6 1-.9-1-1-1-1.6-.3-1.6.6 0 1.1.6 1.2 1.3 0 .6.4.3.9-.8.6-1.3.9-1.5 1-.5 0 1.3.1 1.3 1 0 .8-1.3 1-1.2 1 .3s.3 1.6 2 .7c1.1-.6 1.8-1.6 1.4-2.2-.4-.7-1-.6-1.6.3-.7 1-.8.6-.4-1.3.4-1.6.2-2.8-.4-2.8a1 1 0 0 0-1 1c0 .6-.5.8-1 .5-.6-.4-1.7-.1-2.5.5-1.2 1-1.5 1-1.5-.4s1.2-2.1 2.4-1.3c.2 0 1.3-1 2.5-2.3 1.1-1.4 2-2 2-1.3 0 .6 1 .9 2.1.6 1.1-.3 2 0 2 .6 0 2.3 1.8 1 2.3-1.8.7-3.3 4-5 6.2-3.1a4 4 0 0 0 3.2.7c3-.7-3.2-2.7-8-2.6-2.3 0-3.4.3-2.4.6 1.8.5 1.8.5 0 1.8a4 4 0 0 1-4 .4c-1.3-.5-2.5-.4-2.8.2-.4.5-1.4.8-2.3.7-1-.2-1.6.3-1.5 1 .4 1.5-2.8 5.3-3.9 4.6-.4-.3-.5.3-.1 1.3.5 1.4.2 1.3-1.4-.4-1.1-1.3-2.3-2-2.7-1.6-.3.3-.6.1-.6-.5s.5-1.4 1-1.7c.5-.3 1-.2 1 .2 0 1.2 3.8 1.4 4.5.2.4-.5-.2-1-1.2-1-1.4 0-1.5-.1-.4-.8.7-.5 1-1 .5-1.3-.5-.3-.4-.3.3-.2 1.5.4 4.5-3.5 3.7-4.8-.7-1 1-1 2.1 0 1.2 1 10-.6 9-1.6s-7-.8-7.7.3c-1 1.3-2.2 0-1.3-1.4.3-.6 1.6-1.1 2.8-1.2 2 0 2 0-.3-1-2-.8-2.7-.6-3.6.6-1.3 1.7-3 .3-1.9-1.5.3-.5.1-1-.4-1-.6 0-1.1.5-1.1 1s-.5 1-1 1-1-.7-1-1.5.5-1.5 1-1.5 1-.4 1-.8c0-1.2-4.3-1-5.3.3-.5.6-.6.1-.2-1 .3-1 .3-1.6 0-1.3-1 1-4.5-1-4.5-2.2 0-.6.8-.5 2 .2 1.4 1 2.2 1 3.3 0 1.2-1 1.6-1 2 .3.4.8 1 1.5 1.6 1.5.5 0 .5-1.2-.2-3-.8-2-1.4-2.6-2-1.7-.6.8-.7.7-.4-.4.8-2.4-2.8-4.2-4.7-2.3-3 3-5.3.4-2.9-3.3 1.4-2 1.1-2.7-1-2.4-.4 0-.7-.4-.7-1s-.6-.9-1.3-.6c-.6.2-2-.3-3-1.2-1.9-1.5-2-1.5-1.2.9 1.2 4 1.1 4.4-1.3 4.8-1.2.2-2.2 1-2.2 1.8s-.4 1.4-1 1.4c-.5 0-.7-.7-.4-1.5.7-1.7-.4-1.9-4-.5-1.4.5-2.6.6-2.6.2 0-1.5 1.6-3 3-3 5 .3 8-.3 8-1.7 0-.8-.5-1.5-1-1.5s-1-.7-1-1.6c0-1.3-.3-1.4-1.4-.5-2.7 2.2-4.3-1.6-1.7-4.2 2.7-3 2.8-4.6.1-2.2-2.4 2.2-2.7.9-.3-1.7.9-1 1.1-1.8.5-1.8-.7 0-.9-.7-.5-1.7s.3-1.4-.5-.9c-.7.4-1.2 1.4-1.2 2.2 0 1.2-.3 1.2-1.4.2-.8-.7-1.3-1.4-1.1-1.6.2-.2-.8-1.5-2.2-2.9-2-2-2.8-2.2-3.4-1.1-.7 1-.9 1-.9-.1 0-.8.8-2.3 1.8-3.4 1.6-2 1.6-2-.2-1.4-1.3.5-1.7.3-1.3-.8.5-1.1 0-1.4-2.3-1.1-4 .5-3.8-.8.8-3 3-1.5 3.3-1.9 1.7-2.2-1-.2-2.5-1.2-3.2-2-.7-1-1.3-1.3-1.3-.8 0 .6-.7.1-1.5-1-1.3-1.7-1.4-1.7-1.5-.2 0 2.4-2.6 1.2-3.5-1.5a9.8 9.8 0 0 1-.5-3.5c0-1-.5-1.2-2-.7-1.1.4-2 .2-2-.4 0-.6.8-1.1 1.8-1.1 1.4 0 1.5-.2.2-1-.8-.5-2.2-1-3-1-1.2 0-1.2.2-.2.9 1.1.7 1 1-.1 1.4-2.3.9-3.2-2.5-1.1-4 1-.7 2-1 2.5-.8.4.3 1 0 1.4-.5.3-.5 0-1-1-1-.8 0-1.5-.5-1.5-1.2 0-.6-.7-.4-1.8.5-1 1-2.6 1.7-3.6 1.7s-2.6.5-3.7 1c-1.3.8-1.9.7-1.9 0 0-.6.7-1.3 1.5-1.7 1.7-.6-1.7-3.7-4-3.8-.5 0-.9-.8-.7-1.8.2-1 0-1.7-.5-1.6-2.2.4-5.3-.2-5.3-1 0-.5.9-.7 2-.4 2.2.6 2.7-1.1 1-3.7-.8-1.3-1-1.3-1 .1 0 2.4-4.8 2.2-5.6-.3-.7-2.4-3.4-.6-3.4 2.3 0 1.2-.5 1.6-1.5 1.3-.8-.4-1.5-.1-1.5.5s-.5 1.1-1 1.1c-1.8 0-1-2.2.8-2.7 1.4-.3 1.8-1.1 1.4-3-.5-2.6-.5-2.6-1.3-.5-.5 1.2-1.3 2.2-1.8 2.2-.6 0-.7-.8-.4-1.8.6-1.5.5-1.5-1-.3-2 1.7-2.2.3-.2-2.3.8-1.1 1.5-1.4 1.5-.8 0 .7.5 1.2 1 1.2 1.3 0 1.3-3.7 0-4.5-1.2-.8-8 6-8 7.9 0 2.5 4.5 6.7 5.8 5.4 1.8-1.8 1.5.3-.4 2.3-.8.9-1.6 2.6-1.7 3.8-.1 2.4-1.2 2.8-2 .7-.3-.7 0-1.8.6-2.5.8-.8.6-1.6-.8-3-1.7-2-1.9-2-3.1-.3-1.2 1.5-1.3 1.6-1.4 0 0-.9.6-1.9 1.3-2.1.9-.4.8-.8-.3-1.6-.8-.6-1-1-.4-1 .7 0 1.5-2.2 1.9-4.8.4-2.6 1.4-5.2 2.2-5.8 1.4-1 1.4-1.4-.3-3.3-1-1.2-2.3-2.2-2.9-2.2-1.1 0-1.3 5.9-.2 7.7.4.6.3 1.4-.2 1.7-.5.4-1.2-.2-1.5-1.1-.3-1.2-.5-1-.4.7 0 4.7-.2 5.1-2.4 4.8-1.8-.2-2.2.2-2.3 2.5a8.2 8.2 0 0 1-1.3 4c-1.6 1.5-1.5 2.7.2 2.7 2.3 0 2.9 1.9 1.2 3.6-2 2-2 3.5-.2 2.8 1-.4 1.3 0 1 1.8-.5 1.8-.4 2 .5.8 1-1.3 1-1.3 1 .2 0 1 .8 2 1.6 2.6 2.2 1.2.9 4.1-1.6 3.5-1-.3-1.6-1-1.3-1.4a1 1 0 0 1 1.5-.4c.5.4.9.2.9-.3 0-1-2.6-2.5-5.2-2.7-1-.2-1.4.3-1.1 1.1.3.8 1.2 1.4 2.1 1.4 1.3 0 1.2.3-.4 1.5-1 .8-1.4 1.5-.7 1.5s1.2.3 1.2.8c-.4 2.7.2 4.4 1.6 3.8 2.3-.8 1.8 1.2-.7 2.5-1.8 1-2 .9-1.5-.5.4-1 .3-1.5-.3-1-.6.2-1-.5-1-1.8l-.1-2.3-1.1 2.3c-.6 1.2-1.5 2.2-2 2.2-1.5 0-.8 3.9 1 5 1.1.6 1.3 1.2.6 1.7-1.3 1-2.8 6.3-1.7 6.3.7 0 .9 3.4.4 7-.2 1.6-2.1 1.1-2.1-.6 0-.8-.5-1.2-1-.9-.5.3-1-.3-1-1.4 0-1.2-.4-2.1-1-2.1-.5 0-.8.9-.7 2 0 1.1.5 2 1 2s.4.6-.2 1.4c-.8 1-.9 1.6-.1 2 1.6 1 1.2 2.6-.5 2-1-.5-1.3-.2-.9 1 .3.9.2 1.6-.2 1.7l-3 .3c-1.5.2-2.4-.4-2.8-1.7-.3-1.2-1-1.6-1.7-1.1-1 .6-1 .9 0 1.2 1 .3 1 .7-.1 2s-1 1.5.5 1c2.1-.9 2.2-.4 0 2.1-.9 1.1-2.1 1.7-2.6 1.4-.6-.4-.8 0-.4 1.1l.7 2.2c0 .2 1.3-1 2.9-2.8l2.8-3.2 1.2 2.3c1.4 2.6.5 4.4-1 2-1.2-1.9-4 1.5-3.2 3.9.4 1 .2 1.3-.6.8-.9-.6-1 0-.5 1.8.7 3-1 3.6-2.4 1-.8-1.5-1-1.4-2.4.5-.8 1.1-1.8 1.8-2.1 1.4-.4-.3-.8.2-.8 1.3 0 1-.5.2-.9-2-.7-3.9 0-7.7 2.7-13 1-2.2 1.1-3.1.2-3.7-.9-.5-1-1.5-.2-3.6.6-1.5 1-5.5 1-8.8l-.2-6-3 .2-3 .2 2.4-2c1.3-1 1.8-1.9 1-1.9s-.5-.8.7-2.2c1.7-2 1.7-2 .2-1.5s-1.8 0-1.8-2.3c0-2-.5-3-1.5-3-.8 0-1.5-.5-1.5-1 0-.7.9-.9 2-.5s2 .2 2-.4c0-.6-.4-1.1-.9-1.1-.4 0-2-1.1-3.5-2.5-2.4-2.2-2.4-2.5-.9-3.4 1.7-.9 1.7-1 0-3-1.4-1.4-1.5-2-.5-2.4.8-.4.6-.6-.5-.6-1 0-1.5-.6-1.2-1.1.4-.6.1-1.7-.5-2.5-.7-.9-1-2.6-.6-4 .5-1.8.3-2.4-.4-2-.6.3-1-.3-1-1.7 0-2.7-1-4.3-3-5-1-.4-.7-.7.8-.7 2.8-.1 2-2.1-.9-2.1-1 0-1.9-.5-1.9-1.1 0-.6.7-.9 1.5-.5 1 .4 1.5-.1 1.5-1.7 0-1.8-.2-2-1.1-.7-.8 1.2-1 .9-.5-1.3.6-2.6-.8-4-1.6-1.5-.3.7-1-.2-1.6-2-.7-2-.7-3.2 0-3.2.5 0 .6-.5.3-1-.4-.6-1-.8-1.5-.5-.8.5-1.6-2.5-2.9-11.3-.4-3-1.3-5.7-2-6.2-.8-.4-1-1.3-.7-1.9.4-.6.2-1.1-.3-1.1-.6 0-1.1-.7-1.1-1.5s-.6-1.5-1.4-1.5c-.7 0-1.6-1-2-2.3-.9-3.2-.7-3.9.6-3.1.8.5 1 .2.5-1-.4-1-.7-2.3-.7-3 0-.6-.4-.5-1 .4-.7 1-1 1.1-1 .2 0-.7-.4-1-1-.7-1.1.7-3.3-3.2-2.5-4.5.4-.6-.9-1.7-2.8-2.5-2.8-1.1-3.4-1.9-3.2-4.2 0-1.5-.5-4-1.2-5.3-.7-1.4-1.3-2.9-1.3-3.3 0-.5-1.3-2-3-3.4-1.7-1.3-3-3.1-3-3.9 0-.8-.5-1.4-1-1.4s-.9-.6-.8-1.3c.2-.7-.6-1.1-2.2-1-1.4.1-2 0-1.3-.3s1.3-1 1.3-1.5c0-.6-.5-.7-1-.4-1.6 1-4-1.5-4-4.1 0-1.3-.6-2.5-1.3-2.5a193.4 193.4 0 0 1-5.6-.8c-.8 0-1-.7-.7-1.7.4-1-.8-2.9-3.4-5.4-2.2-2.1-4-4.3-4-4.9 0-.6-.7-.8-1.7-.4s-1.4.3-.9-.5c.4-.7.2-1.2-.5-1.2-.9 0-.9-.3 0-1.4 1-1.2.9-1.5-.6-1.5-1 0-2.7-.2-3.8-.5a23 23 0 0 0-3.3-.5c-.7 0-1.2-1.4-1.2-3.1 0-1.8-.6-3.3-1.5-3.6-.8-.4-1.3-1-1-1.4.8-1.2-4.3-1.8-5.4-.7-.8.8-1.1.2-1.1-2 0-2.1-.7-3.3-2.4-4.3a6.5 6.5 0 0 1-3-3.3c-.4-1.7-.8-1.8-2-.8-.8.7-1.7.8-2 .2-.3-.5-1.5-.7-2.5-.4-1 .3-2.2 0-2.5-.6-.4-.6-.3-1.1.2-1.1.6 0 0-2-1.2-4.4-1.1-2.4-2.6-4.1-3.2-4-.6.3-1.4-.2-1.7-1-.4-.9-1.3-1.6-2-1.6-.8 0-1.7-.9-2-2-.3-1.2-1.4-2-2.6-2-1.4 0-1.9-.5-1.5-1.5.4-.8.1-1.5-.5-1.5s-.8-.7-.5-1.5c.4-1 0-1.5-1.5-1.5-1.3 0-2.1-.6-2.1-1.6 0-1.3-.7-1.5-3-1-2.2.4-3 .2-3-1 0-.7-.3-1.3-.8-1.3-2.6.4-4.3-.5-5.8-3-1-1.7-2.1-2.8-2.6-2.5-.4.3-.8-.3-.8-1.3 0-1.5-.2-1.6-1-.3-.8 1.2-1 1.2-1.5-.2-.9-2.2-5.5-2-5.5.2m135 1.6c0 1.6 2.3 4.4 3.5 4.4.8 0 1.5.7 1.5 1.5s-.6 1.5-1.4 1.5c-.8 0-1.6.6-2 1.3-.2.6-1-.3-1.6-2-1-2.6-1.5-3.1-2.5-2.3-.7.6-2 .8-2.8.4-.8-.3-1.8 0-2.2.5-.3.6-.2 1.1.3 1.1s2 1 3.3 2c3.3 3 18.9 12 19 11.2 0-.4.4 0 1 1 .5 1 1.9 1.8 3 1.8 1 0 1.9.4 1.9.8 0 .5 2.4 1.9 5.3 3.2 2.8 1.2 6 3 6.9 3.7a44 44 0 0 0 10.1 6c1.3.4 1.7 1.2 1.3 2.5-.4 1.8-.1 2 2.7 1.4 2.3-.4 2.8-.3 1.7.4-1.3.9-1.3 1 0 1 .8 0 2.7.6 4.2 1.4 2.8 1.5 3.8 1.2 3.8-1.2 0-.8-.6-1.2-1.4-.9-.7.3-2.6-.8-4.2-2.4-1.6-1.6-3.4-2.7-4-2.5a2 2 0 0 1-2-.4c-.3-.6 0-1 .6-1s.5-1.1-.5-3c-.9-1.7-2.3-3-3.1-3-1.2 0-1.5-.6-1-2 .3-1.6 0-2-1-1.6-.8.3-1.4 0-1.4-.5 0-.6-1.1-.9-2.5-.7-2 .2-2.9-.3-3.8-2.2a5.6 5.6 0 0 0-3.5-2.8c-1.2-.2-2-.7-1.7-1.1.2-.5-2-1.6-5-2.6-4-1.2-5.5-2.1-5.1-3.1.3-.8 0-1.4-1-1.4s-1.4-1-1.4-3.3c0-3.2-.1-3.3-3.4-2.9-4 .5-9.6-2.5-7.4-4 .9-.5.4-.8-1.5-.8-1.5 0-2.7.3-2.7.6m-314 9.4c0 .6-.8 1-1.8.8-1.1-.2-1.6.3-1.4 1.5.3 1.8-1.3 2.4-2.3.7-.3-.5-1.2-.7-2-.3-1.1.4-1.3.9-.5 1.8.8 1 0 1.4-3 1.9-2.6.4-4 1.2-4 2 0 .9-1.1 1.8-2.5 2.2-1.4.3-2.5 1.1-2.5 1.8s-.4.6-.9-.2c-.6-1-1.1-.6-1.9 1.6-1.1 3.3-7 9.9-8.3 9.5-.5-.2-.9.4-.9 1.2 0 .8-.4 1.5-1 1.5-.5 0-1.7 1.5-2.6 3.3l-2.3 3.7c-.3.3-.6 1.2-.6 2s-1 1.6-2.3 1.8c-2 .3-2.6 1.2-2.3 3.8 0 .6-.6 1.7-1.4 2.4-.8.7-1.5 1-1.5.5 0-1.1-8 8-8 9.1 0 .6-.7 1.7-1.5 2.4s-1.2 1.6-1 2.1c.4.5-1.4 3-4 5.4-2.4 2.4-4.5 5.1-4.5 6 0 .8-.5 1.5-1 1.5s-1 .7-1 1.6c0 1-1.6 3.2-3.6 5-2 1.9-3.3 3.4-2.9 3.4.3 0-.3 1.3-1.4 2.9-1.1 1.5-1.8 3-1.5 3.3.2.3-1.1 1.3-3 2.2-3 1.4-4.4 3.5-3.4 4.8 0 .2-1 1.6-2.5 3.2s-2.7 3.5-2.7 4.3c0 .8-1.3 2.8-3 4.6a15 15 0 0 0-3 4c0 .4-.8.7-1.8.8-1 0-1.2.3-.5.6 1.7.6-.9 3.3-3.1 3.3-1 0-1.6.9-1.6 2 0 3-7.3 17.9-8.8 18-1.1 0-1.4.5-1.6 3.3-.1 1.7-2.8 4.7-4.2 4.7-1.3 0-2.8 2.8-2.5 4.6 0 .7-.8 1.4-1.9 1.7-1.2.3-2 1.3-2 2.6s-1 2.6-2.4 3.2c-1.4.7-2.2 1.7-2 2.5.4.8.2 1.4-.4 1.4-.5 0-.7 1.1-.4 2.5.2 1.4 0 2.5-.7 2.5-.5 0-.8.6-.5 1.4.3.7-.2 1.6-1 2-.9.3-1.6 1.2-1.6 2 0 3-5 10.1-5 7.4-.1-.7-.8 1.2-1.6 4.2s-2.1 6.1-3 7c-.7 1-1.4 2.2-1.4 2.8 0 .7-.7 1.2-1.5 1.2s-1.5.9-1.5 2a7 7 0 0 1-2 4c-1.1 1.1-2 2.7-2 3.5 0 .8-.5 1.5-1.1 1.5-.7 0-1 1.2-.7 3 .3 1.7.1 3-.3 3-2.7 0-4.9 16.8-2.6 19.8.6.8.6 1.2-.1 1.2-.6 0-.9.6-.6 1.4.3.8 0 1.7-.5 2-.6.4-1.1 1.8-1.1 3.2 0 1.7-.4 2.3-1.2 1.8-.7-.4-.8-.3-.4.4s0 1.2-.9 1.2-1.3.5-1 1c.3.5 0 1-.5 1-.7 0-1 .6-.7 1.4.4.9-.3 1.7-1.6 2-1.7.6-1.9.9-.7 1.4 1.7.8 2.6 4.2 1 4.2-2.1 0-.9 4 1.8 5.7 1.5 1 3 2 3.2 2.4.3.4 2.5 1 5 1.4 4.2.7 8.7 2.4 6.5 2.5-2.3 0-1.5 4.7 1 5.8 4.4 2 11.2 1.5 11.8-.8.3-1.1.2-2-.3-2-1.3 0-2.1-3.2-1.1-4.4.5-.6.7-3 .5-5.4-.2-2.5.2-5.4 1-7.1 1.1-2.1 1.2-3 .3-4-.8-.8-.8-1.1.1-1.1.7 0 1.2-.9 1.2-2 0-1 .9-2.5 2-3.2 1.1-.7 2-1.8 2-2.5 0-1.2 2-1.8 4.3-1.4.5 0 .7-.4.4-1.1-.2-.7-1.2-1.2-2-1.2-2.4.2-2.1-1.3.3-1.9 1.1-.3 2-.1 2 .4s.5.9 1.1.9c.6 0 .8-.7.5-1.6-.3-.8 0-2.5 1-3.8.7-1.2 1.1-2.5.8-2.8-.3-.4 0-1.7.7-3 .7-1.2 1.4-4.5 1.5-7.3.2-7.6 1.4-12.2 3.5-14 1-1 1.9-2.2 1.9-2.8 0-.5.8-2 1.8-3.5s3.1-5.7 4.6-9.3a59 59 0 0 1 6.7-11.4 24 24 0 0 0 4.4-7.4c.3-1.4 1-4 1.6-5.6a363 363 0 0 0 2.9-8.7c1-3 2.3-6.2 2.9-7a183 183 0 0 0 18.9-28.8 52.5 52.5 0 0 1 7.2-11.7c1.4-1.1 3.2-3.4 4-5a61 61 0 0 1 3.2-5.4c.9-1.4 1.8-3.2 2-4 .2-.7 1-2.2 2-3.3 1-1 1.8-2.6 1.8-3.3 0-.7.3-1.3.8-1.3.4 0 1.6-1.6 2.7-3.6 1-2 3-4.5 4.4-5.5a7.3 7.3 0 0 0 2.7-4.7c0-1.5.2-3.2.3-3.8 0-.6 1.2-1.6 2.5-2.4 1.3-.7 2.7-2 3-2.9.4-.9 1.4-3 2.3-4.5 1.2-2.2 1.3-3.4.5-4.6-1.2-2 4.5-9 7.3-9 .8 0 1.5-.5 1.5-1 0-.6.4-.9 1-.6 1.3.9 5.7-4.8 8.7-11.2 1.4-3.2 3.7-7.2 5-9 1.4-1.9 2.6-4.5 2.7-5.8 0-1.3.6-2.2 1.2-2 .7.3 1.2-1.5 1.3-5 0-3 0-5.4-.4-5.4-.3 0-.5.5-.5 1m580 44.7c0 1.6 2.5 7.3 3.2 7.3.4 0 .8 1.2.8 2.6 0 1.4.4 2.3 1 1.9.5-.3 1 0 1 1 0 .8.5 1.5 1 1.5s1 .5 1 1c0 .7.6 1.8 1.4 2.5.7.8 1.3 2.9 1.2 4.7-.2 3.4 1.2 6 2.8 5 .5-.3.6.6.3 2-.6 2.2-.3 2.7 1.7 3.2 1.4.3 3.1 1.3 3.9 2 1.3 1.3 1.4.3 1.3-7.9 0-8.5-.3-9.5-2.5-11.4-2.1-1.9-2.2-2.2-.7-3.6.9-1 1.5-2.6 1.5-3.8-.1-1.7-.2-1.8-.6-.5-.7 2.9-2 2-3.1-2-.9-3.3-1-3.4-1.1-1-.2 4.2-1 4-9.7-3.2-.7-.5-1.5-.6-1.8-.3-.3.4-.6.1-.6-.5 0-.7-.5-1.2-1-1.2s-1 .3-1 .7M1077 1259c0 .5-1.1 1-2.4 1a62 62 0 0 0-21.1 9.9 21 21 0 0 1-5.4 3.6c-1.2.3-1.9 1-1.6 1.6.3.5-.2.6-1.1.2-1.1-.4-1.5-.3-1 .4.9 1.6-.4 4.3-2 4.3-.8 0-1.4.6-1.4 1.3 0 1.6-3.5 5.7-4.8 5.7-.6 0-1.2.4-1.4.9-.1.4-1.6 2.5-3.3 4.5-1.6 2-3 4.7-3 5.9 0 1.4-.6 2.2-1.7 2.2a4 4 0 0 0-2.4.8c-1 1 3.4 5 4.6 4.2.6-.3 1-.2 1 .4 0 .6.7.8 1.5.5.8-.3 1.3-1 1.2-1.7-.1-.6 1.4-1.1 3.6-1.1 3.5-.1 4 .2 6 4.4 1.3 2.5 3 4.6 3.8 4.8.8.2 2 1.2 2.8 2.2.7 1.1 2 2 2.7 2 .8 0 1.4.4 1.4 1 0 1 4 2.3 7.5 2.4 1.1 0 1.9.7 1.8 1.3-.2.7.6 1.3 1.6 1.3 1.1 0 2.3.5 2.6 1 1 1.6 4.3 1.2 5.5-.8.9-1.4 1-1 .5 1.5-.8 4.2 2.4 4.7 4.9.8 2-3 2-3.5.1-3.5-.8 0-1.5-.9-1.5-2 0-1.7.5-2 2.8-1.4 1.8.4 2.3.3 1.4-.4-1-.7-.7-1.1 1.4-1.6 2.4-.6 3.2-.3 5 2 1.3 1.5 2 3.1 1.8 3.5-.3.5.9.6 2.5.4 2.4-.3 3 0 3 1.3-.2 1-.1 2.8 0 4.2l.2 2.5 1.2-2.5c1-2.4 1.1-2.4 1.5 1.3.3 3.3.6 3.7 2.4 3.1 1.7-.5 2-.3 1.6 1.4-.5 1.8 1.7 2.4 4.9 1.3.1 0-.3-1.5-.9-3.2-.8-2.3-1.3-2.7-2-1.7-.5.9-.8 1-.8.1 0-.6.5-1.5 1-1.8.5-.3 1-1.1 1-1.7 0-.7-.5-.6-1.5.2-1.7 1.4-3.9.4-2.8-1.3.4-.7.6-3.1.6-5.5-.2-3 .2-4.5 1.2-4.9.8-.3 1.2-1 1-1.4-.4-.5-1-.7-1.5-.4-.5.3-1.1 0-1.5-.5-.3-.5 0-1 .6-1 .7 0 1-.3.6-.6-.3-.4-.1-1.6.4-2.7.8-1.5.8-2.2-.2-2.8-1.4-.8 0-1.4 2.3-1 1.3.2.9-.9-1.2-3.1-1.1-1.2-2-2.8-2-3.5 0-.7.9-2.2 2-3.3l2-2h-2c-1.7 0-2-.7-2-5 0-2.8.5-5 1-5 .6 0 .5-.8-.2-2-.7-1-1.5-1.7-1.8-1.5-.4.2-1.2-.4-2-1.5-.7-1-2-1.6-2.7-1.3-.8.3-1.3-.2-1.3-1.5 0-2.7-2.5-7.3-3.5-6.4-.5.4-.5 0-.2-1 .4-1 .2-1.8-.3-1.8s-.7-.7-.4-1.5c.4-1 0-1.5-1-1.5-.9 0-1.6-.4-1.6-1 0-.5-.7-.7-1.5-.4-1.1.5-1.3.2-.9-1s.2-1.5-.9-1c-.8.3-1.8 0-2.2-.5-.8-1.4-3.5-1.4-3.5-.1m-48.3 195.7c-.4.3-.7 1.5-.7 2.5s-.7 1.8-1.6 1.8c-.8 0-1.2-.5-.9-1 .3-.5.1-1-.4-1a1 1 0 0 0-1.1 1.1c0 .6-.8 0-1.8-1.2l-1.9-2.2-3.5 3.6c-3.2 3.2-3.6 3.4-4 1.7-.4-1 0-2 .6-2.3.6-.2.8-.8.3-1.3-.4-.4-2.7 1.1-5 3.4a23.2 23.2 0 0 1-5 4.2c-.5 0-1.5.7-2.3 1.5-1 1-2.6 1.3-4.2 1-2.1-.4-2.3-.3-.7.3 1.8.8 1.7 1-.7 1.4-1.5.3-2.9 0-3-.5-.5-1.4-4.8 1-4.8 2.6 0 .7-2 1.9-4.5 2.6-5 1.5-6.3 2.7-4.6 4.4 3 3 .4 3.6-2.9.7-1.5-1.3-1.8-2-.9-2 1.1 0 1.2-.2 0-.9-1-.7-1-1 .3-1.4 1.2-.5 1.3-1.3.5-4.2-.6-2-.7-4-.4-4.5.6-1-3.4-1.4-8.4-1-3.5.3-5.4 2.6-4.7 5.6.6 2.1 1 2.4 2.1 1.4 1-.8 1.5-.8 1.5-.2 0 .6-.5 1.2-1 1.4-.6.2-.8 1.1-.4 2.2.4 1 1 1.3 1.3.7 1-1.5 5.3-1.8 5.8-.3.3.7-.5 1.2-2.2 1.2-2.8 0-4.1 1-6.9 5.2-1.1 1.7-1.3 2.8-.7 3.3.8.4.8 1.2.1 2.5-1.6 3-1.2 4.3 1 3.7 1.6-.4 2-.2 1.6.9-.7 1.7 1.5 1.9 3.2.2 1-1 1.2-1 1.2 0 0 .7-1 1.7-2.4 2.1a5.6 5.6 0 0 0-3.6 5.3c0 .6.7.7 1.6.4 1.3-.5 1.5-.1 1.2 2-.3 1.3-.1 2.7.3 3 .5.3 1 0 1-.8a12 12 0 0 1 2.3-7c.9-1.2 1.6-1.9 1.6-1.4s.8 0 1.9-1.3l1.9-2.1.6 3.4c.7 3.5 5.3 7.7 6.5 5.9 1-1.6 5-3.4 6-2.8.6.3 1.2 0 1.6-.5.3-.5 1.4-1 2.3-1 1 0 2.5-1.4 3.4-3 1-1.7 1.3-2.8.8-2.5-.6.3-1-.4-1-1.6v-2.3l2.1 2.3c1.7 1.8 1.9 2.5 1 3.1-.9.5.3 1 3 1.5 5 .9 6 2 4.8 5.1-.7 2-.3 3 2.1 5.6 2.3 2.4 3 2.8 3 1.5 0-1-.4-1.7-1-1.7-1.3 0 1-6.7 3.2-9 1-1 1.8-2.5 1.8-3.2 0-.8.5-.6 1 .5.6 1 .9 2.1.6 2.6-.3.5.3 1.1 1.4 1.4 1.1.3 2 1.4 2 2.4s.5 2.4 1.1 3c.6.6 1.1 2.8 1.1 4.8 0 3.5 0 3.6 1.8 1.8 1-1 1.6-2 1.4-2.2-.1-.2.2-.9.9-1.6 2.9-3 9.3 2.8 6.6 6-1.2 1.5-.8 7.7.6 8.8.6.6.6 1-.3 1.4-.6.2-1.2 1.3-1.2 2.4 0 1-.5 1.9-1 1.9s-1 .9-1 2 .5 2 1 2c.6 0 .8-.5.5-1-.3-.5-.1-1 .4-1 .6 0 1.1-.6 1.1-1.4 0-.8.6-1.7 1.3-2 .9-.3.8-.5-.2-.5-.9 0-.4-1 1.3-2.6 1.4-1.3 2.6-2.9 2.6-3.5 0-.6.5-.8 1-.5.5.3 1 0 1-.9 0-.8.9-1.8 2-2.1 1.1-.3 2-1.3 2-2.2 0-1 .4-1.3 1.3-.6 1 .8 2.5 1 4.5.3a19 19 0 0 1 4.5-.8c1-.1 1.6-.6 1.3-1.1-.3-.5-1.5-.7-2.5-.4-1 .3-2.2 0-2.5-.6-.5-.7.4-1.1 2.3-1.1 2 0 3.1-.5 3.1-1.4 0-.8.8-2 1.8-2.8 1-.7 1.7-1.9 1.8-2.5l.3-2.3c0-.5 2.1-1 4.6-1 3.6 0 4.5-.4 4.5-1.7 0-1.2.3-1.4 1-.6.9.8.8 1.7-.2 3.2-1.1 1.9-1 2.4.2 3.4.8.7 2 2.1 2.6 3.2a6 6 0 0 0 2.5 2.3c.8.3 1 .1.7-.3-.4-.4 0-1.4.7-2.2.8-.8 1.3-2.4 1.1-3.6-.5-3.3 1.4-4.7 3.6-2.5s4.8 2.4 4.8.3c0-.8.5-1.5 1-1.5s1 1 1 2.4c0 1.9.4 2.3 1.9 2 1.8-.6 6.1 2.2 6.1 3.8 0 .5-1.1 1.3-2.5 1.8-2.4 1-3.6 4-1.5 4 .5 0 1 .7 1 1.5s.5 1.5 1 1.5c.6 0 .8-.5.5-1-.8-1.3.8-1.3 2 0 .6.5 2 .2 3.5-1 1.4-1 2-2 1.3-2-.6 0-.9-.9-.6-2 .6-2.4 1.1-2.5 3.5-.3 1.6 1.4 2.3 1.5 3.9.5 1.7-1.1 1.9-1 1.9 1.8 0 3 3.4 5 6 3.6.5-.4 1.2.5 1.6 1.9.3 1.4 1 2.5 1.4 2.5.5 0 1 .8 1.3 1.8.4 1.5.5 1.5.6 0 0-1.1.7-1.5 2.1-1 2.7.6 2.5 1.6-1 4.3-1.5 1.3-2.6 2.7-2.4 3.1.3.4 0 .8-.5.8-1 0-1 2.9 0 3.3.4.1 2.1-1 3.9-2.3a15 15 0 0 1 4.9-2.7c5.1-.6 6.7-1.6 7.4-4.4.5-1.8.2-2-1.7-1.7-3.4.7-5-2.4-2.5-4.6 2.3-2 2.1-5.2-.3-4.8-2 .3-4.3-2.3-2.8-3.3.5-.3 1-1.5 1-2.7 0-1.7-.2-1.8-1.5-.8a5 5 0 0 0-1.5 3.4c0 1.1-.7 3-1.5 4-1.8 2.3-2 1.5-1.5-6.2.2-3.7 0-4.3-1.7-4-1.2.2-1.9-.4-2.1-1.9-.3-1.7 0-2 1.7-1.6 1.2.3 2.1 0 2.1-.6s-.7-1.1-1.6-1.1c-.9 0-1.8-.9-2.1-2-.8-3.2-2.3-2.3-1.6 1 .5 2.5.2 3-1.5 3-2.2 0-3.7 2.6-2.1 3.6.5.3 1.6 0 2.4-.6 1.3-1 1.5-.8 1.5 1.7 0 1.6.5 3.4 1.2 4 .6.7.8 1.6.4 2-.4.4-2-.7-3.5-2.5-1.6-1.7-3.4-3.2-4-3.2-.6 0-1.1-.5-1.1-1 0-.6-1.3-1.6-3-2.1-1.6-.6-2.7-1.5-2.4-2 .3-.5 1-.7 1.4-.4.8.5 4-3.1 4-4.5 0-.3-1-.7-2.2-.7-1.3-.1-2.8-1-3.4-1.8-1-1.2-1.3-1.3-1.7-.3-.2.7-.8 1-1.2.6-.5-.5 0-1.7 1-2.8 1-1.1 1.3-2 .7-2-.6 0-1.3-.8-1.5-1.8-.4-1.6-.5-1.6-.6 0 0 1.1-.6 1.5-1.6 1.2-2.2-.9-1.8-2 .8-2.8 2.1-.6 2.1-.6-.8-2.4-3.3-2-6.7-1.8-5.8.4.3.8 0 1.4-.6 1.4s-1.1 1.5-1.2 3.3v3.2l-1.5-3.4c-.8-1.8-1.3-4-1-4.7.7-1.8-3.6-4.6-5.7-3.8-1 .3-2.2-.4-3.3-2.1-1.5-2.3-1.9-2.4-2.6-1-.5.8-1.4 1.5-2 1.5-.7 0-.7-.4 0-1.3.7-.8.9-1.7.5-2-.3-.4.1-.7 1-.7 1 0 1.5-.5 1.2-1-.4-.7-1.3-.9-2-.6-2 .8-2.9-1.2-1.3-3.1 1.1-1.5 1-1.6-.4-1-1 .3-2 .2-2.3-.3-.4-.7-1.3-.6-2.5 0-2.5 1.3-3 1.3-2.8-.3.2-.7-.5-1-1.5-.9-1.2.2-1.6 0-1.2-.7.4-.7-.4-1.1-2-1.1-1.3 0-2.5-.5-2.5-1 0-1.7-2.2-1.1-5.5 1.4-2 1.6-4 2.3-5.3 2-1.7-.5-2.4.1-3.5 2.9-1.4 3.2-3.7 5.8-3.7 4a27 27 0 0 1 4-9.7c1.2-1.5 1-1.7-1.2-1.4a10 10 0 0 0-4.3 1.8c-1.6 1.4-1.7 1.2-1.3-2.2l.4-3.8-3.8.2c-2.1 0-4.4-.4-5-1-1.4-1.4-2.2-1.5-3.1-.5m-6.5 12.5c-.7.7-1.2 1.6-1.2 2 0 1.8-7.5 9.8-9 9.7-4.7-.4-5.7 0-5.3 2.6.5 2.1.7 2.2 2 1 .8-.8 2-1.5 2.6-1.6l6.7-.2c5.4-.2 5.5-.3 5.2-3-.3-2.2.2-2.9 2.4-3.8 2.1-.7 2.5-1.2 1.5-1.9a2 2 0 0 1-.8-2.3c1-2.7-2-4.6-4.1-2.5m-100.5 20.5c-1 .2-1.7 1-1.7 1.8 0 .7-.7 1.5-1.5 1.9-.8.3-1.5.1-1.5-.3 0-.5-.9-.7-2-.4-1.3.3-2 1.4-2 3 0 1.7-.5 2.3-2.3 2.2-2.1 0-2.1 0-.2-.9 1.4-.6 1.6-.9.5-1-6-.6-7-.5-7 1-.1 1-.3 1-.7.3-.8-2-3.2-1.5-7.4 1.5-5.1 3.6-5 4.8.3 4.3 1-.1 1.6.3 1.5 1-.2.8-.2 1 0 .7.3-.5 1.3-.8 2.4-.8 1 0 1.9-.5 1.9-1 0-.6.5-.8 1-.5.8.5.8 1 0 2s-.7 1.4.2 1.8c.7.3.3.6-1 .6-2.6.1-2.7.7-.7 2.7 1.2 1.2 1.5 1.2 1.5.2s.3-1 1 .2c.9 1.1 1.3 1.2 1.7.3.2-.7 1.7-1.3 3.3-1.3 1.5 0 3.3-.7 4-1.5.7-.8.8-1.5.3-1.5s-1-.9-1-2c-.2-2.4 2.8-2.7 5-.5 1.4 1.3 1.6 1.1 2.2-1.6.5-2.4 1.1-3 2.8-2.7 1.2.2 2 1 2 1.6-.4 1.5 2 4.2 3.6 4.2.6 0 .8-.6.5-1.4-.3-.8 0-2.4.6-3.5.7-1.3.7-2.1 0-2.1-.5 0-.7-.7-.4-1.5.4-.8 1.7-1.5 3-1.5 2.3 0 3.5-3.2 1.6-4.3a33 33 0 0 0-11.5-1m226 26.2c-.3 1.1-.2 2.2.1 2.6 1 .9 1 4.5 0 4.5-.4 0-.8.5-.8 1 0 1.5 1.6 1.2 3.4-.5 1.3-1.3 1.5-1.3 1.8.7.2 1.5.9 2.2 2 2 1.1-.2 1.4.4 1 2.1-.5 3 2.3 4.4 3.7 2 1-1.7 1-1.7 1 0 .1 2 2.7 2.3 4.6.3 2-1.9-3-8.5-6.3-8.6-1.6 0-2.2-.6-2.3-2.3-.1-1.6-.2-1.8-.6-.5-.2 1-1 1.8-1.8 1.8-1.1 0-1.2-.6-.5-2.5.6-1.5.6-2.5 0-2.5-.4 0-1 .8-1.3 1.8-.3 1.3-.6 1-1.1-1-1-3.3-2.2-3.6-2.9-.9m-219.2 52.6c-1.6.8-4.2 1.4-5.7 1.5-1.5 0-3 .5-3.3 1-.3.5-1.5 1-2.5 1-2.2 0-13.9 7.6-14.6 9.4-.3.8-2.3 2.2-4.4 3.2-2.9 1.4-4 2.5-4 4.2 0 1.2-.5 2.2-1 2.2-1.4 0-1.3 1.9.3 3.3 2.2 2.2 7.2 5.2 8 4.9.6-.2 1.7.3 2.6 1 3 2.6 10.5 4.1 18.6 4a124 124 0 0 0 35.7-4.2c4 0 14.8-2.8 17.6-4.6 1.2-.8 3-3.1 4-5.1 2.3-5 3.7-5.1 6-.5 1.2 2 2.6 4.3 3.4 4.9 2.6 2 13.8 5.3 18.5 5.3l21.7.6c13.2.4 17.1.2 17.7-.8.5-.7.9-.8.9-.2 0 1.1 2.8 1.2 4.6.2a17 17 0 0 1 5-1.2c10.4-1.4 10.8-2.1 4.7-8.3-4.6-4.7-5-5-10-4.8-4.4.2-5.6-.2-6.4-1.7-2.2-4.1-8-7.7-11.2-7-.5.2-.6-.2-.3-.7 1-1.4-8.1-3.3-17.4-3.6-4.7-.2-11.2-.8-14.6-1.4-4-.8-7.6-.8-11.1-.2-5.6 1.1-9.3.8-10.3-1-.4-.6-2.1-.8-3.8-.6-1.7.3-3.4.2-3.7-.1-.4-.4-3.2-.8-6.3-.9l-20.7-.6c-11.5-.4-15.7-.2-18 .8m318.6 23.9c0 1.3-.4 1.6-1.3.8-1-.7-1.7-.6-2.5.3-1 1-1 1.5 0 1.9.8.3.5 1-1 2.2-2.7 2-3 3.4-.7 3.4.9 0 1.2.5.8 1.1-.4.7-.1 1 .7.7.8-.3 1.3-1 1.2-1.6-.1-.5.6-1.2 1.6-1.5 1.4-.3 1.8.1 1.8 2 0 3.5 2 5 2.8 2.4.8-2.8 2.8-1.6 2 1.2l-.6 2.2 2-2.2c1.6-2 2-2 3.1-.8 1.3 1.6 3.5 2 2.5.6-.3-.5 0-1.2.5-1.6 1.6-1 1.2-2.8-.5-2.1-1 .3-1.5 0-1.5-1a4 4 0 0 0-4.9-3.7c-1.6.4-2.1 0-2.1-1.5 0-2.3-2-4.1-2-2-.1.7-.5.4-1-.7-.8-1.9-.9-1.9-1-.1m-691.6 84c-1.6 1.2-1.4 1.4 2.4 2 3.4.6 4 1 3.2 2-.8 1-.3 1.5 2.5 2 2 .4 3.5 1.2 3.5 1.8 0 .5-.7.8-1.5.4-.8-.3-1.5-.1-1.5.4 0 .6 1 1 2.2 1 2.1 0 2.1 0 .2 1.6-1.8 1.5-1.8 1.5 0 1 1-.4 2.5-.1 3.2.5.7.6 1.8.8 2.3.5.5-.4 2.1.5 3.5 1.9s3 2.5 3.6 2.5c.5 0 1 1 1 2.3.1 1.2.4 1.6.7 1a2 2 0 0 1 1.8-1.3c.7 0 1.6.6 1.8 1.3.3.7.6.4.6-.7 0-1.5.6-1.7 3.2-1.2s3 .3 2-.7c-.6-.8-.9-1.6-.6-1.9.6-.6-7.6-8.2-12.1-11.3a12 12 0 0 0-6.8-2c-2 .1-3.6-.2-3.6-.7 0-.5-.6-.8-1.3-.5-.6.2-2.8-.4-4.8-1.4-3-1.5-4-1.6-5.5-.5m532.4 17.1c-.4 10.6.2 12.5 4.4 12.5 1.9 0 2.5-2.6.8-3.2-.6-.2-1.3-2-1.7-4.1-.5-3.3-.3-3.9 1.6-4.4 2.1-.5 2.5-2 1.5-6-.4-1.3-1-2-1.6-1.7-.6.4-1.4 0-1.9-.7-.7-1.2-.9-1.1-1 .1 0 1-.3.8-.8-.5-.6-1.3-1 1.6-1.3 8m-25.2 2.3c-.7 2.1-4.2 3.6-5.1 2.2-1.7-2.8-7.4 3-7.5 7.5 0 2-.3 2.6-.9 1.6-.6-.9-1-1-1.2-.2-.3.9-1.3.9-3.8 0-2.6-1-3.8-1-5.2 0-3.7 2.2-11.8-.9-11.9-4.5 0-.7-.7-1.4-1.4-1.7-1.1-.5-1.6.4-1.8 3.6-.3 3.7-.6 4.2-2.7 4.3-1.4 0-3 .9-3.6 1.8-1.1 1.5-1.3 1.4-1.8-.5-.5-1.8-.8-1.9-2-.8-1 1-1.2 1.8-.6 2.5.6.8.4 1.4-.7 1.8-2.2.8-2.4.8-2.4-.5 0-.7-1-2.7-2-4.5-1.8-2.9-2.5-3.2-4.1-2.3-1 .5-1.9 1.5-1.8 2.2.4 2.4-1.4 4.7-3.6 4.7-2.4 0-5.9-3.6-5-5 1-1.7-1.4-1.9-4.4-.4-2.2 1-3.1 2.3-3.1 4 0 1.3-.5 2.4-1 2.4-.6 0-.9.4-.6.9 1.4 2.2-2.3 3.2-8 2.2-7-1.3-8.7-1.4-8-.2.3.4-.3 1.6-1.3 2.5-1.8 1.6-2 1.5-4-1.9-2.2-3.8-4.4-4.5-6.1-1.8-1 1.6-1 1.5-.7-.4.7-3.2-.9-3.8-3.4-1.4-2.2 2-1.7 4.6.6 3.7 1.9-.7 6.7 3.3 6 5-.2.9.3 1.4 1.4 1.4 1 0 2.1-.6 2.4-1.3.3-1 .8-.9 2 .2 1.4 1 2 1.1 3 .3 1.4-1.5 6.2-1.5 8.8-.1 1.5.7 2.4.7 3.4-.1.8-.7 4.6-1.2 8.5-1.3 5.6-.1 7.1-.5 7.5-1.8.8-2.6 13.5-5 13.5-2.7 0 .5.4.7.9.4.5-.3 1.4 0 2 .8 1.3 1.6 5.1 1.7 5.1.3 0-.5.7-.4 1.5.3 1 .8 4.8 1.4 9.5 1.5 7.2.2 8 0 8-1.6 0-2.3 2.4-2.4 6.4-.4 3.5 1.8 3.6 1.8 3.6.1 0-1.3 4.1-2.6 8.7-2.6 3.2 0 7.3-2.8 7.3-5 0-1 .4-2.1.9-2.4.5-.4.7 1.1.4 3.4-.7 4.7 1.6 5.6 4 1.8 1.6-2.5 3-9.8 1.9-9.8-.4 0-1.3-1.3-2-2.9-.7-1.6-2.1-3.8-3.1-5-1.9-2.1-2-2.2-2.5-.3m-399.3 1.1c.3 1.1 0 2.3-.7 2.6-.8.4-.8.6 0 1s1 1.3.7 2c-.3.9 0 1.5.9 1.5.7 0 1.9.9 2.5 2 .7 1 2.3 2 3.5 2.2 1.8.2 2.3.9 2.1 3.1-.2 2.4 0 2.7 1.3 1.7.7-.7 1.4-1.9 1.4-2.6 0-.8.5-1.4 1-1.4s1 .7 1 1.5.5 1.5 1 1.5c1.3 0 1.3-.6 0-3.1-.8-1.3-.8-2.5-.2-3.2 1-1.3 0-5-1.6-6-.5-.4-1.2.2-1.5 1.3-.5 2-.5 2-4.1 0-4.3-2.6-4.6-4-1-4 3.8 0 2.7-.6-2.5-1.4-4-.6-4.3-.5-3.8 1.3m406.7 1.9c0 .4.5 1.3 1 1.8 1.2 1.2 1.6 10.6.6 12.3-.4.6-.5 2-.1 3 1 3.2 5.3 1.4 6-2.5 0-1.1 1.4-2.2 3.3-2.8 3.7-1 4.3-4 1.2-5.8-1.1-.7-2-1.7-2-2.1 0-1.7-4.6-4.6-7.3-4.7-1.5 0-2.7.4-2.7.8m-443.8 6.4c-.9.9-.7 1.4.6 2.4 1.6 1.2 1.6 1.3-.3 1.5h-2.9c-.4-.1-1.5.4-2.2 1-1.1 1-1.8 1-2.6 0-1.6-1.5-3-1.4-2.7.2.3 2.7-.2 3.7-2 3.7-1.1 0-2.2-.4-2.6-1-.3-.5-1.2-.7-2-.3-.8.3-1.5 0-1.5-.6s-.9-1.1-2-1.1c-2.2 0-2.5.7-1.1 2.9.5.8 1.6 1 2.9.7 2.2-.7 4 3 2.2 4.8-1.5 1.5-1.2 4.6.5 5.2 1.2.5 1.3 1 .4 2s-.8 1.8.1 3c1 1 1 1.8.3 2.5-.8.8-1.3.5-1.8-1-.8-2.5-2.5-2.8-2-.3l.4 3c0 .7.5 1 1 .7.5-.3 1.3 0 1.6.6a2 2 0 0 0 2.1.5c.8-.3 1.4 0 1.4 1 0 1.7 1.6 1.9 2.6.3.4-.7 0-1.6-1-2-.9-.6-1.6-2-1.5-3.2 0-2.1 0-2.1.9-.2.5 1.1.9 1.4 1 .8 0-.7.7-1.3 1.5-1.3 1 0 1.5-1 1.5-2.5 0-1.4.5-2.5 1-2.5s1 .7 1 1.6c0 2.4-2 5.5-3 4.9-.6-.4-1-.1-1 .4 0 .6 1.1 1.1 2.5 1.1 1.6 0 2.5.6 2.5 1.6 0 .8.5 1.2 1 .9.6-.4 1 .6 1 2.2 0 2.1.3 2.4 1 1.3.5-.8 1.2-1.1 1.5-.8 1.2 1.2-.6 2.9-2.8 2.6-1.2-.2-2.4-.6-2.7-1a6 6 0 0 0-2.5-1c-1.7-.2-2 .2-1.7 2.6.6 4.6 3 6.4 3.8 3 .7-2.6.8-2.6 1.5-.9.7 2 .8 2 .8 0 .1-1.7.3-1.7 1.1-.5.6 1 1 1 1 .3s.5-1.3 1.1-1.3c.6 0 .8.7.5 1.6-.5 1.2-.1 1.4 1.7.8 1.2-.4 2.4-1 2.6-1.6.1-.5 1-.1 1.7.9 1.3 1.7 1.3 1.7 1.4-.5 0-2.7 1-2.8 3.3-.2 1.6 2 1.6 2-.4 2-1.1 0-1.7.5-1.4 1 .4.6 1 .8 1.4.6.4-.3 1.3 0 2.1.5 1.3.7 1.2.9-.3.9-1 0-1.7.5-1.7 1.1 0 .7.9.9 2.3.5l3-.6c1.4 0 .7-2-.8-2-.8 0-1.5-.9-1.5-2 0-1.3.5-1.7 2-1.3 1.1.3 2 0 2-.6s-.5-1.1-1.1-1.1c-.6 0-.9-.7-.5-1.5.3-1 0-1.5-1.2-1.5-1.5 0-1.5-.2-.2-1 1.3-.9 1.3-1 0-1-1.2 0-1.2-.2-.2-.9 1.4-.9.2-2.2-3-3.4-1.9-.7-2.5.8-.8 1.8 2.6 1.6-.3 3.8-3.9 2.8-1.2-.3-2.1-1.2-2.1-2 0-.7-.5-1.3-1.1-1.3-.6 0-.9.9-.6 2 .3 1.1.2 2-.1 2-1.2 0-3.4-1.7-3.5-2.6-.1-.5-.5-.8-1-.7-.4.2-.7-.6-.7-1.7s-.3-1.9-.8-1.8c-.4.2-.8 0-1-.5 0-.4 0-.6.1-.5.2.2 1.2-.3 2-1.1 1.4-1 2-1.1 3-.3.8 1 .7 1.2-.6 1.2-2.4 0-2.1 2 .3 2.2l3.3.2c.6 0 1.1-.7 1-1.7-.1-2-.2-2 3.1-.7 1.7.6 2.6.6 2.6 0 0-1.8 2-1 2 .8.1 1 .4 1.2.7.5.2-.7 1-1.3 1.5-1.3.6 0 .6.6-.2 1.5-1 1.2-1 1.5.3 1.5 1.9 0 4 3.4 3 4.5-.5.4.2.4 1.4 0 1.8-.5 2.2-.3 1.7 1-.3.8-1.3 1.5-2 1.5-.9 0-1.2.5-.9 1 .4.7 1.3.9 2.1.6.8-.3 1.4-.1 1.4.4 0 .6-.7 1-1.5 1s-1.5.5-1.5 1.1c0 .6.7.8 1.7.5.9-.4 2 0 2.5.6.6 1 1 1 1.8-.2.8-1.3 1-1.2 1 .3 0 1-.5 1.7-1 1.7s-1 .7-1 1.5.5 1.5 1 1.5 1-.7 1-1.5.9-1.5 2-1.5 2 .5 2 1c0 .6-.5.8-1 .5-.5-.3-1 .1-1 1 0 1.4.3 1.5 1.5.5.8-.7 1.5-.8 1.5-.3 0 1.6-2.2 3.2-3.9 2.6-1.4-.4-1.4-.3-.1.6.8.6 1 1 .5 1-1.2.1-4-2.9-4.8-5-.3-.9-.6-.5-.6.8 0 1.2.9 2.9 2 3.7 2 1.4 2.1 1.6.5 2.2-1.6.6-1.5 1 .8 2.9 2.6 2.3 2.5 3.5-.3 3.5-1.4 0-1.4-.2-.1-1 1.3-.8 1.2-1-.3-1-1 0-1.7-.6-1.7-1.3 0-.9-.3-.8-.9.2-.5.8-1 1-1.5.3-.3-.5 0-1.5 1-2.2 2-1.8 1.7-3.2-.7-2.5-1.6.5-2 .3-1.7-1.2.2-1.5-.5-1.8-4.5-2.1-3.4-.2-4.7-.7-4.7-1.8 0-.9-.9-1.8-2-2.1-1-.3-1.7-1-1.4-1.4.3-.5 0-.9-.4-.9-.6 0-1.2 2-1.4 4.5-.3 3.8 0 4.5 1.4 4.5 1 0 1.8.5 1.8 1s-.5 1-1 1-1 .8-1 1.7c0 1.3.3 1.4 1.2.5 1.4-1.4 4.8-1.6 4.8-.4 0 .5 1.2 1.5 2.6 2.2 2.2 1.2 2.3 1.6 1 2.5-.8.6-1.1 1.6-.7 2.4.8 1.3 2.3 0 3.4-2.9.4-1 .6-.8.6.6 0 1.5 1 2.4 2.6 2.8 1.4.4 2.5 1.4 2.5 2.2 0 1.4-.2 1.5-1.7.3-1.5-1.3-1.6-1.2-.8.6.4 1.1 1 3.1 1 4.5l.4 3.3c0 .4 1.2.7 2.5.7 1.4 0 2.8.5 3.1 1 .4.6 1.1.7 1.7.4.6-.4.8.1.3 1.5-.8 2.7.6 2.7 2.3 0 1.3-2.1 1.4-2.1 3.5-.2 1.2 1.1 3.1 2.4 4.2 2.8 2 .8 2 .9-.3 1.2-1.2.3-2.2 1-2.2 1.9 0 .8-1 1.4-2 1.4-2.9 0-2.4 4.3.5 4.8 1.6.3 1.7.1.8-.8-.9-1-.9-1.6.2-2.6 1.5-1.6 3-1.9 2-.5-.2.5.6 1.2 2 1.5 1.4.4 2.5 1.1 2.5 1.7 0 .6-.7.9-1.5.6-1.8-.7-3 1-1.3 1.7.7.3-.5.3-2.7.2-2.2-.2-3.2-.1-2.3.1 1 .2 1.8.8 1.8 1.3s1.2 1 2.8 1.2c1.5.2 2.6.8 2.4 1.6-.1.7.5 1.5 1.3 1.8.8.4 1.5 1.4 1.6 2.3 0 1 .2 1.1.6.3.5-1.4 3.3-1.7 3.3-.3 0 .5-.6 1.1-1.3 1.4-.9.3-.7 1 .5 2.3 1 1 1.8 1.3 1.8.6 0-.9.6-.9 2.5 0 1.3.6 2.2 1.5 2 2-.4.4 0 .8.8.8s2 .7 2.7 1.5c.7.9 2 1.4 2.7 1 1.5-.5 1.8 1 .3 2-.7.4-.2 1.4 1.1 2.6 1.7 1.4 1.8 1.9.7 1.9-.9 0-2.4 1.2-3.3 2.6-1.7 2.7-1.7 2.7.5 2.1 1.4-.4 2.7.1 3.8 1.4 1.7 2 5.2 2.6 5.2.9 0-.5.5-1 1-1 .6 0 .8.5.4 1.1-.4.8 0 .9 1.7.4 2.2-.7 2.3-.7.9 1-1.1 1.4-1.2 2-.3 2.2.7.3 1.3 1.1 1.3 1.9 0 .8.4 1.4 1 1.4.4 0 1.6.7 2.4 1.6.9.8 1.6 1.1 1.6.6 0-.6.9-.8 2-.5 1.1.3 2 1 2 1.5s.5.6 1 .3 1 0 1 .8.6 1.5 1.3 1.4c4.3-.1 5.9.4 5.3 1.8-.4 1 .1 1.5 2 1.5 2.7 0 3 1 1.1 3-1 1-.8 1.1 1 .6 1.4-.4 2.3-.2 2.6.9.4.8 1.3 1.5 2.2 1.5.8 0 1.5.5 1.5 1s.8 1 1.9 1c1 0 2.4.6 3 1.4.7.8 1.8 1.3 2.5 1 .8-.3 2 .1 2.7.9 2 1.9 7.9 4.7 10 4.7.9 0 2 .7 2.3 1.5.3.8 1.7 1.5 3 1.5a8 8 0 0 1 4.8 2.2c1.3 1.3 2.8 2.3 3.6 2.3.7 0 1.6.6 2.1 1.3.5.8 1.2 1.3 1.7 1.2.5 0 1.2 1 1.5 2.2.7 2.3.7 2.3.9-.2 0-1.4.4-2 .7-1.2.2.6.9 1 1.4.6.5-.3 1.2.2 1.5 1 .3.9 1 1.4 1.4 1 .5-.2 3.7 1.4 7.2 3.6s6.8 4 7.4 4c.5 0 1.9.8 3 1.8 2.6 2.3 7.5 4.6 9.6 4.3.9-.1 2 .3 2.3.9.4.6-.4 1-1.8 1-1.3 0-2.7.3-3 .7-1.1 1 1.4 3.2 3 2.6 1.2-.5 1.4-.3.8.6-.6 1-.2 1.1 1.5.6 1.9-.6 2.2-.4 1.7.9-.4 1-.1 1.6.8 1.6.8 0 1.5.5 1.5 1.1 0 .6.7.8 1.5.5 2.2-.8 5.4 1.4 4.8 3.3-.4 1.4-.3 1.4.7.1 1-1.2 1-1 .6 1.3-.5 2-.3 2.7 1 2.7.8 0 1.3.4 1 1-.6.8 5 2.6 6.8 2.2.4-.2.6.9.2 2.2-.5 2-.3 2.4 1 2 1.3-.6 1.5-.3 1 1.4-.6 1.8-.3 2.2 1.3 2.2 1.2 0 2.1.4 2.1 1 0 .5 1 .7 2 .5 1.5-.3 2.4.3 3.2 2 .6 1.4 1.5 2.5 2 2.5s.7.4.4.9c-.3.5.6 1.2 2.1 1.6 2.1.5 2.4.8 1.2 1.6-1 .7-.9.9.9.9 1.2 0 3.4.7 4.7 1.6 2.5 1.6 3.4.7 1.4-1.3-.8-.8-.8-1.3 0-1.7.6-.4 1.1 0 1.1.8 0 .9.4 1.6.9 1.6s1.1.9 1.4 2c.7 2.5 4.7 2.7 4.8.3 0-1.6.1-1.5.8.2.8 1.9.8 1.9 1.9 0 1-1.9 1.1-1.9 1.7-.3.8 2 3.5 2.4 3.5.5 0-.6.7 0 1.5 1.3 1.2 2.2 2 2 1.6-.2 0-.4 1.3-.6 3-.4 3 .3 5.8 3 5.9 5.3 0 .7 1.8 2.4 4 3.8s4 3 4 3.5c0 .6.7 1 1.5 1s1.5-.7 1.5-1.5.9-2 2-2.7c1.1-.7 2-1.9 2-2.7 0-1 .5-1 2.5.3 2.3 1.5 2.5 1.5 2.5-.1 0-1.7.2-1.7 1.5 0 1.2 1.7 2.1 1.8 6.2 1.2a31 31 0 0 1 6.5-.6c1 .1 1.8-.3 1.8-.9 0-.6.5-.8 1-.5.6.4.7 1.1.4 1.7-.5.8-.1 1 1 .5 1-.4 2.5-.7 3.3-.7 1 0 1.3-.3 1-.7-.4-.3.1-1.2 1-2 2.6-1.9-.2-3.5-5-2.8-2.4.3-3.7.1-3.7-.6 0-.8-.6-.7-1.7.2-1.4 1.2-1.7 1.2-2 0-.3-.7-2.4-2.1-4.7-3.2-2.2-1-3.6-1.9-3-1.9.7 0 1.4-1 1.7-2.1.3-1.2 1-1.8 1.5-1.5.6.3.9-.2.8-1.1-.2-1-.1-1.2.1-.5.6 1.7 2.8 1.5 4.3-.3.7-.8 1.6-1.5 2-1.5.6 0 .7.7.4 1.5-.8 2 .6 1.9 2.3-.3 1.2-1.4 1.4-1.4 1-.1-.6 1.8 2 2.2 11.8 1.8h3l-3-1.5c-13-5.9-16.5-7.4-18.8-8-1.5-.3-2.7-1-2.7-1.5 0-1.2-3.7-1.2-4.5 0-.3.5-1.6-.1-3-1.5-1.3-1.3-2.9-2.4-3.5-2.4a1 1 0 0 1-1-1c0-.6-1.8-3.9-4-7.2a46 46 0 0 1-4-7c0-.3-.9-1-2-1.3-1.1-.3-2-1.5-2-2.5 0-2.5-2.5-8.2-3.3-7.4-.4.4-1 0-1.3-1-.3-.9-1.3-1.6-2-1.6-.9 0-1.2-.5-.9-1 .3-.5-.2-1-1.2-1-1.4 0-1.5-.2-.5-.9 1-.6.8-1-1-1.4-1.2-.4-2.4-.2-2.6.2-.2.6-1.6.5-3.5 0-1.7-.5-4-.6-4.9-.3-1.7.5-4.3-2.7-3.1-4 .3-.3-.1-.6-1-.6-1 0-1.7-.5-1.7-1 0-.6-1-.8-2.4-.4-2.7.6-3-.5-1-4 1.2-2-1.7-4.6-5.2-4.6-.8 0-1.4-.5-1.4-1 0-.7-.9-.9-2.3-.5-1.8.6-2 .5-1-.6 1.5-1.6 1.7-3.3.3-2.4-.5.3-1 0-1-1 0-.9-.6-1.2-1.5-.9-1.2.5-1.3 1-.4 2 1 1.1 1 1.8 0 2.6-.8 1-1.1.8-1.1-.5 0-2 .2-2.1-4.5.2-3.5 1.7-3.6 2-1.9 3 1.4.7 1.5 1 .4 1a7 7 0 0 1-3.4-1.4c-1.3-1-2.4-1.1-3.6-.5-1 .6-3 .6-5 0-1.7-.5-4.7-.7-6.7-.4-3 .4-4 0-6.5-2.8-1.6-1.8-2.7-3.7-2.4-4.3.2-.6-1.2-2.1-3-3.5s-3.4-3-3.4-3.8c0-.6-.5-1.2-1-1.2-.6 0-2.1-1-3.3-2.4a22 22 0 0 0-8.2-4.1c-3.3-1-8-3.4-10.7-5.6-2.6-2-5.7-4-6.8-4.4-1.1-.3-2-1-2-1.6 0-.5-1-.9-2.1-.9-1.2 0-3.7-1-5.5-2-1.9-1.2-3.4-1.9-3.4-1.5a22 22 0 0 1-5.3-5 27 27 0 0 0-6.4-5.5c-.6 0-1.3-.7-1.7-1.5-.3-.8-1.2-1.5-2-1.5s-2.7-2-4.2-4.5a24 24 0 0 0-3.7-5.3 8.7 8.7 0 0 1-2.2-2.6c-.6-1-1.5-1.7-2-1.5-.4.2-1.4-1.4-2-3.6-.7-2.2-1.3-3.4-1.4-2.6 0 1.1-.4 1.1-1.8 0-.9-.8-1.8-1.3-2-1.2-1 .8-2.3.1-2.3-1.2 0-.8-.5-1.5-1-1.5-.6 0-1.5-1.1-2.2-2.5-.6-1.3-1.5-2.2-2-1.9-.5.4-1.6-.3-2.4-1.5-.8-1.2-2-2.1-2.8-2.1-.7 0-1.9-1.1-2.6-2.5-.7-1.3-1.7-2.2-2.2-2-.4.4-.8-.2-.8-1.3 0-2.2-3.4-5.4-8.9-8.1-2.2-1.2-4.2-3-4.6-4-.3-1.2-1.3-2.1-2-2.1-.9 0-1.5-.8-1.5-1.8 0-1.3-.2-1.4-1-.3-.5 1-1 .5-1.5-2-1.2-5.2-7.7-14.6-10-14.2-.5.2-2-1-3-2.4a78.7 78.7 0 0 0-5-5.8 29.1 29.1 0 0 1-4.5-5.5c-2-3.8-5.3-7-7.3-7-1 0-2-.8-2.4-1.8a6.6 6.6 0 0 0-6-4.2c-1.2 0-2.5-.5-2.8-1-1-1.5-8.1-5-10.3-5-1 0-2.3.5-3 1.2m296.5 6.6c-1.5 1.6-3.3 3-4 3-.7 0-2.2.4-3.4.7-1.8.6-2.2.3-2.5-2.2-.2-2.2-.9-2.9-3.1-3.1-5.6-.7-7.8 4.6-3 7 1.6.8 2.7 2 2.6 2.5-.2.8 1.5 1 5 .6s5.7-.2 6.1.6c.9 1.3 5.3 1.5 5.8.2.1-.5 1.6-1 3.3-1.2a11 11 0 0 0 4.3-1.2c.6-.5 1.2-.6 1.2 0 0 .4 2 .7 4.5.5 4-.4 4.5-.7 4.5-2.7 0-1.5-.8-2.6-2-3-1.1-.3-2-1.3-2-2 0-.9-.6-1.2-1.5-.9-.8.4-1.5.1-1.5-.5 0-2-2.8-1.2-5.4 1.4-2.4 2.3-5.4 3.5-4.2 1.6.3-.4 0-1.6-.7-2.5-1.1-1.5-1.5-1.4-4 1.2m-305 2.7c-1 .9-1.9 1.6-2.2 1.5-2-.1-2.5.3-2.5 2.3 0 1.3-.5 2.8-1.2 3.5-1 1-.8 1.5.8 2.7 2.2 1.7 5.4 2 5.4.5 0-.5-.5-.9-1.2-.8-.7.2-1.3-1.2-1.5-3.5-.4-4.2 1.4-5.1 2-1 .3 2.3.4 2 .6-1 0-2 .6-3.7 1.2-3.7s.8.9.4 2.2c-.6 1.7-.4 2 .9 1.5 1-.4 1.6-.1 1.6.7 0 .8-.6 1.7-1.3 2-1 .3-1 .5 0 .5.7 0 1.3.5 1.3 1 0 .6-.7.8-1.5.5-.8-.4-1.5-.1-1.5.5s.6 1.1 1.4 1.1c.8 0 1.6.6 1.9 1.3.3.9.8 1 1.7 0 .9-.8.9-1.6.1-3-1-1.8-.7-2.2 1.4-2.7 2.4-.6 3.6-3.6 1.5-3.6-.5 0-1-.5-1-1.1 0-.6.7-.9 1.5-.5.8.3 1.5 0 1.5-.5 0-.7-1.5-1-4-.6-2.2.2-3.7 0-3.4-.4 1-1.5-2.4-1-4 .6m669.9 56.5c-.3.5 0 1.1.5 1.5.6.4.8 1 .5 1.6-.8 1.3.4 4.9 1.6 4.9.6 0 2.8 1.8 5 4 2.1 2.3 4.3 3.9 4.9 3.5 2-1.2 1-6.2-2-10-1.5-2-3-4-3.2-4.6-.4-1.2-6.6-2-7.3-.9m-505.3 22.6c-1.8 2-1.4 4 1 4.1 2.7.2 3.3 1 2 2.6-.7.8-.8 1.8-.4 2.2.4.5.2.5-.4.2-.6-.3-1 0-1 .8s.2 1.5.6 1.5c.4 0 .6 1 .6 2.1 0 1.2.4 2.4 1 2.6.7.2 1-.6.9-2.2-.3-2.3 1.1-9 1.5-7.3a45 45 0 0 1-.5 12.1c-.5 1.8-.3 3.3.4 4 1 1 1.6 0 1.2-3 0-.5.5-1.6 1.4-2.3 1.3-1 1.3-1.4 0-2.7-1-.9-1.4-2.2-1-3 .2-.8.5-2.9.5-4.6 0-2.2.3-2.8 1-1.8.6 1 1 .9 1.5-.8 1-3.1-1.6-6.2-2.7-3.2-.9 2.5-3 2.8-2.2.3.5-1.5.4-1.5-.6-.2s-1.1 1.2-.6-.4c.5-1.3.2-1.7-.8-1.3-.8.3-1.6.2-1.8-.3-.2-.4-.9-.2-1.5.6m100.5 60.7c-2 4-2.9 7.7-1.7 7.7.5 0 .9.5.9 1.2 0 .6-.3.8-.7.5-.3-.4-1.2-.2-2 .4-.7.6-2 .8-2.9.5-1-.4-1.8 0-2.1 1.4-.3 1-1 1.7-1.4 1.4-.5-.3-.6.3-.3 1.3.4 1.3.3 1.5-.4.5-.8-1.1-1-1.1-1.4 0-.2.7.4 2 1.4 3 1.7 1.7 1.8 1.7 1.8-.3 0-1 .5-1.7 1-1.4.5.3 1 1.7 1 3 0 2.7 8.8 12.5 11.2 12.5 1 0 2 .5 2.3 1 .4.6 1 .8 1.5.5.5-.3 1.3.2 1.8 1 .8 1.6 1 1.6 1.6 0 .6-1.7.7-1.7 2.2.1 1.4 1.8 1.5 1.8.9-.4-.4-1.5-.1-2.4 1-2.8 1-.4 1.4-1.3 1-2.1-.4-1 0-1.3 1-1 1.1.5 1.5.1 1.3-1-.2-1 .3-1.7 1-1.5.7.1 1.2-1 1.2-3 0-3 0-3-2-1.3-1.1 1-2 1.5-2 1 0-.4-.7-.2-1.5.5-1.8 1.5-2-.1-.4-3.2.8-1.5.8-2.2-.1-2.8-.7-.4-1-1.2-.6-1.8.3-.5 0-1.5-.9-2.2-1.3-1-1.3-1.6.2-4.1 1-1.6 2-2.9 2.3-2.9 1.5 0 4.4 3 3.7 3.6-.4.5-1.2.2-1.8-.6-.8-1.3-1-1.3-1.9 0-1.3 2-1.3 3.3 0 2.5.5-.3 1.7-.2 2.7.3 1.4.9 1.4 1-.5 1.6-2.2.7-3 2.6-1.3 2.6.5 0 1.7.3 2.5.6 1.2.5 1.5.2 1-1-.4-1-.3-1.6.2-1.5 2 .4 2.8-.2 1.4-1.1-1.3-.9-1.3-1.1 0-2 1-.6 1-1 .3-1-2 0-1.6-1.8.5-2.3 1.6-.4 1.6-.5 0-.6-2-.1-2.3-1.2-.6-2.9 1-1 1-1.2-.1-1.2-.7 0-2.6-.9-4-2a10 10 0 0 0-10-.6c-.6.4-1.1 0-1.1-1 0-1.1-.6-1.5-2-1.1-1.1.3-2 .1-2-.4 0-2-1.6-.7-3.2 2.3m-82.8 10c0 4.5 9 7.2 16.8 5.2 2.2-.6 2.6-2.9.4-2.9-.6 0-2.2-1-3.6-2.3-3.9-3.3-13.6-3.3-13.6 0" fill="#dd6299" fill-rule="evenodd"/></svg>