<svg xmlns="http://www.w3.org/2000/svg" viewBox="0 0 300 450"><g filter="url(#prefix__a)"><g stroke-linecap="round"><path fill="rgba(244,213,220,255)" stroke="rgba(244,213,220,255)" d="M300 0v450L197 250 300 0"/><path fill="rgba(241,210,219,255)" stroke="rgba(241,210,219,255)" d="M0 450V0l30 390-30 60"/><path fill="rgba(243,218,225,255)" stroke="rgba(243,218,225,255)" d="M0 0h300L137 243 0 0"/><path fill="rgba(248,197,208,255)" stroke="rgba(248,197,208,255)" d="M300 0 197 250l-60-7L300 0"/><path fill="rgba(243,214,222,255)" stroke="rgba(243,214,222,255)" d="M30 390 0 0l93 247-63 143"/><path fill="rgba(244,215,223,255)" stroke="rgba(244,215,223,255)" d="m0 0 137 243h-23L0 0"/><path fill="rgba(243,215,223,255)" stroke="rgba(243,215,223,255)" d="M93 247 0 0l114 243-21 4"/><path fill="rgba(241,202,209,255)" stroke="rgba(241,202,209,255)" d="M300 450H0l171-33 129 33"/><path fill="rgba(242,204,213,255)" stroke="rgba(242,204,213,255)" d="m0 450 30-60 141 27L0 450"/><path fill="rgba(246,209,215,255)" stroke="rgba(246,209,215,255)" d="m197 250 103 200-129-33 26-167"/><path fill="rgba(244,209,215,255)" stroke="rgba(244,209,215,255)" d="m137 243 60 7-26 167-34-174"/><path fill="rgba(240,209,216,255)" stroke="rgba(240,209,216,255)" d="M114 243h23l34 174-57-174"/><path fill="rgba(241,206,214,255)" stroke="rgba(241,206,214,255)" d="m30 390 63-143 78 170-141-27"/><path fill="rgba(243,208,214,255)" stroke="rgba(243,208,214,255)" d="m93 247 21-4 57 174-78-170"/></g><rect width="100%" height="100%" fill="#b37464"/></g><filter id="prefix__a"><feGaussianBlur in="SourceGraphic" stdDeviation="12"/><feComponentTransfer><feFuncA tableValues="1 1" type="discrete"/></feComponentTransfer></filter></svg>