<svg xmlns="http://www.w3.org/2000/svg" width="1992" height="3000"><path fill="#eccbd2" d="M0 0h1992v3000H0z"/><g fill-opacity=".5"><path fill="#a4565e" d="M1728.5 1646.5l-714.8-761.7-586 902.3z"/><path fill="#fce5e9" d="M1927.7-181.6l-644.5 2132.8 890.6 586z"/><path fill="#f9e7ee" d="M-181.6 5.9v1968.7L2173.8-29.3z"/><path fill="#894b52" d="M1224.6 1927.7l293-703-234.4-70.4z"/><path fill="#511828" d="M955 1037.1l328.2 105.5 199.2 269.5z"/><path fill="#ba687b" d="M802.7 1072.3l527.4 773.4-609.4 35.2z"/><path fill="#f0c7b8" d="M1013.7 1095.7l492.2 410.2-632.9 11.7z"/><path fill="#290a08" d="M814.5 1295L955 1048.7 802.7 1166z"/><path fill="#f099ae" d="M1681.6 1435.5L1213 838l-35.2 304.7z"/><path d="M849.6 1599.6l257.8-11.7-93.7 58.6z"/><path fill="#f4d3dc" d="M1002 2197.3L-88 662l-93.7 2273.4z"/><path fill="#f4d7dc" d="M1365.2 1494.1l316.4 1453.2 339.9-2179.7z"/><path fill="#f0b5b6" d="M1013.7 1623l-398.5 281.3 855.5 58.6z"/><path fill="#e3999b" d="M720.7 1869.1l-211-304.6 281.3-504z"/><path fill="#502e2d" d="M1306.6 1459l70.4 117.2-140.7 222.6z"/><path fill="#f6e0e7" d="M1962.9-181.6L908.2 943.4l1265.6 117.1z"/><path fill="#230207" d="M1060.5 1013.7l93.8 164-164-164z"/><path fill="#e89fb0" d="M1037.1 1013.7l550.8 117.2v293z"/><path fill="#874847" d="M779.3 1259.8l316.4 23.4-269.5 70.3z"/><path fill="#6e3946" d="M1459 1377l-222.7 187.5 117.2-187.5z"/><path fill="#f4d4d8" d="M1822.3 826.2L2127 3181.6l-1101.6-902.3z"/><path fill="#e4b69a" d="M1306.6 1564.5l-35.1 128.9-82-257.9z"/><path fill="#f3ccc3" d="M920 1201.2l152.3 351.5-47-492.2z"/><path fill="#a33072" d="M732.4 1693.4l93.8-234.4 93.7 293z"/><path fill="#f1d5dd" d="M-181.6 2033.2l1019.5-46.9-925.8-914z"/><path fill="#e79dba" d="M908.2 1048.8l-316.4 398.5 70.3-293z"/><path fill="#e18eba" d="M896.5 1377v222.6l328.1-58.6z"/><path fill="#462225" d="M1388.7 1306.6l-257.8-105.4v-93.8z"/><path fill="#e7a4b3" d="M1248 920l457 457-750-410.2z"/><path fill="#f4dae1" d="M1576.2 1962.9L1341.8 1494l550.8-375z"/><path fill="#e765af" d="M908.2 1763.7l-93.7-117.2 457-23.5z"/><path fill="#43082d" d="M1060.5 1576.2l164.1 35.1-164 11.7z"/><path fill="#271b26" d="M1002 1599.6L849.6 1588l-82 58.6z"/><path fill="#e4b8b2" d="M1283.2 1916l-128.9-234.4L709 1963z"/><path fill="#f3cfd4" d="M-181.6 3005.9l2355.4 11.7-375-1488.3z"/><path fill="#c88283" d="M1142.6 1564.5l58.6 281.2 105.4-410.2z"/><path fill="#67373c" d="M779.3 1259.8l199.2 70.3-152.3-152.4z"/><path fill="#eccfaa" d="M814.5 1353.5l-93.8-70.3-58.6 187.5z"/><path fill="#dd879b" d="M861.3 1939.5l70.3-70.4-328-140.6z"/><path fill="#532235" d="M1330 1494.1l70.4-187.5 70.3 35.2z"/><path fill="#d69f8c" d="M978.5 1048.8l293 421.9 128.9-82z"/><path fill="#512a37" d="M1330 1505.9l35.2 105.4-105.4 175.8z"/><path fill="#d960a0" d="M779.3 1599.6l257.8-82-164-93.8z"/><path fill="#ece2c3" d="M1177.7 1822.3l-293-23.5 257.9-58.6z"/><path fill="#f3dce2" d="M1916 1470.7L99.6-123l2015.6-58.6z"/><path fill="#c89380" d="M1201.2 1752l70.3-222.7 58.6 70.3z"/><path fill="#e9cdb2" d="M1236.3 1447.3L838 1412l257.8-82z"/><path fill="#c2897a" d="M603.5 1623l246.1-164 46.9-281.3z"/><path fill="#f1d4dc" d="M580 1845.7l-761.6-105.5L462.9 556.6z"/><path fill="#b4c8bd" d="M884.8 1599.6L955 1541l93.7 35.2z"/></g></svg>