<svg xmlns="http://www.w3.org/2000/svg" viewBox="0 0 2000 3000"><filter id="c"><feGaussianBlur stdDeviation="55" /></filter><path fill="#edcbd3" d="M0 0h1992v3000H0z"/><g filter='url(#c)' fill-opacity='.5'><ellipse fill="#a14b52" fill-opacity=".5" rx="1" ry="1" transform="matrix(309.96172 230.25622 -292.82048 394.18323 1023.5 1462)"/><ellipse fill="#faeaf1" fill-opacity=".5" rx="1" ry="1" transform="rotate(87.4 231.3 690.4) scale(549.54836 1980.46873)"/><ellipse fill="#2b000f" fill-opacity=".5" rx="1" ry="1" transform="matrix(16.65584 -22.72705 185.09345 135.64838 1325.3 1282)"/><path fill="#24001d" fill-opacity=".5" d="M744.1 1599.6h445.4v46.9H744z"/><path fill="#4b2428" fill-opacity=".5" d="M1283.8 1649.6l-56.3 221.3 145.8-236.4-64.1-221.5z"/><path fill="#491a1d" fill-opacity=".5" d="M931.6 1295L756 1259.7l164-199.3z"/><ellipse fill="#ebbeb1" fill-opacity=".5" rx="1" ry="1" transform="rotate(58.1 -684.7 1681.1) scale(311.07656 128.03842)"/><path fill="#f6d1d6" fill-opacity=".5" d="M1189.5 1705l668 1476.6-2039.1-1171.8z"/></g></svg>