<svg xmlns="http://www.w3.org/2000/svg" viewBox="0 0 300 450"><filter id="prefix__a"><feGaussianBlur stdDeviation="12"/></filter><g filter="url(#prefix__a)"><g stroke-linecap="round"><path fill="rgba(244,219,226,255)" stroke="rgba(244,219,226,255)" d="M0 0h300l-98 157L0 0"/><path fill="rgba(245,216,222,255)" stroke="rgba(245,216,222,255)" d="M300 0v450l-98-293L300 0"/><path fill="rgba(242,205,211,255)" stroke="rgba(242,205,211,255)" d="M300 450H0l182-88 118 88"/><path fill="rgba(243,212,221,255)" stroke="rgba(243,212,221,255)" d="M0 450V0l62 269L0 450"/><path fill="rgba(243,205,214,255)" stroke="rgba(243,205,214,255)" d="M182 362 0 450l62-181 120 93"/><path fill="rgba(243,210,215,255)" stroke="rgba(243,210,215,255)" d="m202 157 98 293-119-101 21-192"/><path fill="rgba(245,208,214,255)" stroke="rgba(245,208,214,255)" d="m300 450-118-88-1-13 119 101"/><path fill="rgba(243,208,216,255)" stroke="rgba(243,208,216,255)" d="M182 362 62 269l119 80 1 13"/><path fill="rgba(233,173,187,255)" stroke="rgba(233,173,187,255)" d="m62 269 54-32 65 112-119-80"/><path fill="rgba(242,217,224,255)" stroke="rgba(242,217,224,255)" d="m0 0 202 157-77 66L0 0"/><path fill="rgba(208,152,137,255)" stroke="rgba(208,152,137,255)" d="m116 237-54 32 63-46-9 14"/><path fill="rgba(243,215,223,255)" stroke="rgba(243,215,223,255)" d="M62 269 0 0l125 223-63 46"/><path fill="rgba(26,0,14,255)" stroke="rgba(26,0,14,255)" d="m202 157-21 192-56-126 77-66"/><path fill="rgba(236,194,180,255)" stroke="rgba(236,194,180,255)" d="m181 349-65-112 9-14 56 126"/></g></g></svg>