<svg xmlns="http://www.w3.org/2000/svg" viewBox="0 0 2000 3000"><filter id="b"><feGaussianBlur stdDeviation="12" /></filter><path fill="#edcbd3" d="M0 0h1992v3000H0z"/><g filter="url(#b)" transform="translate(5.9 5.9) scale(11.71875)" fill-opacity=".5"><ellipse fill="#a34e55" rx="1" ry="1" transform="matrix(-24.24139 32.9455 -28.26635 -20.79846 86.8 125.2)"/><ellipse fill="#faeaf1" cx="90" cy="36" rx="169" ry="46"/><path fill="#4e2827" d="M77.2 91.7l-21 29.2L86 86.7l47 36.8z"/><ellipse fill="#f4ceba" rx="1" ry="1" transform="matrix(-8.09273 -18.7012 9.9633 -4.3115 91.5 113.5)"/><ellipse cx="84" cy="137" rx="14" ry="2"/><path fill="#633d43" d="M108.7 128.7l10.4-13.1 5.5-7.2-18.2 53z"/><path fill="#f6d0d5" d="M185 255L90 138l-106 90z"/><path fill="#f9dee3" d="M114.6 126l22.1-14.7L185-16l-25.7 287z"/></g></svg>