<svg xmlns="http://www.w3.org/2000/svg" width="1992" height="3000"><path fill="#eccbd2" d="M0 0h1992v3000H0z"/><g fill-opacity=".5"><path fill="#a75860" d="M1037.1 861.3l656.3 785.2L369 1822.3z"/><path fill="#fbe3e8" d="M1341.8 1716.8l621-1898.4 211 3363.2z"/><path fill="#f8e1e9" d="M228.5 2701.2L1259.8-181.6-181.6 41z"/><path fill="#5f1e2c" d="M943.4 990.2l445.3 433.6 117.2-128.9z"/><path fill="#873d56" d="M1353.5 1552.7l-58.6 257.8L791 1599.6z"/><path fill="#fae9f0" d="M1295-181.6l-515.7 1289L2173.8 416z"/><path fill="#4e181a" d="M920 1330v-269.5l-176 199.3z"/><path fill="#e69b9f" d="M1271.5 1564.5L1166 1998l-574.2-175.7z"/><path fill="#ed9bae" d="M826.2 873l832 281.3-117.2 234.4z"/><path fill="#ce7d83" d="M767.6 1107.4l152.3 867.2-386.7-445.3z"/><path fill="#f0c7b1" d="M966.8 1517.6l433.6-129-480.5-339.8z"/><path fill="#5c3c30" d="M1283.2 1459l93.8 105.5-140.7 246z"/><path fill="#f7dfe4" d="M1529.3 1904.3l-175.8-410.2 761.7-585.9z"/><path fill="#1c011d" d="M767.6 1576.2l351.5 35.1-199.2 35.2z"/><path fill="#f4d0d6" d="M1939.5 2947.3L52.7 3181.6-99.6 1107.4z"/><path fill="#542231" d="M1271.5 1564.5l117.2-293 70.3 82z"/><path fill="#482625" d="M1107.4 1201.2l199.2 58.6L1002 990.2z"/><path fill="#a74670" d="M908.2 1740.2l-35.2-621-140.6 621z"/><path fill="#f4dee4" d="M2173.8-5.9l-386.7 1406.3L263.7-64.5z"/><path fill="#ea71b3" d="M837.9 1634.8l70.3 128.9 433.6-140.7z"/><path fill="#f3d2d6" d="M896.5 2431.6L1880.9 791l175.7 2215z"/><path fill="#deb39c" d="M1002 1107.4l293 574.2-35.2-421.8z"/><path fill="#e7adb2" d="M814.5 990.2L709 1916l-246.1-386.7z"/><path fill="#482733" d="M1330 1505.9l35.2 117.1-93.7 129z"/><path fill="#442424" d="M978.5 1037.1l-128.9 82L791 1295z"/><path fill="#e499ab" d="M1318.4 955l210.9 375-562.5-363.2z"/><path fill="#c18878" d="M802.7 1341.8l-187.5 222.7 539.1-316.5z"/><path fill="#d977b1" d="M955 1423.8l-210.9 175.8 422-23.4z"/><path fill="#ecc2be" d="M1084 1154.3l-199.2 23.4 105.4 187.5z"/><path fill="#150000" d="M1447.3 1400.4l-23.5-11.7 35.2-23.5z"/><path fill="#f3dde4" d="M205-181.6L1177.8 1002-181.6 591.8z"/><path fill="#e2b6ab" d="M1119.1 1658.2l-386.7 187.5 609.4 58.6z"/><path fill="#ebb8b6" d="M1084 1330l246 293-445.2-199.2z"/><path fill="#f0d3dc" d="M-111.3 1002L919.9 2091.8l-1101.5 293z"/><path fill="#070704" d="M849.6 1576.2l-11.7 58.6 82-23.5z"/><path fill="#9c575c" d="M896.5 1353.5l246-93.7-375 23.4z"/><path fill="#91554f" d="M1189.5 1810.5l46.8-105.4 70.3 82z"/><path fill="#f5dee3" d="M1552.7 1341.8l-199.2 128.9 152.4 433.6z"/><path fill="#f1d0d5" d="M2173.8 3029.3v-1207L17.6 2033.2z"/><path fill="#c69281" d="M1177.7 1822.3l129-211-47-281.2z"/><path fill="#ecc8bf" d="M1002 1095.7l-47 164 164.1 257.9z"/><path fill="#000004" d="M1002 1634.8l58.5-47 47 11.8z"/><path fill="#c99081" d="M990.2 1306.6l-398.4 222.7 46.9 128.9z"/><path fill="#d3958e" d="M1095.7 1201.2l293 152.3-46.9 82z"/><path fill="#411728" d="M1412.1 1400.4l70.3-23.4-175.8-117.2z"/><path fill="#efced7" d="M-76.2 2373l761.7-1277.3-445.3 1617.2z"/><path fill="#e8b0ba" d="M1658.2 1283.2L1459 1060.5l11.7 351.6z"/><path fill="#c4efd7" d="M1048.8 1587.9L920 1576.2l93.8-23.5z"/><path fill="#f1d5da" d="M2173.8 2548.8l-843.7-855.4 351.5-457z"/><path fill="#e38fb3" d="M755.9 1095.7l-117.2 293 211-269.6z"/></g></svg>