<svg xmlns="http://www.w3.org/2000/svg" width="1992" height="3000" viewBox="0 0 2000 3000"><filter id="a"><feGaussianBlur stdDeviation="55"/></filter><rect width="100%" height="100%" fill="#eccbd2"/><g filter="url(#a)" fill-opacity=".5"><ellipse fill="#a24b52" rx="1" ry="1" transform="rotate(33.9 -1893 2416) scale(382.85288 492.40985)"/><ellipse fill="#fae9f0" rx="1" ry="1" transform="matrix(23.64195 533.6051 -1978.52775 87.6608 923 446.4)"/><path fill="#55182d" d="M1435.5 1435.5L1072.3 1084l433.6 222.6z"/><ellipse fill="#380f27" rx="1" ry="1" transform="matrix(302.7769 -.77998 .06014 23.34693 1094 1623.2)"/><path fill="#501d21" d="M767.6 1224.6l164-152.3-23.4 293z"/><path fill="#f5c2c1" d="M1048.8 1658.2l410.2 293-855.5-11.7z"/><path fill="#663c3a" d="M1286 1460.5l80.9 14.2-63.1 357.8-80.8-14.3z"/><ellipse fill="#eec1b3" rx="1" ry="1" transform="rotate(60.1 -630.4 1621.2) scale(321.25459 116.60102)"/></g></svg>