<svg xmlns="http://www.w3.org/2000/svg" viewBox="0 0 2000 3000"><filter id="b"><feGaussianBlur stdDeviation="12" /></filter><path fill="#edcbd3" d="M0 0h1992v3000H0z"/><g filter="url(#b)" transform="translate(5.9 5.9) scale(11.71875)" fill-opacity=".5"><ellipse fill="#a14c53" rx="1" ry="1" transform="matrix(23.7883 -34.2643 27.50952 19.09873 87.6 124.9)"/><ellipse fill="#faeaf1" cx="90" cy="36" rx="169" ry="46"/><path fill="#44101d" d="M130.3 120L84.4 84.3l-2 4.4 34.5 28.4z"/><ellipse cx="82" cy="137" rx="14" ry="2"/><path fill="#f9c7c3" d="M94 142l-40 15 59 13z"/><path fill="#380c10" d="M67.7 109.5l-1.7-5 8-9.6 4.8 16.8z"/><path fill="#684344" d="M107 158l15-44-16 15z"/><path fill="#edc8b7" d="M94.4 102.5l-18-9.7L87 130.6l39.7-1.4z"/></g></svg>