<svg xmlns="http://www.w3.org/2000/svg" width="1992" height="3000" viewBox="0 0 2000 3000"><filter id="a"><feGaussianBlur stdDeviation="55"/></filter><rect width="100%" height="100%" fill="#eccbd2"/><g filter="url(#a)"><g transform="translate(5.9 5.9) scale(11.71875)" fill-opacity=".5"><ellipse fill="#a14b52" rx="1" ry="1" transform="matrix(-22.63304 34.47467 -27.701 -18.18604 86.3 125.4)"/><ellipse fill="#fae9f0" cx="91" cy="35" rx="169" ry="48"/><path fill="#0f0000" d="M101.5 98.8l24.9 20.1-2 2.3-24.8-20.1z"/><path fill="#4e0a3e" d="M65 144l30-8-31-3z"/><path fill="#612d30" d="M77.2 116.6l-9.9-1.5 3.5-21.7 9.9 1.5z"/><ellipse fill="#f5d4d8" cx="60" cy="179" rx="158" ry="30"/><path fill="#7c4a51" d="M96.5 166.3l22.3-25-11.5-10.6 20.2-28.3z"/><ellipse fill="#f1cab8" rx="1" ry="1" transform="matrix(9.14503 -6.00156 12.25416 18.6726 92.3 114.8)"/></g></g></svg>