<svg xmlns="http://www.w3.org/2000/svg" viewBox="0 0 2000 3000"><filter id="c"><feGaussianBlur stdDeviation="55" /></filter><path fill="#eccbd2" d="M0 0h1992v3000H0z"/><g filter='url(#c)' fill-opacity='.5'><ellipse fill="#a44e55" fill-opacity=".5" rx="1" ry="1" transform="matrix(301.57247 -401.65682 312.82779 234.87775 1028.8 1465)"/><path fill="#fae8ef" fill-opacity=".5" d="M2777.3 44l-169.6 1206.8L-351.5 835-182-372z"/><path fill-opacity=".5" d="M791 1599.6h363.3v35.2H791z"/><path fill="#220007" fill-opacity=".5" d="M1102.3 1091.9l-108.6-58.5 376.4 346.1 165 39.7z"/><path fill="#f6d0cf" fill-opacity=".5" d="M1185.6 1712.7l100.2 433.9-491 113.4-100.1-434z"/><path fill="#86414d" fill-opacity=".5" d="M753.3 1568.4l77.8 295.7-34.4-681.4 243.4-207.3z"/><path fill="#f7d5bf" fill-opacity=".5" d="M955 1060.5l23.5 457 339.9-82z"/><path fill="#f9dde1" fill-opacity=".5" d="M1670 3181.6l503.8-2378.9-808.6 679.7z"/></g></svg>