<svg xmlns="http://www.w3.org/2000/svg" viewBox="0 0 2000 3000"><filter id="c"><feGaussianBlur stdDeviation="55" /></filter><path fill="#edcbd3" d="M0 0h1992v3000H0z"/><g filter='url(#c)' fill-opacity='.5'><ellipse fill="#a34d55" fill-opacity=".5" rx="1" ry="1" transform="matrix(336.855 -373.3014 286.40962 258.4467 1024.4 1444.8)"/><ellipse fill="#fae9f0" fill-opacity=".5" rx="1" ry="1" transform="matrix(143.4552 -661.06415 1935.42173 419.99905 1139.3 356.2)"/><path fill="#4d1b29" fill-opacity=".5" d="M1379.2 1410.6l137.8 1.6-638.6-518 530.2 558.9z"/><path fill="#1b0016" fill-opacity=".5" d="M779.3 1599.6h421.9v46.9H779.3z"/><path fill="#714446" fill-opacity=".5" d="M1353 1407.5l18.8 176-14.9 67.1-225.6 391z"/><path fill="#f6d1d6" fill-opacity=".5" d="M1087.9 1654l128-37.5L-181.6 2312l2355.4 669.8z"/><path fill="#4c191b" fill-opacity=".5" d="M779.3 1248l140.6 152.4-11.7-339.9z"/><path fill="#f1c0b5" fill-opacity=".5" d="M1332 1325l-149 292.3-323.6-165 149-292.3z"/></g></svg>