<svg xmlns="http://www.w3.org/2000/svg" width="800" height="1200"><path fill="#f4dae3" d="M0 0h100v100H0z"/><path fill="#f4dbe4" d="M100 0h100v100H100z"/><path fill="#f3dbe4" d="M200 0h100v100H200zm100 0h100v100H300zm100 0h100v100H400z"/><path fill="#f4dce4" d="M500 0h100v100H500z"/><path fill="#f4dde3" d="M600 0h100v100H600z"/><path fill="#f4dee4" d="M700 0h100v100H700z"/><path fill="#f4dae3" d="M0 100h100v100H0z"/><path fill="#f4dae2" d="M100 100h100v100H100z"/><path fill="#f3d9e2" d="M200 100h100v100H200z"/><path fill="#f4dae1" d="M300 100h100v100H300z"/><path fill="#f4dbe1" d="M400 100h100v100H400zm100 0h100v100H500z"/><path fill="#f4dce2" d="M600 100h100v100H600z"/><path fill="#f4dde3" d="M700 100h100v100H700z"/><path fill="#f3d9e2" d="M0 200h100v100H0z"/><path fill="#f3d9e1" d="M100 200h100v100H100z"/><path fill="#f2d8e0" d="M200 200h100v100H200z"/><path fill="#f3dae0" d="M300 200h100v100H300z"/><path fill="#f4dde2" d="M400 200h100v100H400z"/><path fill="#f4dae1" d="M500 200h100v100H500z"/><path fill="#f4dbe1" d="M600 200h100v100H600z"/><path fill="#f5dde3" d="M700 200h100v100H700z"/><path fill="#f3d8e1" d="M0 300h100v100H0z"/><path fill="#f2d7df" d="M100 300h100v100H100z"/><path fill="#f5dbe1" d="M200 300h100v100H200z"/><path fill="#f4d8e0" d="M300 300h100v100H300z"/><path fill="#f2cad6" d="M400 300h100v100H400z"/><path fill="#f9dae2" d="M500 300h100v100H500z"/><path fill="#f5dce2" d="M600 300h100v100H600z"/><path fill="#f5dbe1" d="M700 300h100v100H700z"/><path fill="#f3d5e0" d="M0 400h100v100H0z"/><path fill="#f4d8df" d="M100 400h100v100H100z"/><path fill="#f1cfda" d="M200 400h100v100H200z"/><path fill="#cc9ca2" d="M300 400h100v100H300z"/><path fill="#c0858c" d="M400 400h100v100H400z"/><path fill="#e0a1b2" d="M500 400h100v100H500z"/><path fill="#f6d2da" d="M600 400h100v100H600z"/><path fill="#f5dae0" d="M700 400h100v100H700z"/><path fill="#f3d4dd" d="M0 500h100v100H0z"/><path fill="#f5d8e1" d="M100 500h100v100H100z"/><path fill="#e3aeb7" d="M200 500h100v100H200z"/><path fill="#c58289" d="M300 500h100v100H300z"/><path fill="#d5a29e" d="M400 500h100v100H400z"/><path fill="#ba8289" d="M500 500h100v100H500z"/><path fill="#f2cdd5" d="M600 500h100v100H600z"/><path fill="#f5d8de" d="M700 500h100v100H700z"/><path fill="#f2d3dc" d="M0 600h100v100H0z"/><path fill="#f3d5de" d="M100 600h100v100H100z"/><path fill="#dda2a9" d="M200 600h100v100H200z"/><path fill="#c06d8d" d="M300 600h100v100H300z"/><path fill="#c47a92" d="M400 600h100v100H400z"/><path fill="#d0aaae" d="M500 600h100v100H500z"/><path fill="#fadee4" d="M600 600h100v100H600z"/><path fill="#f3d4d9" d="M700 600h100v100H700z"/><path fill="#f2d1da" d="M0 700h100v100H0z"/><path fill="#f3d4dc" d="M100 700h100v100H100z"/><path fill="#eec5ce" d="M200 700h100v100H200z"/><path fill="#e5adb3" d="M300 700h100v100H300z"/><path fill="#e5b5b8" d="M400 700h100v100H400z"/><path fill="#ecc7ce" d="M500 700h100v100H500z"/><path fill="#f4d7dc" d="M600 700h100v100H600z"/><path fill="#f3d3d9" d="M700 700h100v100H700z"/><path fill="#f2d0d9" d="M0 800h100v100H0z"/><path fill="#f2cfd8" d="M100 800h100v100H100z"/><path fill="#f3d2da" d="M200 800h100v100H200z"/><path fill="#f3d3da" d="M300 800h100v100H300z"/><path fill="#f3d2da" d="M400 800h100v100H400z"/><path fill="#f4d3d9" d="M500 800h100v100H500z"/><path fill="#f2d3d8" d="M600 800h100v100H600z"/><path fill="#f4d4d9" d="M700 800h100v100H700z"/><path fill="#f2ced7" d="M0 900h100v100H0z"/><path fill="#f2ced5" d="M100 900h100v100H100z"/><path fill="#f1cdd4" d="M200 900h100v100H200z"/><path fill="#f1ced5" d="M300 900h100v100H300z"/><path fill="#f2cfd5" d="M400 900h100v100H400zm100 0h100v100H500z"/><path fill="#f3d2d7" d="M600 900h100v100H600z"/><path fill="#f4d2d8" d="M700 900h100v100H700z"/><path fill="#f1ccd5" d="M0 1000h100v100H0z"/><path fill="#f1ccd4" d="M100 1000h100v100H100z"/><path fill="#f1cbd3" d="M200 1000h100v100H200z"/><path fill="#f1ccd3" d="M300 1000h100v100H300z"/><path fill="#f2ccd3" d="M400 1000h100v100H400z"/><path fill="#f3ced5" d="M500 1000h100v100H500z"/><path fill="#f3d0d6" d="M600 1000h100v100H600z"/><path fill="#f4d0d7" d="M700 1000h100v100H700z"/><path fill="#f1cad3" d="M0 1100h100v100H0zm100 0h100v100H100zm100 0h100v100H200z"/><path fill="#f1cad2" d="M300 1100h100v100H300z"/><path fill="#f2cbd2" d="M400 1100h100v100H400z"/><path fill="#f2ccd3" d="M500 1100h100v100H500z"/><path fill="#f3cdd4" d="M600 1100h100v100H600z"/><path fill="#f4cdd4" d="M700 1100h100v100H700z"/></svg>