<svg xmlns="http://www.w3.org/2000/svg" viewBox="0 0 300 450"><filter id="prefix__a"><feGaussianBlur stdDeviation="12"/></filter><rect width="100%" height="100%" fill="#b37464"/><g filter="url(#prefix__a)"><g stroke-linecap="round"><path fill="rgba(245,212,217,255)" stroke="rgba(245,212,217,255)" d="M300 0v450L130 173 300 0"/><path fill="rgba(243,208,216,255)" stroke="rgba(243,208,216,255)" d="M300 450 118 331l12-158 170 277"/><path fill="rgba(244,219,227,255)" stroke="rgba(244,219,227,255)" d="M0 0h300L128 109 0 0"/><path fill="rgba(243,218,225,255)" stroke="rgba(243,218,225,255)" d="M300 0 130 173l-2-64L300 0"/><path fill="rgba(243,218,226,255)" stroke="rgba(243,218,226,255)" d="M130 173 0 0l128 109 2 64"/><path fill="rgba(241,204,210,255)" stroke="rgba(241,204,210,255)" d="M300 450H0l109-66 191 66"/><path fill="rgba(243,206,212,255)" stroke="rgba(243,206,212,255)" d="m118 331 182 119-191-66 9-53"/><path fill="rgba(241,210,219,255)" stroke="rgba(241,210,219,255)" d="M0 450V0l16 405-16 45"/><path fill="rgba(242,204,213,255)" stroke="rgba(242,204,213,255)" d="M109 384 0 450l16-45 93-21"/><path fill="rgba(243,215,223,255)" stroke="rgba(243,215,223,255)" d="m0 0 130 173-64 110L0 0"/><path fill="rgba(244,213,222,255)" stroke="rgba(244,213,222,255)" d="M16 405 0 0l66 283-50 122"/><path fill="rgba(232,162,175,255)" stroke="rgba(232,162,175,255)" d="m130 173-12 158-52-48 64-110"/><path fill="rgba(242,207,215,255)" stroke="rgba(242,207,215,255)" d="m118 331-9 53-43-101 52 48"/><path fill="rgba(243,205,214,255)" stroke="rgba(243,205,214,255)" d="m109 384-93 21 50-122 43 101"/></g></g></svg>