<svg xmlns="http://www.w3.org/2000/svg" width="1992" height="3000"><path fill="#eccbd2" d="M0 0h1992v3000H0z"/><g fill-opacity=".5"><path fill="#a6575f" d="M439.5 1834L1037 802.7l621.1 832z"/><path fill="#fae7ee" d="M2173.8 1670L-181.6 170l2156.2-351.6z"/><path fill="#510e22" d="M1025.4 1060.5l386.7 339.9 105.5-105.5z"/><path fill="#f8dade" d="M2173.8 2888.7l-1136.7-328.2 750-2097.6z"/><path fill="#80354f" d="M1283.2 1798.8l93.8-246-539.1 58.5z"/><path fill="#f7dde6" d="M791 2279.3L99.6-181.7l-281.2 2355.5z"/><path fill="#6b2f30" d="M884.8 1400.4l-152.4-175.8 222.7-187.5z"/><path fill="#e68ea2" d="M1201.2 1166L1166 838l597.7 574.2z"/><path fill="#e59d9c" d="M1154.3 1998l-480.5-164 644.6-304.7z"/><path fill="#f4cebb" d="M896.5 920l105.5 597.6 269.5-70.3z"/><path fill="#f3dde4" d="M5.9-181.6L-17.6 1623 2173.8 263.7z"/><path fill="#f9e3e8" d="M1353.5 1494.1l492.2-351.5-316.4 867.2z"/><path fill="#e59ba0" d="M474.6 1611.3L697.3 1834l117.2-773.5z"/><path fill="#520b3f" d="M767.6 1705l316.4-105.4-304.7-11.7z"/><path fill="#492827" d="M1306.6 1435.5l-70.3 398.5 140.7-269.5z"/><path fill="#43221e" d="M1201.2 1283.2L1002 1002l187.5 140.6z"/><path fill="#ef77b5" d="M802.7 1623l187.5 140.7 304.7-129z"/><path fill="#e99fb0" d="M1681.6 1189.5L966.8 955l515.6 386.7z"/><path fill="#3e1522" d="M1388.7 1423.8l-58.6-152.3 152.3 93.7z"/><path fill="#441c22" d="M861.3 1107.4l140.7-93.7L814.5 1248z"/><path fill="#e3ae9d" d="M1095.7 1564.5l70.3-351.6 246.1 175.8z"/><path fill="#b95674" d="M943.4 1283.2L755.9 1459v421.9z"/><path fill="#f3ced4" d="M2173.8 3076.2L357.4 1541l-539 1359.4z"/><path fill="#f2d5dc" d="M1283.2 1810.5l890.6 339.9-363.3-1453.1z"/><path fill="#cc9583" d="M638.7 1412.1l515.6-164L627 1599.5z"/><path fill="#4b1b2e" d="M1423.8 1400.4l-11.7-46.9-93.7 117.2z"/><path fill="#e4b3b1" d="M1341.8 1916l-609.4 47 351.6-316.4z"/><path fill="#e596b4" d="M591.8 1564.5l257.8-492.2-175.8 93.7z"/><path fill="#1f0f18" d="M955 1646.5l140.7-35.2-257.8-11.7z"/><path fill="#dc659f" d="M732.4 1775.4L1166 1623H931.6z"/><path fill="#0a000c" d="M1166 1623l-93.7-46.8-11.8 35.1z"/><path fill="#3c1a1e" d="M1224.6 1177.7L990.2 1002l82 128.9z"/><path fill="#621d28" d="M1107.4 1306.6h-58.6l11.7-58.6z"/><path fill="#de63ae" d="M908.2 1447.3l339.8 140.6-433.5-35.2z"/><path fill="#eac7ba" d="M931.6 1259.8l-35.1-105.5 351.5 105.5z"/><path fill="#c2977b" d="M1306.6 1634.8L1189.5 1787l70.3-363.3z"/><path fill="#f3d8e0" d="M1412.1 814.5L181.6-181.6 111.3 1412z"/><path fill="#dd939a" d="M849.6 1740.2l58.6 222.7L627 1775.4z"/><path fill="#f6dbe0" d="M1435.5 1646.5l328.2-445.3-421.9 293z"/><path fill="#713443" d="M955 1318.4l-46.8-58.6-82 105.4z"/><path fill="#f1d1d6" d="M17.6 2033.2l2156.2-211-187.5 1031.3z"/><path fill="#eccfbb" d="M1013.7 1330l269.5 117.3L873 1412z"/><path fill="#743d4a" d="M1259.8 1529.3l70.3-105.5 117.2-35.1z"/><path fill="#f0d1da" d="M814.5 2291l-996.1 257.8L134.8 720.7z"/><path fill="#915a58" d="M1283.2 1787.1l-140.6 58.6 152.3-199.2z"/><path fill="#48212d" d="M1248 1259.8l117.2 23.4-234.3-175.8z"/><path fill="#e2a3a8" d="M791 1353.5l-82-152.3-187.5 433.6z"/><path fill="#aa4776" d="M826.2 1447.3l35.1 269.5-140.6 23.4z"/><path fill="#35181b" d="M873 1107.4L849.6 1248H791z"/><path fill="#e7d1be" d="M978.5 1775.4l199.2-58.6 47 187.5z"/></g></svg>