<svg xmlns="http://www.w3.org/2000/svg" viewBox="0 0 2000 3000"><filter id="c"><feGaussianBlur stdDeviation="55" /></filter><path fill="#edcbd3" d="M0 0h1992v3000H0z"/><g filter='url(#c)' fill-opacity='.5'><ellipse fill="#a24d54" fill-opacity=".5" rx="1" ry="1" transform="rotate(135 221.5 933.4) scale(480.89994 395.89484)"/><ellipse fill="#fae9ef" fill-opacity=".5" rx="1" ry="1" transform="matrix(-168.61726 631.74186 -1913.48285 -510.72482 1014.4 348)"/><path fill="#714246" fill-opacity=".5" d="M1395.8 1524.4L900.3 915l432.8 328-107.7 639z"/><ellipse fill="#000004" fill-opacity=".5" rx="1" ry="1" transform="matrix(-.50802 -17.59031 196.49299 -5.67482 978.6 1624)"/><path fill="#39090f" fill-opacity=".5" d="M779.3 1283.2l152.3 46.9-46.8-234.4z"/><path fill="#f9dde1" fill-opacity=".5" d="M2053.4 3076.2l111-1964.3-831 352.4 217 715z"/><ellipse fill="#4f1229" fill-opacity=".5" rx="1" ry="1" transform="rotate(48.7 -779.5 2215) scale(78.97752 61.22842)"/><ellipse fill="#f1c1b6" fill-opacity=".5" rx="1" ry="1" transform="matrix(74.91341 -165.1457 175.1647 79.45823 1101.2 1384)"/></g></svg>