<svg xmlns="http://www.w3.org/2000/svg" viewBox="0 0 2000 3000"><filter id="b"><feGaussianBlur stdDeviation="12" /></filter><path fill="#eccbd2" d="M0 0h1992v3000H0z"/><g filter="url(#b)" transform="translate(5.9 5.9) scale(11.71875)" fill-opacity=".5"><ellipse fill="#a34c53" rx="1" ry="1" transform="matrix(27.19516 -33.07217 25.25652 20.76838 87.4 123.9)"/><ellipse fill="#fae8ef" rx="1" ry="1" transform="rotate(-177.1 53.5 17.7) scale(164.14348 50.34742)"/><path fill="#2a000f" d="M82 85l36.3 34.2-9.4 9 18.8-10.9z"/><path d="M63.5 135.2l33 .6v3l-33-.6z"/><path fill="#552323" d="M65.3 109.5l8.4 9.2 5.6-25-5.2-.6z"/><path fill="#f4ccbc" d="M83 89l-3 46 32-16z"/><ellipse fill="#eebcb4" cx="87" cy="157" rx="27" ry="9"/><path fill="#724447" d="M99.5 164.4l-.2-4.7 13-8.2 5.4-42.4z"/></g></svg>