<svg xmlns="http://www.w3.org/2000/svg" viewBox="0 0 2000 3000"><filter id="c"><feGaussianBlur stdDeviation="55" /></filter><path fill="#edcbd3" d="M0 0h1992v3000H0z"/><g filter='url(#c)' fill-opacity='.5'><ellipse fill="#a14c53" fill-opacity=".5" rx="1" ry="1" transform="matrix(321.88777 221.22733 -277.57866 403.87946 1028.7 1474.5)"/><ellipse fill="#faeaf1" fill-opacity=".5" rx="1" ry="1" transform="matrix(32.89802 553.73664 -1971.35473 117.12005 952.1 420.4)"/><path fill="#2c000c" fill-opacity=".5" d="M971 972.6l126.7 194 406 266.5-239.2-221.8z"/><path fill-opacity=".5" d="M1107.4 1593.8v35.1H849.6v-35.2z"/><path fill="#4b1a1e" fill-opacity=".5" d="M779.3 1224.6l128.9 117.2 11.7-293z"/><ellipse fill="#f8cccc" fill-opacity=".5" rx="1" ry="1" transform="rotate(-129.9 924.5 740) scale(166.14493 312.8283)"/><ellipse fill="#f4cdbb" fill-opacity=".5" rx="1" ry="1" transform="matrix(143.70988 221.06685 -92.79099 60.32104 1082.1 1351)"/><path fill="#34151b" fill-opacity=".5" d="M1353.5 1623l-128.9 199.3 129-422z"/></g></svg>