<svg xmlns="http://www.w3.org/2000/svg" width="1992" height="3000" viewBox="0 0 2000 3000"><filter id="a"><feGaussianBlur stdDeviation="55"/></filter><rect width="100%" height="100%" fill="#a05753"/><g filter="url(#a)"><g transform="translate(5.9 5.9) scale(11.71875)" fill-opacity=".5"><ellipse fill="#fdffff" rx="1" ry="1" transform="matrix(-123.8576 12.3842 -1.06265 -10.62786 130.5 11.4)"/><ellipse fill="#e9f5ff" rx="1" ry="1" transform="matrix(10.38519 -.37074 5.2945 148.3089 73.5 66.8)"/><ellipse rx="1" ry="1" transform="matrix(.70756 -108.49916 12.56861 .08196 101.3 191.1)"/><ellipse fill="#900000" rx="1" ry="1" transform="matrix(-15.53183 -168.28477 48.82549 -4.50634 9.5 176)"/><ellipse fill="#eaffff" cx="169" cy="148" rx="11" ry="148"/><ellipse fill="#0b062b" rx="1" ry="1" transform="matrix(-8.59228 59.00801 -18.5706 -2.7041 36.1 214.5)"/><ellipse fill="#ce0000" cx="145" cy="173" rx="13" ry="98"/><ellipse fill="#b9f9ff" rx="1" ry="1" transform="matrix(7.11255 .31054 -2.55014 58.40778 72.6 205.2)"/></g></g></svg>