<svg xmlns="http://www.w3.org/2000/svg" width="2000" height="3000" viewBox="0 0 2000 3000"><path d="M0 1500v1500h343.4c334.5 0 343.5 0 344-1.9.4-1 1.5-2.6 2.6-3.6s2-2.4 2-3.2c0-.8 1.7-4 3.7-7.1 2-3.1 5-8 6.4-11a469.1 469.1 0 0 0 27.9-57.5c0-.8.7-2.7 1.5-4.4l4-9.4 5.3-13.9c2.7-6.8 7.6-22.2 10.4-32.5l4.2-15.5c.8-3 1.8-6.8 2.1-8.5l4.6-20a312 312 0 0 0 3-14l3.3-19c4-21.3 8.1-55.7 9.6-78.5l2-25.5c.5-6.6 1.5-22.8 2-36l2-45.5c.6-11.8 1.4-34.3 2-50 1.5-44.2 2-56.2 3-74 .5-9 .9-19 .8-22-.2-7.6 1-45.5 1.6-47.1.2-.8.7-13.3 1-27.9a2175.4 2175.4 0 0 1 2-57l1.1-27c.3-5.8 1-25.1 1.5-43s1.4-43.5 2-57c.6-13.5 1.2-33.3 1.5-44 1-44.8 2.5-98 2.9-104.5.3-4.3.1-6.2-.4-5-.8 2-.9 2-1-.2 0-1.2.4-2.3.9-2.5a237 237 0 0 0 1.5-29.3c.4-16 1-32.7 1.2-37.3.4-5.9.2-8.2-.7-8.2-.8 0-.8-.4-.1-1.3a199 199 0 0 0 1.6-27.7l1.1-42c1.2-39.2 1.5-85.1.5-84.5-1.4.9-1.3-1.8.2-3.3 1.7-1.7 2.4-24.2.6-24.2-.9 0-1-.3-.2-.8a48 48 0 0 0 1.8-14.7c.6-12.7.4-14.3-1.3-17.6-2-3.8-1.9-5.1.4-4.3 1 .4 1.4-4.2 2-21.8l1.5-54.8c1-30.9 2-74 2.4-102.5l1.2-39c1-26.7 1-57 .2-61.5-.3-1.4-.1-3.6.4-4.9 1.3-3.6 1.9-29.1.6-29.1-.7 0-.7-.4 0-1.3 1-1.2 1.7-17 2.7-62.2l1-37.5 1.1-43.5c.3-15.4.8-32.6 1-38.3a53 53 0 0 0-.4-13.1c-.7-2-.7-3.2 0-4 .8-.7 1.3-23.5 1.6-72.8.7-106 .7-106.6-.6-107-.7-.3-1.2-1.2-1.2-2.1 0-1.3.2-1.4.9-.4 1.3 2.1 1.7-6.3 1.5-28.3l-.4-32.3c0-8.9-.4-12-1.2-11.6-.8.5-.9.2-.2-1.2.5-1 1-9.9 1-19.6v-17.7l-6.6-.6c-11.5-1-10.5.3-10.8-14.2-.3-15.9-3-24.7-6.2-20.8-1 1.2-1 1.5.4 1.5.9 0 1.6.6 1.6 1.4 0 1.8-2.7 2.9-3.4 1.3-.3-.9-.7-.8-1.4.2-.9 1.2-1.3 1.3-2.6.1-1.5-1.2-1.5-1.4.3-2.7 1.2-.7 1.8-2 1.5-2.8-.7-1.8-2.7-2-2.1-.3.6 1.8-4.3 5.8-7.3 6l-5.5.3c-1.6.1-5 .5-7.5 1-7.4 1-28 1.2-28.3 0-.2-.6-1-.5-2 .3-1.2 1-1.6 1-2 0-.4-1-.8-1-1.4-.2-1.8 2.4-5.4 2.3-6.5-.2-.6-1.3-1.7-2.4-2.5-2.4-1 0-1.1.4-.3 2 1.4 2.6-.8 3.7-4 2-2.4-1.3-2.6-4.7-.3-7.2.9-1 1.1-1.8.5-1.8-.6 0-1.3.4-1.6.8-.4.7-4 .8-6.8.3-.4 0-.5-2.1-.3-4.6.4-4.8 0-5-4-1.4-2.2 2-6.4.2-5-2 .3-.6.2-1.1-.4-1.1-.5 0-1.2.6-1.4 1.3-.3.6-.6.3-.6-.8s.9-3.6 2.1-5.5c1.2-2 2.2-3.8 2.3-4.2 0-1.1 1.5-2.2 1.5-1 0 .5.3 1.7.6 2.6.4 1 0 1.6-1.1 1.6-1.4 0-1.5.3-.5 1.5.6.8.9 2.3.5 3.6-.5 1.5-.3 2 .6 1.7.8-.3 1.6-1.8 2-3.4.3-2 1-2.9 2.2-2.8 1.2.1 1.7-.6 1.6-2.5 0-1.4-.3-2-.5-1.5-.5 1.3-4.4.7-4.4-.6 0-1.3 2.9-2 3.3-.7.2.7 1 .1 1.6-1.2 1-2 1-2.5 0-3.3-1.1-.7-1.1-1-.1-1.5.6-.2 1.2-1 1.2-1.4 0-.6-.5-.7-1-.4-.5.3-1 .2-1-.4 0-.5.5-1.3 1-1.6 1.7-1 1.1-2.5-.7-1.8-1.3.5-1.5.3-.9-1.3.5-1 .8-2.6.9-3.4 0-.8.4-2 .9-2.7 1.1-1.4-.4-2.5-2.5-1.7-1.5.5-1.5 2-.3 11.3.5 3.7-1.3 6-4.6 6-2.3.1-2.3-1.5-.2-2.7 1-.5 1.4-1.5 1-2-.4-.7-1.1-1-1.6-.7-.5.3-1.8-.3-3-1.5-2.1-2.1-4.5-2.6-5.4-1.1-.3.5 0 1.1.9 1.5 1.6.6 1.6 6.6 0 7.8-1.6 1.2-2.8.9-2.2-.6.8-2-2-2.8-2.8-.8-.6 1.5-.8 1.5-1.5-.3-1.2-2.8-1.2-3.5 0-3.5 1.5 0 4-2.5 4-4 0-.5-.5-1-1.2-1-1.1 0-.3-1.4 1-1.6 2.6-.6 5.2-1.8 5.2-2.4 0-1.7 3.5-1.5 5 .1 1.1 1.2 2 1.5 3 .8 1.2-.7 1-1-.8-1.5-1.2-.4-2.2-1-2.2-1.3 0-1.5 2-3.5 3.6-3.7a4 4 0 0 0 2.5-1.6c.8-1.3 1.2-1.4 4.7-1.7 1 0 2.3-1.5 3-3.1 1.5-3.4 3.7-3 2.6.3-1 3.6-3.5 5.8-5.7 5.1-1.6-.5-1.9-.3-1.4 1 .4 1 .7 2.2.7 2.7s.5.9 1 .9c.6 0 .8-.5.4-1.2-.5-.8-.2-1 1-.5 1 .4 1.6.1 1.6-.8 0-1.6 1.2-2 2.3-.8.4.3 0 1.5-1 2.6-1.7 2-1.7 2 .2 1.3a31 31 0 0 1 4-1.2c2.2-.4 5.5-3.4 3.8-3.4-.7 0-1.5.5-1.8 1-.3.5-1.2 1-1.8 1-.8 0-.8-.3.1-.9 1.1-.7 1-1-.2-1.4-.8-.3-1.7 0-2 .6-.2.7-.5.2-.5-1 0-1.3.3-2.3.8-2.3s.7-.9.4-2c-.3-1.1 0-2 .6-2s1.1-1.4 1.1-3c0-2.1.4-3 1.3-2.7.6.2 1.2 1.7 1 3.3 0 2 .8 3.6 2.9 5.3 3.4 2.8 4.6 2.4 1.8-.7-1-1.1-2.2-3.5-2.5-5.3-.3-1.7-1-4-1.6-5-.5-1-.8-2.4-.7-3.1.2-.8-1-1.4-3.5-1.6-2.8-.2-3.7 0-3.7 1.2 0 .9-1.1 1.8-2.5 2.2-3 .7-7.5-.2-7.5-1.6 0-1.6 3.3-2.5 3.8-1.1.6 1.8 3.2-.7 3.2-3 0-1 1.1-2.4 2.5-3 2.7-1.3 2.4-2.9-.6-2.9-1.1 0-1.7-.5-1.4-1 .9-1.4 2.1-1.2 4 .6 1.3 1.3 1.8 1.4 3 .3 1.3-1 1.3-1.4.3-2.1-1-.8-1-1 0-1.5 2.1-.8 1.3-2.3-1.3-2.3-1.6 0-2.5.6-2.5 1.5s-.9 1.5-2 1.5c-1.3 0-2-.5-1.7-1.3.4-1.2-2-3.6-3.6-3.7-.5 0-.6.9-.2 2 1 2.9-1 3.3-3 .5-.8-1.4-1-2.5-.5-2.5s1-1.2 1-2.8c0-2 .2-2.4 1-1.2 1 1.6 3.9-1 4-3.8 0-.6.5-1.2 1-1.2 1.2 0 1.3 3 0 5-1.5 2.4 0 3.2 2 1 1.8-2 4-2 4 .1 0 1.6 2.3 3.5 5.1 4.2 4 1 4.6 5.5 1.2 8.3-2.7 2.2-2.7 7.7 0 7.1.7-.1 1.2 1 1.2 3 0 4 1 4.2 2.3.5l1-2.7.1 2.7c0 1.5-.5 3.3-1.2 4-1 .9-1 1.6-.3 2.4 1 1 2 .8 5.5-1.4.3-.1-.4-.9-1.5-1.6-1-.8-1.5-1.8-1-2.3.4-.4 1.3 0 2 1 1.7 2.2 3.1 2.2 3.3 0 0-1 .4-2.8.8-4 .6-1.9.4-2.3-1.3-2.3a3 3 0 0 0-2.7 2c-.8 2.6-2.5 2.6-2.5 0 0-1.4-.7-2-2.3-2-1.8 0-2-.2-.7-1 .8-.5 2.5-1 3.8-1 1.2 0 2.2-.6 2.2-1.3 0-.6 1.1-1.2 2.5-1.2 1.7 0 2.5.5 2.5 1.8 0 1 .5 1.5 1 1.2.5-.3 1-2 1-3.7 0-4.4 1.2-2.7 1.6 2.3.2 2.8-.1 4.6-1 5.3-1.1.8-1.2 1.7-.4 3.6.6 1.4 1 3.3.9 4.2-.2 1.2.3 1.6 1.3 1.2 2-.8 2.9-3.4 1-3.4-.8 0-1.2-.5-.9-1 .3-.5.1-1-.4-1-.6 0-1.1-.7-1.1-1.5s.7-1.5 1.6-1.5c1 0 1.4-.6 1-1.4-.6-1.7 2-4.3 3.2-3.1.4.4.1 1-.6 1.2-1.6.6.3 3.3 2.4 3.3 1.7 0 1.8-2.7.1-3.3-.9-.4-.9-.8.2-1.6 1.1-.7 2-.4 3.3 1.1 1 1.2 1.8 1.6 1.8.8 0-.6.6-1 1.4-.7.8.3 2 0 2.6-.9.7-.8 2-1.4 3-1.4 2 0 3.6 1.7 2.5 2.8-.3.3-1 0-1.5-.8-.8-1.3-1-1.3-1 .1 0 2.3 2.2 3 4.5 1.3 2.6-2 4.5-1.7 4.5.5 0 2.4 4.9 4.4 9.5 4 2-.3 3.5-.1 3.5.3s.9.8 2 .8c1.5 0 2 .7 2 2.5 0 2.5 2.3 3.5 3.5 1.5.4-.6 1-.8 1.6-.4.6.4.6 1 0 1.9-.7.7-.8 2-.4 3 .4 1.3.3 1.6-.5 1.1a2.8 2.8 0 0 1-1.2-2.2c0-.8-.5-1.4-1-1.4s-1 .6-1 1.3c0 .7-1.3 1.2-3 1.2-1.6 0-3-.3-3-.7 0-.3-.3-1.5-.7-2.5-.6-1.7-.5-1.7 1.4 0 2.6 2.3 4.2 2.2 3.6-.3-.3-1-1-1.7-1.4-1.4-.5.3-.9 0-.9-.6 0-.7-.7-1-1.5-.6-1 .3-1.5 0-1.5-1.2 0-1.4-.4-1.2-1.9.7-1.4 1.9-2.4 2.2-4.5 1.7-2-.5-2.6-.3-2.6.9 0 .8.7 1.5 1.5 1.5s1.5.7 1.5 1.6c0 .8-.5 1.2-1 .9-.6-.4-1 .5-1 2 0 1.3.3 2.5.8 2.5.4 0 2 1.1 3.6 2.5l2.9 2.5 2.3-2.3c2.7-2.6 3-3.7.9-3.7-.8 0-1.5-.5-1.5-1 0-1.8 4.7-1.1 5.3.8.2 1 .8 2.6 1.2 3.7.5 1.1.5 1.7 0 1.3-1.2-1.1-3.5 1-2.9 2.7.3.7 0 1.6-.5 2-.6.3-1.1-.2-1.1-1.2 0-1.5-.2-1.6-1-.3-1.3 2-1.3 3.3 0 2.5.5-.3 1 0 1 1s.6 1.2 1.8.9c1.4-.5 1.4-.3-.3 1.3-1.5 1.4-2 3-1.8 6.4.1 4.3 0 4.6-2 4.1-1.1-.3-1.8-.1-1.4.4.3.5-.4 2-1.5 3.4-1.3 1.6-1.8 1.9-1.4.8.3-1 .1-1.8-.3-1.8-1.3 0-1.8 2-1.3 4.6.2 1.4 1 2 1.7 1.8 1-.4 1.2.1 1 1.8-.4 2-.3 1.9.7-.5 1.4-3.3 2.6-3.5 3-.5.2 1.6 1 2.3 2.5 2.3 1.2 0 2.5.4 3 .8 1 1 2.5.8 1.8-.3-.3-.5.3-1 1.4-1 1.2 0 2.1-.6 2.2-1.3 0-.6.5 0 .9 1.3.5 1.7.8-.5.9-6.5v-9l-2 2.4c-1 1.3-1.9 1.9-1.9 1.3 0-.6-.3-1.8-.7-2.8-.4-1.2-.2-1.5.8-1.2 2.9 1 4-1.9 3.5-9.2-.2-4-.6-7.4-1-7.7-.3-.3 0-1.2.5-2 .9-1 .8-1.3 0-1.3-.7 0-1-.4-.7-.8a54 54 0 0 0-.2-18.8c-.5.3-2.1-.6-3.8-1.9-2.8-2.3-2.9-2.4-1-4.2 1.7-1.7 1.8-1.7 1.3 0-.4 1-.1 1.7.7 1.7.8 0 1.6.4 1.8 1 .2.4 3.3.6 7 .3l6.8-.6v-4c0-2.2-.5-7-1-10.6-2-11.7-1.8-11.3-3.9-10.2-1 .6-2.1.8-2.4.4-.3-.3-2 0-3.7.6-2.9 1-3 .9-2.5-1 .5-1.5.2-1.9-1.5-1.9-1.6 0-2-.5-1.6-1.5.3-.8.1-1.5-.3-1.5-.5 0-.7-.9-.4-2 .3-1.1 1-2 1.4-2 .5 0 .9-.7.9-1.5 0-.9-.6-1.2-1.5-.9a3 3 0 0 0-1.5 2.5c0 1.2-.5 1.6-1.5 1.3-1.1-.5-1.3-1-.5-2 1.2-1.4.7-1.8-3.3-2.8-1.6-.4-2.7-.2-2.7.4 0 .5-.5 1-1 1s-1-.9-1-2c0-2.3-1-2.6-2.8-.8-1.3 1.3-1.6 3.9-.5 3.7 2.2-.4 2.2.4-.3 3.7-2.3 3-2.5 3.7-1.3 4.4 1 .7 1.5.4 1.9-1 .3-1 1.6-3 2.9-4.6 2-2.3 2.5-2.5 3.3-1 .4.8 1.5 1.3 2.3 1 1-.4 1.5 0 1.5 1.5 0 2.4-1.8 2.8-2.6.6-1-2.6-2.4-1.6-2 1.5.3 2.7 0 3.1-3.5 4.2-4.6 1.3-6 5.3-1.4 4.2 2-.5 2.5-.3 2.5 1.4 0 1.2-.5 2.4-1 2.7-.5.3-1 0-1-1s-.9-1.5-2.5-1.5c-2.8 0-3.2 1.2-1 3 1.4 1.1 1.3 1.4-.7 2.4-1.9 1-2.5.9-3.5-.3-1.1-1.4-1.2-1.4-1.3 0 0 2.1-4 2-4-.3 0-1.1.5-1.5 1.5-1.2 1 .4 1.5 0 1.5-1.6 0-1.1-.5-1.8-1-1.5-.5.3-1 .1-1-.4 0-2-2.9-1.2-4 1-.9 1.6-1.4 1.8-2 1-.6-1-.9-1-1.2 0-.3.8-.8 1.1-1.2.8-.4-.4 0-1.4 1-2.3 1-1.1 1.2-1.6.3-1.6-1 0-1-.3-.1-1.2 1.4-1.4 1.6-2.8.4-2.8-.5 0-1.5 1.1-2.2 2.5-.7 1.4-2 2.5-2.7 2.5-2 0-1.5 1.7.8 2.3 1.5.4 2 1 1.5 2.3-.5 1.2-.2 1.5 1 1 1-.4 2.2.1 3.1 1.4.8 1.1 1.8 1.8 2.3 1.5.5-.3 1.1 0 1.5.5.3.5.2 1-.4 1-.6 0-.7.8-.4 1.7.5 1.2.2 1.5-1 1-.8-.3-1.8 0-2 .6-.3.7-.6.5-.6-.5 0-.9.5-1.8 1.1-2.1.8-.3.6-.8-.7-1.3a8 8 0 0 1-2.8-1.8c-.5-.6-.6.9-.2 3.3.5 3.9.4 4.3-1 3.1-.8-.7-1.2-1.6-1-2.1.4-.5 0-.9-.5-.9-.7 0-1-.7-.6-1.5.3-1 0-1.5-1.2-1.5-1.3 0-1.7.8-1.6 3.2.1 3.8-1.6 5.8-4.8 5.7h-2.3l2.3-1.6c2.9-2 3-6.2.1-6-1.4 0-2.2 1-2.6 3-.7 3.7-2.1 3.4-2.5-.5-.3-3-.4-3-2-1.6-1.1 1.3-1.8 1.4-2.7.5-.8-.8-1.1-.7-1.1.6 0 2-1.6 2.3-2.2.5-.5-1.5-3.8-2-3.9-.5 0 .7-.4.2-1-1-.4-1.3-1.5-2.3-2.4-2.3-.8 0-1.5-.7-1.5-1.5s-.4-1.5-.9-1.5c-2.3 0-1.9-3.1.6-4 1.4-.6 3.5-2 4.5-3.2 1-1.2 2-2 2-1.7l1.8 2.2c1.2 1.7 1.1 1.8-1.3 1.2-3-.8-3.4 0-1.1 2.2.8.9 1.3 2.2 1 3-.7 1.8.3 1.7 2.6-.4 2.3-2.1 3.2-1.2 3.8 4.2 0 .5.5.2 1-.8.6-1 1.8-1.7 2.7-1.7 2 0 5.3-3.8 5.3-6 0-1.3.9-1.7 3.3-1.8 5.9 0 6 0 4.3-1.8-.9-.8-1.6-2-1.6-2.4 0-.5-.7-.7-1.5-.4-1 .5-1.5 0-1.5-2 0-1.8.4-2.4 1.5-2 1 .5 1.3.2.9-1-.8-2.2-2.5-2-3 .3-.4 1.3-1.2 1.8-2.2 1.4-1.3-.4-1.4-.3-.3.5.9.7 1 1.2.2 1.6-.6.4-1.1.2-1.1-.5 0-.8-.3-1-.9-.4-1.3 1.5-2.1 8.4-1 9 1.3.9-1.2 3.2-3.4 3.2-1.3 0-1.6-.6-1.1-2 .4-1.2.2-1.7-.4-1.3-1 .6-4.7-2.3-3.8-3 1-1 4.1-1 4.7-.1.4.5 1.1.2 1.7-1 .7-1.3.6-2.2-.4-3.1-1.2-1-1.5-1-2 .3-.6 1.4-.8 1.4-2.5-.1-1.5-1.4-2.1-1.4-3.4-.4-1.7 1.4-2-1-.5-4.5.8-1.8.9-1.8 1-.2 0 1 .4 1.6 1 1.2.5-.3.7-1.2.3-2-.4-1.1 0-1.4 1.3-.9 1.6.6 1.7.5.6-.7-.7-.8-1.8-1.4-2.5-1.4s-1-.6-1-1.3c.2-.7-.4-1.2-1.2-1.2-.8 0-1.5.6-1.5 1.4 0 .8-.4 1.6-1 1.8-.4.1-1.2 1.5-1.5 3-.6 2.5-.5 2.7 1.1 2.1 1.8-.6 1.8-.6 0 1.5-1.6 1.9-4.3 2.2-3.2.4.2-.4-.2-1.8-1-3.2-1.3-2.4-1.3-2.4-1.4-.3 0 1.4-1 2.6-3 3.5-2.2 1-2.8 1.7-2.4 3.2.4 1.3.2 1.7-.7 1.4-.8-.3-1.4-1.5-1.3-2.7 0-1.1-.3-2.1-.7-2.1-.4 0-.6-.8-.5-1.8 0-1-.7-1.8-2.1-2-4-.6-1-4.2 3.4-4.2 3.2 0 3.4.2 2.2 1.7-1.2 1.5-1.2 1.6.4 1 1.2-.4 1.7-.1 1.7 1 0 1.6.2 1.6 1 .3.5-.8.7-2.3.4-3.3-.3-1-.2-1.7.3-1.7.4 0 .9-1.3 1-3 .2-3.3-2-3.2-4.5.1-.7 1-2 1.6-2.8 1.2-1.5-.5-1.5-.7 0-1.5.9-.5 1.6-1.7 1.6-2.8 0-1 .6-2 1.3-2.3 1-.3 1-.9 0-2.6-1.3-2-1.2-2.1 1.2-1.7 2.2.4 6.7 3.6 5 3.6-.3 0 0 .6.7 1.4 1.7 1.8 3.3.9 1.7-1-.9-1.1-1-1.8-.2-2.2 1.8-1.2 1.9-5.7 0-8.5-2-3-2-3.7-.8-3.7.5 0 1.2.8 1.4 1.8.3 1 .5.6.6-1 .1-2.8-1.2-3.7-2.4-1.8-.4.6-1 .8-1.5.5-.4-.3-1 .3-1.4 1.2-.4 1 0 2 .8 2.5 1.7 1 1 4.8-1 4.8-.9 0-1.4-1-1.4-2.8 0-2-.2-2.4-1-1.2-.7 1-1 1.1-1 .2 0-.7-.4-1-1-.7-.4.3-1.1.1-1.5-.4-.3-.6-1.2-.8-2-.4-1.8.6-1.9.2-.3-3.2.6-1.4 1.8-2.5 2.5-2.5.8 0 1.1-.5.7-1.1-.4-.7-.1-1 .6-.7 1.4.4 2.2 4.8.9 4.8-.5 0-.6.7-.2 1.6.5 1.5.7 1.5 1.5 0 .5-.9.6-2.1.2-2.8-.4-.7-.3-.8.4-.4.8.5 1.2-.2 1.2-1.8 0-1.4.5-2.6 1-2.6s1 1.2 1 2.7c0 2.3.2 2.5 1.3 1 1.8-2.3 5.7-3.2 5.7-1.3 0 2 1.6 2 2.4 0 .3-.9-.1-1.7-1.3-2.2-1.8-.6-1.8-1-.6-4 1-2.2 1.9-3 3-2.6 1.4.6 1.4.8 0 2.4-1.5 1.6-1.4 1.8 0 2.4 2 .7 7.1-3 5.5-3.9-1.7-1 0-2.6 2-2 1.1.4 2 .2 2-.4 0-1.7-1.5-2-4-.7-1.9 1-3.1 1-5 .2-1.7-.8-2.4-.8-2.8.2-.2.6-1 1.2-1.8 1.2s-1.4.5-1.4 1c0 1.8-1.7 1-2.8-1.3l-1.2-2.2.3 2.5c0 1.4.8 3 1.5 3.6 1.1.8 1.1 1.2-.2 2.3-1.4 1.2-1.6 1-1.6-.6 0-2.2-4-3-5.2-1-.5.8-.8.6-.8-.6 0-1.7-.1-1.7-1.6-.3-.8.9-1.4 2-1.1 2.3.2.5-1 2.1-2.5 3.7l-2.7 3 .2-2.6c.1-1.5-.3-2.6-.8-2.5-.5.1-1 1-1 2 .2 3.7-1.4 1.5-1.8-2.5-.3-3.6-.5-4-1.2-2-.4 1.2-1.2 2.2-1.9 2.2-.6 0-.3.5.7 1.1 2.4 1.4.5 4-2.3 3.2-2.4-.6-2.5-1.6-.5-3.3 2.3-1.9 2-4.3-.5-3.7-1.3.3-2 0-2-.9 0-.8-.7-1.4-1.5-1.4s-1.5-.5-1.5-1 .6-.9 1.3-.8c.6.2 1-.3 1-1-.3-1 .2-1.2 1.2-.8l2 .6c.3 0 .5.6.5 1.4 0 2.1 3.2 3 4.3 1 .6-1 1.3-1.2 2-.6a12 12 0 0 0 4.5 1.4c3.7.5 4-1 .4-2.7-1.2-.5-2-1.5-1.8-2.2.3-.7 0-1.5-.4-1.8-.6-.4-1 .3-1 1.4 0 1.2-.5 2.1-1 2.1a1 1 0 0 1-1-1c0-.5-.7-1-1.5-1s-1.5-.7-1.5-1.5c0-1.3-.4-1.4-2-.5-1.8 1-2.2.8-2.7-1-.6-2.4-3.5-2.8-3-.3.1 1.3-.6 1.7-3 1.9-2.3 0-3.3-.3-3.3-1.4 0-1.2-.3-1.2-1.5-.2-1.6 1.3-2 0-1.6-4.4 0-1.4-.2-1.6-1.1-.9-2 1.5-5.8 2.3-5.8 1.2 0-.6 1.3-1.8 3-2.7 2.2-1.3 2.8-2.2 2.4-3.6-.5-1.4-.2-1.8.8-1.4.8.4 2-.3 2.7-1.5 1.3-2 1.4-2 2.6-.4.7 1 1.7 1.7 2.1 1.6 2.8-.5 4.4.3 4.4 2.2 0 1 .4 1.8 1 1.5.4-.4.6-1.5.3-2.6-.4-1.6-.2-1.9 1-1.4 1.8.7 2.4 4.4.7 4.4-.5 0-1 1.4-1 3s.5 3 1 3c.7 0 .9-.9.5-2-.4-1.4-.2-2 .9-2 .9 0 1.3-.6 1-1.3-.5-1.5 3.2-6.7 4.7-6.7.6 0 .9.8.7 1.8-.2 1-1 1.6-1.7 1.4-.9-.2-1.1.3-.7 1.3l.6 2.2c0 .4.9-.2 2-1.2s2-1.4 2-.8c0 .5 1 1.5 2.3 2.2 2 1 1.8 1.1-1.6.7-2.4-.3-3.7-.1-3.5.5.2.6.8.9 1.3.7.5-.2 1.4 1.7 2 4.2 1 4.4 1.2 4.5 5 4.4 3.6 0 4-.4 3.7-2.4-.3-1.5 0-2 1-1.8.7.3 1.2 1.6 1 2.9-.3 2.2 0 2 3.3-1.4 2-2.1 3.4-4.1 3-4.5-.3-.4-1 0-1.6.8-.8 1.3-1 1.3-1.9 0-1.6-2.4-1.2-3 2-2.8 3 .2 5.5 4.8 3 5.6-.5.2-1 1-1 2 0 1.2.3 1.2 1.5.2.8-.7 1.5-2.5 1.5-4.1 0-2.6.2-2.8 2-1.7 1 .7 1.7 1.5 1.4 2-.2.3 0 1 .6 1.3.5.3 1 0 1-.7 0-.8.5-.6 1 .5.7 1 1.5 1.5 2 1.2.6-.4 1-.2 1 .4 0 .6.7.8 1.5.5 1.1-.5 1.4-.1 1 1.2-.6 1.6-.5 1.7.5.4.9-1.1 1.3-1.2 1.7-.3.2.7 1.3 1.3 2.4 1.3 1.1 0 2 .7 2 1.8 0 1 .3 1.3.7.7.4-.5 1.6-1.7 2.6-2.5 1.8-1.4 2-1.3 1.3.2-1.4 3.9 5.4 5.8 7.8 2.1.9-1.3 2.2-2.3 3-2.3 2 0 1.9 1.8-.3 2.3-1.3.4-1.2.5.5.6 1.2 0 2.3-.4 2.5-1 .2-.7.9-.5 1.7.5 1.2 1.4 1 1.6-2.1 1.6-4.1 0-4.8.5-4 3.1.3 1.2 1 1.8 1.9 1.5.8-.3 1.8.4 2.5 2 .6 1.3 1.7 2.4 2.5 2.4.7 0 1.3.6 1.3 1.4 0 1 1.4 1.3 5.5 1.2 4.5-.1 5.4.1 5 1.4-.7 2.2 1.2 4.9 2.3 3.2.5-.7 1.6-1 2.6-.6 1.6.6 1.6 1.6-.2 6.3-.3 1-.1 1.2.6.7.7-.4 1.2-.3 1.2.3s.7.8 1.5.5c1.4-.6 1.3-.8-.1-1.9-1-.6-1.4-1.7-1-2.3.8-1.3 3.8-.4 3.3 1-.4 1.4 4.2 6 5.2 5.4 2.7-1.7-15.3-67.9-18.3-67.3-.7.1-1-1.3-.8-4.1.1-2.7-.1-4.1-.8-3.7-.5.3-1-.3-1-1.5 0-3.2-2.8-9.2-4-8.5-.5.3-1 .1-1-.4 0-.6.5-1.1 1-1.1 1.4 0 .3-5.7-1.6-8.5-.8-1-1.4-2.6-1.4-3.5 0-2.1-6.2-17.2-12.6-30.8-1.9-4-3.4-7.7-3.4-8.2 0-.6-1-2.7-2.3-4.8-1.3-2-3.4-6.3-4.6-9.5-1.3-3.1-3-5.7-3.7-5.7-.8 0-1.4-1-1.4-2.6 0-3.2-4-12.4-5.3-12.4-.6 0-.7-.3-.4-.7a52 52 0 0 0-9.5-17.4c-1.2-.6-1.8-.6-1.8 0s-.5 1.1-1 1.1c-1.7 0-1.1-2.8.8-4 1.5-1 1.6-1.1.1-2.3-.9-.6-2-2.3-2.4-3.7-2.5-8.1-38.4-62.6-39.8-60.2-.2.4-.2.2 0-.5 0-.7-1.1-2.6-2.8-4.4a23 23 0 0 1-2.9-3.5 561.5 561.5 0 0 1-7-9.2c-2.3-2.8-4.8-5.2-5.6-5.2-.7 0-1.1-.6-.8-1.3.2-.7-.6-2.2-1.8-3.4a52.7 52.7 0 0 1-4.8-5.1 11.4 11.4 0 0 0-5.2-3.7c-1.5-.4-3-1.1-3.5-1.7-.4-.7 0-1 1-.5 1.9.7 2.4-1.7.7-2.8-.5-.3-1-.1-1 .5 0 .7-.5.6-1.4-.2-1-1-1-1.5-.2-2.1.7-.6.4-.7-.6-.3-1.3.4-1.8 0-1.8-1.5 0-1.3-.4-1.8-1.2-1.3-.6.4-.8.3-.4-.4.3-.6.2-1.3-.4-1.7-.5-.3-1-.1-1 .4 0 .6-.4 1.1-1 1.1-.4 0-.6-.8-.4-1.8.5-2-7-10.3-8.8-10-.6.2-1.8-1-2.5-2.4-1.2-2.3-3.4-3.6-4.6-2.6-.8.8-3.4-2.9-2.6-3.8.5-.6.6-1.4.2-1.7-.3-.4-1.2.1-2 1-1.1 1.7-1.5 1.4-5.2-2.5a32 32 0 0 1-4.5-5.8c-.3-.9-1.3-1.4-2-1-.8.2-1.7-.2-2-1-.9-2.3-.8-2.4 1.1-1.8 1 .3-.2-1.3-2.7-3.5a26 26 0 0 0-5.3-4.1c-.4 0-1.7-1-2.8-2.1-1.7-1.7-2.3-1.9-3-.8-.4.7-1.1 1-1.6.6-.4-.5-.2-1.1.4-1.5.8-.5-.7-2-4-4.2a72 72 0 0 1-6-4.5c-.4-.6-.7-.5-.7.2s-.7 1-1.5.6c-.9-.3-1.4-1-1.2-1.7.2-.6-1.1-2.1-3-3.4-3.4-2.3-4.8-2.8-3.8-1.3 1.2 2-1.6 2-3.7.1-1.8-1.7-2-2.3-.9-3 1-.6 1-1-.6-1.9-1.1-.5-2.3-.7-2.7-.4-.3.3-1.4 0-2.3-1-2-1.6-8.3-5.1-9.8-5.3l-3.3-.3c-2.2-.1-3.2-3.1-1-3.1.6 0 .3-.7-.8-1.5-1.7-1.2-2-1.2-3.2.3-1.4 2-3.6-.1-2.7-2.5.2-.7-.9-2-2.5-2.8-1.7-.9-3-1.3-3-1 0 .4-.7 0-1.6-1-.8-.8-2.1-1.5-2.8-1.5-.7 0-2.2-.9-3.3-2-2.5-2.2-9.2-5.2-10.3-4.5-.4.3-2.1-.8-3.8-2.3a22.9 22.9 0 0 0-7.1-4.2c-2.3-.7-4.1-1.7-4.1-2.2 0-.5-.9-.6-2-.3s-2 .2-2-.3-3.2-2.6-7.1-4.6c-6.5-3.4-7.2-3.6-8.8-2.2-2.4 2.2-3.1 2-3.1-.8 0-1.3-.7-2.7-1.6-3-2.4-1-2.8-.7-1.4.9.7.8.8 1.5.2 1.5-1.7 0-3.5-2.7-2-3.2.6-.2-1.7-1.5-5.3-2.8a45.2 45.2 0 0 1-7.3-3.2c-.6-.4-1.7-.8-2.6-.8a34 34 0 0 1-10.2-4c-1-.6-2.9-1-4.3-1s-2.5-.4-2.5-1c0-1-7.7-3.5-9.8-3.1-.6 0-1.2-.3-1.2-1 0-.5-.8-1-1.8-.8-1.8.2-5-.9-11.7-4a239 239 0 0 0-42-13c-7.1-1.8-13.7-3.6-14.5-4a26 26 0 0 0-6-1.6 108 108 0 0 1-9.5-2c-2.8-.8-6.8-1.6-9-1.8-2.2-.1-4.5-.6-5-.9-.6-.3-3.3-1-6-1.3a31 31 0 0 1-7.2-1.7c-1.6-.8-2.6-.8-3.6 0-.9.8-1.7.8-2.3.2a8 8 0 0 0-3.5-1.5c-9.3-1.8-14.2-2.5-19.4-2.6-3.3-.1-6.5-.6-7.2-1.1-.7-.6-3.5-.8-6.3-.6-2.7.1-5 0-5-.4 0-2-2-.5-2.1 1.4-.1 2.2-.2 2.1-1.2-.4-1-2.4-1.7-2.7-7.9-3.3a20 20 0 0 0-8 .2c-1.8 1.3-5.8 1.4-5.8.2 0-.6.4-.7 1-.4.6.3 1 .1 1-.4 0-.6-.6-1.1-1.3-1.1l-8.2-1c-7.5-1.1-16.7-.4-14.4 1.1 1 .6.6.9-1.2.9-1.9 0-2.8-.6-3.2-2.1-.5-1.8-1-2-3.2-1.5-1.5.4-2.4.3-2.1-.2.7-1.2-5.1-2.2-8.7-1.5-1.5.3-2.4.9-2.2 1.3.3.5 0 1.1-.5 1.5-.5.3-1-.1-1-1 0-1-.5-1.3-1.2-.9-.6.4-.8.3-.5-.4.7-1-4.9-2-15.8-2.6-9.5-.6-16.7-1.9-17.1-3-.3-.7 0-3.8.4-7 .5-3.3.5-5.6 0-5.6s-.7-.4-.3-1c.3-.4 0-1.1-.5-1.5-.5-.3-1-1.1-1-1.7 0-.7.6-.6 1.5.2 1.2 1 1.5 1 1.5-.4 0-1-.4-1.4-1-1.1-1.5 1-1.2-1 .4-2.4.8-.7 1.6-4.1 2-8.4L186 250c.5-6.3.7-12.2.4-13.2-.3-1.1 0-1.8.8-1.8 1 0 .9-.3-.2-1-.8-.5-1-1-.4-1 2 0 8.1-43.2 6.8-48.5-.3-1.3-.2-3 .2-3.7.5-.7.9-2 .9-2.8 0-1 1.3-1.6 4-1.8 2.4-.2 4.6-1.1 5.7-2.4 1-1.2 1.8-1.6 1.8-.8 0 .9.4 1 1.3.2.6-.5 5.5-1.2 10.7-1.5 10-.5 14-1.3 14-2.8 0-.5.8-.9 1.8-.8 1 0 1.2.3.4.6-1.8.7-1.5 2.3.4 2.3 1 0 2.3-.8 3-1.8 1-1.2 1.6-1.4 2.1-.6.5.6 2.3 1 4.2 1 2-.2 5.2 0 7.3.6 2.5.5 8.3.3 17-.8 7.3-1 14.3-1.7 15.6-1.6 1.2 0 2.2-.4 2.2-.8s1.2-1.1 2.8-1.6c4.3-1.2 9.2-1.4 9.2-.3 0 .5 2.5.9 5.5.9 4.7 0 5.4-.2 4.9-1.8-.4-1.2-.3-1.3.3-.4.6.8 2.5 1 5.9.7a1660 1660 0 0 1 24.1-2.5c1.2 0 2.5-.5 2.8-1 .3-.6 1.4-1 2.3-1 1.5 0 1.5.2.2 1-1.1.7-.5 1 2.3 1 2.3 0 3.6-.4 3.2-1-.4-.6.6-1 2.2-1s3.4-.5 4-1.1c.9-.9 2-.9 4.2 0 1.8.8 5 1 7.8.7L384 158c6.3-.6 12.1-1.7 13-2.3 1-.8 1.4-.8 1.7.2.3.6 1 1.2 1.4 1.2.6 0 .7-.5.4-1-.5-.8 1.2-1 5.4-.4 4.6.5 6.1.3 6.1-.6 0-.9 1.2-1 4.4-.6 2.5.4 9 0 15.2-1 6-.9 12.7-1.6 14.9-1.6 3 0 3.5-.1 2-.7-1.4-.6-.3-1 4-1.2a21 21 0 0 1 6.5.1c.8 1 38.5-2.4 42-3.7.8-.3 4.4-.6 8-.7 8.4-.3 31-2.2 42-3.5 11.5-1.4 15.2-1.8 31.5-3 12.6-1 25.6-2.3 37-3.6a309718.7 309718.7 0 0 1 46-3.5c7.1-.5 14.6-1.2 16.5-1.5 2-.3 11.1-1.2 20.5-2L730 126c16-1.5 32.2-3 45.5-4a1472.4 1472.4 0 0 0 51.5-4.5c10.5-.8 40.9-4 47.7-5 1.8-.4 3.2-1 3-1.4 0-.5.3-.9.8-.9s.9.5.7 1c-.3 1.2 15 0 21.8-1.8a1316 1316 0 0 0 66.5-6c7.5-.8 11-1.2 34.5-3.4 11.8-1.1 24.2-2.5 27.5-3 7-1.2 10.8-1.6 30.5-3 8-.5 15.8-1.2 17.5-1.5a888 888 0 0 1 31-3 1314.3 1314.3 0 0 0 50-5l20-2a3636.8 3636.8 0 0 1 61-6c27.2-3.3 32.5-3.8 71-7.4a823 823 0 0 0 27.5-3c3-.6 9.5-1.3 14.5-1.6 13.2-.8 27.5-2.7 27-3.6a420.7 420.7 0 0 0 48.5-4c3.6-.4 8.4-.9 10.8-.9 3 0 4.4-.5 4.9-1.6.3-.9.9-1.1 1.2-.6.6 1 17.5-.1 52.5-3.3a3351.6 3351.6 0 0 0 80.6-8 1651.8 1651.8 0 0 0 33-3.5 5142.3 5142.3 0 0 0 47.5-5l28.5-3c10.7-1.2 25.3-2.5 32.5-3a529 529 0 0 0 21.5-2 469 469 0 0 1 20.5-2c15.2-1 33.7-2.6 53.5-4.5a4104 4104 0 0 0 72-6.1l56-5c31-2.5 52.9-4.5 54.7-5l2.3-.4.3 42.2.2 42.3.3-43.8.2-43.7h-576.3C1107.8 0 849 .4 849.5.8c1.2.8 1.3 3.7.2 4.8-.4.4-1-.7-1.3-2.4l-.6-3.2h-29.4C800.3 0 789 .5 789 1s.5 1 1 1c.6 0 .8.5.5 1-1 1.7-3.5 1-3.5-1 0-1.9-.9-2-28.8-1.9-17 0-27.9.4-26.7.9 2 .8 1.9.9-.3 1-1.2 0-2.2-.4-2.2-1 0-1.8-135.7-1.2-136.4.5-.3.9 0 1.5.9 1.5.7 0 1.7.5 2 1 .4.6-.8 1-3 1-3.2 0-3.5-.2-2.5-2 1.5-2.8 1.3-3-2-3-1.7 0-3 .5-3 1.3 0 1-.2 1-.8 0-1.3-2-61.2-1.7-61.2.3 0 1.8-1.5 1.8-3.4-.1-2-2-302.6-2.3-302.6-.2 0 .9-.3.8-.9-.1-.5-.9-2.5-1.2-6.2-1-5 .3-5.4.5-5 2.5 0 1.3-.3 2.3-.8 2.3-.6 0-1.1-1.1-1.1-2.5 0-3-1.6-3.3-2.3-.3-.5 1.8-.8 2-2.1.9-.9-.8-1.3-1.7-1-2.2C197.8.4 154 0 99 0H0v1500M1912 225.6l-38.5 2.9c-68 4.7-84.3 6-85.9 7.4-.7.6-3.3.8-6.3.5-6.2-.8-50 2.7-54.3 4.3-.8.3-6.9.6-13.5.8-6.6.1-17.2.8-23.5 1.4l-42.2 3.6c-17 1.4-31.3 2.8-32 3-.7.2-6 .6-11.8 1-5.8.2-20.6 1.3-33 2.4a4035.9 4035.9 0 0 1-90.5 7.1l-34 2.7a367 367 0 0 1-23.8 1.4c-2 0-4.3.2-5 .6-.7.4-5.3.9-10.2 1-5 .2-9.2.8-9.3 1.3-.3.7-.9.7-1.8 0-1-1-2-.9-4 .4-1.8 1.2-3 1.4-4.3.6-2.5-1.3-9.8-1.3-10.6 0-.4.6-2 .8-3.8.5-1.8-.3-12 .2-22.7 1-10.7 1-21.8 1.7-24.6 1.6-5.2-.2-9.2 1.9-7.9 4 .4.5-.3.9-1.4.9-2.5 0-2.8-1.7-.3-2.3 1-.2-1.6-.4-5.6-.4-4 0-7.5.4-7.8.9-.3.5-1 .5-1.7 0a24 24 0 0 0-9-.1c-4.4.4-8.5.5-9.3.2a4 4 0 0 0-2.6.3c-.7.5-4.7 1-8.8 1-12.1.2-23.4 1.5-24.3 2.7-.6 1-1 .9-1.4 0-.3-.9-2-1.1-5.1-.8a3699 3699 0 0 1-55.2 4.5 683.4 683.4 0 0 0-41 4h-5c-1.4 0-6.1.4-10.5 1a413 413 0 0 1-34.3 2.2 47.9 47.9 0 0 1-14.5 1.6c-6.1 0-13.5.7-16.2 1.4-6 1.4-7.7 1.6-9 .7-.9-.6-24.6 1.2-33.5 2.5-5 .8-20 1.8-23.8 1.6-2.1 0-3.1.3-2.7 1 .3.5.2 1-.4 1-.5 0-1.2-.3-1.4-.8-.5-.7-11-.2-32.2 1.7a2349.6 2349.6 0 0 1-31 2.6l-14 1.2c-11.2.9-10.5.8-13.5 2-1.5.7-2.9.7-3.5.2-1.3-1.2-5.5-1.1-5.5.1 0 .7-.6.7-1.9 0-1-.5-2-.7-2.3-.5-.2.2-5.3.7-11.3 1-6 .4-11.3.9-11.6 1-.3.3-4.6.7-9.5 1-14.4.9-27.4 2.7-27.4 3.7 0 .7-.5.6-1.4 0-1-.9-2.6-.9-6.2 0a45 45 0 0 1-9.3.9c-2.5 0-4.8.4-5.2 1-.6 1-1 1-2.1.1-1.9-1.5-49.4 2.2-60 4.7-2 .5-3.8.6-4 .2-.2-.3-5-.5-10.6-.3-9.2.3-10.3.5-9.7 2 .4 1 .9 4.8 1.1 8.7.8 11 1 11.5 4.7 11.5a154 154 0 0 1 43.6 10.6c3.4 1.9 4.6 2.2 5.2 1.2.4-.7 1.1-.9 1.6-.5.4.5.2 1.1-.4 1.5-.7.4 4.2 3.4 11.5 7.1 16 8 37 21.8 47.2 31 2.5 2.2 7 6 10.2 8.3a26 26 0 0 1 5.8 5.4c0 .6 5 6.1 11 12.4a307.4 307.4 0 0 1 14 15.2 388.4 388.4 0 0 1 41 58.8c5.5 8.7 27.9 59.6 38.9 88.5a1613 1613 0 0 1 34.5 110c1 6.6 5 20.5 5.8 20.5a230.4 230.4 0 0 0 5.2 26.7 776.5 776.5 0 0 1 11 61.1c.5 3.8 1.4 6.6 2.2 6.9.8.3 1.4 1.2 1.4 2s-.5 1.1-1 .8c-1.3-.8-1.3-.7.6 15.9 1 9.8 2 14.5 3 15.3 1.3 1 1.3 1.3.1 2.4-1 1-1.1 2.5-.6 5.7.3 2.5.4 5.3.2 6.2-.7 2.5 1.6 10 3 10 .9 0 .8.3-.1.9-1.4.8-1.6 2.9-1.2 15.6.1 4.4.6 8.3 1.2 8.6.7.4.6 1.3-.1 2.7-2.2 4-.4 11.7 1.9 8.2.5-.8.8-2 .5-2.8-.2-.6 0-1.2.4-1.2.5 0 1.1 1 1.4 2.1.3 1.2 1 1.8 1.6 1.5 1-.7 7.4 2.5 7.2 3.7l-.7 3.7c-.4 1.6-1 3-1.5 3.1l-2.2.3c-.6.1-2.1-.4-3.3-1.1-1.1-.7-2.4-1-2.7-.6-.4.3-.7-.8-.7-2.5s-.5-3.4-1-3.7c-.6-.4-1 4.3-1 13.5s.4 13.9 1 13.5c.6-.4 1 .7 1 2.5 0 1.7-.4 2.9-.8 2.6-1.3-.8-1.2 30.6 0 32.1.7.9.6 1.8-.3 3-1.8 2.1-2.7 44-1 47.2 1 1.7.9 2.5-.4 3.7-1.3 1.4-1.6 4.3-1.6 17.8 0 8.8-.1 20.4-.3 25.6-.2 5.2-.3 16.5-.4 25 0 8.5-.2 16.2-.3 17-.2 1.6-.8 18-1.4 37.3-.2 7.2 0 11.7.7 11.7 1.1 0 0 4.2-1.4 5.1-.5.3-.8 4.2-.7 8.5 0 4.3-.1 10-.4 12.4-.4 2.5-1 16.2-1.3 30.5-.3 14.3-.8 28.7-1 32-.1 3.2 0 7.8.5 10.2.5 2.3.5 4.3.2 4.3-1.3 0-1 20 .3 21.2 1 1 1 2 0 5-1 2.5-1 4.5-.4 6.2.5 1.4.5 2.6 0 2.8a64 64 0 0 0-2 22.1c.4 2.6.4 5 0 5.3-.6.7-.6.8-1.5 19.4-1.1 22.9-1.2 49.4-.2 50.7.5.7.6 2 .2 3-.9 2-1 3.4-2 22.3-1.1 24-1.4 39-.5 39.5 1 .6 1 5.4-.1 6-.5.4-.9 1.5-.9 2.6 0 1.3.4 1.8 1.1 1.3 1.1-.7 1 2-.7 11-.3 2-.1 2.5.7 2 .9-.5 1-.2.5 1.2a21 21 0 0 0-1 3.9 21 21 0 0 1-1.2 4c-.7 1.8-.6 1.8 1 .6 1-.8 1.6-1 1.6-.3 0 .6-.8 1.6-1.8 2.1-1.6 1-1.6 1 0 1 1.1 0 1.5.6 1.2 1.6-.4 1 0 1.5 1.5 1.5 2.4 0 2.7 1.2.7 3-1 .7-1.6.8-2 0-1.9-2.9-4.6-1-4.6 3.3 0 2.3-.3 7.7-.6 11.9-.3 4.9 0 7.9.6 8.3.6.4.8 1.6.4 2.7-.4 1.4-.2 1.8.5 1.4.6-.4 1.1 0 1.1.7 0 1.9-2.7 3-3.4 1.4-.3-.7-.5 1-.4 3.8 0 6.1-1 33.3-1.9 47.5-.3 5.8-.7 15-.8 20.5-.2 5.5-.5 14.7-.9 20.5-1 20.1-2.4 58.4-3.2 95.3-.2 9.3-.6 17.2-.9 17.6-.6 1-1.7 24.8-3 61.6a3678.4 3678.4 0 0 1-3 74 71422 71422 0 0 1-3 81l-1.1 30c-.7 15.4-1.6 40.4-2 57.3-.2 8.4-.5 15.6-.8 16-1 1.7-2.2 41-1.3 41.8.3.3.2 1.6-.2 2.8a124 124 0 0 0-1.5 16.6l-1.2 24c-.3 5.2-.6 14.7-.8 21-.2 6.3-.9 19.4-1.5 29a14684.5 14684.5 0 0 1-9.7 164.5 5282 5282 0 0 0-3.8 65 4514.4 4514.4 0 0 0-5.2 74.8c-.2 6-.6 11.8-.9 13-.3 1.2-1 9.4-1.5 18.2-3 47-4 60.4-4.5 64.5-.3 2.5-2.1 26.3-4 53a8719 8719 0 0 1-7.5 98c-4 52.4-10.5 110-15.1 134a495.1 495.1 0 0 1-42.9 127.5c0 .9 415.9.5 416.4-.3.3-.5 1-8.5 1.6-17.8l2-27.4a6380.1 6380.1 0 0 0 8-103c1.2-11.6 2.8-34.2 3.5-49 1.2-24.4 1.7-31.5 3-45a1877.8 1877.8 0 0 0 4.7-51.5c.5-5 1-14.4 1.3-21 .3-6.6 1-17 1.5-23a855.3 855.3 0 0 0 2.4-31 3819.7 3819.7 0 0 0 7.1-121.5c.8-20.1 2.4-40 3.6-42.1a7 7 0 0 0 0-5.2c-.7-3-.2-19.7 1.4-39.2 1.2-14.5 1.3-17.3 2-30 1-18 1.3-22 2-30.5.3-4.1.8-13.8 1-21.5l1-18.5c.2-2.5.9-13.3 1.4-24a1054.2 1054.2 0 0 1 2.6-40.5l1-14.5c.3-2.5.7-10.1 1-17a1173.4 1173.4 0 0 1 3-45.8c.3-.3 0-1.1-.6-1.9-.8-.9-.8-1.7-.1-2.6 1.2-1.5 2-9.4 3.2-30.7l1.4-23.5c.3-3.8.7-13.1 1-20.6.3-7.4.7-14.2 1-15 .4-1.2.9-11.4 2.2-43.4l1-25c1.6-39.7 1.6-39.8.3-40.6-1-.6-1-1.2.4-2.7a8 8 0 0 0 1.7-4.8c0-1.6.3-10.6.8-19.9 1-19.6.8-20.5-2.4-20.5-1.3 0-2.4-.5-2.4-1 0-.6 1.2-1 2.7-.8l2.7.3.2-8.5.7-18a1790.7 1790.7 0 0 0 2.2-44.5l1-24.5 2-51.5c2-45.3 3-218.6 1.3-221.8-.5-1-1-7.9-1-15.3s-.4-16.1-.9-19.5c-.5-3.3-1.4-10.2-1.9-15.2a1024.8 1024.8 0 0 0-8-62.2 136 136 0 0 1-2-12c-1-7.1-3.1-18.7-4.9-26-.5-2.2-1.2-5.8-1.4-8a118.7 118.7 0 0 0-3.2-15.5 1662.8 1662.8 0 0 0-3-14c-.3-2-1.3-5.4-2-7.8-.8-2.3-1.5-5.1-1.5-6.2 0-1-.5-2.2-1-2.5-.6-.4-.8-1-.5-1.5.5-.9-2-12.6-3.5-16.5-.7-1.8-2.3-7.4-9.2-32-1-3.8-2.6-8.4-3.4-10.2-.8-1.7-1.4-3.6-1.4-4.3 0-.7-.6-2.4-1.4-3.8a64 64 0 0 1-3.1-7.7 73.8 73.8 0 0 0-8.6-19.8c-1-1-1.9-3.1-1.9-4.8a39 39 0 0 0-3.9-11.2c-2.1-4.5-4.2-9.3-4.6-10.7a57 57 0 0 0-3-7l-6.9-14c-2.5-5.2-7.4-14.4-10.7-20.4a54.9 54.9 0 0 1-6.5-15 3797 3797 0 0 0-2-19.1c-.2-2.8-1.4-11-2.5-18.3l-2.5-17.5c-.4-5-5.8-34.6-7.8-43.7-.8-3.6-2.2-10.6-3-15.6-1.5-9.3-9.2-31.4-18-51.9-.8-1.6-3.5-8.2-6.1-14.5-2.6-6.3-5-12-5.5-12.5a45 45 0 0 1-2.5-6c-1-2.8-3.5-8.5-5.7-12.9a51.3 51.3 0 0 1-3.8-9.2c0-.8-.7-1.7-1.5-2-.8-.4-1.3-1-1-1.5.3-.4-2.4-6.9-6-14.3s-6.5-13.9-6.5-14.3c0-.4-.9-2-2-3.3l-1.8-2.5-.8 3c-.5 1.9-.3 3 .4 3.3.7.2 1.2 1 1.2 1.6 0 1.8-3.3 1.6-4.7-.3-.9-1.2-1.2-1.2-1.3-.3 0 .9-.7 1.1-2 .7-1.5-.5-1.7-.2-1.2 1.7.4 1.9.3 2.1-.9 1.2-2-1.5-6.4-.2-6.3 2 .1.8-.2 1.6-.7 1.6-.5 0-.9-.5-.9-1 0-.6-.4-.9-1-.5-.4.3-1.1 0-1.5-.5-.7-1.1-2.5-.4-2.5 1 0 .4 1.3 1.3 3 2 1.6.7 2.7 1.7 2.3 2.3-.3.5-.1.7.5.3.5-.3 1.2 0 1.5.6.3 1 1.2.6 2.8-1 1.3-1.2 1.8-2.2 1.1-2.2s-1.2-.5-1.2-1c0-1.2 1-1.3 2.9-.1 1 .6 1 1.4.3 2.7-.5 1-.7 2.5-.5 3.1.6 1.8 3.2 1.6 4-.2.4-1.2.8-1.2 2.9.2 3 1.9 3.1 3.3.4 2.6-3.7-1-6.9.5-6.3 2.9.4 1.4.3 1.9-.5 1.4-.7-.4-1.2-.2-1.2.4 0 .7.7 1 1.5.7.8-.4 1.7-.2 2 .2.2.5-.8 1-2.5 1.3-2.9.4-5.5-2.2-3-3 .5-.2 1-1.1 1-2 0-1.3-.2-1.4-.9-.4-.7 1.1-1 1-1.5-.3-.9-2.4-2.5-1-2 1.8.4 1.6.3 1.8-.4.8-.5-.7-1.5-1-2-.7-.7.4-1.2.2-1.2-.5 0-1.8-4-4.8-5.6-4.2-2.2.8-1.6 2.3 1 2.3 2 0 2.3.4 1.9 2-.4 1.4 0 2 1 2s1.7.5 1.7 1.1c0 .6.9.9 2 .6 1.1-.3 2.3 0 2.6.5 1 1.5-1.7 2.8-4.3 2.1-1.9-.4-2.3-.1-2.3 1.6 0 1.5-.6 2.1-2.3 2.1-2.8 0-7 2.8-6.1 4.1.3.6 1.2.8 2 .5.7-.3 1.8.2 2.4 1 1 1.1 1.5 1 3-.8 1-1.2 2.2-1.8 2.8-1.4 1.6 1 1.5 2.7-.1 2-.8-.3-2 .3-2.8 1.2-1.3 1.6-1.2 1.7 1 1.1 3.6-.9 5.6 1 3.5 3.4-1.2 1.3-1.3 2.2-.5 3.6 1 1.7 1 1.7 1 0 0-1 .5-1.7 1.1-1.7.5 0 1 .4 1 1 0 .5.7.7 1.6.3 1.4-.5 1.4-.3.2 1.6-1 1.6-2 2-3.5 1.6-1.3-.3-2.3 0-2.3.5s1 1 2.3 1c1.3 0 2.7.3 3 .7.5.4 2.5.7 4.5.6 2-.1 3 0 2 .3-2.2.7-2.3 2.3-.2 3 1.3.6 1.3.8.2 1.5-2 1.3-3 1-2.4-.7.4-1 .2-1.4-.6-1.1-.7.2-2-.2-3-1-3.4-3-4.9.1-1.7 3.8 1 1.3 1.8 3.1 1.6 4.1-.3 1 .2 2.3 1.1 2.9 1.5.9 1.4 1-.3.6l-3.8-1.2c-1.6-.7-1.6-.5-.6 1.8.8 1.7 1.7 2.3 3 2 1.1-.3 2.1.1 2.5 1 .3 1 1 1.4 1.5 1.1.5-.3.9 0 .9.5 0 .6 1.6 1.1 3.5 1.1 3.9 0 5.5-2.1 3.8-4.8-1.6-2.6-3.2-2.5-3.9.2-.3 1.4-1 2.3-1.5 2-.6-.3-.7-1.4-.4-2.5.4-1 .2-1.9-.4-1.9-.6 0-1.1.5-1.1 1.2 0 .6-.7.3-1.5-.8-.8-1-1.4-2.4-1.5-2.9 0-.5.5-.3 1 .5.8 1.2 1 .9 1-1.3 0-2 .5-2.7 1.8-2.6 1 0 1.2.3.5.6-1 .3-.8.9.4 2.1 1.2 1.2 1.8 1.3 2 .4.5-1.4 3.3-1.7 3.3-.3 0 .5-.5 1-1 1.3-.6.2-.1.9 1 1.5 1.5 1 2.2 1 3.3-.2 1.7-1.6 5.5 1.4 4.2 3.4-1 1.7-2.5 1.3-1.8-.5.4-1.2.2-1.5-.8-1.2-.8.3-1.6 1.3-1.8 2.4-.2 1-.8 2.2-1.5 2.6-.6.5-.3.8 1 .8 2 0 2 .4 1.4 4-.4 2.2-.4 4.3 0 4.5 1.1.7 2.4-6 1.6-8-.3-.8-.1-1.5.4-1.5 1.2 0 2.3 3.7 1.5 5-1 1.6 2.6 6.7 5.5 7.6 2.4.8 2.5 1 1.3 3.4-1 2-1.3 2-1.3.7 0-1-.5-1.5-1-1.2-.5.3-1 0-1-.7 0-1-.3-1-1 .2-.5.8-.6 1.8-.3 2.4.3.5.1.6-.5.3-.7-.5-1 .8-1 3.8 0 2.4.4 4.2.9 4 .4-.3 1 .6 1.3 2 .6 2.2.9 2.4 2.6 1.2 1.1-.6 1.8-1.8 1.5-2.4-.2-.7.2-1.3 1-1.3s1.4.5 1.3 1.1c-.2.7 1.4 2.1 3.4 3.2 3.6 2 4.2 3.7 1.4 3.7-.8 0-1.6.9-1.9 2-.3 1.1-1 2-1.5 2s-1.2-.9-1.5-2c-.3-1.1-1.2-2-2.1-2-2 0-2 1.4 0 4.5 1 1.5 1.2 2.5.5 2.5-.6 0-1.1-.5-1.1-1s-.5-1-1-1c-.6 0-.4 1 .4 2.2 2.4 3.4 2 5.7-.7 5-2-.5-2-.3-.9 1 .8 1 2 1.5 2.7 1.2 2.2-.9 2.6 1.2 1 5-1.7 4-1.9 3.5 3 5 .8.3 1.7.4 2 .3 1-.5 4 5 4 7.3 0 3.2 1.7 3.9 3 1.1 1.1-2.4 3-3 2.1-.5-.3.9-.6 2.5-.6 3.6 0 1.6-.3 1.8-1.4.9-1-.9-1.5-.8-2 .4-.4 1 0 1.5 1.4 1.5 1.1 0 2 .5 2 1s.7 1 1.5 1 1.5.5 1.5 1-.7 1-1.5 1-1.5-.4-1.5-1c0-1-3.8-.1-4.6 1.2-.4.6-.2 1.3.3 1.7.5.3 1.2 1.4 1.6 2.3.7 2 2.7 2.5 2.7.7 0-.5.5-.7 1-.4.6.4.8 1 .4 1.6-1 1.7.6 6.1 2 5.6.8-.3 1.9 0 2.5.6 1.4 1.4 1.4 3 0 2.1-1.2-.7-2.9 1.2-2.9 3.3 0 .8.6.8 2.4 0 1.3-.7 2.2-1.5 2-2-.3-.4.2-.7 1-.7 1.9 0 2.1 1.7.4 2.2-1 .3-.8 1 .5 2.2 1 1 1.7 2.2 1.7 2.8 0 .6.8 1.7 1.8 2.4 1.6 1.2 1.5 1.3-.5 1.1-1.5 0-2.3-.8-2.3-2 0-.9-.7-1.7-1.5-1.7-4 0-.2 6.6 5.6 9.6 3 1.5 3 1.6 1.2 3.6-1.7 2-1.7 2.1 0 1.5 1.2-.5 2-.1 2.3 1 .3 1 1 2.5 1.4 3.4.9 1.7.4 2.9-1.2 2.9-.4 0-.8-.7-.8-1.6 0-1-.5-1.4-1.6-1l-2 .6c-.3 0 .1.6.8 1.4.7.8 1.6 1.2 2 1 .5-.3.8.2.8 1 0 1 1 1.6 2.3 1.7 1.6.1 1.8.2.5.6-2.2.6-2.4 2.3-.2 2.3 1 0 1.3.6 1 1.9-.6 1.7 1.1 3 5 3.5 1.8.2 4.3 3.3 5 6.2a8.6 8.6 0 0 0 2.3 4.1c1 .8 1.2 1.2.3 1.3-.7 0-1.2 1.3-1.1 3.3 0 1.7.3 2.6.6 2 1-2.4 2.5-1.3 2.2 1.5-.4 3.5 2.2 6.5 4.7 5.5 1.4-.5 1.6-.2 1.1 1.7-.3 1.3 0 3 .6 3.9 1 1.2.9 1.4-.5.8-1-.3-1.8-.2-1.8.3 0 .6.6 1 1.4 1 1.3 0 5.6 7.7 5.6 10 0 .6.7 2.5 1.6 4.1.8 1.7 1.4 3.5 1.2 4-.3.9-19.4-26.7-22.8-32.8-.8-1.5-2.2-3.3-3-4-.8-.6-3.3-3.7-5.5-6.8l-6.2-8.3c-1.3-1.5-2.3-3.2-2.3-3.9 0-.6-.4-1.3-.8-1.5-1.8-.7-16.2-19.3-15.2-19.6 2.2-.8 1-3-1.5-2.8-2 .3-3.3-.8-6.5-5a722.7 722.7 0 0 0-63-65.7c0 .2-2-1.4-4.3-3.7a69.6 69.6 0 0 0-20-12.6c-2-.7-6.4-3-9.8-4.9a57 57 0 0 0-6.4-3.5c-.3 0-6.6-3-14.2-6.5-16.8-8-17.2-8.2-20-9-1.3-.4-2.3-1.4-2.3-2.3 0-1.4-.2-1.5-1-.3-.7 1.2-2 1-7.8-1.7a47 47 0 0 0-8-3.2c-.8 0-1-.4-.7-1 .3-.6 0-.7-1-.4-.9.4-1.7 0-2.1-1-.4-1-1-1.3-1.3-.7-1.2 1.8-9.1-.8-9.1-3 0-1.1-.4-1.8-.9-1.5-1 .6-2.5-2.3-1.7-3.1.2-.3 1.4 0 2.5.7 1.5.8 2.1.8 2.1 0 0-.6.4-.8 1-.5.6.4.7-.1.4-1.2-.6-1.6-.4-1.5 1 .2 1.5 1.7 1.7 1.7 1.2.3-.6-2 .5-2.3 2.2-.6 1.9 1.9 2.6 0 1.3-3-.9-1.8-1-2.8-.2-3 .6-.2.9-.8.5-1.3-1-1.6.7-3.3 1.7-1.8.7 1 1.1 1 1.7.3 1-1.7 5.2.2 5.3 2.3 0 1.3.3 1.1 1-.7.7-1.7.7-2.6 0-2.8-.6-.2-1.1-.8-1.1-1.3 0-.6.4-.8.8-.5 1.8 1 3.4-1.1 2.3-3.1-.5-1.1-.7-2.3-.3-2.7.3-.4.1-1-.5-1.4-.7-.4-1.4-2.5-1.6-4.6-.2-2-1-4.1-1.7-4.6s-1-1.9-.8-3.4c.5-2.6-.5-3.5-1.7-1.6-1.4 2.3-3.1 1-2.8-2.3.3-3.1.3-3.1-.8-.7-.7 1.6-1.3 2-1.6 1.2-.3-.8 0-1.9.6-2.5.6-.6 1-2 1-3.2 0-2 0-2-1 0-.9 2-.9 2-.6 0 .1-1 1-2.1 2-2.3 1-.2 1.5.1 1.2 1-.7 2 2.4 5.6 3.3 4 .6-.8 1.2-.6 2.2.9 2.3 3.2 5.4 4.6 4.6 2-.4-1-.2-2.2.3-2.5.5-.4 1.2.3 1.6 1.4.3 1 1.3 2 2 2 2 0 1.9-.2-.6-4.4-2-3.4-3.9-4-3.9-1.1 0 .7-.7 1.5-1.5 1.9-1 .3-1.5 0-1.5-1 0-.7-.3-1.4-.8-1.4-.4 0-1.6-1.3-2.6-2.9-1.1-1.6-2.5-2.8-3-2.7-.6.2-.8 0-.3-.2.4-.2.5-2 .1-3.8-.5-2.7-.3-3.4 1-3.4.9 0 1.7-.5 1.7-1l.3-2c.3-2.7 1.8-1.7 3.5 2.4 3 7 3.7 5.6 1.4-2.8-.3-1.2 0-1.7.8-1.4.7.2 1.4 2.6 1.6 5.8.2 3 .8 5.9 1.3 6.4.7.7.8-1.2.4-6.2l-.7-7.2 3.4.7c3 .6 3.2.5 2.1-1-.7-.8-2.5-2-4-2.6-2.9-1.2-6-7.1-4.7-9 .3-.6-.1-1.1-1-1.1-1.1 0-1.5-.5-1.2-1.5.4-.8.2-1.7-.3-2-.6-.4-1 0-1 .8 0 1-.7 1.3-2 1-1.2-.3-2 .1-2.2 1.4-.4 1.4-.6 1.2-1.2-1-.5-1.5-1.4-2.7-2.2-2.7-2 0-1.7 1.7.6 4a7 7 0 0 1 2 4c0 1.2.4 1.9 1 1.6.4-.4.6-1.6.4-2.9-.4-2-.4-2 .5-.2 1 1.9 1 1.9 1-.3 0-2.1.2-2.2 1.7-.8 2.2 2.3 2.4 4.8.6 6.9-.9 1-1 1.7-.4 1.7s.9.7.6 1.5c-.8 2.1-2.5 1.9-1.8-.3.5-1.5.4-1.5-1 .2-1.7 2-2.2 1.4-2.8-3.3-.4-3.4-2-3.6-5.2-.6-1.5 1.4-3.2 2.2-3.8 1.9-.6-.4-.5-1 .3-1.6 1.1-.8 1-.9-.3-.5-1 .4-1.9-.1-2.3-1-.3-1-.2-1.9.3-2 .6-.3.8-1.3.5-2.3-.3-1.2 0-2 .8-2 .7 0 1 .3.6.6-.6.6 1.6 3.4 2.7 3.4.3 0 .6-.7.6-1.5s.5-1.5 1-1.5c.7 0 .2-1.2-.9-2.6-1.1-1.4-1.7-3.2-1.4-4.1.4-1 .2-1.4-.4-1-.6.4-1.4 0-1.7-1-.5-1-.2-1.4 1-1 .8.4 2 .7 2.5.7s1 1 1 2.3v2.2l1.8-2.3c2-2.2 3.8-3.1 2.6-1.2-.3.5-.1 1 .4 1 .6 0 1.1-1.5 1.2-3.3l.1-3.2.8 3.3c1 4 3 6.6 3 3.8 0-2.2 1.8-1.1 3 1.8.6 1.5.8.9.5-2.4-.4-5.7-.5-5.9-1.5-3.5-.7 1.6-.9 1-1-2.5l-.3-4.5-.7 3.5-.6 3.5-.9-2.8c-.5-1.8-1-2.4-1.5-1.7-.4.7-1.2 0-2-2-1-2.6-1-3.3 0-4 .8-.5.9-1 .2-1.4-.6-.4-1.6.3-2.2 1.4-1.6 3-3.8 2.6-3.2-.5.2-1.4.8-2.2 1.3-2 1.4.9 1.1-.1-1-4-1.2-2.2-2.1-3.1-2.4-2.3-.3.7-.6.3-.6-.9-.1-2.6 1.7-4 2.5-2 .5 1.3.9 1.4 1.9.4.7-.6 1-1.6.9-2.2-.9-2.2 5.3-3.7 8-2 2.8 1.9 3.2 1.5 1.5-1.7-.9-1.7-1.3-1.8-2-.7-.6 1-.9 1-.9.1 0-.6-.9-1.2-2-1.2s-2 .5-2 1-1 1-2 1c-1.7 0-2-.4-1.5-2 1.3-4 1.5-6.9.5-7.5-.6-.3-1.3.1-1.7 1-.5 1.5-.8 1.4-2-.6-1.4-2.7-1.7-6.3-.4-5.5.5.3 1.2-.1 1.5-1 .6-1.6-1.7-4.8-2.8-3.7-.3.4-.6-.2-.6-1.2 0-1.4-.3-1.5-1.5-.5-.8.6-1.9.9-2.5.5-.5-.3-1-.1-1 .4 0 .6.6 1.1 1.3 1.1 1.5 0 3.8 4.8 2.6 5.6-.5.3-.9 0-.9-.5 0-.6-.5-1.1-1.2-1.1-.6 0-.8.3-.5.7.4.3.2 1.2-.5 2-.8 1-.6 1.9 1 3.6a8.2 8.2 0 0 1 2.2 4.8c0 1.8-.2 2-1 1-.5-.9-.6-1.9-.4-2.3.3-.4 0-.8-.5-.8-.6 0-1.1.5-1.1 1s-.5 1-1.2 1c-1 0-1-.3 0-1.2.7-.7 1.2-1.7 1.2-2.3 0-.5-.5-.3-1 .5-.7 1.2-1 1-1.9-1l-1-2.5v2.5c0 1.7-.4 2.1-1.2 1.3-1.5-1.5-.2-5 2.2-5.8 2.6-.9 2.4-1.7-1.1-5.3-1.7-1.8-3-3.6-3-4.2 0-1.2 5-1 6.8.3 1.4 1.1 1.5-.7.2-3.8-.6-1.4-.9-1.5-1-.5 0 .8-.6.4-1.1-1-.7-1.8-1.2-2.1-1.8-1.1-.7 1-1.6.6-4.2-1.8-1.9-1.7-2.9-3-2.2-3 .6 0 2 .7 2.9 1.6 1.7 1.7 1.7 1.7 1-.8-.3-1.4-.1-4 .4-5.8.7-2.4.5-4.1-.5-6.5l-1.5-3.1.4 3.7c.3 2 0 4-.5 4.3-.5.4-1 1.8-1 3.3 0 1.5-.3 2.1-.6 1.5a2.2 2.2 0 0 0-1.9-1.3c-.8 0-1.4-.5-1.4-1 0-.6.5-.8 1-.5.6.4.8-1 .6-3.7l-.6-5.3c0-.5-.5-.3-1 .5-.8 1.2-1 1.2-1.6-.3-.3-1-1-1.4-1.5-1.1-.5.3-.9-.2-.9-1 0-2.1 1.9-3 3.5-1.6 1 .8 1.5.9 1.5.2 0-1.2 4.2-1.9 16.5-2.7a584.8 584.8 0 0 1 40.3-3c3.4 0 6.5-.5 6.9-.8 1.4-1.5 5-.6 5.6 1.3.3 1.1 1.3 2 2.3 2 1.6 0 1.6-.1-.2-1.4-3.1-2.3-1.2-2.8 13.8-3.7 7.9-.5 15.9-1.4 17.9-1.9 2-.5 12.5-1.7 23.5-2.5l31.4-2.6c26.4-2.4 39-3.3 62.5-4.9 8.8-.6 22-1.7 29.5-2.5 7.4-.8 18-1.7 23.5-2a1868 1868 0 0 0 54-4 2286.9 2286.9 0 0 0 38.5-3l14-1.2c3.6-.4 7.6-.6 9-.6 1.4 0 8.3-.3 15.5-.8l45.4-3c9-.5 16.6-1.1 17-1.3.3-.2 6.7-.7 14.1-1.1a181 181 0 0 0 14-1c.3-.2 5.5-.6 11.5-1 6-.3 15.7-1 21.5-1.6l23.5-1.9c7.2-.4 23.6-1.7 36.5-2.8 13-1.2 28.2-2.3 34-2.7a1303.2 1303.2 0 0 0 50-4l15-1.4c14.5-1.4 23.3-2.2 31.5-2.7 3.8-.2 8-.6 9.4-1 1.3-.2 7.8-.9 14.5-1.4l33.6-3c27.5-2.8 32.5-3.2 67.5-6 16-1.3 29.3-2.8 29.6-3.3.6-.9 1.5-15.5 2.5-39.2a606.3 606.3 0 0 0 2-43 807.5 807.5 0 0 1 2-46l1.3-23a88 88 0 0 0-.2-16.4c-.5-1.8-.5-4.5-.1-6 1-3.3 1-4.3 1.8-17.6l1.5-24.5c1.8-25.7 2.1-40 1-42.2-.8-1.5-.7-2.4.7-4 1.7-1.8 1.7-2 .1-4.7-1.5-2.6-1.5-2.8.3-4.4 2.3-1.9 2.6-4.3.8-5-1-.3-1-1 0-3.1.8-1.7 1.8-13.5 2.7-30.8a590 590 0 0 1 2-30.1c.4-2 .8-10 2-42.2a874 874 0 0 1 2.5-41.5l2.6-29.5c.8-9.9 2-21 2.4-24.5.5-3.6 1.2-11.1 1.6-16.8l.7-10.2-5.4.2c-3 0-6.5.3-7.9.4M994 409.1c0 1.8.2 2 1.5.9 1.2-1 1.5-1 1.5.3 0 .9-1 1.7-2.2 1.9-1.2.2-2.3 1-2.6 1.7-.3.8 0 1.1.6.7.7-.4 1.2.9 1.4 3.5.2 2.5.9 4.4 1.6 4.7 1 .3 1.2 0 .4-1.4-1.2-2.3-1.3-7.2 0-8 .4-.3.8.3.8 1.3a5 5 0 0 0 1.2 3c.9 1 .9 1.9 0 3.8-1 2.1-1 2.5.4 2.5s1.4.3.4 1.5c-.7.8-1.9 1.5-2.6 1.5-.8 0-1.4 1-1.4 2.5 0 1.4.4 2.5.8 2.5.5 0 .8 1.5.8 3.3 0 1.7.4 4 .9 5.1.6 1.4.5 1.7-.3 1.2-.6-.4-1.7.2-2.3 1.3-.7 1-1.8 1.7-2.4 1.5-.7-.3-1 .4-1 1.8l.4 3.8c.1 1.3.3 1.3 1 0 .5-.7.7-2 .4-2.7-.3-.7 0-1.3.5-1.3 1.3 0 2.3 2.8 1.3 3.5-1.6 1 0 4.5 2 4.5s2.5-1.5.8-2.6c-.6-.3-.9-1.5-.6-2.5a3 3 0 0 0-.9-3c-.8-.6-1.1-1.5-.8-2 1-1.6 2.4-1 3.4 1.6.8 2.2 3.2 3.6 2.9 1.8-.3-1.9.2-3.3 1-3.3.6 0 .8.7.5 1.5-.4.8 0 1.5.6 1.5s.8.4.5 1c-.3.6 0 1 .7 1 1 0 1 .3-.2 1-2.5 1.5-.6 2 2.3.5 1.5-.8 2.7-1 2.7-.5s1 1.4 2 2c2 1 2.1.9 1.8-1.2-.2-1.5-.9-2.2-2-2-3 .5-2-1.3 1.5-2.7 3-1.3 3-1.4 1-1.8-1.3-.3-2.3-.9-2.3-1.4 0-.5-1.1-.9-2.5-.9-1.6 0-2.5.6-2.5 1.5 0 .8-.5 1.5-1.1 1.5-.7 0-.8-.7-.4-1.8 1.5-3.6 1.7-5.2.6-5.2-.7 0-1 .3-.7.8 1 1.7-1.8 4-3.2 2.6-1-1.2-1-1.4.5-1.5 1 0 1.3-.3.7-.5-.7-.3-1-1.4-.7-2.4.7-2.7-1.4-2.5-2.3.2-.6 1.9-.7 2-1.6.4-1.5-2.7-.1-5.5 2.5-4.8 2 .5 2 .4.9-1-.8-1-1-2.2-.7-2.8.4-.6.1-1.7-.5-2.5-1-1.2-1-1.5.1-1.5 1.8 0 4.6-4.3 3.1-4.8-.7-.2-.7-1.4-.2-3.3.7-2.3.5-2.9-.6-2.9-1.2 0-1.2-.4-.4-2 .9-1.6.8-2-.5-2-.8 0-1.5.7-1.5 1.5s-.5 1.5-1 1.5c-.7 0-1-.6-.7-1.3.4-1.2-2.9-4.7-4.5-4.7-.4 0-.8 1-.8 2.1m-452 4.4c-1 1.2-1 1.8 0 3 .9 1 .7 1.5-1 2-2.3.7-2.8 3.4-.5 3.1 2-.3 3.2-1.6 3.9-4.1.3-1.1.3.1 0 2.7-.4 4-.3 4.7 1 4.2.9-.3 1.6-.1 1.6.5 0 .8.6.7 2.1-.1 1.7-1 2.3-1 2.6 0 .7 1.7 4 1.5 4.7-.4.9-2.2.8-2.4-.8-1.8-1 .4-1.2-.2-.9-2 .4-2.1.2-2.5-1.1-2-1.1.4-1.5 1.3-1 2.6.5 1.8.4 1.8-1.8.6-3-1.7-4-3-2.8-4.2.6-.6 1-1.8 1-2.7 0-2.2-2.2-3.7-2.8-2-.3.8-.8.9-1.7.1-.9-.7-1.6-.6-2.5.5m433 14c0 .7.4 1.7 1 2 .6.4.5 1.1-.3 2-.6.7-1.5 1.1-1.9.9-.4-.3-1 1.1-1.4 3.1-.5 3-.9 3.4-2 2.4-1.3-1-1.4-.8-.9 1.4.5 1.7.3 2.7-.4 2.7-.6 0-1.2-.6-1.2-1.3 0-.6-.2-1.6-.4-2.2l-.3-2.2c-.1-.7-.9-1-1.8-.6-.8.3-1.3 1.1-1 1.8.3.8-.2 1.6-1 1.9-.8.3-1.4 1-1.4 1.6 0 1.2 2.2.9 3.3-.5.5-.6.7-.4.4.6-.3.8.2 2.6 1 4l1.4 2.4-.6-3c-.4-2.2-.3-2.6.5-1.5.5.8 1 1 1 .5 0-.6.5-.3 1 .5.8 1.3 1 1.3 1 0 0-1.1.3-1.1 1.3-.1 1.2 1.2 1.3 1.6 1.6 4.5 0 1 .8 1.2 2.1.9 1.2-.3 2.9.2 4 1.2 2.1 2 4.3 1.1 3.6-1.3-.6-2.1 1.9-5.6 3.3-4.7.7.3 1.1-.2 1.1-1.4 0-1.4-.5-1.9-1.5-1.5-2 .8-3.2-2.5-1.4-3.7 1.2-.8 1.2-1 0-1.8-1-.6-1-1-.1-1.6.7-.4 1.6-.1 2.1.6.7 1.1.9 1 .9-.4 0-2.2-4-3.9-5.5-2.3-.5.6-1 2.3-1.1 3.9-.2 3.7-1.1 5.7-2.5 5.7-.8 0-1-1.6-.7-5 .3-3.3.1-5-.6-5-.8 0-.8-.2 0-.8.7-.4.8-1.5.3-3-1-2.5-2.9-3-2.9-.8m-476.8 17.3a2 2 0 0 0-1.2 1.9c0 .8-.7 1.4-1.6 1.4-.8 0-1.3.4-1 .9.3.5-.1 1.2-1 1.5-1 .4-1.4 1.4-1.1 2.5.5 2.2-1 3.1-5.4 3.1-3.6 0-3.8 1.7-.4 3 2.8 1 8.5.3 8.5-1.2 0-.5.6-.8 1.2-.6.7.3 1.3 1.2 1.3 2.1 0 1 .4 1.6 1 1.5 2.9-.4 4.5-1.1 4.5-2 0-.6-.7-.8-1.5-.4-1.6.6-1.7 0-.6-2.8.7-1.7.8-1.7 2.3-.2 2.2 2.1 6.8 2.1 6.8 0 0-1-.6-1.3-2-.9-1.1.4-2 .2-2-.4 0-1.8-9-1.4-9.6.4-.4.8-1 1.3-1.4 1-.5-.3-.1-1.9.8-3.5 2-3.4 6.2-4.2 6.2-1.3 0 1.4.6 1.2 2.5-1 3-3.4 3.4-6 .5-2.9-2 2.1-3.6 3-2.7 1.4.7-1.1-2.6-4-4-3.5m465 4.3c.2 2 0 3-1 3-.7 0-1.3-.4-1.3-1 0-1.7-2.8-1-3.4.8-.8 2.5-.4 8.2.5 8.2.4 0 1-.8 1.2-1.8.4-1.6.5-1.6.6 0 0 1 .7 1.8 1.4 1.8.9 0 1.3-1 1.2-3-.1-2 .4-3.1 2-3.8 3-1.4 4.2-.3 4.3 3.6 0 3.6-1.3 4.3-2.1 1.1-.4-1.3-1-1.8-1.7-1.4-1 .6-.9 1 .1 1.6 1.2.8 1.1 1.1-.1 2.2-2.2 1.7-1.4 5 1 4.2 1-.3 2 0 2.4 1 .6 1.7 3.6 2 3.6.5 0-.6-.7-1-1.5-1s-1.5-.4-1.5-1 .6-.9 1.2-.8c.7.2 1.4-.7 1.6-2 .4-2.5 1.7-3 2.5-.8.6 1.6 6.4 1.9 7.3.4.8-1.3 2.4.1 2.4 2.2 0 2.2 2.8 3.4 4.6 1.9 1-.9 1.8-.9 2.8 0 1 .8 1.6.9 2 .1.4-.5 1.7-1 2.8-1 1.1 0 2.7-.8 3.4-1.8 1.9-2.4 1.7-3-.6-2.5-1.1.3-2 0-2-.6s.5-1.2 1-1.2l2-.3c.4 0 1.1-.4 1.5-.8.4-.4 1.3-.4 2.1-.1.8.3 1.4 0 1.4-.5 0-1.6-1.8-2.4-3.3-1.5a5 5 0 0 1-3 .5c-1-.2-1.7.3-1.7 1.3 0 .9-.4 1.4-.8 1.1-.4-.2-1.4 0-2.2.5-1 .6-1.1.9-.3.9.7 0 1.3.4 1.3 1s-.9 1-2 1c-1.2 0-1.7-.5-1.4-1.4.3-.8-.3-1.6-1.5-1.9-2.4-.6-3.1 0-3.1 2.5 0 1-.5 1.8-1.1 1.8-.6 0-.9-.6-.6-1.3.3-.7 0-2.3-.8-3.6-1-2-1.3-2-1.8-.7-.4.9-1.1 1.6-1.7 1.6-.6 0-.9-.4-.6-.9.3-.5 0-1.1-1-1.5-1-.4-1.4.2-1.4 2 0 1.3-.5 2.4-1 2.4-.6 0-.8-.4-.5-1 .3-.6 0-1-.9-1-1.2 0-2.3-2.6-3.1-7.5l-.4-2c-.1-.6-.8.4-1.6 2-.7 1.6-1.4 2.5-1.4 1.9-.1-1.3-4.7-6.4-5.7-6.4-.3 0-.4 1.4-.2 3m-450.5 4.2c-1 2.2-1.2 3.5-.5 3.9.7.4.6 1.3-.1 2.8-1 1.8-.9 2.1.9 2.3l3.3.2c1.5.1 3.2 1.7 4 3.6.4 1.2.6 1.2.6.1.1-1.8 3.1.5 3.1 2.4 0 .8 1 1 2.5.7 2-.3 2.5 0 2.5 1.8 0 1.5.5 2 1.4 1.7 4.4-1.7 8.4-1.8 10-.2 2 2 4.3 1 2.5-1-.9-1.2-.9-1.5 0-1.5.8 0 1.1-.8.8-2-.3-1.1-.1-2.3.4-2.6.5-.3.9 0 .9.7 0 .8.4.8 1.5 0 2-1.8 1-3-2-2.6-1.4.1-2.5-.2-2.5-.6 0-.5-.5-.9-1-.9-.7 0-1 1-1 2.3.4 4 0 4.5-2 4-1.3-.3-2 0-2 .8 0 1.1-.2 1.1-1 0-.5-1-.5-2 .2-2.8.6-.8.7-1.7.3-2-.4-.5-1-.2-1.2.5-.3.6-1 1-1.5.6-.5-.3-1.2.3-1.5 1.4-.3 1.3-1 1.8-2 1.5-1-.4-1-.9-.2-1.9.7-.8.7-1.9.1-3-.9-1.6-1-1.5-2.2.5l-1.1 2.2-2-2.3c-1.8-2-1.9-2.3-.5-2.6 2-.4 2-1.6 0-3.7a4 4 0 0 0-3.5-1c-1.2.4-2.1 0-2.5-1-.6-1.4-.8-1.4-2.5.1-2.1 1.9-2.6.3-.6-1.8 1.5-1.7 2-3.8.8-3.8-.5 0-1.6 1.5-2.4 3.2M659 734.1c0 1.6.3 2.8.8 2.6 1.6-1 1.3 11-.4 12.4-1.5 1.2-1.6 1.1-1-1.1.6-1.7.5-2.2-.2-1.5-.6.5-1.2 2.1-1.4 3.5-.2 1.4-.9 2.4-1.6 2.3-.6-.2-1.2.4-1.2 1.2 0 2.3 1.6 1.8 3.8-1.2l2-2.7 1.1 2.2c1.2 2.2 4.1 3 4.1 1.3 0-.5.3-1.7.6-2.5.5-1.2.2-1.5-1-1-.9.3-1.6.1-1.6-.5s.5-1.1 1-1.1c1.8 0 3.2-5 1.9-6.6-1.8-2.2-.2-2.9 4.2-1.7 2.2.6 4.2.6 4.5.2.3-.5-.2-.9-1-.9-.9 0-1.6-.4-1.6-.9 0-1 2.2-3 3.5-3 2.3 0 1.3-2-1.5-3-2.4-.8-3-.7-3 .4 0 .8-.9 2-2 2.5-1.4.8-2 .8-2 0 0-.7-.6-.8-1.9 0-1.5.7-2 .5-3-1.5-1.5-3.4-3.1-3.1-3.1.6m15 9c0 .5.5.9 1 .9s1 .5 1 1-1 1-2 1c-1.2 0-1.8-.5-1.5-1 .3-.5 0-1-.5-1-.7 0-1 .7-.6 1.5.3.9 0 1.5-.8 1.5-1.6 0-3.2 5.3-1.8 5.8.7.2.5 1.7-.4 3.9-1.6 3.8-1 5.2 2.6 5.3 3.4.1 4.8 2.3 3.4 5.5-.7 1.6-1.3 2.4-1.4 1.7 0-.7-.5-1-1-.7-2.4 1.5.6 2.6 5.6 2.2 4.6-.4 5.3-.3 4.3.9-1.6 2-.3 1.8 2-.3 1.2-1 2.1-2.3 2.1-3 0-1.6-.2-1.6-3.4-.4-1.9.8-2.6.6-3-.5-.9-2.2-.8-2.4 1-1.7 1.2.4 1.4-.2 1.2-3.1-.1-2.3.3-4 1.1-4.6 1-.6.9-1-.8-2-2-1-2.1-.8-2.2 2.2 0 1.8-.3 2.5-.6 1.5-.2-1-1-1.7-1.6-1.7-.9 0-.9-.2 0-.8.9-.6.5-1.6-1.4-3.7-1.8-2-2.2-2.7-1-2.2 1 .3 1.7.2 1.7-.3s-1-1.2-2-1.5c-1.1-.4-1.8-1-1.5-1.5.3-.5 1.2-.7 2-.4 1.7.7 2.8-1.1 2-3.4-.5-1.8-3.5-2.7-3.5-1m80.6 22.3c-.3.9-1 1.4-1.5 1-.5-.3-1.2 0-1.6.5-.3.5-.2 1 .3 1 1.5 0 3.3 7.3 2 8.1-.6.4-.7 1.2-.3 1.9.6 1 1 1 1.6-.1 1.2-2 4.8 1.6 4.2 4.4-.4 1.8-.3 2 .6.7 1-1.3 1-1.3 1 .1 0 1 .8 2.2 1.6 2.9.8.7 1.2 1.6 1 2.1-.4.5-.2.9.4.9.6 0 1 1.5 1 3.3-.2 1.9 0 3.9.5 4.5.3.5 0 1.3-.6 1.5-.8.3-.6.6.5.6 1 0 1.7.8 1.7 1.6 0 1.8.5 1.8 3 .5 1.7-1 2-.7 2 1.1 0 2.6 1 2 1.4-.8.3-2 4.5-2 5.8 0 .4.7.8 1 .9.7.7-4.4 1.1-5.5 2-6.6.7-.8.6-1.4-.3-1.7-1-.3-.6-1 1-2.2 1.2-.9 2.2-2 2.2-2.7 0-.7-.5-.6-1.5.2-1.2 1-1.5 1-1.5 0s-.3-1-1.5 0c-1 .9-1.5.9-1.5.1 0-.6.5-1.1 1.1-1.1.6 0 .9-.6.6-1.4-.3-.8 0-1.7.8-2 .8-.3 1.2-1.2.9-2-.4-1 0-1.6 1-1.6.9 0 1.6-.5 1.6-1.1 0-.8.5-.8 1.5.1 1.3 1 1.5.8 1.5-1.3 0-1.4.5-2.9 1-3.2.5-.3 1-1 1-1.6 0-1.7-2-1-2 .9-.1 1-.4 1.2-.7.5-.2-.7-1.1-1.3-2-1.3-.8 0-1.2-.3-1-.8.3-.4-.4-1.6-1.4-2.6-1.9-2-1.9-1.9-1.9 1.7 0 3.1-.3 3.7-2.2 3.7-1.9 0-2 .2-.6 1.8.8 1 1.3 2.3 1.2 3l-.3 2.2c0 .5-.8 1-1.6 1s-1.5-.5-1.5-1c0-1.9-1.8-1-2.3 1.1-.6 2.3.6 5 4 8.5 2.3 2.3 3 5.4 1.4 5.4-.5 0-1.4-.7-2.1-1.5-1.6-1.9-3-2-3-.1 0 2-4.6 2.6-6.7 1-1.7-1.2-1.7-1.3.3-1.4 1.2 0 2.5-.7 2.8-1.6 1-2.6.7-2.8-1.4-.9-1.1 1-2.3 1.5-2.7 1-.5-.3 0-1 1-1.6 1-.6 1.7-1.5 1.7-2 0-.6-.4-.8-1-.4-1 .6-2-.6-2.5-3.2a25 25 0 0 0-1-3.5c-.5-1.3-.2-1.8 1-1.8 1.3 0 1.4-.2.3-1.4-.7-.8-1.4-1-1.6-.5-1 2.4-3.2.5-4-3.4-.9-4-1-4.1-2-1.7l-1 2.5-1.1-2.8c-1.4-3.7-1.4-6 .1-7.5.8-.9.9-1.5.1-2.3-.7-.7-1.2-.6-1.7.6m-54.8.6c-1.4.7-1.5 1.5-.8 3.4.7 1.7.6 2.5-.1 2.5-.8 0-.7.5.1 1.5 1 1.2 1 1.8 0 3-1.2 1.4-.5 5.5 1 5.5.3 0 1.2-1.1 1.8-2.5.7-1.5 1.7-2.3 2.6-2 .9.4 1.7-.2 2-1.4 1-2.8 2.8-2.7 2.4.1-.2 1.3-.9 2.2-1.6 2-.6 0-1.2.7-1.2 1.8s.5 2 1 2 1-.4 1-1c0-1.9 2.9.2 3.2 2.3.4 3 3 2.8 3.9-.3.4-1.4.7-2 .8-1.3.1 1.2 3.1.7 3-.6 0-2.7-2-3.5-3.8-1.4-2.2 2.7-2.8 2.8-2.8.8 0-.8.6-1.6 1.3-1.9.7-.3 1-1.4.7-2.5-.3-1.2-.1-2.1.4-2.1 1.5 0 .3-5.8-1.3-6.4-.8-.3-1.4-.1-1.4.4 0 .6.5 1 1 1s1 1 1 2.2c0 2 0 2-2 .4-1.7-1.7-1.8-1.7-2.3 0-.4 1.7-.5 1.7-.6.1-.1-2-2-2.3-2.7-.3-.9 2.4-3.3 2.7-3.1.5 0-1 .7-1.9 1.4-1.9s1.3-.5 1.3-1-.5-1-1-1c-.6 0-.9-.4-.6-.9.3-.5-.1-1.2-1-1.5-1.9-.7-1.5-.8-3.6.5m1.5 17.5c-.4 1.1-.8 1.2-1.3.4-.4-.7-1.3-1-1.9-.6-1.3.9 1 3.6 3 3.6 1 0 1 .3-.1 1-1.3.9-1.3 1.1 0 2 .7.4 1.3 2.3 1.3 4.1 0 3.2 0 3.2 1.5 1 1.5-2.1 5.2-3 5.2-1.1 0 .5-1 1-2.3 1h-2.2l2.1 1.8a10 10 0 0 1 2.9 4c.4 1.4 1 2 1.4 1.6 1.3-2 3.3-1.5 2.6.6-.8 2.6-.1 2.5 2.8-.4 1.8-1.8 2.8-2.1 4.2-1.4 1.6 1 3.4-.2 3.5-2.2 0-1.5-6.3-3.2-7-1.9-.6.8-1 1-1 .4 0-.5-.7-.2-1.5.9-1.8 2.3-3.3 1.4-3.3-2 0-1.6-.5-3-1-3.2-.7-.2-1.2-1-1.2-1.8 0-.9.4-1.3 1-1 .4.4 1.1.2 1.5-.4 1.1-1.8 3.3-1 4 1.5.5 2.4 2.5 3.5 2.5 1.5 0-.6.9-2 2-3.2 2.4-2.6 2.5-3.4.5-4.2-.8-.3-1.5 0-1.5.5 0 .6-.4.8-1 .4-.4-.3-1.2 0-1.5.5-.4.6-1.4.8-2.4.5a11 11 0 0 0-4.9.4c-2 .6-3.4.6-3.7 0-.4-.5-.1-.9.4-.9.6 0 1-.8 1-1.8 0-1.3-.1-1.4-.8-.3-.7 1-1 1-1.6-.8-.8-2.5-2.3-2.7-3.2-.5m109 1c-.8.8-1.3 3-1 5 0 2.3-.3 3.9-1 4.1-.8.3-1.3.1-1.2-.4.8-4.5-1.8-4.2-3 .4-1.3 4.7-.5 5.5 5.8 5.7l5 .1-.6-4c-1.4-9-2.7-12.4-4-10.9M538 787.1c0 1.5-2.6 3.9-4.3 3.9-.8 0-1.7.7-2 1.5-.4.8-.2 1.5.2 1.5.5 0 1.2-.6 1.4-1.3.3-.7.6-.4.6.6a5.2 5.2 0 0 0 5 4.7c1.2 0 2.1.6 2.1 1.5 0 1.4 1.2 2 3.4 1.6.4-.1 1.6.8 2.6 2 1 1 2 1.6 2.4 1 .3-.5 0-1.2-.6-1.5-.7-.3-.2-.3 1.2 0 1.4.4 3 .7 3.7.7.7 0 1.5.9 1.9 1.9.6 2 2 2.4 2.7.5.4-1 .6-1 .6 0 0 .7 1.4 1.3 2.9 1.3s3.4.6 4.1 1.3c1.1 1 1.2 1 .7-.3l-1.2-3.3c-.6-1.7-.7-1.7-2 0-2 2.7-1.9-1.2.1-5 1.2-2.3 1.2-3.3.4-4.3-1.5-1.8-3.9-1.8-3.9 0 0 .8-.6 1.7-1.3 2-1 .3-1 .5 0 .5.7 0 1.3.6 1.3 1.2s-.7.9-1.5.5c-.8-.3-2.1.1-2.9 1-1.8 1.7-3.6 1.8-3.6.1 0-1-.2-1-.8 0-.6 1-1.2.7-2-1.2-1.2-2.6-2.6-3.2-3.7-1.5-.4.6-2.1.1-4.5-1.2-2.9-1.7-3.6-2.6-2.8-3.5a3 3 0 0 0 .5-2.7c-.3-.8 0-1.7.9-2 1.9-.7 1.8-2.6-.1-2.6-.8 0-1.5.5-1.5 1m-50.5 6c-.4.6-1.1.7-1.7.4-.7-.5-.8-.2-.3.6.5.9.4 1-.3.6s-1.2-.4-1.2 0c0 .5 1.7 1.7 3.8 2.6l3.7 1.7-3.3-.5c-1.7-.3-3.2-.1-3.2.4s-1 1.2-2.2 1.5c-1.7.5-2 .9-.9 2 1 1.2 1.9 1.3 4.2.5 3.9-1.3 5.6 0 4 3.1-.9 1.6-1.8 2-3.2 1.6-1.4-.5-2.1 0-2.8 1.7-1.6 4.3 1.5 6.2 5.1 3 1.3-1 1.8-1.1 1.8-.3 0 .7.4 1 1 .6.6-.3 1-1.4 1-2.3 0-1.5-.2-1.5-1.1-.2-.8 1.2-1 1-.4-1 .4-1.4.7-3.3.6-4.2 0-2.9 1.9-3.2 4.6-.7l2.6 2.4-.6-2.3c-.3-1.2-.1-2.2.4-2.2s.9-.4.9-.9c0-1.5-6.3-2.3-7.2-.9-.4.8-.8-.7-.8-3.5 0-4-.3-4.7-2-4.7-1 0-2.2.5-2.5 1m-17.5 3.2c0 .6-.8 2-1.8 3.1-1.6 2-1.6 2 .2 1.4 1.4-.6 1.7-.3 1.2.8-.7 1.8.5 2 2.2.3 1-1 1.2-.8 1.2.5 0 1-.6 1.7-1.4 1.7-.8 0-1.7.4-2 .9-.8 1.2 4.2 6.3 5.4 5.6.6-.3 1 .1 1 1 0 1.2-.6 1.6-2 1.2-1.1-.3-2 0-2.1.6-.3 3.2.4 6.4 1.9 8 1.9 2.1 2.4 4.5 1.1 5.3-1.2.7-1.2 7.1 0 7.9.5.3 1.2 0 1.6-.5.4-.6 1-.8 1.6-.5.5.4.9-.6.9-2 0-2-.4-2.6-1.5-2.2-.8.4-1.7.2-2-.3-.4-.6 0-1 .8-1 1 0 1.5-1.1 1.5-3.5 0-2.2-.5-3.5-1.3-3.5-.7 0-1.8-.7-2.5-1.5-1.6-1.9 1.6-6.4 4.7-6.5 2.2 0 3.3-1.6 2.6-3.7-.3-.8-1.2-1-2.8-.3-1.9.7-2.4.5-2.8-1.2-.5-1.8-.8-2-2.1-.8-2.1 1.7-2 .8.4-3.5 2.5-4.5 2.5-6.2 0-7.5-2.5-1.3-4-1.3-4 .2m62 .8c0 .8-.9 2-2 2.8-1.1.7-2 2.1-2 3.2s-.7 2-1.5 2-1.2-.6-1-1.3c.4-1-.4-1.4-2.7-1.5-1.8 0-3.4-.6-3.6-1.1-.6-2-2-1.2-1.5.8.4 1.4-.1 2-1.9 2.4-1.8.3-1.6.5 1 .6 2 0 3.2-.4 3.3-1.1 0-.7.5-.2 1 1 .5 1.4 1.5 2.2 2.3 1.9.7-.3 1.8 0 2.4.5.8.8 1.3.7 1.8-.6.5-1.3 1-1.4 2-.5.8.7 1.7.9 2 .6 1-1 3.4 4.1 2.8 5.7-.3.9.1 1.3 1.2 1.3 1-.1 2 .6 2.2 1.8.4 1.7.2 1.8-1.2.6-1.3-1.1-1.7-1-2.2.3-.8 2.1-.5 2.4 3.1 2.8 2.6.3 3 0 2.7-2-.3-1.7 0-2.2.9-1.7.9.6 1 .2.6-1.5-.4-1.6.2-3 2-4.8 2.4-2.4 2.5-2.6.7-3.9-1.7-1.3-1.7-1.3 0-1.3 1.1 0 1.7-.3 1.3-.6-.3-.4-1.9-.3-3.4 0-2.7.7-2.7.8-.9 2.2 1.5 1 1.7 1.7.8 2.6-1.2 1.2-5.2-1.4-5.2-3.6 0-1.8-5-9.3-5-7.6m166 6.6c-1 1.8-1.6 2.1-2.2 1.2-.6-.8-.7-.4-.4 1.2.3 1.4.3 2 0 1.3-1-2-2.3-1.5-1.7.7.6 2.2 2.9 2.7 3.6.8.3-.7.6 0 .6 1.5 0 2.4-.2 2.7-1.9 2.2s-2-.2-2 2c0 2.7 0 2.8-2 1-2.4-2.2-4-1.2-2.2 1.5.9 1.4.9 2 0 2.4-.8.4 0 .4 1.6 0 3-.5 6-2.8 5-3.7-.3-.3-.1-.8.4-1 2.3-1.5 1.9 3.3-.4 5-2.3 1.7-3.5 4-1.4 2.8.6-.3 1.3 0 1.6 1 1 2.3 2.3 1.8 1.8-.8-.4-2-.4-2 .5-.2.8 1.7 1 1.6 1-1.2.1-3 .2-3 2.6-2 1.3.7 2 1.3 1.5 1.5-.5.2-.6 1-.3 1.8s-.1 1.4-1 1.4c-1 0-1.7.6-1.7 1.3 0 2.1 1.2 2.8 2.7 1.6a4 4 0 0 1 3.3-.6c1.1.3 2 .1 2-.4s-.6-1-1.3-1c-.8 0-.8-.2.2-.8a2 2 0 0 0 .8-2.4c-.3-.8 0-3.2.8-5.3 2-5.6 1.9-7.1-.4-4.6-1 1.2-2.1 2.2-2.5 2.2-1.4 0-4.1-3.7-4.2-5.7 0-2 .4-2.1 3.7-1.7 2.2.3 4 .1 4.4-.6 1-1.6-1-3.4-2.7-2.4-2.1 1.4-7.9 1.1-7.4-.3 1-2.4-1.1-2.2-2.4.3m435.3 9.6c-.2 5.5.9 7.2 4 6.2 2.3-.7 5.2 2.7 3.4 3.8-.8.5-.6.8.6.8 1.5 0 1.7.8 1.4 6.5-.3 5.4-.1 6.8 1.3 7.8 1.3.9 1.6 2 1.3 4-.7 3.8-1.9 2.6-3.8-3.9-1.2-4.2-2-5.4-3.1-5a9 9 0 0 1-2.2.6c-.3 0 .4 1 1.5 2.3 1.1 1.2 2.3 3.6 2.7 5.2l1 4.5c.2 1 1.5 1.5 4 1.5 2 0 3.6.3 3.6.8 0 .4.4.6 1 .3.4-.4 1 0 1.3.6.3.7.6.3.6-1 0-1.2.6-2.2 1.2-2.2.5 0 .7.5.4 1-.3.5-.1 1 .4 1 .6 0 1 .8 1 1.8s-.3 1.2-.6.5c-.5-1.5-2.5 0-3.6 2.7-.3 1-.6.7-.6-.8-.1-2.7-2.1-3-2.1-.2 0 1.1-.5 2-1 2s-1-.5-1-1.2c0-.9-.3-1-1.1 0-.9.8-1.8.7-3.5-.5-2.8-1.8-5.1-.9-3.3 1.3.6.8 1.8 1.4 2.5 1.4.8 0 1.4.4 1.4 1 0 .4.8.6 1.9.3 1-.3 2.2 0 2.6.7.5.8 1 .8 2.2-.1 1.2-1 1.3-.9.8 1.4-.6 2.3-.4 2.7 1.5 2.7 1.3 0 2.4.8 2.7 2 .3 1 1 1.6 1.9 1.3.8-.3 1.4 0 1.4.6s.7 1.1 1.6 1.1c.8 0 1.2-.5.9-1-.3-.5 0-1 1-1 .8 0 1.2-.6 1-1.4-.4-.7-1.7-1.2-3-1-1.6.1-2.5-.3-2.5-1.2 0-.8-.5-1.4-1.2-1.4-.8 0-.8-.3-.3-1 1.3-1.2 5.7-1.6 7.3-.7 1.5 1 1.5.7-.2-3.3-1.2-2.9-1.4-3-1.9-1.1-.6 2.5-2.2 2.8-2.4.4a73.1 73.1 0 0 0-1.2-8.6c0-.5-.6-.5-1.3-.1-.8.5-1 .2-.5-1 .4-1-.7-3.8-2.8-7.4-2-3.1-3.5-5-3.6-4.2 0 .8-.5 0-1-1.9-.6-1.8-2.2-5.2-3.6-7.5a72.9 72.9 0 0 1-4-6.6c-.7-1.4-1.3-2-1.3-1.2 0 .7-.5 1-1.1.6-.8-.5-.8-.9.1-1.4 1-.6.8-1.4-.6-3.4-2.6-3.5-2.9-3.3-3 2.6M784 816c-1 1.5-2.2 1.9-4 1.5-3.9-.8-5.4.6-3.9 3.8.7 1.5 1.8 2.7 2.5 2.7s1.8 1 2.4 2c.7 1.3 1.8 2 2.6 1.6.8-.3 1.4 0 1.4.8s1 1.1 3 .8c3.5-.5 5 2 3.1 5-.9 1.4-.8 1.8.3 1.8 1.6 0 2.6-2.1 2.6-5.5 0-1.3.6-2.6 1.3-2.8.6-.3-.3-.6-2-.6-1.8 0-3.3-.5-3.3-1s-.9-1.1-2-1.4c-1.1-.3-2-1.2-2-2.1 0-.9-.7-1.6-1.5-1.6-.9 0-1.2-.6-.9-1.5.4-1 1-1.2 1.8-.6.6.6 1.8.6 2.5.2 1-.6.9-1-.4-1.5-1-.3-1.5-1.2-1.1-2.1.8-2.2-.7-1.8-2.4.5m-298 1c0 1.1.4 2 1 2s1 .9 1 2c0 1.4-.5 1.8-1.6 1.3-1.2-.4-1.5 0-1.2 1.8.2 1.3.9 2.3 1.6 2.1 1.6-.3 1.5.4-.5 3.4-1.2 1.9-1.8 2.2-2.4 1.2-.7-1-.9-1-1 .2l-.3 3c0 .8-1.1 1.6-2.4 1.8-1.2.2-2.2.8-2.2 1.4 0 .7-.5.7-1.4-.1-.7-.6-2-.9-3-.5-2.3.9.8 3.8 3.4 3.1 1.3-.3 2 0 2 .9 0 .8-.4 1.4-1 1.4s-1 .7-1 1.6c0 1 .6 1.4 1.4 1 1.5-.5 1.6 7 .2 9.2-.3.6-.2 1.3.4 1.7.5.3 1 0 1-.7 0-1 .2-1 .9 0 .6 1 1.1 1 2.5-.4 1.3-1.2 1.4-1.9.6-2.4-.9-.5-.2-1.7 2-4 2.6-2.3 3-3.3 2.2-4.2-1-1-1.2-1-1.2 0 0 .7-.5 1.2-1.1 1.2-.6 0-.9-.7-.5-1.5.3-.8.1-1.5-.4-1.5-.6 0-1-.6-1-1.4 0-.8-.5-1.6-1.2-1.8-1.5-.5-.1-2.8 1.8-2.8.8 0 1.4.7 1.4 1.5s.7 1.5 1.5 1.5c1 0 1.2.6.8 1.8-.6 1.5-.5 1.5 1 .4.8-.8 1.4-2 1-2.6-.2-.8.3-2 1.1-2.9 1.9-1.9 2-3.3.4-4.3-.8-.5-1-.2-.5 1 .3.9.2 1.6-.3 1.6-1.4 0-1.2-2.7.5-6 1.9-3.7 1-8.6-1.7-9.3-1.1-.3-1.7-1-1.4-1.5.3-.6 0-1.2-1-1.6-1-.4-1.4.1-1.4 1.4m193.4 2.1c.5 2.9.3 3.8-1 4.3-2.1.8-3.4.8-3.3-.1.4-2.8-.2-4.5-1.6-4-1 .4-1.5 0-1.5-.9 0-2.3-3.4-1.3-3.8 1.1-.3 1.7-.1 1.7.7.5 1-1.3 1-1.2 1.2.5 0 1.3.2 1.5.6.6.4-.9 1-.2 2 2 1.2 3 1.2 3.5 0 4.4-1.3 1-1.3 1.3.4 2.3 2.2 1.4 5-.2 4.2-2.4-.2-.6.3-1.7 1.2-2.4 1.3-1 1.5-1 1.5.6s.2 1.7 1 .4c.8-1.2 1-1.2 1 .5.1 1.8.2 1.8 1-.2.6-1.5 1.5-2 2.5-1.7 1.8.7 2-.6.3-4-.6-1.5-1.9-2.6-2.8-2.6a5 5 0 0 1-3-1.3c-1-1-1.1-.6-.6 2.4m445-1.9a19 19 0 0 0-1.5 8c0 2.2-1.9 3.5-1.9 1.4 0-.9-.4-1.6-.8-1.6-.5 0-.7 1.8-.5 4 .4 3.8-1 5.5-2 2.8-.3-.8-.6-.6-.6.5 0 1.6.9 2.1 3.5 1.8 1.3-.1 2.8 2.8 2 3.7-.4.3-.6 0-.6-.8 0-.9-.5-.7-1.4.5-1.2 1.7-1.2 2 .2 3 .8.7 1.5 2.7 1.6 4.6 0 2.1.6 3.3 1.3 3.1.7 0 1.3.3 1.3.8s-.8 1-1.8 1c-1.4 0-1.4.2-.3 1 .8.4 2 .6 2.7.3.7-.2 1.8.4 2.5 1.5 1 1.7 1.7 1.9 3.2 1 1.5-.7 2.2-.7 2.8.3.7 1.1.9 1 .9-.4 0-1-.7-1.7-1.6-1.7-1 0-1.4-.6-1-1.5.3-.8 0-1.8-.7-2.2a10 10 0 0 1-2.5-3.6c-.7-1.7-1.7-2.5-2.3-2.1-.7.4-1 .1-.7-.7.2-.8 1.8-2 3.4-3 1.7-.8 2.9-2 2.6-2.8-.2-.7.5-1.5 1.7-1.8 2.5-.6 2.8-2.3.3-2.3-1.3 0-1.4-.2-.4-.9 1-.6.9-1-.7-1.4-2.1-.5-2-3.7 0-3.7.6 0 .3-.7-.5-1.6-1-.9-1.4-2-1-2.5.6-1-1.3-4.9-2.6-4.9-.6 0-1 .8-1 1.7 0 1.4-.3 1.4-1.2.5-1-1-1-1.5.2-2.2 1.3-.8 1.3-1-.2-1-1 0-2 .6-2.5 1.3m-537.6 2.4c-1 1-.8 4.3.2 4.3.6 0 .3 1.2-.4 2.8a8.2 8.2 0 0 0-1 4.5c.4 1.1.1 1.7-1 1.7-.8 0-1.5.9-1.5 2s.7 2 1.5 2 1.5.9 1.5 2c0 2.6 3.9 2.7 6.2.3 1-1 2.4-2.4 3.4-3.2 1.6-1.4 1.6-1.5-.2-2.2-3-1.2-3.4-1-3.4 1.4 0 2-.1 2-2.4-.8-1.7-2.1-2-3.2-1.3-3.7.8-.5.8-.8-.2-.8s-.7-.8.9-2.5c2.1-2.3 2.2-2.6.7-4.2-.8-1-1.6-2.2-1.5-2.6 0-1.3-.8-1.8-1.5-1m56.2 9c-1 .2-2 1.3-2.2 2.4-.3 1-.1 1.7.4 1.3 1.4-.8 1 .6-.5 2.2-1.9 1.8-2.6 1.8-2.6-.1 0-.8-.7-1.5-1.5-1.5s-1.5.7-1.5 1.5.5 1.5 1 1.5 1 .5 1 1c0 .6-1 .8-2.5.4-2.2-.5-2.6-.2-3.1 2.5-.6 2.8-.8 3-2.3 1.8-3.6-3.2-8.3-5-9.2-3.5-1.2 1.9-1 3.6.4 4.1.9.3.8 1-.5 2.2-2 2.2-.5 6.5 2.5 6.5 1.5 0 1.8-.5 1.5-2.5-.4-1.8 0-2.5 1-2.5a6 6 0 0 0 3.2-1.5c1.5-1.4 1.8-1.4 3 0 1 1.3 1 1.5-.9 1.5-1.1 0-2.1.5-2.1 1s1.1 1 2.5 1c2 0 2.5-.5 2.5-2.5 0-1.5.6-2.5 1.4-2.5.8 0 1.7-.6 2-1.3.2-.7.5-.5.5.5s-.4 1.8-.9 1.8-1 .6-1 1.3c0 .8 1 1.2 3 1.1 1.8-.1 3 .3 3 1 0 2 3.2 1.5 3.8-.6.5-2 1.5-2.2 4.3-.7 1.2.6 1.8 1.7 1.5 2.5-.7 1.8.4 1.8 1.8 0 .8-1.2 1.5-1.3 2.6-.5s1.2 1.2.3 1.6c-2 .8-1.5 2.6.7 2 1.4-.3 2.1.1 2.6 1.6.7 2.1.7 2.1 1.6-.3 1.1-3 0-6.5-1.2-3.5-.7 1.9-.9 1.8-1.9-.8-.6-1.6-1.5-2.5-2.1-2.2-1.3.8-1.3.2.1-2.9.7-1.4 1.7-2.2 2.5-2 .8.4 1.4.1 1.4-.5s-.8-1.1-1.8-1.1c-1.6 0-1.6-.1 0-1 1-.7 1.6-1.5 1.3-2-.2-.4.2-1.3 1-2s1.5-1.7 1.5-2.3c0-.6-1.1 0-2.5 1.3-2.4 2.2-2.5 2.3-2.5.3 0-1.1-.7-2-1.6-2-1.1 0-1.4.6-.9 2.1 2 6.3 2 6.5-1.6 6-4.2-.7-7.5-2.9-5.9-4 .7-.3 1.6 0 2 .7.6.9 1.4.2 2.6-2.4 1-2 2.4-3.7 3-3.7.8 0 1.4-.5 1.4-1s-1-1-2.2-1c-1.2 0-1.8.3-1.5.7.4.3-.8 2-2.5 3.5-2.2 2-3.4 2.5-3.7 1.6a7 7 0 0 0-1.4-2.5c-.7-1-.5-1.3.7-1.3 1 0 1.4.4 1.1 1-.3.6 0 .7 1 .4.8-.3 1.5-.8 1.5-1 0-.7-2.7-3.4-3.2-3.3l-2 .6m36 2.7c-3 1-3.5 2.5-1.6 4.4 1 1 1 1.2 0 1.2-.7 0-1.5-.7-1.8-1.5-.5-1.1-1-1.3-1.9-.5-1 .8-1.4.6-1.9-.5-.3-.8 0-1.5.5-1.5.6 0 .7-.5.3-1.2-.5-.8-1-.6-2 .6-.9 1.3-1.3 1.4-1.7.4-.4-.9-.6-.8-.6.3 0 1-.8 2.2-1.6 2.9-1 .8-1.2 1.7-.6 2.9 1.1 2 5.5 2.6 4.8.6-.8-1.9.4-2.7 2-1.4.7.6 2.2.9 3.4.6 4.5-1.2 6.2 1.2 3.2 4.5-1.5 1.7-1.5 1.8.6 1.8 1.2 0 2 .4 1.6 1-.4.6-1 .8-1.6.5-.5-.4-.9.3-.9 1.5 0 1.3.4 1.9 1.2 1.4.6-.4.8-.3.5.3-.4.6.2 1.3 1.3 1.6 1.5.4 2 0 2-1.4 0-1 .7-2.2 1.5-2.5.8-.4 1.5-1 1.5-1.5 0-.4-.8-.5-1.8-.2-1.4.6-1.5.4-.4-.9.9-1.1 1-2.3.3-4-2-5-2.4-6.4-2.2-8 .3-2.2-.9-2.7-4.1-1.4m31.6 4.1c-.4.8-.1 2.1.5 2.9.6.7.7 1.6.3 2-.7.8-.8 1.3-1 4-.2 1.8-4.2 1.7-4.2-.1 0-.7-.4-1.3-1-1.3-.5 0-.7.7-.4 1.5.4.8.1 1.5-.5 1.5s-1.1-.7-1.1-1.5c0-1.9-1.7-2-3.6 0-1.6 1.6-1.9 4.5-.3 4.5.5 0 .8-.4.5-.8-.3-.4 1-.9 3-1 3.1 0 3.4.2 3.4 2.9 0 1.6-.3 3-.8 3-.4 0-1.5.6-2.6 1.4-2.6 2-1.2 3.7 2 2.3 2.5-1.2 4-4 3-5.8-.4-.5 0-1 .7-1 .8 0 1.8-1.1 2.1-2.5.4-1.4 1.1-2.5 1.7-2.5.6 0 .8 1 .4 2.3-.6 2-.5 2 .8.4 1-1.2 1.6-1.4 1.9-.6.7 2 4.4-.7 6.2-4.6 1.9-4 1.5-5.5-1.5-5.5-2 0-2.6 1.5-.8 2.5.6.4 0 1.3-1.6 2.1-3.4 1.7-5.8 1.8-5.3.1.3-.6 1-1.2 1.6-1.2.7 0 1.2-.3 1.2-.8v-3.2c0-2.9-3.6-3.6-4.6-1m-16.6 12.1c.4 2.4.3 2.5-1.6 1.5-3.8-2-4.5-1.2-2.3 2.5 3 5 2.8 7.4-.5 7.4-2 0-2.5.4-2 1.6.3.9.6 2 .6 2.5s.5.9 1 .9 1-.6 1-1.4c0-.8.5-1.8 1.2-2.2.8-.5 1-.2.5 1-.4 1 .2 2.5 1.5 3.8 1.3 1.3 2.3 1.7 2.6 1 .2-.6 1-.9 1.7-.6.7.3 1.6 0 2-.5.3-.6 0-1.1-.9-1.1-.8 0-1.7-.6-2-1.3-.2-.7-.5-.4-.5.7 0 1.5-.4 1.6-1.6.6-1.7-1.4-2-3.5-.5-2.5.9.6.8-3.5-.1-6-.2-.5 0-1 .5-1.2.5 0 1.2-.7 1.6-1.4.6-1 1.2-.8 2.6.6 1.1 1.1 2 1.4 2.2.6.4-1.3-1.5-3.4-4-4.4-1-.3-1.8-1.6-1.8-2.7 0-1-.4-2-.9-2-.4 0-.6 1.2-.3 2.6m420.2 4.8c0 1 .5 1.4 1 1 .6-.3 1 0 .8.8-.2.7.3 1.2 1 1 .6 0 1.2.3 1.2.8s-.5 1-1 1a1 1 0 0 0-1 1c0 .5.6 1 1.4 1 .9 0 1.2.8.9 2.5-.5 2.1-.7 2.2-2 1-2.1-2.2-4.2-1.9-3.6.4.3 1.2 1 1.7 1.9 1.4.8-.3 1.4.1 1.4 1 0 1.1.9 1.7 2.5 1.7 1.5 0 2.5.6 2.5 1.4 0 1.7-4.3 4.6-7 4.6-1.2 0-1.7.5-1.4 1.4.3.7 1.3 1.3 2.2 1.2 1 0 1.7.7 1.9 1.9.1 1.1 0 1.4-.3.8-.8-1.8-3.4-1.6-3.4.2 0 1 .6 1.2 1.7.8 1.2-.5 1.4-.3.8.7-.5.9-.4 1 .3.6.8-.5 1-.1.5 1-.4 1.1-.3 1.5.4 1a1 1 0 0 1 1.5.6c.3.8.9.5 1.6-.9l1.2-2.2 2.6 2.4c2.2 2 2.5 3 2 5.5-.3 2-.2 2.9.4 2.5.6-.3 1-1.7 1-3.1 0-2 .8-2.9 3.8-4 2.4-1.1 3.2-1.9 2.2-2.2a10 10 0 0 1-3.3-2c-1.2-1-1.7-1.1-1.7-.3 0 .7-.5.9-1.2.5s-.8-.3-.4.4.1 1.2-.6 1.2c-.8 0-1.3-1.3-1.3-3.8 0-3.8 2-4.7 3.8-1.6 1.1 2 5.7 1.8 5.7-.1 0-.9-.6-1.5-1.3-1.4-2.1.4-6.4-1.8-4.7-2.4 3.4-1.2 7-1.7 6.9-1-.4 2.2.3 3.3 2 3.3 2.7 0 5.1 1 5.1 2.1 0 .6-.8.5-2 0-2.4-1.4-4-1.4-4 0 0 .6.7.9 1.5.5.9-.3 1.5 0 1.5.8a2 2 0 0 0 1.3 1.9c.6.2.8.8.4 1.3s-1.3.2-1.8-.6c-1-1.2-1-1.2-.5.3.4 1.2 0 1.7-1.5 1.7-1.3 0-1.9.6-1.7 1.8.2 1.3-.3 1.6-2.5 1.4-2.5-.3-2.7 0-2.7 3v3.3l1.3-3 1.3-2.9 2.2 2.4c2.5 2.7 3.9 2.2 2.3-.9-.7-1.3-.8-2.2-.1-2.6.5-.3 1 0 1 .7 0 1 .3.9 1-.2.8-1.3 1-1.2 1 .3 0 1 .7 1.7 1.5 1.7s1.5-.7 1.5-1.5-.6-1.5-1.3-1.5c-.9 0-.9-.2.1-.9 1.4-.9 6.2.8 6.2 2.1 0 .5-.9.8-2 .8-2.5 0-2.6 1.5-.3 2.4 1 .4 2.2 0 2.9-.8.6-.9 1.6-1.6 2-1.6.6 0 1-1 1-2.3 0-1.8.4-2.1 2.4-1.9l2.5.4-2.5-2.5c-1.4-1.3-2.8-2.3-3.2-2-.4.2-1-.1-1.3-.7-.3-.5-.1-1 .4-1 1.7 0 .7-4.4-1.2-5.2-2-.9-2.3-2.8-.2-2.8.8 0 1.5.5 1.5 1.1 0 .7 1 .9 2.5.5 2.7-.7 3.3.5 1.2 2.6-1.5 1.5-.8 2.6 3.1 4.7 1.8 1 2.2.9 2.2-.2 0-.7 1-1.9 2.3-2.5 3-1.4 7.7-2.1 7.7-1 0 .4-.4.8-.9.8-.4 0-.6 1-.4 2.4.3 1.6 0 2.5-1.4 2.8l-3.5 1.3c-1.3.5-1.8.2-1.8-1 0-2.8-1.7-.6-2.8 3.8-1 3.8-.7 6.7.8 6.7.5 0 .6-.9.3-2-.5-2 1-2.8 2.2-1 1 1.6 4.5 1.2 4.5-.6 0-1-.6-1.4-1.4-1-.8.2-1.7-.2-2-1-1-2.4-.7-2.7.8-1.5 1 .9 1.5.7 1.9-.9.3-1 1.2-2 2.1-2 1.9 0 2.1 1.6.3 2.3-1 .4-1 .7 0 1.8 1 1 1 1.6 0 2.8-1 1.2-.9 1.4.6.8 1-.4 2.3-.7 2.8-.7s.8-.3.7-.8c-.4-1.1 2.8-5.3 3.5-4.5 1.5 1.4.6-2.4-1.2-5-1.7-2.6-2-2.7-2.4-1-.3 1-.5.2-.6-1.8 0-2-.8-4.4-1.7-5.5-1.2-1.5-1.4-1.5-1-.2.5 1.8-4.8 3.3-8 2.1-1.1-.4-1.5-.3-1 .5.3.6.1 1.4-.5 1.8-.6.3-1.5 0-2-.7-.5-.8-.3-1.6.4-2 1.8-1.2-1.5-4-4.7-4.2-2.7-.2-3.6-2.1-1.3-3 .7-.4.6-.6-.5-.6-1 0-2 .8-2.3 1.9-1 3-2.2 2.4-3-1.1-.5-2.3-1-2.8-1.6-1.8-1.2 2-1.1 4.2.1 3.4.7-.4.8.3.4 2.2-1 4-2.4 5.2-3 2.5-.4-1.4-1.2-2.1-2-1.8-.8.3-1.4 0-1.4-.6s-.6-.6-1.6.3c-2 1.6-4.2 2-5 .8-.3-.5-1-.7-1.5-.4-.5.4-1.2-.2-1.6-1.2a11 11 0 0 0-2.5-3.4c-1.9-1.7-2.5-3.4-.8-2.4.5.3 1 .1 1-.4 0-1.8-2.8-1.3-4 .6-.5 1-1 1.3-1 .6 0-.6-.7-1.9-1.6-2.7-1.4-1.5-1.4-1.6 0-1.6.9 0 1.6-.5 1.6-1s-.7-1-1.6-1c-1.1 0-1.4-.6-.8-2.2.6-2 .5-2-.8-1-1.1.9-1.7.9-2.6 0-1-1-1.2-.8-1.2.6m-367 6c0 4 1.4 7.7 2.6 7.2 1-.4 1.4.2 1.4 1.5 0 1.1-.4 1.8-.9 1.5-.5-.3-1 .6-1.4 2-.2 1.3 0 2.7.4 3 .5.3.9 1.4.9 2.5 0 1.4-.4 1.8-1.3 1.2-2.3-1.4-3.8-1.2-3.3.5.3 1 0 2.4-.5 3.2-.8 1.1-1 .3-.6-3.3.3-2.6 0-4.7-.3-4.7-.5 0-1-.8-1.3-1.8-.4-1.6-.5-1.6-.6 0 0 1-.6 1.8-1.2 1.8-.7 0-.9-1-.5-2.5.8-3-.3-3.2-3.8-.4-3 2.3-2.6 3.9.7 4 1.6 0 1.8.2.8.8-.8.5-1 1-.3 1.5.5.3 1.5 0 2.2-1 2-2.4 3-1.6 3 2.5 0 2.2.5 4.3 1 4.6 1.4.9.2 2.5-1.8 2.4-1 0-1.2-.3-.5-.6.7-.2 1.3-1 1.3-1.4 0-.6-.4-.8-1-.5-.4.4-1 0-1.3-.6-.3-.8-1-.1-1.6 1.5-1.3 3.3-2.5 3.6-1.7.4.5-2 .2-2.3-1.7-2.1l-4.7.4c-2.3.2-2.2.3.8 1.2 3.2 1 4.3 3.3 2 4-1.4.5-2.2 8.8-.9 8.8.5 0 1.3-.9 1.6-2 .3-1.1 1-2 1.6-2 .5 0 .9-.5.9-1s-.6-.9-1.3-.8c-.6.2-1.2-.3-1.2-1 0-.9 1.2-1.6 2.8-1.8 1.8-.2 2.5.1 2 .8-.4.7-.1.8.7.3.8-.5 1-.4.6.3-.3.6-.2 1.3.4 1.7 1.7 1 1 2-1.6 2.1-3.9.3-7 6.4-3.2 6.4.5 0 .7-.4.4-1-1-1.6.4-3.5 2.9-3.6 1.4-.1 2.2.2 2 .7-.4.5-.2.9.3.9s1.2-1.6 1.5-3.5c.6-3.9 2.6-6.4 4.5-5.7.6.2 1.2-.1 1.2-.7s-.6-1.1-1.4-1.1c-1 0-1.2-.7-.9-2 .3-1.1 1-2 1.4-2 .5 0 .6.8.3 1.8-.5 1.4-.3 1.4 1-.2a7 7 0 0 0 1.6-3.3c0-.7.7-1.3 1.5-1.3 2 0 2-1.6 0-2.4-1.1-.4-1.3-1.1-.7-2.3.4-1 .7-3.5.5-5.5-.2-3.5.4-4.3 3-4 .4.1.7-.2.7-.8 0-1.3-3.6-3.1-4.4-2.2-.4.3-.4-.2 0-1.3.6-1.6.4-1.8-.6-.8s-1 1.5 0 2.8c.7.8.8 1.5.2 1.5-1.6 0-3.5-2.9-2.8-4.5.3-.8.1-1.5-.4-1.5-.6 0-1 .6-1 1.4M571.2 864c-1.3 1-2 2.5-1.7 3 .6 1 1 .9 1.5 0 .5-.8.9-.7 1.3.4.4.9.2 1.6-.3 1.6-.6 0-1 .8-1 1.8-.1 1-.4 1.2-.7.5-.7-1.8-2.3-1.6-2.3.3 0 .8.5 1.2 1 .9 1.3-.8 1.3.1-.1 2.3-1 1.5-.6 2.4 2 5 1.7 1.6 3.1 2.6 3.1 2 0-.5.8-.4 2 .2 1.7 1 2 .8 2-1 0-1.9-.2-2-1.5-1-1.2 1-1.5 1-1.5-.3 0-2.2 2-3.2 3.1-1.6.8 1.2 1.2 1 2.4-.5.7-1 1.8-1.5 2.4-1.2.5.4 1.7-.4 2.5-1.6 1.6-2.2 1.6-2.2 3-.3 1.2 1.6 1.5 1.7 1.6.4a7 7 0 0 0-1.5-3.5c-1-1.3-1.4-1.5-1.5-.5 0 1.1-.4 1-1.8-.2-1-1-2.4-1.7-3-1.7-.7 0-1-.5-1-1 .2-.7-.6-1.7-1.7-2.3l-2.5-1.5c-.2-.2.2-.7 1-1.2 1.1-.7.7-1-1.5-1-1.6 0-4 1-5.3 2m99.6 4.5c-.3.4-.2 2 .2 3.6.5 1.8.5 2.9-.1 2.9s-.8.4-.5.8c.3.5-.1.9-1 .9-.7 0-1.4-.4-1.4-.9 0-.4-.5-.8-1-.8-1.5 0-1.2 2 .4 3.6 2 2 3.4 1.8 4.1-.6.7-2.1 4.6-2.3 5.3-.2.2.7-.2 1-1 .7-1.5-.6-1.9 6.6-.4 7.7.6.4-.2 1-1.7 1.3-1.6.4-2.7 1.4-2.6 2.4 0 1.1.2 1.2.6.3.8-2.1 6.2 3.5 5.6 5.8-.3 1-1 1.6-1.8 1.4-.7-.3-1.6 0-2 .5-.3.7.2 1.1 1.4 1.1 2.3 0 2.8 1.5.9 2.3-.8.3-.6.6.5.6 1 0 2-.6 2.3-1.4.4-.8 1-1.2 1.5-1 .5.4 1.7.1 2.6-.5 1.6-1 1.5-1-.5-.7-2.3.5-4.2-3-2.8-5.2.3-.5 0-1.2-.6-1.4-.8-.3-.6-.6.5-.6 1 0 1.7.4 1.7 1 0 .5.4.8 1 .5 1.3-1 0-4.8-1.6-4.2-1.3.5-1.8-.5-1.5-3.1.1-.7-.4-1.3-1.1-1.3-.8 0-.6-.5.5-1 1-.6 2.2-.8 2.7-.5.6.3 1-.1 1-1s.4-1.4.9-1c.5.2 1.4-.2 2.1-1 1-1.3 1.5-1.3 2.1-.3.6.8.9.1.9-2 0-3 .2-3.2 1.5-1.8.8.8 1.5 2 1.5 2.6 0 .6.4.9 1 .6.4-.4 1-.1 1.2.5.2.5 1.1.7 2.1.3 1-.4 1.6-1.3 1.3-2-.4-1 .1-1.3 1.7-1 1.2.1 1.6.1.9-.1-1-.4-.9-.8.5-1.8 1-.7 1.5-1.7 1-2-.4-.5-1.6 0-2.7 1-1.5 1.4-2 1.5-2 .4 0-.8-.7-.3-1.5 1.1-1.1 2-1.4 2.1-1.5.7 0-1-.4-1.6-1-1.2-.4.3-1.1 0-1.5-.5-.3-.5 0-1 .6-1 .7 0 .4-.7-.7-1.5-2.2-1.7-6-2-6.9-.5-.3.5 0 1 1 1 .8 0 1.5.5 1.5 1.1 0 .6-.7.8-1.7.5-.9-.4-2-.2-2.3.4-.5.7-1.5.8-3.3 0a7.4 7.4 0 0 0-4.4-.3c-1.2.5-1.5.2-1-1 .6-1.6-1.4-5.2-2.5-4.2M543 871c0 .5.7 1.6 1.5 2.5 2 2 1.9 2.5-.8 3.6-1.5.6-1.7.9-.5 1 1 0 1.5.6 1.1 2-.6 2.4-3.4 3.5-4.5 1.8-.6-1-.8-.8-.8.5 0 1 .6 1.7 1.3 1.7.8 0 .8.3-.2 1-1.1.6-.9 1.3 1.2 3.3 2 1.8 2.7 3.4 2.7 6.3 0 3.5.2 3.7 1.4 2.1.7-1 1.9-1.7 2.6-1.7.8 0 1-.6.5-1.8-1-2.1-1-3.3 0-5.4.5-1.3 0-1.8-2.9-2.3-2.8-.6-3.3-1-2.3-2 .7-.7 1.6-1 2-.8.5.3 1-.4 1.4-1.6.6-2.5 1.6-2.6 3.7-.6 2 2.1 3.6 1.9 3.6-.5 0-1.2-.6-2-1.3-2-3.2.5-3.8 0-2.7-2 1.3-2.5-.4-5.4-2.6-4.6a2 2 0 0 1-2-.4c-.7-1.3-2.4-1.3-2.4 0m-47 .6c0 .3.5 1.4 1 2.5 1.3 2.3-1.8 5.9-4.9 6-1.4 0-1.3.1.2 1s1.6 1.2.2 2.5c-.8.9-1.5 2-1.5 2.5 0 1.7 1.8.9 3.9-1.9l2-2.7v2.5c0 1.5-.4 3.1-1.1 3.8-1 1-1 1.2 0 1.2.7 0 1.2.9 1.2 2s.4 2 1 2 1-.7 1-1.5.9-2 2-2.5a4 4 0 0 0 2-3.4c0-1.3.7-2.6 1.5-3 .8-.3 1.5-1.5 1.5-2.8 0-2.1 0-2.1 1.4-.2 1.4 1.8 1.5 1.8 2.1.1.9-2.2-.2-5-1.5-4.2-.6.4-1.7.1-2.5-.5-.8-.7-2.4-1-3.5-.7-1.3.3-2.4-.1-3-1.4-1-1.7-3-2.7-3-1.3m-21 2.5c-1.4.6-3.3.8-4.3.5-2.7-.7-6.7 1-6.7 2.9 0 1.6-1.2 2-2.3.8-.4-.3-.2-1.2.4-2 .9-1 .7-1.3-1-1.3-1.6 0-2.1.7-2.2 2.8-.2 5.3.6 7.6 2 5.4 1-1.6 4.1-.5 4.1 1.4 0 .8-.4 1.4-.9 1.4-1.1 0-2.1 3.8-1.4 5.6.3.8 1 1.4 1.5 1.4.6 0 .8-.7.4-1.5-.3-1 0-1.5 1-1.5 1.2 0 1.5-.7 1.1-2.6-.3-1.8 0-2.4 1-2 .7.3 1.3 0 1.3-.7 0-1.6-3-5.4-3-3.9 0 .7-.5 1.2-1 1.2-.6 0-.5-.8.2-2 1.5-2.3 9.8-5.2 11.2-4 .5.5 1.8.4 2.9-.2 3.6-1.9 0-3.4-4.3-1.7m217.4 9.4c-.4 1.5-.2 3.1.4 3.7.8.8.8 1.7 0 3-1 2.2-.5 3.4 1.1 2.3.6-.3 1.1-1.6 1.1-2.8 0-1.5.3-1.8.8-1a2 2 0 0 0 2.3.8c.9-.3 2.6-.2 3.9.3 2.3.9 2.3.9-.8 2.3-1.8.8-3.2 2-3.2 2.7 0 1-.5 1-2 .2-2.4-1.3-3-1.3-3 0 0 .5.8 1 1.8 1 1.4 0 1.5.2.2 1-1.2.7-1.2 1.2-.2 2.2.6.6 1.2.8 1.2.3s.7 0 1.5 1c.8 1.1 1.5 1.4 1.5.8 0-1 .7-1 2.5-.3 1.4.5 2.5.8 2.6.7.7-2.2.7-4.7-.1-5.2-2.6-1.6-1-4.1 2.7-4 2 0 3.8-.5 4-1.3.3-.7-.4-1.2-1.6-1.2a20 20 0 0 1-6.6-2.5c-2.5-1.4-5-2.3-5.5-2-.4.3-1-.5-1.2-1.7-.4-3.2-2.6-3.4-3.4-.3m482.9.8l-2.2 3.7h2.4c1.4 0 2.5.5 2.5 1 0 .6.5.8 1 .5 1.4-.9 1.3.1-.4 3.4-1.3 2.5-1.3 2.8.5 4 2.3 1.4 2.1 4-.5 6-1.4 1-1.5 1.5-.5 2.2 1 .6 1.8.3 2.7-.8 1-1.5 1.2-1.4 1.2 1 0 1.6.4 2.6 1 2.2.5-.3 1-.1 1 .4 0 .6-.5 1.1-1.1 1.1-.7 0-.9 1-.5 2.8.6 2.6.6 2.6-.9.8a8 8 0 0 1-1.5-2.9c0-.4-.5-.5-1.1-.1-.6.3-1.5.1-1.9-.6-.5-.8-1-.3-1.2 1.5-.4 2-.2 2.5.8 2 .9-.2 1.4.3 1.4 1.5 0 1.1.4 2 1 2 .5 0 .7-.7.4-1.5-.7-1.8.2-2 2-.3 1 1 1 1.7.3 3-1.2 1.8-.1 4 1.1 2.3 1-1.4 3.2-1.7 3.2-.4 0 .6.6.9 1.2.7.7-.3 2 .5 3.1 1.6 1.8 2.1 1.8 2.1 1.4-.6-.2-1.6 0-2.8.3-2.8 1.9 0 1.7-3.3-.2-7.7-1.5-3.2-2.3-4.2-2.6-3-.3 1.5-.5 1.5-1.8.3-1.8-1.9-1.8-3 .1-2.2 2.1.8 1.9-1-.4-3.3-1-1-1.7-2.1-1.5-2.4.3-.3-.7-2.5-2-5a21.7 21.7 0 0 1-2.6-6c0-.8-.6-2-1.4-2.7a6.2 6.2 0 0 1-1.8-3.3c-.3-2-.6-1.7-2.5 1.5m-17.3 14.9c0 1.4 2.5 3.9 4 3.9.5 0 1 .7 1 1.5 0 1.7-1.6 2-2.5.5-.5-.8-1.1-.7-2 0a4 4 0 0 1-3.3.6c-1.5-.5-2.1 0-2.6 2-1 3.5-.4 3.8 2.7 1.4l2.6-2 .7 3.5c.3 2 1 3.5 1.4 3.5 1.6 0 6-2.7 5.3-3.3-.3-.4.6-.7 2-.7 1.5 0 2.7-.5 2.7-1 0-.7 1-2 2.1-2.9 1.9-1.5 2-1.8.5-3-2-1.7-3.6-.6-2.9 2 .6 2.1.6 2.1-2-.2-1.5-1.2-2.7-2.8-2.7-3.5 0-.8-.6-1-1.5-.8-.8.4-1.7 0-2.1-1-.7-1.8-3.4-2.2-3.4-.5m-33.4 27.6c.4 2.4.3 2.5-.5.8-.9-1.9-1-1.9-1-.1 0 1.5-.4 1.6-1.6.6-1-.8-1.5-.9-1.5-.2 0 .6.7 1.5 1.6 2 1 .5 1.7 2 1.7 3.4 0 2 .5 2.5 2.3 2.5 1.3 0 2.1-.3 1.8-.8-.3-.5.9-.9 2.5-.9 3.7 0 4.3-2.6.8-3.3-1.9-.4-1.8-.4.5-.6 1.6 0 2.8-.6 2.8-1.3 0-.6.6-.3 1.4.7.8 1 1.1 2.5.8 3.3-.4 1 0 1.3 1.6.7 1.7-.5 2.2-.2 2.2 1.2 0 1.6.6 1.8 3.5 1.5 3.7-.4 4.6-1.6 2-2.6-1.8-.6-2-2.7-.3-2.4.7.2 1.4-.7 1.6-2 .2-1.2-.1-2.2-.7-2.2a1 1 0 0 0-1.1 1c0 .6-1.2.9-2.8.6l-3.5-.5c-.4 0-.7-.9-.7-1.9 0-1.3-.2-1.4-.9-.3-.5.7-1.4 1-2 .7-.6-.4-1.1-.2-1.1.4 0 .8-1 1-2.6.6-1.7-.5-2.3-.3-2 .4.4.5.3 1-.3 1-1.7 0-2.4-2.2-1-3.1.9-.5 1-.9.2-.9-.6 0-1.8-.3-2.6-.6-1.1-.4-1.4.2-1 2.3m759.3 3.5c0 .4.5.8 1 .8s1 .8 1 1.9c0 1.6-1 2-8.3 2.4a27125.7 27125.7 0 0 0-90.4 6.1c-6.2.3-13.3 1-16 1.6-2.5.6-8 1.1-12.2 1.1-4.2 0-9.2.4-11.3.9-2 .4-4.2.4-4.9 0-.7-.5-2.3-.4-3.6 0-1.3.6-7.8 1.2-14.6 1.5-13 .5-46.2 2.8-64.2 4.5l-27 2-28 2c-6.6.6-17 1.3-23 1.6-6 .3-12.1.8-13.5 1-1.4.3-6.1.7-10.5.9-8.8.4-23.5 1.4-30.5 2l-14.5 1c-38.5 2.2-59.6 4-71.5 6.2-4.7.9-9.5.8-10.8 0-.8-.7-1.7-.6-2.4.1-1.6 1.6-4.5 1.5-5 0-.4-1-.8-1-2 0-1 .9-3.4 1.2-6.7.9-2.8-.3-5.3-.1-5.6.3-.3.5-1.3.9-2.3.9-1 0-3 .3-4.5.7-1.7.4-2.7.2-2.7-.5 0-.6-1.2-1-2.8-1-1.5 0-2.2.3-1.5.5 1.5.7.5 3.4-1.2 3.4-.7 0-1.8-.7-2.5-1.5-1-1.1-1.6-1.3-2.4-.5-1.3 1.3-3 1.3-2.1 0 .4-.6-.9-1-3.2-1-2 .1-3.2.4-2.5.7.6.2 1.2.9 1.2 1.4 0 1.3-5.4 1.1-6.8-.3a51.8 51.8 0 0 0-19.7 0c-.5.4-3.6.5-6.8.3-6.8-.3-6.9 0-1.8 5.4 2 2.2 8.2 9.9 13.7 17a369 369 0 0 0 10.5 13.5c.4.3 3.5 4.3 7 9a244 244 0 0 0 9.5 12.3c1.9 2 3.4 4.3 3.4 5 0 .8.9 2 1.9 2.8 2 1.4 16 19.4 37.8 48.5l14.5 19.3c1.5 2 5.3 7.4 8.4 12.1 3.2 4.7 6 8.7 6.4 9 .7.6 9.1 14.6 13.4 22.3 14.2 26 40.6 81.8 40.6 86a498.3 498.3 0 0 1 10.9 29.7c15 44.5 23.5 73.2 26.6 91 .8 4.1 2 9.8 2.8 12.5.8 2.8 2.2 8.6 3.1 13l2.6 11 1.5 6.5c.3 2 1.5 6.2 2.4 9.5 1 3.3 2.3 9 3 12.5a144 144 0 0 0 2 10.5 412 412 0 0 1 4.6 23c1 5 2 10.3 2.6 12 1.3 4.3 1.9 10 2.9 27.5.5 8.5 1.6 20 2.4 25.5 2.4 15.5 2 40-1 71.6-.6 7-2.2 36-2.9 54.4-.3 7.7-1 17.6-1.5 22-.9 7.6-2.4 31.6-3.5 56.5-.3 6.3-1 17.2-1.6 24.2l-2 32.5c-1.3 29.7-2 39.5-3.5 56.8a1848 1848 0 0 0-4 69.7c-.3.4-.7 4.5-.9 9-.8 15-2.6 44.1-3.4 54a123 123 0 0 0-.5 13 75 75 0 0 1-.6 10.8c-.5 4.1-1.2 15.4-1.5 25-1 29.7-2 48.7-2.9 57.5-.4 3.8-1 17.2-2.2 44.5l-1.4 25a825 825 0 0 0-1.5 27c-.3 8-.7 16.3-1 18.5-.4 3.7-.7 8.6-2 36l-1.5 28.5c-1 19.3-1 25 .3 25 .4 0 .7.7.7 1.6 0 1.3-.3 1.4-1.4.5-1.2-1-1.4-.2-1.5 4.6 0 3.2-.5 12.3-1.1 20.3-1.3 18.4-1.7 25.3-3 53l-2 38.5c-.6 8.8-1.3 22.3-1.5 30a3511 3511 0 0 1-2.4 51.5 17625.9 17625.9 0 0 0-7.6 156.5l-2 43c-.8 17.6-2 39-2.5 47.5l-2 36.2a5797.8 5797.8 0 0 1-3.5 67.3 6632.2 6632.2 0 0 0-4 86.5 3188 3188 0 0 0-3 63c-.3 9-.8 17.3-1.1 18.3-.5 1.6 5.6 1.7 119 1.7 92.4 0 119.6-.3 119.6-1.2 0-1 .3-1 1.2 0 2.1 2.1 254.8 1.7 254.8-.4 0-1.5-3.4-6.5-13-19-6.2-8.1-16.8-24-22-32.8l-12-20.6a98.2 98.2 0 0 0-10-15.3 4 4 0 0 0-1.1-2.4c-.7-.7-2.5-4.4-4-8.4a65 65 0 0 0-5-10 11 11 0 0 1-1.9-3.9c0-.7-.7-2.6-1.5-4.3l-7.9-17.7a54 54 0 0 0-8.3-15.4c-1-.5-2.6-3.1-3.5-6-3.2-10.1-7.7-22-8.5-22.5-.5-.3-1-1.6-1-2.8-.1-1.2-2.2-8.6-4.7-16.5-2.4-7.9-4.8-15.4-5.1-16.8-.4-1.4-1.5-3.8-2.3-5.5-.9-1.7-1.5-3.4-1.4-3.8.1-.5-1.3-8.6-3.2-18-3.8-18.5-6.7-34-9.1-48.2-19-110.8-17.3-99.4-23-152.5-2.9-26-3.4-40.8-5-137a6956.8 6956.8 0 0 1 .9-178c1-80.7 1.5-114.8 2.3-155.5.5-20.3.8-46.9.8-59 0-12.1.3-22.2.6-22.5.8-.6 1.8-22 2.5-53 .8-40 1.4-60.2 2-65.7.2-2.8 0-6.4-.6-7.9-.6-1.6-.7-3.1-.1-3.8.4-.6 1.1-11.9 1.5-25.1a1997.4 1997.4 0 0 1 2.2-58.3c.3-9.6.7-18.6.9-20 1.1-9.7 1.6-37.2.6-37.2-.7 0-.8-.8-.1-2.5a19 19 0 0 0 1-5.2l.5-14.3 1-25.5c.2-7.7.7-16.5 1-19.7.6-4.9.4-5.7-1-6-1.7-.3-1.7-.4-.2-2 1.3-1.2 1.6-4 1.7-14.4 0-12.6.2-16.9 1.4-43.9.3-7.2.8-25.2 1.1-40 .3-14.8.8-29.3 1-32 .3-2.8.7-16 1-29.3.2-13.4.6-24.6.9-25 .3-.6 1-21.8 2.1-75.2l1-34c1.2-25.6 1.2-33.5.2-34.8-.6-.8-.6-1.2 0-1.2s1-1.2 1-2.8c0-3.8 1.3-35.4 1.8-42.7a15558 15558 0 0 1 2.4-67c.6-18 .5-20.2-1-21.5-2.4-2.2-2.4-10 0-12.8 2-2.4 2.6-10.2 3.6-45.2a976 976 0 0 0 1.6-92.3c-.5-1.3-.4-4.2.4-7.2.7-3 1.5-16.1 2-32 .3-14.9.8-29 1-31.5 1.4-18.6 1.4-43.7 0-43.7-.8 0-1.5.4-1.5.9M462 1044c0 .5.7 1 1.5 1s1.5.5 1.5 1c0 .6-.5.8-1 .5-.7-.4-1.4.2-1.7 1.4-.3 1.4-1.3 2.1-2.8 2.1-1.3 0-2.6.7-3 1.6-.7 2.1.3 3.3 1.4 1.6.4-.8 1.4-1.4 2.2-1.6.8-.1 3-1.2 4.9-2.4 3.2-2 3.6-2 5.2-.5 2.1 2 2.4 3.5.4 2.7-1.2-.5-1.6 4-.4 5.1.9 1 4.8-.9 4.8-2.1 0-.8.7-1.4 1.5-1.4.9 0 1.2-.6.8-1.6-.3-1-1.3-1.4-2.4-1-1 .2-1.9 0-1.9-.5s.4-.9 1-.9 1-.8 1-1.8c0-1.5-.7-1.8-4-1.6-2.5.1-4-.3-4.4-1.2-.6-1.6-4.6-2-4.6-.4m82.4 3.1c-.3.6-.2 1.4.4 1.8.6.4 1.4 3.4 1.7 6.6.5 5.1.4 5.8-.7 4.4-1.2-1.5-1.5-1.5-2.5.7-1.1 2.4-.3 3.8 2.1 3.9 2.5 0 1.3 2.3-1.4 2.7-2.2.3-3 .1-2.6-.8.3-.7-.2-1.5-1-1.8-.8-.3-1.4 0-1.3.7.4 3-.2 4.7-1.7 4.7-1.2 0-1.4-.7-.9-3.1.7-2.9.5-3.1-1.4-2.6-1.1.3-2.1.1-2.1-.4s-.7-.9-1.5-.9-1.5.7-1.5 1.6c0 1 .6 1.4 1.4 1 1.7-.6 2.7 1.4 2 4.1-.4 1.5-1.3 1.8-4.2 1.6-2-.2-3.1 0-2.5.3.7.3 1.3 1 1.3 1.4 0 .4-.6.8-1.3.7-.6 0-2.1 0-3.2.2l-2 .2 2 1.6c2 1.5 1.9 1.5-1 .8l-3-.6 2.3 2c1.2 1.2 2.2 2.6 2.2 3.2 0 .6.7.6 2-.1 1.4-.7 2-.7 2 0 0 .5 1.1 1 2.5 1 2.2 0 2.5-.4 2.5-3.4 0-1.9.3-4.1.6-5 .8-2.1 3.6-.8 2.9 1.4-.5 1.5 0 1.8 2.6 1.7 3.6-.2 4.7-1.8 2.6-3.9-1.2-1.1-1.2-1.6 0-2.6 1.7-1.7 5.6-.5 4.9 1.4-.3.8-.2 1.4.3 1.4 1.6 0 3.1-2.7 2.9-5-.2-1.3.2-2.5.9-2.7.7-.3 1 .3.6 1.5-.2 1.1 0 2.3.6 2.6 1.5 1 1.3 2.7-.4 5-1.2 1.6-1.7 1.7-3 .6-1-.8-1.5-.9-1.5-.1v1.8c0 .4 1 .8 2.3.8 1.7 0 2.3.7 2.5 3.2.3 3 .5 3.1 2.7 2.3 1.2-.5 2.6-.6 2.9-.3.3.4.6.1.6-.5s-.9-1.6-2-2.2c-1.5-.8-1.7-1.3-.7-3.5 1.3-2.6 2.6-3.3 2.3-1.3-.2 2.5 1.8 2.2 2.5-.3.9-3.5-.3-5.3-2.9-4.5-2.4.8-3-.4-3.7-8.9a18 18 0 0 0-2.1-7.6c-.8-1-1.6-2.7-1.7-4-.2-3.5-3.7-5.3-5.3-2.8m117.1 6c.5 1.6.4 2-.5 1.4-.8-.5-1.1-.3-.8.6.2.8 2 1.8 4 2.3l3.7 1-3.2 2.9c-3 2.8-3 3-1.2 3.7 1.6.6 2.3.2 3.4-2.6 1.3-3.2 4.1-4.8 4.1-2.3 0 .5.5.7 1 .4.6-.4 1-1.4.8-2.3-.2-1.2.6-1.8 3.1-2.2 2.2-.3 3.7-1.2 4.2-2.5.6-1.5.8-1.6.8-.4.1 1.8 3.1 3.5 3.1 1.8 0-.6.7-.3 1.7.6 1.6 1.7 0 4.1-1.9 2.9-1-.6-1 .8-.2 3 1.2 3 5.3-1.3 4.4-4.6-.5-1.4-.6-2.9-.3-3.2.9-.8-4.5-2.6-7.8-2.6-2 0-2.8.4-2.3 1.1.8 1.3-1.3 2.9-3.9 2.9-1 0-1.7-.8-1.8-2.3 0-1.2-.3-1.6-.6-1-.2.7-1 1.3-1.4 1.3-.6 0-.7-.5-.3-1.1.4-.7 0-1-1.2-.7-1.3.2-1.8 1.1-1.7 2.8.2 2.4.2 2.4-1-.3-1.4-3.3-5.2-4-4.2-.6m-45.2 2.5c-.4 1 .1 2.2 1.3 3.1 1 .8 1.8 1.9 1.6 2.4 0 .5.3.9.8.9 2 0 1 3-1.2 3.9-2 .7-2 .9 1.2 2 4.2 1.4 10.5-1.9 9.7-5-.4-1.3.3-2.5 1.9-3.5 2.7-1.8 3.1-3.4.9-3.4-.8 0-1.5.4-1.5.8 0 .5-1.8 1.6-4 2.5l-4 1.5-.7-2.6c-1-4.2-4.8-5.8-6-2.6m-165 6c-1.6.7-1.7 4.6-.1 6.2 1 1 .8 1.2-.5 1.2-1 0-1.7.7-1.7 1.5 0 2.2 1.5 1.8 3.4-.8l1.6-2.2-.6 2.8c-.7 3 .6 3.6 2.6 1.2 1.4-1.7 5.1-2 6.6-.5 1.6 1.6 4.3.2 3.7-2-.7-2.5-3-4.4-3.7-3.1-.9 1.3-4.6.1-4.6-1.5 0-2-2-1.7-2 .3-.1 1.1-.4 1.3-.7.5-.2-.6-1.2-1.2-2-1.2-1.3 0-1.3-.3-.3-1.5 1.2-1.5.6-1.8-1.8-.8m1.5 20c-1.2 1-.8 2.1 1.5 4.2 1.6 1.6 1.9 2.3 1 3.4-.7.8-1 2.3-.5 3.3.6 1.7.5 1.7-1 .5-1.2-1-1.7-1-1.7-.2 0 .7-.4 1-1 .6-.5-.3-.8.4-.7 1.5.1 2.1 3.3 2.8 3.9.9.2-.6 1.5-1 2.8-.7l2.5.3-2.4 2.2c-1.3 1.2-2 2.6-1.6 3.2.4.7-.3 1.1-1.7 1.2-1.3 0-1.7.3-1 .6.6.2 1.2.9 1.2 1.4 0 1.3-2.8 1.1-3.2-.3-.7-2.1-2.8.3-2.8 3.3 0 2.3.5 3 2.3 3 6 .5 7.3.7 9.2 1.3 1.7.7 1.7.5-.4-1.3-1.4-1.3-3.1-2-4.2-1.6-1 .3-2 .1-2.4-.5-.3-.5 0-1 1-1 .9 0 1.5-.9 1.5-2.3 0-1.7.2-1.9 1-.8.7 1.2 1 .8 1.6-1.5.8-3.3 2-4.4 5-4.4 1.4 0 2.1-.6 2-1.6 0-1 .8-1.7 2.6-2 2.8-.3 5.4 1.8 4.3 3.6-.3.5-.2 1 .3 1 1.5 0 2-4.3.6-6.8-1-2.1-1.3-2.2-2.7-.8-2.2 2.3-3.4 2-4-1-.3-1.6 0-2.8 1-3 1-.5 1-1 .2-2.5-1.2-2.4-3-2.5-2.8-.2.3 3.1 0 4-1.6 4.7-2.4.9-4.3-.3-3.8-2.5.7-2.6-4.3-7-6-5.2m62.4 1.7c-1.3 1.5-.5 2.6 2 2.6 1.5 0 1.6.3.6 2.5-1.4 3-4.2 3-4.2 0 0-1.1-.8-2.1-1.8-2.3-1.6-.3-1.8 0-1.2 2 .4 1.2 1.2 2.5 1.6 2.6 1.7.7.9 2.9-1.4 4-1.7.8-1.8 1-.4 1.1 1 0 1.7.5 1.7.9s1.6.6 3.6.4c3.2-.4 3.4-.6 2-2-1.8-2.1-.7-4.5 1.4-3.2 1 .7 1.1 1 .2 1-1 0-1 .4 0 1.9.6 1 1.8 1.7 2.5 1.4 1-.4 1-.9.2-2-.8-1-.8-1.3 0-1.3.6 0 1.1.5 1.1 1 0 .7.6.7 1.8.1 2-1 4-1 6 .3.8.5 2.3-.4 4.2-2.5 2.7-3.2 3-4.9.9-4.9-.6 0-.7.5-.4 1 .3.5.2 1-.3 1-1.2 0-2.6-3-2.3-4.8.3-1.8-1.6-1.4-2.4.5-.7 1.7-.8 1.6-1.5-.2-.5-1.1-.9-1.4-1-.8 0 .7-.7 1.3-1.5 1.3-1.6 0-2 1.6-.6 2.4.7.5.4 4.6-.4 4.6l-3.3-1.6c-2.8-1.3-3-1.8-2.1-3.6.6-1 1-2 .7-2.1l-2.5-1.4c-1.7-1-2.4-1-3.2 0m10.3 13.2c.2.7-.3 1.6-1.2 2-1.4.5-1.4.7-.2 1.5 1.3.8 1.3 1 0 1-1 0-.6.8 1 2.5 1.3 1.4 2 2.8 1.5 3.2-.4.5-1 .2-1.2-.5-.7-1.9-3.3.5-3.3 3 0 1.5-.5 1.9-2 1.5a5 5 0 0 0-3.7.8c-1 .7-2.3 1-3 .8-2-.8-2.4 1.6-.3 2.7 2.2 1.2 4 .6 4-1.3 0-.8 1.3-1.2 3.5-1.2 2 .1 3.5-.3 3.5-1 0-.5 1.5-1.9 3.4-2.9 2-1 3.7-2.5 4-3.2.8-2-1.4-6.4-3.2-6.4-1.1 0-1.2-.3-.3-1.4.9-1 .7-1.5-1-1.9-1.4-.4-2-.2-1.5.8m1183.3 40.2c-2.1.6-2.2 2 0 3.1 1.7 1 1.4 1.4-3.2 3.8-2 1-2.2 2.5-1 7.8l.8 2.9-2.3-2.3c-1.7-1.7-2.5-2-2.8-1-.6 1.6 3.7 5 5.5 4.3.7-.3 1-1.4.8-2.7-2-8.4-2-8 .4-7.3 1.7.4 2.4 0 3.1-2 .6-1.3 2-2.8 3.2-3.3 1.3-.5 1.7-.9 1-1-.7 0-1-.5-.7-1 .4-.6 1.2-.4 2.2.5 1.4 1.5 1.4 1.7-.3 3-1 .7-2.2 1.1-2.6.9-.5-.3-.8.2-.8 1 0 .9.4 1.6.9 1.6s.8.7.7 1.6c0 1 .5 1.9 1.3 2.2.9.3 1.1 0 .6-.8-.4-.7-.2-1.6.6-2.1 1-.7 1-.9-.5-.9-1.6 0-1.6-.2-.5-1.6 1.1-1.4 1.4-1.3 3 .7 1.1 1.5 2.3 2 3.8 1.6 2.5-.6 2.7.5.4 2.8-1.3 1.4-1.4 1.8-.3 2.5 1.8 1.1 5-.6 5-2.8.1-1 .4-1.2.7-.5.2.7 1.3 1.3 2.4 1.3 1.7 0 2.6-2.8 2-6.4-.1-.5.5-.6 1.3-.3s2.2-.4 3.3-1.5c1.8-2 1.8-2-.7-1.3-1.4.5-3.3.8-4.2.7-1 0-2 .9-2.4 2-.3 1.1-1 1.7-1.3 1.2-.8-1.2-6.1-1.5-6.1-.3 0 .4-.7.6-1.6.2-1-.4-1.2-.9-.5-1.6.7-.7.3-1.8-1.2-3.3-2.1-2.3-5.6-2.9-10-1.7m-35.5 10c-.6.2-1.2 1-1.2 1.5 0 .6-.7 1.6-1.7 2.3-1 .7-1.3 1.7-.8 2.5.6 1 1 1 1.5 0 .5-.8.9-.7 1.3.4.3.8.2 1.8-.3 2.1-.6.4-1 1.5-1 2.6 0 1.3-.7 1.9-2.3 2-2 0-2.2.4-2.5 6.4-.1 3.9.2 6.5.8 6.5.6 0 .5 1-.2 2.6-1 2.3-1 2.8.7 4 1 .8 1.3 1.4.6 1.4-1.2 0-4.1 2.4-4.1 3.3 0 .8 4.4-.6 5.6-1.7.8-.8.8-1.5 0-2.9-.9-1.4-.7-2 .7-2.8 1.5-.9 1.6-1.3.6-2.5-2.4-2.9.4-4 6.8-2.6 4.1.8 6 .9 7 0 2-1.7 1.5-2.6-1.5-2.2-1.5.2-2.2.1-1.5-.2 1-.4 1-.8 0-1.9-.7-.7-1.5-1-2-.8-.4.2-.7-.1-.7-.7 0-.7-.7-1-1.5-.6-1 .3-1.5 0-1.5-1 0-1.3.5-1.5 3.8-1.8.7 0 1.7-.8 2.2-1.6.9-1.3 1-1.3 1 0 0 1.2.3 1 1.1-.3 1-1.7 1.2-1.7 3.1.5l2 2.3-.4-3c-.4-2.8-.2-3.1 1.9-2.7 1.3.2 2.3 0 2.3-.6s-1-.8-2.3-.5c-1.8.4-2 .3-.7-.7 1-.8 1.2-1.3.3-1.6-.9-.4-1-1.3-.2-3.1.5-1.4.7-2.8.4-3.1-1.1-1.1-2.6 1.6-2.7 5-.1 3.6-4.9 7-6.4 4.6-.3-.5-1.4-.8-2.3-.5-1.2.3-2.1-.5-3-2.4-.7-1.6-2-3-3-3-1.3 0-1.4 0-.2-.8 1.1-.7 2.8-5.3 1.8-5l-1.5.6m42.8 80c0 .3.8 1.2 1.7 1.9 2.4 1.7 1.3 2.5-3.6 2.8-4.8.2-5.7.9-3.6 2.6.8.7 1.5 2.4 1.5 3.7 0 2.1-.2 2.3-1.5 1.3-.8-.7-1.2-1.7-.9-2.2.7-1.1-3-5-4-4-.3.3-.6 1.4-.6 2.5 0 1.3-.5 1.7-1.6 1.3-.9-.3-2.4-.6-3.5-.6-1 0-1.9-.7-1.9-1.5 0-1-1-1.5-3.3-1.6-1.7 0-4.3-.1-5.7-.3-2.5-.1-2.6 0-2.4 4.7.1 4.4 1.3 7.8 1.5 4.6.5-6 3.1-9 4.2-4.7.7 2.6 0 3.8-1.2 2-.6-1-1-.6-1.3 1.2-.4 1.8 0 2.6.8 2.6s1.4-.4 1.4-1c0-.4 1-1.1 2.3-1.5 1.2-.3 3.2-1.1 4.5-1.8 1.8-.8 2.5-.8 3.1.1.4.7 1.5 1 2.4.6 1-.3 1.4-1 1.1-1.5-.3-.5 0-.9.5-.9 1.5 0 2.4 2 1 2-.8.1-.5.5.6 1 1.9.7 1.8.8-.6 1.5-4 1-2.7 5.2 1.7 6 1 .1 1.8.7 1.7 1.1 0 .5.5 1.5 1.3 2.2 1.5 1.3 2-.8 1.4-6.6a6 6 0 0 1 1-3.8c.9-1 1-1.4.1-1.4-2.4 0-.9-1.8 2.2-2.5 2.8-.6 3-.8 1.2-1.5-1.6-.7-1.7-.9-.3-1 .9 0 1.9-.6 2.1-1.3.3-.7.6-.5.6.5s.4 1.7.8 1.7c2-.3 2.7.2 1.3 1-.8.6-1 1.3-.7 1.8.5.4 1.2.2 1.6-.5.6-1 1-1 2 .3 1.1 1.2 1 1.5-.3 1.5-.9 0-1.6.7-1.6 1.6 0 .8.5 1.2 1 .9.5-.3 1 .2 1 1.1 0 1 .8 2.6 1.7 3.6 1.6 1.8 1.6 2 0 4.8-1.7 2.8-.6 10 1.1 7.4.4-.6 1.7-1.4 3-1.8 1.2-.4 2.2-1.4 2.2-2.2 0-.8.5-1.4 1-1.4.6 0 .8-.5.4-1.2-.5-.7-.3-.8.6-.3 1.1.7 3-1 3-2.8 0-1.5-1.9-.6-2.3 1-.4 1.7-.5 1.7-.6 0-.1-2.2-1.7-2.2-2.5 0-.6 1.5-.8 1.5-1.6.3-.6-1-.4-2 .7-3.2 1.5-1.7 1.4-1.8-1.5-1.8-3.9 0-4.8-1.4-2.8-4.2 1.9-2.6 2.1-5.2.4-4.2-.7.4-.8.3-.4-.4s.2-1.2-.4-1.2c-1.7 0-6.5-4-4.9-4 1 0 .9-.4-.3-1-1-.6-1.8-1.7-1.8-2.3 0-.7-.9-1.3-2-1.4-1.1-.1-2 0-2 .4m-16 15.2c-.7.5-1.3 2.4-1.3 4.1v3.2l-1.8-2.3c-1.7-2.3-1.8-2.3-3.2-.5-1 1.3-2.1 1.7-3.5 1.3-1.5-.3-2.2 0-2.2 1 0 .8.4 1.2 1 .8 1.6-1 2.2 1.5.6 3-1.5 1.5-1.6 1.5-1.6 0 0-.9-.5-1.3-1-1-.5.3-1-.2-1-1.3 0-1.4-.7-2-3-2h-3l2.4 2.1c1.2 1.2 2.1 2.7 2 3.3-.8 2.1 2.7 2.4 5.3.5a7.3 7.3 0 0 1 5.6-1.6c1.8.2 3.5-.1 3.9-.8.5-.7.8-.3.8 1.2 0 2 .2 2.2 1.7 1 1.5-1.2 1.6-1.2 1 .4-.4 1-.7 2.5-.7 3.3 0 .8-.4 1.4-1 1.4-.5 0-.7-.6-.5-1.3.3-.6-.4-1.8-1.5-2.5-1.7-1-2-1-2 .3 0 .8.5 1.5 1.2 1.5 1.7 0 .3 1.1-1.9 1.4-1.2.2-1.8 1.1-1.7 2.7.1 2.5-1.4 4.2-2.8 3.3-.5-.3-.6-1.4-.3-2.5.8-2.3-.7-2.5-2.5-.4-.7.8-2 1.5-2.8 1.5-1.2 0-1.3.3-.4 1.2 1.8 1.8 1.4 3-.8 2.3-1.1-.4-2-.2-2 .4 0 1 1.4 1.5 3.3 1.2.4 0 .7 1.3.7 3 0 1.8-.5 3-1.3 2.8-2.4-.3-4.7.1-4.7.9 0 1.1 6.1 3.2 9.5 3.2h2.8l-2.2-2.4c-2.1-2.3-2.1-2.4-.2-2.9 1-.2 2.3-.1 2.8.3 1 1.1 8.3 2.4 8.3 1.5 0-2.7-2.2-4.3-5.6-4-2.6.2-3.4 0-3-1 .3-.8-.3-1.5-1.2-1.7-1.2-.2-1-.7 1.1-2 2.2-1.5 2.7-1.6 2.7-.4 0 1 .8 1.3 2.3 1 1.2-.2 1.6-.2 1 .2-2 .9-1.5 2.1.9 2.7 2.5.7 7.3-1.5 8.2-3.8.4-1 1.4-1.4 3.3-1 2.1.4 2.3.3.9-.3-2-.8-1.9-.9.2-1.4 1.3-.4 2.1-1.2 2-2-.2-.7.7-1.4 2-1.6 1.2-.2 2.2-.7 2.2-1.2s-.6-.7-1.4-.4c-.8.3-1.6-.4-2-2-.5-2.1-4.6-4.5-4.6-2.6 0 .4-1.1 1-2.5 1.2-1.7.4-2.5 0-2.5-.9 0-.8.5-1.1 1-.8.5.3 1-.4 1-1.5 0-1.6-.5-2-1.5-1.6-.8.3-1.5 0-1.5-.5 0-.6-.5-.7-1.2-.3-.7.4-.8.3-.4-.4s.2-1.2-.3-1.2c-.6 0-1.1.5-1.1 1.1 0 .8-.5.7-1.5-.1-2-1.6-.1-3.2 2.4-2.2 1.3.5 1.4.3.5-.9-.6-.8-1.3-2-1.5-2.6-.3-.8-1-1-1.8-.4M660.3 1476.3c-.4.7-.6 2.5-.4 4 .2 2-.1 2.7-.8 2.3-.7-.5-.9 0-.5 1.1.5 1.5.4 1.5-.5.3-.9-1.3-1.2-1.2-2.5.5s-1.3 2 0 2.3c.8.2 1.4 1.1 1.5 2 0 1 .2 1.2.6.5.2-.7 1.7-1.3 3.2-1.3 1.5 0 3.3-.6 4-1.3 1-1 1.4-1 1.8 0 .7 1.8 2.3 1.6 2.3-.3 0-.8-.5-1.2-1-.9-.5.3-1 .1-1-.4 0-.6.6-1.1 1.3-1.1.6 0 .4-.5-.5-1-1-.6-1.8-2.1-1.8-3.4 0-2.7-4.4-5.3-5.7-3.3m50.8 9.1a9.4 9.4 0 0 0 2.4 4.2c1.3 1 1.3 1.3.3 1.7-1.7.6.3 4.2 2.3 4.2 1.9 0 3.9 1.4 3.9 2.6 0 .6-.5.7-1 .4-.6-.3-1.7.1-2.6 1-1.5 1.5-1.5 1.7.5 2.2 2.4.6 2.6 1.4.9 3.1-1 1-.8 1.2.5 1.2 1 0 1.7.5 1.7 1 0 .6.4.9.9.6.5-.3 1 .8 1.3 2.5.4 2.3.1 2.9-1 2.4-1-.3-1.2 0-.9 1 .4.8.2 1.7-.3 2-.6.4-1 1-1 1.6 0 .6.5.7 1.2.3.8-.5 1-.2.5 1-.4.9-.2 1.6.3 1.6.6 0 1-.6 1-1.4 0-.8 1.4-2.4 3-3.6 2.7-2 3.5-1.9 3.1.3 0 .4.8.7 1.9.7 1.1 0 2-.7 2-1.6 0-.9-.5-1.2-1.1-.8-.7.4-1 .1-.7-.7.3-.8 1.3-1.2 2.3-1 1.6.2 1.7 0 .6-1.3-.9-1-1-1.6-.3-1.6 1.2 0 3.2 3.1 3.2 5 0 .6-.4.9-1 .5-.4-.3-1.1 0-1.5.5-.3.5.2 1 1.3 1 1.5 0 1.8.5 1.5 2.4-.5 2.5 2.5 4.5 4.7 3.1.5-.3 1 0 1 .7 0 1 .3.9 1-.2 1-1.2 1-1.1.8.5-.3 1.3-1 1.9-2.3 1.7-1.6-.3-1.7-.1-.6 1.1.8 1 .9 1.7.1 2.2-.5.3-1 0-1-.8 0-1-.8-1.3-2.5-1-2 .4-2.4 1-2.1 2.7.2 1.2-.2 3-1 4-1.3 1.8-1.4 1.8-1.4.2 0-1-.4-1.5-1-1.1-.4.3-1.1.1-1.4-.4-.4-.5-.2-1.2.3-1.5 1.3-.9.2-4.3-1.4-4.3-.8 0-2 1.3-2.6 2.8-.6 1.6-2 3.1-3 3.4-2.2.7-2.5 2.1-.6 2.8 1 .3 1 .7 0 1.9-.7.8-1 1.8-.6 2.1.3.4.1.7-.5.7-.7 0-1.2-.8-1.2-1.8 0-2.4-2-4.2-4.5-4.1-2 0-2 0 .1.9 2.4 1 4 4.3 2.5 4.8-.6.2-1.1 1.1-1.2 2 0 1.4-.3 1.2-1.6-.5-2-2.8-2.9-3-2.9-.3 0 1.1.6 2 1.3 2 .8 0 1.3 1.2 1.3 3 0 3.1 2 5.3 2.1 2.3 0-1 .2-2.3.4-2.8l.3-2.1c.1-.7 1-1.4 2-1.8l3-1.2c.7-.3 1.2.2 1.3 1.3 0 1.7 0 1.7.8-.1.6-1.6.8-1.7 1.4-.4.3.9 0 2.5-.8 3.6-.8 1-1.1 2.2-.8 2.6.4.3 0 1.7-.7 3-1.3 2.6-4 2.5-4 0 0-.9-.4-1.3-.9-1-1.3.8 0 5.6 1.4 5.6 2.2 0 2.6 2.9.5 4-2.7 1.4-2.5 3.2.2 2.8 1.9-.3 2.7-1.7 3-5.5 0-.7.5-1.3 1-1.3.4 0 .5-.6.2-1.4-.7-1.8 3.8-2.7 5.9-1.1 1.4 1 1.4 1.2-.2 2.2-1.4.9-2.1.9-3 0-.8-.8-1.1-.8-1.1.1 0 .7.6 1.2 1.3 1.2.8 0 .7.4-.3 1-.8.5-1 1-.5 1s.4.4-.3.8c-1.3.9-.7 4.2.8 4.2.4 0 1.8-.8 3.1-1.9 2.2-1.7 2.4-1.7 3.6-.2 1.1 1.4 1.2 1.4 1.3-.6 0-2.4-2.1-4.4-2.8-2.5-.2.7-1.3 1.2-2.4 1.2-2 0-2 0 .3-2.3 2.1-2 2.6-2.2 3.6-.8 1.2 1.3 1.3 1.3 1.3-.2v-2.4c0-.4-.6-.8-1.5-.9-2.8-.4-7.5-6.3-6-7.6 1.3-1.3.9-5.1-.5-4.3-.5.3-1.1 0-1.5-.5-.3-.5-.1-1 .4-1 .6 0 1.1-1.1 1.1-2.5s.4-2.5.9-2.5c.4 0 .6 1.2.3 2.6-.3 1.8-.1 2.5.6 2 .5-.3 2-.2 3.4.3 1.2.6 1.7 1 1 1s-1 .6-.7 1.1c.4.6 1.1.7 1.7.4.7-.4.8-.2.4.4-.4.7 0 1.2.9 1.2s1.4.4 1.1.8c-.2.4 0 1.4.5 2.2.6 1.1.9 1.2.9.2 0-.7.5-1 1-.7.5.3 1 0 1-.9 0-.8-.4-1.6-.9-1.8-.5-.1-.3-.9.5-1.6 1.2-1 1.4-1 1.5.3.4 5.1.1 6.5-1.6 6.5-.8 0-1.5.5-1.5 1 0 .6.5.8 1.2.4.7-.5.8-.3.3.6-.5.8-.4 1 .3.6.6-.3 1.4-.1 1.7.5.5.7 1.2.4 2-.9 1.5-2.1 1-9.2-.6-10.3-.7-.4-.5-1.2.6-2.2.8-.9 1.5-2 1.5-2.2-.1-.4.1-1 .4-1.3.3-.3.6.3.6 1.2 0 1 .6 1.6 1.3 1.3.6-.2 1.2-1.8 1.2-3.5 0-1.9.4-3.2 1.1-3.2.7 0 2-.3 2.8-.6.9-.3 1.6-.2 1.6.4 0 .5-1 1.2-2.3 1.6l-2.2.6 2.5 1.3c4 2.2 8.3-1.7 5.9-5.4-.7-1.1-.9-1-.9.3 0 1-.5 1.8-1 1.8-1.3 0-1.3-1.3 0-2.5 1.1-1.2-4.1-7.3-5.8-6.7-.7.2-1-.2-.6-1.1.4-1.3-4.8-7.7-6.2-7.7-.8 0-3.3 7.3-2.8 8.1.3.5 0 .9-.5.9s-1.8.3-2.8.7c-1.6.6-1.6.5-.4-1 .9-1.1 1-1.7.2-1.7-.6 0-1.1-.5-1.1-1.2 0-.6.3-.8.6-.5.4.4 1.6-.3 2.6-1.5 1-1.3 1.5-2.4.9-2.6-.6-.2-.8-1.6-.5-3.1.4-1.6.1-3.2-.5-3.5-.6-.4-1.1-.2-1.1.3 0 .6-.7 1.1-1.5 1.1-1 0-1.4-.7-1.1-2.3.4-2.3-4.8-9.6-6-8.4-.4.4.1 1.6 1 2.7 1 1.1 1.4 2 .8 2-.6 0-1.2 1.2-1.4 2.7-.2 1.4-1 2.9-1.7 3.1-1 .3-1.2 0-.8-1.2.5-1.3.2-1.5-1.8-1-1.6.4-2.5.2-2.5-.5 0-.8-.5-.9-1.9-.2-2.3 1.3-3.3.4-2.1-1.8.5-.9 1.4-3.7 2-6.4 1-3.9 1.5-4.5 2.7-3.6.7.7 1.6 1 2 .6.6-.7-2-3.7-3.3-3.7-.4 0-1.6-.7-2.6-1.7-1.7-1.5-1.8-1.4-1.8 1.8 0 2.9-.3 3.2-1.3 1.8a7.2 7.2 0 0 0-2.7-2.1c-1-.4-.7-.9 1.3-1.8 1.9-1 2.4-1.6 1.5-2.1-.7-.4-2 0-3 1.3l-1.8 2.1v-2.7c0-1.6.4-2.5 1-2.1.5.3 1 .2 1-.4 0-.5-1.3-1-2.9-.9-2.7 0-2.8.3-2 3.2m-33.6 4.6c-1.5 1.7-1.6 2.3-.6 3 1 .5 1 1 .1 1.5-.6.4-2 0-2.9-.9-2-1.8-3.6-2.1-2.6-.6.4.6-.5 1-2 1-2.2 0-2.5-.3-2-2.1.5-1.5.3-2-.6-1.7-.8.3-1.5 1.7-1.7 3.1-.2 1.5-1 2.7-1.8 2.7-1.6 0-1.8.9-.5 2.8.6 1 1 .8 1.6-1 .6-2.2.7-2.1 1.5 1 1.1 4.7 2.4 5.7 7 5.3 3.4-.2 3.9 0 3.3 1.5-.7 1.9.7 1.4 4-1.4 1.3-1.1 2-1.3 2.9-.4.8.8 1.5.7 2.5-.4 1.8-1.7 3.4-1.8 3.2-.2-.3 2.5.1 3.8 1.2 3.8.7 0 1-1.2.7-3-.3-1.6 0-3.2.6-3.5.6-.2-.5-.2-2.4 0-3.2.5-3.3.5-1.7-.9 1.4-1 1.5-1.5.5-2-.7-.3-.3-.4 1-.2 1.4.3 2.2 0 2.2-1 0-.8 1-1.4 2.3-1.5 2.1 0 2.1 0 .2-.9-3-1.3-3.5-1.2-3.5.6 0 1-.6 1.4-2 .9-1.4-.5-2-.2-2 1 0 .8-.5 1.5-1.1 1.5-.7 0-.8-.7-.4-1.8.4-1 1-2.6 1.2-3.7.4-1.9.4-1.9-1-.2s-1.6 1.6-3.4-1.3l-2-3-1.8 2m38 21.6c.2.8-.2 1.4-1 1.4s-1.5.4-1.5 1c0 .4-.9.6-2 .3-2-.5-4.8 3.8-2.9 4.5.5.2.7.7.4 1.2-.3.4.3 1.4 1.2 2.1 1.3 1.1 1.7 1.1 2 .2.3-.7 1-1.3 1.4-1.3.6 0 .8.4.5.9-.8 1.2 2.7 4.9 4.1 4.4.7-.3 1.3-1.4 1.4-2.6 0-2.1 0-2.1.9-.2.8 2 .9 2 1 0 0-3.2-1-3.6-3.3-1.5-1.1 1.1-2.3 1.7-2.6 1.4-.3-.3.4-1.4 1.6-2.4 2.4-2 1-3.6-2.2-2.4-1.1.5-1.3.2-.9-1 .4-1.1 1.3-1.5 2.6-1 1.4.4 1.8.3 1.3-.6-.4-.6 0-2 1-3 1.5-1.6 1.4-1.8-1-2.2-2-.4-2.5-.2-2 .8m12.8 59.4c-.4 1.6-.8 1.8-2 .9-1-.8-1.3-.8-1.3 0 0 .6-1 1.1-2 1.1-1.2 0-1.8-.5-1.5-1 .3-.5.1-1-.4-1-.6 0-1.1.7-1.1 1.6 0 2.9-2.1 5.8-3 4.3-.7-1-1-.8-1 .9 0 2.7 2.8 4.1 4 2.1 1.3-2 1.3.3 0 3.5-.6 1.7-.6 2.6 0 2.6s1-.7 1-1.5c0-1.8 2.6-2 3.6-.4.4.8 1.3.4 2.5-1.2 1-1.3 2.1-2 2.5-1.6.4.4.2 1.3-.4 2-1.8 1.7-1.4 4.4.5 4.4 1 0 2.6-.9 3.5-2 1-1 2.1-1.6 2.6-1.3.6.3 1.3-.1 1.6-1 .8-2.2.8-2.6-.4-1.9-.5.3-1 .1-1-.5s-1-.8-2.5-.4c-2.1.5-2.5.3-2.6-1.7-.1-1.8-.2-2-.6-.6-.4 1.7-.6 1.7-2.9.2s-2.4-1.4-2.4.5c0 1-.5 2-1 2-.6 0-1-.6-1-1.3.5-3-.1-4.2-1-2.2-.8 2-.9 2-1 0 0-3.2.8-3.5 4.5-2 4.4 1.9 4.3 2 3.7-1-.2-1.4.1-3.2.8-4 1-1.2 1-1.5 0-1.5-.6 0-1.4 1-1.7 2m-60.3 15c-1.7 3.2-1.3 4.8 1.4 5.3 1.4.3 2.5.1 2.5-.3 0-.5.5-.9 1-.9s1 .7 1 1.6c0 1.1.6 1.4 2.1.9 1.9-.6 2.1-.4 1.6 1.7-.5 1.9-.2 2.4 1.4 2.5 1.4.1 1.9-.3 1.5-1.3-.3-.8-.1-1.4.4-1.4.6 0 1 .9 1 2 0 2.5 1.2 2.6 2.7 0 2-3 .7-4.7-2.8-4.2-2.8.4-3 .3-2.1-1.4.7-1.4.7-2.4-.3-3.7-1.8-2.5-3.5-2-3.5.9 0 1.4-.4 2.3-1 1.9-.6-.4-.8-1-.6-1.4.7-1.1-.7-2.8-3-3.5-1.7-.5-2.6-.2-3.3 1.3m-8.7 23.8c-1.2 1.3-1.9 1.4-2.2.5-.7-2.2-3.8-1.3-6 1.8-2.8 3.7-2.8 4 .3 4 2.4 0 3-.9 2.6-3.8-.2-1.5.6-1.5 2.3 0 1 1 .8 1.8-1.5 4.3-1.6 1.6-2.4 3.2-1.9 3.3.6.2.8.8.4 1.3-.3.5.2.9 1.1.9.9 0 1.3-.5 1-1-.5-.7 0-1 1.1-1 2.8.4 9.4-1 9.4-2.1 0-.5-.6-.9-1.3-.9-.8 0-1.9-1.1-2.5-2.5-1.5-3.2-1.5-3.8-.2-3 .5.3 1 0 1-.9 0-2.4-1.7-2.8-3.6-.9m0 29.8c.2.5 1 1 2 .9 1-.1 1.6.6 1.6 1.7 0 1.3-.7 1.9-2.3 1.9-1.8 0-2.3.6-2.5 2.8l-.1 2.7 2-2.4 1.9-2.3v2.4c0 1.3.5 3 1.2 3.6.9.9.9 1.2 0 1.2-.6 0-.9.7-.6 1.5.4.8.1 1.5-.5 1.5s-1.1-.7-1.1-1.5-.6-1.5-1.4-1.5c-.9 0-1.2.8-.8 2.6.3 1.7 1 2.3 1.9 2 .8-.3 1.1-.1.8.4-.4.6 0 .7 1 .3 1.5-.5 1.6-.3.6 1.5-1.5 2.8-1.4 3.7.3 2.3.8-.7 1.6-2.2 1.8-3.4.2-1.2 1-2 1.7-2 .8.3 1.1-.2.8-1.2-.4-1 0-1.5.8-1.5s1.5-.3 1.5-.8l.6-2.8c.5-2 .2-2.1-2.5-1.8-3 .3-4.4-1-2-1.8 2.2-.7-2.1-7.6-4.7-7.4-1.3 0-2.2.5-2 1.1m-4.2 89c-2 5.3-.2 10.1 2.6 7.3 3-3 8.5-.1 6 3-1.4 1.6-.3 2.7 3.5 3.6 1.7.4 2.7.2 2.7-.5 0-.8.4-.8 1.5 0 .8.8 1.2 1.7 1 2.2-1 1.4.5 1 2.1-.6 1.3-1.3 1.3-1.5 0-1.5-.7 0-1.6-1-2-2.3-.5-1.7-.8-2-1.5-.8-.8 1.2-1.2 1.2-2.5-.2-1-1-1.2-1.8-.6-2.2 1.9-1.2 1.2-5.8-.8-5-5.8 2.3-10.6 1.3-10-2 .8-4-.7-4.7-2-1m76.3 150.3c2.6 6 2 6.7-4.2 6.6a22 22 0 0 1-8-1.2c-1.7-1-2.2-.8-3.2 1.5-.9 1.9-1.5 2.3-2 1.5-1-1.6-3.3-.7-4.8 1.7-1 1.6-1 2.2.3 3.2s1.5 1 1.4-.2c-.5-3.4.1-4.3 1.4-2 1.1 2 1.4 2.1 2 .6.3-1 1.2-1.5 2-1.1.9.3 1.8.1 2-.3 1.1-1.8 8.1-.7 7.8 1.1-.2 1.2.2 1.6 1.3 1.2.8-.3 1.5-1.5 1.5-2.6 0-1.6.5-2 2.5-1.6 1.8.4 2.5 0 2.5-1 0-1.4.2-1.4.9-.3 1.5 2.3 2-.4.6-3-.8-1.3-1.8-3.2-2.1-4.2-.3-1-1-1.7-1.6-1.7-.6 0-.7.8-.3 1.8m-15.5 13.4c0 .4.5 1 1.1 1.4.8.4.7 1-.2 1.6-1 .7-.7.8 1 .5 2-.5 2.2-.3 1.6 2-.5 2.3-.4 2.5.9 1.4.8-.7 2-1 2.7-.5.8.4 1 .3.5-.4-.5-.8-.2-1 .8-.6.9.3 1.6.8 1.6 1 0 1-5 5-5.6 4.5-.4-.3-.4.8 0 2.5.4 2.8.3 3.1-1.4 2.7-1.1-.3-2 0-2 .6s.9 1.1 2 1.1 2 .7 2 1.5c0 2-.7 1.9-2.7 0-1.8-1.9-3-1.1-1.4.8.8 1 .7 2-.8 3.6-1.4 1.5-2 1.8-2.4.9-1-2.8-2.7.7-1.8 3.7.8 3.2.5 5.5-1 5.5-.4 0-1-.8-1.2-1.8-.4-1.6-.5-1.6-.6.1 0 1-.6 1.5-1.1 1.2-.5-.3-1 .1-1 1 0 1.4.6 1.6 2.7 1 2.3-.5 2.5-.4 1.4 1-.9 1-1 1.5-.3 1.5 1.4 0 7.2-5.6 7.2-7 0-2.7 3.8-.6 5.8 3.3 1.3 2.3 2 3.2 1.8 2-.2-1.2.2-3 1-4 1.3-1.7 1.3-1.7 1.4 0 0 1 .7 1.7 1.6 1.7 1 0 1.4-.6 1-1.4-.3-1 .1-1.4 1.5-1.3 1 0 1.9.4 1.9.7 0 .4.7.7 1.5.7.9 0 1.4-.6 1.1-1.3-.3-.7.2-1.8 1-2.4a5 5 0 0 0 1.4-3.4c0-1.6-.2-1.8-1-.7-.4.8-1.5 1.1-2.5.7-1-.4-1.5-.2-1.3.6.4 1.2-1.4 3.8-2.7 3.8-.3 0-.3-.9 0-2 .5-1.4.2-2-1-2-2 0-2-1.9 0-2.7 1.4-.5 1.3-.7-.2-1.9-1.2-.9-1.4-1.6-.8-2.1.6-.5 1-1.5 1-2.3l-.3-3.3c-.1-1-.6-1.7-1.1-1.7-.5 0-.7 1-.4 2.1.4 1.5.2 2-.7 1.7-1.6-.5-2.3-3.8-.8-3.8.6 0 .8-.7.4-1.5-.3-.9.2-2 1.3-2.7 2.3-1.4.6-3.8-2.1-3-1.6.4-2.3-.7-2-3 .3-1.3-2.3-1-3.7.5-1 1-1.2.8-.7-1 .6-1.8.3-2-1.9-2-1.4.1-2.5.5-2.5.9m10.5 40.7c-.3 1.2-1.2 2.1-1.8 2.1-.7 0-.6.4.3 1 .8.5 1 1.2.7 1.7-.5.4-1.2 0-1.7-.7-.8-1.2-1-1-1 .7 0 1.2.5 2.5 1 2.8 1.4.9 1.2 2.5-.3 2.5-.8 0-2-1-2.7-2.4-2-3.8-4.6-3.9-7.5-.3-2.3 3-2.3 3.3-.7 5 1 1 1.8 1.4 2 .8.5-1.5 3.2-1.4 3.2.2 0 .8.3.8.8.1 1-1.4 5.2-1.3 5.2.2 0 1.6 3.4 2.3 5.4 1.2 1.4-.8 2.1-.5 3.2 1.1.9 1.2 2.3 2.1 3.2 2.1 1.6 0 1.6.2 0 1.4-2.4 1.8-2.3 2.3.5 2l3-.3c.5 0 .7-.7.4-1.4-.3-.7.3-1.8 1.3-2.5 1.5-1 1.8-.7 2.2 1.9.3 1.6 0 2.9-.5 2.9s-.4.7.3 1.5 1 2.1.7 3c-.4.8-.2 1.7.3 2 .4.3 1 0 1.3-.7.2-.7.8-1 1.2-.5.5.4.3 1.3-.3 2-1.9 1.8-1.4 2.9.8 1.7 1.7-.9 2-.8 2 .7 0 1 .5 2.5 1 3.3.9 1.1 1 .7.5-1.8-.7-3.2.2-4.1 2.2-2.1.8.8 1.3.8 1.7 0 1.2-1.8 5-1.4 4.2.5l-.6 2c0 .2-.7 0-1.6-.3-1.5-.5-1.5-.3 0 2 2 3 2.8 3.4 2.5 1.5-.3-2.7 1.3-6 2.2-4.6.6.9.9 1 .9.1 0-.6-.7-1.8-1.5-2.7-.8-.8-1.5-1.7-1.5-2 0-1.9 3-.2 3 1.7.1 1.4.3 1.7.7.7l1.6-4c1-2.7 1.6-6 1-6-.8 0-3 2.5-3.6 4.3-.7 2-3.2 2.3-4.3.5-.5-.8-1.1-.6-2 .7-1.4 1.9-6.4 3-6.4 1.4 0-.5.7-.9 1.6-.9 1 0 1.3-.6 1-1.9-.4-1.2-.1-2 .9-2.4.8-.4 1.5-1.3 1.5-2.2 0-.8.5-1.5 1-1.5.6 0 .8-.5.5-1-.4-.6-1.1-.7-1.7-.4-.7.5-1 0-.6-1.3.7-2.6 0-3.8-3-4.7-1.5-.5-2.2-.4-2 .5.2.6-.3 1.4-1 1.6-.9.3-1-.2-.3-1.9.6-1.7.4-2.6-.8-3.5-1.5-1.1-1.5-1.2 0-1.3 1 0 2 .6 2.2 1.3.3.6.8-.3 1.2-2 .5-2 1.4-3.3 2.4-3.4 1 0 1.1-.2.4-.6-.7-.2-1.3-1.2-1.3-2.1 0-1-.8-.2-1.7 1.6-1.3 2.8-2 3.2-4 2.7s-2.4-.3-1.9 1.3c1 2.9-5 10.2-8 10-1.9-.2-2.4-.7-2-2 .5-2.1.2-2.2-2.6-.7-1.8 1-2 .8-1.3-1.3 1-3.2 1.5-3.5 2.5-1.8.8 1.3 1 1.2 1-.3 0-1.2-.8-1.7-2.5-1.7-3 0-3.2-1-.6-2.7 1.8-1.2 2.6-5.3 1-5.3-.4 0-1.4-.3-2.2-.6-1-.3-1.8.2-2.2 1.5m8 24.7c-.8 2.3 1.4 6.1 2.6 4.3.6-1 .8-.6.6 1.1-.2 3-1.4 4.5-4.6 5.5-1.8.5-2.2.4-1.6-.5.5-.9.4-1-.3-.6s-1.2 0-1.3-1l-.3-3.8c0-1-.8-2.1-1.6-2.4-1.3-.5-1.3-.3-.1 1.1 1.1 1.4 1 1.8-.5 2.3-2.8 1-5.4 4-5.3 6.1 0 1 .3 1.3.6.5.2-.6 1.3-1.2 2.3-1.2a4 4 0 0 0 3-1.8c.8-1.5 1-1.5 1 .5 0 1.3.5 2.3 1 2.3.6 0 .9.4.6 1-.8 1.2 1.1 1.7 4.6 1.2 2-.3 2.8-1 2.8-2.6 0-1.1.5-2.8 1-3.6.9-1.1 1-.7.5 1.7-.4 2-.2 3.4.6 3.9.9.5 1 .2.6-1-.3-.8 0-1.9.7-2.3 1.8-1 2.4-5.5.9-6-.7-.3-1.3 0-1.3.6 0 1.9-1.7 1.2-2.3-1a4 4 0 0 1 .9-3.3c1.9-2 1.8-2-1.5-2.3-1.8-.1-3.1.4-3.5 1.3m-82 537.7c-2.6 2-3 5.7-.5 5.7.5 0 .9.4.9 1s-1.1 1-2.5 1-2.5.4-2.5 1 .6 1 1.3 1c1.7 0 5 3.4 4 4.3-.3.4 0 1.3.7 2.2 1 1.2 1 1.5 0 1.5-.8 0-1 1-.7 3 .5 2.2.2 3-1 3.3-1.7.4-1.7.5 0 .6 1 0 2.6-.8 3.7-1.9 1.1-1.1 1.5-2 1-2-.7 0-1-1.2-.8-2.8.2-1.5.8-2.6 1.6-2.4 1 .2 1.2-1.4 1-5.8 0-3.3-.4-6-.8-6-.3 0-.5-1.3-.2-3 .5-3.7-1.1-4-5.1-.7" fill="#c62608" fill-rule="evenodd"/></svg>