<svg xmlns="http://www.w3.org/2000/svg" viewBox="0 0 2000 3000"><filter id="b"><feGaussianBlur stdDeviation="12" /></filter><path fill="#a05754" d="M0 0h1992v3000H0z"/><g filter="url(#b)" transform="translate(5.9 5.9) scale(11.71875)" fill-opacity=".5"><ellipse fill="#e8f4ff" cx="74" cy="42" rx="12" ry="215"/><ellipse fill="#8b0409" rx="1" ry="1" transform="matrix(-20.47145 155.61644 -49.84854 -6.5576 16.2 183.4)"/><ellipse fill="#faffff" rx="1" ry="1" transform="matrix(.8559 9.78604 -90.9206 7.95203 104.7 16.1)"/><ellipse fill="#eaffff" rx="1" ry="1" transform="matrix(4.4427 -133.92338 9.07219 .30096 167.1 120.8)"/><ellipse rx="1" ry="1" transform="matrix(-12.04786 -.39967 4.30995 -129.9217 100.9 223)"/><ellipse fill="#c40000" rx="1" ry="1" transform="matrix(-12.76183 -.64649 5.62963 -111.13058 144.7 185.7)"/><ellipse fill="#070527" rx="1" ry="1" transform="matrix(-18.55327 -2.34382 6.37694 -50.47872 36.9 209)"/><path fill="#dfe151" d="M125 215L104 69l41-8z"/></g></svg>