<svg xmlns="http://www.w3.org/2000/svg" viewBox="0 0 300 450"><g filter="url(#prefix__a)"><g stroke-linecap="round"><path fill="rgba(161,29,51,255)" stroke="rgba(161,29,51,255)" d="M300 0v450l-64-166L300 0"/><path fill="rgba(207,67,34,255)" stroke="rgba(207,67,34,255)" d="M0 450V0l104 217L0 450"/><path fill="rgba(74,41,76,255)" stroke="rgba(74,41,76,255)" d="M178 300 0 450l104-233 74 83"/><path fill="rgba(165,83,121,255)" stroke="rgba(165,83,121,255)" d="M104 217 0 0l184 158-80 59"/><path fill="rgba(106,43,49,255)" stroke="rgba(106,43,49,255)" d="m236 284-58 16 6-142 52 126"/><path fill="rgba(201,36,40,255)" stroke="rgba(201,36,40,255)" d="m178 300-74-83 80-59-6 142"/><path fill="rgba(211,216,224,255)" stroke="rgba(211,216,224,255)" d="M0 0h300l-64 67L0 0"/><path fill="rgba(138,75,117,255)" stroke="rgba(138,75,117,255)" d="M184 158 0 0l236 67-52 91"/><path fill="rgba(228,197,116,255)" stroke="rgba(228,197,116,255)" d="m300 0-64 284V67l64-67"/><path fill="rgba(224,180,145,255)" stroke="rgba(224,180,145,255)" d="m236 284-52-126 52-91v217"/><path fill="rgba(2,7,37,255)" stroke="rgba(2,7,37,255)" d="M300 450H0l229-82 71 82"/><path fill="rgba(176,186,198,255)" stroke="rgba(176,186,198,255)" d="m0 450 178-150 51 68L0 450"/><path fill="rgba(198,187,83,255)" stroke="rgba(198,187,83,255)" d="m178 300 58-16-7 84-51-68"/><path fill="rgba(182,1,14,255)" stroke="rgba(182,1,14,255)" d="m236 284 64 166-71-82 7-84"/></g><rect width="100%" height="100%" fill="#71af9a"/></g><filter id="prefix__a"><feGaussianBlur in="SourceGraphic" stdDeviation="12"/><feComponentTransfer><feFuncA tableValues="1 1" type="discrete"/></feComponentTransfer></filter></svg>