<svg xmlns="http://www.w3.org/2000/svg" width="1992" height="3000"><path fill="#a05753" d="M0 0h1992v3000H0z"/><g fill-opacity=".5"><path fill="#d7eeff" d="M966.8 2326.2l70.3-2226.6-597.6 58.6z"/><path fill="#5a000b" d="M-181.6 2877L755.9 486.3l-35.2 2695.3z"/><path fill="#000006" d="M1412.1 1939.5L1107.4 720.7l-70.3 2461z"/><path fill="#ebffff" d="M2173.8 1752l-316.4 1148.4L1869.1 662z"/><path fill="#f5ffff" d="M2045 205L462.8 334l1441.4-515.6z"/><path fill="#e91c00" d="M17.6 3005.9L5.9-181.6l515.6 1312.5z"/><path fill="#c50000" d="M1927.7 3181.6l-199.2-2156.2L1459 2537z"/><path fill="#c8ffff" d="M755.9 3181.6l70.3-1418 187.5 797z"/><path fill="#ecff64" d="M1259.8 732.4l339.8 738.3-164 925.8z"/><path fill="#ebffff" d="M2173.8 685.5l-293 574.3 58.7-1441.4z"/><path fill="#000018" d="M1353.5 779.3L884.8 462.9l1043-46.9z"/><path fill="#18000e" d="M1341.8 3181.6l-70.3-1957-339.9 1464.9z"/><path fill="#ebffff" d="M755.9 123l234.3 574.3-843.7-515.7z"/><path fill="#cbff9f" d="M709 837.9l562.5 211 890.6-340z"/><path fill="#8b2e5d" d="M345.7 322.3l457 1664L814.5 545z"/><path fill="#c8fa34" d="M1552.7 1857.4l-234.3 586 164 738.2z"/><path fill="#0f0a2a" d="M240.2 1916l504 93.8L334 3181.6z"/><path fill="#d33054" d="M779.3 2560.5l46.9-1617.1-339.9 539z"/><path fill="#007fce" d="M427.7 1095.7l422-140.6-375-82z"/><path fill="#d30503" d="M1435.5 966.8l445.4-35.2-47 1429.7z"/><path fill="#c1e8fe" d="M1927.7 3181.6l-46.8-1828 293 843.7z"/><path fill="#dff2ff" d="M1048.8 849.6l-82 867.2-281.3-1500z"/><path fill="#d0062e" d="M802.7-181.6L1892.6-6-158.2 205z"/><path fill="#9b071e" d="M1974.6 252L732.4 310.5l339.9 246.1z"/><path fill="#8e0004" d="M1587.9 1681.6l-105.5 1500 504-35.1z"/><path fill="#d7f2ff" d="M1283.2 287.1l750-257.8-1394.5 82z"/><path fill="#18545c" d="M1002 486.3l398.4 961-363.3-422z"/><path fill="#ed0014" d="M1072.3 2677.7l-140.7 339.9 47-785.2z"/><path fill="#d53e08" d="M474.6 462.9L88 2583.9-181.6 52.8z"/><path fill="#1f3476" d="M802.7 732.4l-351.5-46.9 70.3-328z"/><path fill="#670000" d="M252 2302.7l-328.2 879 832-328.2z"/><path fill="#d1ebfc" d="M1939.5-87.9l234.3 996.1-304.7 914z"/><path fill="#110019" d="M1271.5 3181.6l-339.9-70.3 422-984.3z"/><path fill="#bec339" d="M1541 2502l-257.8 668 105.5-1418z"/><path fill="#e2f1ff" d="M369.1 134.8L908.2 416 146.5 275.4z"/><path fill="#122433" d="M1400.4 334L966.8 638.7l914-58.6z"/><path fill="#afceeb" d="M955 2384.8l-304.6 726.5 257.8-46.8z"/><path fill="#4d2231" d="M1025.4 955l328.1 1148.5 23.5-750z"/><path fill="#d3000f" d="M1119.1 2033.2l-152.3 457 46.9-925.7z"/><path fill="#ffcc52" d="M1845.7 955l58.6-234.3-714.8 175.8z"/><path fill="#ab130a" d="M814.5 1482.4l-632.9-164L814.5 1002z"/><path fill="#c7e0e9" d="M966.8 2279.3l-164-515.6 199.2-527.4z"/><path fill="#dd103f" d="M779.3 2502l-93.8 609.3-152.3-632.8z"/><path fill="#dadf6e" d="M1541 1283.2L1201.2 873l328.1 1136.8z"/><path fill="#00cda4" d="M1177.7 837.9h-152.3l257.8 339.8z"/><path fill="#b6cfdf" d="M2173.8 3181.6l-328.1-574.2 11.7-691.4z"/><path fill="#862428" d="M216.8 2349.6L334 545l246 761.7z"/><path fill="#9b4b79" d="M755.9 1470.7L744 2443.4 404.3 1412z"/><path fill="#b61f0d" d="M1166 732.4l656.3-175.8 93.7 187.5z"/><path fill="#3f1b1e" d="M1576.2 1236.3l-23.5-281.2h-210.9z"/></g></svg>