<svg xmlns="http://www.w3.org/2000/svg" width="1992" height="3000"><path fill="#a05753" d="M0 0h1992v3000H0z"/><g fill-opacity=".5"><path fill="#d3deff" d="M439.5 146.5L931.6 2537 1084 64.5z"/><path fill="#63000a" d="M826.2 580l-70.3 2601.6-937.5-363.2z"/><path fill="#ecffff" d="M2173.8 1763.7L1892.6 650.4 1845.7 2830z"/><path fill="#000004" d="M1107.4 767.6l-46.9 2414 375-1113.2z"/><path fill="#f4ffff" d="M427.7 322.3l1464.9-504L2127 205.2z"/><path fill="#e91b00" d="M521.5 650.4l-703.1-832L52.7 3052.7z"/><path fill="#c50000" d="M1892.6 3181.6l-93.8-2156.2L1470.7 2502z"/><path fill="#e6ff59" d="M1623 1447.3L1236.3 791l199.2 1851.6z"/><path fill="#270016" d="M1974.6 498L884.8 275.4 1037 791z"/><path fill="#c4ffff" d="M955 2806.6l-246 375 117.2-1125z"/><path fill="#e2ffff" d="M2173.8 802.7L1916-181.6l-35 2003.9z"/><path fill="#f2ffff" d="M99.6 170l644.5-35.2 211 457z"/><path fill="#c9ffaf" d="M2103.5 767.6l-1207 339.8-175.8-328.1z"/><path fill="#392465" d="M779.3 638.7l-351.6 808.6 35.2-1125z"/><path fill="#000010" d="M990.2 3099.6l375 82-187.5-1464.8z"/><path fill="#0b0a2b" d="M732.4 2009.8l-492.2-105.5 117.2 1277.3z"/><path fill="#c72e51" d="M369.1 1107.4l457-82L779.4 2748z"/><path fill="#bbf1ff" d="M1986.3 3041L1834 2466.8l175.8-586z"/><path fill="#d50101" d="M1470.7 1002l351.6 1429.6 46.8-1500z"/><path fill="#badd26" d="M1564.5 2654.3L1365.2 1998l-82 1183.6z"/><path fill="#161f36" d="M1095.7 673.8l293 843.8-234.4 996z"/><path fill="#930002" d="M1587.9 1552.7L1494 3076.2l457-46.9z"/><path fill="#cd0025" d="M638.7-181.6L1787 5.9-52.7 193.4z"/><path fill="#e3f3ff" d="M931.6 1623L720.7 228.5l316.4 597.7z"/><path fill="#006db1" d="M310.5 920l386.8 152.3 117.2-175.8z"/><path fill="#f12034" d="M955 509.8L767.7 322.3l644.5-47z"/><path fill="#d5faff" d="M2080 5.9L1002 99.6l679.6 140.6z"/><path fill="#c9eaee" d="M791 1822.3l164 691.4 58.7-1382.8z"/><path fill="#610000" d="M732.4 2888.7l-843.7 187.5L287 2302.7z"/><path fill="#bf000d" d="M1095.7 2584l-93.7-515.6-105.5 1019.5z"/><path fill="#14222f" d="M1025.4 474.6l914-82-527.3 386.7z"/><path fill="#bd2300" d="M41 3181.6l468.8-2039-691.4 35.1z"/><path fill="#ddf2fc" d="M943.4 99.6L662 392.6l-503.9-129z"/><path fill="#00caa6" d="M1283.2 1177.7L978.5 779.3l187.5 35.2z"/><path fill="#fcd454" d="M1119.1 814.5l656.3 164 164-269.5z"/><path fill="#a8172f" d="M1037.1 755.9l140.6 457-175.7 562.5z"/><path fill="#d05a7e" d="M802.7 2244.1l11.8-714.8-304.7-117.2z"/><path fill="#cbca4a" d="M1494.1 2900.4l-152.3-703.1 211-445.3z"/><path fill="#c30815" d="M1916 216.8L1881 416l-703.2-93.7z"/><path fill="#d6eeff" d="M1904.3 1201.2l269.5-750-257.8-211z"/><path fill="#3e0815" d="M1377 1529.3l-82 1441.4-246.2-902.3z"/><path fill="#d5e8f5" d="M1611.3 240.2l-1089.8 82L955 99.7z"/><path fill="#422c62" d="M462.9 1377l-35.2 1195.3L791 2431.6z"/><path fill="#c5dae8" d="M1845.7 2326.2l328.1-246.1-269.5-1125z"/><path fill="#d8113e" d="M697.3 3181.6l93.7-656.2-246-35.2z"/><path fill="#d94815" d="M498 345.7l-679.6-105.5L99.6 2173.8z"/><path fill="#ba1404" d="M1869.1 533.2l-539 222.7 574.2-35.2z"/><path fill="#ac120a" d="M802.7 1505.9l-562.5-246.1 586-257.8z"/><path fill="#ca0015" d="M1013.7 1646.5l93.7 468.7-152.3 433.6z"/><path fill="#8d2836" d="M240.2 1845.7l445.3 129L345.7 498z"/></g></svg>