<svg xmlns="http://www.w3.org/2000/svg" viewBox="0 0 300 450"><filter id="prefix__a"><feGaussianBlur stdDeviation="12"/></filter><g filter="url(#prefix__a)"><g stroke-linecap="round"><path fill="rgba(214,216,225,255)" stroke="rgba(214,216,225,255)" d="M0 0h300L157 62 0 0"/><path fill="rgba(192,25,15,255)" stroke="rgba(192,25,15,255)" d="M300 0v450L147 311 300 0"/><path fill="rgba(210,199,95,255)" stroke="rgba(210,199,95,255)" d="M157 62 300 0 147 311l10-249"/><path fill="rgba(186,26,50,255)" stroke="rgba(186,26,50,255)" d="M300 450H0l147-139 153 139"/><path fill="rgba(223,69,33,255)" stroke="rgba(223,69,33,255)" d="M0 450V0l45 172L0 450"/><path fill="rgba(180,61,55,255)" stroke="rgba(180,61,55,255)" d="m0 0 157 62L45 172 0 0"/><path fill="rgba(38,16,53,255)" stroke="rgba(38,16,53,255)" d="M147 311 0 450l79-176 68 37"/><path fill="rgba(102,40,43,255)" stroke="rgba(102,40,43,255)" d="m0 450 45-278 34 102L0 450"/><path fill="rgba(153,64,96,255)" stroke="rgba(153,64,96,255)" d="m45 172 31 48 3 54-34-102"/><path fill="rgba(205,210,216,255)" stroke="rgba(205,210,216,255)" d="m157 62-10 249-55-81 65-168"/><path fill="rgba(152,40,44,255)" stroke="rgba(152,40,44,255)" d="m76 220-31-48 47 58-16-10"/><path fill="rgba(6,114,176,255)" stroke="rgba(6,114,176,255)" d="M45 172 157 62 92 230l-47-58"/><path fill="rgba(193,62,94,255)" stroke="rgba(193,62,94,255)" d="m147 311-68-37 13-44 55 81"/><path fill="rgba(128,46,84,255)" stroke="rgba(128,46,84,255)" d="m79 274-3-54 16 10-13 44"/></g></g></svg>