<svg xmlns="http://www.w3.org/2000/svg" viewBox="0 0 2000 3000"><filter id="b"><feGaussianBlur stdDeviation="12" /></filter><path fill="#a05754" d="M0 0h1992v3000H0z"/><g filter="url(#b)" transform="translate(5.9 5.9) scale(11.71875)" fill-opacity=".5"><ellipse fill="#edffff" cx="75" cy="42" rx="10" ry="212"/><path fill="#870000" d="M65 260.2l-70-2.5L1 85.8l70 2.5z"/><ellipse fill="#fcffff" rx="1" ry="1" transform="rotate(-95 60 -42) scale(9.71315 94.44408)"/><ellipse fill="#e8ffff" rx="1" ry="1" transform="rotate(91.2 23.6 143.7) scale(149.14018 8.97246)"/><ellipse rx="1" ry="1" transform="matrix(2.9961 -107.26235 12.65578 .3535 101.7 197.1)"/><ellipse fill="#c70000" cx="144" cy="190" rx="13" ry="113"/><ellipse fill="#f93300" rx="1" ry="1" transform="matrix(5.1382 -126.6629 24.66334 1.0005 0 126)"/><ellipse fill="#000218" rx="1" ry="1" transform="matrix(40.31067 -3.03333 .94323 12.53484 122.8 46.7)"/></g></svg>