<svg xmlns="http://www.w3.org/2000/svg" width="800" height="1200"><path fill="#ca433d" d="M0 0h100v100H0z"/><path fill="#c3757f" d="M100 0h100v100H100z"/><path fill="#cb86a1" d="M200 0h100v100H200z"/><path fill="#d38a9d" d="M300 0h100v100H300z"/><path fill="#d398a3" d="M400 0h100v100H400z"/><path fill="#c8a4b3" d="M500 0h100v100H500z"/><path fill="#d3b0bb" d="M600 0h100v100H600z"/><path fill="#d6bbc5" d="M700 0h100v100H700z"/><path fill="#d44e35" d="M0 100h100v100H0z"/><path fill="#c77c78" d="M100 100h100v100H100z"/><path fill="#c5cada" d="M200 100h100v100H200z"/><path fill="#d2a9b7" d="M300 100h100v100H300z"/><path fill="#a35361" d="M400 100h100v100H400z"/><path fill="#724759" d="M500 100h100v100H500z"/><path fill="#81323d" d="M600 100h100v100H600z"/><path fill="#ab6671" d="M700 100h100v100H700z"/><path fill="#dc461d" d="M0 200h100v100H0z"/><path fill="#ab2a22" d="M100 200h100v100H100z"/><path fill="#7a5785" d="M200 200h100v100H200z"/><path fill="#c8b4c6" d="M300 200h100v100H300z"/><path fill="#732f3c" d="M400 200h100v100H400z"/><path fill="#462a32" d="M500 200h100v100H500z"/><path fill="#75352a" d="M600 200h100v100H600z"/><path fill="#ad7675" d="M700 200h100v100H700z"/><path fill="#d6441d" d="M0 300h100v100H0z"/><path fill="#a3423f" d="M100 300h100v100H100z"/><path fill="#6b5d8d" d="M200 300h100v100H200z"/><path fill="#c0b0c0" d="M300 300h100v100H300z"/><path fill="#89a38a" d="M400 300h100v100H400z"/><path fill="#b7a360" d="M500 300h100v100H500z"/><path fill="#d9904b" d="M600 300h100v100H600z"/><path fill="#e2a187" d="M700 300h100v100H700z"/><path fill="#d8431c" d="M0 400h100v100H0z"/><path fill="#a5352f" d="M100 400h100v100H100z"/><path fill="#7a354c" d="M200 400h100v100H200z"/><path fill="#ca94a0" d="M300 400h100v100H300z"/><path fill="#747472" d="M400 400h100v100H400z"/><path fill="#9e9659" d="M500 400h100v100H500z"/><path fill="#b73024" d="M600 400h100v100H600z"/><path fill="#d37e83" d="M700 400h100v100H700z"/><path fill="#d83f17" d="M0 500h100v100H0z"/><path fill="#a52925" d="M100 500h100v100H100z"/><path fill="#aa222e" d="M200 500h100v100H200z"/><path fill="#d9959a" d="M300 500h100v100H300z"/><path fill="#75374b" d="M400 500h100v100H400z"/><path fill="#958851" d="M500 500h100v100H500z"/><path fill="#d3532d" d="M600 500h100v100H600z"/><path fill="#c9717e" d="M700 500h100v100H700z"/><path fill="#d63c13" d="M0 600h100v100H0z"/><path fill="#8d2934" d="M100 600h100v100H100z"/><path fill="#aa4365" d="M200 600h100v100H200z"/><path fill="#dc9ea7" d="M300 600h100v100H300z"/><path fill="#66263b" d="M400 600h100v100H400z"/><path fill="#877b4c" d="M500 600h100v100H500z"/><path fill="#d85428" d="M600 600h100v100H600z"/><path fill="#c46b7b" d="M700 600h100v100H700z"/><path fill="#ca310e" d="M0 700h100v100H0z"/><path fill="#7a222f" d="M100 700h100v100H100z"/><path fill="#9d3f62" d="M200 700h100v100H200z"/><path fill="#d49da9" d="M300 700h100v100H300z"/><path fill="#5e1a30" d="M400 700h100v100H400z"/><path fill="#867744" d="M500 700h100v100H500z"/><path fill="#d1461e" d="M600 700h100v100H600z"/><path fill="#c37181" d="M700 700h100v100H700z"/><path fill="#bc2b0b" d="M0 800h100v100H0z"/><path fill="#441f2b" d="M100 800h100v100H100z"/><path fill="#562d58" d="M200 800h100v100H200z"/><path fill="#bd8c9f" d="M300 800h100v100H300z"/><path fill="#58152d" d="M400 800h100v100H400z"/><path fill="#86743b" d="M500 800h100v100H500z"/><path fill="#c43717" d="M600 800h100v100H600z"/><path fill="#c07184" d="M700 800h100v100H700z"/><path fill="#af2008" d="M0 900h100v100H0z"/><path fill="#401728" d="M100 900h100v100H100z"/><path fill="#542d56" d="M200 900h100v100H200z"/><path fill="#b48195" d="M300 900h100v100H300z"/><path fill="#4b1128" d="M400 900h100v100H400z"/><path fill="#8c7334" d="M500 900h100v100H500z"/><path fill="#b72613" d="M600 900h100v100H600z"/><path fill="#bb6f85" d="M700 900h100v100H700z"/><path fill="#a60f09" d="M0 1000h100v100H0z"/><path fill="#500c18" d="M100 1000h100v100H100z"/><path fill="#9a2742" d="M200 1000h100v100H200z"/><path fill="#bf7a8e" d="M300 1000h100v100H300z"/><path fill="#431224" d="M400 1000h100v100H400z"/><path fill="#7f7330" d="M500 1000h100v100H500z"/><path fill="#9f190e" d="M600 1000h100v100H600z"/><path fill="#b6647a" d="M700 1000h100v100H700z"/><path fill="#8b070c" d="M0 1100h100v100H0z"/><path fill="#430611" d="M100 1100h100v100H100z"/><path fill="#911f32" d="M200 1100h100v100H200z"/><path fill="#b1768d" d="M300 1100h100v100H300z"/><path fill="#3b132d" d="M400 1100h100v100H400z"/><path fill="#7f7737" d="M500 1100h100v100H500z"/><path fill="#912e33" d="M600 1100h100v100H600z"/><path fill="#b53e58" d="M700 1100h100v100H700z"/></svg>