<svg xmlns="http://www.w3.org/2000/svg" viewBox="0 0 300 450"><filter id="prefix__a"><feGaussianBlur stdDeviation="12"/></filter><rect width="100%" height="100%" fill="#71af9a"/><g filter="url(#prefix__a)"><g stroke-linecap="round"><path fill="rgba(212,58,24,255)" stroke="rgba(212,58,24,255)" d="M0 450V0l66 248L0 450"/><path fill="rgba(190,47,28,255)" stroke="rgba(190,47,28,255)" d="M66 248 0 0l91 148-25 100"/><path fill="rgba(214,216,225,255)" stroke="rgba(214,216,225,255)" d="M0 0h300L164 95 0 0"/><path fill="rgba(66,61,117,255)" stroke="rgba(66,61,117,255)" d="M91 148 0 0l164 95-73 53"/><path fill="rgba(211,213,220,255)" stroke="rgba(211,213,220,255)" d="M300 0v450L284 66l16-66"/><path fill="rgba(201,63,52,255)" stroke="rgba(201,63,52,255)" d="M164 95 300 0l-16 66-120 29"/><path fill="rgba(90,5,32,255)" stroke="rgba(90,5,32,255)" d="M300 450H0l168-83 132 83"/><path fill="rgba(38,21,61,255)" stroke="rgba(38,21,61,255)" d="m0 450 66-202 102 119L0 450"/><path fill="rgba(221,92,114,255)" stroke="rgba(221,92,114,255)" d="m66 248 25-100 77 133-102-33"/><path fill="rgba(206,211,217,255)" stroke="rgba(206,211,217,255)" d="m91 148 73-53 4 186-77-133"/><path fill="rgba(193,199,207,255)" stroke="rgba(193,199,207,255)" d="M168 367 66 248l102 33v86"/><path fill="rgba(98,67,26,255)" stroke="rgba(98,67,26,255)" d="m164 95 120-29-116 215-4-186"/><path fill="rgba(208,34,21,255)" stroke="rgba(208,34,21,255)" d="m284 66 16 384-132-169L284 66"/><path fill="rgba(187,173,61,255)" stroke="rgba(187,173,61,255)" d="m300 450-132-83v-86l132 169"/></g></g></svg>