<svg xmlns="http://www.w3.org/2000/svg" width="1992" height="3000"><path fill="#a05753" d="M0 0h1992v3000H0z"/><g fill-opacity=".5"><path fill="#ddf6ff" d="M486.3 111.3l574.2 11.7-93.7 2097.7z"/><path fill="#900000" d="M802.7 2877L76.2-181.6l-257.8 3363.2z"/><path fill="#f3ffff" d="M228.5 310.5l1535.2-492.1 410.1 398.4z"/><path fill="#000003" d="M1119.1 802.7L1435.5 2045l-386.7 1136.7z"/><path fill="#edffff" d="M2173.8 1693.4L1869.1 556.6l-11.7 2273.5z"/><path fill="#ded249" d="M1423.8 2712.9L1236.3 802.7l527.4-117.2z"/><path fill="#ab0000" d="M1505.9 3064.5l93.7-1769.6 410.2 1886.7z"/><path fill="#c8ffff" d="M837.9 1775.4L732.4 3181.6l269.6-644.5z"/><path fill="#27031c" d="M908.2 298.8l1136.7 175.8-1019.5 339.9z"/><path fill="#000730" d="M802.7 1986.3L322.3 3181.6l-82-1242.1z"/><path fill="#c53319" d="M896.5 1130.9L5.9-17.6l-187.5 2918z"/><path fill="#e2ffff" d="M1869.1 1869.1l304.7-1007.8-246-1007.8z"/><path fill="#4a3175" d="M474.6 298.8l375 457-433.6 1418z"/><path fill="#d20000" d="M1869.1 1072.3l-421.8-105.5 386.7 1500z"/><path fill="#1a000d" d="M943.4 2595.7L1377 1423.8l-93.8 1757.8z"/><path fill="#edffff" d="M1013.7 673.8l-879-468.7 480.5-82z"/><path fill="#bcecff" d="M1998 3181.6l-175.7-773.4 257.8-773.4z"/><path fill="#cb0020" d="M-76.2 193.4l714.9-375L1775.4 5.9z"/><path fill="#b8f4a1" d="M2173.8 744.1l-1371 58.6 410 246.1z"/><path fill="#e4f9ff" d="M755.9 369.1L1037 814.5l-117 843.7z"/><path fill="#bb0001" d="M310.5 1330l492.2 199.3 23.5-574.2z"/><path fill="#c2de32" d="M1377 1681.6l175.7 750-246 750z"/><path fill="#007dc3" d="M533.2 1119.1l304.7-210.9-398.4-11.7z"/><path fill="#ec4a10" d="M76.2 2420L-181.6 170l632.8 187.4z"/><path fill="#132f44" d="M1166 2080l199.2-679.6-304.7-785.2z"/><path fill="#c7e5f5" d="M837.9 1212.9L791 2478.5l211-550.8z"/><path fill="#d5f9ff" d="M2173.8 181.6L1459 41 802.7 298.8z"/><path fill="#3f060f" d="M357.4 1505.9l257.8 1511.7-492.2 11.7z"/><path fill="#c2172e" d="M1822.3 252L767.6 310.5l234.4 211z"/><path fill="#e9000f" d="M943.4 2853.5l46.8-726.5 93.8 398.4z"/><path fill="#7d0010" d="M1529.3 1201.2l-175.8-234.4 504-23.4z"/><path fill="#b10003" d="M1752 1494.1l164 1582-410.1-468.7z"/><path fill="#aed3ee" d="M966.8 2232.4l-46.9 679.7-293 269.5z"/><path fill="#dee770" d="M1529.3 2267.6l-293-1453.1 363.3 585.9z"/><path fill="#fc511e" d="M1564.5 627l328-11.8-23.4 597.7z"/><path fill="#1a222c" d="M1517.6 779.3l-504-293 879-93.7z"/><path fill="#04051f" d="M1095.7 1752l234.4 996-316.4 433.6z"/><path fill="#00d5a8" d="M1025.4 873l93.7-93.7 211 421.9z"/><path fill="#e1ffff" d="M216.8 158.2l-35.2 140.6 539.1-82z"/><path fill="#bf0013" d="M955 2584l187.6-527.4-117.2-574.2z"/><path fill="#e23c76" d="M826.2 1552.7l-82 797L580 1400.3z"/><path fill="#be0a00" d="M263.7 1658.2L146.5 3181.6l-328.1-621z"/><path fill="#d4e5fa" d="M1880.9 1306.6l293-843.7-234.4-644.5z"/><path fill="#43265a" d="M462.9 2619.1l-82-1078 433.6 843.7z"/><path fill="#353575" d="M826.2 755.9l-211-363.3-152.3 246z"/><path fill="#addc28" d="M1283.2 3181.6l211-140.6 35.1-550.8z"/><path fill="#da0e13" d="M1787.1 439.5l152.4-222.7-468.8 58.6z"/><path fill="#46001d" d="M1552.7 2291l-58.6 890.6 187.5-457z"/><path fill="#e8d96d" d="M1095.7 802.7l679.7 140.7 117.2-211z"/><path fill="#e06881" d="M837.9 896.5l-58.6-211L416 873z"/></g></svg>