<svg xmlns="http://www.w3.org/2000/svg" viewBox="0 0 1200 1788"><filter id="b"><feGaussianBlur stdDeviation="12" /></filter><path fill="#534833" d="M0 0h1201v1788H0z"/><g filter="url(#b)" transform="translate(3.5 3.5) scale(6.98438)" fill-opacity=".5"><ellipse fill="#8b8c4d" cx="79" rx="136" ry="136"/><ellipse fill="#0f0016" rx="1" ry="1" transform="matrix(25.6181 93.00593 -143.94045 39.6478 97.7 239.4)"/><ellipse fill="#0c0009" rx="1" ry="1" transform="matrix(15.44665 -5.86763 23.79933 62.65219 117 85.7)"/><path fill="#faaf3e" d="M41 230l5-47 59 25z"/><ellipse fill="#fff76a" rx="1" ry="1" transform="matrix(5.53472 15.46447 -21.45765 7.67967 82.8 123.5)"/><ellipse fill="#33221d" cx="30" cy="97" rx="43" ry="35"/><ellipse fill="#bcae5f" rx="1" ry="1" transform="matrix(-50.64107 -21.88326 8.96274 -20.74109 48.8 43.4)"/><ellipse fill="#a2b875" rx="1" ry="1" transform="matrix(11.1586 -22.47884 42.04128 20.86947 151.5 41.1)"/></g></svg>