<svg xmlns="http://www.w3.org/2000/svg" width="1201" height="1788" viewBox="0 0 1200 1788"><filter id="a"><feGaussianBlur stdDeviation="55"/></filter><rect width="100%" height="100%" fill="#534832"/><g filter="url(#a)"><g transform="translate(3.5 3.5) scale(6.98438)" fill-opacity=".5"><ellipse fill="#8c8d4e" cx="79" cy="24" rx="113" ry="113"/><ellipse fill="#0f0016" rx="1" ry="1" transform="matrix(-128.04263 25.35312 -15.18303 -76.67988 103.4 218.3)"/><ellipse fill="#f1aa3f" rx="1" ry="1" transform="matrix(26.9208 8.98454 -5.08963 15.2503 63.8 206)"/><ellipse fill="#100006" rx="1" ry="1" transform="rotate(74.7 -3.2 122.6) scale(70.56915 16.4632)"/><ellipse fill="#fff66a" rx="1" ry="1" transform="rotate(158.1 29.2 69.2) scale(21.00197 17.67999)"/><ellipse fill="#c5ad5c" rx="1" ry="1" transform="rotate(-159.6 32.4 18.8) scale(47.31128 21.08054)"/><path fill="#33221f" d="M-16 83l81-33-4 130z"/><ellipse fill="#a1b775" rx="1" ry="1" transform="rotate(23.7 -21 390.5) scale(50.51306 25.4909)"/></g></g></svg>