<svg xmlns="http://www.w3.org/2000/svg" viewBox="0 0 300 447"><filter id="prefix__a"><feGaussianBlur stdDeviation="12"/></filter><g filter="url(#prefix__a)"><g stroke-linecap="round"><path fill="rgba(99,102,81,255)" stroke="rgba(99,102,81,255)" d="M300 0v447L280 40l20-40"/><path fill="rgba(118,107,59,255)" stroke="rgba(118,107,59,255)" d="M300 447 236 98l44-58 20 407"/><path fill="rgba(88,87,57,255)" stroke="rgba(88,87,57,255)" d="M0 447V0l105 116L0 447"/><path fill="rgba(7,3,22,255)" stroke="rgba(7,3,22,255)" d="M300 447H0l166-52 134 52"/><path fill="rgba(28,17,35,255)" stroke="rgba(28,17,35,255)" d="m0 447 105-331 61 279L0 447"/><path fill="rgba(221,182,89,255)" stroke="rgba(221,182,89,255)" d="m105 116 131-18-70 297-61-279"/><path fill="rgba(110,126,77,255)" stroke="rgba(110,126,77,255)" d="M0 0h300L161 55 0 0"/><path fill="rgba(121,134,90,255)" stroke="rgba(121,134,90,255)" d="m300 0-20 40-119 15L300 0"/><path fill="rgba(144,148,87,255)" stroke="rgba(144,148,87,255)" d="M105 116 0 0l161 55-56 61"/><path fill="rgba(148,155,103,255)" stroke="rgba(148,155,103,255)" d="m280 40-44 58-75-43 119-15"/><path fill="rgba(150,109,51,255)" stroke="rgba(150,109,51,255)" d="m236 98-131 18 56-61 75 43"/><path fill="rgba(30,23,42,255)" stroke="rgba(30,23,42,255)" d="m236 98 64 349-58-38-6-311"/><path fill="rgba(10,7,24,255)" stroke="rgba(10,7,24,255)" d="m300 447-134-52 76 14 58 38"/><path fill="rgba(31,16,33,255)" stroke="rgba(31,16,33,255)" d="m166 395 70-297 6 311-76-14"/></g></g></svg>