<svg xmlns="http://www.w3.org/2000/svg" width="1201" height="1788"><path fill="#534832" d="M0 0h1201v1788H0z"/><g fill-opacity=".5"><path fill="#b6ab57" d="M681 1086l-789.3-935.8L653-108.3z"/><path fill="#0d0012" d="M946.4 674L-108.3 1770.5l1417.9 62.9z"/><path fill="#accd7a" d="M1121 583.2l188.6-565.7-733.4 27.9z"/><path fill="#f9ad3e" d="M345.7 1295.6l440 160.6L290 1603z"/><path fill="#fff56a" d="M366.7 911.5l342.2 76.8L723 688z"/><path fill="#1d0012" d="M394.6 415.6L541.3 681l-447 705.4z"/><path fill="#0d0005" d="M597.2 674l300.3 118.7L771.8 227z"/><path fill="#000013" d="M-101.3 1763.6L1107 1463.2l167.6 433z"/><path fill="#1a0724" d="M-108.3 1379.4l265.4 516.9 300.4-936z"/><path fill="#9eac6a" d="M-10.5 373.7l705.4-7-719.3-440z"/><path fill="#5e4e30" d="M-108.3 464.5l565.8-62.9-307.3 845.1z"/><path fill="#537a47" d="M1309.6 24.4L164-108.3-108.3 234z"/><path fill="#917e3d" d="M1309.6 576.2L667 918.4l642.6-104.7z"/><path fill="#100000" d="M834.6 443.5L506.4 157.1l237.4 42z"/><path fill="#1e1425" d="M1309.6 1721.6L108.3 1163l915-328.3z"/><path fill="#efa73f" d="M702 485.4l-265.5 35L513.4 199z"/><path fill="#ffd269" d="M583.2 722.9L653 974.3l-272.4-83.8z"/><path fill="#bc8839" d="M108.3 1281.6l412 62.9L674 1582z"/><path fill="#2e030d" d="M457.5 820.7l-21-586.7-76.8 293.3z"/><path fill="#9d5a24" d="M303.8 848.6l-195.5 335.3-97.8-405.1z"/><path fill="#a7ab6c" d="M1176.9 171.1L799.7 303.8l447 230.5z"/><path fill="#682f13" d="M890.5 1554l-28-181.6L206 1617z"/><path fill="#56684c" d="M1309.6 1142l-76.9-614.7-433-132.7z"/><path fill="#374133" d="M185 387.6L583.3 667l-691.5 21z"/><path fill="#0f0725" d="M101.3 1281.6l-209.6 565.8 614.7 48.9z"/><path fill="#9f8840" d="M960.4 813.7l76.8-132.7 272.4 307.3z"/><path fill="#54352a" d="M296.8 1107l62.9 530.8L24.4 1149z"/><path fill="#7d5922" d="M827.6 876.5L548.3 1128l-69.9-111.8z"/><path fill="#acb67d" d="M338.7 429.5L450.5 234 87.3 282.9z"/><path fill="#07041d" d="M1037.2 1386.4l-83.8-335.3-356.2 377.2z"/><path fill="#542604" d="M422.6 275.9L688 178l-181.6-7z"/><path fill="#2f090f" d="M401.6 597.2l7 209.5L604 653z"/><path fill="#000014" d="M1002.3 1435.3l-705.5 461h789.3z"/><path fill="#a36623" d="M757.8 848.6L443.5 548.3 660 464.5z"/><path fill="#23151d" d="M764.8 282.9l223.5 621.6L632 632z"/><path fill="#40553b" d="M946.4 792.7L806.7 562.2l419-83.8z"/><path fill="#687d58" d="M129.2 722.9l230.5-139.7 28 139.7z"/><path fill="#644720" d="M981.3 1023.2L806.7 1156V960.4z"/><path fill="#f7c75a" d="M520.3 401.6l-62.8-125.7 174.6-14z"/><path fill="#905a19" d="M639 255l-97.7 181.5h174.6z"/><path fill="#8b965e" d="M660 94.3L-73.3 157 66.4 443.5z"/><path fill="#d4ab4c" d="M436.5 1316.6l202.6 132.7-328.3-83.9z"/><path fill="#f0c05f" d="M457.5 771.8l251.4-42-62.8 223.6z"/><path fill="#6c8553" d="M1100 520.3l-195.5-41.9-195.6-328.2z"/><path fill="#e3b354" d="M520.3 436.5l-62.8 62.9L541.3 632z"/><path fill="#9a6425" d="M604.1 981.3l-216.5-69.8 125.8 118.7z"/><path fill="#130e26" d="M73.3 1414.3L-3.5 1631l391.1-202.6z"/><path fill="#a86d1a" d="M695 834.6l209.5 35-202.6 62.8z"/><path fill="#5b6843" d="M-17.5 331.8L283 401.6 143.2 653z"/><path fill="#321b17" d="M478.4 632l314.3-20.9L639.1 681z"/></g></svg>