<svg xmlns="http://www.w3.org/2000/svg" viewBox="0 0 1200 1788"><filter id="b"><feGaussianBlur stdDeviation="12" /></filter><path fill="#534833" d="M0 0h1201v1788H0z"/><g filter="url(#b)" transform="translate(3.5 3.5) scale(6.98438)" fill-opacity=".5"><ellipse fill="#8c8e4e" cx="96" cy="36" rx="101" ry="101"/><ellipse fill="#120016" rx="1" ry="1" transform="matrix(-142.08078 23.45887 -11.6492 -70.55447 118.3 204.8)"/><ellipse fill="#f2ab3f" rx="1" ry="1" transform="matrix(-4.93214 15.522 -26.50705 -8.42265 64.4 206.9)"/><ellipse fill="#0b0007" rx="1" ry="1" transform="matrix(22.71014 65.21464 -15.2649 5.3158 117.3 90.2)"/><ellipse fill="#fff268" rx="1" ry="1" transform="matrix(-17.50778 11.45677 -10.37621 -15.85652 83 124.2)"/><ellipse fill="#c2b262" rx="1" ry="1" transform="matrix(50.91058 18.02411 -6.4502 18.21912 50 45)"/><path fill="#23000f" d="M61 36l10 72-46 62z"/><ellipse fill="#a4ba77" rx="1" ry="1" transform="rotate(112.7 61.2 70.2) scale(25.05587 38.9161)"/></g></svg>