<svg xmlns="http://www.w3.org/2000/svg" viewBox="0 0 1200 1788"><filter id="b"><feGaussianBlur stdDeviation="12" /></filter><path fill="#534833" d="M0 0h1201v1788H0z"/><g filter="url(#b)" transform="translate(3.5 3.5) scale(6.98438)" fill-opacity=".5"><ellipse fill="#8d8f4f" cx="100" cy="35" rx="101" ry="101"/><ellipse fill="#110016" rx="1" ry="1" transform="matrix(44.99096 92.26239 -141.67368 69.08596 99.6 243.5)"/><ellipse fill="#0e0009" rx="1" ry="1" transform="rotate(-17.9 367.7 -328) scale(16.6103 75.02732)"/><ellipse fill="#e6a13d" rx="1" ry="1" transform="rotate(16.4 -685.1 322.4) scale(29.34951 17.28887)"/><ellipse fill="#ffe05d" rx="1" ry="1" transform="matrix(17.68097 -16.88441 13.49515 14.13181 82.4 124.4)"/><ellipse fill="#f8ac3e" rx="1" ry="1" transform="rotate(-91.2 68 -8) scale(29.29782 15.65604)"/><ellipse fill="#2a1517" cx="47" cy="95" rx="25" ry="31"/><ellipse fill="#a5ba77" rx="1" ry="1" transform="matrix(46.17365 12.87038 -7.2388 25.96985 162.4 42)"/></g></svg>