<svg xmlns="http://www.w3.org/2000/svg" viewBox="0 0 1200 1788"><filter id="b"><feGaussianBlur stdDeviation="12" /></filter><path fill="#534833" d="M0 0h1201v1788H0z"/><g filter="url(#b)" transform="translate(3.5 3.5) scale(6.98438)" fill-opacity=".5"><ellipse fill="#8c8f4f" cx="102" cy="28" rx="106" ry="106"/><ellipse fill="#100016" rx="1" ry="1" transform="matrix(10.0873 -90.85254 155.1482 17.22601 145 230.6)"/><ellipse fill="#0d000a" rx="1" ry="1" transform="matrix(17.32545 -6.25579 21.7069 60.11743 118.2 87.8)"/><ellipse fill="#e6a03c" rx="1" ry="1" transform="rotate(-164.1 45.8 98.9) scale(30.64532 16.76705)"/><ellipse fill="#fff769" rx="1" ry="1" transform="matrix(-20.99928 10.26566 -7.2141 -14.75707 81.2 123)"/><ellipse fill="#bdae5f" rx="1" ry="1" transform="matrix(49.3277 21.5973 -8.71392 19.90237 49.4 42.8)"/><ellipse fill="#2e1a18" cx="47" cy="93" rx="26" ry="32"/><ellipse fill="#9fb573" rx="1" ry="1" transform="matrix(40.35013 18.7299 -11.14375 24.00716 149.7 39.4)"/></g></svg>