<svg xmlns="http://www.w3.org/2000/svg" viewBox="0 0 300 447"><g filter="url(#prefix__a)"><g stroke-linecap="round"><path fill="rgba(83,94,86,255)" stroke="rgba(83,94,86,255)" d="M0 447V0l67 113L0 447"/><path fill="rgba(15,11,32,255)" stroke="rgba(15,11,32,255)" d="M300 447H0l208-28 92 28"/><path fill="rgba(106,60,52,255)" stroke="rgba(106,60,52,255)" d="M300 0v447l-65-173L300 0"/><path fill="rgba(17,13,33,255)" stroke="rgba(17,13,33,255)" d="m300 447-92-28 27-145 65 173"/><path fill="rgba(59,44,39,255)" stroke="rgba(59,44,39,255)" d="m0 447 67-334 168 161L0 447"/><path fill="rgba(140,88,39,255)" stroke="rgba(140,88,39,255)" d="M208 419 0 447l235-173-27 145"/><path fill="rgba(109,125,80,255)" stroke="rgba(109,125,80,255)" d="M0 0h300L182 57 0 0"/><path fill="rgba(133,144,101,255)" stroke="rgba(133,144,101,255)" d="m300 0-81 89-37-32L300 0"/><path fill="rgba(142,145,90,255)" stroke="rgba(142,145,90,255)" d="M67 113 0 0l182 57-115 56"/><path fill="rgba(182,141,59,255)" stroke="rgba(182,141,59,255)" d="M219 89 67 113l115-56 37 32"/><path fill="rgba(80,94,71,255)" stroke="rgba(80,94,71,255)" d="m300 0-65 274 6-155L300 0"/><path fill="rgba(156,159,104,255)" stroke="rgba(156,159,104,255)" d="m219 89 81-89-59 119-22-30"/><path fill="rgba(67,34,27,255)" stroke="rgba(67,34,27,255)" d="M235 274 67 113l174 6-6 155"/><path fill="rgba(71,34,31,255)" stroke="rgba(71,34,31,255)" d="m67 113 152-24 22 30-174-6"/></g><rect width="100%" height="100%" fill="#9aa06a"/></g><filter id="prefix__a"><feGaussianBlur in="SourceGraphic" stdDeviation="12"/><feComponentTransfer><feFuncA tableValues="1 1" type="discrete"/></feComponentTransfer></filter></svg>