<svg xmlns="http://www.w3.org/2000/svg" viewBox="0 0 1200 1788"><filter id="b"><feGaussianBlur stdDeviation="12" /></filter><path fill="#534832" d="M0 0h1201v1788H0z"/><g filter="url(#b)" transform="translate(3.5 3.5) scale(6.98438)" fill-opacity=".5"><ellipse fill="#a2b264" rx="1" ry="1" transform="rotate(1.9 -1031.3 3330.6) scale(171 35.08309)"/><ellipse fill="#ffff69" rx="1" ry="1" transform="matrix(-8.21518 -16.77665 21.66113 -10.607 84.4 122)"/><ellipse fill="#0f0015" cx="93" cy="247" rx="110" ry="110"/><ellipse fill="#fab040" rx="1" ry="1" transform="matrix(5.48998 -12.98703 27.07448 11.44514 66.2 206)"/><path d="M106 124L93 15l33 44z"/><ellipse fill="#fcae3e" cx="79" cy="63" rx="17" ry="28"/><ellipse fill="#000013" rx="1" ry="1" transform="matrix(3.91612 27.176 -162.40872 23.40345 84 255.1)"/><path fill="#ffd16a" d="M71 105l31.3 13.3L91 145l-31.3-13.3z"/></g></svg>