<svg xmlns="http://www.w3.org/2000/svg" width="1201" height="1788" viewBox="0 0 1200 1788"><filter id="a"><feGaussianBlur stdDeviation="55"/></filter><rect width="100%" height="100%" fill="#534832"/><g filter="url(#a)"><g transform="translate(3.5 3.5) scale(6.98438)" fill-opacity=".5"><ellipse fill="#a5b365" rx="1" ry="1" transform="matrix(1.18224 -33.85488 154.64134 5.4002 106.5 36.2)"/><ellipse fill="#0e0015" cx="92" cy="247" rx="108" ry="108"/><ellipse fill="#ffff6a" rx="1" ry="1" transform="rotate(145.9 23.5 73) scale(25.12867 17.84238)"/><ellipse fill="#eba23d" rx="1" ry="1" transform="matrix(-5.60506 16.27827 -27.52486 -9.47757 64.5 207.6)"/><ellipse rx="1" ry="1" transform="matrix(13.16064 42.98256 -12.38835 3.79313 108.8 66)"/><ellipse fill="#f5a73b" rx="1" ry="1" transform="matrix(.57178 29.77853 -17.07276 .32781 79.4 62)"/><ellipse fill="#000013" rx="1" ry="1" transform="rotate(82.4 -97.8 182.3) scale(28.89532 170.99998)"/><ellipse fill="#ffcf66" rx="1" ry="1" transform="matrix(-4.22072 14.45049 -19.51888 -5.7011 84 123.2)"/></g></g></svg>