<svg xmlns="http://www.w3.org/2000/svg" width="1201" height="1788"><path fill="#534832" d="M0 0h1201v1788H0z"/><g fill-opacity=".5"><path fill="#9d9952" d="M1309.6 52.4L-108.3-3.5 548.3 1114z"/><path fill="#00000c" d="M722.9 115.2l586.7 1634.4-712.4 146.7z"/><path fill="#fff167" d="M722.9 981.3l-363.2-69.8L715.9 660z"/><path fill="#001" d="M-31.4 1896.3l55.8-489 1285.2 377.2z"/><path fill="#e08f32" d="M799.7 1456.2l-454-139.6-69.8 300.3z"/><path fill="#a4bb78" d="M1176.9 590.2l118.7-468-635.6 7z"/><path fill="#24081b" d="M450.5 1183.9l-523.8 705.4L443.5 261.9z"/><path fill="#c2b465" d="M-108.3 289.9L667 527.3l-160.6-398z"/><path fill="#14061f" d="M1309.6 1679.7L213 1218.7l482-272.3z"/><path fill="#200e14" d="M988.3 527.3L653 129.3l7 607.6z"/><path fill="#322720" d="M192 366.7L569.3 660 296.8 995.3z"/><path fill="#f9bc55" d="M527.3 729.9l356.2 153.6-523.8 76.9z"/><path fill="#8e5f2b" d="M157.1 1176.9L-24.4 827.6l412-223.5z"/><path fill="#a69848" d="M1093 695l195.6 279.3-391.1-195.5z"/><path fill="#030017" d="M1309.6 1896.3l-1417.9-132.7L1051.1 1505z"/><path fill="#dd9635" d="M709 464.5L527.2 171l-69.8 419z"/><path fill="#2c0400" d="M729.9 248L604 150.1 436.5 234z"/><path fill="#668f56" d="M10.5-108.3l1299 139.7-1417.8 265.4z"/><path fill="#390f0f" d="M338.7 513.4l104.8-258.5 21 544.8z"/><path fill="#47684b" d="M897.5 743.8l-83.8-398 495.9 251.4z"/><path fill="#d8a846" d="M576.2 1470.2l-69.8-132.7-314.3-41.9z"/><path fill="#6e3114" d="M778.8 1379.4l181.6 125.7L247.9 1631z"/><path fill="#0f062a" d="M338.7 1616.9l-300.3-447-41.9 691.4z"/><path fill="#774112" d="M715.9 967.3l230.5-118.7-237.5-146.7z"/><path fill="#909e67" d="M492.4 199l-426 279.4-153.7-377.1z"/><path fill="#350e0e" d="M792.7 597.2l-454 216.5L450.5 632z"/><path fill="#b4b46c" d="M960.4 296.8l55.8 216.6L1309.6 227z"/><path fill="#231935" d="M904.5 688l146.6 991.7 258.5-237.4z"/><path fill="#4e302c" d="M331.8 1526l-21-377-405-28z"/><path fill="#cd9742" d="M499.4 234L611 806.7 422.6 429.5z"/><path fill="#49573c" d="M317.8 869.6l-426-516.9 523.8 104.8z"/><path fill="#623e1b" d="M702 995.3l-405.2-83.8L541.3 1100z"/><path fill="#0b0822" d="M1114 1260.7l-433 174.6-321.3-174.6z"/><path fill="#e4ba53" d="M436.5 359.7L548.3 213 688 366.7z"/><path fill="#784e20" d="M415.6 408.6L681 359.7l41.9 83.8z"/><path fill="#1c0917" d="M674 597.2L715.9 199l209.5 635.5z"/><path fill="#fcda7e" d="M702 918.4l-153.7 42-76.9-174.7z"/><path fill="#5f3f22" d="M995.3 1016.2l-209.6-34.9v181.6z"/><path fill="#778653" d="M946.4 227l363.2-167.6-901 55.8z"/><path fill="#0f0923" d="M213 1519.1l167.6-90.8-265.4-14z"/><path fill="#9d622d" d="M227 757.8L185 1107l-153.6 21z"/><path fill="#28111b" d="M457.5 562.2l90.8 97.8-293.4 328.3z"/><path fill="#a0ad76" d="M73.3 268.9l356.2 7-125.7 174.6z"/><path fill="#607658" d="M394.6 702l-41.9-98L24.4 750.8z"/><path fill="#c69034" d="M729.9 715.9l-181.6-28 174.6 146.7z"/><path fill="#1b0810" d="M764.8 241l-216.5-77 279.3 300.4z"/><path fill="#515842" d="M834.6 583.2l468 321.3-28-440z"/><path fill="#242b2b" d="M150.2 667L10.5 506.4l-118.8 279.3z"/><path fill="#380f15" d="M380.6 513.4l97.8 209.5-55.8-391.1z"/><path fill="#3f2a1b" d="M366.7 750.8l118.7 454-293.3-502.9z"/></g></svg>