<svg xmlns="http://www.w3.org/2000/svg" width="1201" height="1788"><path fill="#534832" d="M0 0h1201v1788H0z"/><g fill-opacity=".5"><path fill="#0c0012" d="M1309.6 1784.5L939.4 702-108.3 1777.5z"/><path fill="#f6c04d" d="M464.5-108.3L778.8 904.5l-328.3 111.7z"/><path fill="#9db266" d="M1309.6 199L52.4-108.2l-160.7 628.6z"/><path fill="#f7a93d" d="M289.9 1596l502.8-125.8-468-181.6z"/><path fill="#aac379" d="M1149-101.3l160.6 747.4-516.9-335.3z"/><path fill="#150008" d="M611.1 688l328.3 125.7L708.9 80.3z"/><path fill="#1a0420" d="M220 1896.3L-108.3 1561 506.4 555.3z"/><path fill="#ffeb71" d="M667 988.3l-293.3-97.8L715.9 674z"/><path fill="#000013" d="M-108.3 1798.5l1376 97.8-181.6-440z"/><path fill="#180009" d="M646 660L359.8 813.7l55.9-237.5z"/><path fill="#180000" d="M862.6 387.6L471.4 185.1 695 164z"/><path fill="#c2a156" d="M674 296.8v265.4L-108.3 213z"/><path fill="#63814c" d="M-108.3-3.5l1417.9-48.9L1037.2 269z"/><path fill="#a89a49" d="M1093 674L925.5 785.7l349.2 188.6z"/><path fill="#140c23" d="M1309.6 1505.1L457.5 946.4l-118.8 349.2z"/><path fill="#9d5a23" d="M143.2 1190.8l-167.6-419 321.2 48.9z"/><path fill="#2d0000" d="M478.4 206l-76.8 377.2-21-195.6z"/><path fill="#c08d3c" d="M129.2 1281.6l398.1 56L660 1554z"/><path fill="#a2a565" d="M1274.6 241L604.1 94.3l468 398.1z"/><path fill="#724314" d="M534.3 513.4l237.5 412 167.6-62.8z"/><path fill="#6c3013" d="M660 1407.4l-384 223.5 691.4-146.7z"/><path fill="#9bac72" d="M380.6 464.5l-488.9-216.6 516.9-104.7z"/><path fill="#486748" d="M897.5 792.7l412-209.5-488.8-244.5z"/><path fill="#16102c" d="M1232.7 1484.2L716 1386.4l321.3-530.8z"/><path fill="#654722" d="M534.3 1218.8L338.7 953.4l349.3 14z"/><path fill="#424637" d="M-94.3 373.7L283 401.6l-391.2 901z"/><path fill="#f6cc69" d="M729.9 946.4L513.4 750.8 401.6 939.4z"/><path fill="#110926" d="M45.4 1225.8l433 600.6-495.9 69.9z"/><path fill="#000014" d="M513.4 1770.5l474.9-335.2 97.8 384.1z"/><path fill="#663c25" d="M331.8 1281.6l-202.6-41.9 230.5 440z"/><path fill="#b1b06a" d="M981.3 506.4l21-258.5 146.6 223.5z"/><path fill="#3e1e19" d="M380.6 408.6l-34.9 551.8 195.6-265.5z"/><path fill="#150717" d="M799.7 743.8L639.1 192.1l160.6 69.8z"/><path fill="#fec253" d="M618.1 255l-90.8 146.6-76.8-132.7z"/><path fill="#946b21" d="M729.9 848.6L646 981.3l258.4-132.7z"/><path fill="#9b661d" d="M702 457.5l-188.6-42L674 283z"/><path fill="#667d58" d="M401.6 702l-41.9-91L24.4 757.8z"/><path fill="#5e7544" d="M492.4 192L1267.7-3.4l-1376-35z"/><path fill="#cf9c43" d="M436.5 443.5l237.5-14-153.7 209.6z"/><path fill="#613005" d="M471.4 206l-55.8 97.8L611 164.1z"/><path fill="#cda248" d="M625.1 1519.1l-321.3-160.6 125.7-35z"/><path fill="#03091e" d="M709 988.3l146.6 405-216.5 35z"/><path fill="#311714" d="M757.8 869.6l181.6-90.8L653 499.4z"/><path fill="#6d3919" d="M932.4 1400.4l-300.3 27.9-167.6 237.5z"/><path fill="#818854" d="M1309.6 38.4L1135 283 387.6 101.3z"/><path fill="#d7ad49" d="M722.9 709l-223.5 48.8 216.5 167.6z"/><path fill="#b6741b" d="M478.4 785.7L373.7 960.4l27.9-111.8z"/><path fill="#2e1f22" d="M296.8 688l279.4 586.6-258.4 42z"/><path fill="#67461f" d="M988.3 1016.2l-167.6-21-14 146.7z"/><path fill="#93622f" d="M185 1114l-153.6 14L234 715.9z"/></g></svg>