<svg xmlns="http://www.w3.org/2000/svg" viewBox="0 0 2000 1333"><filter id="b"><feGaussianBlur stdDeviation="12" /></filter><path fill="#444" d="M0 0h2000v1328H0z"/><g filter="url(#b)" transform="translate(4 4) scale(7.8125)" fill-opacity=".5"><path fill="#ccc" d="M158.5 47.8l-1 56-86-1.6 1-56z"/><ellipse cx="116" cy="7" rx="55" ry="36"/><ellipse cx="241" cy="54" rx="71" ry="30"/><ellipse fill="#bababa" rx="1" ry="1" transform="rotate(48.5 -14.8 91.5) scale(65.27065 17.33616)"/><ellipse rx="1" ry="1" transform="rotate(13.9 -202.7 43.1) scale(53.5717 22.95713)"/><path fill="#fff" d="M-22.8 165.7l5.2-16.2 70.4 22.8-5.2 16.2z"/><ellipse fill="#939393" rx="1" ry="1" transform="matrix(-42.92436 -3.16361 1.72287 -23.37613 80.3 136.5)"/><ellipse rx="1" ry="1" transform="matrix(127.92247 -1.07746 .1628 19.3291 212.6 169)"/></g></svg>