<svg xmlns="http://www.w3.org/2000/svg" viewBox="0 0 2000 1333"><filter id="b"><feGaussianBlur stdDeviation="12" /></filter><path fill="#444" d="M0 0h2000v1328H0z"/><g filter="url(#b)" transform="translate(4 4) scale(7.8125)" fill-opacity=".5"><ellipse fill="#bbb" rx="1" ry="1" transform="rotate(-170.9 60.9 33.6) scale(55.96408 33.02387)"/><ellipse rx="1" ry="1" transform="rotate(-10.6 111.6 -653.1) scale(56.51682 35.23407)"/><ellipse cx="255" cy="53" rx="83" ry="33"/><ellipse fill="#bbb" rx="1" ry="1" transform="matrix(-12.33236 11.54042 -49.43475 -52.82712 60.8 38.4)"/><ellipse rx="1" ry="1" transform="matrix(54.30764 17.73068 -7.73044 23.67772 0 46.5)"/><path fill="#fff" d="M-16 148v37l62.1-15-32.3-10z"/><ellipse fill="#929292" rx="1" ry="1" transform="rotate(91.4 -25 109.3) scale(22.8774 44.51171)"/><ellipse fill="#a7a7a7" rx="1" ry="1" transform="matrix(-5.59031 -8.48105 55.30368 -36.4536 177.2 27)"/></g></svg>