<svg xmlns="http://www.w3.org/2000/svg" width="2000" height="1328"><path fill="#444" d="M0 0h2000v1328H0z"/><g fill-opacity=".5"><path fill="#c7c7c7" d="M1449.2 597.7L230.5 113.3l453 757.8z"/><path d="M246-121l679.8 554.6 757.8-554.7zm1867.3 0l7.8 906.2-843.8-320.4zM-58.6 644.5L472.7 504-50.8 43z"/><path fill="#fff" d="M519.5 1371L-121 1175.9l265.6 273.4z"/><path fill="#8b8b8b" d="M254 1105.5L1652.2-121.1 714.8 1285.2z"/><path d="M1972.7 1449.2l39-343.7-1296.9 195.3z"/><path fill="#a1a1a1" d="M355.5-121L918 800.7-121-66.4z"/><path d="M1464.8 50.8L363.3-121.1 668 355.5z"/><path fill="#868686" d="M1535.2 582l-132.9 812.5 539.1-671.8z"/><path d="M2004 66.4l78 679.7-812.5-257.8zm-672 960.9l218.8-343.7L871 918z"/><path fill="#9a9a9a" d="M894.5 472.7l804.7-593.8v281.3z"/><path fill="#cdcdcd" d="M683.6 894.5L878.9 332l-273.4 31.3z"/><path d="M1074.2 511.7l-273.4 39 203.1 54.8zM-121 574.2l640.5-23.4-640.6-539z"/><path fill="#010101" d="M761.7 1324.2l-656.2-257.8 109.3 211z"/><path d="M1543-27.3L402.3-35.2l539.1 445.4z"/><path fill="#d1d1d1" d="M949.2 410.2l171.9-70.4 164 187.5z"/><path d="M1214.8 371L1332 597.8l789-187.5z"/><path fill="#6e6e6e" d="M433.6 1222.7l-554.7-484.4 1601.6 421.9z"/><path fill="#191919" d="M35.2 800.8l617.1 54.7-117.1-265.7z"/><path fill="#6e6e6e" d="M1136.7 894.5L660.2 785.2l718.7-250z"/><path fill="#fff" d="M410.2 1347.7l-531.3-164.1 265.6 242.2z"/><path fill="#8f8f8f" d="M2082 933.6l-367.2-304.7-406.2-39z"/><path d="M1644.5 1332l476.6-140.6-648.4-31.2zm-1000-62.5l211 179.7 554.7-257.8z"/><path fill="#6a6a6a" d="M1355.5 1183.6l711-101.6-656.3-320.3z"/><path fill="#070707" d="M949.2 957l-125-140.6-140.6 46.9z"/><path fill="#464646" d="M324.2 277.3l211 125 46.8 297z"/><path fill="#787878" d="M246 566.4l328.2 39L-121 769.6z"/><path fill="#989898" d="M1527.3 1269.5l250 179.7H886.7z"/><path fill="#050505" d="M1121 996l234.5-343.7 211 93.8z"/><path d="M433.6 488.3L-43 82l-78 593.8z"/><path fill="#050505" d="M1972.7 1058.6l-281.3-242.2L1949.2 918z"/><path fill="#9e9e9e" d="M902.3 964.8l-289 78.2 7.8-187.5z"/><path d="M1800.8 152.3l-336 343.8 656.3 320.3zm-406.3-46.8L324.2-121.1l375 461z"/><path fill="#868686" d="M714.8 355.5L199.2-121.1l-46.9 351.6z"/><path fill="#828282" d="M2121 855.5l-109.3 242.2-140.6-398.5z"/><path fill="#494949" d="M1277.3 707l476.6 468.8-164-359.4z"/><path fill="#c4c4c4" d="M1269.5 511.7L988.3 652.3l195.3-226.5z"/><path fill="#141414" d="M855.5 480.5l218.7 78-187.5 39.2z"/><path fill="#8e8e8e" d="M1332 1043l242.2-156.3-39 211z"/><path fill="#777" d="M222.7 777.3L191.4 957 418 722.7z"/><path fill="#5e5e5e" d="M1621 293l273.5-398.5L1097.7 379z"/><path d="M183.6 1144.5l-31.3-148.4 234.4 218.7z"/><path fill="#949494" d="M308.6 1144.5l257.8 93.8 125-109.4z"/><path fill="#b3b3b3" d="M1254 652.3l-172 117.2-211-7.8z"/><path fill="#b5b5b5" d="M582 730.5l23.5-226.6 218.7 289z"/></g></svg>