<svg xmlns="http://www.w3.org/2000/svg" width="800" height="500"><path fill="#535353" d="M0 0h100v100H0z"/><path fill="#7d7d7d" d="M100 0h100v100H100z"/><path fill="#121212" d="M200 0h100v100H200z"/><path d="M300 0h100v100H300z"/><path fill="#040404" d="M400 0h100v100H400z"/><path fill="#494949" d="M500 0h100v100H500z"/><path fill="#5f5f5f" d="M600 0h100v100H600z"/><path fill="#222" d="M700 0h100v100H700z"/><path fill="#030303" d="M0 100h100v100H0z"/><path fill="#4e4e4e" d="M100 100h100v100H100z"/><path fill="#8c8c8c" d="M200 100h100v100H200z"/><path fill="#555" d="M300 100h100v100H300z"/><path fill="#6b6b6b" d="M400 100h100v100H400z"/><path fill="#454545" d="M500 100h100v100H500z"/><path fill="#050505" d="M600 100h100v100H600z"/><path fill="#060606" d="M700 100h100v100H700z"/><path fill="#3a3a3a" d="M0 200h100v100H0z"/><path fill="#313131" d="M100 200h100v100H100z"/><path fill="#828282" d="M200 200h100v100H200z"/><path fill="#8d8d8d" d="M300 200h100v100H300z"/><path fill="#747474" d="M400 200h100v100H400z"/><path fill="#383838" d="M500 200h100v100H500z"/><path fill="#464646" d="M600 200h100v100H600z"/><path fill="#2a2a2a" d="M700 200h100v100H700z"/><path fill="#4b4b4b" d="M0 300h100v100H0z"/><path fill="#525252" d="M100 300h100v100H100z"/><path fill="#6a6a6a" d="M200 300h100v100H200z"/><path fill="#686868" d="M300 300h100v100H300z"/><path fill="#383838" d="M400 300h100v100H400z"/><path fill="#3d3d3d" d="M500 300h100v100H500z"/><path fill="#6f6f6f" d="M600 300h100v100H600z"/><path fill="#585858" d="M700 300h100v100H700z"/><path fill="#5b5b5b" d="M0 400h100v100H0z"/><path fill="#474747" d="M100 400h100v100H100z"/><path fill="#606060" d="M200 400h100v100H200z"/><path fill="#4a4a4a" d="M300 400h100v100H300z"/><path fill="#333" d="M400 400h100v100H400z"/><path fill="#454545" d="M500 400h100v100H500z"/><path fill="#353535" d="M600 400h100v100H600z"/><path fill="#242424" d="M700 400h100v100H700z"/></svg>