<svg xmlns="http://www.w3.org/2000/svg" width="2000" height="1328"><path fill="#444" d="M0 0h2000v1328H0z"/><g fill-opacity=".5"><path fill="#c7c7c7" d="M707 855.5L152.3 35.2l1257.9 578z"/><path d="M27.3-121l2078.2 265.5 15.6 672z"/><path fill="#969696" d="M644.5 582l1172-703L449.1 1449.1z"/><path d="M-27.3 58.6l500 453.1-593.8 140.6z"/><path fill="#fff" d="M589.8 1386.7l-437.5 62.5-273.4-265.6z"/><path d="M1511.7 11.7L355.5-121l328 476.6zm468.8 1437.5l23.4-351.5-1336 210.9z"/><path fill="#848484" d="M1574.2 589.8l546.9 211-789 453.1z"/><path d="M2082 761.7l-843.7-296.9L2121-27.3z"/><path fill="#989898" d="M886.7 816.4L-58.6-11.7l429.7-109.4z"/><path fill="#979797" d="M847.7 519.5L1683.6-121l70.3 273.4z"/><path d="M1652.3-121L980.5 394.4l-468.8-164zM886.7 918l461 117.2 164-351.6z"/><path fill="#757575" d="M527.3 1269.5l820.4-148.4-1468.8-375z"/><path d="M816.4 496l257.8 39.2-140.6 109.3zm-710.9 562.6L707 1316.4l-507.8-46.9zM-121 50.8l601.5 429.7-601.6 195.3z"/><path fill="#c8c8c8" d="M871 339.8l-273.3 31.3 78 609.4z"/><path fill="#6e6e6e" d="M1082 879l414-320.4-890.5 203.1z"/><path fill="#a4a4a4" d="M1449.2 1332l226.6 117.2-242.2-312.5z"/><path d="M597.7-121L918 433.5l625-468.8z"/><path fill="#cacaca" d="M1066.4 582l234.4-54.7L1074.2 332z"/><path fill="#1f1f1f" d="M472.7 652.3L82 738.3 1027.3 957z"/><path fill="#a6a6a6" d="M1714.8 629l132.9 187.4-507.9-242.2z"/><path fill="#fff" d="M-121 1191.4l625 179.7-390.7 23.4z"/><path d="M1207 339.8l117.2 273.5L2082 441.4zm718.8 562.5l23.4 132.9L1683.6 793z"/><path fill="#464646" d="M597.7 754l-70.4-351.7L293 246.1z"/><path d="M1316.4 1183.6L1043 1449.2l-476.6-164z"/><path fill="#b3b3b3" d="M738.3 1043l-164-375 164-336z"/><path fill="#696969" d="M1597.7 769.5l398.4 336-804.7 93.7z"/><path d="M1504 1168l117 171.8 500-156.2z"/><path fill="#585858" d="M1839.8-121l-109.3 359.3L1160.2 418z"/><path fill="#050505" d="M1332 652.3l234.4 78.2L1207 957z"/><path fill="#797979" d="M168 574.2l367.2 15.6L-121.1 793z"/><path fill="#4d4d4d" d="M1300.8 722.7l445.3 429.6-117.2-312.5z"/><path d="M1386.7 105.5L339.8-113.3l351.6 453.1zm664.1 710.9l-562.5-445.3 336-211z"/><path fill="#666" d="M808.6 761.7l851.6-148.4-367.2-78.1z"/><path d="M-113.3 4l23.5 492L543 574.3z"/><path fill="#8b8b8b" d="M441.4 1043l336 242.2L347.6 1168z"/><path fill="#afafaf" d="M879 793l406.2-195.3L1144.5 746z"/><path fill="#858585" d="M129 214.8L730.4 379 246-121z"/><path d="M1058.6 464.8L1043 582l-132.8 7.8z"/><path fill="#202020" d="M2011.7-105.5l109.4 640.7-437.5-390.7z"/><path fill="#070707" d="M347.7 652.3L199.2 808.6l-250 46.9z"/><path fill="#1c1c1c" d="M886.7 933.6l-211-62.5 172-62.5z"/><path fill="#ababab" d="M2121 1097.7l-140.5-257.9 15.6 273.5z"/><path fill="#6b6b6b" d="M550.8 1324.2L793 941.4h312.5z"/><path fill="#afafaf" d="M1050.8 863.3l132.8-78.1-273.4 70.3z"/></g></svg>