<svg xmlns="http://www.w3.org/2000/svg" viewBox="0 0 2000 1333"><filter id="b"><feGaussianBlur stdDeviation="12" /></filter><path fill="#444" d="M0 0h2000v1328H0z"/><g filter="url(#b)" transform="translate(4 4) scale(7.8125)" fill-opacity=".5"><path fill="#cdcdcd" d="M74 46h85v56H74z"/><ellipse rx="1" ry="1" transform="matrix(54.29775 -3.33588 1.9252 31.33624 118 12.9)"/><ellipse rx="1" ry="1" transform="matrix(77.27764 -11.82514 4.55588 29.77278 249.8 49.4)"/><ellipse fill="#b6b6b6" rx="1" ry="1" transform="matrix(14.01177 -12.06434 60.7071 70.50646 43.5 19)"/><ellipse rx="1" ry="1" transform="matrix(-7.57874 19.49514 -50.20523 -19.5173 8.9 47.9)"/><ellipse fill="#fff" rx="1" ry="1" transform="matrix(-2.14529 10.2689 -55.18148 -11.52801 -.2 167.1)"/><ellipse fill="#8d8d8d" rx="1" ry="1" transform="rotate(-174.5 44.3 66) scale(48.93093 23.92134)"/><ellipse cx="200" cy="163" rx="121" ry="13"/></g></svg>