<svg xmlns="http://www.w3.org/2000/svg" width="2000" height="1333" viewBox="0 0 2000 1333"><path d="M424 .3c0 1 3.2 6.7 4 7.2 1.7 1 6.8 9.2 8 12.8.6 2 1.5 3.7 2 3.9.4.2 2.4 3.7 4.5 7.8 2 4.1 4 7.7 4.4 8 .4.3 1.8 2 3.1 4 1.4 2 3.2 4.4 4.2 5.4 1 1.1 1.8 2.6 1.8 3.3 0 .7.4 1.3.8 1.3.5 0 2 2 3.2 4.2a86 86 0 0 0 7.2 10.2 45 45 0 0 1 4.8 6.8c0 .5 2 3.6 4.3 7 4.7 6.9 10.9 17.5 13.2 22.8 1.8 4.1 1.5 3.7 8.8 14.4 3.1 4.6 7 10.9 8.5 13.9a92 92 0 0 0 14.5 19.6c6.4 7.4 6.7 7.9 6.7 8.9 0 .5 2 2.7 4.3 4.9a51.7 51.7 0 0 1 11.5 13.9c1 1 3 4 4.7 6.4 1.6 2.5 3.3 4.7 3.8 4.8.4.2.7 1.6.7 3.2 0 2 1 3.4 3.4 5.1 2 1.3 4.3 3.8 5.3 5.5 4.8 8 7.8 12.1 9.7 13 1.1.5 2.2 2 2.4 3.2.2 1.2.8 2.2 1.4 2.2.5 0 2.4 1.7 4.1 3.7l4.7 5.2c.8 1 2.3 2.9 3.3 4.4 1 1.5 2.3 2.7 3 2.7a64 64 0 0 1 14.8 13.7c3.3 3.5 4.9 6.2 5.4 9 .3 2.3 1.3 4.4 2 4.7.9.3 1.5 1.7 1.5 3 0 2 .5 2.5 1.8 2.3 2.3-.3 22 17.8 22.8 21 .4 1.3 1 2.3 1.5 2.3a23 23 0 0 1 4.8 3.9c2.2 2.1 4.4 4 4.9 4.2.5.2 5.3 4.4 10.6 9.4s10.9 9.7 12.4 10.5c1.5.8 7.5 5 13.3 9.3 5.9 4.2 11 7.7 11.6 7.7.6 0 2.3 1.1 3.9 2.5 4 3.5 3.8 3.5 31.4-6.3a67 67 0 0 1 30.9-5.2c9.1 0 18 .6 23.6 1.7 10.5 1.9 14.5 2 20 .5 4.2-1.2 14.2-.8 23.3 1 5.5 1 23.8 10 30.2 14.7 14.1 10.4 28.2 29.2 30.9 41 .7 3.4 2.2 5.6 6.4 9.5 4.5 4.2 5.8 6.2 7.2 11a37 37 0 0 0 3 8 9.4 9.4 0 0 1 1.5 4.6c0 1.4.7 4.7 1.5 7.4a16 16 0 0 1 1 5.5c-.2.4-.6 4.5-1 9.2-.4 6.2-1 8.7-2.2 9.6-1 .7-1.2 1.3-.5 1.3s1.2.6 1.2 1.4c0 1.6 5 5.6 7.2 5.6 1.3 0 12.8-22.9 16.2-32.2 2.5-6.8 12.8-18.8 16.1-18.8a467.1 467.1 0 0 1 69-38.4 283 283 0 0 0 36.4-18.5l7.1-6a735.2 735.2 0 0 0 34.5-29c1.7-1.4 4.8-4 7-5.6l12.1-9.7A181 181 0 0 1 1141 288c.6 0 1.6-.8 2.3-1.8a106.2 106.2 0 0 1 24-17 129 129 0 0 0 12.8-9.2 109 109 0 0 1 14.5-9.8c11.5-5.7 13-6.6 15-8.4a63.2 63.2 0 0 0 16.8-12c1.4-1.3 3.8-3.3 5.3-4.4 1.5-1 4-3 5.8-4.5 1.7-1.4 5.6-4.2 8.7-6.1l11.9-8.2a33 33 0 0 1 7.4-4.6c.6 0 3.8-2.1 7.1-4.8 3.3-2.6 7.6-5.6 9.5-6.6 2-1.1 5.5-4 8-6.7 4.9-5 10.1-8.9 12-8.9a22 22 0 0 0 6-3.5 121.3 121.3 0 0 0 25-19.2c2-2.2 6.9-6.1 11-8.8 4.1-2.6 7.6-5.2 7.8-5.7.2-.4 1.8-1.5 3.5-2.3 1.8-.8 4.6-2.9 6.4-4.5a15 15 0 0 1 4-3c.4 0 2.1-1.4 3.8-3.1a71 71 0 0 1 8.8-7 21 21 0 0 0 5.7-5c0-.5.6-.9 1.3-.9.7 0 4-2.3 7.2-5a40 40 0 0 1 6.7-5c.4 0 .8-.5.8-1 0-.6 1.8-2.7 4-4.9 2.2-2.1 4-4.3 4-4.9a25 25 0 0 1 5.6-5.8c3.1-2.7 7-6.5 8.8-8.4 1.7-2 5.2-5.5 7.8-8a64 64 0 0 0 7.3-8.4c1.5-2.1 4.6-6 7-8.5a85 85 0 0 0 7.2-8.8c3.1-4.5 13.7-16.3 25.8-28.7A81 81 0 0 0 1490 .5c0-.3-239.8-.5-533-.5-293.1 0-533 .2-533 .3M1842 4c-.6 2.2-1.5 4-2 4-.6 0-1 2.3-1 5 0 2.8-.5 5-1 5a1 1 0 0 1-1-1c0-.6-.5-1-1-1s-1 1.4-1 3-.5 3-1 3-1-.6-1-1.2c0-.7-1.1 0-2.5 1.5S1827 25 1826 25c-1.4 0-2 .7-2 2 0 1.2-.4 1.8-1 1.5-1.5-1-4 1.4-4 3.5 0 1-.7 2-1.5 2.4-.8.3-2 1.7-2.7 3-.6 1.5-1.7 2.6-2.4 2.6s-1.8.9-2.4 2c-.8 1.5-2 2-5.5 2-2.5 0-4.5.4-4.5.9s-.9 1.1-2 1.4c-1 .3-2.4 1.7-3 3.1-.5 1.4-1.4 2.6-2 2.6-.5 0-1 .6-1 1.3 0 .8-1 2.3-2.3 3.5-2.4 2.3-5.7 3-5.7 1.2 0-.5-.7-.7-1.5-.4-.8.4-1.5.1-1.5-.5 0-1.9-3.7-1.2-4.3.8-.2 1 .4 3.6 1.4 5.7 1 2.2 1.9 3.2 1.9 2.4 0-1.6 4 2.7 4 4.4 0 1.6-3.5 3.5-6.6 3.6-2 0-3.9 1-5.4 2.5-1.3 1.4-2.9 2.5-3.5 2.5-1.2 0-2.7 6.2-2.7 11 0 1.4-.4 5-1 8.3-1 5.6-1.2 5.7-4.2 5.5-1.7 0-3.6-.6-4.3-1-.7-.6-2.8-1-4.7-1-2 0-4-.6-4.7-1.4-1.8-2.2-2.9-1.6-2.9 1.5 0 2.3.5 3 2.3 3.3 2.7.4 2.4 2.3-.3 2.2-1.4 0-2 .6-2 2.3 0 1.6.6 2.3 2 2.3 1.3 0 1.8.5 1.3 1.6-.4 1-1.6 1.4-3.8 1.3-2.1-.2-4.4.5-6.7 2l-3.4 2.3.7 7.2c.4 3.9.3 7.9-.2 8.8-.5 1-.9 3.3-.9 5.2 0 2-.4 3.6-.8 3.6-.8 0-.7 1 .4 11.8.9 7.8-.4 16.2-2.3 16.2-2.4 0-5-3.7-5.8-8-.4-2.2-1-4-1.6-4-.5 0-.8-3.7-.8-8.3.1-4.5-.3-13.4-.9-19.7l-1.1-12.8c0-.6-.6-1.2-1.3-1.2-.6 0-2.2-1-3.4-2-1.7-1.7-2.9-2-5.9-1.4l-3.7.7.7 4.7c.5 3.7.3 5-1 6.4-1 1-1.2 1.6-.5 1.6.9 0 1 1 .5 3.3-.4 1.7-.7 4.9-.7 7 0 2-.4 3.4-.9 3.1-.5-.3-.9.2-.9 1 0 .9.4 1.6 1 1.6 2.1 0 1.9 4-.5 8.3a21.4 21.4 0 0 0-2.7 8c0 4.8-2.3 6.7-8 6.7-3.6 0-4.8-.4-4.8-1.5 0-2.3-1.7-1.8-5.1 1.4-2.4 2.3-3 3.5-2.4 5.3.4 1.3.4 2 0 1.5-1.3-1.1-4.5 2.4-4.5 4.9 0 5-2.5 7.4-3.3 3.2-.3-1.7-.5-1.4-.6 1 0 2.1-.6 3.2-1.6 3.2s-1.8 1.2-2.2 3c-.3 1.7-.9 3-1.3 3-1.1 0-2.3 4-2.5 8.3-.3 5.3-2 6.9-4.4 3.8-1-1.3-2.3-2-3-1.7-.6.4-1.1 0-1.1-.8 0-.9-.5-1.6-1.1-1.6-.7 0-.9 1.6-.5 4.8 1 7.4 1 7.6.1 9.4-.5 1.3-.2 1.8 1.1 1.9 1.4 0 1.2.3-.6.8-1.5.4-2.6 1.5-2.8 2.9-.3 2.2-4.2 3.3-4.2 1.2 0-.6-.7-1-1.5-1s-1.5.9-1.5 2c0 2.2-3.4 2.8-4.5 1-.5-.8-1.4-.4-2.6 1-1.1 1-2.4 2-3 2-.5 0-.9.9-.9 1.9 0 2.6-2.7 3.5-3.3 1-.7-2.8-4.5-2.5-5.7.5-1 2.9.9 13.9 2.8 15.8 1.8 1.8 1.4 5.2-1 7.7-2.1 2.4-3.4 2-4-1.4-.2-1.2-1.3-2.1-2.7-2.3-1.8-.3-2-.6-1-1.2.7-.5 1-1.3.5-1.7-.5-.4-1-.2-1.3.4-.7 2-2.3 1.5-2.3-.7 0-1.1-.4-2-1-2-.5 0-1.3-1.2-1.6-2.8-1.6-6.3-8.7-8.8-13-4.5-1.9 1.9-3 2.2-6.6 1.8-6-.8-8 1-6.8 5.6.7 2.2.7 3.5 0 3.7-.5.2-1 2.8-1 5.7 0 7.2-2 15.7-4.2 17.5-1.2 1-2 3-2 6.3-.1 2.6-.4 4.7-.6 4.7a10 10 0 0 1-3.2-3.3c0-.2-1.8-2.3-4-4.7-2.2-2.4-4-5-4-5.7 0-.8-1.1-2.5-2.5-4a12.6 12.6 0 0 1-3.1-5.2c-.8-4-5.5-5.6-8.3-2.8-1.2 1.2-2.1 1.6-2.1 1 0-.8-1.1-1.3-2.5-1.3-1.3 0-2.8-.6-3.2-1.3-1.7-2.8-6.2-3-8.9-.2-1.4 1.4-2.9 2.5-3.4 2.5-.4 0-1.7 1.2-2.9 2.8-1.8 2.4-2.2 2.6-4 1.4-2.4-1.4-4.1-.8-4.1 1.4 0 .8-.7 1.4-1.5 1.4-1.2 0-1.3.4-.6 1.8 1.1 2.1-1 6.2-3.4 6.2-.7 0-1.6.8-2 1.8-.6 1.6-.7 1.6-2 0-.6-1-1.7-1.8-2.4-1.8a18 18 0 0 0-7.2 4.3c-.4.5-1 .4-1.3-.2-1.5-2.4-4.9-1.3-4.4 1.4.3 1.4.2 2.5-.3 2.5-.4 0-1.1 1.6-1.5 3.5-.3 2-1.1 3.5-1.8 3.5s-1 1.6-.7 4.8c.4 4 .5 4.3 1.2 2.2 1.2-4.1 1-.6-.3 5-1.3 5.7-3.3 7.4-5.5 4.4-1.2-1.6-1.5-1.7-2.3-.4-1.3 2-1.2 4.4.1 5.7 1.2 1.2.3 5.3-1 5.3-.5 0-1.1-1.2-1.4-2.8a131 131 0 0 0-2.6-9.2c-2-6.5-2-6.5-2.1-2.5a97.6 97.6 0 0 0-.8 13c-.2 6.4-.4 6.8-1.7 5a11 11 0 0 1-1.5-5.5c0-2.8-.7-4.2-3-6-1.6-1.4-3-3-3-3.5 0-1.4-4.7-6.5-5.8-6.5-1.9 0-2.4 8.7-.8 11.9.9 1.6 1.6 5.2 1.6 7.9v4.8l-3.4-.4c-3-.3-3.6 0-5 2.4-1.5 3-2.2 2.4-2.8-2.6-.5-3.8-3.2-3.2-3.6.8-.4 4.2-2.6 5-5.7 2.2-2.2-2-2.5-2.1-3.1-.6-.5 1.3-.9 1.4-1.4.6-.4-.7-1.2-1-1.8-.7-1.1.8-.4 5.7 1 5.7.4 0 .8.5.8 1.1 0 .8-.5.8-1.5-.1-1.2-1-1.5-1-1.5.3 0 .9.4 1.8.9 2.1 1 .6.7 8.3-.3 9.3-.3.3-.6-.6-.6-2 0-3.9-1.6-3.3-1.7.6 0 4.1-2.3 9.8-3 7.7a6.5 6.5 0 0 0-1.7-2.2c-.7-.5-.5-.8.5-.8 2.6 0 2.4-7.5-.3-10-1.8-1.7-2-2.3-1-4.5 1.1-2.4 1-2.5-2.3-2.5-2.8 0-3.5-.4-3.5-2 0-2.7-1.6-2.5-5.2.5-3.5 3-4.8 3.1-4.9.8 0-1-.5-.3-1 1.5-.6 1.8-1.8 3.5-2.7 3.8-1 .3-2.4 1-3.3 1.4-1 .5-2.1.4-2.8-.3-1.5-1.5-5.1 2.4-5.1 5.5 0 1.5-.4 1.8-1.8 1.3-4.3-1.8-4.9-1.6-6.4 1.6-1 1.8-1.4 3.8-1 4.6.2.8-1.5 3-4.2 5.4-2.5 2.2-4.6 4.7-4.6 5.5 0 2.2-5.3 7.5-7.5 7.4-10.8-.5-11-.5-12 1.5l-2.4 4.4-1.3 2.4-1.3-2.3-1.2-2.3-.7 2.7c-.7 2.9-2.6 2.6-2.6-.4a3 3 0 0 0-1.8-2.5c-2.4-.9-2.7-.7-2.4 1.6.2 1.2-.7 3-2 4.2a54.2 54.2 0 0 0-4.6 5.2c-1.9 2.4-2.5 2.7-3.3 1.5-.6-1-1.1-1.2-1.7-.4-.9 1.3-10 2.7-10.6 1.6-.3-.5 0-2.7.5-5 1.3-6-2.1-12.4-5.1-9.7-1.7 1.5-1.9 1.5-2.5-.4-1-3-5.5-2.9-5.6.1-.1 1.8-.3 1.7-.8-.7-.7-2.9-.7-2.9-1.5-.7l-.7 2.2-2-2.2-1.8-2.3v3.7c0 3.2-.5 3.9-2.6 4.4-2.7.7-2.9 1.4-2.5 10 .2 6.5-1.3 9.6-4.3 8.9-1.6-.4-3 .3-5.7 3.1-3 3.2-3.6 3.5-3.9 1.9-.2-1-1-2.5-1.8-3.3a3.9 3.9 0 0 1-1-3.3c.3-1 .1-2.1-.3-2.4-.5-.3-.7-1.2-.4-2 1-2.5-1.3-2.5-2.6 0-1.4 2.5-4.7 3-4.3.7.3-1.4-.7-1.5-2.6-.3-1 .7-1.1 1.6-.4 3.8.6 1.6.7 5 .3 7.6-.7 4.6.4 7.4 1.6 4.3 1-2.4 2-2 3.4 1.5 1.2 2.7 1 3.6-.8 7.5a22.6 22.6 0 0 0-2.2 6c0 2.3-1.4 1.6-3.4-1.8a27 27 0 0 1-2.4-9.2c-.3-4.1-1-6.8-2.3-8.2-1-1.1-1.9-2.8-1.9-3.7 0-.8-.5-1.9-1-2.2-2-1.2 1-3.6 3-2.5 1 .6 2 1 2.3 1 1 0 0-6.7-1.3-9.2-1.3-2.7-1.3-2.8-2.7-.8-.8 1.1-1.9 1.8-2.4 1.5-.5-.4-.9.3-.9 1.4 0 1.2-.7 2.1-1.5 2.1s-1.5.6-1.5 1.4c0 .8-.7 1.6-1.5 2-1.7.6-2 3.7-.4 5.3.7.7.7 1.3 0 1.7-.5.4-1.6 0-2.3-1l-2.8-3.3-4.2-5.3c-1.6-2-3.8-4-5-4.3a52 52 0 0 1-5.6-2.1c-6.3-3-9 .6-3.8 5.1a35 35 0 0 1 5.6 9 139.6 139.6 0 0 0 6 12.5l2.6 5.3c.8 1.6 1.4 3.3 1.4 3.8s1.2 2.8 2.7 5c2 3 2.8 5.6 3 9.3 0 2.8.4 6.5.8 8.1l.8 3-2.2-2.4c-2-2.3-2.3-3-2.5-6.1 0-.8-.7-1.5-1.5-1.5s-1.9-.9-2.5-2c-3.6-6.5-4.6-7.4-10.4-8.5-3.1-.7-6.4-2-7.2-3-1.2-1.5-2-1.6-4-.8-1.4.6-2 1.2-1.3 1.5.6.2 1 1.1.6 2-.3.8.6 2.7 2.3 4.4 2.3 2.4 2.5 2.9 1 2.9-1 0-2 1-2.3 2.1-.6 2.1-2.7 2.2-7.8.3-1.4-.5-1 .4 1.8 3.4 2 2.3 3.7 4.7 3.7 5.3 0 1.1 13.4 19.4 15 20.4.6.4.8 1 .4 1.6-.3.6.5 2.3 1.8 3.7 1.4 1.5 4.3 5.2 6.6 8.3a90 90 0 0 0 5.7 7.2c.9 1 1.3 1.7.8 1.7-.4 0 0 .5 1 1 1 .6 1.7 1.7 1.7 2.5 0 .7 1.5 2.5 3.3 4 4 3.3 7.3 8 20.2 28 4 6.2 8.7 19.3 8.3 23.1-.2 2 .1 2.8 1 2.6.9-.1 1 .5.6 2.2-.3 1.5 0 3.9 1 5.8 1 1.8 1.3 3.4.7 3.6-1 .3-.3 4 1 5.8.5.6.6 1.4.2 1.7-.3.4-.1.7.5.7.5 0 1.5 1.2 2.1 2.8 1 2.4 1 2.2.6-1.8l-.5-4.5 2 2.2c1.3 1.7 1.7 3.3 1.3 6.2-.3 2.1 0 4.1.5 4.4.5.4 1.1-2 1.5-5.8.7-9 1.8-10.3 11.4-13 16-4.7 24-5.2 30.5-1.9 1.6.8 7.4 1.9 13.1 2.4a41 41 0 0 1 26.8 11c2.3 2.2 4.7 4 5.3 4l7.6.5c3.6.2 11.4.5 17.5.6a51 51 0 0 1 15.5 2c8.4 3.2 23.5 6.9 30 7.3 3.6.3 9.7 1.2 13.5 2 13 3 16.7 3.6 21.9 3.6 2.8 0 5.8.4 6.6 1 .8.5 1.9.5 2.5 0a85 85 0 0 1 16.2 0c15.5.9 17.8 1.5 24.6 6.3a80 80 0 0 0 7 4.2l7.2 3.9c2.5 1.4 5.6 1.6 19 1.5 14.7-.1 16.7 0 24.4 2.5 4.7 1.4 9.4 2.6 10.6 2.6 1.2 0 4.4.8 7.1 1.9 2.7 1 8 2.9 11.9 4.1a99 99 0 0 1 9.8 3.7 92 92 0 0 0 11.8 3.8c4.8 1.2 9.5 3 10.4 3.8a11 11 0 0 0 3.8 2.3 46.9 46.9 0 0 0 16 6.5c5 1.2 13.3 3.9 18.2 6l17.3 7c4.5 1.8 8.2 3.7 8.2 4.1 0 .4 1 .8 2.1.8s3.5 1 5.2 2.2c4.4 3.2 9.8 5.8 11.9 5.8 1.6 0 5.7 2 16.2 8 9 5 19 8.2 28.6 9 9.8.8 13.7 2 21.8 6.9 2.6 1.6 7 3.6 10 4.6 2.8.9 5.4 2 5.7 2.6.4.5 1.7.9 3 .9 1.2 0 2.8.6 3.5 1.4.6.8 4.4 2.7 8.3 4.2 4 1.4 9.1 3.5 11.4 4.6a48 48 0 0 0 12.5 2.7c7.3.7 9.5 1.3 14.4 4a149 149 0 0 1 13.9 9.4 74 74 0 0 0 6.5 4.4c2 1 6 3.6 9.2 5.6 3.1 2 6 3.7 6.4 3.7.4 0 1.8 1 3 2a44 44 0 0 0 7.1 4.8 121 121 0 0 1 14.8 10l6.3 4a20 20 0 0 1 5.2 4.2 57 57 0 0 0 15.4 13.6 72 72 0 0 1 9.3 6 117.9 117.9 0 0 1 12.4 10.6l7.4 7.3.6-50c.8-76.5 1.1-680.6.3-712.4l-.7-28.1h-156.6l-1.1 4M1 340v305h4.8c8-.1 14-1.9 28.7-8.6 2.8-1.2 6.1-2.6 7.5-3 1.4-.3 3.4-1.3 4.5-2a9 9 0 0 1 4.7-1.4 11 11 0 0 0 4.6-1 97 97 0 0 1 27.7-10 134 134 0 0 0 32.9-11c3.7-1.7 9.1-3.4 12-3.7 2.8-.3 6.2-1.3 7.6-2.2l4.1-2.6 5.8-4c3-2 6.2-3.1 11-3.8l9.6-1.3c1.7-.3 5.7-.6 9-.8 8.4-.5 17-3 23.5-7 9-5.5 9.7-5.7 23.4-7.7 7.2-1 14.4-2.4 16.1-3 9.5-3.4 37.2-4.4 40.5-1.4 2.1 2 5.8 1.5 8.4-1 .8-.8 2.5-1.5 3.8-1.5 1.3 0 4.2-1.7 6.5-3.8 2.3-2.1 6.1-4.4 8.5-5.1 2.4-.7 6.6-2.5 9.3-4 6.2-3.4 16.2-5.8 17.8-4.2.6.6 2.8 1.1 4.8 1.1 2.1 0 4 .5 4.4 1 .4.6 1 .8 1.4.6.4-.3 2.2.4 4 1.5 1.8 1.1 5 1.9 7.5 1.9s4.6.5 4.8 1.1c.3.9 1 .9 2.5 0 1.2-.6 2.9-.8 3.7-.5.9.3 1.6.1 1.6-.5 0-1.8 2.8-.1 3.3 2 .6 2.3-2 3.9-3.3 2-.6-1-1.1-1-2.6-.1-3 1.9-6 6.3-4.6 6.8.7.2 1.2 1.6 1.2 3.1 0 1.6 1.2 4.1 3 6.1 1.6 1.8 3 4.2 3 5.3 0 1.7.5 1.8 3.8 1.3l8-1c3-.2 4.7-1 6.2-2.9 2.5-3.2 7.6-4.7 15-4.3 5.7.2 7.9 1.1 14.7 5.9 5.4 3.8 21.7 4.2 25.5.7a13 13 0 0 1 4.5-2.6c1.3-.4 2.3-1 2.3-1.5 0-.4 1.7-1.1 3.7-1.5a13 13 0 0 0 5.7-2.6c2.5-2.3 9.1-4.1 12.5-3.4 14.7 3 17.1 3.7 17.1 4.8 0 .5.8.7 1.8.4 1-.3 2.8 0 4.2.7 3.6 1.9 19 2.3 19 .5 0-.7 1.6.4 3.4 2.5 3.6 4 4.2 4.3 4.9 2.5.2-.7.3-.5.2.5-.3 1.3.4 1.7 2.7 1.7 2.1 0 4 1 6 3 1.5 1.6 3.7 3 4.7 3s2 .4 2.3.8a12 12 0 0 0 3.8 2.4c6 3 6.2-1.9.4-23-.2-.8-1.3-1.6-2.4-2-1.1-.2-2-1-2-1.9 0-.8-.4-1.2-1-.8-.4.3-1.2 0-1.5-.5-.5-.8-1-.8-2 0s-1.6.7-2.2-.5c-.8-1.4-1.2-1.4-3.5.5-2.5 1.9-5.8 1.9-5.8-.1 0-1.8-3-.8-3.9 1.3-.7 2-1 1.9-3.6-1.8-5.1-6.8-8.5-10.5-8.5-9.2 0 .7-.6.4-1.2-.7-.7-1.1-1.8-2.6-2.5-3.3-.7-.8-1.8-2.3-2.4-3.4-.9-1.6-1.3-1.8-2-.7-.4.7-1.1 1-1.5.6-.4-.4-1.2-.3-1.9.3-1.1 1-6.5-2.8-6.5-4.6 0-.5-1.2-1.7-2.8-2.8-3-2-6.2-7.5-6.2-10.6 0-1.1-.4-2-1-2s-1-1-1-2c0-1.1-.7-2.3-1.5-2.6a3 3 0 0 1-1.5-2.5c0-1-.7-1.9-1.5-1.9s-1.5-.8-1.5-1.8c0-1.9-4.5-7.2-6-7.2-.6 0-1-.9-1-2 0-1-.4-2.1-1-2.5-.5-.3-.7-1.2-.4-2 .4-1-.3-1.8-2-2.5-1.9-.7-2.6-1.7-2.6-3.5 0-2.2-.3-2.5-2.5-2-1.9.6-2.5.3-2.5-.9 0-.9-.7-1.6-1.5-1.6s-1.5.7-1.5 1.5c0 2.7-2 1.6-4-2.4-1-2.1-2.5-4.1-3.3-4.4-.8-.3-1.7-2.7-2-5.5-.4-2.7-1.4-5.5-2.2-6.2a17 17 0 0 1-4.5-9.4c0-1.5-1-2.5-3-3.3-2-.8-3-1.8-3-3.2 0-2-.7-3.8-3.2-8.1l-1.8-3.8c-.6-1.3-2-2.6-3-3-1.1-.2-2-1-2-1.8s-.9-2.3-2-3.4a8.6 8.6 0 0 1-2.1-7.3c0-.4-.8-.7-1.9-.7-1.1 0-2-.7-2-1.5s-.4-1.5-1-1.5-1 .6-1 1.3c0 1.5-4.7-3.9-5.5-6.3-.3-1-1.6-2-2.8-2.4-1.2-.3-4-2.1-6.1-4-3-2.9-4.2-3.4-5.3-2.5-.7.7-1.5 1-1.6.8a32 32 0 0 1-2.7-10.1c0-1.4-.7-3.1-1.5-3.8-.8-.6-1.4-1.5-1.3-1.8.2-1-1.4-4.5-2.8-6.2-.6-.8-1.6-4-2-7-.6-3.7-1.4-5.5-2.4-5.6-3.5-.2-4-.5-4-2.3 0-1-1.4-3.3-3-5.1a13 13 0 0 1-3-4.2c0-1.9-4-6.2-6-6.3-2-.2-3.7 3.7-2 4.3.6.2 1 2.6 1 5.3 0 4.9-2 6.3-2 1.6 0-1.6-.5-1.2-1.7 1.7-1.1 2.7-1.3 4.3-.6 5.5 1 1.8.6 4.1-.8 4.1-.5 0-1.4-1.1-1.9-2.5-.6-1.6-1.4-2.3-2.5-1.9-.8.3-1.5.1-1.5-.5s-.9-1.1-2-1.1c-1.4 0-2-1-2.6-3.5-.6-3.6-4.1-6.5-9.4-8-4.7-1.2-6.8-2.7-10-7.1-2.6-3.4-3.8-4.3-5.3-3.8-1.4.4-1.8.2-1.5-.7.7-2-1-4.9-2.9-4.9-1.2 0-1.4-.7-1-3 .4-1.6.2-3.2-.4-3.5-1.4-1-4.1 1.5-3.5 3.2.6 1.6-1 1.8-2 .2-.3-.6-1.7-.9-3-.6-1.3.2-2.5-.1-2.8-1-.3-.7-1.2-1-2-.7-1 .4-1.6 0-1.6-1 0-.9.4-1.6.9-1.6 2 0 .9-12.4-1.3-14.6-4.4-4.5-6.6-7.6-6.6-9.5 0-2.5-1.7-3.1-8.8-3.3-5.1 0-5.7-.3-6-2.4-.4-2.3-1.6-2.9-2.7-1.2-1 1.8-2.5 0-2.5-3 0-3.1-.9-3.7-2.7-2-.8.9-1.3.9-1.7 0-1-1.5-2.6-1.2-2.6.5 0 .8-.5 1.5-1.1 1.5-.6 0-.9-.6-.6-1.4 1-2.5-1.8-3.8-5.5-2.8-7.1 2-11.2 1-12.4-2.8-.9-2.6-1.9-3.6-4.3-4.3-1.9-.4-3.5-1.7-4-3-.5-1.2-2-3.2-3.5-4.4-1.4-1.3-2.6-3.2-2.6-4.3 0-1.1-.4-2-1-2s-1-1-1-2.4c0-2.2-.6-2.5-5.3-3-7.5-1-8.7-1.5-8.7-3.6 0-1-.5-2.2-1-2.5-.6-.4-.8-1-.5-1.5.8-1.3-2.9-3-5.2-2.4-1.2.3-2.4 0-2.7-.5-.4-.6-2-1.1-3.5-1.1-3.3 0-8.6-5.1-8.6-8.3 0-1.3-1-2.6-2.3-3.2-2.5-1.1-3-2.5-.7-2.5 2.2 0 1.8-1.1-1.2-3.7-1.4-1.3-2-2.3-1.5-2.3 1.7 0 1.5-1.7-.3-2.4-.8-.3-2.1.1-2.9 1-.8.7-2 1.4-2.5 1.4-.6 0-1.1.7-1.1 1.5 0 1.4-.4 1.7-3.3 1.9-1.5.1-1.9-4.7-.3-5.6.8-.5.8-1 0-1.8-.9-.9-1.4-.9-1.8 0-1 1.5-2.6 1.2-2.6-.5 0-2.6-4-6-6.8-6-2.2 0-2.8-.5-3-2.8-.3-2.1-.9-2.7-2.7-2.7-1.8 0-2.3-.4-1.9-1.5.4-.8.1-1.5-.5-1.5s-1.1-1.1-1.1-2.5c0-2-.5-2.5-2.5-2.5-1.4 0-2.5-.4-2.5-1s-.7-1-1.5-1c-1 0-1.5-1-1.5-2.5v-3.3c0-.4-1-1-2-1.4-1.1-.4-2-1.3-2-2 0-.8-1.6-1.4-4.3-1.5-6.4-.2-13-3.5-14.6-7.5a14.2 14.2 0 0 0-7.4-7.8 45.5 45.5 0 0 1-12-13.3c-.3-1-1-1.7-1.5-1.7s-2.2-1.8-3.7-4-3.2-4-3.7-4c-1.2 0-4.7-4.1-4.8-5.6 0-.6-1.7-3.1-3.8-5.5a46 46 0 0 1-8.4-13.2c-1.3-2.6-2.6-4.7-3-4.7-.5 0-.8-1-.8-2.4s-1-3.3-2.5-4.4c-1.4-1.1-2.5-2.4-2.5-2.8 0-.5-2.5-3.7-5.5-7a48.2 48.2 0 0 1-9-12.8c-2-3-3.5-5.6-3.5-6 0-1-6.3-10.7-8.9-13.5a8.6 8.6 0 0 1-2.1-4.6c0-1.3-.7-2.5-1.8-2.7-1-.3-2.8-2.7-4.2-5.4a25 25 0 0 0-5-7.1c-1.6-1.3-3-3.8-3.4-5.6-.3-1.8-2.2-5-4.1-7.1-2-2.1-3.5-4.7-3.5-5.6 0-1-1.2-3.2-2.8-4.8a23.8 23.8 0 0 1-6.1-9c-.7-1.7-2-3.2-2.7-3.2-.8 0-1.4-.9-1.4-2 0-1-.5-2.2-1-2.5-.7-.4-1 101.3-1 304.4m1845-228c-1.4.3-2.5 1.4-2.6 2.3-.2 5-.5 5.8-2.2 5.9-1 0-1.2.3-.5.6.7.2 1.3 1.2 1.3 2.2 0 1-.6 2.3-1.3 3-1 1-1 1.4 0 1.8.7.3 1.3 1.3 1.3 2.2 0 10.7 9.2 13.2 12.5 3.5 1-3 2.2-5.4 2.7-5.4.4 0 .8-2.1.8-4.8 0-5-3-11.2-5.4-11.2-.8 0-2-.2-2.8-.4-.7-.2-2.4 0-3.8.3M1534.3 271a66 66 0 0 0-1.8 4.5c-.6 1.8-.8 1.7-2-1-1.2-2.8-1.3-2.4-1.6 5.8-.2 4.9 0 9.6.5 10.5.6 1 .5 1.7-.2 2-.7.2-1.2 1-1.2 1.8s-.5 1.4-1 1.4-1 1.8-1 4 .5 4 1 4 1 1.1 1 2.5c0 3 2 3.3 2.7.5.4-1.6.9-1.8 2.5-.9 3.2 1.7 5.6-1.2 3.8-4.5-1-2.1-1-3 .3-5.9 1-1.9 2-6 2.3-9.3a33 33 0 0 1 1.6-7.7c1.6-3 .1-6.7-2.6-6.7-1.5 0-2.6-.7-2.9-1.8-.3-1.4-.6-1.3-1.4.8M768 371.1c0 2.8 2 10.2 4.1 15.4 1.9 4.5 2.9 12 4 30.3 1 16.2 1.5 19.2 2.8 19.2 3.1 0 4.4-1.7 3.7-4.5-.4-1.6-1.1-9-1.6-16.5a55.2 55.2 0 0 0-6.7-26.9c-1.3-3-3-8.7-3.6-12.8-1.2-7.4-2.7-9.8-2.7-4.2m9 76.2c0 1.5 14.3 18.6 24 28.7 4 4.1 8.5 9.3 10 11.6 1.6 2.2 4.5 5.3 6.6 6.9l3.7 2.8-.7-2.4c-.4-1.3-1.2-4.4-1.7-6.9-1.6-7.9-1.7-8-5-7.3-3.3.6-7.3-2-6.5-4.4.3-.8-.2-1.3-1.3-1.3a3 3 0 0 1-2.5-1.5c-.3-.8-1-1.5-1.5-1.5-.9 0-3.4-2.3-9.6-9a7.7 7.7 0 0 1-1.5-4.6c0-2-.3-2.5-.9-1.6-1.4 2.3-4.9-.6-7.4-6-2-4.5-5.7-6.7-5.7-3.5m283.8 6.2c-1.6 2.5-2.8 5-2.8 5.5 0 1.3-2.3 1.3-3.7 0-1-1.2-4.6 5.1-5.9 10.6a13 13 0 0 1-2.5 4.9l-4.3 4.8a11.5 11.5 0 0 0-2.6 3.6c0 .5-.7 1.1-1.5 1.5-.8.3-1.5 1.2-1.5 2 0 .7-.7 1.6-1.5 2-.8.3-1.5 1-1.5 1.7 0 .6.7.9 1.5.5 1.9-.7 2 .5 0 3-1.4 1.8-1.4 1.8-1.5 0 0-1.1-1 .1-2.6 3a35.8 35.8 0 0 1-5.5 7.7c-1.6 1.5-2.9 3.4-2.9 4.1 0 .8-.7 1.7-1.6 2-.8.3-1.3 1-1 1.6.4.5-.2 1.8-1.4 3-1 1-2 2.6-2 3.3a13 13 0 0 1-3 4.6c-1.5 1.9-2.6 4-2.3 4.8.3.8-.2 1.3-1.2 1.3-1.1 0-1.5.5-1.1 1.5.3 1-.6 2.8-2.5 4.7-1.6 1.8-2.8 3.7-2.5 4.4.3.7-.4 1.4-1.4 1.7-1 .2-2.4 1.7-3.1 3.3-1.6 3.3-7.3 4.8-6.2 1.6.6-1.5.5-1.5-1-.3-2 1.6-3.6.3-3.7-2.6 0-.7-.7-1.3-1.5-1.3s-1.5.7-1.5 1.6c0 .8-.4 1.3-.9 1-.5-.3-1.4 0-2 .8-1 1-.9 1.5.1 2 .8.3.7.5-.4.5-1 0-2.2.9-2.7 1.9-.8 1.4-1 1-1.1-2.3 0-4 0-4-1.5-1.5-.8 1.4-1.4 3.4-1.5 4.5 0 1.1-2 4.3-4.5 7l-4.5 5-.2-3.5c0-2-.2-4.4-.3-5.5 0-1.1-.4-2.6-.8-3.2-1-1.5-4-.5-3.4 1 .6 1.7-1.2 4.9-2.4 4.2-.5-.4-2.3 0-3.9.8a9 9 0 0 1-6.6.7c-2.3-.5-4.5-.5-5.6 0-2 1.1-5.7.5-9.7-1.6-1.4-.8-3.2-1.4-3.9-1.4-.6 0-1.2-.4-1.2-1 0-2-5-2.3-6.5-.4-.8 1.1-1.5 1.4-1.5.6 0-.6-1.2-1.2-2.8-1.2-1.5 0-3.3-.5-3.9-1.1-2.5-2.5-8 3-6.6 6.7.3.8.1 1.4-.3 1.4-2 0-3-1.7-2.9-4.6.2-1.7 0-4.3-.2-5.8-.5-2.5-.6-2.5-1.9-.9-1.1 1.5-1.3 1.6-1.4.2 0-1-.8-1.5-2.3-1.5-2.6.1-3.8-5-1.5-6.6 1-.6.7-1.3-1.2-3-3-2.4-3.3-9.7-.6-12.7 1.2-1.3 1.3-2 .4-3-1.5-1.4-4.5-1.5-5.3 0a29 29 0 0 1-9 4.3c-.5 0-1.5.5-2.2.9-1.3.8-2.7-.8-1.9-2.2.4-.5.4-1.6 0-2.4-.6-1.7-5.4-1.8-5.4 0 0 .6-.5 1.5-1.2 1.9-.8.5-1 0-.6-1.4.4-1.5.2-2.2-.7-2.2-.7 0-1.6 1.3-2 3-1.6 7.3-6.9 6.6-7.7-1-.5-4.4-2.3-4.9-3.7-.9-1.4 4.1-1.5 3.8 1.4 4.9 2.4 1 3.6 4 1.5 4-1.7 0-1.1 3.6 1 6 1.1 1.3 2 3 2 3.7 0 .7.3 1.3.8 1.4 5 .5 6 1.6 5.4 6-.4 3-.6 3.1-1.8 1.4-.8-1-1.4-2.7-1.4-3.7s-.6-1.8-1.4-1.8c-.8 0-2-.3-2.9-.6-1-.3-1.6.3-2 2-.3 2.1-.1 2.5 1.2 2.1 1.1-.3 2 .5 3 2.5.7 1.7 2 3 3 3 2.4 0 4.3 2.3 3.5 4.3-.3 1 .2 2 1.5 2.9 1.4.8 2.1 2.3 2.1 4.3 0 1.7.7 4 1.5 5 2.9 4 1 4.8-3.2 1.5-1.4-1-3-1.7-3.6-1.3-.5.3-1.5-.1-2.2-1-1.7-2.3-11-13-18-20.7-3.4-3.6-7-7.8-8-9.3-2.4-3.7-3.7-1.7-2 3.1.9 2.8 3.6 5.7 5.1 5.7.1 0 .5 1 .8 2.3.6 1.7.3 2.2-1.2 2.2-2.7 0-3.3 1-1.7 2.6 1.2 1.2 1.2 1.8 0 4.2a12 12 0 0 0-1.4 4.7c0 1.7.2 1.7 1.1-.5l1.1-2.5.7 3c.5 2.3.9 2.6 1.4 1.4.7-1.7 5.6-1.5 5.6.3 0 .5.5.6 1 .3.6-.4 1 .5 1 2 0 1.6.6 2.5 1.5 2.5 1.6 0 1.7 3 .2 4.1-1.2.8 6 4.9 8.5 4.9 2 0 2 .1.5 1.8-1 1-1.3 2.3-.8 3 .7 1.1 1 1.2 1.3.2.3-1 1.1-.8 3.3.6 1.6 1 3 1.8 3.2 1.6 1-.9 3.2.1 3.6 1.8.3 1 1.7 2.4 3.2 3 2.8 1 5 .5 4-1-.4-.6-.1-1 .4-1 .6 0 1.1.3 1.1.8 0 1.3 5.6 3.2 15.6 5.2l12.4 2.5c14 3.1 23.6 3.6 25.1 1.2.4-.5 5.2-1 10.7-1.2 5.5-.2 11-.6 12.2-1 1.6-.5 2-.4 1.5.5s-.2 1 1.4.5c1.6-.5 2-.3 1.5.8-.7 2 3 3.1 5.5 1.8 1.3-.7 2.2-.8 2.6-.1.3.5 3 1 5.8 1.1 8 .2 11 1.1 12.2 3.7 1 2.3 3.8 3.2 3 .9-.5-1 .2-1.2 2.5-1 2.8.5 6.5-.7 12-3.8.8-.5 5.5-3 10.5-5.5s9.5-5 10-5.3c.5-.5 2.3-1.1 4-1.5 1.7-.4 3.7-1.5 4.5-2.4 4-4.4 15-19.1 15-20 0-.7.7-1.2 1.5-1.2s2.3-1.5 3.2-3.4a12 12 0 0 1 4-4.8c4.4-2.3 11.7-9.5 10.4-10.2-.6-.4-1.5-.4-2.1-.1-.5.3-1 .1-1-.4 0-.6.5-1.1 1-1.1s1-.5 1-1c0-.7-.6-.7-2 0-1.1.6-2 .7-2 .3 0-.5-1.3-1.4-3-2.1-2.8-1.3-9 .3-11 2.8-.3.4-1.3 1-2.3 1.3-1 .4-1.8 1.8-1.8 3.4-.1 2.3-.3 2.4-.6.6-.3-1.4-1-2-1.9-1.6-.8.3-1.4 0-1.4-.6s-.6-.8-1.4-.5c-1.8.7-2.2-12.1-.4-13.3 1.5-1 4.8-6.6 4.8-8.1 0-.6-.9-1-2-1-1.2.2-2 1-2 2 0 1.5-.5 1.8-2 1.3-1.1-.4-2-.2-2 .4 0 1.9-1.7 1.2-2.3-.8-.3-1.3-1.7-2.2-4.1-2.6-4-.8-5.2-2-3.8-3.8.5-.7 1.2-2.2 1.5-3.5.4-2 .2-2.2-1.4-1.7-1.8.6-1.9.5-.8-1.4.7-1 2.2-2 3.3-1.8 1.4.1 2.7-1 4.3-3.8 2.8-4.9 2.9-5.9.4-4.5-3 1.6-3.3 1.2-1.4-2 2.8-4.8 6.1-6.6 8.2-4.5 1.5 1.5 1.4 1.8-.6 3.5-2 1.5-2 1.9-.7 2.4 2.2.8 2.4.8 2.2-.6-.2-.8.7-1.2 2.4-1 1.9.2 3-.3 3.8-1.7.6-1.2 2.4-2.8 4.1-3.7 1.7-.8 2.9-1.8 2.6-2-.3-.3-1.4 0-2.6.5-2.3 1.3-2.7.9-3.6-4.2-.7-3.5-.6-3.7 1.8-3.7 1.4 0 2.7.6 3 1.3 1 2.6 3.1-1.3 3-5.3-.2-3 .2-4 1.3-4 1 0 1.3-.7.9-2.3-.5-1.7.4-3.1 3.5-6.2 2.2-2.1 4-4.5 4-5.2 0-.8-1.9.4-4.2 2.7-5 4.8-7.1 5.2-6.2 1.3.8-3 4-8.3 5.3-8.3 1.3 0 5.2-8 5-10-.3-1.7-1-1.2-3.2 2.5m71.8 38.2c-.2.7-1 1-1.9.7-.8-.3-1.7 0-2 .5-.4.6-1.3.8-2.1.4-.8-.3-1.5 0-1.5.6s-.6 1.1-1.4 1.1c-.8 0-1.7.7-2 1.6-.3.8-1 1.2-1.7.9-.6-.4-1.3.2-1.6 1.4-.3 1.3-1.2 2-2.2 1.9-.9-.2-1.5.3-1.3 1 0 .6-.4 1.2-1.2 1.2-.8 0-2.2.7-3.1 1.7-1.4 1.4-1.8 1.4-2.6.2-.7-1.2-.9-1.1-.9.2 0 1-.8 2-1.7 2.3-1.4.6-1.5.9-.4 1.5 1.9 1.2-.3 2.7-4.5 3-1.3 0-1.4.4-.5 1.5.9 1 .8 1.6-.4 2.6-.8.7-1.3 1.6-1 2 .3.5-.2 1.5-1 2.3-.8.9-1.5 2-1.5 2.5s-.7 2.3-1.5 3.8c-.8 1.6-1.5 2.3-1.5 1.6 0-.6-.4-1.2-.9-1.2-.4 0-.8 1-.7 2.3 0 1.2-.3 2.5-.8 2.9-1.4 1 0 2.2 1.4 1.3.6-.3 2.5-2.8 4.3-5.4 1.7-2.7 5.2-7.1 7.7-10a149 149 0 0 0 6.6-7.8 77.6 77.6 0 0 1 22.9-12.7c3.7-1.6 5.1-2.5 3.8-2.6-3 0-3-1.8-.1-2.2 1.2-.2 2.3-.8 2.5-1.3.5-1.5-6.6-1.2-7.2.2m-256 36.2c-2.4.5-3 1.2-3.3 3.5-.2 1.8-1 3-2.4 3.4-1.2.3-1.8 1-1.4 2 1.9 6.2 3.5 9.4 5.9 11.8 2.6 2.6 3.6 2.3 1.8-.5-.6-1 .5-2.8 4-6.2 3.7-3.7 4.9-5.6 4.8-7.6-.2-2.4-.2-2.5-.6-.5-.2 1.2-.8 2.2-1.2 2.2-1.6 0-3-2.6-2.5-4.6.7-2.7-1.4-4.2-5.1-3.5m-477 21.6a25.6 25.6 0 0 1-7.8 2.4c-1.5 0-2.7.6-2.7 1.1 0 .5-1.1 1-2.5 1-1.6 0-2.5.6-2.5 1.6 0 1.1.6 1.4 2.1.9 1.8-.6 7.5-.7 14.4-.3 7.7.5 9.3 0 10-3.8.7-4.2.7-4.2-3-4.8-2-.3-4.9.4-8 1.9m-117.2 28.9c-2.3 4.6-2 7.1 1.6 13.5 1.8 3.3 10.2 2.5 13.2-1.3 1-1.3 3.9-3.6 6.3-5s5.3-4.1 6.5-6c2.5-4.4 2.4-4.4-7.9-3.2a38 38 0 0 1-9.8-1l-7-1.4c-.5 0-1.8 2-3 4.4m908.9 46.6a680.6 680.6 0 0 0-27.8 18 228.2 228.2 0 0 1-23.1 14.8c-6.6 4-11 5.9-14.3 6-1.1.1-1.7.7-1.4 1.3.4.6 0 1-.7.8-2.1-.4-7.8 1.2-7.8 2.2 0 .5-.7.9-1.5.9s-1.5.4-1.5 1c0 .5-.9.7-2 .5-1.2-.2-2.5.4-3.4 1.6-.8 1.2-2.8 2.1-5.2 2.3-2.7.3-4 1-4.8 2.5-1 2.3-5.1 3-5.9.9-.3-1-.7-1-1.7-.1-1 1-.7 1.3 1.4 1.9 1.4.3 2.6 1 2.6 1.3 0 1.2-9 5-9.6 4-.3-.5-1.5-.9-2.7-.9-1.2 0-2.8-.9-3.5-2-.7-1.1-1.8-2-2.5-2-1.7 0-4.1-4.4-3.4-6.3.3-.7-.3-1.9-1.3-2.5-1.5-1-2-.7-2.5 1.5-.6 2.4-.7 2.5-2 .7s-1.4-1.8-2-.1c-.5 1-1.4 1.6-2.4 1.3-2.5-.8-5 1-2.7 2 1.8.7 1.7.8-.5 1.6-2.3.9-2.3 1-.4 2a11 11 0 0 1 2.7 2.1c.3.6 1.4 1.2 2.3 1.3 2.4.4 3.1 1.4 1.6 2.3-1 .7-.9 1 .8 1.6 2.7.8 1.8 2.5-1.4 2.5-1.5 0-2.6-.7-3-2-.3-1-2-2.7-3.6-3.7-2.7-1.6-3.3-2.6-3-4.5 0-.4-.8-1.2-1.9-1.8-1.2-.6-1.7-1.7-1.4-2.8.4-1.3.3-1.4-.4-.4-.7 1-1.2.5-2.2-1.9-1.2-2.7-1.1-3.3.2-4.3 1.2-1 1-1.4-1.9-2.7-3.1-1.6-3.3-1.6-2.9 0l1.5 5.6a46 46 0 0 0 8.7 15.2c1.7 1.8 1.8 4 .2 4.6-1 .4-1 .8.2 1.7 1.2 1 .8 1-1.9.6-2-.4-4-.1-4.9.6-1.1 1-1.7.9-2.7-.5-1.6-2.2-2.5-2.2-2.5.2 0 2.4-2.5 3.4-5 2-1.7-.8-2-.6-2 1.6 0 1.8-.5 2.5-2 2.5-1 0-2 .5-2.2 1.1-.2.6-2.3 1.2-4.6 1.3-2.7 0-4.2.5-4.2 1.3 0 1.4-1 1.6-4.8 1.3-1.3 0-2.2.4-2.2 1.2 0 1.5-5.8 4-7.1 3.2-.5-.3-.9 0-.9.5 0 .6-.8 1.1-1.8 1.1-3 0-5.5 2.6-4.7 5 .8 2.6-2.8 2.8-4.7.2a9 9 0 0 0-3.3-2.6c-1.3-.5-1.5-1-.8-1.3.7-.3 1.3-1 1.3-1.5 0-.8-1.7-.6-5.6.9-.6.2-1.4-.5-1.7-1.6-1-3.7-2.9-2.4-2.1 1.4.7 3.7-1.7 5.3-3 2-1-2.5-4.5-1.8-5.2 1-.3 1.4-1.1 2.5-1.8 2.4-3.2-.4-4.5.2-4 1.7.4.8 1.3 1.3 2.1 1 2-.8 3.9.4 2.2 1.5-2.2 1.4-5.9 1-5.9-.5 0-1.7-2.6-4-3.4-2.8-1 1.6.6 5.2 2.3 5.2 1.4 0 1.3.2-.2 1.1-1.3.8-2.2.8-3 0-1.5-1.5-4-.2-2.6 1.5.9 1 .8 1.4-.2 1.5-3.2.2-5.2.8-6.7 2.3a29 29 0 0 1-8.2 3.2 20 20 0 0 0-7.3 3.1c-.4.7-1.6 1.3-2.6 1.3s-2.1.3-2.5.8c-.4.4-1.5.7-2.4.7-3.2 0-12.2 4-12.2 5.3 0 .8-.8 1-2.8.6-1.5-.4-2.4-.3-2 .1.8.9-1.9 2-12.2 5.4-9.6 3.1-20 5-34.3 6.3-7.9.6-13.2 1.5-12.5 2a8 8 0 0 0 3.5.8c1.3 0 2.3.5 2.3 1 0 1.3 2.5 1.3 6.4 0 2.8-.8 23.6-5.3 39.8-8.6a52 52 0 0 0 11.9-4c2.8-1.4 5.7-2.3 6.4-2 .7.2 1.6 0 2.1-.4s5.6-2 11.3-3.4a110 110 0 0 0 20.5-7.6c5.6-2.7 15.5-6.5 22.1-8.6l16.3-5c2.3-.8 5.3-1.4 6.5-1.4 1.2 0 4-.9 6.2-1.9 2.2-1 6.3-2 9-2.4 2.8-.4 7.3-1.6 10-2.6 2.9-1 7.7-2.2 11-2.5a27 27 0 0 0 6.9-1.4c.6-.5 2.6-.9 4.3-.7 1.8 0 3.3-.1 3.3-.5s2.6-1.3 5.8-2c3.1-.6 6.6-1.6 7.7-2a164.4 164.4 0 0 0 27.3-11.2c2.3-1.2 4.2-2.5 4.2-3 0-.4.7-.8 1.5-.8s1.5-.4 1.5-.9 1.4-1.4 3-2.1c1.8-.7 4.7-2.8 6.6-4.7 2-1.8 4-3 4.4-2.8.6.4 1-.1 1-1s.5-1.3 1-1c.6.4 2.5-.2 4.3-1.3a33 33 0 0 1 6-2.6c1.6-.4 3.8-1.6 5-2.6 1.1-1.1 2.7-2 3.4-2 .7 0 1.3-.5 1.3-1 0-.6 1.1-1.5 2.4-2 1.4-.5 4.8-2.5 7.5-4.5 2.8-1.9 5.6-3.5 6.1-3.5.6 0 .9-.4.6-.8-.2-.4 1.5-2 4-3.6 2.4-1.5 4.4-3.2 4.4-3.7s1.2-.9 2.6-.9c1.4 0 2.3-.4 1.9-1-.3-.5 0-1 .6-1 .7 0 3-1.1 4.9-2.5 2-1.4 7.6-3.4 12.5-4.6a101 101 0 0 0 15-4.9 67 67 0 0 1 8.8-3.4c3.3-.8 2.8-2.5-.6-1.9-3.2.6-3.2-2.5 0-3.3 1.2-.4 2-1 1.8-1.4-.3-.5.3-1 1.2-1.3 1-.3.3-.5-1.6-.6-3.3 0-3.4-.2-1.5-1.6 1.8-1.4 1.8-1.4-.5-1.5-2.4 0-2.4 0-.5-1.5 1-.8 3-1.5 4.2-1.5 1.2 0 2.2-.5 2.2-1 0-3.2-6.9-.1-25 11m-1037.8 0c-2.3 1.6-4.9 3-5.7 3-.8 0-1.5.7-1.5 1.5a3 3 0 0 1-1.4 2.2c-.8.5-1.5 3-1.7 6.3l-.4 5.5h6.2c4-.2 7-.8 8.7-1.8 1.4-1 3-1.7 3.7-1.7 1.5 0 5.5-4.3 7.5-8.2 4.5-8.6-6.3-13.4-15.4-6.8m400 1.3a9.5 9.5 0 0 0-.6 4.8 15 15 0 0 1-1.8 6.9c-4 7.7-16.2 10.1-33 6.5-2.9-.7-5.7 2.4-3 3.3 2.3.7 1.2 2.4-1.2 1.8-2-.5-2.6 0-3.6 2.4-1.6 3.8-2.3 3.8-4.3-.3-1.6-3.2-1.6-3.2-1.6-.6-.1 4.4-7.1 5-7.1.7 0-1.5-.3-1.8-1.3-1-.6.5-2.7 1.3-4.4 1.7-2.4.5-3.3 1.2-3.3 2.7 0 1-.9 3.1-2 4.5s-2 3.1-2 3.7c0 .7-1.4 2.5-3 4.1-2.1 2-3 3.8-3 6 0 1.8-.6 3.8-1.4 4.4-1.4 1.2-1.2 3.3.9 8.4.5 1.3.2 1.7-1.4 1.7-1.8 0-2.1.6-2.1 4 0 3.3-.3 4-2 4s-2-.7-2-4c0-3 .4-4 1.6-4 1 0 1.4-.5 1-1.6-.3-.9-.6-2.8-.6-4.2 0-2.6-.1-2.6-1.5-.8-2.8 3.7-6.7-6-5.2-12.9 1.3-6.3 1-8.8-1.3-10.7-1.2-1-1.8-1.8-1.2-1.8.5 0-.3-1.4-1.8-3s-3.3-3-3.9-3c-.6 0-1.1-.5-1.1-1s-1-1-2-1c-1.1 0-3.8-1-5.9-2.4-5.8-3.7-19-6.2-24.9-4.8a120 120 0 0 1-11.2 1.8c-4.1.4-7.2 1.3-8.5 2.4a13 13 0 0 1-4.7 2.5 6.3 6.3 0 0 0-4 3.6 9.3 9.3 0 0 1-4 4.2c-1.6.6-2.8 1.5-2.8 1.8 0 .4-.9.9-2 1.2-1.1.3-2 0-2-.6 0-1.3-4.5-3.7-6.7-3.7-.7 0-1.3-.4-1.3-1 0-.4-1-1-2.2-1.2-1.3-.2-2.4-1.1-2.6-2.1-1.1-5.7-8.2-6.7-8.2-1.3 0 1.3-1.1 4-2.5 6-2.5 3.6-3 9.2-1 10 .6.2 1.7 2.3 2.5 4.7a17 17 0 0 0 2.6 5.4c.6.5 1.9 3.3 2.8 6.2 1.9 6 2 6.6.7 5.9-.5-.4-.7 1.2-.4 3.5.4 2.9.2 4.4-.8 5-1 .6-1 .9-.1.9.6 0 1.2.7 1.2 1.5 0 1-1 1.5-3.3 1.5-3.7 0-11-2.4-10.1-3.3.8-.8-2.8-5.6-4.2-5.7-4.9-.1-8-7.2-8.9-20.3-.6-9.8-6.2-17.7-12.4-17.7-3.2 0-10.1 4.3-13.6 8.6-2.8 3.4-4.2 4.3-5.6 3.9a4 4 0 0 0-3.4.5c-.9.7-2.2.9-3.2.4-4-1.7-12.3.3-15.3 3.7-.3.3-1.3.8-2.3 1.2-1 .4-1.6 1.1-1.2 1.6.3.5-.4 1.2-1.5 1.6-1 .3-2 1.2-2 2 0 .7-.6 1.5-1.3 1.8-1 .4-2.1 2.3-6.8 12a9 9 0 0 0-.9 3.2c0 .8-.5 1.5-1 1.5-.6 0-1.4.8-1.7 1.8-.4 1-1.3 2.3-2 3-.7.7-1.3 2.2-1.3 3.3 0 1-.4 1.9-.9 1.9s-1.1.8-1.5 1.8c-1.2 3.6-4.8 8.2-6.5 8.2-.6 0-1.1.5-1.1 1 0 2.4-5.9.5-6.4-2.1l-.8-2.9a59.4 59.4 0 0 1-2.8-15.4c0-6-2.2-8.5-8.6-9.5-8.5-1.3-20.7 6.1-26 15.8-1.1 1.9-2.8 3.5-3.8 3.7A56.3 56.3 0 0 0 192 721c0 2.4-4 4.9-6.5 4-1.1-.4-3.6 0-6 1a29 29 0 0 1-8 2.1c-2.2.1-4.7.8-5.5 1.5a34 34 0 0 1-6.6 3.2 41 41 0 0 0-8.6 4.6c-4.2 3.1-4.7 3.2-9.8.7a17 17 0 0 0-16 2.3c-.9.9-2.6 1.6-3.8 1.6-3.1 0-13.6 6.5-14.7 9.2-.5 1.2-1.7 2.3-2.5 2.3-2 0-2.5 3.2-1 6 3 5.5-5.4 23.5-10.7 23.5-.6 0-1.6.6-2.2 1.4-1.6 2-7.7 2.7-12.8 1.5-4-.8-4.6-.7-6.2 1.2-1.6 2-1.8 2-3.2.6-4-4.5-4.2-4.9-3-5.7.7-.4 1.2-1.8 1-3.1-.3-4.3 0-5 3.1-6 1.7-.6 3-1.6 3-2.2A38 38 0 0 1 82 760c.6 0 2.2-.7 3.5-1.6 3-2 3.3-9 .6-11-.9-.7-1.6-1.6-1.6-2a23 23 0 0 0-3.1-6.3c-.5-.5-3.3 3-3.4 4.2 0 .5.9.5 2 .2 2-.6 3.1 2.9 1.2 3.7-.4.1-2 2.5-3.6 5.3-4.1 7.2-8 10.5-12 10.3-1.8 0-3.8.2-4.4.6-1.9 1.1-1.4 8.2.8 12.2 1.6 2.7 1.8 4 1 5-1.3 1.4-.4 5.4 1 5.4.6 0 1 2.6.9 5.8l-.2 5.7-5.5 4c-9.2 6.7-9.5 7-8.7 10.4 2.2 10.3-.6 19-7 21.1-2 .6-3.5 1.6-3.5 2 0 .6-1.1 1.2-2.5 1.6-2.8.7-5.6 3.4-3.5 3.4 1 0 1 .4.2 1.3-1.3 1.5-1.3 3.7 0 14.2 1.7 12.5 1 16.7-3.2 18-1.1.3-2 1.3-2 2.2 0 1.2-.8 1.4-3.7 1a14 14 0 0 1-10.3-7.4c-1-1.8-2.8-4.3-4-5.7-2.2-2.2-2.4-3.4-2.6-13-.1-6 .2-10.6.7-10.6.5 0 1.4-1.1 1.9-2.5 1.5-4 4.3-7.7 4.9-6.7.3.6 1.5 1 2.6 1.2 4.5.5 5.4 0 5.7-3.3.2-2.2 1-3.5 2.6-4.2A3.6 3.6 0 0 0 29 821c0-1.4.3-3.5.6-4.8.6-2 .3-2.2-2.5-2.2-1.7 0-3.1-.3-3.1-.8 0-1.4-6-1-6.1.4-.6 6-8 16.2-9.9 13.4-.8-1.2-1-1-1 .8 0 1.4-.6 2.2-1.8 2.2-5.2.1-5.2 0-5.2 38.4 0 23 .4 35.6 1 35.6s1 .6 1 1.3c0 1.6 4.1 6.2 6.3 7 1 .4 1.7 1.7 1.7 3.5 0 2.7.3 3 4.6 3.6 9.4 1.2 10.3 1 12-3.4 1-2.4 2.3-4 3.3-4 2 0 4.4-6 4.5-11.7 0-2.3.3-4.1.6-4.1 3.5.3 4.8-.5 5.3-3 .3-1.5 1.5-3.8 2.6-5 1-1.3 2.3-3.7 2.6-5.3.4-1.6 1-2.9 1.6-2.9.5 0 .9-.9.9-2 0-1 1.3-4.4 3-7.5 1.6-3 2.7-6 2.4-6.8-.3-.8.2-2 1-2.7a4 4 0 0 0 1.6-3.1c0-1.6.8-1.9 4.5-1.9 4.3 0 4.4 0 5.1-3.8.4-2 1.3-4.6 2-5.7.8-1 1.4-3 1.4-4.2 0-1.3.5-2.3 1-2.3s1-.9 1-2c0-1 .5-2.2 1-2.5.7-.4.8-2 .5-3.5a9 9 0 0 1 .9-5.7 30 30 0 0 0 2.1-6.6c.5-2.7 1.2-3.7 2.6-3.7 1.5 0 1.9-.7 1.9-3.4 0-3.3.2-3.5 5-4.5 5.8-1.2 9.8.1 12.5 4.2a17 17 0 0 0 5.4 4.5c2 1.2 4.4 2.9 5 3.7.8.8 2.2 1.5 3.2 1.5 2.3 0 3.9 3.6 3.9 8.6 0 2.3.5 3.4 1.4 3.4a5 5 0 0 1 3 1.6c2.1 2 6.4 1.3 13-2.2A53 53 0 0 1 150 828c1 0 2-.5 2.2-1.1.3-.9 1.3-.9 3.8 0 2.5.7 4.6.7 7.5 0 8.4-2.3 11.2-2.3 12.5 0 1.5 2.8 5.1 2.4 6.5-.6.7-1.7 1.8-2.3 4.1-2.3 2.9 0 3.2-.4 3.9-3.6.7-3.8 1-4.3 6.3-10.2 1.8-2 3.8-5.1 4.4-7 .7-1.7 1.6-3.2 2-3.2.6 0 .7-1.3.3-3-.8-3.8 3.2-13 5.7-13 1.4 0 1.8-.9 1.8-4 0-2.2.4-4 1-4s1-.9 1-1.9c0-3 6.4-11.5 9-12.1 3.4-.9 9 .8 12.3 3.6 1.6 1.3 4 2.4 5.2 2.4 2 0 2.7.8 3.6 4 .7 2.2 1.7 4 2.3 4 .5 0 2.5 1.4 4.3 3.2l3.2 3.1 4.3-2.2c6.1-3.1 7.3-4.2 9.3-8.1 2.3-4.6 3.3-5.1 7.7-4.4 3.3.5 3.8.3 4.3-1.9.5-1.9 1.1-2.3 3-2 5.2 1 14.5-3 14.5-6.2 0-.4.7-1.3 1.5-2.1.8-.9 1.5-2.9 1.5-4.5s.4-2.9 1-2.9c.4 0 1.1-.8 1.4-1.8.5-1.4 1.7-2 5.3-2 2.6-.2 5-.7 5.4-1.3.4-.7 1.1-.9 1.7-.5a47.5 47.5 0 0 0 16.4 2.5c.7-.5 4.6-.9 8.6-.9 6.8 0 7.3.1 8.2 2.5 1 2.8 2.5 3.2 3.4 1 .4-1 2-1.5 5-1.5 4.4 0 4.6.1 4.6 3 0 3.3.6 3.6 3.4 1.5 1.1-.8 3-1.5 4.3-1.5 1.3 0 2.3-.3 2.4-.8l.6-3.7c.2-1.6.5-3.9.5-5-.1-7 1-10.5 2.8-9.5 1.3.7 2.1.6 3-.5 1.5-1.8 4.2-2 5.8-.3 1 1 1.2 1 1.2 0s2-1 7.4-.7c6.3.5 7.6.3 8.4-1.1.5-1 2.2-1.7 3.8-1.8 2.3 0 3-.7 3.7-3.2.6-2.2 1.8-3.4 4.1-4.2 4.2-1.6 4.6-1.5 4.6.5 0 1.7.1 1.7 1.4 0 1.6-2.1 4.2-2.2 5-.2.3 1 1.9 1.5 4.3 1.5 2.1 0 5.8.5 8.3 1 3.1.8 4.6.8 4.8 0 .5-1.4 4-1.3 4.4.2.6 1.7 3.4-1 4-3.8.2-1 1-2 1.8-2l6.2-.9c2.6-.3 5.5-1.3 6.3-2.1.8-.9 1.5-1.2 1.5-.7 0 .4 2 .7 4.5.5 3.3-.3 4.5 0 4.6 1l.5 6.4c.3 4.3 0 5.3-1.3 5.8-2.2.7-5 2.5-7.7 5-5.8 5.1-9.4 6.7-13.8 5.7-4.5-1-6.2-.5-9.2 2.8-1 1.2-3.1 2.1-4.7 2.1s-3.6.8-4.6 1.8a86.7 86.7 0 0 1-36.3 15.8c-2.2.4-4 1-4 1.4 0 .9-4.4 2.8-7.8 3.5-1.2.2-2.7.7-3.2 1-.5.3-1.7.2-2.5-.3-2.5-1.3-13.7.4-15.1 2.3-.7.9-2 1.8-2.8 1.9-.9.1-3 1.6-4.9 3.3-4.2 4-9 6.8-15.2 8.8-4.8 1.7-7 3-14 8.8-1.8 1.5-4 2.7-4.9 2.7-.9 0-1.6.4-1.6.9s-3.6 2-8 3.4c-9.6 3.1-17.7 10.2-18.7 16.3-.3 1.9-1 3.4-1.4 3.4-.4 0-2 1.1-3.4 2.4-2.9 2.7-3.2 7.4-.5 6.8a24 24 0 0 1 4.5-.4c1.6 0 4-.7 5.2-1.4 2.3-1.5 6.3-.2 6.3 2 0 .5 1.2 2 2.7 3.3 2 1.8 2.3 2.7 1.3 3.3-.9.5-1 1 0 1.5.6.4 1.7.1 2.5-.5 1.3-1 1.5-.8 1.5 1.3 0 1.4-.7 2.7-1.5 3-3.3 1.3-1.2 2.7 4 2.7 4.8 0 5.5-.2 5.5-2 0-1.1.6-2 1.3-2 .7 0 3.7-1.6 6.7-3.5 5.9-3.7 12-4.7 12-2 0 .8-.9 1.5-2 1.5-1.4 0-2 .7-2 2.1 0 1.2-1.1 3-2.5 4-2.8 2.3-3.4 5.9-1 5.9.9 0 2-1 2.5-2.3.7-1.9.9-1.6 1 1.8l.2 4 1.2-4 1.3-4 1.3 4.5c1.3 4.7 2.8 3.8 3-1.8 0-1.5.6-2.2 2-2.2 2.3 0 2.7 1.5.5 2.4-.8.3-1.5 1.7-1.5 3 0 1.5-.4 2.6-.8 2.6-.7 0-4.2 6.3-4.2 7.5 0 1 2.9.4 3.4-.8.5-1 .7-1 1.2 0 .8 1.7 2.4 1.6 3.8-.2.6-.9 3.5-1.8 6.6-2.2 5.6-.6 8-2.3 8-5.6 0-1.1 1.2-2.3 3-3 1.6-.6 3-1.7 3-2.4 0-1 2-1.3 7-1.3h7v4c0 3.7 1.3 5.5 2.2 2.8.2-.6 1.2-.9 2-.5 1 .4 1.5 1.2 1.2 2.2-.3.8-.1 1.5.5 1.5s1.1-.5 1.1-1 1.4-1 3-1c4 0 4 3.4.4 9.2-1.5 2.3-2.2 4.4-1.7 4.5.6.2.8 2.7.7 5.6-.2 2.9-.1 4.6.2 4 .3-.7 1-1 1.6-.7.7.4.6 1-.2 1.4-.7.4-1 1.6-.8 2.6.3 1.8.5 1.8 2.3-.4 1-1.2 2.5-2.2 3-2.2.8 0 1-1 .7-2.5-.2-1.5 0-2.5.7-2.5.6 0 1.1.8 1.1 1.8 0 1.3.2 1.4.9.4 1.3-2.1 8.1-3.3 8.8-1.6.8 2.1 2.2 1.7 3.2-1 .7-1.7 1.7-2.3 4.6-2.4 2 0 4.3-.8 5.1-1.7a10 10 0 0 1 4-2.1 4.8 4.8 0 0 0 3-2.5c.6-2.3 2.4-2.5 2.4-.4 0 .8.4 1.5.9 1.5s1.2.8 1.5 1.7c.8 2-2.4 11.3-3.9 11.3-1.3 0-3.5 5.7-3.5 9.2a22 22 0 0 1-3.6 10.9c-1.9 2.1-1.8 8.4.2 11.3 1.2 1.9 1.3 3.6.7 7.8-1.3 9-.9 21.9 1 30.3 4 17.9 6.6 26.5 8 26.5.4 0 .7.7.7 1.5 0 2.6 9.7 18.4 17.1 27.8 11.1 14 23 24.7 27.4 24.7 1.4 0 1.4-.2.2-2-2.2-3.2-8-9-13.7-14a158.7 158.7 0 0 1-26.5-36 95.4 95.4 0 0 0-5.6-10c-2.9-2.1-5.8-29.6-4-38.3 1.2-5.5 3.1-7.8 3.1-3.7 0 3.6 2 2.1 2.6-2 .4-2.2 1-4 1.5-4s.9-1.7.9-3.8v-3.7l-1.6 3.5c-1 2-2 4.6-2.5 6-.8 2.2-.8 2-.4-.8 1.3-8.2 1.7-9.4 3.5-9 2.6.8 6-6.2 6-12.2 0-4.9 1.5-7.4 3-5 1.3 2.1 3 0 3.1-3.8 0-2 .3-3 .6-2 .5 2.2 3.3 2.4 3.3.3 0-.8.9-1.5 2-1.5s2 .7 2 1.5.9 1.5 2 1.5 2-.7 2-1.5.3-1.5.8-1.5c1.3 0 3.2-5.3 3.2-9 0-3.8 3.6-7.4 6.7-6.8 3 .6 3.7 6.4 1.4 11.2-2.5 5-2.6 6.8-.7 10.4 1.2 2.4 1.2 3 0 4.7-1.8 2.4-1.8 4.3 0 6 1.2 1.2 1.8.9 4-2.5a22 22 0 0 0 3-5.2c.3-2.2 2.3-5.1 2.8-4.2 2 3.3 1.8 8.3-.2 9.4-1.4.7-1.9 1.7-1.5 2.9.7 2.4-3.8 4.5-6.5 3.1-1.5-.8-2-.6-2.5 1-.8 2.5.3 4 1.4 2.1.5-.7 1.7-1.1 2.7-1 1.8.4 2.2 1.8 2.5 9.7 0 1.5.6 2.2 1.4 1.8.8-.3 1.6 0 1.8.7.3.7 1.5 0 3.1-1.7 2.7-3 3-3.8 2.7-6.9-.2-1.2.5-1.7 2.3-1.7 3 0 3.6 2.9 1 5.5-1.2 1.2-1.3 1.9-.4 3 .8 1 .8 2 0 3.4-.5 1.1-1 2.4-.8 2.8l-.6 9a64 64 0 0 0 2.8 25.3c1.5 4.7 11.8 24 12.8 24 1.6 0 .7-2.6-3.2-10.2-12.1-23.6-11.6-49.6 1.5-64.8 1.1-1.4 2.7-3.8 3.5-5.5 1.7-3.4 4.6-6.5 6-6.5.6 0 1-.5 1-1s1.2-1 2.7-1c2.5 0 2.5 0 .9 2-1.1 1.1-1.5 2.6-1.1 3.8.4 1.5 0 2.2-1.2 2.5-1.6.4-1.6.5.1.6 1.9.1 5-2.8 9.8-9.1l3.5-4.4c.7-.7 1.3-1.7 1.3-2.3 0-.6 1.7-1.1 3.9-1.1 3.2 0 4.4-.6 7.5-4 2-2.2 4-4 4.5-4 .6 0 2.6-1.5 4.6-3.3a43 43 0 0 1 7.3-5.2c2-1.1 4.5-2.8 5.4-3.8 1-1 2.7-1.7 3.7-1.7 1.1 0 2.3-.5 2.6-1 .8-1.3 5.2-1.3 6 0a9 9 0 0 0 3.5 1.5c2 .4 3 1.3 3 2.4 0 1 .5 3.2 1.1 5l1.1 3.1 2.6-1.8c1.5-1 7.3-3.4 13-5.2 7-2.3 10.2-3.9 10.3-5 0-1 .4-.7 1.2.8 1.2 2.7 5.6 2.5 8.7-.3a7 7 0 0 1 3.8-1.5c1.2 0 2.2-.4 2.2-1 0-.4 1.5-1.1 3.3-1.5 1.7-.4 4.2-1.4 5.5-2.2 1.3-.8 3-1.2 3.6-1 .6.3 2-.1 3-1 1.1-.7 3.2-1.3 4.8-1.3 1.8 0 2.8-.5 2.8-1.5 0-.8.4-1.5 1-1.5 3.2 0-6-16.4-13-23.1-1.6-1.6-3-3.3-3-3.7 0-.5-2.3-3.2-5-6-4-4.2-5-5.9-5-8.7 0-2.4-.5-3.5-1.5-3.5-.8 0-1.5.4-1.5 1 0 2.7-2 6-3.4 5.4-1.9-.7-7.6-11-7.6-13.6 0-1-1.5-2.7-3.3-3.8a43 43 0 0 1-4.5-3c-.6-.6-1.2-.8-1.2-.4 0 2.5-2.9-2.5-3.4-5.9a89 89 0 0 0-6.7-21.1c-1-1.7-3.6-7.8-5.9-13.5-2.2-5.8-4.6-11-5.2-11.8a380 380 0 0 1-10.4-38.3c-.9-4.1-1.4-11.4-1.3-20 .2-12.5 0-14.6-3.4-27.7-3-12-7-23.3-8-23.3-.2 0-.9 1-1.4 2.3m773.2 30.8c-3.5 7.7-5.6 9.2-12.7 9-6.5 0-12.8 2.2-12.8 4.6 0 1.6-4 2.7-5.3 1.4-.8-.8-.7-1.1.5-1.1 1 0 2-.5 2.3-1 1.3-2-2.7-.9-5 1.5-1.5 1.4-3.5 2.5-4.6 2.5a6 6 0 0 0-3.6 1.6c-.9.8-2.4 1.3-3.4 1-1-.2-2.8.6-4 1.8-2.5 2.2-2.6 2.3-5.9 2.5-1.1 0-2 .7-2 1.5s-1.3 1.7-3 2.1c-2.8.6-4.5 3.8-1.8 3.4 1.3-.2 6.6 1 8.1 1.8 1.3.8-2.6 3.2-5 3.3-1.3 0-2.3.4-2.3 1 0 .5-1 1.2-2.4 1.6-1.4.3-2.7 1.2-3 1.9-.9 2.4-4.6 2.5-4.7.2 0-1.2-.3-1.6-.6-1-.2.7-1.2 1.3-2.1 1.3-2.3 0-4.4 1.9-6.1 5.3-.8 1.5-1.8 2.7-2.2 2.7-.9 0-13.4 9-16.1 11.7a38 38 0 0 1-8.5 5.4c-1.3.7-2.3 2.1-2.3 3.2 0 1.3-.5 1.7-1.6 1.3-1-.4-3.2 1-6.3 4-5.5 5-6.6 5.4-5.7 1.9.4-1.4.4-2.5 0-2.5-1 0-3.2 2.6-3.7 4.6-.2 1-.5-.3-.6-3 0-2.8-.5-4.5-1.1-4.1-.6.3-.7 2.3-.4 4.3.7 4.3-1 9.2-3 9.2-.7 0-2 .7-2.7 1.6-1.2 1.5-1 1.6 2.1 1 2-.5 4-1.2 4.6-1.8.7-.5 1.6-.8 2-.7 1.7.4 4.4-1.3 3.7-2.4-.4-.7 0-.8 1.1-.4 1.4.5 1.7.3 1.2-.8-.3-1 0-1.5 1.4-1.5 1 0 2.5-.6 3.2-1.3.7-.7 2-1.6 3-2 1-.3 1.8-1.3 1.8-2 0-.8.8-1.7 1.8-2 1-.3 2.8-1.2 4.2-2a45 45 0 0 1 10.7-4.7c.6 0 2-.9 3.3-2 1.2-1 3.9-2.2 5.9-2.5 2-.4 4.4-1 5.3-1.6 1-.5 3.1-.9 4.8-.9 1.6 0 3-.3 3-.8 0-1.5 6.2-3.4 10-3 2.9.2 4 0 4-1 0-2.5 8.4-7.2 12.8-7.2.7 0 2.3-.9 3.4-2 1.2-1.1 2.7-1.9 3.2-1.8.6.2 2.5-1.1 4.1-2.8a69 69 0 0 1 7.4-6.2c2.4-1.8 4-3.2 3.5-3.2s.5-.9 2.3-2a15 15 0 0 0 4.5-4c.7-1 1.9-2 2.6-2 2 0 1 27-1.3 35.3-.4 1.5-1.2 2.7-1.7 2.7s-.9 1.5-.7 3.3c.3 5.2 0 6.7-1.6 6.7-.8 0-1.5.7-1.5 1.5 0 1.1-.7 1.4-2.3 1-2.9-.8-5.7 2-3.9 3.7.8.8.7 1.5-.6 2.4-2.5 2-4.4 1.7-7-1.1a10.3 10.3 0 0 0-3.2-2.5c-1.3 0-1.9 3.7-.8 4.8.6.6.7 1.5.3 2.2-.5.8-1 .6-2-.6-.8-1.2-1.4-1.4-2-.6-1 2-2.5 1.4-3.7-1.5l-1.2-2.8-.4 2.5c-.5 3.4-1.7 4.7-5 5.3-2.2.4-2.9 1.1-2.8 2.9 0 1.7-.6 2.4-2.9 2.8-2.8.5-3 .7-2.6 5a21 21 0 0 0 1.2 6.2c.8 1.4.6 1.8-.8 1.9-3.5.1-5.8.8-6.1 1.8-.2.6-1.5 1.1-2.8 1.1-1.9 0-2.4.5-2.4 2.5s-.5 2.5-2.4 2.5c-1.4 0-2.8.5-3.1 1-1 1.5-2.5 1.2-2.5-.5 0-2.3-3.7-1.8-4.3.6-.5 1.8-.2 2 1.9 1.5 1.8-.5 2.4-.2 2.4 1 0 2-4.8 6.4-7 6.4-1 0-2 .7-2.4 1.5a2 2 0 0 1-2.3 1.3c-1.2-.2-1.9.4-2.1 1.8-.3 2.4-5.7 5.8-7.8 5-2.4-1-3.7.4-1.9 1.8 1.5 1.1 1.5 1.3 0 2.5-1.3 1.1-1.5 1-1.5-.4 0-1.2-.5-1.5-1.6-1.1l-1.7.6c-.1 0-.2 1.8-.1 4 0 3.4-.2 4-1.7 3.5-1-.3-3.3.3-5.3 1.5-2 1-4.1 2-4.6 2-2.6 0-10.6 4.7-13.6 8-2.9 3-3.5 3.3-5.1 2.2-5-3.4-5.3-3.2-5.4 3.9-.1 5.9-1.3 9-3.1 8.6-.7 0-1.2.3-1.3 1 0 2.6-1.5 2.4-1.6-.3l-.1-2.9-1.1 2.8c-1.2 2.9-3.7 3.7-3.7 1.2 0-2.2-1-1.9-3.2 1-2.4 3-3.4 3.1-4.1.4-.3-1.3-1-1.8-1.7-1.4-.7.4-.9 1.8-.6 3 .3 1.3.2 2.7-.4 3-.5.3-1 1.3-1 2 0 .9-1.7 3.2-3.7 5.3l-3.7 3.7-.7-2.5c-1.1-4-1-13.8.1-14.5.7-.4.7-1.1.2-1.8-.5-.7-1.2-2.8-1.6-4.7-.8-4.3-5.4-14.5-6.2-13.7-.3.3.4 3.2 1.5 6.4 3.4 9.6 4.7 21.5 2.6 24.7-1.8 2.7-3.5 2.6-3.5-.3 0-1-.6-2.6-1.4-3.6-.8-1-1.2-2.5-.9-3.2.3-.7 0-1.3-.5-1.3s-1.2-.9-1.5-2c-.3-1.1-1-2-1.6-2-.6 0-.8.6-.6 1.3 1.3 3.8 1.4 11.7 0 11.7-1.3 0-2.9 4-2 5 .4.2.8-.6 1.2-1.8.5-2.2 2.3-3.1 2.3-1.2 0 3.6-7.2 6.4-9.8 3.8-.8-.8-1.2-.9-1.2 0 0 .5.6 1.3 1.3 1.6.6.3 0 .4-1.5.3-1.8-.3-2.8 0-3 1-.4 1.9-5.7 2.6-7.5 1.2-1-.9-1-1.4.4-2.7 1.4-1.5 1.4-1.7-.6-2.6-1.4-.6-2.1-1.8-2.1-3.7 0-2.7-2-5.3-2-2.7-.4 8.1-1.3 13.5-2.5 14.8-1.2 1.1-1.5 1.1-1.5.1 0-.7-.6-1-1.4-.8-.8.3-1.7 0-2-.6-.2-.7-.5-.2-.5 1 0 1.1.7 2.4 1.6 2.7 1.5.6 1.5.8.3 1.6-1 .7-1.1 1-.3 1 .7 0 1.3.7 1.3 1.6 0 .9-.5 1.2-1.2.8-.7-.4-.8-.3-.4.4.9 1.4-3.3 3.2-7.5 3.2-3 0-4.1-2.3-1.7-3.3 1-.4 1-.6 0-.6-.6 0-1.2-.8-1.2-1.7 0-1.1-1-.6-3.5 1.7-3.4 3.2-4.5 5.9-2.5 5.9 1.5 0 1.2 3-.4 4.5-1.5 1.6-3.5-.5-5-5.3-.9-2.7-2.6-2-1.9.8.6 2.2-1.2 4.4-4.5 5.2-1.6.5-2.2.2-2.2-1s-.5-.8-1.5 1c-1.4 2.5-4.1 4.3-6 3.9a24 24 0 0 0-7.4 2.5c-.2.2.1 1 .8 1.8 1 1.1.6 1.6-2 2.5-4 1.4-6.2 1.4-5.4.1.3-.5 1.5-1 2.6-1 1.2 0 1.9-.7 1.9-2 0-1 .6-2 1.3-2.3 1-.4 1-.6 0-.6-.8 0-2.3.8-3.5 1.9a7.7 7.7 0 0 1-4.2 2c-1.7 0-1.8-.2-.6-1 1.5-1-.3-1.5-3.7-1a2 2 0 0 1-1.8-1c-.4-.6-1.2-.4-2.2.6-1 1-2.6 1.4-4.4 1-1.6-.3-3-.1-3.4.4-.3.6-.1 1 .4 1 1.8 0 1.2 2.6-.9 4.5-2.1 2-2.8.7-.8-1.3 1.4-1.4-.8-3.6-2.4-2.6-.4.3-.8-.4-.8-1.5 0-1.2.5-2.1 1-2.1s1-2 1-4.3c-.1-3.1-.3-3.7-1-2.2-.4 1.1-.5 2.4-.3 2.8.7 1.2-1.8 3.8-3 3-.6-.4-.8 0-.4 1s.2 1.7-.2 1.7c-.5 0-1.4-1.4-2-3-.5-1.6-1.5-3-2-3-.6 0-1.2-1.7-1.2-3.8 0-2.1-.3-2.9-.6-1.7a5 5 0 0 1-2 2.8c-.7.5-1 1.3-.7 2 .4.5.3.7-.3.4-.6-.4-1.4 0-1.7 1-.6 1.5-.8 1.5-1.7.3-.8-1.3-1.1-1.2-2.1.5a9.8 9.8 0 0 0-1.3 2.5c-.4 2.5-1.9 4.7-3.7 5.5-2.7 1.2-4 4.2-1.4 3.2 1.1-.5 1.6-.3 1.4.5-.7 2-2.3 2-4.7 0-1.4-1.3-1.8-2.3-1.1-2.7.6-.3.8-1 .5-1.5-.3-.5 0-1.2.6-1.6.6-.3 1.5-.1 1.9.6.6 1 1.3.7 3-1 1.2-1.2 1.9-2.5 1.5-2.8-.3-.4-1 0-1.5.8-.8 1.2-1 1.2-1 .1 0-.7-.6-1-1.4-.8-.8.3-1.7 0-2-.9-.3-.8-.1-1.4.4-1.4.6 0 1-.8 1-1.8 0-1.5-.2-1.5-1-.2-.8 1.1-.9.8-.4-1.3.5-2.2.3-2.6-1-2.1-.9.3-1.6.1-1.6-.5s.7-1.1 1.5-1.1 1.5-.4 1.5-1c0-.5-.7-.7-1.5-.4-.8.4-1.5.1-1.5-.5s.5-1.1 1.1-1.1c.7 0 .8-.7.4-1.8a91 91 0 0 1-2.1-8.7c-.8-3.9-2.9-9.6-4.5-12.8-3.1-6-3.5-10.5-.9-11.7l4.8-2.4c1.7-1 3.2-1.5 3.2-1.1 0 .3 1.6-.1 3.5-1 2-.7 3.5-1.2 3.5-1 0 .2 1.6-.3 3.5-1 2-.9 4-1.3 4.5-1 .6.4 1 .1 1-.4 0-.6 1.1-1.1 2.5-1.1a20 20 0 0 0 6.2-1.5c2-.8 4.3-1.5 5.2-1.5.9 0 3-.7 4.6-1.6 1.6-.8 4-1.2 5.3-1 1.4.4 3.4 0 4.6-.7 2.3-1.5 7.6-3.2 9-2.8a4 4 0 0 0 2.1-.9 22 22 0 0 1 8-1.5c3.8-.3 7.4-1 8-1.6.8-.6 2.8-1.2 4.5-1.4a11 11 0 0 0 4.6-1.6c.8-.7 3.5-1.3 6-1.3s4.6-.6 4.9-1.4c.2-.6 1.6-1.2 3-1.2s2.5-.5 2.5-1 1.6-1 3.5-1c2.5 0 3.5-.4 3.5-1.6 0-1 .5-1.4 1.6-1 .9.3 2 .6 2.5.6s.9.6.9 1.4c0 .7.7 2 1.5 2.6 1.3 1 1.5.7 1.5-2.4 0-4 4-6.6 10-6.6 3.9 0 6-1 6-2.6 0-.8.9-1.4 2-1.4s2-.7 2-1.5.7-1.5 1.5-1.5 1.5-.4 1.5-1c0-.5 2.7-2.3 6-4a98.3 98.3 0 0 0 13-7.8c.2-.1-.5-.8-1.5-1.6-1.7-1.2-1.7-1.3.4-1.9 2.4-.6 3-3.7.6-3.7-.8 0-1.5.7-1.5 1.5 0 2-1 1.9-2.6-.3-1.3-1.6-1.5-1.6-2.5 0a4 4 0 0 1-3 1.8c-1.2 0-2.5 1.3-3.6 3.5-1.7 3.5-3.7 4.5-4.6 2.3-.3-.8-.6-.6-.6.4-.1 2.4-3 5.6-6.5 7.5-3 1.5-11.6 1-11.6-.7 0-.4.9-.6 2-.3 1.2.3 2 0 2-.6 0-.7-.3-1-.8-.8a47 47 0 0 1-.8-12.1c0-13.3-.6-19.7-1.8-20.9-.3-.4-.5 6-.4 14.3.3 15.4-.4 18.4-4.1 18.4-1 0-1.5 1.4-1.2 3.4.4 2.2-1.3 4.5-5.4 7.4-3.2 2.3-4.5 2.7-4.5 1.7 0-1.8-3.6-2-4.3-.3-.3.8-.6.5-.6-.5 0-1.5-1-1.8-4.8-1.8-9.8.1-13.5-1-7.9-2.5 1.3-.3 2.3-1.2 2.2-2-.3-1.7-1.6-3.1-1.6-1.6 0 .6-1.1.5-3-.5-3.4-1.6-5-1.1-3.2 1 .7.8.9 1.7.5 2.1-.4.4.1.4 1.2 0 1.4-.4 1.6-.3.7.3-.7.6-1.2 1.4-1 1.9.5 1.6-1.1 1.5-3.7-.2-1.4-.9-2.5-2.6-2.5-3.8 0-3.3-1.1-6.6-2.2-6.6-.5 0-.8 2-.7 4.3.3 4.2.3 4.2-3.1 4.2-2 0-4-.4-4.8-.9-.9-.6-1.2 0-1.3 2.5 0 1.9-.3 3-.5 2.3-.3-.6-2 .3-3.8 2l-3.3 3.1 1.5 4.3c1.6 4.8 1.6 4.7-1.5 5.6-1.6.5-2.3.2-2.6-1.1-.4-1.6-.5-1.6-.6-.1 0 1-1 2-2.2 2.3-2.2.7-4.3-.5-2.2-1.2 1.5-.5 1.7-2.3.4-2.3-1.8 0-8.4 4.4-7.2 4.8.6.2 1.9-.2 2.7-1 1.4-1 1.6-1 1.3.7-.4 2-8.8 4.8-10.9 3.5-.7-.4-2.2.3-3.7 1.8-2 2-3 2.3-6.4 1.8-2.7-.4-3.8-.3-3.4.4.3.5.2 1-.4 1-.5 0-1.4-.8-2-1.7-.5-1-1.3-1.4-1.7-1-.5.5-.2 1.2.6 1.7.8.6 1.3 1 1 1l-4.8.6c-4.8.6-5.8-1-1.2-2.1 4.2-1 4-3.5-.4-3.5-3 0-3.4.3-2.9 2.3.5 1.7.3 2-.7 1-.7-.6-1.9-1-2.6-.6-.8.3-1.4-.1-1.4-.8 0-1-.4-.8-1 .4-.6 1-1.8 1.7-2.7 1.7-.9 0-2.2-.8-2.9-1.8-1.1-1.6-1.3-1.5-2.3 1.1-.6 1.6-1.5 2.5-2.1 2.2-.5-.3-1-.1-1 .4 0 .6-.5 1.1-1 1.1-1.8 0-1-3 1-4 1.2-.7 2-1.8 1.6-2.5-.7-2 1.4-3 2.5-1.4.8 1.2 1 1.2 1.9-.1.8-1.2 1.2-1.2 1.8-.2.5.8 1.6 1 2.7.6 1.7-.7 1.6-.8-.4-1.6-1.5-.5-2.1-1.4-1.7-2.3.3-.8.2-1.5-.3-1.5s-.9-1.5-.9-3.3c0-4.4-1.2-7.7-2.7-7.7-.7 0-1.6-1-1.9-2.3-.6-2-.7-2-1.7-.5-.5 1-1.6 1.8-2.4 1.8-.7 0-1.5.8-1.7 1.7-.3 1.5-.6 1.4-2.6-.7-1.8-2-2.2-2-2.2-.7 0 1 .5 1.7 1 1.7s1 .5 1 1-.3 1-.8.9c-1.8-.3-2.6.2-1.5.9.8.5.9 1.3.3 2.2-.8 1.2-1.6.8-4.4-2-2-2-3.6-3.9-3.6-4.3 0-1.2-5.2-7.8-5.7-7.3-.2.2.7 2.7 2.1 5.5a35 35 0 0 1 2.6 6c0 1.8-1.8 1.2-2.3-.6-.3-1.1-.5-.7-.6 1 0 1.6-.5 2.5-1 2.2-.7-.4-.9.7-.5 2.7l.6 3.3-1.9-2.3c-1.5-1.8-2-2-3.1-1-1.9 1.9-3.4-.8-2.8-5 .4-2.4 0-3.2-1.5-3.7-1-.4-2.8-2.3-3.8-4.2l-1.8-3.6v4.9c0 4.1-.6 9.4-1.3 11.4a3 3 0 0 0-.1 1.3c.2 1-1.7.9-2.4-.3-.3-.5-1.1-1-1.8-1-.8 0-.8.3.1 1.2 1.6 1.6 1.5 3.1-.2 2.5-.8-.3-1.6.2-2 1.4-.3 1.6 0 1.9 1.5 1.4 1-.4 1.9-.2 1.9.4 0 .6-.5 1.1-1 1.1s-1 .6-1 1.4c0 1.6 4 1 5.2-.8.5-.6.8-.2.8 1 0 1.3.5 2.6 1 2.9.5.3 1 1.7 1 3 0 1.2.7 2.8 1.5 3.5 1.8 1.5 2 3 .4 3-.6 0-1.6-1.4-2.2-3-.6-1.6-1.5-3-2-3-1.1 0-.9 2.4.5 3.8 1.7 1.7-1.5 2.6-4.2 1.2-2-1-2-1.3-.5-3.7 1-1.3 1.4-2.8 1-3.1-.4-.4-1 .1-1.6 1-.6 1-1.7 1.8-2.4 1.8-.8 0-1.5.4-1.5 1 0 2 1.3 4 2.6 4 .8 0 1.4.5 1.4 1s-.7 1-1.5 1-1.5-.5-1.5-1-.5-1-1-1c-.6 0-.9.4-.5 1 .3.4 0 1.2-.5 1.5-1.5.9-4-2.7-3-4 .5-.6-.4-2.2-2.2-4-2-2-2.9-2.4-2.5-1.2.4 1.1.1 2-.8 2.3-.8.4-1.5 1-1.5 1.5 0 .4.6.6 1.4.3.8-.3 1.5.3 1.8 1.4.7 2.4-.6 5-1.6 3.3a3 3 0 0 0-2.2-1.1c-.8 0-1.2.5-.9 1 .3.5-.3 1-1.4 1-1.2 0-2.1.5-2.1 1s-.7 1-1.6 1c-1 0-1.4-.6-.9-2 .4-1.1.2-2-.4-2-.6 0-1.3 1.1-1.7 2.5-.7 2.9-1.6 3.1-3.8 1-1.8-1.9-2-3.5-.6-3.5.6 0 .3-1.1-.6-2.5-1.3-2-2-2.3-3.5-1.4-1.6.8-2.6.5-5.1-1.6-1.8-1.6-3.9-2.4-5-2.2-1 .3-2 .1-2.4-.4a1 1 0 0 0-1.5-.4c-.5.4-1.4-.6-2.1-2.2-1.9-4.2-2.8-4.4-5.4-1.3a17.2 17.2 0 0 1-5.6 4c-1.8.8-3.8 2-4.3 2.5-2 2.3-7.6 4-8.5 2.6-.5-1-1-1-1.4-.2-1 1.7-2.6.3-1.9-1.6.5-1.3.3-1.5-1.3-.9-1 .5-2.8.9-3.9 1-1.1.1-1.9.7-1.8 1.4.4 1.5-2.4 1.6-2.9.1-.4-1.3-9.8-.2-9.8 1.2 0 .5-.7.9-1.6.9-.8 0-2.2.7-3 1.5-2 1.9-8.3 3-10.3 1.8-.9-.6-1.7-2.4-2-4.2-.2-3-2-4.4-2.3-1.9a18 18 0 0 1-1 4.8c-1.4 3.5-1.5 6-.4 6.4 2.5 1-1.7 2.4-4.4 1.4-2.8-1-11-11-11-13.4 0-1.4-2.7-4.4-3.9-4.4-.8 0-1 .7-1.2 5.3-.2 3-3.8 5.5-5 3.5-.7-1-.9-.9-.9.5 0 1-.7 1.7-1.5 1.7s-1.5-.5-1.5-1.2c0-1.2-3 2-3 3.3 0 .4 2 .4 4.4.2 2.6-.3 4.6 0 5 .6.4.6 0 1.1-.8 1.1-.9 0-1.6.3-1.6.8 0 .4-2.6.8-5.8 1l-13.3.6c-4.2.1-8 .6-8.6 1-.6.3-1.3.3-1.7-.1-.3-.4-3.8-.8-7.6-1-5.4-.3-7.5-.8-9-2.3-2-2-5.5-2.7-6.4-1.1-.3.5-2.9.9-5.7.9-4.2 0-5.5.4-6.9 2.2-1.2 1.6-2.3 2-3.8 1.6-1.8-.6-4.2 1.5-4.2 3.7 0 1.6 7.4 2.8 19.5 3.1a93.7 93.7 0 0 1 23.2 2.8c2.8.1 3.3.5 3.3 2.5 0 1.2.5 2.3 1 2.3s1-.5 1-1c0-1.5 6.3-1.2 9.3.3 2.6 1.3 2 3.7-.8 3.7-.5 0-2 1.5-3.2 3.2-2.8 4-1.4 5.1 3.5 2.7 3.7-2 5.5-1.8 3.4.3-2 2-1.4 3.8 1.3 4.8 3.4 1.3 3 3.9-.8 5.3-1 .4-1.7 1.7-1.7 3.2 0 2.3-.8 3-3.7 2.6a2 2 0 0 0-1.8.9c-.3.5-1.4 1-2.4 1s-2.4.7-3.1 1.5c-1 1.2-1.6 1.3-2.6.4-1.1-1-1.4-.7-1.4 1 0 1.1-.5 2.1-1 2.1a1 1 0 0 1-1-1c0-.6-1.6-.9-3.8-.6-2 .3-4.8.5-6.2.5-1.9 0-2.1.4-1.2 1.3 2 2 1.6 4.4-.5 2.5-1.9-1.6-4.3-.3-4.3 2.3 0 .5-1.6 1-3.5 1-2 0-3.5-.5-3.5-1s1.4-1 3-1 3-.5 3-1-.5-1-1-1c-.6 0-.8-.5-.5-1 .3-.5.3-1.6-.2-2.3-.4-.6-.8-2.1-.8-3.2s-.6-1.9-1.3-1.7l-6.5 1.1c-1.9.2-.5 3.1 1.5 3.1a8 8 0 0 1 4 1.4c1.6 1.2 1.5 1.4-2 2-10.2 1.6-12.7.5-11-4.7.7-1.7.7-3.2.1-3.8-1.3-1.3-7.3-2.3-7.3-1.2 0 1.5-10.2.8-12.8-.8-1.2-.8-2.2-1.7-2.2-2.1 0-1.9-2.1-.6-3 1.8l-1 2.6-2.5-2.6c-1.4-1.5-2.5-3.1-2.5-3.7 0-1.2-4.2 3-5.5 5.6a3 3 0 0 1-3.3 1.7c-1.5-.2-2.2.2-2.2 1.2 0 .9-.4 1.6-.8 1.6-1.8 0-3.2-2.6-3.2-5.8 0-2.5-.5-3.5-2-3.9-1.5-.4-1.7-.9-1-2.3 1.7-3.1 1.1-4-2.5-4-2.4 0-3.5.5-3.5 1.5 0 1.7-1.6 2-2.5.5-.4-.6-1-.8-1.5-.5-.5.3-1.2 0-1.6-.6-.5-.9-1.1-.6-2.2.7-1 1.3-1.6 1.5-1.9.6-.6-1.6-2.3-1.6-2.3.1 0 1.8 4.1 6 4.9 5 1-1.4 10.1-1.3 10.1.2 0 .7.7 1.6 1.6 1.9.8.3 1.2 1 .9 1.6-.3.5-.1 1 .4 1 .6 0 1.1.9 1.1 2s-.5 2-1 2c-2 0-.9 3 1.4 3.6 1.5.3 2.3 1.1 2 1.9-.3.7.2 1.5 1 1.8 1.1.5 1.6 0 1.6-1.4 0-2.5 1.8-2 3.8.9 1.3 2 1.3 2.2-.2 2.2-5.6 0 7.8 8.2 15.5 9.5 2.2.4 3.9 1 3.9 1.4 0 .4 3 1.8 6.5 3 3.6 1.3 6.8 2.7 7 3.2.4.5 1.7.9 3 .9a48 48 0 0 1 9.6 2.5c8 2.6 18.7 5.1 39.4 9 7.1 1.5 13.9 3 15 3.5 1.1.5 5.8 1.2 10.5 1.5 12.5 1 16 1.4 18 2.5a35 35 0 0 0 8 1.5 45 45 0 0 1 9 1.7l5.5 2.3c3 1.2 6.3 2.3 14.7 4.6 2.6.7 4.4 1.7 4.2 2.1-.3.4.2.8 1 .8s2.7 1.1 4.2 2.5a9.2 9.2 0 0 0 5.8 2.5c1.7 0 4 .7 5 1.5 1.1.8 3.8 1.5 6 1.5 3 0 3.7.3 2.6 1-.8.5-1 1-.5 1l12 1.5c7.2.9 16.5 1.2 26.8.9 11-.4 15.7-.2 15.2.5-.3.6-.1 1.1.4 1.1.6 0 1.1-.5 1.1-1s2-1 4.6-1c2.5 0 4.3.4 4 .9-.9 1.3 4.2 2.3 6.2 1.2 1-.7 1.2-1 .4-1-.7 0-1-.6-.7-1.1.8-1.3 5.5-1.3 7.5 0 1.1.7.7 1-1.8 1-4 0-4.1 1.1-.2 2.9 2.5 1 5.7 1.1 17.3.2a48 48 0 0 1 15.1 0c.7.6-.5 1-3.4 1-2.5 0-5.6.5-7 1-3 1 6 .3 22-1.7 6.3-.8 13-1.4 15-1.4h3.5l-3 1.4c-1.7.7-5.7 1.6-9 2a45 45 0 0 0-9.4 2.2c-1.8.8-5.7 1.4-8.7 1.4-2.9 0-5.6.5-5.9 1-.8 1.3-.2 1.3 13-.5 6-.8 13.3-1.4 16-1.4 5.6.1-7.7 3-29 6.4-14 2.2-17.6 3.7-7.3 3 5.7-.3 7.8-.1 7.8.8s.2 1 .8 0c.4-.7 3.7-1.1 8.8-1.1 8.5 0 29.8-2.6 35-4.2 3.2-1 6.8-.4 6 1-.3.4-4.7 1.6-9.8 2.6-5.1 1-8.5 2-7.5 2.2 2.6.5 14-1.4 31-5.3 7.7-1.7 8.7-1.8 8.7-.6 0 .5-2.1 1.2-4.8 1.6a71 71 0 0 0-7.7 1.5c-9.4 2.7-23 5.5-34 7-12 1.6-15.6 2.8-8.6 3 3 0 7.1-.5 9.3-1.2 3-.9 4.4-.9 5.9 0 1 .7 3.6 1.2 5.7 1.2 6.5 0 5.7 1.4-1.5 2.6l-12.8 2.2a188 188 0 0 1-10.8 1.8c-2.7.3-4.6.8-4.3 1.1.5.5 5.3.1 31.1-2.8 5-.5 10.7-1.4 12.7-2 2.1-.5 6.6-1.4 10-1.9 3.5-.5 9.9-1.6 14.3-2.5 8.2-1.6 22.5-1.2 22.5.6 0 .5-.9.9-2 .9-1 0-4.3.9-7.2 2-3 1.1-6.3 2-7.5 2-1.3 0-2.3.4-2.3 1 0 .4-2.2 1.1-4.8 1.5a18 18 0 0 0-6.2 1.6c-1.8 1.2 10.4.3 13.5-1 1.1-.5 3.8-1.3 6-2a1654 1654 0 0 0 19.5-5c7.9-2 12-3.5 12-4.3 0-.4 1.8-.8 4-.8s4-.5 4-1 1.1-1 2.4-1c1.4 0 2.8-.4 3-1 .4-.5 2.5-1.4 4.6-2 2.2-.6 4.8-2 5.7-3 1-1 3.2-2 5-2.5a14 14 0 0 0 5.8-2.7c1.4-1 3.2-1.7 4-1.4.8.3 1.5.1 1.5-.4 0-.6.9-1 2-1s2 .5 2 1c0 .7-.9 1.4-2 1.7-1.1.3-2 1-2 1.7s-1.7 1.8-3.8 2.5a31 31 0 0 0-7.4 4.2 14 14 0 0 1-5.2 2.9c-.9 0-1.6.4-1.6.8 0 2-13.2 7.5-19.7 8.2a90 90 0 0 0-14.8 3.4c-4.4 1.5-10 3.1-12.3 3.7-2.3.5-6.2 1.8-8.5 2.8a54 54 0 0 1-14 4.6 200.8 200.8 0 0 1-32.6 7.6 147 147 0 0 0-25.6 5.9c-3 1-6.3 1.6-8 1.3-1.8-.4-2.6-.2-2.1.5.4.6-.5 1.2-2.1 1.5-1.6.2-.2.5 2.9.6 3.1 0 6-.3 6.2-.8 1-1.6 20.6-1.1 20.6.5 0 1-1.5 1.4-5.8 1.5-4.9 0-5.4.2-3.2 1 1.6.7 8 .9 17.8.5 12.6-.5 15.2-.4 15.2.8 0 1.1.8 1 4.6-.3 4.2-1.5 4.6-1.5 5.5.1 1.3 2.4 3.9 2.3 3.9-.1 0-1.1.5-2.3 1-2.6.6-.4 1 .5 1 2 0 3.2 4.5 3.4 17.5.4a1785 1785 0 0 0 23-5.3l8.5-1.7c3.6-.7 6.7-1.5 7-1.8 1-1.2 7.7-3.1 10.6-3.1 1.7 0 3.5-.5 4.2-1.2 1-1 1.2-.8 1.2.5 0 1.5.6 1.7 3.8 1.1 2-.4 4-1 4.2-1.4 1-1.4 8-2.2 8-.8 0 .6 1.7-.5 3.9-2.6 2.4-2.4 4-3.3 4.3-2.5.3.9 2 .4 6.4-1.6a24 24 0 0 1 7.7-2.7c1 0 1.7-.3 1.7-.9 0-.5 1-.9 2.3-.9 2 0 2 .2.4 1.1-1.6 1-1.6 1.2.5 2.9l2.3 1.8-3.8.7c-2 .4-3.7 1.1-3.7 1.6 0 2-4.2 5-8.7 6-2.7.7-5 1.5-5.3 1.9-.3.4-2.8 1.5-5.5 2.5-2.8 1-5.4 2.2-6 2.7-.5.4-1.6.8-2.5.8a152 152 0 0 0-25.8 8c-1.5 0-26.6 7.2-27.2 7.8a102.6 102.6 0 0 1 14.9-.9c4.6 0 7.8-.5 7.1-.9-.8-.5-.4-1 1.1-1.3 1.3-.4 2.8-.2 3.3.3 1.5 1.5 2.6 1.2 2.6-.5 0-.8.9-1.5 2-1.5 1 0 2.2-.5 2.5-1 .3-.5 1.5-1 2.6-1 1 0 2.7-.4 3.7-1 1-.4 7.1-2.5 13.7-4.6 15.6-4.8 28.9-9.5 29.5-10.4.3-.4 2-1 4-1.4 4.3-.9 2.7.5-4.3 3.5-2.6 1.2-4.7 2.6-4.7 3 0 .6-.5.7-1 .4-1.5-1-6.2.3-5.6 1.4.3.5-1.3 1.2-3.7 1.6-3.2.5-3.8.9-2.3 1.4 1.7.6 1.5 1-1.3 2-2.8 1.2-3.4 1.2-4.2 0-.7-1.2-.9-1.1-.9.2 0 2.8-23.2 11-36.5 12.8-3.8.6-9 1.4-11.5 2-7.8 1.6-21.3 4-25.8 4.7-2.3.4-4.2 1.1-4.2 1.6 0 .6-.6.8-1.4.5-1.2-.5-4.6.2-10.6 2-1 .3-.5.9 1.5 1.7l3 1.3-3.5 1-3.5 1.1 3.5.1c2 0 5.5-.6 8-1.5 8.5-3 20.6-5.2 19.6-3.6-.3.5-3.5 1.5-7 2.1-3.5.6-7.7 1.8-9.3 2.6-1.5.8-3.3 1.5-4 1.5-.6 0-1.5.5-1.9 1.1-.5.9.4 1 3.2.4 5.1-1 21.4-1.4 21.4-.5 0 .4-1 1.1-2.1 1.7-1.6.6 1.2 1 9.5 1a41 41 0 0 0 11.6-.9c0-.4 2-.8 4.3-.7l4.2.1-4.5 1.3c-4.2 1.2-3.8 1.2 5.4.7 7.7-.4 9.7-.2 9.2.7-.6.8-2 1-4.7.6-3.2-.6-3.9-.4-3.9 1 0 .8-.5 1.5-1 1.5a1 1 0 0 1-1-1c0-.6-1.2-.1-2.8 1a15.5 15.5 0 0 1-4.7 2.4 52.5 52.5 0 0 1-14 3.1 32 32 0 0 0-8 1.5c-.6.5-3.3 1.8-6 2.9-6.6 2.7-3.3 2.6 12-.4 9-1.7 15-2.3 15.3-1.5.2.6 1.6 1 3 1 2.6-.1 2.6-.2.5-1-3.2-1.3-2.9-1.8 1.5-2.9 7.3-1.8 10.3-2.1 9.6-1-.4.7 0 1 1.2.6a59 59 0 0 0 14.4-5.2c3.6-1.8 7.7-3.6 9-3.9 1.5-.3 3.7-1.5 5-2.6 1.3-1.1 2.8-1.9 3.4-1.7.6.2 1.5-.2 2.1-1 1.3-1.6 6.5-2.8 6.5-1.5 0 .6-1.3 1.6-3 2.4-1.7.7-3 1.6-3 2 0 .5-1 1.3-2.3 1.8-1.7.7-1.8.9-.4 1 1 0 3.3-.6 5.2-1.4 3.2-1.4 4.5-1.2 4.5.6 0 .4-1.3.8-2.9.8-1.6 0-3.1.6-3.5 1.5-.3.8-1.4 1.5-2.4 1.5s-2.2.4-2.8 1a25 25 0 0 1-7.9 1.6c-3.8.4-7.2 1-7.5 1.5-.3.4-3.4 1.3-7 2s-6.7 1.6-7 2c-1.2 1.4-10 5-16.1 6.4a166 166 0 0 0-13.6 4 131 131 0 0 1-15.3 4c-13 2.5-16 3.2-13 3.4 4.3.2 19.2-2 24.4-3.4 2.7-.8 7-1.5 9.3-1.5 2.4 0 4.3-.3 4.3-.8 0-.4 1.6-.8 3.5-.9 2 0 3.3.2 3 .7-.3.5.3 1 1.2 1.3 1.6.3 1.6.5-.2 1.1-5.8 2.2-5.8 2.6 0 2 3.3-.3 8.7-1.1 12-1.9 7.3-1.6 20.7-2.7 20-1.6-1 1.9 4 1.8 10.5 0 8.5-2.3 8.7-2.3 9.3-.2.4 1.5.5 1.5.6-.2.1-2 6-5.5 9.2-5.5.8 0 3.9-.9 6.9-2 6.4-2.3 6-2.3 6-1 0 .5-.6 1-1.3 1-.6 0-2.3.6-3.7 1.3a48 48 0 0 1-7.3 2.7c-3 .8-4.5 1.6-3.9 2.2.6.6 1.7.6 2.8 0 1-.5 3.9-1.2 6.4-1.6 2.4-.4 4.9-1 5.5-1.5.5-.4 1.9-1 3-1.3l3.8-1.3c1-.4 1.7-.3 1.7.3 0 1.4-5.3 4-9.6 4.8-1.9.3-3.4 1-3.4 1.5s-.7.9-1.5.9-2.3.4-3.3.9l-4.2 2c-2.4 1-2.3 1 1.2 1 2 0 4-.3 4.2-.8.3-.5 2-1.1 3.8-1.4 9-1.6 10.4-1.9 12.3-2.7 6.1-2.5 10.9-3.4 11.3-2.2.2.7 1 1.2 1.8 1.2.9 0 1.2.5.9 1-.3.6-1.6.8-2.9.4-1.4-.3-2.7 0-3.5 1-.8.9-2 1.6-2.7 1.6-.8 0-1.4.5-1.4 1s-.8 1-1.8 1c-2 0-5.2 3-5.2 4.8 0 1.5 1.6 1.6 2.5.2.3-.6 3.2-.7 6.8-.4 3.4.3 5.7.2 5-.3-.8-.6-.7-1.1.3-2 1.3-1.3 1.8-1 1.5 1 0 .4 2.3.8 5.2.8 4.8.2 5 .2 1.7.9-5.2 1-8 2.1-8 3.1 0 .5-2 .9-4.4.9-3 0-4.6.5-5 1.5-.8 2.1 7 2 11.3-.1 1.8-.9 6.4-2.1 10.2-2.8 3.9-.6 7.3-1.7 7.7-2.3.4-.7 2.6-1.1 4.7-1 8.9.3 13.5-.2 12.9-1.7-.4-1.2 6.4-3.6 10.1-3.6.3 0 .5 1 .5 2.4 0 2.2.2 2.3 3.7 1.6 2.3-.6 4.2-.5 5 .1.6.5 5 .9 10 .7 8-.3 9-.1 10.6 1.9 1 1.2 2.4 2 3.2 1.6 1-.3 1.5.1 1.5 1.5 0 1.1-.6 2.3-1.3 2.5-.6.3-.2.6 1 .6 1.3 0 2.3.5 2.3 1 0 .4 1.5 1.2 3.3 1.7 3.3 1 4.5 3.9 1.5 4-.9 0-2 .3-2.4.7-1.2 1.1 10.5.8 12.7-.4 1.4-.7 2.4-.7 3.3 0 .7.6 2.9.8 5 .4 2.1-.3 4-.2 4.4.3.4.5 5.2.6 10.7.3a67 67 0 0 0 8.8-.7c-1.9-.3-1.6-2.2.5-2.8 1-.3 3.7-1.6 6.2-2.7 4.4-2.2 4.4-2.2 1.5-2.5-1.6-.2-3.1.1-3.3.7-.6 1.9-2 1.2-2.4-1.2-.4-2.7-4.1-3.5-6.4-1.3-.8.9-2.4 1.6-3.4 1.6s-2 .5-2.2 1.2c-.3.7-1 .8-2 .2-1.3-.7-.7-1.4 3.3-3.9 6.4-3.8 6.2-4.4-1.3-3.9-4 .3-5.8.1-5-.5 1.2-.7 1-1-.4-2-1.8-.9-1.8-1-.2-1.6 1-.4 1.8-1.3 1.8-2.1s.5-1.4 1.1-1.4c.6 0 .1-.8-1.1-1.8-2-1.5-2-2.2-1.1-4 2-3.7 1.4-8.8-1.2-10-1.2-.6-1.6-1.1-.9-1.1.7 0 1-.5.7-1-.3-.6-.1-1.8.4-2.8 2-3.5 4.9-10.8 5.5-14 .4-1.7 1.5-3.8 2.6-4.8 2-1.8 3.2-4.6 5-11.5.7-2.7 2.6-6.2 4.8-8.6a167 167 0 0 0 10.9-13.3 20 20 0 0 1 5-.7c8-.5 10.9-4.3 12.8-16.7.8-4.7 2.5-5.5 14.3-6.2 13.4-.9 20.6-3 23.7-7 2.8-3.7 3.3-8.3 1-9.1-.8-.4-1.5-1.2-1.5-2s-.4-1.4-1-1.4c-1.5 0-9.3-8-11.5-11.8-1-1.7-2.3-3.2-2.7-3.2-.4 0-.8-.5-.8-1 0-1.5-4-5-5.8-5-.7 0-2-.4-3-.9l-4.5-2.2c-4.4-2-6.3-12.6-3.3-18.4 1-2 1.2-4.9.9-10.6-.4-5.4-.2-7.9.5-7.9.6 0 1.4-1.5 1.8-3.4a9.7 9.7 0 0 1 3-5.3 5.7 5.7 0 0 0 2.4-4.5c0-3 3.6-4.1 4.6-1.4.3.9 3 2 6.2 2.6a60 60 0 0 1 7.4 2c1 .6 2.7 1 3.8 1 1 0 2 .5 2 1 0 1.5 5 1.2 5.6-.3.2-.7-.9-4-2.6-7.3-1.6-3.2-3-6.7-3-7.6 0-1-1.2-2.5-2.8-3.5-4-2.4-9.2-7.5-9.2-8.9 0-1.8 4.5-2.2 8-.8 1.8.8 3.6 1.1 4.2.8.5-.3 2 .4 3.3 1.6 1.5 1.4 3 2 4.3 1.6 1-.4 3.2-.1 4.8.5a11 11 0 0 0 4.1 1c.7 0 2.6.5 4.3 1.4 2.9 1.5 3 1.5 3-.5 0-1.5.7-2 2.8-2 1.5 0 4-1 5.5-2.2 2.5-2 2.6-2.3 1-4-1.2-1.4-1.3-1.8-.3-1.8.8 0 .4-.8-1-1.8a35.3 35.3 0 0 1-8.8-8.8c-.6-1.2-2.5-2.4-4.2-2.7-1.7-.4-3-1.3-3-2.2 0-1-1.4-1.7-4-2.1-2.2-.4-4-1-4-1.6 0-.5-1.7-1.6-3.8-2.5-2-.8-4-1.8-4.2-2.2l-4.2-3.1a18 18 0 0 1-5-4.8c-2.8-5.3-13.4-10.5-24.1-11.8a22.8 22.8 0 0 1-16.3-10.4c-2-2.8-4.2-5-5-5-.8 0-1.4-.7-1.4-1.4 0-.8-1.7-2.8-3.8-4.3-2-1.5-4.2-3.3-4.7-3.9a15 15 0 0 0-4.3-2.4c-2-.8-3.2-2-3.2-3s-.9-2.1-1.9-2.5c-1.4-.4-1.9-1.5-1.8-4.1 0-3.3-.8-4.6-3.8-5.7-2.5-1 .9-1.6 9.4-1.8 6.7 0 9.4-.5 9.8-1.5.2-.7 2-2.2 4-3.4 3.5-2 3.7-4.6.1-3.4-1.4.4-2.9-.2-4.9-2.2-3-2.8-3.8-5.4-1.8-5.4.6 0 .8-.8.5-1.8-.8-2.4 2.5-5.5 4.8-4.6.9.3 1.6.1 1.6-.5 0-2.9 3-.7 4 2.9.9 3.3 1.5 4 3.6 4 3 0 4.4 2.9 2 4.2-2.4 1.3-2 3.8.7 3.8 1.2 0 2.9.5 3.7 1 .8.5 1.7.5 2 0 .3-.5 2.3-.3 4.5.5s4.9 1.4 6 1.5c1.1 0 3.8 1.2 6 2.5 2.2 1.4 4.9 2.5 6 2.5 2.6 0 16.7 5 18.5 6.5.8.7 3.3 1.8 5.5 2.5s6.5 2.4 9.5 3.8a50 50 0 0 0 12 3.2c8.2 1 15.3 3 16.3 4.7.4.7 1.7 1.3 2.8 1.3 2.8 0 16.9-4.1 16.9-5 0-.8 9 .3 15.5 2 5.2 1.3 16.5 0 16.5-2 0-.4.9-1 2-1.3 1-.3 2.7-2.1 3.7-4.1.9-2 2.2-3.6 2.8-3.6 3.8 0 11-12.9 9-16.1-.4-.6.4-2.3 1.7-3.7 4.9-5.3 6.3-28.2 1.8-28.2-.5 0-1.4-2.6-2-5.8-.6-3.1-1.5-6.5-2-7.4-.6-1-1-2.3-1-2.9 0-.6-1.1-2-2.5-3-1.4-1.2-2.5-2.5-2.5-3 0-1.6-4-5-7.3-6.1-1.8-.6-3.4-1.4-3.7-1.7-1-1.2-13-7.1-14.4-7.1-.8 0-1.6-.5-1.8-1-.5-1.7-6.8-2.7-11.6-1.8a17 17 0 0 0-10.8 8.4c-1.6 2.8-15 3.3-17.9.7a25 25 0 0 0-4.8-3.2c-1.5-.8-2.7-2-2.7-2.7 0-.7-1-1.6-2.1-2-2.4-.7-5.9-4-5.9-5.4 0-.6-1.3-2.3-3-3.8a27 27 0 0 0-9.3-6.4c-2-1-3.7-2.2-3.7-2.8 0-.5-1.8-1-4-1-2 0-4-.5-4.2-1-.2-.8-1.2-.8-3.1 0-5.6 2-26.5-.2-28.7-3.2-.3-.3-1.9-1-3.5-1.4-1.7-.4-3.5-1-4-1.4-.5-.5-2.8-1.1-5-1.5a16 16 0 0 1-5.3-1.8c-1-.8-1.6-.7-2.2.3-.7 1.1-1.1 1.1-2.4 0-1-.8-1.6-.9-1.6-.1 0 .6-1.3 1.1-2.9 1.1-1.8 0-4 1.1-6.1 3-1.8 1.6-4 3-5.1 3-1 0-1.9.6-1.9 1.3 0 1.6-5.5 3.7-9.7 3.7-3 0-6.3-2.5-6.3-4.8 0-.6-.9-1.7-2-2.5s-2.8-3.8-3.8-6.7l-1.8-5.2-2 4.3m-1212.4.2a14 14 0 0 0-3.1 4.5c-.9 1.8-3.4 5.4-5.7 8-3.3 3.8-7 8.8-13.9 18-.1.3-2.3.6-4.8.7-2.5 0-4.3 0-4-.3.5-.6-3.3-4.2-4.5-4.2-.6 0-1.4 1-2 2.3-.8 2.4 3.5 10 5.5 9.4.5-.2 1.8.5 2.9 1.5 3.7 3.4 8.1 3.4 13.7 0a23 23 0 0 1 6.5-3.2c1.7 0 10.7-9 13.5-13.5 2-3.2 2.7-16.2 1-18-.5-.6-1-2-1.3-3.4-.4-2.9-1.7-3.5-3.8-1.8M12 685.6c-11 5-10.5 4.4-10.8 12.7l-.3 7.5 3.6-1.6c2-.9 3.5-2 3.5-2.3a47 47 0 0 1 13.4-5.4c2.8-.6 2.8-.7 2.2-5.8-1-8.1-3-9-11.6-5.1m917.3 29.1c-1.8.6-1.6 2.3.4 4.5 1.3 1.4 1.4 2.1.5 3-1.6 1.6-6.7-.2-6.7-2.2s-8-2.6-10-1c-1.6 1.3-2 5-.8 5.1l6.2.4c5.9.4 7.5 1.3 6.5 3.8-.8 2.3-4.2 3.1-6 1.5a6 6 0 0 0-4.2-1c-1.5.3-2.2 0-1.8-.7 1-1.5-1.4-1.4-6.1.3-2.3.8-5.8 1.2-8.4.9-3.3-.4-4.8-.1-5.8 1-.7 1-2.8 1.7-4.5 1.8-1.7 0-2.5.3-1.9.6 1.1.4.5 3-1.2 5.1a14 14 0 0 1-4.4-1.7c-4.4-2.3-8.1-2.9-4.2-.7 1.3.7 2 1.6 1.4 2-.6.3-1.9-.1-2.9-.9s-3.5-1.4-5.4-1.4c-2 0-2.8.3-2 .6 2.2.8 6 5.4 5.4 6.4-.3.5-2.6 1-5.2 1-3.5 0-4.2.2-2.7.9 1.1.4 3.3.6 4.8.5 1.5-.2 2.7 0 2.7.5 0 1.2-3 4-4.3 4.1-.7 0-1.7.2-2.2.4-.5 0-1.8.3-2.8.3-2.8.3-2 2 1.3 2.7 2 .5 3.9.2 5.5-1a10 10 0 0 1 4.4-1.5c1 0 5.2-1.8 9.2-4 17.1-9.3 23.2-11.8 31.9-13 4.7-.5 8.7-1.5 8.8-2 .2-.6.8-.7 1.3-.4 2.9 1.7 9.8-5 7.5-7.3-.9-1 1.4-4.3 3-4.3 2.5 0 1.5-2-1.4-2.6a14 14 0 0 1-3.7-1.4c-.5-.4-1.6-.5-2.3-.3m-122.7 14.4c-3 4-4 4.7-4.4 3.3-.2-1 .5-2.3 1.4-3 3-2.2 1.2-4.5-2.6-3.2-2.5.8-3.3.8-4-.3-.6-1-.8-.3-.5 2 .1 1.8.8 3.6 1.3 4 .6.3 1 2.5.8 4.9-.2 2.3.1 4.2.6 4.2s.9.6.9 1.3c0 1.3-5.4 1.4-12.5.1-4.9-.8-12.7-.6-13.7.4-.4.4.4 2 1.7 3.4 1.4 1.5 2.5 3.2 2.5 3.7 0 1.2 4 3.5 4.7 2.8a333.9 333.9 0 0 0 48.5 11.3c1.3 0 3.9-1 5.8-2 3.6-2.1 8-4.2 11.5-5.4 1.7-.6 1.4-1-2-2.5a35.7 35.7 0 0 1-16.2-18.6 33.6 33.6 0 0 0-3.8-7.7c-.6-.5-.6-.8.3-.8.6 0 1.2-.7 1.2-1.6 0-1-.8-1.4-2.6-1.2-2.9.3-3.4.9-6.4 7.8l-2 4.5.7-4c1.3-7.8 1.2-8-3.2-8.2-3.7-.3-4.3 0-8 4.8m1036.3 5.6c-3.7 4.3-2.6 19.1 1.6 21.5.9.5 1.6 1.5 1.6 2.3 0 .7.6 1.5 1.3 1.8.8.3.6 1-.7 2-2 1.5-.7 3.5 1.5 2.2.6-.4 1.3.2 1.6 1.3.3 1.1 1.1 2.3 1.9 2.6.8.3 1.4 1.7 1.4 3 0 3.3 2.6 4.6 9.3 4.6 5.8 0 7 .8 8 5.3 1.6 6.3 4.8.8 3.9-6.5l-.6-5.5c-1-10.2-5.4-17.4-13.3-21.5-2.4-1.2-4.3-2.7-4.3-3.4 0-1.4-5.5-3.8-6.8-3-.5.3-1.2-.7-1.5-2.2-.3-1.5-1.2-3.5-2-4.5-1.2-1.8-1.3-1.8-2.9 0m-674.5 13a3.8 3.8 0 0 0-3 2.9c-.2 1.3-.9 2.4-1.4 2.4-2.1 0-3 4.2-1.3 6 2.3 2.7 3.7 2.5 2.8-.2-.6-2-.5-2.1.9-1 1.2 1 1.6 1 2 0 .3-.7.6.2.6 2 .1 3.5 2.1 3.6 2.1.1 0-1.4.9-2.1 3-2.6 3.2-.6 6-3.6 6-6.4 0-2.2-4.9-1.3-7.2 1.3-1.6 1.9-1.6 1.9-2.3-.4-.5-1.3-.3-2.4.4-2.6 1.2-.4 1.6-2.3.3-2l-3 .5m456.4 2.2c-.3.5-1.5.7-2.5.4a34 34 0 0 0-15.5 5.5 14.5 14.5 0 0 0-4 12.8c.7 5 2.7 6 9.2 5 2-.3 5-.6 6.7-.5 1.7.1 4.1.2 5.5.1a7 7 0 0 1 4.1 1.4c1.5 1.3 1.7 1.2 2.3-1.3.5-1.9 1-2.3 1.5-1.4.6 1 1 1 1.5.2 1.2-2 4.5-1.2 6.2 1.4.9 1.4 2.5 2.5 3.5 2.5s1.9.6 1.9 1.3c0 1.2 8.1 5.2 10.7 5.2.6 0 2 .8 3 1.6 2.4 2.2 13 3 16.3 1.4 6.2-3.2 8.6-8.9 6.5-15.3-.8-2.7-12.5-4.4-28.3-4.2-9.7.2-17.2-4.3-18.5-11-.8-3.8-8.5-7.7-10.1-5M16.2 761.7c-1.6 1 0 3 4.8 5.9 2.8 1.6 7 9.4 6.2 11.7-.7 2.2 1 4.6 2.6 3.7 2.1-1.1 3-12 1-13.2-1-.7 1.5-5.8 2.7-5.1.3 0 .4-.1.3-.5a.8.8 0 0 0-1-.5c-.5 0-.8-.3-.8-1s-.5-.7-1.5.2c-1.3 1.1-2.4 1-8-.6-4.2-1.2-5.2-1.3-6.3-.6m1845 42.6c-1.7 3.8-2.6 11.6-1.3 11.6.6 0 1.1.9 1.1 2 0 4.4 4.5.9 6.2-4.9a6 6 0 0 0-.3-4c-.5-.9-1.3-2.8-1.9-4.4-1.2-3.3-2.3-3.4-3.8-.3m-639.6 1.2a7.5 7.5 0 0 1-3.6 1.4c-1 0-2.3 1.1-3 2.5-.7 1.4-1.7 2.5-2.2 2.5-.4 0-.8.6-.8 1.3 0 1.7-5.7 6.9-11 10-5.7 3.5-9 6.2-9 7.7 0 .6-.4.8-1 .5-.5-.3-2.7 1.1-5 3.2a29 29 0 0 1-7.2 5l-3.3 1.3 4.3-.5c5-.6 5.7 1 .8 1.8-2 .3-5 1.2-6.8 2l-5.2 2.1c-1.7.6-1.7.8-.4 1.9.8.7 2.7 2.9 4.3 5 2.3 3 5.7 5.5 4 2.8-.4-.8 3.6-3.1 5.6-3.1.5 0 3.5-1.6 6.6-3.6 5.4-3.5 5.7-3.5 7-1.8 1.4 1.8 1.5 1.8 2.6 0a44 44 0 0 1 5.7-6.3 885 885 0 0 0 6.7-6.4 12 12 0 0 0 2.8-5c.4-1.7 1.4-3.3 2.3-3.6a33 33 0 0 0 6.5-5.5c2.6-2.6 5.3-4.8 6-4.8.7 0 1.8-1 2.5-2 1.6-2.6.4-5-3.5-7a15 15 0 0 1-3.3-2.2c-.3-.3-1.4 0-2.4.8m251.7 1.9c-2.4 2.7-1.2 5 5.2 10 3.5 2.8 6.4 5.3 6.4 5.8 0 .4.6.7 1.2.7s3.8 2.1 7.2 4.8c5.5 4.4 7 5.6 11.5 10.5a61.4 61.4 0 0 0 16.2 10.1c2.5 1 6 2.9 7.7 4.2a15 15 0 0 0 4 2.4c.6 0 3.4 1.7 6.4 3.8a79 79 0 0 0 34 12.2h5l-3.4-4.8a35.3 35.3 0 0 1-4.1-7c-.4-1.2-1.2-2.2-1.7-2.2s-.9-.6-.9-1.3c0-1.6-12.7-12.2-20-16.7-3-1.8-7-4.8-9-6.5a56 56 0 0 0-14.8-9.5c-.7 0-5-1.8-9.4-4-4.6-2.2-8.9-4-9.5-4-.7 0-1.3-.5-1.3-1s-.5-1-1.2-1c-.6 0-3-.9-5.2-2-12.3-5.8-21.7-7.5-24.3-4.5M740 814.7c-.8.3-1.8 1-2.3 1.7-.5.8-1 .7-1.5-.1-.6-1-1.8-1-4.7-.2-4.6 1.2-7 3.6-5.4 5.5.5.6.9 1.6.8 2-.4 2.1.2 2.8 1.2 1.4.8-1.1.9-1 .3 1-.3 1.4-.3 2.2.1 1.8.5-.4 1.4-.3 2.1.3 1.8 1.5 4.5.4 3.8-1.4-.5-1.5 4.3-3 9.9-3.1 3 0 3.3-.6 1.6-2.3-1.6-1.6.8-2.8 2.6-1.3 1.2 1 1.5 1 1.5-.4 0-.9-.7-1.6-1.5-1.6s-1.5-.4-1.5-.9-.8-1.1-1.8-1.5l-2.7-1a4 4 0 0 0-2.5.1m1026.2 12.4c-.4.3-2.3 1.2-4.2 1.9-2 .7-4.4 2-5.5 3-1.7 1.5-7.3 4.7-16.6 9.6-1.5.8-3 2.7-3.4 4.2-.3 1.5-1.4 3.5-2.2 4.5-1.8 2-2 13-.2 13.5.5.2.9 1 .9 1.8 0 2.2 6.2 13.7 8.9 16.2 2.8 2.8 5 3.7 14.2 5.8 6.6 1.5 7 1.8 11.5 7.5 3 4 5.9 6.5 8.5 7.6 8.7 3.4 10 9.9 4.4 21.7-4.5 9.6-4.3 14.6.6 14.6 5.4 0 12.2-15.7 10.5-24.1-.3-1.7-.1-2.9.4-2.9.6 0 1.6-1.2 2.3-2.8a9.6 9.6 0 0 1 2.5-3.5 8 8 0 0 0 2.2-3c.7-1.9.9-2 1-.4 0 1 1.2 3.1 2.6 4.6 1.4 1.5 4.2 6.6 6.3 11.4 3.8 9 8.2 14.6 13.5 17.1a70.9 70.9 0 0 1 18.6 18.8c3 4.6 4 5.5 6.5 5.6 3.5.1 12.5-2.7 12.5-3.8 0-.5 1.8-2.5 3.9-4.5 3-3 4.2-5 5.2-9.6.7-3.3 1.7-5.9 2.1-5.9.4 0 .8-.8.8-1.8s.9-4.4 1.9-7.4c2.2-6.5 1.6-12.6-1.8-16.2a8 8 0 0 1-2.1-4.4c0-1.2-.4-2.2-.9-2.2-.4 0-1.1-2.4-1.5-5.3-.8-6.1-6-17.2-9.6-20.4a65.1 65.1 0 0 1-4.6-4.4c-1.2-1.2-2.7-1.8-3.3-1.4-.7.4-1.9.1-2.7-.6-3.3-2.7-9-2.1-12.6 1.4-4.5 4.5-6.8 5.8-17.8 10.2a168 168 0 0 0-11.5 4.8c-4.8 2.6-13.2 3.1-14.4.8-.4-.9-1.1-8.8-1.4-17.6-1-22.4-2.3-28.8-8.1-37-2.6-3.5-5.6-7-6.6-7.5-2-1-9.5-1-10.8 0M892 828.4l-6.5 1.4c-6.5 1.2-8 5.4-1.5 4.6 2.2-.3 4.6 0 5.3.5 1.5 1.2 5.7.5 5.7-1 0-.5.4-.7.8-.4.5.3 1.8-.8 3-2.3l2.1-2.9-2.7-.4c-1.5-.2-4.3 0-6.2.5m58.9 5.8c-.8.5-3.6 1-6.4.9l-16 .4a74094.8 74094.8 0 0 0-44.5 1.8c-2.8 0-9.5 2-13.7 4.1-3.4 1.7-4.6 2-6.5 1a35.8 35.8 0 0 0-11-3.3c-2 0-2.5 2.6-.5 3.3 1 .3 1 1.2-.2 4.2-1.3 3.8-1 4.6 2.3 5.8.5.2.3 3.9-.4 8.6a35 35 0 0 0 3.5 24.3c5.4 10.7 16 18.5 19.6 14.2 1.6-2 7.9 1.4 7.9 4.2 0 .6 1.3 1.4 3 1.7a75.7 75.7 0 0 0 26-2.6c2.4-.3 4.6-1 4.7-1.4.2-.5 2-.8 4-.6 2.1.2 3.2 0 2.5-.3-.6-.3-1-1-.6-1.5 1-1.7 2.4-1 2.4 1.3 0 1.7.3 2 1.2 1 .7-.7 2-1.2 2.8-1.2.9 0 3.1-1.3 5-3 2-1.6 4.7-3 6.3-3 1.5 0 2.7-.5 2.7-1 0-.7 1.3-.2 2.9 1 3.1 2.2 4.6 2.6 3.6 1-1-1.8 1.7-1 3 .8 1.3 1.6 1.5 1.6 3.2-.2 1.7-1.8 1.7-1.8-.4-1.2-1.2.4-2.4.2-2.8-.4-.3-.5.2-1 1.2-1 1.7 0 1.7-.1 0-1.1-1-.6-2.4-.8-3.2-.5-.7.2-1.6-.2-1.9-1-.3-.7-2.4-1.7-4.7-2-3.4-.6-4.4-1.2-5.3-3.6-1.2-3.3-2-3.5-4.6-.8-1.1 1.1-2 1.7-2 1.3 0-.5-.7.3-1.4 1.6-1.3 2.3-9.7 6.2-13.6 6.2-.8 0-2.2.3-3 .7a204 204 0 0 0-20.1 4.3 23.2 23.2 0 0 1-13.6-.3c-1.5-.6-3-1.2-3.3-1.2a26 26 0 0 1-6-6c0-.4.7-.6 1.5-.6s1.5-.5 1.5-1.1c0-.6-.7-.9-1.5-.5-.8.3-1.5 0-1.5-.5 0-.6.9-.9 2-.6 1.6.4 2 0 2-2.2 0-4 1.2-4.6 2.4-1 .6 1.7 1.6 3 2.1 3 1.7 0 2.9 3 1.5 4-.7.3-1 1.2-.6 1.8.8 1.2 4.6 1.5 4.6.3 0-.4.9-.8 2-1 1.1 0 2 .3 2 .7 0 1 11.1.2 12.5-.9 2.1-1.5 6.5-2 6.5-.8 0 .9.3.8 1-.2.5-.8 1.4-1.6 2-1.6 2.3-.3 2.4-.5.7-1.8-1.6-1.3-1.5-1.4 1.8-1.8 4.1-.5 4.2-.2 1.3 2.9l-2.2 2.3 3.4-.6c5.2-1.1 12-5.3 11.3-7-.4-1 .2-1.7 1.6-2 1.2-.4 3-2.4 4.2-4.5 2-4.1 3.5-5.2 2.4-2-.3 1 0 2.3.6 2.7.8.5 1-.4.7-3-.2-2 0-3.6.4-3.6.8 0 3 4.3 3.3 6.5.7 4.3 1.6 4.8 8.3 4 3.6-.3 7-.8 7.4-1.1 2.1-1.3 11.3-1 13 .4 1.5 1.2 9 1.3 10.2 0 2.6-2.6 3.1-7.5 1.3-11-1.7-3-1.8-4.1-.8-6l1.2-2.3-.5 2.3c-.8 4.1.4 5.6 2.5 3.1 1.2-1.4 2.6-2 3.9-1.6 1.5.4 2 0 2-1.6 0-1.1.3-1.8.6-1.4.4.3 1.3 0 2-.8 2.2-2.2 3.6-1.8 2.9.6-.5 1.4-.3 2 .3 1.5.6-.3 1.3-.2 1.7.4.3.5 0 1-1 1-.8 0-1.5.4-1.5 1s.9.6 2.6 0c1.6-.7 2.3-.7 1.9 0-1 1.5.8 1.2 3-.5 1.6-1.1 1.7-1.7.7-2.3-.9-.6-1-2.1-.6-5a13 13 0 0 0-.4-6.5 75 75 0 0 1-3-7.6c-2-6.2-3.7-7.4-5.3-3.8-.6 1.4-1.9 2.8-2.8 3l-3.2 1.8c-1 .7-2.7 1-4.3.5l-2.8-.7 3.6-2.7c4.3-3.3 4.4-3.6.6-5.2-1.6-.7-3-1.6-3-2 0-1-13.3-.6-14.9.4-1.7 1-7.1 1.4-7.1.4 0-.4-.7-.5-1.5-.2s-2.7 0-4.4-.9c-1.8-.9-3.4-1.1-4.2-.6m671.1 13.6c-3.4 1.4-8.6 10.2-7.6 12.9.3.8 1 1.3 1.5 1 .6-.4 1.4.1 2 1 .6 1.2 2 1.7 4.5 1.6 3.3-.1 3.6.1 3 1.8-.7 2.6 3 2.8 4.1.3.6-1.5.8-9 .3-13.8 0-.5.3-1.7.6-2.6 1-2.3-4.5-3.7-8.4-2.2m-462.8 3c-1.7 1-3.2 2-3.2 2.5 0 .4-1 .8-2 .8-1.8 0-2 .5-1.7 4.1.4 4.9 1.5 5.6 8.2 5.5 4.2 0 5.2-.5 6-2.4.5-1.2 1.5-2.2 2.2-2.2 2.3 0 1.4-4.1-1.6-7-3.4-3.4-3.5-3.4-7.8-1.3M376 854c0 .5-1.8 1-3.9 1-3.2 0-4.4.6-7 3.5-3.3 3.8-3.9 5.5-1.9 5.5.7 0 .2.9-1.1 2-1.4 1-3.1 1.6-3.9 1.3-3.4-1.3-6.2 1.8-6.2 6.9 0 7.6 4.9 7.4 6.6-.3.6-2.6 4-4.9 7-4.9 1 0 2.7-1.1 4-2.5a9 9 0 0 1 4.8-2.7c2-.2 2.6-.9 3.1-4 .4-2.1 1-3.8 1.6-3.8.5 0 .9-.7.9-1.5s-.9-1.5-2-1.5-2 .5-2 1m764 10c0 1.3-.7 2-2 2-1.4 0-2 .7-2 2 0 1.4-.4 1.9-1.2 1.4-.8-.5-1 0-.6 1.4.4 1.5.2 2.2-.8 2.2-.8 0-1.4.5-1.4 1s.7 1 1.5 1c1.8 0 2 1.6.3 2.3-1 .4-1 .8.2 1.6 2.4 1.7 3 1.3 3.7-2 .3-1.8 1.4-3.4 2.3-3.6 1-.3 2.4-1.7 3.1-3.1a12 12 0 0 1 2.2-3.3c.8-.6-2.9-4.9-4.3-4.9-.6 0-1 .9-1 2m-31 11c0 .5-.9 1-1.9 1-1 0-2.2.7-2.5 1.6-.4 1.1-1 1.3-1.9.7-1.7-1.3-8.2-.9-8.3.5l-.3 2.7c-.2 2.2-2.1 1.8-2.1-.5 0-2.5-2.4-1.7-3.8 1.3l-1 2.2-.1-2.3c-.1-3-1.8-2.5-4.5 1.1-3 4-3.7 16-1 15a6 6 0 0 0 2.7-2c1-1.8 3.7-.5 4.8 2.5l1 2.6 3.4-4a16 16 0 0 0 3.5-4.8c0-.4.7-.5 1.5-.2 2 .7 3.5-3 3.5-8.5 0-2.1.5-3.9 1-3.9s1 2.3 1 5.1c0 4.1.3 5 1.5 4.5 1-.3 1.5 0 1.5 1 0 2.6 2 1.4 3.5-2.2 2.2-5.4 1.9-14.4-.6-14.4-.5 0-.9.5-.9 1m7.5 2c-1.4 2.8-2.1 10-1 10 .4 0 1.6-.5 2.7-1.1 1.8-1 2.4-.8 3.5.7s1.3 1.6 1.3.2c0-1 .9-2 2-2.3 2.8-.9 2.5-3.7-.8-6.6-4.5-4-6-4.2-7.7-1M472 905.4c0 1-.7 1.3-1.9 1-1.4-.3-2 .2-2.6 2.4-.3 1.5-1.2 3.1-1.8 3.5-2 1.2-2.3 15.8-.3 15.8 1.2 0 1.6-1 1.6-4 0-2.9.4-4 1.5-4 .8 0 1.5-.9 1.5-2 0-1.2.9-4 2-6.2 2.2-4.7 2.5-6.4 1-7.3-.6-.3-1 0-1 .8m1430.7 1.5c-1.5 1.5-2.7 3.3-2.7 4 0 .7-.5 1.2-1 1.2s-1 .7-1 1.5a3 3 0 0 1-1.3 2.2c-3.5 2.2-4.8 6.4-4.7 15 .1 24-.5 27.4-5.6 29.3-2 .8-2.1 1.8-2.7 13-.4 9.1-1 13.3-2.7 17.3-2.6 6.2-1.3 15 2.5 17.1a9 9 0 0 1 2.9 2.5c.6 1 1 1 1.5.2 1.4-2.1 4.1-.1 3.5 2.5-.4 1.7-.1 2.6 1 3 1.2.4 1.3 1 .6 2.4-.6 1-.7 2.5-.4 3.3 1 2.5 9 7.7 12 7.8 4.6 0 13.6 3.2 14.8 5.2.8 1.2.8 2.2-.1 3.6-1.1 1.8-1 2 1.4 2.3 3.4.4 3.8 1.9 1.3 4.6-5 5.3.2 13.1 9.2 13.9 3 .2 6 .7 6.8 1 4.5 1.7 10 2 15.8 1 5.8-1 6.3-1.3 8-4.7 1-2 2.6-4.1 3.7-4.6s2.7-3 3.6-5.4c1.7-5 3.3-9 5.4-13.5.8-1.6 2.3-9 3.5-16.5a49.7 49.7 0 0 1 4-16.2c3.3-4.5 2.5-8.5-1-5.3-1 1-2.4 1.3-3.5.9-1.6-.7-1.7-1.6-1-9.8 1.4-14.1 1-18.5-1.7-21.2l-2.3-2.3-3.3 2.9c-3.2 2.8-3.4 3.2-2.9 8.4.5 5 .3 5.8-2.7 9.8a73 73 0 0 0-6.5 11l-3 6.7-5.3.6c-3 .4-6.9.5-8.8.3l-3.5-.3V993c0-4.7-.4-9-.8-9.8-1.2-1.8.2-7.2 1.9-7.2.9 0 1.4-1 1.4-2.8 0-1.6.8-3.9 1.9-5 4.3-5 6.1-.7 2.6 6.2-3 5.9-3.2 8.6-.7 8.6 1.1 0 2.5-1.4 3.5-3.5 1-2 2.2-3.5 2.8-3.5.5 0 .8-.8.5-1.8-.4-1.2.6-3.4 2.7-6.3a68 68 0 0 0 4.5-6.6c1.7-3 1.6-14.3 0-14.3-1.9 0-6 3.8-5.4 4.8.8 1.3-9 3.5-12.3 2.7-3.8-.8-4.2-2.2-2.3-6.6a8 8 0 0 1 4.9-4.8c3.4-1.3 4.5-3.1 1.8-3.1-1.7 0-2-2.1-.5-3.6 1-1 .6-2.7-2.6-13.8-.8-2.6-1.4-5.4-1.4-6.1 0-2.6-6.1-5.2-14.2-6a47 47 0 0 1-15.5-5c-3-2-3.5-2-6.6 1.3m-297.3 31.6a49 49 0 0 0 1.1 11.4c1 5.6 1.5 11.7 1.2 16.3a431 431 0 0 1-3.2 31.2 26 26 0 0 0 1 10.5c1.5 5.6 1.6 7.6.6 12.2-1.1 5.3-6 15-6 12-.1-2-4.1 2.4-4.1 4.4 0 .8-.5 1.8-1 2.1-.6.4-.8 1-.5 1.5.5.9-2.5 5-8.3 11.2a31 31 0 0 0-4.6 5.9 6.2 6.2 0 0 1-2.6 2.7c-1.2.4-1.3.2-.3-.9 2.6-2.7 1.2-2.9-2.2-.2a13 13 0 0 0-3.5 3.5c0 4-21.2 21.8-26 21.8-3.3 0-10 4.5-10 6.8 0 1.5-.2 1.5-1.1.2-.9-1.2-1-1-.6.7.3 1.2-.1 2.7-.9 3.4-2.6 2.1-1.4 3 2 1.5 3-1.3 14-9.3 19.1-14 3.8-3.4 5.8-4 5-1.6-.6 1.8-.4 2 .8 1.4a127 127 0 0 0 20-19.4c2.8-3.6 6-7.3 6.9-8.3 1-1 2.5-2.9 3.4-4.2 1-1.4 2.1-2.5 2.8-2.5.6 0 2-1.5 3.3-3.3l6.3-9.2a120 120 0 0 0 12.5-24.8c.4-1.5 1-2.7 1.4-2.7.3 0 1.7-1.8 3.1-4 1.4-2.2 3.2-4 4-4 1.4 0 1.6-1.5 1.6-10.3 0-5.6.4-15 .8-20.7.8-10.2.8-10.7-1.7-15.5a46.5 46.5 0 0 0-15.4-15.9c-4-2-4.1-2-4.9.8m-1432 29.1a28 28 0 0 0-2.7 4.9c-.4 1-1.3 1.6-2.1 1.3-.8-.3-2 0-2.6.9-.7.8-2.1 1.4-3.2 1.4-1 0-2.1.7-2.4 1.5-.4.8-1.4 1.5-2.4 1.5-2.8 0-10.2 8.1-9.7 10.8.3 1.6 0 2.2-1.4 2.2-1 0-2 1-2.5 2.2-.3 1.2-1.5 3-2.5 4.2a7 7 0 0 0-1.9 3.9c0 1-.9 2.1-2 2.4-1 .3-2.1 1.1-2.4 1.9-.3.8-1.4 1.4-2.5 1.4-1 0-2.3.5-2.6 1-.3.5-1.6 1-2.9 1-3.8 0-6.3 2.5-4.8 5 .6 1 1.2 3.6 1.2 5.5 0 2.8.4 3.5 2 3.5 1.3 0 2 .7 2 2 0 1.7-.7 2-4 2-2.1 0-4.2-.5-4.5-1-1.2-2-4.5-1.1-4.5 1.1 0 1.7.5 2 2.5 1.7 2.8-.6 3.7 2.5 1 3.6-2 .7-1.9 4.3.3 5.5 1 .7 1.2 1 .4 1-1.6.1-7.2 5.5-7.2 7 0 .6-.5 1.1-1 1.1-.6 0-.5.8.2 2 1 1.6.8 2.2-1.3 3.9l-2.4 2h2.5c2.3.1 2.3.2-1.3 3.9-3 3.1-3.7 4.5-3.8 8.2-.1 2.5-.4 3.5-.6 2.3-.5-2.7-1.4-2.8-5.3-.8-3.4 1.8-4 5.6-1.4 8.3 1.5 1.5 1.5 1.6-.2 2.3-1.7.7-1.7.8-.2.8 2.2.1 2.4 4 .3 4.7-.8.4-1.5 1-1.5 1.5s.7.9 1.5.9c1 0 1.5 1.1 1.5 4 0 3.6.3 4 2.5 4 1.8 0 2.5.5 2.5 2 0 1 .8 2.1 1.8 2.5 4.4 1.5 6.5 7.9 6.3 18.8l-.1 4.7h-3.8a9 9 0 0 1-5.8-1.8c-2-1.8-6.4-3.5-6.4-2.4a7 7 0 0 0 1.6 2.3c1.4 1.6 1.4 2 .1 4.6-.8 1.5-1.9 4.1-2.3 5.8-.8 2.4-1.6 3-4.2 3.3-3 .3-3.2.2-3.2-3.3 0-2.5-.5-3.8-1.8-4.2a16 16 0 0 1-4.2-3l-2.4-2.5-1 2.4a9.4 9.4 0 0 1-1.8 2.8c-1.8 1.3-2.7 6-1.4 7.2 1 1.1 1 1.6 0 2.6-1.8 1.6-1.8 2.7 0 4.5.9.8 1.2 1.8.8 2.1-.3.4.3 1 1.5 1.2 1.2.3 2.7 1.9 3.3 3.5.7 1.6 1.9 2.9 2.6 2.9.8 0 1.4.3 1.4.8 0 1.2 5.7 7.2 6.9 7.2.6 0 1.1.8 1.1 1.8 0 1.8 2.9 7.4 3 5.8 0-2.4 3 3.2 3 5.8 0 2.5.3 2.8 2.5 2.4 1.8-.4 2.5 0 2.5 1 0 .8 1.1 2.5 2.5 3.8l2.5 2.3-2.1 3.6a17 17 0 0 1-3 4c-.4.3-.6 1.2-.2 2 .4 1.1 0 1.3-1.1.9-1-.4-2.6.2-4 1.5-2.8 2.6-9.7 3.6-15.6 2.2-2.5-.6-6.4-1.3-8.7-1.5-5.4-.6-8.3-1.5-8.3-2.7 0-.5-1.3-.9-3-.9-2.6 0-3 .4-3.6 3.8-.8 4-1.8 5.2-4.9 5.1h-2l2-.9c1.9-.8 1.9-.9-.3-1-1.4 0-3.8-1.6-6-4-2-2.2-4-4-4.7-4-2 0-4.1 5.9-3.6 10.6.2 2.3 7.1 4.5 10.7 3.4 4.5-1.5 8.1.8 9 5.8.5 3.6 1.2 5.7 3.5 10.5 1.4 3 5.3 5.3 11.4 6.7 2.6.6 6.7 2 9 3 2.4 1.1 4.7 2 5 2 .3 0 2.8 1.6 5.6 3.5a28 28 0 0 0 6 3.5c.6 0 2.5 1 4.2 2.4a55 55 0 0 0 19.4 7.6c1.5 0 5.3.7 8.3 1.5 3 .8 6.7 1.5 8 1.5 1.7 0 4.9 2 9 5.5 3.5 3 6.7 5.5 7 5.5 2 0 4-5.4 4-10.4 0-4.9.2-5.5 2.2-5.8 1.7-.2 2.4-1.1 2.8-3.3.5-2.7 1-3 4.7-3.3 3.6-.3 4.3-.7 5.7-3.7a19 19 0 0 1 4.9-5.7c1.7-1.2 3.4-2.7 3.6-3.2a38 38 0 0 1 11.7-10.2c3-.8 6.4-5 6.4-8 0-1.6.6-2.4 1.8-2.4 1 0 2.4-1.5 3.5-4 1.2-3 2.3-4 4-4 4.8 0 12.6-2.4 13-4.1.3-1 2-2 3.8-2.4 1.9-.4 5-1.6 6.9-2.6 1.9-1 4-1.9 4.6-1.9.6 0 2.7-1.7 4.7-3.7s3.7-3.1 3.7-2.5c0 .7.5 1.2 1.2 1.2 1 0 1-.3 0-1.2-1.7-1.7-1.5-2.5.8-3 1.1-.4 2-1.4 2-2.3 0-1.2.6-1.6 2-1.2 1 .3 2 .2 2.2-.3.5-1.1 10.8-2 10.8-1 0 .6-.7 1-1.5 1s-1.5.8-1.5 1.8c0 2.5-4.1 6.2-7 6.2a12 12 0 0 0-5.6 2.5c-2.3 1.7-3.4 2.1-3.7 1.2-.7-1.7-4 3-4.3 6-.3 3-.5 3.2-3.3 3.8-4 .8-5.4 3.3-5.9 10.9-.4 7.4-1.3 9.6-4 9.6-1 0-3.7.7-6.2 1.6-2.4.8-5.2 1.3-6.2 1-1.5-.3-1.8.2-1.8 3 0 2.4-.5 3.4-2 3.9-1.9.6-2.1 1-2.4 4.3 0 .7-.8 1.7-1.6 2.2-.8.5-1.5 1.3-1.5 1.7 0 .4-.7 1.8-1.4 3.1s-1 3-.7 3.7c.3.8 0 1.7-.4 2-.6.4-1 1.5-1 2.5s-1.2 2.7-2.6 3.6c-1.7 1.1-2.4 2.4-2 3.6.2 1.1-.1 1.8-1 1.8-.8 0-1.4.6-1.4 1.4 0 .9-1.2 1.6-2.8 1.8-3.4.4-4.4 4.3-1.3 5.3 2 .6 3 4.5 1.1 4.5-2 0-5 4.5-5 7.5 0 5.2 4.6 8.2 14.9 9.6 14 2 15.2 2 17.6.5 4.9-3.2 9.6-1.6 16.8 5.6 3.3 3.3 6 4.4 9 3.9.5 0 4.6 1 9.1 2.4 9.5 3 23 3.1 26.4.3 2.2-2 4.8-2.8 5.7-2 .3.4 2.5 1.1 4.8 1.7 3.3.8 4.5 1.7 5.6 4.3 1 2.1 2.4 3.4 4 3.8 1.4.3 6 1.6 10.1 2.9a49 49 0 0 0 20.2 3c1-.4 2-2 2.3-3.6a11 11 0 0 1 1.9-4.2 42 42 0 0 0 4-6.9c1.4-3.1 3.8-6.5 5.3-7.6a23 23 0 0 0 5.3-6.9 33 33 0 0 1 3.6-5.8 34 34 0 0 0 3.5-4.5 95 95 0 0 1 21-21.8c1.9-1.2 5-4.2 6.8-6.7 1.8-2.5 3.8-4.5 4.5-4.5.7 0 3-1.6 4.9-3.5 2-2 4.5-3.5 5.5-3.5 2.5 0 13.4-5.4 15.2-7.4.7-.9 1.8-1.6 2.5-1.6.6 0 1.7-1 2.4-2.3 2.6-4.9 10.5-7.3 14.5-4.4 3.6 2.7-.2 7.2-11.6 13.7a44 44 0 0 0-6.5 5c-2.1 2-5 4.4-6.5 5.4-1.8 1.2-4.9 6-8.8 14-3.6 7-8 14-10.5 16.8a25 25 0 0 0-6 10.5c-1 3.2-2.1 6.3-2.6 7a61.3 61.3 0 0 0-4.3 17c-1.9 15 6.9 21 31.6 22 16.1.7 19.2-.3 18.1-5.7-.3-2-.1-3 .6-3 .6 0 1.1-.9 1.1-2 0-1 1-2.5 2.2-3.1 1.2-.7 3-2 3.8-3 1.3-1.6 2.4-1.7 7.8-1 6.1.7 6.3.7 5.7-1.3-1.7-5.4-1.7-6.7 0-8.6 2.8-3 9.5-2 9.5 1.5 0 .8.4 1.5 1 1.5s1-.6 1-1.3c0-.9.2-.9.9.1.5 1 2.3 1.3 5.2 1 2.4-.1 4.3 0 4.1.5l-.2 1.8c0 .5-.4.7-1 .4-1-.7-1.2-.4-1.6 3.5-.1 1.4-.6 3.4-.9 4.5-1 3.6 4 7.8 8.7 7.2 10.6-1.4 17-8 12.9-13.3-1.2-1.5-1.9-3.5-1.6-4.4.3-1 .1-2.8-.4-4.1-1.4-3.9-1.2-4.4 1.8-4 1.6 0 3.3-.4 4-1.3 1.5-1.7 4.8-2 7-.7 2 1.3 6.3 0 6.8-2 .3-1 1.2-1.9 2-1.9.7 0 1.3-.5 1.3-1 0-.8-1.4-1-3.9-.5-5 .8-5.5 0-4.7-7.9.9-7.8 1.7-9 5.8-9 4.6-.1 6 1.9 4.2 6-1.8 4.3-1.8 6.4.1 6.4.8 0 1.5.8 1.5 1.8s.7 2.7 1.5 3.8c2 2.7 1.8 3.6-.8 2.9-1.8-.6-2-.5-1 .6.7.7 1.3 3 1.3 5 0 2.7.6 4.2 2 5.2 1.8 1.2 2.1 2.6 2.2 8.8 0 8.2 1 9.8 6.4 9.9 1.7 0 3.7.7 4.4 1.5.7.8 2 1.5 3.1 1.5 1 0 1.9.5 1.9 1s-.6 1-1.3 1c-.8 0-.7.3.3 1 1.7 1 1.5 1.4-3 3.3l-3.5 1.5 6.2.1 6.1.1 1.7-4.9c.9-2.7 2.5-5.7 3.5-6.6 1.1-1 2-2.5 2-3.4 0-.9 1.3-2.3 2.9-3.2a22 22 0 0 0 7.1-11.7c0-.7 2-2.5 4.4-4 6.4-4 15.4-12.1 17.7-16 1.1-1.7 2.6-3.2 3.3-3.2.7 0 2.6-1.1 4.2-2.5 4.9-4.3 5.3-4.6 8.7-5.7 1.7-.6 3.5-1.6 3.8-2 .4-.6 3.3-1.6 6.5-2.3l5.9-1.2-3-1.3a46 46 0 0 0-7.3-2.1c-2.4-.5-6.5-2-9-3.2a89.6 89.6 0 0 0-17.8-5.1c-7-1.5-13.7-3.2-14.6-3.7-1-.5-3.4-.9-5.3-.9-2 0-3.5-.4-3.5-.8s-2.8-1.4-6.3-2c-8.8-2-9.7-2.4-6.2-3.2l3-.7-2.5-1a70.7 70.7 0 0 0-18.6-4c-1.3.2-.5.8 2.6 1.7 7.1 2.2.6 2.6-8.4.5-11.3-2.7-10.9-2.5-9.5-4.1 1.6-2 .8-2.5-4.8-3.2-2.6-.3-5-.8-5.3-1.2a59 59 0 0 0-14.5-7c-.8 0-1.5-.5-1.5-1s-.6-1-1.4-1c-.8 0-2.8-1.1-4.5-2.6-2-1.6-5.1-2.9-9.3-3.6a64 64 0 0 1-8.3-1.8c-4.6-1.8-26.4-8-28-8-1.5 0-1.6.2-.4 1.7 1.3 1.5 1.2 1.6-.6.8a28 28 0 0 0-7-1c-8.6-.4-16.3-3.5-49-19.7-15.5-7.7-16.7-8.4-18.6-10.6a9 9 0 0 0-3.5-2.6c-1-.3-3.1-1.6-4.6-2.8-1.4-1.3-3.6-3-4.8-3.8a38.3 38.3 0 0 0-9.4-6 44.3 44.3 0 0 1-8-5 46.3 46.3 0 0 0-6.6-4.6c-5.2-2.8-7.7-6.4-4.5-6.4 2.2 0 1.8-2.4-.8-4.7a389.6 389.6 0 0 0-23.5-15.7c-1.2-.7-7-1.6-12.2-2-4.6-.2-11.4-4.7-19.3-12.6-7.6-7.7-9-9.7-6.2-8.6 3 1 1.4-1.8-3-6a29 29 0 0 1-4.5-4.7c0-1.1-8.5-14.2-10.2-15.8-1-1-1.8-2.3-1.8-3.2 0-1.6-3.3-3.2-4.8-2.3-.4.2-1.4-1.6-2.1-4-1-3.1-1.8-4.4-2.7-4-.8.3-2.1-.6-3.1-2.2l-5.4-7.7c-5-7-10.6-23.4-12.9-38.2a97 97 0 0 0-2.5-13.3c-.3-.5-1-4-1.5-7.8-1.3-10.5-5-18.3-5-10.5 0 4-4.8 4.1-5.6 0-3.4-17-3-16-5.9-15.5-1.9.4-2.5 0-2.7-1.6-.3-2-.5-1.9-2.4.9m1469.2 18a15 15 0 0 0-.6 3.7c0 2.7-2.3 4.8-4.7 4.2-3.5-1-4.9 2.1-2.8 6.4 3 6.2 3 15.7 0 21a21.4 21.4 0 0 0-2.5 5.8c0 2-1.7 1.7-4-.6-2.5-2.5-3.5-2.5-6.1-.1l-2 1.9 3 3c1.7 1.8 3.4 3.2 4 3.2 3 0-7.4 26.6-13.5 34.6-2.5 3.2-2.8 3.3-4 1.7-1.2-1.6-1.3-1.6-1.4-.2 0 1-.7 2-1.6 2.3-1.1.4-1.5 1.4-1.1 3.1.2 1.4.1 2.8-.3 3-1.2.8-.6 4.8.8 5.3.7.2 1.6-.5 1.9-1.7.3-1.3 1.3-2.1 2.8-2.1 2.7 0 5.5-3 5.5-5.8 0-1.2.4-2.2 1-2.2.5 0 1.9-1.8 3-4s2.5-4 3.1-4c.6 0 .9-.9.6-2-.3-1.1-.1-2 .4-2 2.2 0 .8 8.6-2.7 15.7-2 4-3.4 7.6-3.1 8 .3.2 4.6-1 9.6-2.6a37 37 0 0 1 10.6-2.4c.8.3 1.5 0 1.5-.5 0-.6 1.8-1.3 4-1.7 2.2-.4 4-1 4-1.6 0-.5 1.6-.9 3.5-.9 4.1 0 12.2-3.8 12.7-6 1-4.2-5-8-13.1-8-1.7 0-3.1-.5-3.1-1s-.9-1-1.9-1c-2.5 0-3.2-2.1-2-6.4.7-2.5 1.6-3.6 2.8-3.6 1 0 3-1.8 4.6-4 1.5-2.2 3-4 3.4-4 .3 0 1.5-1.8 2.5-4s2.5-4 3.2-4c.7 0 1.9-1.8 2.5-4 1-3.5 1.6-4 4.3-4 5.3 0 10.8 2 10.2 3.6-.3.8.8 3.3 2.4 5.5 1.6 2.2 2.6 4.7 2.3 5.5-.3.8 0 1.4.6 1.4s1.1 1.5 1.1 3.4c0 2.4.7 4 2.3 5.3 2.7 2.1 4.5 7.3 2.5 7.3-3.2.1 3 3 6.3 3 2.1 0 4 .5 4.4 1 1 1.8 4.3 1 4.8-1a4 4 0 0 1 2.6-2.7c1.2-.3 2.1-1.2 2.1-2 0-1.9 1.8-1.6 2.3.5.4 1.3.5 1.1.6-.5.2-3.5 3.1-2.2 9.7 4 1.6 1.5 4 3 5.3 3.4a42 42 0 0 0 18.6-3.6c5.6-2.8 21-5 23.5-3.3 1.7 1 2 .9 2.6-1.3.3-1.4.4-3.2 0-4-.3-1 0-1.5 1.2-1.5 1.5 0 1.7-.7 1.4-3.5-.3-2.8-.9-3.5-2.6-3.5-1.4 0-1.7-.3-.8-.8.9-.6.5-1.2-1.3-2.2-1.4-.7-2.5-2.1-2.5-3.1 0-1.3-2-2.8-6.3-4.8-12.9-6.2-18.7-5.1-29.1 5.4-3.6 3.6-7 6.5-7.6 6.5-.5 0-1 .9-1 2 0 1-.4 2.1-.9 2.4-1.4.9-11.8-2.5-14-4.5-1.1-1-2.5-1.9-3-1.9a1 1 0 0 1-1.1-1c0-.5-1.8-1.3-4-1.6-5.2-.8-5-2 .3-3.5 3.9-1.1 4-1.3 1.7-1.9l-2.5-.6 2.3-1.5a4.8 4.8 0 0 0 2.2-3.9v-2.5l-8.8.3c-5.6.3-9.3.9-10.3 1.8-2 1.7-4.9-.9-4.9-4.3 0-1.7-.8-2.3-4-2.8-3.5-.6-5.8-2.5-3-2.5.7 0 .8-.5.3-1.3-.4-.6-1-3-1.3-5.2-.4-3.5-.9-4-4-4.9-2-.5-4.4-2-5.5-3.1-1.2-1.2-2.5-2-3-1.8-.6.2-1.6-1-2.3-2.4-3.5-7.5-4.6-8.9-8.5-10.7l-4.8-2.3c-.4-.2-1 .3-1.3 1.2m-1435.2 46.7l1.1 6.2c1 5.8 7.5 18.3 10.2 19.5 1.3.6 2.3 1.5 2.3 2 0 .6.7.8 1.5.5a3 3 0 0 0 1.5-2.6c0-2 5.8-2.3 8.9-.4.8.5 1.6.4 2-.3.5-.7 1.8-1 3.3-.6 2.2.6 2.5.3 2.3-1.7-.4-3.7-.4-3.8-1.8-3.8s-7.1-5.2-9.3-8.6c-1-1.3-2.3-2.4-3-2.4-1.6 0-1.9 1.6-.5 2.4.9.6 2.2 5.6 1.4 5.6-.8 0-4.2-4.5-4.3-5.6 0-1.6-4-4.8-8.3-6.8-2-1-3.7-2-3.7-2.4 0-.4-1-1.3-2-2-1.9-1.1-2-1-1.6 1m-170.7 6.9c-1.1.7-1.7 2.2-1.7 5s-.4 3.9-1.5 3.9c-2 0-1.9 1 .2 2.6 2.4 1.7.8 3.2-1.7 1.6-2.7-1.7-2.7-1.7-5.6 3a45.5 45.5 0 0 1-4 5.6c-.7.7-1 2-.8 2.7.7 1.7.5 1.7 6.1 2l4.3.3.1-5.1c.1-3 .4-4 .6-2.5.4 2.8 1.7 3.6 2.8 1.8 1-1.7 3.5-1.1 6 1.4 4 4 6.5 4.3 6.5.9 0-1.6-.6-3.5-1.2-4.1-1-1-1-1.5.1-2.1 1-.7 1.2-2.1.8-5.6-.8-5.7-1.2-6.4-4.4-7.6-1.4-.5-2.7-1.8-3-3-.6-2.2-1-2.3-3.5-.8M1055 1068c-1.4.4-4.5.9-7 1-3.9.2-4.1.3-2 1 2 .7 1.6.9-2 .7-8-.2-13 .4-10 1.2 2.1.7 1.7.9-2.7 1.5a19 19 0 0 1-6.2.2c-.5-.3-1-.2-1.3.3-.8 2.3-46.6 6-76.8 6.2-14.8.1-17.8.4-12.5 1 30 3.1 74.3-.2 114-8.7 8.8-1.9 16.8-3.4 17.8-3.4s1.5-.5 1.2-1c-.7-1.2-8.9-1.2-12.5 0m-1028.7 1.7a6 6 0 0 1-1.7 2.5c-.6.4-.4 1 .7 1.4 2 .7 2.3 4 .3 4.7-1.8.7-2.5 9-.9 10.6.8.7 1.3.8 1.3.1 0-.5 1-1 2.1-1 1.9 0 2-.5 1.7-4.8-.3-3.4 0-5 1.2-6 1.3-1 1.3-1.3-.1-2.5a4.9 4.9 0 0 1-1.5-3.6c.1-3-2.1-4-3-1.4m1372 2c-1.3 1.3-2 1.4-3.5.5-2-1.3-9.5-.6-10.5 1-.3.4-2.3.8-4.5.8-2.1 0-3.9.4-3.9.8 0 1.2-8.8 3.4-16.3 4-1.1.1-1.7 1-1.7 2.7 0 3.2 3.8 3.4 7.8.5 2-1.4 4.8-2 11.5-2.3 8.7-.4 9.7-.1 7.5 2-2 2.2.1 2.7 3.7 1 4-1.9 7.3-1.3 5.4 1a4 4 0 0 1-2.6 1.3c-1.2 0-1.2.3.1 1.6 2 2 12.2-3 12-6-.1-1 .8-2.2 2.1-2.8a5 5 0 0 0 2.7-3.9c.4-2.6.2-2.7-2.4-2.2-1.7.3-2.8.1-2.8-.6 0-1.7-2.6-1.3-4.5.6m462-.7c-.3.5-1.4 1-2.4 1-1.6 0-4.1 6.4-3 7.5 1.7 1.3 11.3 1 13.1-.5 2.7-2.1 1.8-6.6-1.5-7.5l-3.9-1.1c-.9-.3-2 0-2.3.6M76.6 1081.7c-2.3 1.2-3.3 1.2-5.7.3-3.7-1.6-6.3.2-5.4 3.7.3 1.3 0 2.3-.5 2.3a1 1 0 0 1-1-1c0-.6-.5-.8-1.1-.4-.8.4-.7.9.2 1.5.9.5.4 1-1.7 1.4-5.1 1.1-7.6 2.8-7 4.7.2 1-.1 1.8-1 1.8-1.7 0-2.8 6-2 10.3 2.9 14.3 2.8 16.7-.2 16.7-1 0-3 .7-4.6 1.5-3.4 1.8-4.4 2-2.8.3 3-3-.2-4-3.5-1-2.4 2.1-3.5 5-2.3 5.7.6.4 1 1.6 1 2.8 0 1.5.3 1.8.8 1 .7-1 1.3-.9 2.7.7 2 2.1 5.5 2.7 5.5.9 0-.8.5-.8 1.5.1 1.2 1 1.8 1 3 0 1.4-1.2 1.5-1 1 1.2-.7 2.9 2 15.1 3.5 15.6.6.2 1 1.4 1 2.6 0 2.4 2.8 5.6 4.8 5.6.7 0 1.2-.5 1.2-1 0-2.5 4-.7 6 2.8l2.3 3.7 1-2.4c.9-1.9.9-2.5-.1-2.9-1-.3-1-.7-.2-1.7.9-1 .5-1.8-1.5-3.1s-2.6-2.3-2.2-4.2c1.1-5.7-4.8-20.2-10.2-25l-2.5-2.1 2.1-2c1.2-1.2 2.8-2.1 3.6-2.1.9 0 1.4-1.1 1.4-3 0-3.4 4.5-8.5 6.7-7.7.8.3 1.6.1 1.8-.5.3-.7 3-.8 8-.3 7.8.7 7.8.8 7.8 3.6 0 2.2.5 2.9 2 2.9 3 0 2.9-6-.1-6.7-1.7-.5-2-1.1-1.5-3.4.3-1.7.1-2.9-.5-2.9s-.7-1.4-.3-3.6c.5-2.6.3-3.9-.7-4.6-1-.7-1.1-1-.2-1.5 2-.7 1.5-1.9-1.2-3.1-1.4-.6-2.5-1.9-2.5-2.8 0-.9-.8-2.6-1.8-3.9-1.7-2.1-2-2.2-4.6-.8M0 1103.4c0 13.5 0 13.6 5 11 2.7-1.3 3-2 3-6 0-2.5.5-4.4 1.1-4.4.6 0 2.4-1 4-2 3.2-2.3 4.2-8 1.5-8-1.9 0-3.2 2-1.4 2.1.7 0-.3.5-2.2.9-2 .4-4.7 1-6.3 1.5-2.1.6-2.7.4-2.7-.9 0-1 .8-1.6 2-1.6 3.3 0 2-3.2-1.8-4.4l-2.2-.7v12.5m1452.9-4.9l-.3 1.8c0 .6-1.1 1.2-2.4 1.1-1.2 0-2.2.3-2.2.8 0 2-8 8-15.5 11.8-6.2 3.1-15 9-13.3 9 1 0 2-.4 2.3-1 .3-.4 2-1.2 3.8-1.6 1.7-.3 7-2.6 11.4-5 4.6-2.4 9-4 9.8-3.8.8.4 1.5.1 1.5-.4 0-.6 1-1.4 2.1-1.7a32 32 0 0 0 11.4-7.3c.3-1-.1-1.1-1.6-.7-1.7.6-2 .4-1.5-1.2.5-1.4 0-1.8-2.4-2-1.7-.1-3 0-3.1.2M297 1115.8c4.2 5.3 14.2 10.4 18.7 9.6 2-.4 4-1 4.3-1.6.3-.5 2.2-.2 4.2.7 3.9 1.6 7.7 2 7.7.8s-7-5.4-8-4.8c-.4.2-2.8-.4-5.3-1.5a13.6 13.6 0 0 0-7.3-1.4c-1.8.3-4.7-.2-7.7-1.5-6.3-2.7-8.5-2.8-6.6-.3m1578 1.7c-4 1.4-13.7 6-22 10.8-13.8 7.8-14.3 7.9-23.3 4.2-7.9-3.2-10-3.1-20 .5-10.2 3.8-28 4.2-34.5.9-3.2-1.6-4-1.7-6.9-.4a16.5 16.5 0 0 0-7.3 9.8c-.8 6.3-11.9 19.1-21.5 24.8-3.9 2.3-3.9 2.2-3.6-3.2 0-2.7-.6-4.4-2.7-6.6a55.7 55.7 0 0 1-4.5-5.5 8.7 8.7 0 0 0-5-3.2l-7.8-1.5a35 35 0 0 1-14.1-5c-4.2-3.2-9.7-4.5-11.7-2.8-1 .8-2.2 1.3-2.9 1-1.2-.4-9.5 9.2-11.9 13.9-.8 1.5-1.8 2.8-2.2 2.8-1 0-4 6-4.7 9.6-1 4.7-3.7 6.8-8 6-2-.4-3.5-1.1-3.5-1.7 0-.6-.5-.7-1-.4-.5.3-1 .1-1-.5s-1.1-1.5-2.5-2-5.3-2.8-8.7-5a93.1 93.1 0 0 0-9-5.3c-1.5-.6-2.8-1.8-2.8-2.5 0-1-1.2-1.3-3.8-1.1-2 .1-5.2-.5-7-1.5-1.9-1-4-1.5-4.9-1.2-2.5 1-12.3-.6-12.3-2 0-1.5-3.3-2.9-3.8-1.5-.2.6-1 1.1-1.7 1.1-1.4 0-1.9 1-3 7-.4 2-1.2 4.1-1.9 4.9-.6.8-1.2 3.4-1.2 5.8-.2 7.7-3.3 9.6-14.4 9.1a31 31 0 0 1-9.8-1.4c-.4-.5-2.2-1-4-1-2-.2-3.8-.7-4-1.2-1-1.5-4.4-2.2-13-2.7-4.4-.2-9-.9-10-1.4-2.6-1.4-6.2-1.4-6.2-.1 0 .5-.7 1-1.5 1s-1.5-.7-1.5-1.5c0-3.9-13.7-.3-23.8 6.1-.2.1-.8 2.1-1.3 4.5-.5 2.3-1.9 5.3-3 6.7-2.3 3-2.3 3.6-.6 5.4a34.4 34.4 0 0 1 3.9 14.5c-.1 1.3.3 2.3.8 2.3 1.3 0 .1 5.2-1.4 6.3-.8.5-.7 1 .2 1.5.9.6.4 1.6-1.9 3.8a19 19 0 0 0-4 5.2 3.3 3.3 0 0 1-3 2.2c-3.2 0-3.5 2.8-.5 5.9 1.4 1.5 2.6 3.8 2.6 5.2 0 2.1 4.4 6.9 6.4 6.9.6 0 5 3.6 9.7 8 3.1 3 4 4.6 5 10 2 10.3 2.8 11.8 7.1 12.5 3.5.6 3.8 1 3.8 3.9 0 5.6 4.8 7.3 12.2 4.2 3-1.3 3.8-1.3 6.2 0a13 13 0 0 0 4 1.4 22 22 0 0 1 5.7 3.2c5 3.4 6.9 7 7 13.4 0 2.1.3 4.6.7 5.5 1 2.4 11 9.7 15.2 11 2 .6 4 1.5 4.5 2 .5.4 2.8 1 5 1.5 2.2.4 5.5 1.9 7.4 3.3 1.8 1.4 4.3 2.7 5.5 2.8 1.1.2 3 1.5 4 2.8l1.8 2.5h106.1c92.6 0 105.9-.3 103.7-1.5-1.4-.8-3.5-1.4-4.6-1.5a5 5 0 0 1-3.5-1.6c-1.7-2-10.3-1.3-12.9 1-2.4 2.3-3.6 2-5-1.3-1.2-3.1.1-10.1 2-10.1 1.1 0 6.9-5.8 6.3-6.3-.2-.3.8-.8 2.3-1.1 1.5-.4 4.3-2 6.3-3.7a13 13 0 0 1 5.8-2.9c1.3 0 2.3-.5 2.3-1 0-1.5 13.8-1.2 19.2.4 2.5.8 4.8 1.3 5 1 .3-.2 2.4 1.4 4.8 3.6s5.1 4 6.1 4c2.7 0 6.1 7.5 7.5 16.6l.6 4.4h37.4l1-2.8 1-2.7 1.6 2.9 1.5 2.9.6-2.5c.6-2.2 1.2-2.5 6.4-2.7 4.4-.2 6.1-.7 7.8-2.5 2-2 2.6-2.2 7.6-1.5 9.2 1.3 11.9 1.1 12-.8 0-1.2.4-.9.8.7.4 1.5 1.5 2.6 2.9 2.8 1.4.2 2.2 1 2.2 2.3 0 2.4 7.2 2.7 12.7.4 2-.8 4.8-1.5 6.3-1.5s3.3.7 4 1.5c.7.8 1.6 1.5 2.1 1.5s.9-.7.9-1.5c0-1.6 4.3-2.1 12.3-1.6 3.2.2 3.7 0 3.7-1.8 0-1.5.6-2.1 2.4-2.1 1.3 0 3-.7 3.6-1.5.7-.8 1.9-1.5 2.7-1.5.8 0 2.7-.7 4.2-1.4l2.8-1.5.5-84.8c.3-46.6.4-88 0-92l-.4-7-7.2-.6c-6.6-.6-7.3-.9-10.1-4.2-1.7-1.9-3.8-3.5-4.7-3.5-1 0-2.3-.8-3-1.8-.7-1-3.1-2.5-5.3-3.2-2.2-.7-4.8-1.6-5.7-2.1-4-2-18.6-1-23.8 1.6a23.8 23.8 0 0 1-6.8 2.5c-3.4 0-6.8 2.4-8.6 6.1-2.1 4.3-1.6 6.9 1.4 6.9 1 0 2 .4 2 .9s3 1.4 6.6 2.1c4 .8 7.5 2 8.6 3.2 2.4 2.4 15.3 2.3 16.7 0 1.2-2 4.2-.8 8.7 3.2 3.8 3.4 4.5 7.4 1.1 6.8-1-.2-1.7.4-1.7 1.3 0 2.3-2.8 1.8-3.6-.7l-.6-2.1-1.9 2.4c-1.5 2-1.9 2-1.9.7 0-2.2-3.3-2.4-5-.3-2.5 3-23.9.5-27.8-3.2-.7-.7-2.5-1.6-4-2-1.5-.3-3-1-3.2-1.4-1-1.4-7.4.2-10 2.5-1.6 1.3-3 4-3.6 6.5-1.2 6-4.1 7.9-13.1 8.5-7.5.6-22 5.4-24.3 8.1-.9 1-1 2.3 0 5 2.2 6.6-1.2 12.5-7.3 12.5-3.8 0-6.8-5.1-3.6-6.2.6-.2 1.1-2 1.1-4 0-2.4.5-3.8 1.2-3.8s1.8-1.7 2.3-3.8a69 69 0 0 0 3.8-19.4c-.4-1 0-1.8 1.4-2.3a9.3 9.3 0 0 0 3.6-2.1c1.3-1.3 1.7-1.3 4 .1 2.3 1.6 6.5 1.3 6.5-.4 0-.5-1.4-1.4-3.2-2.2l-3.1-1.3 5.8-1.1c3.5-.7 6.5-2 7.5-3.2a39 39 0 0 1 8-5.4c11-5.8 15.9-12.9 8.9-12.9-1 0-1.9-.5-1.9-1 0-.7-.8-.9-1.8-.6-1 .4-4.5-.3-7.8-1.3-8.4-2.8-14.2-3.2-19.3-1.6m-792 6.5a320 320 0 0 0-14.5 1.8c-3.8.6-13.3 1.8-21 2.7l-17 2c-9.4 1.1-25.9 4.5-26.9 5.5-3.2 3.5 59.7-3.1 90.9-9.5 11-2.3 3.4-4-11.5-2.5m215.3 18.1c-2.3.4-5 1.2-6 1.7a61 61 0 0 1-17 2.4c-1.3-.2-2.3.1-2.3.6s-2.5 1-5.5 1c-3 .2-8 1-11 1.8l-6 1.4a6 6 0 0 0-.8 2c-.3 1.1-1.2 2-2.1 2-2 0-2.2 4.6-.2 5.3 2 .8 16-1.3 16.4-2.4.2-.5 2.1-.9 4.3-.9 2.1 0 3.9-.5 3.9-1s.4-1 1-1c.5 0 .7.6.4 1.4-.3.7 0 1.6.8 1.9 2.1.8 21.2-1.4 22-2.6.3-.5 2.1-.7 4.3-.3 2.8.6 4 .3 4.9-.9.6-.9 2.5-1.7 4.1-1.7 3 0 3-.2 2.7-5-.5-6.7-2.8-7.7-13.9-5.7M1 1169.5c0 19.8.2 22.4 1.5 21.8.9-.3 2.4.2 3.3 1.1 7.8 7.6 9 7.7 15.3 2.2 4.1-3.6 5.6-8.9 4-14.6l-1.1-3.7a9 9 0 0 1 3-.3c1.6 0 3 .5 3 1s.4 1 1 1 1-.9 1-2c0-1.3-.7-2-1.8-2-1 0-2.9-1.3-4.2-3-1.6-1.9-3.5-3-5.3-3-2.5 0-2.7-.3-2.7-4s-1.3-5.5-2.2-3c-.5 1.5-7.4-5-8.2-7.8-.4-1.2-1.2-2.2-1.7-2.2s-1.8-.9-2.9-2l-2-2v22.5m1320.3-15.6c-6.2 1-9.7 2.2-10.5 3.4-.7 1-2.5 1.8-4 2-1.6 0-2.8.5-2.8 1 0 .3-.8.7-1.8.7-3.4 0-5 1.8-2.8 3.3 1 .8 1.6 2 1.2 2.5-.5.8 0 1.2 1.4 1.2 1.2 0 3 .5 4 1 1.2.6 2.6.8 3.3.3.6-.4 4.6-.6 8.7-.5 5.2.2 8.3-.2 10-1.2 1.4-.8 3.5-2 4.8-2.5 1.2-.6 2.2-1.5 2.2-2 0-1.4-4.1-5.1-5.7-5.1-.7 0-1.3-.5-1.3-1s.6-1 1.4-1c.8 0 1.6-.6 2-1.4.2-.8 1.5-1.6 2.8-1.9 1.7-.3 1.6-.4-.7-.4-1.7 0-7.1.7-12.2 1.6m662.3 9.7c-.9 2.2-.8 2.4.9 2.4.8 0 1.5.5 1.5 1s-.6 1-1.3 1c-2.1 0-.9 6.8 1.4 7.5 1 .4 2.5 1.8 3.3 3.2 1 2 2.2 2.6 6 3l4.6.4v-7.8c0-7.5-.1-7.8-2.7-9-3.2-1.6-5.8-1.6-8.3-.3-1.4.7-1.9.5-2.3-1-.6-2.4-2.3-2.6-3-.4m-949.2 3.4c-6.8.4-12.2 1.3-14 2.2l-3 1.6 4 1c4.5 1 38.8.9 42.3-.2 5.5-1.8 0-4.3-10.8-5-4.1-.2-12.5 0-18.5.4m176.8.3c-1.8.6-3.3 1.5-3.3 2 0 .3-1.5.7-3.3.8-3 0-3 0-.9 1 1.3.5 2.1 1.3 1.8 1.7-.3.5 3.3.6 8 .4 5.8-.3 8.4-.1 8.4.7 0 .6-.5 1.1-1.2 1.1-.6 0-1 .2-.6.5.6.6 21.3-2 22.7-3 3.2-2-1.3-2.8-20.9-4-3-.1-5.6-.8-5.8-1.4-.4-1.2-.4-1.2-5 .2M1319 1183c-.8.5-4 1.2-7 1.6-3 .4-7.8 1.7-10.7 3-2.8 1.2-5.4 2-5.6 1.7a23 23 0 0 0-6.9 1 246 246 0 0 1-28.5 5.1c-6.2.8-11.7 1.7-12.3 2-.5.4-5.4 1.3-10.7 2.1l-20.8 3c-6 .8-12.3 2-14 2.4-12 3.6-40.7 7-61.2 7.2-10.4 0-14.1.6-34.3 5a542 542 0 0 1-32.5 4.8c-26.8 3.4-30.1 4.1-29.7 6.3.3 2-3 2.7-18.3 3.8a290.8 290.8 0 0 0-46.5 6l-11 1.6c-5 .7-6.3 2-5 4.4 1 1.8-.5 4-2.6 4-.7 0-1.4.5-1.6 1-.2.6-3.6 1.2-7.7 1.5-4.1.3-7.8 1-8.2 1.6-.5 1-4.4 1-15.9.1-15-1.1-18.4-2-17.3-4.8.3-.8-.5-1.8-2-2.5-3.1-1.4-4-4.4-2-6.1 1.4-1.1 1-1.4-2.8-2a208 208 0 0 0-40.3.7c-9.8 1.4-18 1.1-20.2-.7-2.5-1.9-21.2-3.8-37.3-3.8-9.1 0-19-.4-21.9-1-2.9-.7-6-1-6.7-.6-.8.3-1.5.1-1.5-.4 0-.6-.9-1-2-1-1 0-2.3-.7-2.7-1.5-1.1-2-24.4-3.9-35.4-3-4.2.4-11 .2-15-.4-4-.6-10.8-1.3-14.9-1.6a91 91 0 0 1-18-2.7c-27.2-5-38.7-7.5-40-8.8-1-1-23-1-25 0-2.4 1.3-2.6 3.3-.5 5 3.6 3 1.9 5.6-6.5 9.9a45.6 45.6 0 0 1-9.9 4.1c-2.8 0-5.5 3.4-3.8 4.8 4.8 4 23.9 6.2 36 4.2a33.5 33.5 0 0 0 17.3-7.3c7-5.8 8.6-6.2 26.4-6 12.3 0 19 .6 26.6 2 10.2 2.1 12.6 3 22.4 8.3 3 1.7 5.8 3 6.4 3 .5 0 3.9 1.2 7.4 2.6 3.6 1.4 9 3.2 12 4 6.3 1.7 11 5 11.1 7.9 0 2-2.5 3.5-10.9 6.6-2 .7-4.2 1.8-5 2.5-.8.6-3.6 1.4-6.3 1.7-5.6.7-7 1.4-6 3 .5.7.8 2 .8 3.1 0 2 4.7 5.4 7.5 5.5.8 0 2 1 2.8 2.1 1 1.8 1 2-1 2.2l-5.3.4c-6.4.5-51-3.4-63.5-5.6l-20.5-3a2242 2242 0 0 1-25-3.5c-15.9-2.3-16.1-2.4-17.4-1.5-.7.4-1.8 1.6-2.4 2.8l-9.5 12.1a95.7 95.7 0 0 0-10 14.2 42 42 0 0 0-9.5 30.2l.6 5.7H887c227.2 0 299.9-.3 299.9-1.2 0-1.4 5.7-10.5 8.7-13.8 1.3-1.4 2.6-3.3 2.9-4.2.2-.9 4.2-3.2 9-5.2 9.6-4 11.2-5.5 15.5-14.2 5-10.3 16.3-13.3 27.7-7.5 6.3 3.2 6.1 4.3-1.8 9.4-7.9 5.1-11.8 13.5-8.3 17.8 1 1.2 1 2.3.4 4-.5 1.6-.6 3.1 0 4 2.8 4.4-1 7.6-10 8.5-14.5 1.4-7.6 2.4 16.3 2.4h24.6v-2.5c0-2.3.4-2.5 4.3-2.5h4.2l-2.8 1.6c-5.5 3-3 3.4 21.3 3.4h24l-.5-2.3c-.8-2.9.5-4 6.9-6.1 2.7-1 5.8-2.3 7-3.1 1.1-.8 3-1.5 4.1-1.5 1.2 0 2.6-.5 3.3-1.2.7-.7 6-1.2 15-1.3 10.5 0 14.5-.5 16.7-1.7 3.5-1.9 11.1-4.5 25-8.4l5-1.5c2.2-.6 7.2-1.5 11-1.9 10.9-1.1 15.1-2.9 21.6-8.7 3.7-3.3 5-6.7 3-7.5-2.5-.8-6.1-32-4-33.4.5-.3.9-1.3.9-2.3 0-1 1.1-3.1 2.5-4.7a11 11 0 0 0 2.5-4c0-2-3.7-5.4-5.7-5.4-2.7 0-5-2.8-5.5-6.5l-.3-3-8.2-.5c-9-.6-10.2-1.2-8.2-3.6 2.5-3-14.8.1-20.1 3.6-5 3.4-12.5 6.4-15.7 6.4-1.8 0-3.3.4-3.3.8s-.7.8-1.5.8-1.5-.4-1.5-.9c0-1-3.2-.3-13 2.7-3.6 1-7.2 2-8 2-4 .2-23 3.6-27 5-2.5.7-6.4 1.6-8.8 2-4.1.4-4.2.3-4.2-2.6 0-1.7-.6-3.3-1.3-3.6-.8-.4-.6-1 .7-1.8 1-.7 3-2.5 4.4-4 1.4-1.6 3.2-2.8 4.1-2.8.9 0 2.7-1.8 4-4 1.5-2.3 3.4-4 5-4.4a13 13 0 0 0 5.1-2.8c3.3-3 6.6-4.8 8.5-4.8.8 0 1.5-.6 1.5-1.3 0-.7 2.4-2 5.3-3 8.3-3 10.7-4.1 10.7-5.3 0-.6 1.8-1.4 4-1.8 3.1-.5 4-1 4-2.6 0-1.2.7-2 1.8-2 3.3-.2-2-1.9-6-2-2.4 0-3.8.5-3.8 1.3s-1.6 1.1-5.5.9c-3-.2-5.5-.8-5.5-1.3s-1.3-.9-3-.9c-3 0-4-1.3-2-2.5.5-.3.6-1.3.3-2.2-.5-1.3-2-1.5-9.7-1-12 .6-14.2-.1-9.4-3.1 5.1-3.2 6.6-5.1 4.7-6.3a17 17 0 0 0-10.9 0m-104 2.8l-15 2.4c-21.7 3.4-29.2 5.5-26.3 7.2a71.3 71.3 0 0 0 24.8.3c24.5-5 30.1-7 27-9.3-1.8-1.3-5.2-1.5-10.5-.6m-666 8.2c0 5.4 8.5 14.3 14.8 15.7 1.5.3 3.7 1 4.8 1.6 2.3 1 8 .3 9-1.3.3-.6-.4-1.9-1.7-3-1.2-1-1.7-1.9-1-1.9 2.2 0 1-1.6-2.6-3.5a97.6 97.6 0 0 0-22.3-9.5c-.6 0-1 .9-1 2m852.5 4c-2.2.9-10.3 3.8-18 6.4-7.7 2.5-14.8 5.1-15.7 5.6-1 .6-2.5 1-3.3 1-.8 0-1.5.5-1.5 1s.9 1 2 1c1 0 2.7.3 3.7.7 1.6.6 1.6.5.4-1-1.2-1.5-1.1-1.7.3-1.7.9 0 2.4-.4 3.4-1 1-.5 4.4-1.6 7.7-2.4a107 107 0 0 0 11.5-3.6c3-1.3 7-2.7 8.8-3.4 1.7-.6 3.2-1.4 3.2-1.8 0-.5.6-.8 1.4-.8.8 0 1.8-.5 2.1-1 .9-1.5-1.4-1.1-6 1m-276.5 3c-5.2.5-15.8 1.1-23.5 1.4-20 .7-37.3 3-39.4 5.1-2 2.1 11.4 1.5 38.4-1.7 20.5-2.4 32-3.6 36-3.8 2.6-.1 2.7-.3 1-1a8.8 8.8 0 0 0-2.5-.8l-10 .9m-317.4 44.8c-.4.6-2 1.1-3.7 1.1-1.8 0-2.8.4-2.4 1 .3.5-.2 1-1.1 1-1 0-3.2 1.5-4.9 3.4-3 3.2-3 3.4-1.2 4.6 2.5 1.5 8.8.4 13-2.4 1.7-1.2 6.7-3 11-4 7.1-1.6 7.6-1.9 6-3.4-2-2-15.6-3-16.7-1.3m219.6 30.8c-1.7.3-3.2 1-3.2 1.7 0 .8-2 1.2-6.4 1.3-3.5 0-7 .4-7.7.9-2.2 1.3-3 1.4-27.9 1.8-13 .3-25.3 1-27.5 1.5-2.2.6-5.4 1-7 1-3.9.1-9.4 5.2-7.3 6.8 4.4 3.4 31.1 3.2 75.8-.3 9.8-.8 15.8-.6 19.6.8 4.5 1.6 30.5-.5 37-3 5.8-2.3 6.3-3.3 2.6-5-2.6-1.4-5-1.8-23.7-4.3-5-.6-9.2-1.4-9.5-1.8-.3-.3-1.8-.6-3.5-.6s-4.1-.3-5.5-.6a22 22 0 0 0-5.8-.2m-212.7 3c-9 .7-17.5 2.5-17.5 3.8 0 2 3 2.7 3 .7.1-1.3.4-1.1 1 .6 1.9 4.5 10.8 5.6 52.5 6.8 19.7.5 23.3.4 25-1 1.1-.8 1.7-1.8 1.3-2.1-1.5-1.6-18.9-5.7-27.3-6.5-5-.5-12.1-1.4-16-2-6.7-1-13.2-1-22-.4m-334.8 2.1c-3.5 2.3-3.5 5.3.3 9.3 1.6 1.8 3 3.6 3 4.1 0 .5.4.9 1 .9s1-1.7 1-3.9c0-4.8 2-6.9 3.8-4 2.4 3.8 3.1.8.8-3.4-2.7-4.8-5.6-5.7-9.9-3m956.9 37c-3.4 2.4-4.1 3.6-5 8.5l-1.2 5.8h13.8c13.4 0 16.1-.7 12-3-1.2-.5-2.2-2.6-2.6-5.2-1.1-6.8-2.6-8.4-8.3-8.6a12 12 0 0 0-8.7 2.6M0 1328v5h11.5c6.3 0 11.5-.2 11.5-.5 0-1-4.7-3.4-8-4-3.3-.5-8.4-2.4-12.2-4.5-2.7-1.5-2.8-1.4-2.8 4" fill="#7f7f7f" fill-rule="evenodd"/></svg>