<svg xmlns="http://www.w3.org/2000/svg" width="2000" height="1328" viewBox="0 0 2000 1333"><filter id="a"><feGaussianBlur stdDeviation="55"/></filter><rect width="100%" height="100%" fill="#444"/><g filter="url(#a)"><g transform="translate(4 4) scale(7.8125)" fill-opacity=".5"><path fill="#c5c5c5" d="M178 84l-88 22L13-5z"/><ellipse rx="1" ry="1" transform="matrix(4.46257 32.43121 -54.68602 7.52485 119.3 10.8)"/><ellipse rx="1" ry="1" transform="matrix(88.94465 -11.4872 3.7766 29.2419 251.3 48.8)"/><ellipse fill="#fff" rx="1" ry="1" transform="matrix(-1.8063 6.25804 -76.17771 -21.98757 24.1 169)"/><ellipse rx="1" ry="1" transform="matrix(5.19513 -24.02844 49.19229 10.63575 0 50.4)"/><ellipse fill="#949494" cx="76" cy="134" rx="45" ry="22"/><path fill="#b7b7b7" d="M110.2 60.6l61 17.2-14.5-22.4L225.1-16z"/><ellipse cx="235" cy="169" rx="159" ry="19"/></g></g></svg>