<svg xmlns="http://www.w3.org/2000/svg" viewBox="0 0 2000 1333"><filter id="b"><feGaussianBlur stdDeviation="12" /></filter><path fill="#444" d="M0 0h2000v1328H0z"/><g filter="url(#b)" transform="translate(4 4) scale(7.8125)" fill-opacity=".5"><ellipse fill="#bdbdbd" rx="1" ry="1" transform="matrix(53.49948 6.9205 -4.32385 33.42588 115.8 77.8)"/><ellipse cx="117" cy="10" rx="54" ry="34"/><ellipse rx="1" ry="1" transform="matrix(2.86172 29.5976 -66.77117 6.45595 241 51.3)"/><ellipse fill="#bbb" rx="1" ry="1" transform="rotate(-45.1 66.4 -48.8) scale(16.50087 81.0619)"/><ellipse rx="1" ry="1" transform="rotate(97.1 -19.3 30.8) scale(23.15909 48.04122)"/><ellipse fill="#fff" rx="1" ry="1" transform="matrix(2.5835 -9.19113 68.7464 19.32374 12.6 169)"/><ellipse fill="#939393" rx="1" ry="1" transform="matrix(-41.6911 -.65494 .36986 -23.54406 83 136.7)"/><ellipse fill="#a7a7a7" rx="1" ry="1" transform="matrix(-5.35607 -8.142 59.23344 -38.9657 180.8 23.4)"/></g></svg>