<svg xmlns="http://www.w3.org/2000/svg" width="2000" height="1328" viewBox="0 0 2000 1333"><filter id="a"><feGaussianBlur stdDeviation="55"/></filter><rect width="100%" height="100%" fill="#444"/><g filter="url(#a)"><g transform="translate(4 4) scale(7.8125)" fill-opacity=".5"><path fill="#b8b8b8" d="M102 133l67-58L14-2z"/><ellipse rx="1" ry="1" transform="rotate(82 53.5 72.4) scale(34.45821 56.71119)"/><ellipse rx="1" ry="1" transform="rotate(-93.5 143.4 -85.6) scale(30.20717 66.58518)"/><path fill="#fff" d="M-6 153.7l56 18.2-4 12.4-56-18.2z"/><ellipse rx="1" ry="1" transform="matrix(50.3125 11.89422 -5.04469 21.339 8 51.2)"/><ellipse fill="#8b8b8b" rx="1" ry="1" transform="matrix(1.18058 -23.30494 46.02953 2.33176 82.8 136.5)"/><path fill="#a0a0a0" d="M122 56.9l97.9-71.2L234 5.1l-97.9 71.2z"/><ellipse cx="239" cy="169" rx="164" ry="19"/></g></g></svg>