<svg xmlns="http://www.w3.org/2000/svg" width="2000" height="1328"><path fill="#444" d="M0 0h2000v1328H0z"/><g fill-opacity=".5"><path fill="#c6c6c6" d="M714.8 879L191.4 89.7l1257.8 507.9z"/><path d="M2082 129L4-121l2007.7 882.7z"/><path fill="#b5b5b5" d="M1683.6 222.7L730.5 582 1707-121z"/><path d="M-97.7 629L-121-4l625 523.5z"/><path fill="#fff" d="M-121 1175.8l195.2 203.1 328.1-46.9z"/><path d="M355.5-121l328 484.3 890.7-390.6z"/><path fill="#858585" d="M722.7 1293l632.8-1023.5L246 1097.7z"/><path d="M2082 1449.2L730.5 1308.6l1250-203.1z"/><path fill="#a0a0a0" d="M941.4 800.8L-121-50.8 425.8-3.9z"/><path fill="#868686" d="M1949.2 730.5L1558.6 582l-164 828.2z"/><path fill="#0a0a0a" d="M2121-121l-976.5 1343.7 179.7-843.8z"/><path d="M1488.3 35.2L925.8 425.8 378.9-121.1zm-226.6 453.1l601.6-312.5L2121 753.9z"/><path fill="#cacaca" d="M668 957l203-609.3-273.3-7.9z"/><path d="M808.6 504l273.4 23.3-125 93.8z"/><path fill="#a3a3a3" d="M1832 777.3l-625-179.6 445.3-7.9z"/><path d="M-121 105.5l78 554.7 547-234.4zm1390.5 882.8L1410.2 832l-672 62.5zM207 1269.5l351.6 47-429.7-304.8z"/><path fill="#cdcdcd" d="M1050.8 605.5l39-257.8L1293 519.5z"/><path fill="#777" d="M683.6 855.5l765.6 328-1109.4 8z"/><path d="M996 1449.2l-445.2-164 796.9-93.8z"/><path fill="#fff" d="M66.4 1394.5l414-54.7-492.1-93.7z"/><path fill="#676767" d="M1175.8 863.3l-742.2 23.4 976.6-359.4z"/><path fill="#6a6a6a" d="M1324.2 1175.8l750-78.1-632.8-328.2z"/><path d="M1496 1160.2l117.3 179.6 507.8-148.4z"/><path fill="#161616" d="M66.4 761.7L660.2 879 527.3 621.1z"/><path fill="#646464" d="M644.5 394.5l-367.2 711-125-211z"/><path d="M1097.7 339.8L668 324.2 339.8-121z"/><path fill="#575757" d="M1199.2 457l664-320.3-93.7-187.5z"/><path fill="#6f6f6f" d="M699.2 316.4L550.8 582-105.5-50.8z"/><path d="M-66.4 566.4l-54.7-601.6 625 586z"/><path fill="#a4a4a4" d="M1535.2 1449.2l179.6-70.3-281.2-148.4z"/><path fill="#787878" d="M175.8 574.2L543 582l-664 211z"/><path d="M1347.7 511.7L2121 769.5l-328-593.7z"/><path fill="#858585" d="M1839.8 691.4l226.6 500 54.7-343.7z"/><path fill="#111" d="M1949.2 1074.2l46.9-109.4-343.8-203z"/><path d="M1339.8 11.7L785.2-121 918 449.2zM730.5 879l125-70.4 7.8 117.2z"/><path fill="#8f8f8f" d="M1558.6-97.7L1332 207l773.5-328z"/><path fill="#9a9a9a" d="M89.8-66.4L652.3 543 347.7-50.8z"/><path d="M1129 855.5L1394.4 996l-31.2-296.9z"/><path fill="#a1a1a1" d="M964.8 855.5l297-117.2-164.1 125z"/><path fill="#272727" d="M1621 949.2l164.2 101.6-226.6 39z"/><path fill="#969696" d="M1574.2 1089.8l-101.5-164-125 132.8z"/><path fill="#b4b4b4" d="M1238.3 652.3L878.9 769.5l179.7 15.7z"/><path fill="#a1a1a1" d="M1113.3 472.7l250-304.7-398.5 242.2z"/><path fill="#0e0e0e" d="M1074.2 558.6l-7.8-101.6-132.8 140.7z"/><path fill="#9f9f9f" d="M871 996l-304.6-15.5 86-125z"/><path fill="#5e5e5e" d="M238.3 761.7l531.2 359.4-828-132.8z"/></g></svg>