<svg xmlns="http://www.w3.org/2000/svg" viewBox="0 0 300 200"><filter id="prefix__a"><feGaussianBlur stdDeviation="12"/></filter><rect width="100%" height="100%" fill="#7c7c7c"/><g filter="url(#prefix__a)"><g stroke-linecap="round"><path fill="rgba(112,112,112,255)" stroke="rgba(112,112,112,255)" d="M0 200V0l24 116-24 84"/><path fill="rgba(68,68,68,255)" stroke="rgba(68,68,68,255)" d="m0 200 24-84-1 46-23 38"/><path fill="rgba(1,1,1,255)" stroke="rgba(1,1,1,255)" d="M0 0h300L159 136 0 0"/><path fill="rgba(68,68,68,255)" stroke="rgba(68,68,68,255)" d="M24 116 0 0l159 136-135-20"/><path fill="rgba(138,138,138,255)" stroke="rgba(138,138,138,255)" d="M300 0v200l-91-38L300 0"/><path fill="rgba(107,107,107,255)" stroke="rgba(107,107,107,255)" d="M159 136 300 0l-91 162-50-26"/><path fill="rgba(69,69,69,255)" stroke="rgba(69,69,69,255)" d="M300 200H0l157-23 143 23"/><path fill="rgba(97,97,97,255)" stroke="rgba(97,97,97,255)" d="m209 162 91 38-143-23 52-15"/><path fill="rgba(60,60,60,255)" stroke="rgba(60,60,60,255)" d="m159 136 50 26-52 15 2-41"/><path fill="rgba(97,97,97,255)" stroke="rgba(97,97,97,255)" d="m23 162 1-46 109 49-110-3"/><path fill="rgba(153,153,153,255)" stroke="rgba(153,153,153,255)" d="m24 116 135 20-26 29-109-49"/><path fill="rgba(78,78,78,255)" stroke="rgba(78,78,78,255)" d="m0 200 23-38 110 3L0 200"/><path fill="rgba(102,102,102,255)" stroke="rgba(102,102,102,255)" d="M157 177 0 200l133-35 24 12"/><path fill="rgba(92,92,92,255)" stroke="rgba(92,92,92,255)" d="m159 136-2 41-24-12 26-29"/></g></g></svg>