<svg xmlns="http://www.w3.org/2000/svg" viewBox="0 0 2000 1333"><filter id="b"><feGaussianBlur stdDeviation="12" /></filter><path fill="#444" d="M0 0h2000v1328H0z"/><g filter="url(#b)" transform="translate(4 4) scale(7.8125)" fill-opacity=".5"><ellipse fill="#c2c2c2" rx="1" ry="1" transform="matrix(3.63654 -30.13832 54.61775 6.59027 115.5 73)"/><path d="M117 57L35-15l165 9z"/><ellipse rx="1" ry="1" transform="matrix(-72.57786 12.14537 -4.8809 -29.16714 242.7 48.8)"/><ellipse fill="#b8b8b8" rx="1" ry="1" transform="matrix(62.79308 63.83795 -12.04795 11.85075 47.7 25)"/><path fill="#fff" d="M48.9 170.6l-4.4 14.3-57.4-17.5 4.4-14.3z"/><ellipse rx="1" ry="1" transform="rotate(18 -157.5 38) scale(44.08619 25.42263)"/><ellipse fill="#929292" cx="81" cy="135" rx="50" ry="21"/><ellipse cx="221" cy="169" rx="146" ry="19"/></g></svg>