<svg xmlns="http://www.w3.org/2000/svg" viewBox="0 0 2000 1333"><filter id="b"><feGaussianBlur stdDeviation="12" /></filter><path fill="#444" d="M0 0h2000v1328H0z"/><g filter="url(#b)" transform="translate(4 4) scale(7.8125)" fill-opacity=".5"><path fill="#c4c4c4" d="M87 109L19 4l165 76z"/><ellipse rx="1" ry="1" transform="rotate(80 54.6 75.5) scale(35.26076 57.62362)"/><ellipse cx="247" cy="54" rx="79" ry="29"/><ellipse rx="1" ry="1" transform="matrix(-51.88308 -13.41788 5.37333 -20.77714 6.8 49)"/><ellipse fill="#8f8f8f" rx="1" ry="1" transform="matrix(44.57135 4.95694 -2.67264 24.0316 77.7 135.4)"/><path fill="#fff" d="M-15.3 150.9l61.8 20-5.2 16.2-61.8-20z"/><path fill="#b5b5b5" d="M142.6 39.7L223-16l-71.7 84.3L120 55.7z"/><path d="M194.7 152l61.2-9.7 3.4 21.7-61.2 9.7z"/></g></svg>