<svg xmlns="http://www.w3.org/2000/svg" viewBox="0 0 2000 1333"><filter id="b"><feGaussianBlur stdDeviation="12" /></filter><path fill="#444" d="M0 0h2000v1328H0z"/><g filter="url(#b)" transform="translate(4 4) scale(7.8125)" fill-opacity=".5"><ellipse fill="#cacaca" rx="1" ry="1" transform="matrix(-51.18773 -2.46949 1.42051 -29.44449 115 73.7)"/><ellipse cx="117" rx="59" ry="43"/><ellipse rx="1" ry="1" transform="matrix(-4.9755 -28.54377 75.94757 -13.23852 245.3 47.6)"/><ellipse fill="#bababa" rx="1" ry="1" transform="matrix(56.66995 58.47886 -11.6165 11.25717 56.7 34.2)"/><ellipse fill="#fff" rx="1" ry="1" transform="matrix(2.587 -7.78426 38.14456 12.67685 18.9 169)"/><path d="M49.1 58.6L20 88.8l-51-49.4L-2 9.2z"/><ellipse fill="#929292" rx="1" ry="1" transform="rotate(-88.9 109.7 26.7) scale(22.02138 46.52878)"/><path d="M81 167l164 18 26-48z"/></g></svg>