<svg xmlns="http://www.w3.org/2000/svg" viewBox="0 0 300 200"><filter id="prefix__a"><feGaussianBlur stdDeviation="12"/></filter><g filter="url(#prefix__a)"><g stroke-linecap="round"><path fill="rgba(30,30,30,255)" stroke="rgba(30,30,30,255)" d="M300 200H0l196-39 104 39"/><path fill="rgba(1,1,1,255)" stroke="rgba(1,1,1,255)" d="M0 0h300L167 40 0 0"/><path fill="rgba(103,103,103,255)" stroke="rgba(103,103,103,255)" d="M0 200V0l129 94L0 200"/><path fill="rgba(97,97,97,255)" stroke="rgba(97,97,97,255)" d="m156 99 40 62-67-67 27 5"/><path fill="rgba(129,129,129,255)" stroke="rgba(129,129,129,255)" d="M196 161 0 200 129 94l67 67"/><path fill="rgba(0,0,0,255)" stroke="rgba(0,0,0,255)" d="m0 0 167 40-38 54L0 0"/><path fill="rgba(119,119,119,255)" stroke="rgba(119,119,119,255)" d="m167 40-11 59-27-5 38-54"/><path fill="rgba(111,111,111,255)" stroke="rgba(111,111,111,255)" d="M167 40 300 0l-39 40h-94"/><path fill="rgba(58,58,58,255)" stroke="rgba(58,58,58,255)" d="m156 99 11-59h94L156 99"/><path fill="rgba(47,47,47,255)" stroke="rgba(47,47,47,255)" d="M300 0v200l-34-72L300 0"/><path fill="rgba(1,1,1,255)" stroke="rgba(1,1,1,255)" d="m261 40 39-40-34 128-5-88"/><path fill="rgba(105,105,105,255)" stroke="rgba(105,105,105,255)" d="m300 200-104-39 70-33 34 72"/><path fill="rgba(62,62,62,255)" stroke="rgba(62,62,62,255)" d="m196 161-40-62 110 29-70 33"/><path fill="rgba(112,112,112,255)" stroke="rgba(112,112,112,255)" d="m156 99 105-59 5 88-110-29"/></g></g></svg>