<svg xmlns="http://www.w3.org/2000/svg" width="2000" height="1328" viewBox="0 0 2000 1333"><filter id="a"><feGaussianBlur stdDeviation="55"/></filter><rect width="100%" height="100%" fill="#444"/><g filter="url(#a)" fill-opacity=".5"><path fill="#cfcfcf" d="M589.8 371H1254v422H590z"/><ellipse rx="1" ry="1" transform="rotate(75.6 456.4 659) scale(286.34627 470.5622)"/><ellipse rx="1" ry="1" transform="rotate(-92.8 1135.6 -683.7) scale(240.3822 535.59176)"/><ellipse fill="#b9b9b9" rx="1" ry="1" transform="matrix(-102.74334 90.58044 -399.78016 -453.46158 443 264.2)"/><ellipse rx="1" ry="1" transform="matrix(-388.41451 -78.20131 35.03246 -174.00112 45 407)"/><ellipse fill="#909090" rx="1" ry="1" transform="matrix(12.95174 -178.33427 372.15015 27.02786 628.7 1068.3)"/><path fill="#fff" d="M-121 1183.6l945.2 265.6H152.3z"/><ellipse fill="#9a9a9a" rx="1" ry="1" transform="matrix(-49.61284 -79.38726 442.36547 -276.455 1451.6 191.5)"/></g></svg>