<svg xmlns="http://www.w3.org/2000/svg" viewBox="0 0 300 200"><g filter="url(#prefix__a)"><g stroke-linecap="round"><path fill="rgba(72,72,72,255)" stroke="rgba(72,72,72,255)" d="M300 200H0l89-44 211 44"/><path fill="rgba(1,1,1,255)" stroke="rgba(1,1,1,255)" d="M0 0h300L104 50 0 0"/><path fill="rgba(59,59,59,255)" stroke="rgba(59,59,59,255)" d="M0 200V0l72 84L0 200"/><path fill="rgba(132,132,132,255)" stroke="rgba(132,132,132,255)" d="m0 0 104 50-32 34L0 0"/><path fill="rgba(89,89,89,255)" stroke="rgba(89,89,89,255)" d="M104 50 300 0 148 57l-44-7"/><path fill="rgba(147,147,147,255)" stroke="rgba(147,147,147,255)" d="M300 0v200l-125-71L300 0"/><path fill="rgba(15,15,15,255)" stroke="rgba(15,15,15,255)" d="M148 57 300 0 175 129l-27-72"/><path fill="rgba(61,61,61,255)" stroke="rgba(61,61,61,255)" d="M300 200 89 156l86-27 125 71"/><path fill="rgba(98,98,98,255)" stroke="rgba(98,98,98,255)" d="M89 156 0 200l82-98 7 54"/><path fill="rgba(69,69,69,255)" stroke="rgba(69,69,69,255)" d="M0 200 72 84l10 18-82 98"/><path fill="rgba(121,121,121,255)" stroke="rgba(121,121,121,255)" d="m72 84 32-34-22 52-10-18"/><path fill="rgba(218,218,218,255)" stroke="rgba(218,218,218,255)" d="m104 50 44 7-66 45 22-52"/><path fill="rgba(144,144,144,255)" stroke="rgba(144,144,144,255)" d="m175 129-86 27-7-54 93 27"/><path fill="rgba(107,107,107,255)" stroke="rgba(107,107,107,255)" d="m148 57 27 72-93-27 66-45"/></g><rect width="100%" height="100%" fill="#7c7c7c"/></g><filter id="prefix__a"><feGaussianBlur in="SourceGraphic" stdDeviation="12"/><feComponentTransfer><feFuncA tableValues="1 1" type="discrete"/></feComponentTransfer></filter></svg>