<svg xmlns="http://www.w3.org/2000/svg" viewBox="0 0 2000 1333"><filter id="c"><feGaussianBlur stdDeviation="55" /></filter><path fill="#444" d="M0 0h2000v1328H0z"/><g filter='url(#c)' fill-opacity='.5'><path fill="#c3c3c3" fill-opacity=".5" d="M714.8 894.5l-539-867.2 1218.7 593.8z"/><ellipse fill-opacity=".5" rx="1" ry="1" transform="rotate(171.9 462.1 69.1) scale(436.29662 285.24897)"/><ellipse fill-opacity=".5" rx="1" ry="1" transform="matrix(-12.20927 -241.01451 603.37097 -30.56545 1930.4 414.9)"/><ellipse fill-opacity=".5" rx="1" ry="1" transform="matrix(-38.76455 188.84616 -384.64182 -78.95563 4 402.1)"/><ellipse fill="#fff" fill-opacity=".5" rx="1" ry="1" transform="matrix(-388.8397 -88.34221 18.18956 -80.06164 68 1324.2)"/><ellipse fill="#929292" fill-opacity=".5" rx="1" ry="1" transform="matrix(-354.1112 -11.74708 5.8637 -176.75924 629.7 1066.6)"/><path fill="#b5b5b5" fill-opacity=".5" d="M1168 550.8l-273.5-86 836-585.9z"/><ellipse fill-opacity=".5" rx="1" ry="1" transform="rotate(172.5 602.6 704.4) scale(750.9414 127.72616)"/></g></svg>