<svg xmlns="http://www.w3.org/2000/svg" width="1024" height="1024"><path fill="#5b4d1f" d="M0 0h1024v1024H0z"/><g fill-opacity=".5"><path fill="#cbb9ac" d="M142 238l648 64-268 512z"/><path fill="#170e00" d="M-2 902L386 6-6-62z"/><path fill="#c7c5c6" d="M318 626l264-376-56 520z"/><path fill="#150400" d="M158 546l176 540-396-40z"/><path d="M242 638l60-204 208-112z"/><path fill="#483500" d="M686 454L322-10l764 8z"/><path fill="#a89474" d="M194 614l-24-308 324-124z"/><path fill="#caab06" d="M374 870l-112 216 372-124z"/><path fill="#5b4c00" d="M990 1086L514 526l572-24z"/><path fill="#c8beb0" d="M566 506l216-28-272-180z"/><path fill="#1e1914" d="M550 786L242 622l100 296z"/><path fill="#ebefdf" d="M458 678l28-96 132 244z"/><path fill="#4c3e01" d="M478 1086L1086-62 850 1082z"/><path fill="#272000" d="M-58-14l956-48-960 404z"/><path fill="#9e6a21" d="M586 218l236 200-160 28z"/><path fill="#92794f" d="M574 274L290 158 154 374z"/><path fill="#9c967f" d="M242 402l-4 352-64-240z"/><path fill="#020004" d="M250 502l24 240 72-288z"/><path fill="#7a7c7b" d="M374 742l-68-228 200 208z"/><path fill="#a48915" d="M642 886H386l132 200z"/><path fill="#eeefc0" d="M574 702l-12-92 40 8z"/><path fill="#4c3800" d="M94 990l120-612-204-32z"/><path fill="#674520" d="M394 310l96 40-100 136z"/><path fill="#281d00" d="M358 902L-62 686l88 400z"/><path fill="#776804" d="M854 1086l232-92-204-272z"/><path fill="#200000" d="M574 334l24-80 28 92z"/><path fill="#d2ac68" d="M738 346L582 238l56 76z"/><path fill="#72561e" d="M682 118l240 288-268 44z"/><path fill="#7b624b" d="M554 550l-76 16 84-164z"/><path fill="#756416" d="M606 994L486 886l204-396z"/><path fill="#191500" d="M166-62L-6 610l-8-672z"/><path fill="#4e3d05" d="M98 386L198 90l196-8z"/><path fill="#e6e8de" d="M534 558l-104 88 108 52z"/><path fill="#e3d7be" d="M674 486L562 366l72-4z"/><path fill="#58410b" d="M646 890L138 718l96 172z"/><path fill="#fffae5" d="M670 458l84 4-16-24z"/><path fill="#a79f89" d="M250 518l-68-36 164-212z"/><path fill="#3b3600" d="M866 846l-284 240 88-332z"/><path fill="#ca9143" d="M766 374l-160-24 24 60z"/><path d="M274 590l80 208-76-60z"/><path fill="#513b10" d="M1086 670l-380-52 312-680z"/><path fill="#0a0500" d="M378 770l144 8-64 56z"/><path fill="#080300" d="M398 430l-104 64-60 124z"/><path fill="#a4a187" d="M466 750l96-68 40 112z"/><path fill="#9d9388" d="M398 742l164-340-232 108z"/><path fill="#56534f" d="M294 694l88-108-64-80z"/><path fill="#988446" d="M618 590l100-124 56 16z"/><path fill="#c8ac0c" d="M542 962l-216-40 144-36z"/><path fill="#938a6d" d="M250 774l-28-72 100 108z"/><path fill="#7c694b" d="M418 338l-128 32-88 212z"/></g></svg>