<svg xmlns="http://www.w3.org/2000/svg" viewBox="0 0 1024 1024"><filter id="b"><feGaussianBlur stdDeviation="12" /></filter><path fill="#5b4d1f" d="M0 0h1024v1024H0z"/><g filter="url(#b)" transform="matrix(4 0 0 4 2 2)" fill-opacity=".5"><path fill="#c7b8af" d="M191 120l-60.4 69.4L37 108l60.4-69.4z"/><ellipse fill="#130800" cx="15" cy="100" rx="34" ry="255"/><ellipse fill="#030000" rx="1" ry="1" transform="matrix(8.57372 6.10165 -25.30223 35.55337 83.8 120.3)"/><path fill="#d0d0ca" d="M133.2 194.2l-52.6-32.8 22.2-35.6 52.6 32.8z"/><ellipse fill="#2f2500" rx="1" ry="1" transform="matrix(166.92782 1.08067 -.32785 50.64146 88 6.9)"/><ellipse fill="#d8b807" cx="107" cy="249" rx="29" ry="28"/><ellipse fill="#c4bcba" cx="141" cy="108" rx="24" ry="22"/><ellipse fill="#978c69" rx="1" ry="1" transform="matrix(8.64166 -.16113 .92042 49.36235 53.3 116.3)"/></g></svg>