<svg xmlns="http://www.w3.org/2000/svg" viewBox="0 0 1024 1024"><filter id="c"><feGaussianBlur stdDeviation="55" /></filter><path fill="#5b4d1f" d="M0 0h1024v1024H0z"/><g filter='url(#c)' fill-opacity='.5'><ellipse fill="#c9bcb5" fill-opacity=".5" rx="1" ry="1" transform="rotate(-21.8 1512.3 -994.2) scale(182.91173 284.9938)"/><ellipse fill="#110600" fill-opacity=".5" rx="1" ry="1" transform="rotate(-3.3 9545.1 -832) scale(128.46031 1020.00002)"/><path fill-opacity=".5" d="M220.7 581l204-251.8 46.6 37.8-204 251.8z"/><ellipse fill="#d6b608" fill-opacity=".5" rx="1" ry="1" transform="rotate(176.4 199.8 492.8) scale(113.83887 82.95748)"/><path fill="#b29d81" fill-opacity=".5" d="M438 246L170 618l52-376z"/><path fill="#1f1800" fill-opacity=".5" d="M-62 270L2-62 1086 6z"/><path fill="#e8e7e3" fill-opacity=".5" d="M543.9 803.8l-3-231.1-160.2-38.8 40.6 112z"/><ellipse fill="#d4c0af" fill-opacity=".5" rx="1" ry="1" transform="matrix(-20.66506 57.0866 -134.74594 -48.77735 617 421.7)"/></g></svg>