<svg xmlns="http://www.w3.org/2000/svg" viewBox="0 0 300 300"><g filter="url(#prefix__a)"><g stroke-linecap="round"><path fill="rgba(182,155,0,255)" stroke="rgba(182,155,0,255)" d="M300 300H0l136-69 164 69"/><path fill="rgba(71,59,7,255)" stroke="rgba(71,59,7,255)" d="M0 0h300L194 83 0 0"/><path fill="rgba(74,57,11,255)" stroke="rgba(74,57,11,255)" d="M0 300V0l89 157L0 300"/><path fill="rgba(95,82,38,255)" stroke="rgba(95,82,38,255)" d="M136 231 0 300l89-143 47 74"/><path fill="rgba(64,63,5,255)" stroke="rgba(64,63,5,255)" d="m300 300-164-69 66-37 98 106"/><path fill="rgba(232,235,228,255)" stroke="rgba(232,235,228,255)" d="m136 231-47-74 113 37-66 37"/><path fill="rgba(149,140,133,255)" stroke="rgba(149,140,133,255)" d="m89 157 105-74 8 111-113-37"/><path fill="rgba(81,61,12,255)" stroke="rgba(81,61,12,255)" d="M300 0v300L238 80l62-80"/><path fill="rgba(87,69,17,255)" stroke="rgba(87,69,17,255)" d="m300 300-98-106 36-114 62 220M194 83 300 0l-62 80-44 3"/><path fill="rgba(100,62,11,255)" stroke="rgba(100,62,11,255)" d="m202 194-8-111 44-3-36 114"/><path fill="rgba(117,102,61,255)" stroke="rgba(117,102,61,255)" d="m0 0 194 83-107 8L0 0"/><path fill="rgba(48,25,3,255)" stroke="rgba(48,25,3,255)" d="M194 83 89 157l-2-66 107-8"/><path fill="rgba(74,60,11,255)" stroke="rgba(74,60,11,255)" d="M89 157 0 0l87 91 2 66"/></g><rect width="100%" height="100%" fill="#93805f"/></g><filter id="prefix__a"><feGaussianBlur in="SourceGraphic" stdDeviation="12"/><feComponentTransfer><feFuncA tableValues="1 1" type="discrete"/></feComponentTransfer></filter></svg>