<svg xmlns="http://www.w3.org/2000/svg" viewBox="0 0 1024 1024"><filter id="b"><feGaussianBlur stdDeviation="12" /></filter><path fill="#5b4d1f" d="M0 0h1024v1024H0z"/><g filter="url(#b)" transform="matrix(4 0 0 4 2 2)" fill-opacity=".5"><path fill="#e6dcde" d="M136.1 191.3l-57-21.8L118 68.7l57 21.8z"/><ellipse fill="#c1aa97" rx="1" ry="1" transform="matrix(16.4598 12.68552 -25.32958 32.86582 75.8 87.5)"/><ellipse fill="#120700" cx="9" cy="151" rx="39" ry="255"/><ellipse fill="#d8b907" cx="107" cy="247" rx="27" ry="27"/><ellipse fill="#251c00" rx="1" ry="1" transform="matrix(-2.40106 -28.00716 178.99537 -15.34532 97.5 15.1)"/><ellipse fill="#fffffd" rx="1" ry="1" transform="matrix(.68874 4.72112 -15.49323 2.26022 175 116.6)"/><ellipse fill="#241b0f" rx="1" ry="1" transform="matrix(-12.74442 79.83647 -18.52386 -2.957 68 197.7)"/><path fill="#eff4ea" d="M117 141h16v51h-16z"/></g></svg>