<svg xmlns="http://www.w3.org/2000/svg" viewBox="0 0 1024 1024"><filter id="b"><feGaussianBlur stdDeviation="12" /></filter><path fill="#5b4d1f" d="M0 0h1024v1024H0z"/><g filter="url(#b)" transform="matrix(4 0 0 4 2 2)" fill-opacity=".5"><ellipse fill="#c4b7af" rx="1" ry="1" transform="matrix(43.98467 -21.95669 32.38714 64.87944 115.1 118.5)"/><ellipse fill="#110600" rx="1" ry="1" transform="matrix(13.34567 254.65053 -30.62009 1.60473 16.1 131.4)"/><path d="M69 189l42-107-51 49z"/><path fill="#d3cfc4" d="M113 114.1l-32.5 12.1 50.7 73.5 19.6-37.6z"/><ellipse fill="#d8b907" rx="1" ry="1" transform="matrix(-28.49024 7.05062 -5.09277 -20.57895 105.5 245.1)"/><ellipse fill="#271e00" cx="89" cy="7" rx="174" ry="37"/><ellipse fill="#cdb8a5" rx="1" ry="1" transform="matrix(36.4912 5.76053 -2.87893 18.23716 153.8 106.8)"/><path fill="#564800" d="M148 131h108v125H148z"/></g></svg>