<svg xmlns="http://www.w3.org/2000/svg" width="1024" height="1024"><path fill="#5b4d1f" d="M0 0h1024v1024H0z"/><g fill-opacity=".5"><path fill="#cbbaae" d="M146 246l648 60-276 504z"/><path fill="#150c00" d="M-62-26l412-36L10 1086z"/><path fill="#bebcb5" d="M566 278l36 528-296-172z"/><path d="M294 438l-44 188 260-300z"/><path fill="#241600" d="M62 1086l492-304-616-176z"/><path fill="#493500" d="M134-62l952 44-96 668z"/><path fill="#a79372" d="M174 294l20 316 304-428z"/><path fill="#c8aa07" d="M634 974l-380 112 136-224z"/><path fill="#5c4e00" d="M1086 578l-592-72 484 580z"/><path fill="#c9bfaf" d="M802 494l-204-12-108-184z"/><path fill="#fbfff8" d="M538 558l-12 168-92-88z"/><path fill="#86611f" d="M582 178l360 220-280 52z"/><path fill="#000008" d="M318 454l8 352-88-212z"/><path fill="#251f00" d="M-62 310L962-62H-10z"/><path fill="#999173" d="M190 658l20-216 68 368z"/><path fill="#4a4000" d="M526 1002l316 72 16-764z"/><path fill="#1d1000" d="M154 786l-216 232 432 68z"/><path fill="#927b56" d="M210 498l380-236-356-72z"/><path fill="#523d00" d="M222 390L58 918 38 318z"/><path fill="#7d6b15" d="M706 470L466 910l144 60z"/><path fill="#67696c" d="M298 662l28-160 188 276z"/><path fill="#b1b2a0" d="M182 486l92-132-24 160z"/><path fill="#574217" d="M622 866l-344-92-16 128z"/><path fill="#e8b972" d="M638 322l-40-72 96 68z"/><path fill="#260000" d="M598 230l-20 96 44 32z"/><path fill="#f3ecd8" d="M734 442l-76 20 124 12z"/><path fill="#31230d" d="M230 534l172-60 44-152z"/><path fill="#796a00" d="M918 770l-72 308 240-80z"/><path fill="#4f4006" d="M290 34l-4 232-216 68z"/><path fill="#ceb00d" d="M334 922l136-40 80 88z"/><path fill="#502700" d="M674 454l88-48-116 8z"/><path fill="#725c31" d="M478 546l316-84-176 124z"/><path fill="#a2968e" d="M598 386L394 738l-52-240z"/><path fill="#433200" d="M102 270l192 696-356-292z"/><path fill="#11140f" d="M370 658l-36 136-96-108z"/><path fill="#b0aba6" d="M570 546l112-60-172-232z"/><path fill="#1b1700" d="M-6 706L142-26l-200-8z"/><path fill="#63511b" d="M806 130l140 336-380-236z"/><path fill="#524718" d="M566 650l-24-16 4 84z"/><path fill="#0a0600" d="M430 886l116-112h-80z"/><path fill="#3b3300" d="M574 1086l112-312 200 56z"/><path fill="#d1903a" d="M758 378l-112 28-44-60z"/><path fill="#70613b" d="M342 182l148 4 24 140z"/><path fill="#b89b79" d="M314 242l-24 152 172-132z"/><path fill="#c0b7a9" d="M426 410l124-48 32-88z"/><path fill="#bcbdb1" d="M618 810l-152-92 88 12z"/><path fill="#70512d" d="M390 290l96 64-108 156z"/><path fill="#6b6040" d="M306 198l-88 36 8 204z"/><path fill="#020100" d="M266 570l156-152-120 64z"/><path fill="#ddd1b5" d="M622 358l64 128-128-116z"/></g></svg>