<svg xmlns="http://www.w3.org/2000/svg" viewBox="0 0 1024 1024"><filter id="b"><feGaussianBlur stdDeviation="12" /></filter><path fill="#5b4d1f" d="M0 0h1024v1024H0z"/><g filter="url(#b)" transform="matrix(4 0 0 4 2 2)" fill-opacity=".5"><ellipse fill="#c7bab2" rx="1" ry="1" transform="rotate(152.5 43.6 74.2) scale(47.91232 70.78543)"/><ellipse fill="#100500" cx="17" cy="145" rx="29" ry="255"/><ellipse fill="#0a0300" rx="1" ry="1" transform="matrix(-23.10895 35.44906 -10.45289 -6.81415 85 122.8)"/><ellipse fill="#cecbc4" rx="1" ry="1" transform="matrix(-24.03966 -38.3225 14.01068 -8.78889 118 158.8)"/><ellipse fill="#d6b607" rx="1" ry="1" transform="matrix(18.51674 -22.94805 21.88549 17.65936 105.2 250.8)"/><ellipse fill="#251c00" rx="1" ry="1" transform="matrix(-3.79294 -30.46756 215.1427 -26.78333 116.3 10.7)"/><path fill="#cbb49f" d="M117 90h73v34h-73z"/><ellipse fill="#9f9479" rx="1" ry="1" transform="rotate(5.5 -1051.2 626.2) scale(11.20723 49.30166)"/></g></svg>