<svg xmlns="http://www.w3.org/2000/svg" viewBox="0 0 1024 1024"><filter id="b"><feGaussianBlur stdDeviation="12" /></filter><path fill="#5b4d1f" d="M0 0h1024v1024H0z"/><g filter="url(#b)" transform="matrix(4 0 0 4 2 2)" fill-opacity=".5"><ellipse fill="#e1d9da" rx="1" ry="1" transform="matrix(17.67267 -55.91443 33.80263 10.68387 128 135.7)"/><path fill="#110500" d="M-55.8 6L38-.4 55.8 254l-93.8 6.6z"/><ellipse fill="#a68f79" rx="1" ry="1" transform="matrix(4.10708 -40.62052 74.32503 7.51488 113.3 98.8)"/><ellipse fill="#271e00" cx="74" cy="9" rx="187" ry="36"/><ellipse fill="#d1b208" rx="1" ry="1" transform="matrix(3.21648 20.2376 -30.33933 4.822 106.5 242.2)"/><ellipse fill="#020000" rx="1" ry="1" transform="matrix(-25.17935 25.7277 -6.40374 -6.26726 87 116.2)"/><path fill="#dfddd0" d="M128.3 142.9l-28.8-3.2 25.7 50.5 25 10.8z"/><path fill="#111115" d="M72.3 195.4l-15.8-55 69.3 49.4 1.6 24.2z"/></g></svg>