<svg xmlns="http://www.w3.org/2000/svg" width="1024" height="1024" viewBox="0 0 1024 1024"><filter id="a"><feGaussianBlur stdDeviation="55"/></filter><rect width="100%" height="100%" fill="#5b4d1f"/><g filter="url(#a)"><g transform="matrix(4 0 0 4 2 2)" fill-opacity=".5"><ellipse fill="#e0d8d8" rx="1" ry="1" transform="rotate(-164.6 73.1 58.5) scale(36.0772 58.47145)"/><path fill="#bba289" d="M134.7 75.8l-80.5 44.6-18.9-34.2 80.5-44.6z"/><ellipse fill="#110600" rx="1" ry="1" transform="matrix(-39.34625 1.9823 -12.83081 -254.677 8.6 134.2)"/><ellipse fill="#271e00" cx="79" rx="186" ry="46"/><ellipse fill="#d6b706" cx="106" cy="251" rx="30" ry="30"/><ellipse fill="#c99a5f" rx="1" ry="1" transform="rotate(-112.3 117.6 -7.9) scale(30.36754 15.34074)"/><ellipse fill="#e5e5da" rx="1" ry="1" transform="matrix(22.01122 29.66914 -5.67726 4.2119 127.2 173)"/><path fill="#b0a78f" d="M45 112v48l57-101z"/></g></g></svg>