<svg xmlns="http://www.w3.org/2000/svg" width="1024" height="1024" viewBox="0 0 1024 1024"><filter id="a"><feGaussianBlur stdDeviation="55"/></filter><rect width="100%" height="100%" fill="#5b4d1f"/><g filter="url(#a)"><g transform="matrix(4 0 0 4 2 2)" fill-opacity=".5"><path fill="#e7e0e1" d="M74.5 155l56.2-80.4 54.8 38.5-56.2 80.3z"/><ellipse fill="#110600" cy="166" rx="47" ry="255"/><path fill="#c0a68d" d="M125.7 79.7L58 120.3l-21.7-36L104 43.7z"/><ellipse fill="#251c00" rx="1" ry="1" transform="matrix(-5.72406 -41.51738 191.7791 -26.44084 123.3 0)"/><ellipse fill="#d9ba08" rx="1" ry="1" transform="matrix(-26.66619 -5.35263 4.14446 -20.64722 109.5 244)"/><path fill="#5a4900" d="M271 105l-20 166-125-140z"/><ellipse fill="#22180a" rx="1" ry="1" transform="matrix(26.22454 -115.22043 18.44813 4.19886 57.5 224.7)"/><ellipse fill="#e9e9de" rx="1" ry="1" transform="matrix(21.16648 28.98083 -5.69043 4.15607 126 170.3)"/></g></g></svg>