<svg xmlns="http://www.w3.org/2000/svg" viewBox="0 0 1024 1024"><filter id="b"><feGaussianBlur stdDeviation="12" /></filter><path fill="#5b4d1f" d="M0 0h1024v1024H0z"/><g filter="url(#b)" transform="matrix(4 0 0 4 2 2)" fill-opacity=".5"><ellipse fill="#e4dbde" rx="1" ry="1" transform="matrix(-14.60095 55.63864 -33.79319 -8.86816 127.3 132)"/><path fill="#090300" d="M-59.4 56.6l116-116 60.8 60.8-116 116z"/><path fill="#a89075" d="M45 63h144v61H45z"/><ellipse fill="#1a0b00" rx="1" ry="1" transform="rotate(70.8 -134.9 121.3) scale(187.01086 38.24693)"/><ellipse fill="#d5b507" cx="107" cy="252" rx="31" ry="31"/><path fill="#e9eadf" d="M125.5 193.5l22.3 1.9-24-50.1-18.8-2.9z"/><ellipse fill="#170e0b" rx="1" ry="1" transform="rotate(134.8 20.7 76.2) scale(42.09308 10.07624)"/><ellipse fill="#5d4c03" rx="1" ry="1" transform="matrix(2.62103 -15.50328 31.17895 5.2712 166.7 143.7)"/></g></svg>