<svg xmlns="http://www.w3.org/2000/svg" viewBox="0 0 1024 1024"><filter id="b"><feGaussianBlur stdDeviation="12" /></filter><path fill="#5b4d1f" d="M0 0h1024v1024H0z"/><g filter="url(#b)" transform="matrix(4 0 0 4 2 2)" fill-opacity=".5"><ellipse fill="#e4dbdc" rx="1" ry="1" transform="matrix(33.19274 8.51173 -14.69412 57.30185 129.4 133.2)"/><path fill="#d3b7a1" d="M40 135l35-80 59 12z"/><ellipse fill="#110600" rx="1" ry="1" transform="rotate(177.3 7.7 60.4) scale(28.46541 255.00004)"/><ellipse fill="#d4b507" cx="106" cy="252" rx="31" ry="31"/><ellipse fill="#251c00" rx="1" ry="1" transform="rotate(173.3 42.6 9.8) scale(247.47716 30.58096)"/><ellipse fill="#fffff5" cx="173" cy="116" rx="17" ry="6"/><path fill="#c3c2c0" d="M113.8 131.2l39 72L83 159.6l3.5-35.6z"/><path fill="#2e210a" d="M56.4 240L40 201.3l73.6-31.3 16.4 38.7z"/></g></svg>