<svg xmlns="http://www.w3.org/2000/svg" width="1024" height="1024"><path fill="#5b4d1f" d="M0 0h1024v1024H0z"/><g fill-opacity=".5"><path fill="#cebbae" d="M186 226l324 600 280-520z"/><path fill="#130600" d="M26-62l276 1108-364-24z"/><path fill="#bebdb7" d="M570 266l28 528-288-152z"/><path fill="#231a00" d="M-62-42L6 334 1086 2z"/><path fill="#010000" d="M502 334l-188 80-72 216z"/><path fill="#9f8c6b" d="M494 166l-256 36-80 476z"/><path fill="#caab06" d="M270 1086l352-116-244-108z"/><path fill="#564003" d="M1026-62L330 106l756 636z"/><path fill="#5c4e00" d="M1086 570l-84 516-508-580z"/><path fill="#251f14" d="M238 558l72 356 280-80z"/><path fill="#cac1b2" d="M598 494l184-20-268-160z"/><path fill="#fafff6" d="M526 734l12-176-100 80z"/><path fill="#9a661e" d="M594 230l220 172-148 52z"/><path fill="#383200" d="M902 862L666 722l-80 364z"/><path fill="#a6a18c" d="M190 470l88-132-60 372z"/><path fill="#838588" d="M326 506l48 236 104-28z"/><path fill="#4d3900" d="M22 698l328 388L78 262z"/><path fill="#282000" d="M-22 490L522-38-62-18z"/><path fill="#796811" d="M462 890l260-408-108 516z"/><path fill="#665729" d="M190 478L374 78 170 234z"/><path fill="#080605" d="M290 478l-72 84 112 236z"/><path fill="#3b1400" d="M590 274l112 88-132-24z"/><path fill="#8a6e41" d="M270 458l288-180-84-68z"/><path fill="#261b00" d="M326 1038L2 1086l-64-540z"/><path fill="#020000" d="M450 854l84-80H434z"/><path fill="#402000" d="M742 422l-96-20 20 48z"/><path fill="#cca563" d="M630 338l-20-80 116 80z"/><path fill="#968c6a" d="M302 802l-84-72-20-112z"/><path fill="#b8bbbc" d="M586 758l-112-28 136 80z"/><path fill="#e2dbc4" d="M774 486l-156-32 124-12z"/><path fill="#99917b" d="M198 286l-28 72 136 84z"/><path fill="#786901" d="M846 1086l240-92-180-240z"/><path fill="#533f15" d="M938 718L506 546l580-96z"/><path fill="#ceb20c" d="M542 962l-208-40 140-40z"/><path d="M290 546l140-128-100 44z"/><path fill="#857434" d="M598 518l-68 136 280-196z"/><path fill="#604322" d="M390 494l76-120-60-72z"/><path fill="#403300" d="M238 394L-38 706l72-396z"/><path fill="#c2bfbb" d="M522 290l-44 136 140-44z"/><path fill="#978b86" d="M630 394L326 510l280 36z"/><path fill="#6a5420" d="M850 502l-48-336-144 84z"/><path fill="#554c22" d="M546 710l16-52-20-52z"/><path fill="#171400" d="M-62 426V2l260-4z"/><path fill="#615f5f" d="M322 518l64 156-88-8z"/><path fill="#bdb691" d="M606 614l-148-40 124 120z"/><path fill="#464100" d="M586 850l276-196-60 432z"/><path fill="#6c5120" d="M418 890l36-76-204-32z"/><path fill="#b98b50" d="M482 390L334 214l136 64z"/><path fill="#a9a493" d="M398 318L190 502l112-184z"/><path fill="#b6aea0" d="M566 354l8-72-164 136z"/></g></svg>