<svg xmlns="http://www.w3.org/2000/svg" viewBox="0 0 1024 1024"><filter id="b"><feGaussianBlur stdDeviation="12" /></filter><path fill="#5b4d1f" d="M0 0h1024v1024H0z"/><g filter="url(#b)" transform="matrix(4 0 0 4 2 2)" fill-opacity=".5"><ellipse fill="#e4dbdf" rx="1" ry="1" transform="matrix(33.54013 9.2317 -15.3 55.58717 126.8 132.8)"/><ellipse fill="#c5ae9c" rx="1" ry="1" transform="matrix(15.52579 10.75056 -24.73224 35.71788 74.8 90.8)"/><ellipse fill="#110600" rx="1" ry="1" transform="matrix(11.12294 254.7573 -28.27916 1.2347 18.4 113.4)"/><ellipse fill="#291f00" cx="79" cy="12" rx="189" ry="33"/><ellipse fill="#dabb08" cx="108" cy="245" rx="27" ry="24"/><path fill="#eceddf" d="M111.9 142.5l17.4-4.4 12.8 51.4-17.4 4.4z"/><ellipse fill="#a68c69" cx="146" cy="106" rx="42" ry="42"/><path fill="#4e4200" d="M144.7 150.6l40 120.4L271 115.3l-143.7 17.3z"/></g></svg>