<svg xmlns="http://www.w3.org/2000/svg" viewBox="0 0 300 300"><filter id="prefix__a"><feGaussianBlur stdDeviation="12"/></filter><g filter="url(#prefix__a)"><g stroke-linecap="round"><path fill="rgba(75,55,16,255)" stroke="rgba(75,55,16,255)" d="M0 300V0l101 204L0 300"/><path fill="rgba(125,105,32,255)" stroke="rgba(125,105,32,255)" d="M300 300H0l165-84 135 84"/><path fill="rgba(81,62,20,255)" stroke="rgba(81,62,20,255)" d="m0 300 101-96 64 12L0 300"/><path fill="rgba(189,182,163,255)" stroke="rgba(189,182,163,255)" d="M101 204 0 0l127 146-26 58"/><path fill="rgba(168,164,155,255)" stroke="rgba(168,164,155,255)" d="m165 216-64-12 35-28 29 40"/><path fill="rgba(159,148,138,255)" stroke="rgba(159,148,138,255)" d="m101 204 26-58 9 30-35 28"/><path fill="rgba(63,53,8,255)" stroke="rgba(63,53,8,255)" d="M0 0h300L135 64 0 0"/><path fill="rgba(110,92,54,255)" stroke="rgba(110,92,54,255)" d="M127 146 0 0l135 64-8 82"/><path fill="rgba(85,65,18,255)" stroke="rgba(85,65,18,255)" d="M300 0v300l-78-179L300 0"/><path fill="rgba(86,84,7,255)" stroke="rgba(86,84,7,255)" d="m300 300-135-84 57-95 78 179"/><path fill="rgba(121,99,13,255)" stroke="rgba(121,99,13,255)" d="m165 216-29-40 86-55-57 95"/><path fill="rgba(132,123,114,255)" stroke="rgba(132,123,114,255)" d="m136 176-9-30 95-25-86 55"/><path fill="rgba(203,191,191,255)" stroke="rgba(203,191,191,255)" d="m127 146 8-82 87 57-95 25"/><path fill="rgba(100,81,26,255)" stroke="rgba(100,81,26,255)" d="M135 64 300 0l-78 121-87-57"/></g></g></svg>