<svg xmlns="http://www.w3.org/2000/svg" viewBox="0 0 1024 1024"><filter id="c"><feGaussianBlur stdDeviation="55" /></filter><path fill="#5b4d1f" d="M0 0h1024v1024H0z"/><g filter='url(#c)' fill-opacity='.5'><ellipse fill="#e1d8d9" fill-opacity=".5" rx="1" ry="1" transform="rotate(-166.5 288.4 239) scale(149.1289 225.68404)"/><ellipse fill="#bea58f" fill-opacity=".5" rx="1" ry="1" transform="matrix(123.61789 -145.20353 62.49578 53.2053 322.8 337)"/><ellipse fill="#110600" fill-opacity=".5" rx="1" ry="1" transform="matrix(73.34059 1017.3599 -133.19018 9.60156 54 479.2)"/><ellipse fill="#231b00" fill-opacity=".5" rx="1" ry="1" transform="matrix(-1007.99295 156.04555 -20.65655 -133.43322 453.5 32.3)"/><ellipse fill="#ceae07" fill-opacity=".5" rx="1" ry="1" transform="rotate(177.1 203.2 516.6) scale(131.1963 133.75781)"/><ellipse fill="#d8d7cd" fill-opacity=".5" rx="1" ry="1" transform="matrix(33.9207 -25.1 86.81235 117.32016 495.5 685.6)"/><path fill="#584a00" fill-opacity=".5" d="M586 514h440v512H586z"/><ellipse fill="#c49962" fill-opacity=".5" rx="1" ry="1" transform="matrix(-64.40756 29.62417 -54.14544 -117.72064 685.2 406.6)"/></g></svg>