<svg xmlns="http://www.w3.org/2000/svg" width="800" height="800"><path fill="#231d02" d="M0 0h100v100H0z"/><path fill="#332703" d="M100 0h100v100H100z"/><path fill="#362b07" d="M200 0h100v100H200z"/><path fill="#3b3006" d="M300 0h100v100H300z"/><path fill="#423807" d="M400 0h100v100H400z"/><path fill="#4c3f09" d="M500 0h100v100H500z"/><path fill="#52420f" d="M600 0h100v100H600z"/><path fill="#4a3c0d" d="M700 0h100v100H700z"/><path fill="#251e01" d="M0 100h100v100H0z"/><path fill="#42350b" d="M100 100h100v100H100z"/><path fill="#6a552d" d="M200 100h100v100H200z"/><path fill="#675529" d="M300 100h100v100H300z"/><path fill="#52440d" d="M400 100h100v100H400z"/><path fill="#5e4d15" d="M500 100h100v100H500z"/><path fill="#5a4814" d="M600 100h100v100H600z"/><path fill="#554311" d="M700 100h100v100H700z"/><path fill="#322701" d="M0 200h100v100H0z"/><path fill="#655631" d="M100 200h100v100H100z"/><path fill="#a08769" d="M200 200h100v100H200z"/><path fill="#927959" d="M300 200h100v100H300z"/><path fill="#97815f" d="M400 200h100v100H400z"/><path fill="#7b5a22" d="M500 200h100v100H500z"/><path fill="#624e1b" d="M600 200h100v100H600z"/><path fill="#503e0e" d="M700 200h100v100H700z"/><path fill="#3c2d02" d="M0 300h100v100H0z"/><path fill="#73633e" d="M100 300h100v100H100z"/><path fill="#6b5f4c" d="M200 300h100v100H200z"/><path fill="#88796c" d="M300 300h100v100H300z"/><path fill="#ac9e93" d="M400 300h100v100H400z"/><path fill="#92784f" d="M500 300h100v100H500z"/><path fill="#5d4717" d="M600 300h100v100H600z"/><path fill="#544011" d="M700 300h100v100H700z"/><path fill="#413205" d="M0 400h100v100H0z"/><path fill="#5b4a27" d="M100 400h100v100H100z"/><path fill="#575048" d="M200 400h100v100H200z"/><path fill="#bdb0a6" d="M300 400h100v100H300z"/><path fill="#94845c" d="M400 400h100v100H400z"/><path fill="#645520" d="M500 400h100v100H500z"/><path fill="#544114" d="M600 400h100v100H600z"/><path fill="#594514" d="M700 400h100v100H700z"/><path fill="#3e2f03" d="M0 500h100v100H0z"/><path fill="#544117" d="M100 500h100v100H100z"/><path fill="#413a2b" d="M200 500h100v100H200z"/><path fill="#8f8c84" d="M300 500h100v100H300z"/><path fill="#999060" d="M400 500h100v100H400z"/><path fill="#575002" d="M500 500h100v100H500z"/><path fill="#584f0f" d="M600 500h100v100H600z"/><path fill="#5d4911" d="M700 500h100v100H700z"/><path fill="#342602" d="M0 600h100v100H0z"/><path fill="#423006" d="M100 600h100v100H100z"/><path fill="#4e3e19" d="M200 600h100v100H200z"/><path fill="#4f3e12" d="M300 600h100v100H300z"/><path fill="#6a591e" d="M400 600h100v100H400z"/><path fill="#494506" d="M500 600h100v100H500z"/><path fill="#50470a" d="M600 600h100v100H600z"/><path fill="#6b5515" d="M700 600h100v100H700z"/><path fill="#291f02" d="M0 700h100v100H0z"/><path fill="#2d1d03" d="M100 700h100v100H100z"/><path fill="#69540f" d="M200 700h100v100H200z"/><path fill="#a28917" d="M300 700h100v100H300z"/><path fill="#715b12" d="M400 700h100v100H400z"/><path fill="#4b3a0b" d="M500 700h100v100H500z"/><path fill="#5b4911" d="M600 700h100v100H600z"/><path fill="#6d5f09" d="M700 700h100v100H700z"/></svg>