<svg xmlns="http://www.w3.org/2000/svg" width="1024" height="1024" viewBox="0 0 1024 1024"><path d="M0 512v512h316.9l.9-3.2c1.3-5 3.3-5.6 7-2 1.8 1.8 4.2 3.2 5.2 3.2 1.1 0 2 .5 2 1 0 .6 3.4 1 8.3 1 4.5-.1 7.5-.4 6.7-.7-.8-.2-3-1.1-4.7-1.9a16 16 0 0 0-4.7-1.4c-.9 0-2.4-.9-3.3-2-.9-1-2.2-1.6-2.8-1.3-1.2.4-5.5-4.6-5.5-6.4 0-.4-1-1.4-2-2.1-1.2-.7-2-2-1.6-2.7.2-.7-.2-1.9-1-2.5-2.1-1.8-1.7-3.5 1.1-4.8 3.8-1.7 4.5-1.5 4.3 1.3-.1 1.4-.6 2.5-1 2.5s-.8.5-.8 1.1c0 .8 1.2 1 3.4.6 2.6-.4 3.6-.2 4 1.1.6 1.4.9 1.4 1.6.2.7-1 1.1-1.1 2.3-.2.8.7 1.9 1.1 2.3 1 1-.3 1.4.5 1.4 2.3 0 .6-.9.8-2 .4-2-.6-8 1-8 2.3 0 .2.8 1 1.7 1.7 1.7 1.3 5.3.9 5.3-.6 0-.5.9-.9 2-.9s2 .5 2 1c0 1.1 3 1.3 5.4.4.9-.3 1.3-1 1-1.5-.3-.5 1.8-.9 4.5-.9 2.8 0 5.1.5 5.1 1s-.4 1-1 1c-.4 0-.6.9-.3 2 .6 2.3 4.3 2.7 4.3.5 0-.8.6-1.5 1.3-1.5.8 0 .7-.3-.3-1-.8-.5-1.1-1.2-.7-1.6 1.2-1.2 7.5-1.5 8.2-.4 1 1.5 0 2.2-2.7 2.5-3.6.4-3.8.5-3.8 1.3 0 1.2 5.2 3.2 6.4 2.5.6-.4 2-.7 3.1-.8 1.5 0 2-.6 1.8-2.3-.2-1.3.1-2 .6-1.7.5.3 1.2 0 1.6-.5.3-.5 1.7-1 3-1 1.4 0 2.5-.4 2.5-.9 0-1.7-18.5-3-22.8-1.7-1.3.5-2.2.3-2.2-.3 0-1.6-7.2-1.3-9.4.4-2.8 2.1-3.3 1.9-2.8-1.4.2-1.6 1-2.8 1.5-2.8l7-.1c6.4-.2 8-2.2 1.6-2.2-3.5 0-3.9-.2-2.6-1.4 1-1.1 3.7-1.4 10.3-1.3 7.3.2 8.9 0 8.9-1.3 0-.8-1-1.7-2.4-1.8-1.3-.2-2-.7-1.5-1 2-1.5 7.4-9 7.4-10.5 0-.9.8-1.7 1.8-2 1.2-.2.5-.8-2.2-2s-3.6-2-3-2.8c.7-.6 2.5-.2 5.5 1.6 5.1 2.9 5.9 3 5.9 1 0-1-1-1.5-3.3-1.6-3 0-3.1 0-.8-1a8 8 0 0 1 3.8-.5c.7.3 1.3.1 1.3-.4 0-.6-.7-1-1.5-1s-1.5-.4-1.5-1c0-.4 2-.7 4.4-.6 4.5.3 10.6-1.6 10.6-3.2 0-1.4-3-2.5-6.3-2.3-1.5.2-2.7-.2-2.7-.7 0-.6-1.2-1.5-2.8-2l-2.7-1 3.5-.3c2.5-.1 2.8-.3 1.3-.6-1.3-.2-2.3-.8-2.3-1.3s.6-.7 1.4-.4c.7.3 1.6-.1 1.9-1 .4-1-.6-1.3-5.6-1.2-3.4.2-6.8-.2-7.6-.8-.8-.6-1.6-1-1.8-.9-1 .8-4.3.2-3.8-.6.3-.5.1-1.2-.4-1.6-.6-.3-1.5.3-2 1.4-1.5 2.7 3 6.4 6.7 5.4 1.8-.4 2.3-.2 2 .8-.3.9-1.7 1.3-3.9 1.2-11-.7-15.9-.7-15.9 0 0 .4-1.1.7-2.5.7s-2.8.7-3.2 1.5c-.8 2.3.2 2.8 2.6 1.5 1.5-.7 2.1-.7 2.1 0 0 1.9-4.4 3-5.6 1.4-1.4-1.8-2.5-1.8-1.8 0 .3.8-.4 1.6-1.7 2-1.8.4-2 .7-.8 1.9 1.9 1.8 6.6 3 7.4 1.7.8-1.3 3.5-1.3 3.5 0 0 .5-1.2 1.5-2.8 2.2-1.9 1-2.7 2-2.7 3.8 0 2.5.1 2.6 5.8 2.9 1 0 1.7.6 1.7 1.2 0 .5-.4.8-1 .4-.4-.3-1.2 0-1.5.5-.4.6-1.5.8-2.6.5-1.3-.4-1.9-.2-1.9 1 0 .8.7 1.5 1.5 1.5s1.5.5 1.5 1c0 .7.6.7 2 0 2.4-1.3 2.6-.5.4 1.7-1.2 1.3-1.8 1.3-2.4.4-.4-.7-1-1-1.3-.4-.9 1.4-9.8.7-10.8-.8-.7-1.1-1-1-2.1.4-1 1.4-2 1.6-3.8 1-1.4-.5-3.9-.6-5.5-.2-1.6.3-2.6.7-2 .8.6 0 .3.6-.5 1.1-2.1 1.4-3 1.2-3-.5 0-1-.6-1.2-2.2-.6-3.7 1.4-8.7-2.2-6.6-4.7 3.2-3.8.5-15-3-12.8-.5.3-1.6-.1-2.3-1-1.1-1.4-1-1.8.6-3 2.5-1.9 4.6-1.8 3.9.1-.4.8-.1 1.5.5 1.5s1.1-.5 1.1-1 1.2-1 2.8-1c2.6-.1 2.6-.2.4-1-1.2-.5-2.2-1.6-2.2-2.4 0-.8-.6-1.7-1.3-2-1-.5-1-.7 0-1.2.7-.3 1.3-1.6 1.3-3 0-1.2.7-3 1.5-3.8.9-.8 1.4-2 1.3-2.8-.2-.7.7-1.7 2-2.3a3.7 3.7 0 0 0 2.2-3.3c0-2.5 2.3-5.5 3.4-4.5.3.4.6 0 .6-.9 0-1.6 6-8.8 7.4-8.8.9 0 3.5-3 3.6-4.1 0-.3-1.2-.6-2.8-.6-1.5 0-4-.3-5.4-.7-2.4-.7-3-.4-4.8 2.6-2 3.3-2 3.3-2 .7 0-3.2 5.5-9 11.1-11.5 2.2-1 3.9-2 3.9-2.6 0-.4 1-.8 2-.8 1.8 0 2 .4 1.4 2.2-.6 2-.4 2 .7 1.1 1-.7 2-.9 2.9-.3 2.8 1.7 4.5-1.1 1.8-3.1l-2.3-1.8 2.4-2.5c2.9-3 4.7-3.3 5.6-.7 1 3.4 4.2 1.4 4.8-3.1.6-4.6 1.5-5.4 6.6-6.3 2-.3 5-1.3 6.8-2.2 3.1-1.6 6.1-1 3.4.6-1 .6-1 1-.2 1.5 1.7 1 3.3-.4 2.8-2.5-.3-1.2.2-2 1.7-2.5a6.2 6.2 0 0 0 2.8-1.8c.5-.6.8 0 .8 1.3 0 2 .3 2.1 1.4 1.1.8-.6 1.3-1.7 1-2.4-.3-.7.4-1.2 1.8-1.2 3.3 0 7.8-1.5 7.8-2.5 0-.5.9-.9 2-.9 1 0 2-.5 2.2-1.1.6-1.9 11.6-3.1 15.6-1.8 1.9.6 3.7.7 4 .3 2.8-3.7 7.5-4.1 9.7-.8 1.3 2 1.9 2.3 3.1 1.3 1.2-1 1.8-.8 3.4 1 2.2 2.2 5.2 1.8 4.8-.7-.2-1 .5-1.8 1.4-2 1.1-.2 1.8.3 1.8 1.2 0 2 3 2.5 5.5 1 1.4-1 3-1 5-.5a6 6 0 0 0 5.2-.7c2.1-1.3 2.3-1.2 3.3 1.2 1.2 3.3 2.3 3.3 4.9 0 1.7-2.2 2.3-2.4 4.1-1.4 2 1 2 1.3.6 3-2.4 2.6-2 3.2 2 2.4 2.3-.4 4-.2 5.1.7 1.5 1.2 1.6 1.2 1-.4-.7-2 .3-2.3 2-.6 1.8 1.8 3 .3 2.5-3-.4-3 .4-3.7 4.5-3.2a2 2 0 0 0 1.8-.9c.3-.5 2.2-1 4-1 2 0 3.5-.5 3.5-1 0-.6-1.4-.9-3.1-.8-1.8.2-3.4-.2-3.6-.9-.4-1 1.5-1.1 7.4-.4 2 .2 3.7 4.1 2.3 5.5-1 .8-1.4.8-1.7-.1-.3-.7-1-1.3-1.4-1.3-.6 0-.8.4-.5.9.3.5 0 1.1-1 1.5-.7.3-1.4 1.2-1.4 2 0 .7-1.1 1.7-2.5 2-1.6.4-2.2 1.1-1.9 2.1.4.8.1 1.5-.5 1.5s-1.2-1.2-1.2-2.8c0-1.8-.3-2-.6-.9-.3 1-1 1.6-1.8 1.4-1.5-.6-3.9 4-2.5 4.8.5.3 1.1 0 1.5-.5 1-1.6 2.5-.1 2.5 2.6 0 2.8 0 2.7 3.5 1.4 2.3-.9 2.8-.7 3.2 1 .3 1.2 1 1.7 2 1.3 1.3-.5 1.5-.1 1 2-.4 1.4-.3 2.7.3 2.9.5.1 1.1 1.7 1.3 3.3.4 4 1.4 5.4 4.5 6.6 2 .8 3 .7 3.7-.3.5-.7 2.1-1.5 3.5-1.7l2.5-.3-2.5 2c-1.4 1.2-2 2.1-1.3 2.2.7 0 1.3.9 1.3 2 0 1.5.7 2 2.8 2 1.5 0 3.4.6 4 1.2 1 1 1.5 1 2.3-.2.8-1.3 1-1.3 2 .3 1.3 2.3 2.6 2.2 3.4-.4.6-2 .8-2 2.6-.3 1 1 1.9 2.3 1.9 3.1 0 .8.7 2.1 1.5 3 .8.8 1.5 2.3 1.5 3.4 0 1 .7 2.2 1.5 2.5.8.4 1.5 1.2 1.5 1.9 0 .6 1.1 2.4 2.5 3.9 3 3.2 3.2 5 .6 4.1-1.4-.4-2.3 0-3 1.5-.9 1.4-.9 2 0 2 3 0 5.4 4.5 5.4 10.8 0 4-.4 6-1 5.8-.6-.2-1.7.9-2.4 2.5-.7 1.5-2.1 3-3.2 3.4-1.5.5-1.7 1-1 2 .7.7 1.4 4.6 1.6 8.6.5 7 .5 7.2-1.3 5.5-3.5-3.1-7 .2-5.2 5 1.6 4.2 1.3 5.5-1.3 4.9-2.1-.6-2.3-.4-1.9 3 .4 3.2 2.2 4.9 4.8 4.4 2.3-.4 3.4.3 3.4 2 0 3-2.1 3.7-4.2 1.1-1.4-1.8-1.8-1.9-1.8-.6 0 1.1-.4 1.4-1.3 1-2-1.3-3.1-1.1-4.5.8-1 1.4-1.7 1.6-3.3.7-2.6-1.4-4.9-.5-4.9 2 0 2.3-3.7 7.1-5.5 7.1-.8 0-1.7.4-2 1-.4.6 89.4.9 259.2.7l259.8-.2.3-511.8L1025 0H0v512m.5.5c0 281.6.1 396.7.3 255.7v-512C.6 115.6.5 230.9.5 512.5M353 181.3c0 1.6-.4 2.6-.8 2.3-.4-.2-.4 3.2.1 7.7.7 5.7.6 8.6-.2 9.9-1.6 2.6-1.4 2.8 1.6 1.2 2.8-1.4 2.8-1.4 3.4 2.4.5 3.3.8 3 1.3-1 .3-2.6 2.4-1.6 4.6 2.4 1.3 2.3 2.5 3.7 2.8 3 .2-.7 1-1.2 1.8-1.2.9 0 1.4-.8 1.3-1.8a33 33 0 0 1 0-4.2c.1-2.3.3-2.3 1.2-.7.6 1 .8 2.1.5 2.5-1 .9 3.5 5.2 5.4 5.2.9 0 2.1.5 2.8 1.2.9.9 1.2.9 1.2 0 0-.6-.8-1.5-1.7-2-1.3-.8-1.6-2.2-1.5-5.8.2-4.6.1-4.7-1.1-2.6l-1.4 2.4-1.2-3c-.7-1.7-1-3.6-.6-4.2.7-1.1-3.2-5-5.2-5-.6 0-1.4-.6-1.6-1.3-.3-.6-.6-.2-.6 1.1s-.5 2-1 1.8c-.5-.4-1.2 0-1.4.6-.4 1-.6 1-.6 0 0-.6-.6-1.2-1.2-1.2-1.7 0-4.8-4.3-4.9-6.6 0-1-.7-2.9-1.5-4-1.4-1.8-1.4-1.8-1.5 1m-29.5 2.8c-.6 2.5-1.2 6.9-1.4 10.6 0 1.2-.6 2.2-1.2 2.2-.5 0-.8-.4-.5-.9.3-.5-.8-2.3-2.4-4.1-1.7-1.8-3-4-3-4.8 0-.8-.2-1.3-.5-1a64 64 0 0 0-1.8 16.2c0 4.3-.1 4.7-1.3 3.2-.7-1-1.8-1.6-2.4-1.4-.6.2.2 2 2 4.3 1.6 2.2 3 4.7 3 5.6 0 1 .7 2 1.6 2.3 1.2.5 1.5.2 1-1-.4-1.1-.2-1.5.8-1 .8.2 1.7-.2 2-1 .3-.8 0-1.4-.5-1.4-1.1 0-3.2-5-2.4-5.8.3-.3 1 0 1.7.6.7.7 2.4 1.2 4 1.2 2.2 0 2.9.7 4 3.8l1.2 3.7.6-3.5c.4-2.3.1-3.8-.7-4.3-.7-.4-1.3-2.1-1.3-3.7s-.4-3.1-.9-3.4a28 28 0 0 1-.5-9.6c.3-8.9 0-11.1-1.1-6.8m123.5.2c0 .9-.4 1.6-1 1.6s-1 .6-1 1.3c0 .6-1.2 2.3-2.5 3.6-1.4 1.3-2.5 2.8-2.5 3.3 0 .6-.7.8-1.5.4-.8-.3-1.5-.1-1.5.4s-.7.7-1.6.3c-1.4-.5-1.6-.2-1.1 1.8a21 21 0 0 1-.3 6.9c-.6 3.2-.4 5 .5 6.3 2.4 3.5 5.2-1.4 4.6-8.3 0-1 .3-1 1.2.4.6 1 2 2.8 3 3.9 1.9 1.9 1.6 5-.8 11-.4 1-.3 1.7.2 1.7.6 0 1.5-1.8 2.2-4 1.3-4.3 3-6 4.1-4 .6 1 1.3.5 2.5-1.4 2-3 3.2-2.8 1.6.2-.8 1.6-.7 2.1.4 2.6 1.1.4 1.4 1.3.9 3.1-.3 1.4-.8 4-1 5.8-.3 4.8-.3 4.9-1.4 4.2-.6-.4-.8-1.5-.5-2.6 1-3-.3-2.2-2.2 1.3l-1.7 3.3-.6-2.5c-.5-2-.8-2.2-1.5-1-1.4 2.2-1.3 8 .2 8 .7 0 1.3.9 1.3 2 0 1 .4 2.1 1 2.5 1 .6.6 3.5-1 6.4-1.4 2.7-1.3 4.1.5 4.1 1.4 0 2-1.2 1.6-3.3 0-.4.3-.7.9-.7 1.5 0 1.2 2.3-.5 4.6-1.9 2.5-2 4 0 2.4 1-.9 1.5-.9 1.5-.1 0 .6-.4 1.1-1 1.1s-1 .7-1 1.5-.4 1.5-.9 1.5-1.4-.7-2.1-1.5c-1.9-2.2-2.8-1.8-2.2 1 .2 1.4.8 2.5 1.3 2.5 1.3 0 1.1 5.8-.2 6.6-.8.4-.9 0-.4-1.5.3-1.1.1-2.9-.5-3.8-1-1.6-1-1.6-.7.4.3 1.3-.2 2.8-1 3.5-1.4 1.1-1.6 1-1-1 .3-1.2 0-2.2-.5-2.2-.6 0-.8 1.4-.6 3 .3 1.7 0 3.3-.4 3.6-.4.3-.8-.2-.8-1 0-1-.7-2-1.5-2.2-.8-.4-1.5-1-1.5-1.6 0-.5.3-.7.8-.4.4.2 1.2-.7 1.9-2 .9-2 .8-2.4-.3-2.4-.8 0-1.4.5-1.4 1 0 .6-.5.8-1 .5-.6-.3-1.3 0-1.6 1-.3.8-1 1.2-1.5 1-.5-.4-.9-.2-.9.4 0 2.2-3-.2-3.5-3-.4-1.6-1.1-2.6-1.7-2.3-.7.4-.8-.4-.3-2.4.7-3.5-1.3-5.7-2.2-2.3-.7 2.5-2.3 2.8-2.4.3-.2-2.3-.6-5.5-.9-6.7-.5-2.3 0-5.5 1-5.5 2 0 7-7.6 7-10.7 0-1.3-2.2 1.3-3.6 4.2-1.8 3.8-3 4.5-3 1.8 0-1-.4-3.2-.8-4.8-.6-2.6-.6-2.7.5-1.1 1 1.5 1.3 1.6 2 .5 1.7-2.6 1-5-1-4.4-1.7.5-4-1.8-4.5-4.5 0-.3-.5-.4-1-.2-.4.1-.5-.2-.1-.8.3-.5.1-1-.4-1-1.3 0-1.4 2.2-.2 3.6 1.3 1.4 2.3 9.4 1.2 9.4-.5 0-1.3-.9-1.6-2-.3-1.1-1.1-2-1.7-2-.6 0-.7.7-.3 1.8 1.6 3.8 1.8 5.5.7 4.8-1.4-.9-1.5 0-.3 2.2 1.6 3.1 2.2 7.2 1 7.2-.5 0-.8-.4-.5-1 .4-.4-.2-.7-1.1-.6-1.3.2-2.1 1.8-3 5.7-.7 3.4-1.1 4.4-1.2 2.7 0-1.6-.5-2.8-1-2.8s-1.2-1.1-1.5-2.5c-.4-1.4-1-2.3-1.5-2-.5.2-1.4-.1-2-1-.9-1-.9-1.4 0-1.7.6-.2.3-1.3-1-3-2-2.5-2-2.5 0-4.6 2-2.3 2.5-3.7.8-2.6-.6.3-1.5 0-2-.7-.8-1-1-1-.7.6.6 3.5-2.2 4.6-6 2.3l-3.3-2 .3 3.5c0 2-.3 4.1-1 4.9-.7.9-.8 1.9-.2 2.8 1.6 2.6 1.2 4.6-.5 2.4-1.3-1.7-1.4-1.7-1.5-.2 0 1 .7 2.1 1.6 2.6 1 .6 1.2 1.2.6 1.6-.5.3-1.5 0-2.2-1-1.6-1.8-3-1.8-3 .1 0 .8-.4 1.5-1 1.5s-1 .8-1 1.8c0 1.5-.2 1.4-1.2-.3a9.5 9.5 0 0 0-2.2-2.7c-.6-.4-1.2-1.5-1.4-2.5-1-7.3-1-10.3-.2-10.3.6 0 1 .7 1 1.5s.4 1.5 1 1.5c.5 0 .6-.7.3-1.7-.4-1-.3-1.4.5-1 .7.5 1.2.5 1.2 0 0-1.1-6.9-8.3-7.9-8.3-.5 0-1.2-1.2-1.6-2.8-.7-2.5-.8-2.5-1.5-.7-.5 1.3-.2 2.6.6 3.6.8.9 1.1 1.9.7 2.2-1.1 1.2-2.1.8-2.8-1.2-.4-1.2-1.2-1.7-2.4-1.4-1 .3-2.2 0-2.5-.6-.4-.6-1.6-1.1-2.6-1.1-1.7 0-1.7.2.5 2.5 3.6 3.6 3.1 4.3-3.1 4.1-5.8-.1-8 .8-4.4 1.9 2.2.7 2.7 2.5.7 2.5-3.1 0-4.3-3.4-4.1-12.3 0-4.8-.3-8.7-.8-8.7s-.7.3-.5.8c.2.4-.2 2-.9 3.7-1.1 2.6-1.3 2.7-1.4.8 0-1.6-.4-2-1.5-1.6-1.2.4-1.5 0-1.1-2a22 22 0 0 0-2.5-8.8c-2.2-5-2.8-8-2.9-13.2 0-4-.4-6.7-1-6.7-.8 0-1 2.5-.6 7.8.8 10.7 1.7 16.2 2.7 16.2.5 0 .9 1 .9 2.2v2.2l-1.5-2c-.8-1.3-1.6-3.3-1.7-4.6-.2-1.2-.9-3-1.6-3.7-1-1-1.2-2.7-.7-5.8.4-2.8.2-4.3-.4-4.3-.6 0-1.1 1-1.1 2.3 0 3.3-2.5 7.4-3.3 5.4-.3-.9 0-1.8.6-2.1 1-.5.9-.7 0-1.2-.7-.3-1.3-1.5-1.3-2.7a17 17 0 0 0-1.4-5.2l-1.3-3-.6 3.5c-1.5 9.2-1.5 15 0 16.5 2 2.1 3.4 1 2.3-2.1-1.4-3.6-1.2-4.8.5-3 .8.8 1.5 2.7 1.5 4.2 0 2.2.2 2.4 1.5 1.4 1.9-1.5 3.8-.3 3.2 2.1-.3 1-.2 1.9.1 2 1.5 0 3.2 5.3 2 6-.7.4-1.6.6-2 .3-.4-.3-.5.9-.2 2.5.4 2 .2 3.1-.5 3.1-.6 0-1.1-.4-1.1-1s-.4-1-1-1c-1.9 0-1 3.9 1 4.5 1.1.3 2 1 2 1.7 0 .5.6.8 1.2.6.7-.3 1.8.1 2.5.8.7.7 1.8 1.4 2.3 1.6 1.8.6-.7 5.8-2.7 5.8-1.5 0-1.6.2-.3 1 1.3.9 1.3 1 0 1-1 0-2.5-.7-3.6-1.5-1.8-1.4-1.8-1.4.9-1.5 1.5 0 2.7-.4 2.7-1s-.9-1-2-1-2-.4-2-1-.9-.1-2 1c-2.5 2.5-5.5 2.5-10.5 0a40.8 40.8 0 0 0-8.7-3.1c-4.2-1-8.8-3.9-6-3.9a2 2 0 0 1 1.7 1c.3.6 1.4 1 2.3 1 1-.1 1.2-.4.4-.7-.6-.2-1.2-1-1.2-1.7s-1.8-2-4-2.9c-3.9-1.5-4.2-1.5-6 .3-1.8 1.8-1.8 1.8.6 2.4 1.3.4 2.4 1 2.4 1.7 0 .5 1.3 2.3 3 3.9 1.6 1.6 2.6 3.1 2.1 3.4-1 .6 1.4 8.3 3.1 10.3 1 1.2.4 1.7-1.5 1.4-.5 0-.8.7-.7 1.6.4 3.1 0 3.2-3.7 1.7-2-.9-4.5-1.8-5.5-2-1-.1-2.8-1.3-3.8-2.6s-2-1.7-2-1-1 1-2.8.8c-4.3-.6-6.4-1.7-5.8-3.2.3-.8.1-1.4-.4-1.4-.6 0-1 1-1 2 0 1.4-.5 2-1.3 1.7l-9.5-3.3c-5-1.6-7.8-3-7-3.5.7-.4-.4-1-2.8-1.4-8.1-1.3-9.4-1.7-9.4-2.6 0-.6-.4-.7-1-.4-1.8 1.1-1 2.3 2 3.4 2.7 1 6 3.3 6 4.4 0 .2-3.7.2-8.3 0-6.4-.2-7.6 0-5.2.7 1.7.6 5.4 1.1 8.3 1.3 2.8 0 5.2.5 5.2.8 0 .4 2 1.2 4.4 1.8 5.5 1.3 6.6 1.4 4.6.1-1.2-.8-1-1 1-1 3.2 0 12 3.1 12 4.3 0 .4.5.5 1.2.1s.8-.3.4.4 0 1.2 1 1.3c1 0 .4.5-1.5 1-1.9.4-4 .5-4.6.2-.7-.2-1.5.3-1.8 1-.5 1.3.3 1.5 4.1 1a19 19 0 0 0 5.1-.9c.9-.8 3 1.8 2.4 3.2-.4 1 .2 1.4 2 1.4 1.5 0 2.7.5 2.7 1 0 .6.4.9 1 .5 1.3-.8 6 .5 5.4 1.6-1.2 2-7 .8-12.2-2.6-4.8-3.3-7-3.6-4-.7 1 1 .8 1.2-.5 1.2-1 0-1.7.4-1.7 1s.8 1 1.9 1c1 0 2.4.6 3 1.3.9 1.1.1 1.4-4.2 1.6-2.8.1-6.4.4-8 .6-1.5.2-3 0-3.3-.6-.3-.5-1.5-.9-2.7-.9-1.6 0-1.9.3-.8.9.7.5 1 1.4.7 2-.4.6-.2 1.1.3 1.1.6 0 1.1-.5 1.1-1.1 0-.8.4-.8 1.4 0 .7.6 2.7 1 4.2 1 4.3-.3 8 1 6.3 2.3-1 .7-1 .8.5.4 1-.4 2.5-.1 3.2.5 2.2 1.8 1.6 3-1 2-1.8-.8-3.6-.6-6 .5-2 .8-4.7 1.2-6.1.8-1.9-.5-2.5-.3-2.3.7.2 1-1 1.6-3.7 2-4 .6-2.5 1.2 2.8 1.1 3.5 0 3.6 2.4.1 3.2-3.2.8-2.6 3 1 3.2 1.4 0 2.6-.2 2.6-.5s1.4-.6 3-.6c3.8 0 4 2 .3 2.2-1.6 0-3.7.5-4.9.8-1.3.4-2.7 0-3.7-1-.8-.8-2.1-1.5-2.8-1.5-.7 0-.4.6.7 1.5 1.8 1.4 1.6 1.4-1.9 1-2.3-.4-3.7-.2-3.7.4 0 1 2 1.5 4.7 1.2 2.2-.3 2.4 1.8.2 3-1.6.8-2.3.8-2.9-.1-.5-.9-1-.9-1.4-.1-.4.6-.1 1.1.6 1.1s-1.2 1.4-4.2 3c-3.3 2-6 2.8-7 2.3a13 13 0 0 0-4-.8c-7-.4-8-.6-7.6-1.3.3-.5-1.6-.7-4.2-.5l-4.7.4 3.5-2.2c3.1-2 4-2 8-1 3.6 1 9.4 1 16 .1.3 0-.1-.4-.9-1-1-.6-1-1 .8-1.5 1.1-.3 2.1-1 2.1-1.6 0-1.6-3.9-1-4.9.9-.8 1.4-1.3 1.5-3 .4-1.2-.7-2.6-1-3.2-.7-1.1.8-6.9-1.6-6.9-2.9 0-.4.7-.6 1.5-.2.8.3 1.5.1 1.5-.4s1.8-1.3 4-1.6c3.6-.6 6.7-2.4 4-2.4a1 1 0 0 1-1-1c0-.6 1-.8 2.5-.4 6.7 1.7-3.1-4.1-11-6.5-7.3-2.2-7.2-2.2-4-3.6 2-1 2.4-1.4 1.2-1.4-1 0-2.7.4-3.7.9-1.3.7-2 .7-2.5 0-1-1.6-2.5-1.2-1.9.5.4.8 0 1.5-.7 1.5-2.4 0 .3 1.5 3 1.6 1.5 0 5.4 1 8.6 1.9 5.8 1.7 6 1.7 3.5 3-2.3 1.3-2.3 1.4-.5 1.6h2.8c.4 0 .7.3.7.9 0 1.3-4.7 1.3-5.5 0-.4-.6-1-.8-1.6-.5-.5.4-1.5.3-2.2-.2a10 10 0 0 0-3.8-1c-1.4 0-4.1-.7-6-1.6-5.9-2.6-6.6-2.6-10.6-.6l-3.8 2 4.8-.7c5-.7 6-.1 2.6 1.6-2.1 1.2-10.7-1-13.9-3.4-2-1.6-8.8-4.6-10.3-4.6-.7 0 2.3 2 6.7 4.5a48 48 0 0 0 9.2 4.5c.8 0 1.4.4 1.4 1s-.4 1-1 1a1 1 0 0 0-1 1c0 .6 1 .8 2.3.5 1.3-.4 3-.7 3.8-.8.8-.2 2-.6 2.7-1 .6-.5 1.2-.5 1.2 0 0 1-7.2 7.2-9.3 7.9-1 .3-1.7 1-1.7 1.4 0 1.6-6.2 2.3-7.1.9-.9-1.4-1-1.2-1.3 1.4-.2 1.8-8.8 4.6-9.3 3-.3-.7-1.7-1.2-3.1-1.2-1.7 0-2 .3-1 .6 2.5.6 2.3 2.3-.3 2.3-1 0-1.7.4-1.4 1 .3.6 2 1 3.8 1 2.4 0 2.8.3 1.7 1-1.3.9-1.3 1 0 1 1 .1.7.5-.8 1.2-1.7.9-2.6.8-4-.5-2.2-2-7.3-1.1-8 1.5-.3 1.1-1.7 2.1-3.4 2.5-1.5.3-3 1-3.4 1.4-.3.5-1 .6-1.6.3-.7-.4-.8-.2-.4.4.7 1.2-.4 1.5-5.9 1.3h-3l2.5 1.1a12 12 0 0 1 3 1.9c.3.3 2.5.3 5-.1s3.8-.9 3-1c-.8-.1 0-.6 2-1 2-.5 4.1-.4 5 0 1.1.7.8 1-1.3 1-1.5 0-2.7.4-2.7 1 0 1 5.5 1.5 10.7 1 1.1 0 2.4.3 2.7.8.3.6 1.5.8 2.6.5 1.1-.3 2 0 2 .6 0 .7 1 .9 2.5.5 1.6-.4 2.5-.2 2.5.5 0 1.3-8.2 5.1-10.8 5-1 0-.3-.6 1.4-1.3 4.5-2 5.4-3.9 1.6-3.3-1.7.3-3.5.8-4 1.1-.6.3-3.3.8-6.2 1.1-2.8.3-6.1 1.2-7.3 2l-2.1 1.5h2c3.1 0 3.9 2.9 1.1 4-1.2.4-2.6.5-3.1.2s-.7.2-.4 1c.5 1.1-.4 1.9-3.3 2.8-2.3.8-3.8 1.8-3.5 2.6.6 1.5-1.3 3.4-3.5 3.4-1 0-2 .7-2.3 1.5-.6 1.7 2.4 2.1 4 .5 1.1-1.1 12-1.6 13-.6.4.3-.6.8-2.2 1.2-3 .6-7 3-6.3 3.8.2.2 2.8-.4 5.7-1.4 4.5-1.6 7.1-1.3 4.2.5-1.3.8-1.3 2.5 0 2.5.4 0 1.2-.9 1.5-2 .3-1.1 1.5-2 2.6-2 2.4 0 2.5 1.8.2 2.7-2.7 1-5.3 3.6-5.3 5.3 0 1.2.2 1.2.9.1.6-.9 1.6-1 3.2-.5 1.3.4 2.7.7 3.2.6 1.1-.3.8 1.3-.5 2.6-.9.9-.9 1.2 0 1.2.6 0 1.4-.5 1.7-1 .7-1 8.5-1 8.5.1 0 1.6-7.9 3.7-9.7 2.5a12 12 0 0 0-6.3-1 18 18 0 0 1-6-.7c-.9-.4-3.1-.4-5 0l-3.5.9 3 .1c4.2.2 7.5 1.2 7.5 2.3 0 .5-.4.6-1 .3s-1 0-1 1-1 1.5-3 1.5a41 41 0 0 0-13.3 3c-.5.4 2.2.6 6 .4l6.8-.4-4.8 1.5c-5.7 1.9-6.1 3-.7 2 3.3-.6 4-.4 4 1 0 .8.5 1.5 1.1 1.5.6 0 0 .9-1.2 2-1.3 1-1.9 2-1.2 2 .6 0 1.5-.5 1.8-1 .4-.6 1-.8 1.6-.5.5.4.9.2.9-.3 0-1 5.3-3.2 7.8-3.2 2.7 0-.6 2.7-4.2 3.4-2 .4-3.3 1.2-3.3 2.1 0 1.8-.3 1.9 4.9-.3 2.4-1 4.9-1.7 5.6-1.4.7.2 2-.2 2.7-.8 2.3-2 2 1.2-.6 4.4-1.1 1.4-1.7 2.6-1.2 2.6.4 0 0 .5-1 1-3 1.8-1 2.8 3.5 2a47 47 0 0 1 6.3-1h2l-2 1.2c-2 1.2-4.6 4-4 4.6.2.2 1.3-.3 2.4-1 1.6-1 2.4-1 2.9-.2.8 1.4 6 1.5 6.8.3.3-.5-.5-1-1.8-1-2.2 0-2.2 0-.4-1.4 2-1.5 4-1 3 .6-.3.5 0 .9.5.9.6 0 1.1-.4 1.1-1s.6-1 1.4-1c.8 0 1.3-.7 1.2-1.6-.1-2.1 8-7.2 12.5-8 1.9-.2 2.8-.1 2.1.2-1 .4-1 1-.1 2 .8 1 1.6 1.1 3.1.3s1.9-.8 1.4 0c-.5.7 0 .8 1.1.4 1.6-.6 1.6-.5.4 1-.7 1-1.7 1.4-2.2 1.1-.5-.3-.9 0-.9.5 0 .6-.9 1.1-2 1.1s-2 .5-2 1c0 2-7 4.2-16.4 5-.6 0-.2.6.8 1.3 1.3 1 3.5 1.1 8.4.5 3.6-.4 6.8-.5 7-.3.3.3 0 .5-.7.5s-1 .5-.5 1.3c.4.6.4.9 0 .5-.9-.7-5.3 2.9-4.5 3.7.3.2 3-1 5.9-3 3-1.8 6-3 6.7-2.8 2 .8 1.6 3.7-.7 5-1.2.8-1.8 1.8-1.4 2.4.4.7 1.8 0 3.5-1.7 2.8-2.7 4.2-2.2 1.7.5-1 1-1 1.2.8.7 2-.6 3.6 1 3.9 3.9 0 .6.7 2.1 1.5 3.5 1.6 2.6 2.1 8 .9 8-.4 0-1.4-.7-2.3-1.5-.8-.8-1.9-1.5-2.4-1.5-1 0-6.2-7.4-6.2-9 0-.5-.9-1-2-1s-2 .4-2 1 .5 1 1 1c1 0 2.7 3.3 3.4 6.5l1.4 3.8c1.5 3.6 1.5 3.6-.8 3-1.4-.4-2-.1-1.8.8.2.8-.3 1.3-1 1.1-.6 0-1.2.5-1.2 1.3s.9 1.5 1.9 1.5c1 0 2.1.7 2.5 1.5.3.8.1 1.5-.4 1.5a1 1 0 0 1-1-1c0-.6-.7-1-1.5-1-1 0-1.2.6-.8 1.7.5 1.3.2 1.5-1.5 1-1.3-.3-2.2 0-2.2.6 0 .9-.2 1-.8 0-1-1.6-8-4.3-8.7-3.4-.2.5 1.3 2.6 3.5 4.7 4.6 4.5 4.5 5-.6 3-3-1.3-4-1.4-4.6-.4-.8 1.3-2 .2-3.1-2.7-.3-.6-.8-.7-1.2-.3-.4.4.7 2.7 2.5 5.3 3.2 4.6 3.4 7 .5 4.5-1.5-1.2-2.2 0-.8 1.4 1 1 1.4 4.6.5 4.6-.4 0-1.3-.5-2-1.1-.6-.7-1.8-.9-2.8-.5-1.5.6-1.5.8.5 2.5 1.1 1 2.1 2.3 2.1 2.9 0 .6.9 1.4 2 1.7 1.1.3 2 1 2 1.6 0 1.2-5.7 1.2-6.5-.1-1-1.6-2.5-1.1-1.8.6.4 1.1 0 1.5-1.3 1.2-1.5-.2-1.8.2-1.6 2 .2 1.2-.2 2.2-.7 2.2-.8 0-.7.6 0 1.9.7 1 1.9 1.8 2.7 1.7.8 0 1.7.4 1.9 1 .5 1.4-2.8 1.5-4.5.1-.7-.5-1.5-.7-1.9-.4-.3.4-1.2.2-2-.5-.7-.6-1.7-.8-2-.4-.5.4 0 1.2 1 1.7 2.3 1.3 2.3 3.2 0 2-5.4-2.8-13.3-4.8-13.3-3.4 0 .2 2 1.2 4.3 2.2 4.9 2.1 12.7 8.7 12.7 10.7 0 1.6-5.5 2-6.5.4-.3-.6-1-1-1.5-1-1.4 0 .1 3.3 2.4 5 2.9 2.5 1.1 4.6-2 2.5-1.4-.9-2.9-1.3-3.4-1-.5.3-1.1 0-1.5-.5-.3-.5-1-1-1.6-1-.6 0-.7.4-.4 1 .4.6-.6 1-2.2 1h-2.8l3.1 1.4c1.7.8 3.4 2.1 3.7 3 .4.9 1.4 1.6 2.3 1.6 1.7 0 11.3 7 11.4 8.3 0 1.1-3.3.4-4.8-1-.6-.6-1.2-1.6-1.2-2.2 0-1-1.1-1.4-2.8-.9-.4.2-.6.7-.4 1.2.2.5-.4.6-1.3.2-1-.3-1.3-.2-1 .4 1.4 2.3-1.2.7-5.2-3.2-5.5-5.4-6.3-4.5-1.2 1.4 2.2 2.7 3.5 5 3 5.3-.6.3-1.1.2-1.1-.3s-1.3-1.2-3-1.4c-3.4-.5-3.6-.1-1.5 2.6 1.2 1.6 1.2 2.2.3 2.8-1 .5-.8.8.4.8 1.1 0 1.5.5 1.2 1.5-.4.8 0 1.5.5 1.5.7 0 2.8 1.6 4.8 3.5 2.8 2.7 4 3.2 5 2.4.9-.8 1.3-.8 1.3 0 0 .5-.5 1.3-1 1.6-.6.4-.8 1-.5 1.6 1.4 2.1-6.2-1-10.3-4.3-1.7-1.5-2.8-.2-1.3 1.6 1.8 2.1.6 3.4-2.6 2.8-3.9-.6-1.8 1.2 2.9 2.7 2 .7 5.8 3.2 8.4 5.7 2.5 2.5 5 4.2 5.2 3.9.4-.3 0-1-.8-1.5s-1.2-1.1-1-1.4c.7-.6 9.9 6.5 10 7.6 0 .5-.8.8-1.8.8s-.2.7 1.7 1.6c4.2 1.8 3.8 2.2-1.6 1.6-3-.3-4.4-1-4.8-2.3-.4-1-1.5-1.9-2.6-1.9-1 0-1.9-.4-1.9-.8 0-1.7-11-1.8-13.8-.3-1.4.9-1.2 1 1.1 1 2 0 3.9 1.2 5.8 3.2 3.4 3.6 3.1 4.8-.6 3-3.1-1.3-3.8-1.4-3-.2.3.6-1 .8-3.2.6-3.2-.4-3-.2 1.2.9 6.6 1.7 12.9 4.8 12.4 6.1-.2.5-3.1 1-6.4.9l-6-.1 4.3 2c4.7 2.3 5.8 5.2 1.7 4.5-3-.6-3-.2-.8 2 1.6 1.6 1.5 1.7-1 2a9 9 0 0 1-5.3-1.3c-2.5-1.6-3.3-.6-1.2 1.7 4 4.1 4.4 5.1 2 4.4-2.9-1-2.6 1.1.6 3.7 1.2 1 2 2.3 1.7 2.8-.4.5-.2.9.4.9.6 0 .8.7.5 1.5-.4.8 0 1.5.6 1.5s.8-.5.5-1c-.3-.5 0-1 1-1 .8 0 1.5.5 1.5 1s-.5 1-1.2 1c-1.7 0 2.5 3.7 4.7 4.1 1 .2 2.5 1.5 3.4 2.8 1.5 2.4 1.5 2.4-.7 1.9-3.3-.9-2.7 1.1.7 2.3 2.5.9 4.8 3.5 3.9 4.5-.2.1-2-.6-4.2-1.7a20 20 0 0 0-5.3-1.9c-2 0-1.5 1.8 1 3.1l2.2 1.2-2.3 1c-2.4 1.1-2.8 2.7-1 4.5 1 1 .7 1.2-1 1.2-1.2 0-2.2.4-2.2.9 0 .4 1.2.7 2.8.4 1.8-.2 2.2 0 1 .4-1 .5-1.4 1.3-1 1.8 1.2 1.7 8.1 4.5 9.7 3.9.8-.4 1.5-.1 1.5.5s.6.8 1.3.5c.7-.2 2.3.5 3.6 1.7 1.8 1.7 2.5 1.9 3.1.8.7-1 1.2-1 2.7.3 1 1 3.2 2.4 4.8 3.3l3 1.7-3-.7a71 71 0 0 0-5-.9c-1.1-.1-3.1-.9-4.5-1.6-1.4-.8-2.8-1.3-3.3-1.2-.4.1-.7-.3-.7-.8s-.7-1-1.5-1c-2 0-1.9 1 .3 3.6 1.6 2 5.8 4.2 4.8 2.5-.3-.4.6-.6 2-.3 1.5.3 2.4 1.1 2.4 2.3 0 2.2-.4 2.3-3 1-1.3-.8-2-.7-2.3.3-.7 1.8.1 2.6 2.8 2.6 2.1 0 4.5 1.7 4.5 3.2 0 .5-1.4.1-3-.7-3-1.6-3.2-1.6-2.5.4.4 1.2.2 2.1-.4 2.1-2.1 0-1 1.8 1.4 2.4 2 .5 2.3.9 1.3 2-1.1 1.2-1.4 1.1-2-.3-.4-1-.7-1.1-.7-.3 0 1-1.2.5-3.2-1.3-3.5-2.9-5.2-2.6-2.4.5 2 2.3 1.6 2.5-2 .9-1.3-.7-2.2-1.6-2-2 .4-.5 0-.9-.8-.9-2.4 0-2.8 1.3-.7 2.7 2.6 1.8 2.6 3.7 0 2.1-3.3-2-3.4 0-.1 2.7 1.7 1.5 3.1 3 3.1 3.5 0 .8-6.7-1.3-10.2-3-1-.6-1.8-.7-1.8-.3 0 1.3 9.3 6.7 11 6.5 1.3-.2 1.3-.1.1.7-1 .7-.5 1.4 2.7 3 4.2 2.1 5.3 3.3 3 3-4.3-.5-5.2.2-2.3 1.8 2.7 1.5 2.8 1.8 1 2.1-1.2.3.7 1 4.5 1.8 3.6.8 6.6 1.8 6.8 2.3.2.6 1 .8 1.6.5.8-.3 2.1.3 3.1 1.3s2.3 1.8 3 1.9c3 .3 3.5.5 3.5 1.2 0 .8-3.2 1.4-8.3 1.6-1.5 0-2.7.5-2.7.9s-.9.3-2-.3c-4-2.1-5.4 0-1.8 2.8 1 .7 1.8 2.2 1.8 3.3 0 1 .5 1.9 1 1.9.6 0 .9.4.5 1-.3.5-1.3.6-2.2.3-1-.4-1.4-.3-1 .5.5.7 1.4 1.2 2.2 1.2 2 0 4.7 3 4 4.6-.2.8.2 1.4 1 1.4 1 0 1.4.4 1 1-.3.5.2 1.3 1.1 1.8 2.9 1.6-3 2-7.3.6-4.8-1.7-5.6-1.7-5 0 .3.7 0 1.9-.6 2.5-.8.8-.6 1.1 1 1.1a5 5 0 0 1 3.3 1.5c.7.8 2.4 1.5 3.9 1.5 2.4 0 2.4.2.8 1.4-1 .7-1.7 1.9-1.7 2.6 0 1-.4 1-1.7-.1-1.5-1.2-1.6-1.2-1 .4.4 1 .2 1.7-.6 1.7-.7 0 0 .7 1.3 1.5 1.4.8 2 1.4 1.3 1.5-.7 0-1 .7-.7 1.5.4 1 0 1.5-1 1.5-1.5 0-1.5.2 0 2.5.9 1.4 2.5 2.5 3.5 2.5 1.1 0 2.2.7 2.5 1.5.4 1 1 1.2 1.8.6.7-.6 2.9-.6 5.6 0l5.3.9c.4 0 .7.4.7.9s-1.6.5-3.8 0c-6.8-1.6-9.3-1-4.3 1 4.3 1.7 3.7 4-.7 2.4-1.5-.6-1.5-.4.2 1.5 1 1.2 2.3 2 2.7 1.6.5-.3 1 0 1 .8 0 1 .1 1 .7.1.9-1.4 8.4 0 11.7 2.1a19 19 0 0 0 4.8 2c3.9 1 3.9-3 0-4.5-5.8-2-6-2.2-4-2.6 1.5-.4 1.5-.6 0-2.9-.8-1.3-2-2.4-2.7-2.3-2 .2-5.6-1.3-5-2.2.3-.5 1-.7 1.4-.4.4.3 2.3-.2 4.1-1 3.1-1.3 3-1.6-1-2-.8 0-1.6-.6-1.9-1.3-.2-.8 1-1.2 4.2-1.2 2.9 0 4.6-.4 4.6-1.2 0-.6.7-.3 1.5.8.8 1 1.5 1.4 1.5.9 0-.6-.6-1.7-1.2-2.3-1-1-1-1.5.2-2.3 1.3-.8 1.3-1.1-.3-2.3-1-.7-1.7-1.8-1.7-2.5 0-.6-1-1.1-2.4-1.1s-3.1-.7-4-1.5c-.8-.8-2-1.5-2.6-1.5-.6 0-1.3-.7-1.6-1.5-.4-.8-1.2-1.5-2-1.5-.6 0-1.8-1.5-2.5-3.3l-1.7-4c-.3-.6 1.2-.7 3.3-.3 2.5.5 3.5.4 3-.3-.3-.6-.1-1.1.5-1.1s1.3.7 1.7 1.6c.8 2.2 5 3.6 7.1 2.4 1.6-.9 1.6-1 0-1-1.7 0-2.3-1.2-1.9-3.4.1-.5-.5-1.6-1.4-2.6-1-1.2-1.2-2-.5-2.2.8-.2.8-1.1 0-3-.5-1.6-.6-2.8 0-2.8.4 0 1 .8 1.3 1.8.5 2 4.4 3.6 5.3 2.1.3-.5-.4-.9-1.5-.9-1 0-2.3-.5-2.6-1-.3-.5 0-1 .9-1 .8 0 1.8-.4 2.1-1 .3-.5-.2-1-1.2-.8-4.8.4-7.2-.2-6.7-1.7.7-1.7-1.1-2-2.1-.5-.9 1.5-2.1 1.2-4-.7-1.7-1.7-1.7-1.8.6-2.3 1.3-.4 2.7-.2 3.1.4.7 1 .8.9.8-2.1 0-.5-.4-.9-1-1l-1.8-.3c-.4-.1-1-.2-1.5 0-2.2.3-7.5-2.4-7-3.7.3-.7-.2-1.3-1-1.3-.9 0-1.9-.5-2.2-1-1.2-1.9 3.5-1 5.2 1 2 2.4 4.8 2.7 4 .5-.8-1.9.7-2 2.2-.1.7.8 2 1.2 3 1 2.1-.6 7.4 1.3 6.7 2.5-.3.4.5 1.3 1.9 1.9 1.8.8 2.5.8 3-.1.4-1 .6-1 1 0 .4.6 1.3 1 2 .6 2.8-1-4.7-10.3-9.6-11.8a8.9 8.9 0 0 1-3-1.6c-.3-.5-2-1.1-4-1.5-3-.5-3.2-.4-1.7.9 2 1.6 2.3 2.7.9 2.7-1.7 0-4.2-3.2-3.7-4.6.3-.8.1-1.4-.4-1.4s-.7-.7-.3-1.7c.5-1.1.3-1.4-.6-.8-.8.4-1.7.2-2.2-.6-.4-.8-.4-1.6.3-2 .6-.4.1-1.5-1.3-2.8-3.1-2.9-1.4-4.8 3-3.3 2.2.8 3.1.8 3.1 0 0-.6.8-.4 1.9.6 2.4 2.2 4.6 1.2 4.8-2.3.2-2.4-.4-3.3-3.4-5l-3.6-2.2 2.3-2.4 2.2-2.4-3.5-1.4c-2-.9-3.8-2.5-4.2-3.6-.4-1.2-1.1-1.8-1.7-1.5-.7.5-1 .1-.5-1 .3-.9.2-1.6-.4-1.6-1.8 0-3.8-2.6-3-3.9.8-1.2 2.7-1.8 6.1-2 1.1-.1.9-.7-.8-2-2-1.8-2.1-2-.6-3 1.6-.8 1.6-1-.2-1.5-1-.3-2.7-2-3.7-3.7-1.7-3-1.7-3.1 0-2.4 5.7 2.4 8.8 1.2 3.8-1.5-1.4-.7-2.5-1.8-2.5-2.3 0-.5-1-1.8-2.3-2.8l-2.2-2 2.5.7a8 8 0 0 1 3 1.3c.3.4 1.8.8 3.5.9l3 .1-2.9-2.5c-2.8-2.5-3-4.8-.1-2.4 1.2 1 1.5 1 1.5-.4 0-1 .4-1.5 1-1.1.5.3.7 1.2.3 2-.3 1 0 1.5 1 1.5 2 0 7.7 4.8 7.7 6.6 0 .8.4 1.4 1 1.4 2 0 1-4.8-1.3-6.3l-2.2-1.6h3c3 0 5.5 2.3 6.9 6.4.6 2 6.3 6.1 7.2 5.2.3-.3-.4-2-1.5-3.8-1.2-1.9-2-2.8-2.1-2 0 .6-.5 1-1.1.5-.7-.4-.8-.9-.1-1.3.6-.4.1-1.7-1.3-3.3-1.3-1.5-2.6-2.4-3-2-.3.3-.3-.2 0-1.3.4-1.3.4-1.6-.2-.8-1.2 1.7-2.8.4-4-3.2-.6-2-1.7-3-2.9-3-6.5 0-13.4-4.4-13.4-8.4 0-1.2 6.8-.5 8.3.8 1.5 1.2 1.7 1.1 1.7-.3 0-.9.5-1.6 1-1.6 1.6 0-1.2-4-3.3-4.6-1-.3-1.5-1-1.2-1.5.8-1.2-.1-1.1-2.4.3-1.5 1-2.4.7-4.6-1-1.5-1.2-2.2-2.2-1.6-2.2.7 0 1-.5.6-1-.9-1.4 1.8-1.3 3.3.2.8.8 1.5.8 2.5 0s2-.5 4.2 1.3c1.5 1.4 3.5 2.5 4.4 2.5a7 7 0 0 1 3.5 1.5 7 7 0 0 0 3.5 1.5c1.3 0 1.2-.4-.4-1.6-1.1-.8-1.9-2-1.8-2.5.2-.5-.4-.9-1.3-.9-2.5 0-7.4-3-7.4-4.4 0-.8-.7-1.6-1.5-2a2.5 2.5 0 0 1-1.5-2c0-1.8 1.6-2.1 2.5-.6 1.2 2 2.6 1 1.5-1-.6-1.1-2-2-3-2-1.1 0-2-.5-2-1 0-.6-.4-.8-1-.5-1.5 1-3-.3-2.4-2 .3-.7 1.3-1.1 2.2-.8 1.3.4 1.4.3.3-.5-1-.8-1-1 0-1.4 1-.3.7-1-.8-2.5-3.3-3.3-5-6.8-3-6 2.5 1 2-1-.9-4-3-3-2.3-4.5.9-1.6 1.2 1.2 3.8 2.4 5.7 2.7 1.9.3 3.6 1 3.8 1.6.2.5 1 1 1.6 1 1.6 0 5.6 3.4 5.6 4.8 0 .6-.9 1.4-2 1.7-2.5.8-2.6 2.2 0 3 1.3.4 1.7 1.3 1.5 2.7-.3 1.2 0 2.8.7 3.6 1.6 1.9 1.9 4.2.5 4.2-.6 0 .4 1.1 2.3 2.5 3.7 2.7 6 3.2 6 1.3 0-.9.4-.8 1 .2.8 1.3 1 1.3 1-.2 0-2-1.7-3.3-2.2-1.6-.5 1.4-3.8.3-3.8-1.3 0-.8.4-.8 1.5.1 2 1.7 2 .1-.2-2.2-1.2-1.3-1.3-1.8-.3-1.8.9 0 .6-.8-.8-2.3-1.2-1.3-2.2-3-2.2-4 0-.8-.6-1.7-1.3-2-.6-.2-.9-.8-.5-1.2.3-.4 1.5-.2 2.5.4 1 .6 1.4 1 .8 1-.5 0 0 .8 1.3 1.7 4 2.8 3.6-.4-.7-5.8-1.2-1.5-1-1.7.9-1.5 1.3 0 2.6 1.1 3.1 2.5.6 1.6 1.4 2.2 2.5 1.8l2-.6c.2 0 .4-.7.4-1.5s-.4-1.5-.9-1.5-1.1-.7-1.5-1.5c-1.2-3.1 2.1-1.4 3.7 2 2 4.3 4.6 3.8 4.3-.8 0-1.8-.5-3.7-.9-4.4-.4-.6 0-1.8.7-2.5 1-1 1-2 .4-3.1-.6-1-.5-1.7 0-1.7.6 0 .5-1-.1-2.4-.7-1.4-1.4-2.4-1.7-2.4-1.8.1-3-.3-3-1.2 0-.6 1.3-.8 3-.5 1.6.3 3.2 0 3.5-.5.3-.5 0-1-.9-1a3 3 0 0 1-2.2-1.1c-1-1.8 3.9.1 5.3 2 .7.9 1.3 1.2 1.3.7 0-.4 1.1-.1 2.5.8 3.2 2.1 3.8 2 2.5-.3-1.4-2.8-1.2-4.4.5-3.7.8.3 1.5 0 1.5-.5 0-.6.7-.9 1.5-.5 2.4.9 1.7-.8-1-2.4-1.6-1-2.1-2-1.6-2.8.6-1 1.1-1 2.5.3 2.6 2.7 3.2.8.7-2-1.3-1.3-2-2.8-1.7-3.3.3-.6 0-1.2-.6-1.5-1-.3-1-.7 0-2 .8-1 1.8-1.4 2.3-1.1.5.3.9 0 .9-.5 0-.6-.5-1.1-1-1.1-.6 0-.8-.5-.5-1 .4-.6 1-.8 1.6-.5.5.4.9.2.9-.4 0-.5-.7-1.4-1.6-1.9-1.5-.8-1.5-1 0-1.5.9-.4 1.6-.2 1.6.3s1 .7 2.1.5c4.2-.8 4-2.4-.4-2.7-1.5-.1-2.9-.8-3.1-1.4-.3-.7-1.4-1-2.4-.7-1.2.3-2.7-.3-3.8-1.5-1-1-2.6-2.2-3.4-2.5-.8-.3-.3-.6 1.3-.6s2.6-.5 2.2-1.1c-.4-.6-1.1-.7-1.7-.4-.7.5-.8.2-.3-.6.6-1 .4-1.2-.8-.7-2.5 1-3-1-.7-2.3 1.1-.6 1.8-1.6 1.4-2.2-.4-.7-.9-.6-1.4.2-.6 1-1.3 1-2.9 0-2.7-1.4-2.7-2.3 0-1.5 1.2.4 2.4.2 2.9-.4.3-.7 1.4-.9 2.4-.5 1.4.5 1.5.9.4 1.5-1 .6-.7.9.9.9 3 0 3.8-1.7 1.3-2.5-1-.3-2-1-2-1.6 0-.6-.7-1.7-1.6-2.6-1-1.1-1.2-1.9-.5-2.6 1.4-1.4 1.4-2.7 0-2.7-1.6 0-8.1-4.1-7.5-4.7.2-.3 1.4 0 2.6.7 2.7 1.4 5.9.5 4.2-1.2-1.8-1.8-1.4-2.8.9-2.8 1.6 0 1.9.4 1.4 2s-.3 1.9 1.1 1.3c1.1-.4 1.5-.3 1 .5-1 1.6 2.4 5.1 4.2 4.4 1.1-.4 1.4-.1.9 1.2-.4 1-.3 1.5.1 1.2.4-.2.9.5 1 1.6 0 1.2.6 2.4 1.3 2.8.8.6.8 1-.1 1.5-1 .6-.9 1 .1 1.6 1 .6.7.9-1 .9s-2.2.4-1.7 1.6c.3.8.2 1.2-.4.9-1.4-.9-1.2.9.2 2.3.7.7.8 1.2.4 1.2-.5 0 0 1.1.8 2.5 1 1.4 1.4 3 1 3.5-.7 1.3.2 1.3 2.7 0 1.7-1 2-.7 2.5 2 .4 1.6 1 3 1.5 3s.6.6.4 1.3c-.3.7.3 1.9 1.4 2.6 1.9 1.4 1.9 1.6.3 2.9-1.6 1.3-1.6 1.3.2.8 1-.4 2.6 0 3.4.6 1.3 1.1 1.5 1 1-.4-1-2.6 3-3 4.7-.5 1.5 2.1 1.5 2 1.5-1 0-3.3 2.9-6.7 5.1-5.8 1.7.6 6.4-7 4.9-8-.6-.4-1.5.7-2.1 2.4-2 5.5-3.8 3.8-4.1-3.7-.1-2.8-.6-4.8-1-4.5-.5.2-2.8.1-5-.2l-4.2-.8 4.4-1.7c2.5-.9 4.4-2.2 4.3-2.8-.4-1.6 2-1.5 3.5 0 1 1 1.4 1 2.1 0 .6-1 1-1 1.3.6.7 2.4 4.8 3.7 4.8 1.5 0-1-.6-1.3-1.6-.9-1.3.5-1.5.1-1-1.9.5-1.8.2-2.5-.8-2.5-.9 0-1.3-.6-1-1.4.3-.8 1.6-1.2 3.2-1 2.7.4 2.7.4.3-.6-4.2-1.8-.2-10.2 4.5-9.4 1.3.2 2.4 0 2.4-.4 0-.5 1-.8 2.3-.7 1.2.1 2 .8 2 1.4-.2.6.1 1.1.6 1.1.8 0 2.4-3.7 2.2-5.3 0-.4.6-.7 1.4-.7.8 0 1.4-.6 1.3-1.3-.2-.6.4-1.2 1.2-1.2.8 0 1.4.6 1.2 1.3-.1.9.5 1 2.3.6 1.7-.4 2.5-.2 2.5.7 0 1 .4 1 1.3-.3.9-1.1 2.2-1.4 4.2-1 2.6.5 2.8.3 1.7-1-1.3-1.6 1.2-9.8 3-9.8 1.3 0 .9-3.8-.4-4.3-1-.4-1-.6-.1-.6.6 0 2.4.4 4 1 4.4 1.9 5.2 1.8 5-.1 0-1.5-.7-1.8-3-1.3-1.6.3-2.7.1-2.7-.6 0-.6.3-1 .8-1 .4.1 2.3-.5 4.2-1.4 2-.9 3-1.6 2.5-1.7-.6 0-.3-.4.5-1 .8-.5 1-1.2.7-1.7-.5-.4-1.2 0-1.7.7-.7 1.2-1.3 1-3.2-1.3-2.1-2.4-2.6-2.5-4.8-1.4-3.2 1.7-5.6 1.1-4-.9.8-.9.9-1.4.2-1.4-.6 0-.8-1-.5-2.1.3-1.2 0-2.4-.7-2.9-1-.6-1-1.2 0-3 .6-1.2 1-2.8.6-3.5-.2-.7 0-1.5.7-1.8 2-.7 5.7 1.1 5.7 2.8 0 1 1 1.5 2.6 1.5 2.9 0 2.4-1.7-1-3-2-.8-2-.9-.1-.9 3.3 0 7.5 4.4 7.5 7.9 0 1.6.5 3 1.1 3 .7 0 2 1 3 2 1 1.2 2.2 2 2.8 1.6.5-.4 1.2-.2 1.6.3.3.6 1.2.8 2 .5 1-.4 1.8.3 2.4 1.7l1 2.4v-2.6c0-1.4-.4-3-1-3.6-.7-.7-.3-1 1.6-1 1.5 0 3.2-.6 3.8-1.2 1-1 .6-1-1.4-.6-3 .7-5-1.2-2.8-2.6.7-.4 1-1.1.6-1.5-.3-.4-1.4 0-2.3.7-1.3 1-1.8 1.1-2.1.1a2 2 0 0 0-1.8-1.2c-.8 0-1.3-.9-1.2-2 .2-2.4.2-2.4 2.7-.8 2.2 1.4 4.1.2 2-1.3-1.1-.8-1.2-1.2-.3-1.6a2 2 0 0 0 1.3-1.8c0-2.3 2.6-3.6 5.1-2.6 2 .8 2 1 .5 1s-1.6.4-.6 1.6c.6.8.9 1.9.5 2.5-.3.5-.3 1 .2 1 .4 0 1.4 2 2.1 4.2 2 6.2 3 7 5.3 4.7 1-1 1.9-2.3 1.9-2.9 0-.6.7-1 1.6-1 .8 0 1.3-.4 1-.9-.3-.5 0-1.1 1-1.5.7-.3 1.4-1 1.4-1.6 0-1.2-4.9 1.7-6.7 4-1.1 1.3-1.2 1.3-1.3 0 0-1.3-.2-1.3-1.1 0-1 1.3-1 1.3-.6-.2.3-1 0-1.9-.6-2.2-.7-.2-.2-.5 1-.5 1.5 0 2-.6 1.7-1.5-.3-.8.5-2.4 1.8-3.5l2.3-2.2-2.2-.5c-1.3-.4-2-1.1-1.6-2 .2-.7 1.1-1 1.9-.7 1.7.6 1.8-.8.1-2.6-1-1.1-.9-1.3.6-.8 1 .4 1.6.3 1.3-.2-.6-1 7.1-2 9.3-1.3.7.3-.4 1.3-2.7 2.3-4.9 2.3-5.8 3.5-3.3 4.2 1.2.3 2.2-.1 2.5-1 .4-1 1.4-1.3 2.7-1 1.2.3 2.2 0 2.6-.9.3-.8 1-1.4 1.7-1.4s1.8-1.1 2.4-2.5c1.2-2.6.4-3.3-1.4-1.5-1.6 1.6-4.3.1-5-2.6-.3-1.3-1-2.1-1.5-1.8-.5.3-1-.3-1-1.3 0-1.5 0-1.6-1-.3-.8 1.2-.9 1-.4-.8.4-1.5.2-2.2-.8-2.2-.9 0-1.4 1.1-1.5 3 0 2.3.4 3 1.8 3 1 0 2 .7 2.4 1.5.4 1-.1 1.5-1.9 1.5-2.5 0-7.5-5.4-7.5-8 0-1 .5-1 1.5.4 1.2 1.6 1.5 1.7 1.5.4 0-.9-.8-1.9-1.7-2.2-1.5-.6-1.5-.8-.3-1.7 1.3-.8 1.3-1 .1-1.8-1-.7-1-1.1.8-2 2.4-1.4 4.5-.5 3.7 1.4-.3.8.2 1.9 1 2.5 1.2 1 1.4.7 1.4-2.4 0-2-.4-3.5-1-3.1-.4.3-1.1 0-1.5-.5-.3-.5 0-1 .6-1 1 0 1-.3.1-1.2a4.5 4.5 0 0 1-1.2-2.8c0-1.3.1-1.3 1 0 .5.8 1 1 1 .6 0-2.6 2.3 1.7 2.7 5 .5 4.6 2.5 6.4 3.4 3.1 1.1-3.7 1-4.7-.9-4.8-1 0-1.2-.3-.5-.5 1.7-.7-.6-5.6-2.3-5a2 2 0 0 1-2-.4c-.3-.6 0-1 .5-1s2.3-1.2 4-2.6c1.7-1.4 3.1-2.2 3.1-1.8 0 .4.9-.3 2-1.5 1.5-1.8 2.2-2 3.8-1.2 1 .6 2.2.8 2.4.5 1.3-1.2 5.6 1.6 5.2 3.4-.4 1.3.3 2.2 2 3 3.5 1.6 3.6 1.6 3.6-1 0-1.7-.3-2-.9-1-1.1 1.8-2.3 0-1.5-2.2.3-.9.1-1.6-.5-1.6a1 1 0 0 1-1.1-1c0-.6.5-.8 1.2-.4.8.5 1 .2.5-1-.3-.9-.2-1.6.4-1.6.6 0 .7-.4.4-1-.7-1.2 1.7-1.3 3-.2.6.5 2.6.6 4.5.2l3.5-.5-5-1.4c-10.3-2.7-11.6-3.3-14.1-6.7-1.5-1.9-2.4-3.7-2.1-4 .9-1 2.7.5 2.7 2.1 0 .9.6 1.2 1.6.8 1.3-.5 1.3-.8.2-1.5-.9-.6-.6-.7 1-.3 1.3.4 2.2.2 2.2-.4 0-.6-.4-1.1-1-1.1-1.2 0-5-3.7-5-5 0-.4 2.2-1.1 5-1.5 6.5-.9 8.1-2.8 4-4.8-3-1.6-4-1-1.9 1 1.1 1.1-3.2 2.4-7.1 2-1.6 0-4.7-2.7-3.3-2.7.4 0 .1-.5-.7-1-1.3-.8-1.3-1 .1-1 2.2 0 3.2-2.7 1.2-3.4a1.6 1.6 0 0 1-1-2.1c.5-1 0-1.5-1.3-1.5-3.2 0-2.3-1.5 1-1.6 3.7-.1 4.8-1 3.2-2.6-.7-.7-1.2-1.7-1.2-2.2 0-.6 1.2.2 2.6 1.7 1.4 1.5 3 2.5 3.4 2.2.5-.3 1.2 0 1.6.6.3.6 0 1.5-.7 2-1 .7-1 .9.5.9 1.3 0 1.7.5 1.3 2-.5 1.8.3 2.5 2.6 2.1.4 0 1.7.9 2.9 2 1.4 1.5 2.3 1.9 2.6 1 .6-1.8 2.2-.2 2.2 2.2 0 1.7-.2 1.9-1 .8a2.1 2.1 0 0 0-2.4-.8c-1.5.6-1.5.9 0 3.4 1 1.6 2.3 3.1 2.9 3.5.6.5.5.8-.3.8-.6 0-1.2 1-1.2 2.3 0 2.1.1 2.1 1.5.3 1.4-1.9 1.5-1.8 2.4.5.5 1.3.6 2.8.3 3.3s0 .6.5.3c1.2-.8 2.6 2 1.7 3.4-.3.5 0 .9.5.9.6 0 1.1-.4 1.1-1s1-1 2-1c1.2 0 1.8-.4 1.5-1-1-1.6.8-1.1 3.5 1 2.6 2 6.6 2.8 5.5 1-.3-.5-.1-1.8.4-2.7 1-1.7 1-1.7 1-.1 0 1 .9 2.2 1.9 2.7 1.6 1 1.5 1.1-2 1.5-.8 0-1.3 1.6-1.3 3.6 0 2.4-.5 3.5-1.5 3.6l-4 .3c-2 .1-2.2.3-1 1 .8.6 2.3.8 3.3.5 1-.3 1.7 0 1.7.7 0 .9.3.9 1.4 0 1-.9 1.5-.8 2 .5 1 2.4.7 5.4-.4 5.4-.6 0-1 1.1-1 2.5s-.6 2.5-1.3 2.6c-.6 0 0 .5 1.3 1 1.4.6 3.3.8 4.2.5 1.2-.2 1.8.1 1.8 1.2 0 .8.3 1.2.8.8.4-.4.7-1.3.7-2 0-.6 1-1.2 2.3-1.4 1.3-.2 2.2-1 2.2-2 0-1.8 2.3-3.6 6.6-5.3 2.3-.8 2.5-.7 1.9 1.1-.8 2.4-.6 2.4 3.3.4 2.5-1.2 3.6-1.3 5.3-.4 1.5.8 2 .9 1.5.1-.4-.6-.3-1.1.3-1.1 1.1 0 6.1-4.4 6.1-5.3 0-.4-.8-.4-1.8 0-2.1.8 2-3.4 6.1-6 1.6-1 3.1-2.6 3.5-3.5.7-2 4.2-5.1 5.8-5.2.7 0 1.5-1.1 1.8-2.5.8-3 2.6-3.3 3.3-.4.4 1.4.8 1.7 1.3.8.4-.6 2.2-1.2 3.9-1.3 1.7 0 3.1-.4 3.1-.9 0-.4 1-.7 2.3-.7 2.1 0 2.2.1.3 1.5-1.1.8-2.8 1.5-3.8 1.5s-1.8.6-1.8 1.3c0 .7-1 2.8-2.4 4.7l-2.3 3.5 3 1.4c1.8.7 2.6 1.5 2 1.8-.7.3-1 1-.7 1.5.5.7.2.8-.6.3-.9-.5-1-.4-.6.3s0 1.2-.8 1.2c-.9 0-1.6.5-1.6 1 0 .6-.4.9-1 .5-.4-.3-2.8.8-5.2 2.4a29.7 29.7 0 0 1-6.3 3.4c-1.9.4-1.8.5.2.6 1.2 0 3.7-.8 5.7-2 2-1.1 3.7-1.6 4-1 .3.5 0 1.1-1 1.5-2 .7-1.8 4.5.2 5.3 1.2.4-.4 1.6-5 3.8-4 1.9-6.3 3.5-5.5 3.8.8.3 1 .6.4.6-1.9.1-4.1-2-2.7-2.6.6-.2 1-.9.7-1.4-.4-.5.2-.6 1.2-.2 1.6.6 1.6.5.4-1-1.3-1.7-1.6-1.6-4 .6a17.3 17.3 0 0 1-4.1 3c-1.1.4-1.2.6-.1.6 1 0 1.1.4.1 1.6-.9 1-.9 1.5-.1 1.5 2.4 0 1 1.8-3 3.5-2.4 1.1-3.8 2.4-3.5 3.1.3.7-.5 1.6-1.7 2a17 17 0 0 0-4.2 2.1c-2 1.5-2 1.5.2 1s7.3 1.2 7.3 2.4c0 1-11.1 6-13.9 6.3-3.7.3-8.1 1.7-8.1 2.6 0 .4-1.2.6-2.8.3-2.7-.3-2.7-.3-.3.7l2.5 1-2.4 1.7c-2.2 1.6-4 2-8.3 2.2-1 0-1.6.5-1.3 1 .6.8-5.8 3-9 3.1-2.8 0-6.9 2.6-5.6 3.4.6.4 2 .1 3-.5 2.1-1.3 7.6-.4 6.7 1.1-.3.6.2 1 1.2 1 1.3 0 1 .5-1 1.6-1.5.8-2.5 2-2.2 2.4.5.9-2.3 1.5-4.8 1.1-.4 0-.7.4-.7 1s-.7.9-1.5.5c-2.3-.8-6.7 1.8-5.3 3.2.7.7.8 1.2.3 1.3l-4.8.5c-4.8.6-9-3.1-6-5.4 1.6-1.1 1.5-1.2 0-1.2-1 0-2 .7-2.4 1.6-.4 1-.8 1.2-1.3.5-.4-.8-1.4-.9-3-.2l-2.5.9 2.5 1c2.4.9 2.4 1 .4 1.6-1.1.3-2 1.3-2 2.1 0 2.2 2.4 1.8 3.6-.5 1.3-2.4 3.8-2.6 4.6-.5.4.8 1.6 1.5 2.8 1.5 1.8 0 1.6.3-.9 1.5-2.6 1.1-2.7 1.3-.8 1.4 1.2 0 2.3.7 2.6 1.4.4 1 .7 1 1.8 0 .7-.7 3.1-1.3 5.3-1.3 3 0 3.7-.3 2.6-1-1-.6-1-1-.3-1 1.7 0 1.6-1.5-.2-3.3-1.3-1.3-1.3-1.6.1-2.1 2.1-.8 2.6-.8 2 .3-.3.5 0 1.1.8 1.4.8.3 1.7 0 2-.6.3-.9.5-.8.5 0 0 1 .6 1.1 2 .3 1-.5 2.6-.7 3.4-.4.8.3 3.2-.5 5.3-1.6 2-1.2 5.5-2.3 7.7-2.6 4.7-.4 5.7-1.1 3.7-2.4-1-.7-1.1-1-.3-1 .7 0 1.3-.5 1.3-1.1 0-.7-1-1-2.4-.7-1.4.3-3 .1-3.8-.3-.8-.6.3-.9 3-.9 2.5 0 4.2.5 4.2 1.1 0 .7.8 1.7 1.7 2.4 1.3 1 1.4 1.6.7 2.6-1.7 2.2-2.4 5.9-1 6 .6 0 .4.4-.4.9-1.2.8-1.2 1 .5 1 1.1.1 1.4.4.8.7-.7.2-1.3 1-1.3 1.4 0 .6.4.7 1 .4.6-.3 1-.1 1 .5 0 1.7-4.6 3.3-7.7 2.5-2.4-.6-2.5-.8-1-1.6 2.2-1.3 2.2-3.9 0-3.9-2.6 0-4.8 1.6-3.4 2.4.6.4 1.1 1.2 1.1 1.7 0 .6-.4.7-1 .4-.6-.3-1-.1-1 .5s1.4 1.3 3 1.7c2.8.5 3 .7 1.3 2s-1.7 1.4 0 1c.9-.4 1.9-.2 2.2.2.8 1.4-2.6 2.3-4 1.1-.9-.7-2.1-.6-4.1.5l-2.9 1.5 3.3.6c2 .4 3.2 1.2 3.1 2.3 0 1-.2 1.1-.6.4a2.2 2.2 0 0 0-1.9-1.3c-.8 0-1.1.6-.8 1.5.4.8 0 1.5-.6 1.5-.7 0-.9.8-.5 2 1 2.9-4.3 5-6.2 2.4-1-1.3-2-1.5-5-1-2.7.5-3.4.4-2.3-.3.8-.6 3.4-1 5.8-1 3.2-.1 4.2-.5 4.2-1.7 0-1.3-.7-1.5-3.6-1-2.9.4-3.5.2-3-1 .3-.7 0-1.4-.7-1.4s-.3-.7.7-1.5c1.9-1.4 1.9-1.5-.7-1.5-2.4 0-2.6.3-2 2.8.3 1.9 0 3.2-1.1 4.1a5 5 0 0 0-1.6 3.2c0 1.2-.5 1.6-1.5 1.3-2-.8-2 0 0 2s3.6 2 2.9.1c-.9-2.2 1.4-1.8 2.6.5 1 1.8.8 2-1.5 2-1.4 0-2.5.4-2.5.8 0 .5-1 1.4-2.3 2-2 1.2-2 1.2.9.8 2.2-.4 3 0 3 1 0 .8-.4 1.4-1 1.4s-2.1.3-3.4.6c-1.6.5-2.2.2-2.2-1 0-1-.8-1.6-2-1.6-1.8 0-2-.4-1.4-2.2.6-1.9.4-2-.7-1.2-.8.6-2.7 1.4-4.3 1.8-2 .5-2.6 1-1.7 1.5 1.8 1.1-4.6 6-7.2 5.6-2.9-.6-10.5 4.7-8 5.6 2 .7 3.6.2 2.8-1.1-.7-1.1.2-1.6 4.4-2.5 3-.6 3.2-.5 2.6 1.4-.6 1.8-.2 2.1 2.6 2.1 5 0 .9 2.6-4.5 2.7-2.6.1-3.4 0-2.1-.5a3.8 3.8 0 0 0 2.3-2.6c.3-1.7.2-1.8-1.2-.7-.9.8-1.6 1-1.6.5 0-1-3 2.8-3 4 0 .4.5.4 1.1 0 .8-.4.9 0 .4 1.6-.6 1.8-.4 2.1 1.7 1.8 1.7-.2 2.2.1 2 1.4-.2 1 .2 1.8.8 1.8.5 0 1-.4 1-1s.6-1 1.4-1c.9 0 1.2.7 1 2-.4 1.1 0 2 1 2.2 1.3.2 1 1-1.5 3.6-3 3.2-2.2 4.7 1 1.5 1.5-1.6 1.6-1.5 2 .6.1 1.4.8 2 1.6 1.8.8-.4 1.5.5 1.9 2.4.3 1.7 1 2.8 1.6 2.4.6-.4.8-1 .5-1.5-.3-.4.4-1 1.4-1.3 1.5-.3 1.8 0 1.7 2 0 1.2-.7 2.3-1.5 2.3s-2 .8-2.7 1.8c-.8 1-1.3 1.2-1.4.4 0-.6-.9-1.2-2-1.2s-2-.7-2-1.5c0-1.6-1.2-2-2.3-.8-1.3 1.2-6.7.9-6.2-.4.6-1.7-.5-1.6-3 .2-2.4 2-3.9 2-3.1 0 .6-1.7-1-2-1.9-.5-.3.6-1.4 1-2.3 1-1.4 0-1.3-.4.6-2 3-2.4 2.8-3.4-.5-2.5-2.3.5-2.5.4-1.4-1 1.1-1.3 1-1.5-.5-1.5-1.7 0-1.7-.1.2-1.4 1.8-1.4 1.8-1.5-.5-1.3-1.4 0-2.6 1-2.9 2-.4 1.5-1.5 2.1-3.4 1.8-.5 0-.8.6-.8 1.4 0 .8-.4 1.5-1 1.5s-1 .5-1 1.1c0 .6.7.9 1.5.5.8-.3 1.5 0 1.5.5 0 .6.7.9 1.5.6.8-.4 1.7-.2 2 .3.6 1-1.4 1.5-4.9 1.1a5 5 0 0 0-3.1 1c-1 .7-1.4.5-1.9-.7-.8-2.2-.8-2.6.4-1.9.6.3 1 .2 1-.4 0-.5.3-1.7.6-2.5 1-2.7-2.2-.8-3.4 2-.7 1.3-2 2.4-3 2.4-2.3 0-5.6 2.6-4.3 3.4.5.4 1.2.2 1.6-.4.7-1.2 2.6-1.4 2.4-.3-.4 2.3.3 3.5 1.6 3 2.3-1 1.8.1-1.3 2.8-2.7 2.5-5.6 3.5-3.4 1.3 1.9-1.9 1.4-3.3-.6-1.6-2.2 2-5.2 3-5.2 1.9 0-.5.6-1.2 1.3-1.5 1-.5 1-.7 0-1.2-1.1-.5-1.1-.9 0-2.2 1-1.3 1-1.4-.3-1-1.9.6-4.8 5.8-4.4 8 .1 1-.7 2.5-1.9 3.3-1.7 1.2-1.8 1.5-.5 2 1.8.7 9.8-4.1 9.8-5.9 0-.6.5-.4 1 .4 1.4 2.1 1.2 3-.5 3-.8 0-3.3 1.8-5.5 4-3 3.2-4.4 4-6 3.5-1.5-.5-2-.2-2 1.3 0 2-2.4 3.2-4.7 2.5-.7-.3.1-1.6 2-3.3 1.8-1.6 2.7-3 2.1-3-.6 0-1.9.9-2.9 2s-2.3 2-2.9 2c-.6 0-2.2 1-3.6 2l-2.5 2 3-.6 3-.7-1.9 2.1c-2.2 2.5-1.2 2.8 4.4 1.2 2.2-.6 3.8-.6 4.4 0 .7.7.6 1-.2 1-.7 0-1.1.3-1 .8.2 1.7-.2 3.2-1 3-1.3-.4-5.3 2.3-4.7 3.3.4.5.2.9-.4.9-.5 0-1.3-.5-1.6-1-.7-1.1-2.5-.4-2.5 1 0 .5.8.6 1.8.3 1.5-.6 1.5-.4-.2 1.5-1 1.2-1.4 2.2-.8 2.2.5 0 .9.8.7 1.8-.4 2.7.6 3.5 2 1.6.8-1.1 1.4-1.3 1.9-.6.3.6-.5 2-2 3-2.6 2.2-2.5 4.6.1 3.5 1-.3 1.5.1 1.5 1.2 0 1-.5 1.5-1.4 1.2-.8-.3-2.2 0-3.3.8-1.3 1-1.4 1.4-.4 1.5 1 0 1 .4-.4 1.4-1 .8-2.5 1.2-3.1 1-.7-.3-1.5 0-1.9.5-.3.6 0 1.1.6 1.1.8 0 .6.7-.5 1.9-1 1.1-1.3 2.2-.8 2.5.6.3.8 1.5.5 2.6-.7 2.5.2 2.5 2.7 0a7 7 0 0 1 4-2c1.1 0 2-.4 2-.9 0-1.6 4.2-2 5.7-.5 1.3 1.2 1.1 1.4-1 1.4-2.8 0-4.2 1.4-3.2 3 .5.7 1.1.5 2-.6 1-1.3 1.6-1.4 3.3-.5 1.7.9 3 .8 5.8-.4 2-.8 4.8-1.5 6.2-1.5 2.5 0 2.5 0 .6 1.5-2.1 1.6-.4 3.8 2.3 2.8.7-.3 1.3.2 1.3 1 0 1-.5 1.7-1.1 1.7-.6 0-.9.6-.6 1.4.3.8-.2 2-1 2.8-1.5 1.1-1.6 1-1-.6.6-1.5.4-1.7-1.3-1.3-1 .3-2.3.1-2.6-.4a2 2 0 0 0-1.5-.9c-.6 0-.8.4-.4 1 .3.5-1.1 1.9-3.2 3l-3.8 2 4.8-.5c2.6-.4 4.7-.4 4.7-.1 0 1.4-2.4 5.6-3.2 5.6-1.6 0-8.8 6.3-8.2 7.2.3.4 1 .6 1.5.3.5-.4.9.1.9 1 0 1.4.6 1.6 2.8 1l2.7-.7-3 3.1c-3 3.2-2.8 3.9.6 2 1.4-.7 1.9-.6 1.9.3 0 2.3-1.7 4-3 3.3-1-.6-1-.4-.5.6.5.8.5 1 0 .7-1-1-4.5 1-4.5 2.3 0 .6.7.9 1.5.5.8-.3 1.5-.1 1.5.4 0 .6-.4 1-1 1-.5 0-.6.8-.3 1.7.4 1 .8 1.2 1 .5.3-.8 1.2-.8 3-.1 1.3.5 2.9.7 3.4.3.5-.3.9 0 .9.7 0 1 .3 1 1.2.1 1.4-1.4 3.2-1.6 2.4-.3-.4.5-.3 1.1.1 1.4.5.2.2.2-.4 0-2-.4-1.6.6 1.2 3.1 2 2 2.3 2.5 1 3-.8.3-1.5 0-1.5-.6s-.8-.1-1.9 1c-1.8 2.2-3.8 3-2.7 1.3.4-.5.1-1-.4-1.3-.6-.2-.1-1.3 1-2.6 1.1-1.2 2-2.2 1.8-2.3-2-.6-5-.4-5.5.4-.3.5-1 .3-1.4-.4-.6-1-.9-.8-.9.7 0 1.4-.8 2.4-2.2 2.7-2.8.8-3.8-.2-1.5-1.4 1-.6 1.7-1.5 1.7-2 0-1.2-3-4.4-3-3.2 0 .4-.5.1-1-.7-.8-1.2-1-1.2-1 .5 0 1.5-.2 1.7-.9.6-.7-1-1-1-2 .5-1 1.8-1 1.8-1 .1 0-1 .6-2 1.4-2.3.8-.4 1.5-1.4 1.5-2.3 0-1 .5-2.2 1.2-2.9.7-.7.8-1.2.2-1.2-1.4 0-3.8 2.7-5.8 6.7s-2 4.7 0 3.9c1.2-.4 1.5-.2 1 .9l-1.2 3c-.5 1.2-.1 1.2 2.6-.1 3.1-1.6 5.7-1 3 .6-.8.5-1.5 2.8-1.6 5.5-.2 3.7 0 4.4 1 3.5a3 3 0 0 0 1-2.9c-.5-1.5 0-1.7 2.7-1.3l3.3.5-3.2 2.7c-1.8 1.4-3.2 3-3.2 3.4 0 .9 4.3-1.4 5.2-2.8.5-.7.8-.5.8.6 0 1-.5 2-1.1 2.4-.8.5-.7.9.1 1.4 1 .6.8 1.4-.8 3.5l-2 2.6-1.3-2.3-1.2-2.3-1.3 3c-.8 1.8-1.3 2.3-1.4 1.3 0-1-.6-1.8-1.3-1.8-.8 0-.9-.2 0-.8 1-.7 1-6.2-.1-10-.8-2.4-2.6-3-2.6-.8 0 2.3-3.8.7-4.3-1.8-.4-2-.4-2-.6 0 0 1.2-1.1 3.2-2.4 4.5a7.5 7.5 0 0 0-1.9 4.7c.2 1.2-.2 2.2-.8 2.2-.7 0-.9-.8-.5-2 .7-2.4-.7-2.6-2.5-.5-.9 1-.9 1.5-.1 1.5.6 0 1.1.5 1.1 1.1 0 .6-.7.9-1.5.5-.8-.3-1.9.3-2.5 1.3-.7 1.4-.6 2 .5 2.5.8.3 1.5 1.8 1.5 3.3 0 2.6 0 2.6 1.5.7.9-1.2 1.4-1.4 1.5-.6 0 1 .4 1 1.5-.2a4 4 0 0 0 1-3.9c-.4-1.6.1-3 1.8-4.9 1.3-1.4 2.7-3.3 3-4.2.4-.9 1-1.6 1.7-1.6.5 0 0 1.6-1 3.5-2.4 4.2-2.5 5.2-.6 3.6 1.8-1.5 2.7 1.6 1.9 6.7-.6 3.4-.5 3.6 1 2.3 1-.7 1.7-1 1.7-.5 0 .4.7 0 1.5-1.2 1.4-1.8 1.4-1.8 1.5 0 0 1.6.3 1.5 2-.8 3.5-4.4 4-2 .8 3.9-2.8 5.3-2.9 5.5-.9 5.5 1.2 0 2.1.5 2.1 1 0 .6-.4.8-1 .5-.6-.3-1 0-1 1 0 .8.6 1.5 1.3 1.5.8 0 .7.4-.3 1-2.3 1.5-3.2 1.2-2.5-1 .7-2.4-1-2.7-1.9-.4-1 2.5-.7 3.4 1 3.4 1.3 0 1.4.3.5 1.4-1.5 1.8-2.2 5.6-1 5.6.4 0 .6.7.3 1.5-.4.8-.1 1.5.5 1.5s1.1-.8 1.1-1.8c0-2.4 3-6 3.7-4.5.3 1 1 1 2.5.2 1.6-.9 2-.8 1.6.3-.2.7-1.4 1.7-2.6 2.3-3.2 1.4-3.7 3.6-.7 3 2.6-.4 3.6 1.9 1.3 2.8-.7.3-.4.6.7.6 2.4.1 5.6-10 3.4-10.8-.6-.2 0-.8 1.3-1.5 1.2-.6 3.2-2.8 4.3-4.9 1.1-2 2.5-3.7 3.2-3.7.9 0 .8.8-.3 2.8-.7 1.5-1.4 3.3-1.4 4 0 .7-.7 1.5-1.5 1.9-1.7.6-4.5 5.3-4.5 7.4 0 .7.9.3 2-.9s2-2.6 2-3.2c0-.6.3-1 .8-.7 1 .7 3.2-2 2.4-2.9-.4-.4-.1-.4.6 0s1.2.2 1.3-.6c0-.7.4-.2.8 1.2 1 3 .2 4.8-1 2.9-.5-.8-1-1-1-.4-.3 3.4-1 6-2 6.3-.5.2-.6 1.4-.3 2.6.3 1.5 0 3-1.1 4-1 .9-1.4 2.4-1 3.2.3 1-.2 1.8-1.5 2.1-1.1.3-2 1.3-2 2.2 0 1.4.2 1.4 1.1.1.8-1.2 1-.9.5 1.3-1 4.6 1 3 3.1-2.5 1.5-3.7 2.5-5.2 3.7-5 .9.2 1.6-.1 1.6-.7 0-.5.3-1.7.6-2.5.4-1.2.2-1.5-.9-1-1.2.4-1.4-.2-1.2-2.8l.4-4c0-.5.5-.8 1-.8s.7 1 .4 2.1c-.7 2.4 1.7 4.5 3 2.6.5-1 .7-.9.7 0 0 .7.5 1.3 1 1.3.6 0 .8-.4.5-1-.7-1.1 1.2-5 2.4-5 1.4 0 .6 8-.8 9-1 .5-.9.9.4 1.4.9.3 1.4 1 1 1.5-.3.5 0 1.2.5 1.6.5.3 1 1.7 1 3 0 2.3.3 2.4 2 1.5 1.4-.7 2-.7 2 0 0 .5-.5 1-1 1-.6 0-.8.5-.4 1.1.4.8 1 .7 1.5-.2.7-1 .9-1.1.9-.1 0 .7 1.1 1.7 2.5 2.2 3 1.2 3.3 3 .3 2.2-1.8-.4-2-.2-1.6 1.6.4 1.2 0 2.6-.8 3.3a4 4 0 0 0-1.4 2.8c0 1.4-.2 1.4-1-.1-1.7-2.8-2.5-2.1-2.6 2.2-.1 2.2.3 4 .8 4s.7-.4.4-.8c-.2-.4 0-1.4.5-2.2.6-1.1.9-.7 1 1.5 0 2 .3 2.5.7 1.5 1-2.5 6.3-9 7.2-9 .5 0 .6 1 .3 2.3-.3 1.6-.2 1.8.5.8 1.2-1.6 1.7-.6 2.1 3.8.3 3.2.2 3.3-1.4 1.8-2.4-2.5-3.2-2-3 1.3a8 8 0 0 1-1.7 5.2c-1.9 2.2-1.9 2.2-1.2-2 .6-3.7.4-4.2-1-3.6-1.8.7-2.1 2-.7 2.6.5.2.4 2-.4 4-.7 2-.9 3.9-.5 4 1 .4-1.2 9.8-2.2 9.8-.5 0-.8-.7-.8-1.5s-.4-1.5-1-1.5c-1.3 0-1.3 5 0 7 1.1 1.6 3 0 3-2.8 0-.6.9-1.2 2-1.2 1.6 0 2 .7 2 3 0 1.6.5 3 1 3 .7 0 .9.8.6 1.8-.6 2 1 5 2 4 1.4-1.5.9-6.3-.9-7.6-1.8-1.4-2.3-4.7-.8-5.7.5-.3 1.5 1 2.2 3 .7 2 2 3.7 3 4 1 .3 2 1.7 2.3 3 .4 1.4 1 2.5 1.6 2.5.6 0 .8-1.1.4-2.6-.4-1.6-.2-2.9.5-3.4.8-.4 1-2.4.9-5.1l-.4-4.4-.8 3.3c-1 4-2.2 4.9-3 2.1-.2-1.2.2-2.7 1.2-3.7s2.2-2.8 2.9-4.2c1.1-2.4 1.2-2.4 1.2 1.4 0 3.3.4 3.8 2.1 3.3 2-.5 2.8.7 1 1.8-.6.3-1 1.4-1 2.3 0 1.5.2 1.5 1 .2s1-1.3 1 .2c0 .9-.5 1.8-1.1 2-.9.3-.9 1 0 2.5 1.7 3.3 1.5 6.9-.4 5.3-1.2-1-1.5-1-1.5 0 0 .7-.7 1-1.5.6-1.7-.6-2 1-.4 2 .6.3.9 2 .7 3.5-.3 1.6 0 2.9.4 2.9.5 0 .6.9.3 2-.4 1.4-.2 2 .9 2 .8 0 1.7 1 2 2.3.3 1.7.4 1.5.4-.8 0-4.8.2-5.1 1.7-3 2 2.5 2 0 0-3.5-1.9-3.3-1.9-7 0-7 .7 0 1.6.6 1.8 1.3.3.6.6 0 .6-1.3 0-1.4-.3-3.1-.8-4-.6-.9-.5-2 .5-3.4a8.2 8.2 0 0 0 1.4-3.9c0-1.6.2-1.7 1.5-.3.8.8 1.5 2 1.5 2.8 0 .7.5 2 1 2.8.7 1.1 1 .5 1-2.3 0-2.3-.4-3.6-1-3.2-1.5 1-1.2-1.6.5-5 .9-1.5 1.4-3.4 1-4.2-.2-.7 0-1.5.5-1.8.6-.4 1 .1 1 1 0 1.4.3 1.5 1.5.5 1.3-1 1.5-.8 1.5 1.3 0 1.4-.6 2.7-1.3 3-1 .3-.9 1 .2 3 1.7 3.2.7 4.8-1.4 2.1-1.4-1.8-1.4-1.7-1.5 1.3 0 4.5 2.6 5.3 4.4 1.3.3-.8.4.7.2 3.3-.2 3.3 0 4.7.8 4.4.6-.2 1.1-1.5 1.2-2.8 0-4.2 4.4-10.9 4.4-6.8 0 .6.7.3 1.6-.5 2-2.1 4.4-2 4.4.1 0 2.4 2.9 7.3 3 5.3.1-.8.6-.2 1 1.5.6 1.8.6 3.3 0 4-.7.6-1 .5-1-.2 0-.6-1-2.2-2-3.6-2.1-2.6-5-2.7-5-.1 0 .8.6 1.1 1.7.7 1-.4 1.4-.3 1 .5-.5.7-.3 1.2.2 1.2.6 0 1.4 1.2 1.7 2.6.4 1.7 1 2.2 1.4 1.4.4-.7 1.2-1 1.8-.6.6.4 1.5-.2 2.1-1.1 1-1.7 1-1.7 1 0 0 1 .6 1.5 1.1 1.2.6-.4.7-1.2.3-1.8-1-1.4-1-1.9-1.2-5.3 0-1.4-.5-2.3-1-2-1.7 1.1-2.3-1.4-.7-3 .8-.8 1.8-1.5 2-1.4 2.2.1 2.6-.4 2.6-3.8 0-2 .5-4.4 1.1-5.2.9-1.2 1-1 .6.8-.3 1.4.1 2.7 1.4 3.5 1 .8 1.6 1.7 1.2 2-.3.4 0 .7 1 .7.8 0 1.8-.8 2-1.8.4-1.3.5-1.1.6.5 0 1.3-.3 2.3-.8 2.3s-.7.9-.4 2c.3 1 1 1.7 1.6 1.3.6-.4.8 0 .4 1-.7 2 2.3 3.3 3.5 1.5.6-1 1.4-.6 3.1 1.5 2.8 3.2 3.4 3.3 4 1 .4-1 .4 0 .2 2-.2 2.2-.1 5.3.2 7l.6 3 1.3-3c.7-1.5 1.3-2.1 1.4-1.3.2 1.7 1.8-2.6 1.9-5.4 0-1.5-.2-1.6-1.4-.6-1.7 1.4-3.2-2.9-2-5.7.7-1.4 1-1 1.5 1.7l.7 3.5 1.2-3c.7-1.6 1.3-4.5 1.4-6.2.1-1.8.5-3.3 1-3.3.7 0 .9.7 1 5.5.2 1.8.7 2.9 1.4 2.8 1.3-.3 3 4.1 2.4 6.5-.1.8.3 2 1 2.8.6.8.8 1.4.4 1.4s-.3.6.3 1.3c1.5 1.8 1 15.9-.5 15.3-.6-.3-1.4.2-1.7 1-.3.9.1 1.4 1.4 1.4 1 0 2.1.4 2.5 1 .3.5 1.2.7 2 .4 1.4-.6 2.8 5.3 1.3 6.2-.4.3-.8-.4-.8-1.5 0-3.9-1.8-3-2.4 1.2-1.5 11.2-1.9 19-.8 18.3.6-.3 1.5.1 2 1 .9 1.5 1.3 1.2 2.8-2.1a15 15 0 0 0 1.5-5.4c-.2-.9.3-1.2 1.3-.8.9.4 1.6.2 1.6-.4 0-2 2.8-4 4.6-3.2 1.2.4 1.5.3 1-.5-.4-.7 0-1.9.7-2.7a4 4 0 0 0 1-3.5c-.9-3.3 2-2 3.2 1.5.7 2 .7 3.2 0 3.7-.5.4-.6 1-.2 1.5.5.4 1.3 0 1.8-.7.8-1.1 1-.6.5 2s-.4 3.2.5 2.3c.8-.8 1.8-.9 3-.2 1.5.8 1.9.6 1.9-.8 0-1.3.8-2 2.5-2 1.7-.2 2.3.1 1.9 1.2-.3.8-1.2 1.1-2.2.8-1.5-.6-1.5-.5-.3 1 1.4 1.8 3.7 2.4 2.6.8-.8-1.4 2.7-1.9 5.3-.8 3.3 1.5 2.7 2.4-1.3 1.9-2.7-.3-3.5 0-3.5 1.2 0 .9.5 1.6 1.1 1.6 2.1 0 7 4.2 6.5 5.6-.3.8 0 1.4.8 1.4s1.6.5 1.8 1.2c.3.7 2.5 1.2 5.4 1.3 2.7 0 5.7.4 6.6.9 1.3.6 1.8.4 1.8-.8 0-1.3.8-1.5 3.4-1.2 2.1.3 3.7 0 4-.7.2-.7.8-.2 1.1 1 .8 2.5 2 3 3 1.2.4-.6 1.4-.7 2.4-.4 2.7 1.2 6.1 1.4 6.1.4 0-.5.7-.9 1.5-.9s1.5.5 1.5 1 1.4 1 3 1c1.7 0 3 .5 3 1.2 0 .9.3 1 1.1 0 .9-.8.8-1.5-.4-2.7-1.1-1-1.6-3.2-1.6-6.4.1-3.6-.4-5.6-2.2-8-2.4-3.2-2-5.3.6-3.1 1.2 1 1.5 1 1.5-.1 0-1 .5-.8 1.5.5.8 1 1.8 1.7 2.1 1.3 1-.9 5.6 5.1 5 6.3-.4.5-.1 1 .6 1 1 0 1 .2.1.8a4 4 0 0 0-1.5 2.2 8 8 0 0 1-1.6 2.8c-1 1-1 1.8-.2 2.7.7.8.7 1.4.1 1.7-1.3.4-2.2 5.8-1 6l2.1.2c.7 0 2 1.2 3 2.6 1 1.4 1.8 2.1 1.8 1.7 0-.5.7-.2 1.5.7.8.8 1.5 2 1.5 2.5 0 .6.7 1.1 1.6 1.1.8 0 1.3.3 1 .8-.7 1.2 1.3 5.4 2.4 4.7.5-.3 1 .3 1 1.5s.4 1.9 1 1.6c.4-.4 2-.2 3.3.3 1.6.6 2.8.6 3.6-.2 1.4-1.4 5.1-2 5.1-.7 0 .6.5 1 1 1 .6 0 .8-.5.5-1-.3-.5-.3-1 .2-1 .4 0 1.8 2 3 4.3 2.4 4.4 3 9.7 1.2 9.7-.5 0-.8.4-.5.9 1 1.6-2.3 2-5 .6-3-1.5-4.9-1-2.4.5 1 .7 1.1 1 .2 1-1.2 0-1.1 2.7.2 6 .5 1.2 0 1.6-2.6 1.5-2.8 0-3.3-.4-3.5-2.5-.3-4.5-1.4-6.9-3-6.3-1.5.6-5.3-2.8-5.3-4.8 0-.6-.6-.9-1.4-.6-.8.3-2 0-2.6-.8-.7-.8-1.7-1.2-2.3-.8-.6.3-.7.1-.3-.5.4-.7.3-1.2-.3-1.2-.5 0-1.3.5-1.6 1-.4.7-1.4.9-2.2.6-1.4-.6-4.3 1.5-4.3 3.1 0 .5 2 1.4 4.3 2.1 2.6.8 4.6 2.1 5.2 3.4.6 1.3 2.8 2.8 5.5 3.6 4.2 1.4 6.2 3.1 6.6 5.8.7 4.2 1.7 5.4 4.5 5.4 2.2 0 2.9-.5 2.9-2 0-1.3.7-2 2-2 1.1 0 2 .5 2 1s.5 1 1.1 1c.6 0 .9-.6.6-1.4-.3-.8 0-1.7.6-2 .9-.3.9-.5 0-.5-.7 0-1.3-1.2-1.3-2.4 0-1.3-.9-3.2-2-4.2s-1.8-2-1.6-2.3c.7-.6 10.1 6.9 9.9 7.9-.2.5.5.9 1.5.9s2.7.9 3.7 2c2 2.1.7 2.8-1.3.8-1.3-1.3-8.2-2-8.2-.8 0 .4.9 1 2 1.3 2.2.6 2.6 2.8 1 5.7-1.1 2-.3 5.3 1.1 4.4.5-.3.9 0 .9.5 0 .6.7 1.1 1.5 1.1 1.3 0 2-1.8 1.6-4.2-.4-3 7.9-1.5 11.7 2.2 1.6 1.5 2.7 1.9 3.4 1.2.5-.5 1.8-.7 3-.5 3.1.9.6 6.2-3 6.3-.6 0-1.2.5-1.2 1.1 0 .7.8.9 2.3.4 1.2-.3 3.3-1 4.7-1.2 1.4-.3 2.8-1 3.2-1.6.3-.6 1.7-.1 3.4 1.2 4 3.2 4.4 1.5.4-2.2-5.4-5-11.1-8.2-15-8.2-3 0-3.5-.3-3.6-2.5 0-1.4-.6-2.4-1.2-2.3-.7.2-1.2-.3-1.2-1 0-1.4-5.4-6.7-6.9-6.7-1.2 0-8.1-4-8.1-4.7 0-.8 6.3-5.8 7.4-5.8a3 3 0 0 1 2 1c.4.6.6.3.2-.7-.3-1 0-1.7.6-1.5 1.4.2 2.8-7.9 1.6-9-.4-.5-1-2.4-1.2-4.3l-.5-4.3c0-.5-.6-.5-1.1-.2-.5.3-1-.2-1-1.2-.2-3.6-.9-5.5-2.3-6.6-.9-.7-1.4-2.3-1.3-3.7a8 8 0 0 0-1-4.4c-.7-1-1-2.5-.7-3.4.4-1 .2-1.3-.5-.9-.5.4-2-.4-3-1.8-1.1-1.4-2.4-2.5-3-2.5-1.8 0-2.1-3.9-.3-4.3 1-.3.6-.5-.9-.6-3-.2-4.3-1-5.8-3.6-.6-1.1-1.2-1.5-1.2-.8 0 1.6-4 .4-4-1.3 0-.8-.6-1.4-1.4-1.4-.8 0-2.2-.8-3.2-1.7-1.3-1.3-1.9-1.4-2.2-.5-.2.7-.9.9-1.5.5-.7-.4-2.1-.9-3.2-1-1.1-.2-2.1-.7-2.3-1.2-.2-.5-1.2-.7-2.2-.4-1.2.3-2 0-2-.6 0-.7.5-1 1-.6.5.3 1 .2 1-.4 0-.5-.5-1.3-1-1.6-2.3-1.4-1-3.5 1.6-2.5 3.5 1.4 3.4 1.4 3.4-2 0-2.1.5-3 1.7-3 1.4 0 1.4-.2-.2-2-1.8-2-1.7-2 .1-2 1.6 0 1.7-.2.4-1-1-.7-1.1-1-.2-1 1 0 1-.5.2-2-.9-1.7-.8-2 .7-2 1.2 0 1.4-.3.6-.8-.8-.5-.8-1.2.3-2.7 1-1.5 1.7-1.6 2.6-.7 2.3 2.3 3.2 1.2 1-1.1-2.7-2.9-2.7-3.2-.1-3.4 2.4-.2 5.2-3.5 3.8-4.4-.6-.3-.3-1.1.6-1.9.8-.7 1.5-2.1 1.5-3.2 0-1.2.4-1.6 1.2-1.2.7.4.8.3.4-.5-.4-.6 0-1.4.8-1.7.9-.3 1.6-1.5 1.6-2.5s.5-1.9 1-1.9 1-.8 1-1.8c.1-1 .4-1.2.6-.5.9 2 4.2-.7 3.6-2.9-.2-1 .4-2.6 1.4-3.6 2-1.8 3-7.7 1.2-6.6-.7.4-.8.2-.4-.4.4-.7.2-1.2-.4-1.2-2.3 0 1.9-3 4.4-3.2 2-.2 2.5-.7 2-2-.3-1 0-1.8.5-1.8.6 0 .8-.6.5-1.4-.3-.8-.1-1.7.4-2 .6-.3.8-1.6.5-2.9-.4-1.8-.3-2 .6-.7 1 1.3 1 1.3 1-.2.1-1.1.6-1.5 1.6-1.2.8.4 1.5 1.2 1.5 2s.9 1.4 2 1.4 2-.4 2-1c0-.5-.8-.7-1.8-.3-1 .3-1.4.2-1-.2.5-.5.1-1.9-.7-3.1-.8-1.3-1.2-3-.8-4 .5-1.3.3-1.5-.7-.9s-1.2.4-.8-.7c.4-.8-.2-2.3-1.4-3.2-1-1-1.7-2-1.3-2.4.3-.4 1 0 1.4.7 1.2 1.8 5.8 2.2 6.5.6.2-.7-.4-3-1.5-5.1-2-4-2.6-7-.9-4.4.8 1.3 1 1.2 1-.3 0-1-.5-1.7-1-1.7-.6 0-.8-.5-.5-1 .3-.5.2-1-.3-1-.8 0-1-2.6-.3-7.5 0-.5.6-.3 1.1.5.8 1.2 1 .9 1-1.3s.7-3.1 3.3-4.2c1.7-.8 2.6-1.4 1.8-1.5-.8 0-1.1-.3-.8-.7.4-.3.2-1.2-.4-2-1.4-1.6.3-1.7 1.9-.1 1 1 1.2 1 1.2 0 0-.8-1-2.2-2.3-3.3-1.3-1-1.7-1.8-.9-1.9.7 0 0-1-1.4-2.3-1.8-1.6-2.4-2.6-1.6-3.1.7-.4 1.2-.2 1.2.3 0 .6.8 1 1.8 1 1.3 0 1.4-.1.4-.8-1-.6-.9-1 .7-1.4 1.5-.4 2-1.2 1.8-3.3-.2-2.6.1-2.9 2.8-2.9 2.3 0 3-.4 3-2 0-1.4.6-1.9 1.9-1.7 1.5.3 1.8-.1 1.3-1.7-.5-2 .5-2.6 4-2.2 1.5.2 2.4-3.7 1-4.3-.8-.3-.7-.8.3-1.5 1.5-1 2-2.8 2.3-8.4.2-3.3 1.4-3.6 2-.5.4 2 .4 1.8.6-.5 0-1.6.5-2.6 1.1-2.2.5.3 1-.3 1-1.4 0-2.7.8-2.6 3.7 0 2.8 2.7 4 1.9 2-1.2-1.4-2-1.5-2.4-.1-3.3.8-.6 1.6-2.1 1.7-3.4.1-2 2.7-3.3 2.7-1.4 0 .4 1.6.6 3.5.4 3.4-.4 4.5-1.5 2.5-2.7-.6-.4-.5-1.3.2-2.5.7-1 1.6-1.6 2-1.4.4.3.8-.2.8-1 0-.9-1.1-1.8-2.5-2.2-1.4-.3-2.2-1-2-1.5.4-.5 1.7-.6 3-.3 1.2.3 2.6 0 3-.5.4-.8 1.3-.7 2.7.3 1.9 1.4 2.4 1.3 4.8-.4 1.7-1.2 3.1-1.6 4-1 1.8 1.1 3 .3 3-2 0-1.1.5-2 1-2 .7 0 1.8-.7 2.6-1.5.9-.8 1.1-1.5.6-1.5-.6 0-.8-.9-.5-2 .3-1.1 1.4-2 2.4-2s1.9-.5 1.9-1c0-.6 1-.8 2.5-.4 2.5.6 3-.1 2.6-3.5-.1-.7.2-1 .8-.7.5.4 1.2-.3 1.6-1.4.3-1 1-2 1.6-2 .6 0 .7-.5.4-1-.3-.5 0-1 .8-1 2 0 4.8-3.5 4.2-5.2-.9-2.3 2.2-3 5.5-1.3 3.6 1.9 4 1.9 3.4 0-.5-1.1.1-1.5 2.2-1.6 2.7-.1 2.7-.2-1-1.3-3.5-1.1-5.5-3-5.6-5 0-.5.7-.3 1.6.5 1.3 1 1.7 1 2.4 0 .5-1 1-1 1.4-.2.4.6 1.2 1.1 1.7 1.1.6 0 .7-.5.4-1-.4-.6-.3-1 .2-1 2.2.5 2.2-.2-.1-2.7-3-3.1-2.8-4 .3-2.1 1.6 1 2.3 1 2.9.1.5-.8 1.2-.7 2.7.4 1.6 1.3 1.7 1.5.3 1-1-.4-1.8-.2-1.8.4 0 .7 1 .9 2.4.5 1.4-.3 3 0 3.8.6a6 6 0 0 0 2.8 1.5c.8 0 3.6.8 6.3 1.6 6.8 2.2 5.8.4-1.3-2.2-3.3-1.2-6-2.6-6-3.1s-.8-.7-1.8-.4c-1.4.5-1.5.4-.2-.5 1.2-1 .9-1-1.5-.5l-3 .7 2.3-2c1.3-1.2 1.8-2.3 1.2-2.5-.9-.3-.8-1.1 0-3 1.2-2.6 1.5-2.7 3-1.3 2 1.8 6.8 1 7.7-1.1.3-.8 1.6-1.4 3-1.4 1.2 0 2.3-.5 2.3-1.1 0-.6.7-.9 1.5-.5.8.3 1.5.1 1.5-.4 0-.6-.5-1-1-1s-1-.7-1-1.5.6-1.5 1.3-1.5c.9 0 .9-.2 0-.8-.6-.4-1.3-2-1.5-3.6-.4-4.2-2.4-4.3-3.2-.2-.6 3-1 3.4-3.3 3-1.5-.3-3 0-3.4.8-.6 1-.9.6-.9-1 0-1.2.5-2.2 1-2.2s1-.4 1-1c0-1.7-2.7 0-3.8 2.5a6.2 6.2 0 0 1-3.7 3c-1.3.4-2.3 1-2 1.4.2.4 0 1.3-.6 2.1-.7 1.3-.9 1.2-.9-.3 0-1-.5-1.7-1-1.7-.6 0-.8.4-.5 1 1 1.5-1.5 5.2-3 4.6-.9-.3-1.5 0-1.5.5 0 .6-.5.7-1 .4-1.1-.7-8.2 6.3-7.5 7.4.2.4-1.7 1.3-4.2 2-3.4.9-4.4 1.5-3.9 2.7.7 2-2 5-2.7 3.1-.4-.9-.6-.9-.6 0 0 .6.4 1.5.9 1.8.5.3 1 1 1 1.6 0 .6-.5.7-1 .4-.6-.3-1.4.4-1.9 1.7-.4 1.3-1.2 2.3-1.7 2.3s-.8.3-.7.7c.1.3-.5 1.2-1.4 2-1.5 1.1-1.6 1-1-.5.4-1.1.1-2-.8-2.3-.8-.4-1.3-1-1-1.4.3-.4-.4-1-1.5-1.3-1.1-.3-2 0-2 .6s-.3.8-.6.4c-1.7-1.6-3.2 1.8-1.8 4 1.3 2 1.3 2.3-.2 2.3-1.6 0-1.5.2.1 2 2.3 2.6.8 4.4-2.8 3.5-1.8-.5-2.8-1.6-3.2-3.5-.3-1.6-1.3-3-2-3.4-2.2-.8-1.5 4.6.7 6.2 2.5 1.8 2.2 3.7-.8 5-1.4.7-2.2 1.7-1.9 2.2.3.6.1 1-.4 1-1.2 0-2.6-4.8-1.7-5.7.3-.4.6.1.6 1 0 1 .4 1.6 1 1.3.4-.4.4-2-.3-4.1-1-3.5-2.7-4.8-2.7-2 0 .9-.6 1.2-1.5.9-1-.4-1.5 0-1.5 1 0 .9-.4 1.6-1 1.6-.5 0-.7-.8-.4-1.8.5-1.3.4-1.4-.4-.3-.8 1.1-1 1.1-1.5 0-.3-.8-.6 0-.6 1.8 0 2.7-.6 3.2-3.1 3.8-1.6.4-3 1-3 1.6 0 .5-1 .9-2 .9-1.2 0-1.8.5-1.5 1 .4.6-.7.8-3 .6-1.9-.3-3.7 0-4 .4-.4.6 0 1 .6 1 .8 0 .5.8-.6 2-1.4 1.6-2.6 1.9-5.6 1.4-2.8-.5-3.9-.3-3.9.6 0 .7-.7 1-1.6.6-1-.4-2.2.1-3.1 1.4-.8 1.1-1.9 1.8-2.4 1.5-.5-.4-.9-.2-.9.3s-1.2 1.4-2.7 2.1c-1.5.7-2.3 1.5-1.7 2 1.2.8 1.6 3.1.5 3.1-.5 0-1.6-1.1-2.5-2.5-1-1.4-2.1-2.3-2.6-2-.6.4-1-.1-1-1s-.5-1.3-1-1c-1.5 1-1.2 4.8.3 4.2 1.2-.4 7.7 5.7 7.7 7.3 0 .5-.5 1.2-1 1.5-.6.4-.8 1-.5 1.6.4.5 0 .9-.5.9-.8 0-1-1-.5-2.7.5-2.3.4-2.5-.9-1.4-.8.7-1.5 1.6-1.5 2 .3 2.1-.3 3.1-2.1 3.1-1.1 0-2-.5-2-1s-.5-1-1-1-1 1.2-1 2.6c0 1.4-.4 2.3-1 1.9-.5-.3-1-.1-1 .4 0 .6-.5 1.1-1 1.1-.6 0-1-.3-.7-.8.3-.4-2.9-.7-7-.7-5.7 0-7.7-.4-8.6-1.6-.7-1-2.2-1.4-3.6-1.2-2.9.4-6-2.2-6.1-5.1 0-1.9-.2-2-1.3-.5-1 1.4-1.4 1.4-2.5.2-1-1-1.8-1-2.6-.4-1.6 1.3-3.8-.2-3-2 .3-1-.1-1.6-1.1-1.6-.9 0-1.4.6-1.1 1.3.7 1.9-.5 2.5-2 1-1.8-1.9-1.8-2.4.3-2.8 1.5-.3 1.5-.4 0-2-1-.9-1.7-2.2-1.7-2.8 0-.6-.8-1-1.8-.8-1 .2-1.6-.2-1.4-1 .1-.8-.2-1-1-.6-.6.4-.8.3-.5-.3.7-1.2-2-2.6-3.3-1.8-.4.3-1.3-.2-2-1s-1.7-1.5-2.2-1.5c-.5 0-1.8-1-2.9-2.3-1-1.2-1.8-1.6-1.9-1 0 2-1.8 1.5-2.5-.8-.4-1.1-1-1.8-1.2-1.5-1 1-3.2-1.5-2.6-3 .5-1.4-.3-1.7-4-1.7-1 0-1.6-.5-1.4-1 .2-.7 1.2-1 2.2-.9 1.7.3 1.7.2.3-2a7.8 7.8 0 0 0-2.9-2.7c-1.2-.4-1.2-.2 0 1.3.8.9 1 2 .7 2.4-.4.4-1.2-.1-1.7-1-.6-1-1.4-1.6-1.8-1.3-.5.2-1.4-.2-2-1-1-1-.8-1.5.8-2 1.3-.4 1.8-1.2 1.4-2.1-.5-1.3-.8-1.3-1.5-.2-.7 1-.8.9-.4-.5.3-1 .1-1.7-.4-1.7-.6 0-.9-.6-.8-1.3.2-.6-.3-1-1-1-1 .3-1.2-.2-.8-1.2.7-2-6-11-7-9.4-.3.6-.1 1.6.5 2.2 1.8 1.8 1.5 5.1-.3 3.5-.8-.7-1.4-1.5-1.3-1.8.1-1.2-1.6-4-2.5-4-1.7 0-4.9-4.2-4.6-6 .2-.8 1-1.5 1.8-1.5s1.5-.8 1.5-1.7c0-2 1.4-2 3.2-.2 1.4 1.4.7 2.4-1.9 2.4-1 0-1.8.4-1.8 1 0 1 4 .2 5.8-1.3.8-.7 1.2-.4 1.2.8 0 1 .3 1.5.7 1.2.3-.4 1.2.1 2 1 1.1 1.6 1.2 1.6 1.3-.7 0-2.5 0-2.5 1.7.5 1.2 2.2 1.3 3 .3 3.3-.8.3-.2 1.3 1.6 2.7a9 9 0 0 1 3 4.6 99.7 99.7 0 0 0 1.3 7.4c0 .5.6.3 1.1-.5.8-1.3 1-1.2 1 .3 0 1 .7 1.7 1.5 1.7s1.5.5 1.5 1c0 .6.5.8 1 .5.5-.3 1 0 1 1 0 .9.9 1.5 2.1 1.5 1.6 0 1.9-.3 1.2-1.3-1.5-1.8-2.2-5.6-1.3-6.2.5-.3 1.1.4 1.5 1.5.3 1 1 2 1.5 2s.7-.7.3-1.6c-.5-1.3-.2-1.5 1.5-1 1.2.4 2.2.4 2.2-.1s.9-.9 2-.9c2.3 0 2.3 0 .9 2.8-.9 1.6-.7 2.4.5 3.6 1.5 1.5 1.6 1.5 1.6-.3 0-1.6.2-1.7 1-.5s1 1.2 1.5-.3c.6-1.5.8-1.5 2.3 0 2.1 2 4-1 2-3.3-1-1.3-.9-1.7.3-2.5 1-.6 1.8-.4 2.6.7 1.7 2.3 3.3.8 3.3-3v-3.1l-1.5 2.5c-1 2-1.4 2-1.5.8 0-1.3-.8-1.8-2.6-1.8-1.4 0-2.3.4-1.9 1 .3.5.2 1-.3 1s-1.4-1-2-2.3c-1-2-1-2-1.2-.2 0 1.8-.2 1.8-1.4-.4-1.7-3-4.3-3.5-5.1-1-1 3.2-2.4 1.1-2-2.9l.5-3.7-2 2.4-2 2.3V525c0-2.9 1-4.3 3.3-5.2 2.4-.9 2.3-5.7-.2-5.7-1.4 0-1.7-.6-1.3-2.5.5-2.8 1.7-3.3 2.6-1 .3 1 1 1.4 1.5 1 .5-.2 1.1.2 1.4 1 .3.7 0 1.6-.6 1.8-.8.3-.3 1.4 1.4 2.9a20 20 0 0 1 4 5.2c1 2.1 1.5 2.5 1.7 1.3.5-2.7 2.2-2 2.2.9 0 1.4.4 2.3 1 2 .4-.4 1 0 1.3.6.2.8 1 .1 1.7-1.5 1.6-3.3 3-3.5 3-.4 0 1.2.9 3 2 4 2.2 1.8 2.6 3.7 1 3.7-.6 0-.8.5-.4 1.2s.3.8-.4.4-1.2 0-1.2 1c0 .9-1.4 2.9-3 4.4-3.8 3.6-4 6.2-.4 5.6 1.6-.3 2.7 0 3 1 .8 1.8 2.4 0 2.4-2.6 0-1.3-.1-1.3-1 0-.8 1.3-1 1.3-1-.2 0-1.2-.6-1.5-2.2-1-2 .5-2 .4-.8-1 .8-.9 2-1.4 2.6-1.1.6.2 1.6-1 2.1-2.9 1-3 1.1-3 1.3-.8.1 2.3.2 2.4 1 .5.8-1.5 1-1.1.6 1.7-.5 4.4.5 5.5 2.4 2.8 1.8-2.6 4.5-.7 3 2-.6 1-.6 2.1-.2 2.4 1.4.8 2.8-.8 2.8-3.4 0-1.4.3-3.9.7-5.5.7-2.8.6-2.9-.8-1-2.2 2.7-2.6 1.5-.7-2.5a27 27 0 0 0 1.8-5.9c.4-3 1.3-3.9 2.4-2.1.8 1.2 1 1.2 1.6-.3.3-1 1-1.5 1.4-1.2 1.4.9-.2 4.6-2.6 6.2-2.4 1.5-3.3 4.3-1.4 4.3.6 0 1 .6 1 1.3-.5 3.6.1 6.4 1.5 6.4.8 0 1.5-.5 1.5-1 0-1.7 1.7.5 2.2 2.8.4 1.8.6 1.7 1.8-.8 1.3-2.7 1.5-2.7 2.7-1.1 1.2 1.7 1.3 1.7 1.3 0 0-1 .4-1.5.9-1.2.5.3 1.2-.4 1.6-1.7l.7-2.2.6 2.3c.4 1.3 1.2 2.3 1.7 2.4a8 8 0 0 1 2.6.9c2 1 3.2-4.1 1.8-7.7-1-2.7-.4-3.3 2.3-2.6 1.9.5 2 1 1.5 6.7-.4 4.5-.2 6.8.7 8.1 1.3 1.7 1.4 1.5 1.4-1.8 0-2 .3-4.1.6-4.7.4-.5.2-1.2-.4-1.6-1.3-.8-1.3-5.2 0-6 .6-.3.6-1.5 0-3-.8-2-.6-2.3 2-2.1 2.2 0 2.9.5 2.5 1.5-.3.7 0 2 .6 2.7.9 1 .9 1.4 0 1.4-.7 0-.9.5-.4 1.3.8 1.2 1 1.7 1.2 3.8 0 .6.7.9 1.3.7.7-.3 2 .5 2.9 1.6 1.6 2 1.6 2 1.6-.6 0-1.5-.6-3-1.4-3.2-.8-.4-1.3-1.2-1-2 .3-.7 0-2.4-.7-3.8-1.7-3.3-2.8-9-1.6-8.3.6.3 1 0 1-.6 0-.8.4-.8 1.5.1 1.6 1.3 2.1 3.5.6 2.6-.5-.3-1.2.1-1.5 1-.3.8 0 1.7.9 2 .8.3 1.7 1.4 2 2.5.6 2 3.2.7 3.2-1.6 0-5.2 1.3-6 3.2-1.8 1.2 2.5 1.4 2.6 2.3 1 .5-1 .8-2.7.5-3.8-.3-1.2 0-1.9.9-1.9.8 0 1.4-.8 1.4-1.8 0-1.6.2-1.6 1.3 0 1.4 1.8 4.5.8 3.3-1-.4-.7 0-1.2.8-1.2s2-.7 2.4-1.6c.8-1.4 1-1.2 1.6 1 .5 2.1 1 2.6 2.6 2 1.4-.3 2 0 2 1 0 1.2 3 1.5 7 .7.3 0 .6-1 .7-2.1.1-1.3-.2-1.8-1-1.4-.7.5-.8.1-.4-1 .4-1 .7-2.7.7-4 0-2 .3-1.8 3 1.1 1.9 2 2.7 4 2.4 5-.5 1.5-.3 1.5 1-.2 1-1.1 2.2-1.9 2.8-1.7.6.2.9-.8.6-2.3-.4-2-.1-2.5 1.3-2.5 1 0 1.8.3 1.8.8-.4 2.4.3 4.2 1.6 4.2 1.7 0 2 1.6.5 2.5-.6.4-.8 1-.5 1.6.4.5.1.9-.4.9a1 1 0 0 1-1.1-1c0-.7-.7-1.8-1.5-2.6-1.3-1.4-1.5-1.3-1.5.4 0 3.1 3.5 5.6 6.7 4.7 1.5-.5 3.3-.7 4-.6 1.2.2 1.5-4.7.2-7-.5-1-1.7-1.5-3.2-1.2-1.4.3-2.8 0-3.2-.8-.6-.9-.3-1 .8-.6 2.2.8 2.2-.1 0-2.6-1.7-1.9-1.7-2 .6-1.2 2 .6 2.3.5 1.8-1.4-.3-1.1 0-2.4.5-2.7.5-.3.7-1.2.4-2-.7-1.7.6-1.8 2.2-.2.7.7 1.2.8 1.2.2 0-.6-.3-1.4-.7-1.8-1.4-1.4-1-3.4.8-4 2-.4 4.5 2.6 3.4 4.4-.3.5 0 1.1.5 1.5.6.4.8 1 .5 1.6-.4.5-.1.9.4.9 2 0 2.6-.5 2.3-1.7a2 2 0 0 1 .7-1.8c.6-.3.8-1.3.5-2.3-.4-1.1.2-.8 1.6.8l2.2 2.5-.6-2.7c-.5-2.3-.3-2.6 1-2.1s1.6.2 1.1-1c-.3-1-.2-1.7.3-1.7.6 0 1-.7 1-1.5s-.4-1.5-.8-1.5c-.5 0-1.7-.7-2.8-1.6-1.4-1.2-1.5-1.4-.3-1 1 .2 3-.4 4.9-1.5l3.2-2 1.9 2.2c2.5 3 8.7 6.1 9.4 4.9.4-.6 1-.8 1.4-.6.4.3 1.3 0 2.1-.5 1.1-.6 1.1-.9.2-.9-1 0-1-.3 0-1.4 1.4-1.5 3.2-1.1 2.3.5-.4.5-.1.9.4.9.6 0 1.1 1 1.2 2.3 0 1.2.3 1.6.6 1 .2-.7.9-1 1.4-.7.5.3.9 0 .9-.5 0-.6.7-.8 1.6-.4 1.4.5 1.5.3.5-1.5-.7-1.2-1.8-2.2-2.6-2.2-.7 0-1.7-.5-2.1-1.2-.5-.8 0-1 1.4-.6 2.5.7 2.8-.1 1-2.1-1-1-1-1.5-.2-1.8.7-.2 1-1.3.7-2.3-.3-1.2 0-2 .6-2 .7 0 1 .4.6 1-.3.4 0 1.1.5 1.5.6.4.8 1 .5 1.6-.4.5 0 1 .7 1 1 0 1 .1 0 .8-1.1.7-.9 1.2 1 2.5 1.4 1 2.4 1.2 2.6.6.3-.7.9-.7 1.8.1 1.8 1.5 3.2.3 1.6-1.3-4.3-4.3 1.3-2.5 6.2 2 2 1.8 3.6 2.8 3.6 2.2 0-.7.8-.9 2-.5 2.1.7 2.1.6.5-1.8-1.9-3-5-4.6-4.1-2.2.3.8.1 1.5-.4 1.5-1.1 0-3.5-4.1-3.2-5.4.4-1.4-2-2.6-4-2-.9.2-2 0-2.4-.7-.5-.8.4-1 2.9-.7 2 .2 3.3 0 3-.4-.2-.4 1-.8 2.6-.8s3.2-.6 3.4-1.3c.4-.7.8-.3 1.2 1 .4 1.3 1.1 2.3 1.6 2.3s1.5 1.1 2 2.5c1.2 2.6 3.9 3.5 3.9 1.3 0-1 .3-1 1.2 0a5 5 0 0 0 3.1 1.2c1.7 0 1.7.2.6 1.6-1 1.3-1 1.5 1.2 1.1 1.3-.2 1.9-.2 1.2 0s-1 1.2-.6 2c.5 1.2.2 1.5-1 1-1-.3-1.7-.2-1.7.3 0 .6-.4.9-.9.8-1.2-.4-7.1 4-7.1 5.3 0 .7.7.8 1.8.3 7.7-3.4 11 .7 4.2 5.4-4.4 3-5.8 7.2-1.8 5.1 1.3-.6 2.9-1.6 3.6-2.2 1.5-1.2 4.2-1.8 8.1-1.8 3.3-.1 5.1-2.2 5.1-5.9 0-3.2 2.6-5.3 4-3 .5.9.9.8 1.3-.4.4-1 1.7-2 3-2.5 1.4-.6 3-2.3 3.8-4 .8-1.7 1.8-3.1 2.3-3.1.4 0 0-1.1-.8-2.5-1-1.4-1.2-2.5-.6-2.5 1.9 0 1-1.8-1.2-2.3-1.7-.5-2-.9-1-2 1-1.2 1-1.7-.1-2.4-3.2-1.8-9.7-10.8-9.1-12.5.3-1 .1-1.8-.4-1.8-1.4 0-13.4-8.1-12.8-8.7.6-.6-3.1-4.3-4.4-4.3-.5 0-1.4-.9-2-2-1.1-2.1-6.2-4-10.5-3.7-3 .2-3 .1-2.7-4.1.1-2.7-.2-4-.8-3.7-.5.3-1 1.2-1 2 0 1.8-3.2 2.8-4.2 1.3-1.1-1.8-1-2.5.7-4.2 2.2-2.2 1.8-3.1-1.3-3-4.4 0-7.2 1.3-6.5 3 .4 1.1.8 1.2 2 .3 1.8-1.6 2.7-.5 1.4 1.8-.6 1-1 1.3-1 .8-.1-1.3-6.9-.7-7.7.7-.3.5 0 1.6.7 2.4 1.5 1.8-.3 6.4-2.6 6.4-.8 0-1.5.4-1.5.8s-1.6.9-3.6 1c-2 .2-4.6.8-5.7 1.3-3 1.6-8.8 1.7-8.2.2.6-1.6-.7-1.7-2.3-.1-1 1-1.2.9-1.3-.3 0-.9-.3-.7-.8.5-.8 2.2-4.2 3-5.2 1.4-.4-.6-1.4-.3-2.8 1-1.6 1.7-2.1 1.9-2.1.7 0-.9-.6-1.5-1.3-1.4-4.3.5-6 0-4.6-1.8 1.2-1.5 1.2-1.6-.4-1-1.1.4-1.7.1-1.7-1a9 9 0 0 0-2-4c-1-1.3-2.2-4.4-2.6-6.8-.3-2.4-1.2-4.6-2-4.9-.8-.3-1.4-1-1.4-1.5 0-.6.6-.8 1.3-.5 1.3.5 1.9-3.4.7-4.6-1.8-1.8-5-7.2-5.6-9.4-.3-1.4-1-2.3-1.5-2-.5.3-1.2-.2-1.6-1.1-.3-1 0-2 .6-2.4 2-1.3-1.4-3.3-4.3-2.5-1.8.4-2.6.2-2.6-.7 0-.7.3-1 .6-.6.3.3 2-.8 3.6-2.4 1.7-1.6 3.6-3 4.2-3 4-.4 6.2 1.7 4.3 4-.9 1-.9 1.5 0 1.8.6.2.9 1.4.7 2.6-.2 1.2-.2 1.6.2 1 1-2.1 2.5-.4 1.8 2.1-.4 1.6 0 2.5 1 3 .9.3 1.6.2 1.6-.3s1.5-1.9 3.4-3.2c2-1.4 3-2.6 2.4-3-1.2-.8-.2-2.9 1.4-2.9.5 0 .8.7.5 1.4-.4 1 0 1.3 1.1 1 1.3-.5 1.4-.4.3.4-.9.7-1 1.2-.2 1.6.6.4 1.1.2 1.1-.4 0-.6.8-.3 1.9.7 2.3 2.2 1.8 8.5-.6 7.6-1.3-.5-3.2 1.1-3.3 2.8 0 1.5 5.2-.6 6.2-2.5a7 7 0 0 0 1-2.4c-.7-1 0-5.2.7-4.7.5.3 1.3-.5 1.7-1.7.3-1.3 1.5-3.1 2.6-4.2 1.9-1.8 2-1.8 2.5.3.4 1.7.8 1.9 2 1 1-.9 1.3-.8 1.3.1 0 1 .3 1 1.3.1 1.9-1.5 3-.1 1.4 1.7-1 1.4-1 1.5.8.8a12 12 0 0 1 7.5-.5c.9.2 1.4-.2 1.2-1-.1-.7.2-1 .7-.7.5.3 1.1-.3 1.4-1.4.3-1.1.1-2-.4-2s-1.2-1.2-1.5-2.6c-.5-2-.9-2.2-1.5-1.2-.5.7-.9.8-.9.3 0-.6-1.1-1.2-2.5-1.3-2.5-.2-3.5 1.3-1.3 2 1 .3 1 .6 0 1.2-.7.4-1.2.2-1.2-.4 0-.6-.5-.8-1.2-.4-3.2 2-5.5 1-3.9-1.5.7-1 .4-1.9-.7-2.8-1.5-1.1-1.5-1.2.5-1.3 1.3 0 2.3-.4 2.3-.8 0-.5 1.5-.8 3.3-.7 1.7.2 4.6-.3 6.4-1 3.3-1.4 10.5-.5 11.1 1.4.2.5 1 .7 1.8.4 1-.3 1.2 0 .9.9-.4 1 .6 1.4 4 1.5 3.8.2 4.4 0 4.7-2 .4-3 5.1-2.4 8.6 1 1.1 1 1 1.4-.3 2-1 .3-2 0-2.4-.6-.5-.8-1.2-.7-2.6.3-1.9 1.3-1.8 1.5 1.2 4.4 2 1.7 3.4 2.5 3.7 1.8.2-.6.5 0 .5 1.4.1 1.8.4 2.1 1 1.1.5-.7 1.1-1 1.4-.4 1 1.5-1 3.6-2.7 3-1-.4-2 .1-2.6 1.3-1.2 2.3.7 2.9 2.8.8.7-.7 1.2-.8 1.2-.3 0 .6.5.3 1.1-.5 1-1.3 1-1.3.5.2-.6 2.2 5.7 3 9.4 1.1l4.3-1.7c1.3-.4 1.6-1.2 1.1-3-.7-3 1-4.1 3-2 .9.8 1.6 1.2 1.6.8 0-.4.7 0 1.5 1.2 1 1.3 1.4 1.4 1.5.5 0-1 .3-1 1.4-.2 1 .9 1.5.8 2-.4.3-.8 1-1.5 1.7-1.5s1 .3.6.7c-.8.8 2.2 4.3 3.6 4.3.6 0 .3-.8-.6-1.8-1-1-1.7-2.8-1.7-4 0-3.5-1-5-3-4.5-1.1.3-2 0-2-.6s.5-1.1 1-1.1c.7 0 .7-.6 0-2-.5-1-1-2.8-1-4 0-1-.5-2-1-2s-1-.5-1-1.2c0-1.2-7.5-13.3-9.7-15.5-.6-.7-1.7-3-2.4-5-1.6-5.1-7-15.4-9.1-17.5a22 22 0 0 1-3.3-5.4c-.8-2-1.8-3.4-2.1-3-1.6 1.4-10.5-8.2-11-11.7 0-1.2-.2-2.7-.3-3.4 0-.7-.7-1-1.5-.7-.9.3-1.7-.3-2-1.5-.4-1.2-1.2-1.8-1.8-1.5-.7.4-.8.2-.4-.4.4-.8.2-1-.7-.6-.8.3-2.4-.5-3.6-1.7-1.2-1.3-2.1-2-2.1-1.6 0 .4-.8 0-1.8-1s-1.7-2.1-1.5-2.5c.2-.3-1-1.2-2.7-2-1.6-.7-3-1.9-3-2.5 0-.7-.3-1.2-.8-1.2-2 .3-3-.3-3.5-2.2-.3-1.2-1-1.8-1.6-1.5-1 .7-6.1-1.3-6.1-2.4 0-.8-4-2.3-5.4-2-.4 0-1.4-.5-2.2-1.1-.8-.7-1.7-1-2-.6-.3.3-2-1-4-3-1.9-1.8-3.9-3.1-4.4-2.8-.5.3-1.4-.4-2-1.5-.6-1-1.4-2-1.8-1.8a8 8 0 0 1-2.7-.7l-5.4-2.1c-1.8-.8-3.7-1.2-4.1-.9-.5.3-1.1 0-1.5-.5-.3-.5-2.6-.7-5-.4-3.5.4-4.6.1-5.4-1.3-.6-1-1-1.4-1-.8-.1 1.9-4.1-5.5-4.1-7.5 0-1.1-.5-2-1-2s-1-.6-1-1.3c0-.8-1.1-2-2.5-2.7-1.4-.7-2.5-1.7-2.5-2.2 0-.4-1.2-.8-2.8-.9-1.5 0-3.6-.4-4.7-.8-1.2-.5-3-.3-4.6.5-2.6 1.3-5.9-.4-5.9-3 0-1.4-3.4-4.4-4.6-4-.7.3-2.2 0-3.4-.6-3.4-1.8-9.6-.3-13.5 3.4-2 2-3.8 3-4.3 2.4-.6-.6-2 0-3.5 1.6-1.4 1.3-2.2 2.7-2 3 .4.4-.7.3-2.4 0-3.3-.7-5.3 1-3.4 2.9 1.3 1.3 1.5 3 .2 2.3-1.7-1.1-3.7 2.5-2 3.8 2 1.6 1.8 7-.4 7.4-1 .2-1.7.7-1.7 1.2 0 .4-1.8 1.1-4 1.5-2.2.4-4 1-4 1.6 0 .5-.7.9-1.6.9-.8 0-1.3.4-1 .9.3.5-.6 1.2-2.1 1.6-1.7.4-2.3.9-1.5 1.4 1 .5.8 1.2-.3 2.7-1 1.4-1.4 1.5-1.5.4 0-1-.2-1.2-.8-.3-.9 1.4-11.5 2.4-13.3 1.2-1-.5-.5-1.1 1.6-1.9l3-1.1-3.3-1.6c-2.2-1-3.1-2-2.7-3.1.3-.9 0-2-.7-2.4-1.5-1 1-3 2.4-2.2.4.3.8-.1.8-.9 0-.7 1.1-2.4 2.5-3.7 1.4-1.3 2.5-3 2.5-3.7 0-.7.6-1.3 1.4-1.3 2.3 0 3-2 1.2-3.8-1.1-1.1-1.6-1.2-1.6-.4 0 .7-.5 1-1 .7-.6-.4-1.7-.2-2.5.5-.9.7-1.5.8-2 0-.3-.5-.3-1 .2-1s1.4-1 2.1-2c1.2-2 1.1-2.1-.5-1.6-1 .3-2.4.2-3.1-.3-1-.6-.6-1 1.5-1.6l2.8-.9-3.3-.5c-3.8-.7-4.3-2.3-1-3.3 1.3-.3 1.8-.6 1.1-.7-.6 0-.9-1-.6-2.1.5-1.8 0-2-4.5-2-2.8 0-5.4-.4-5.7-1-.8-1.4-2.6-1.3-2.3.1.2.6-.2 1.3-.7 1.5-1.5.6-1.2-3.6.3-6.3 2.6-4.7.5-4.5-2.6.3-1.2 1.9-2.7 3.2-3.2 2.9-.5-.3-.8 0-.7.7.2.7.2 1 0 .5-.3-.5-1.4 0-2.5 1-2 1.8-2 1.8-1.6-1 .3-1.5.1-3-.3-3.3-1-.6-6.5 5.6-6.1 6.8.1.5-1 1.4-2.3 2-2.7 1.2-3.3 2.8-1 2.8.8 0 1.1.7.8 2-.5 1.7-.8 1.9-1.5.8-.7-1-.8-.9-.4.4.3 1 .1 1.8-.4 1.8-.6 0-1 .3-.8.8 0 .4-.4 2-1 3.6-1.6 3.8-.8 4.5 1.3 1.2 1.8-2.7 3.7-3.5 3.3-1.4-.2.7.3 1.2 1 1 .6 0 1.2.3 1.2.8 0 .6-.5 1-1.1 1-.6 0-.8.7-.5 1.5.3 1 0 1.8-1 2.2-3 1.1-6.9 5.5-6.6 7.2.1 1-.4 2.4-1.3 3-.8.8-1.5 2-1.5 2.8 0 2.2 5.9-2.8 6-5 0-1 .9-2.1 2-2.4 1-.3 1.8-.8 1.6-1.2-.2-.3.2-1.2 1-1.9 1.1-1 1.4-1 1.4.2 0 .8.6 1.7 1.3 2 .6.2.2.5-1.1.5s-2 .5-1.7 1c.3.6-1.2 2.4-3.4 4.1-3.3 2.7-3.9 3.7-3.7 6.6.3 2.6-.3 3.9-2.6 6-3.4 3-3.1 4.4.4 2 2.9-2 5.2-2 4.4-.1-.3.8-.1 1.5.4 1.5.6 0 1-.4 1-1 0-1.6 1.7-1.2 2.4.6a3 3 0 0 1-.4 2.9c-.5.6-.7 1.5-.3 1.8.3.4-.3.7-1.4.7-1.2 0-2.4.7-2.7 1.6-.4 1-1.3 1.4-2.1 1-1-.3-1.8 0-2.1 1-.4.7-1 1.1-1.5.8-.5-.3-1.1 0-1.4.8-.5 1.2-3 1.8-9.5 2.2a7 7 0 0 0-3.8 1.4c-1.6 1.5-3.2 1.6-3.2.1 0-1.7 2.4-3.6 3.9-3.1.8.3 1.1 0 .7-.7-.4-.6 0-1.1.7-1.1.8 0 1.8-.7 2-1.6 1-2.2.9-2.4-.8-1.8-3 1.2-1.3-2.5 2-4.4 1.8-1 1.8-1.1.2-1.2-1 0-1.5-.4-1.2-1 .3-.6 0-1-1-1-2.4 0-1.3-2.1 3-5.5 2.4-1.8 4.1-4 4.3-5.5.3-2.3.2-2.3-1.7.7-2.2 3.5-4.9 5.3-6.8 4.6-.7-.3-2 .3-2.9 1.1-2.4 2.5-4 1.9-1.8-.6 3.5-4.2 5.3-5.8 6.5-5.8.9 0 .9-.3 0-1.4-.9-1-.8-1.6.4-2.6.8-.7 1.5-1.9 1.5-2.6 0-.8.7-1.4 1.6-1.4 1 0 1.4-.6 1-1.5-.6-1.5 1.3-3.8 4.6-5.6 1-.6 1.7-1.3 1.4-1.6-.2-.3.4-1.4 1.4-2.6 2.8-3 1.9-3.1-2.4-.6-3.3 2-6.9 2-3.7 0 .7-.5 1.1-1.3.8-1.8-.8-1.3.4-2.8 3.8-4.7l3-1.7-3.7.4c-4 .3-5.6-2-4.1-5.9.5-1.2.3-1.5-.6-1-.8.5-1.7.3-2.2-.5-.7-1-.9-.9-.9.7 0 1.1-1.1 3-2.5 4.4-1.3 1.2-2.2 2.7-1.9 3.2.3.5-.2 1.8-1.2 2.9-1.3 1.5-2 1.6-2.5.7-.4-.7-1.1-1-1.5-.5-.4.3-.2 1.3.4 2 1 1 .6 1.9-1.3 3.7-1.4 1.3-2.5 3-2.5 4 0 2.6-1.5 4.1-3.4 3.4-1.3-.5-1.7-1.4-1.2-3.5.4-2.2.2-2.7-1-2.2-.7.3-1.4 1-1.4 1.4 0 .5-.5.9-1.1.9-.7 0-1-1.2-.7-3 .3-1.6 0-3-.5-3.3-.5-.1-.9-4-1-8.5 0-4.5-.3-8-.8-7.6-.5.3-.9 1.6-.9 3 0 1.3-.4 2.4-1 2.4a1 1 0 0 1-1-1c0-.5-.7-.6-1.7-.3-1.1.4-1.4.3-.9-.6.4-.7.8-6 .8-11.8 0-9 .3-10.8 2-12.4 1-1 1.8-2.8 1.8-3.8 0-1.1.6-2.4 1.3-2.8 1.5-1 4-5.3 3.4-6-.3-.2-1.7.8-3.2 2.4l-2.6 2.8.7-2.9c.5-2 .4-2.7-.5-2.2-.6.4-1.1 0-1.1-.9s.4-1.4 1-1c1 .6 2.5-4 3.5-10.4a16 16 0 0 1 1.7-5.8c.6-.8.8-1.6.5-2-1-.9-3.3 2-4 5.1-.6 1.9-1.1 2.5-1.8 2-2-2.2 2.8-9.8 5.6-8.8.5.2 1.8-1 2.7-2.6 1-1.6 1.3-3 .7-3-.5 0-1.2.6-1.5 1.4-.3.8-1.5 1.7-2.7 2-1.2.3-3.4 1.7-5 3.1-2 2-2.7 2.2-2.7 1 0-.8.4-1.5.8-1.5s.9-.8 1-1.8c.4-4 .9-6.2 1.5-6.8 1-1 .9-2.4-.2-2.4a22 22 0 0 0-4.6 5.7c-2.1 3.2-4 5.2-4.3 4.5-.6-1.9.8-8.3 1.7-7.8.4.3 1.2-.4 2-1.5 1.3-2.1.8-2.4-2-.9-1.6.9-1.9.6-2.5-2.5a16 16 0 0 1-.1-5.5c.3-1.1.1-2.3-.4-2.6-.5-.3-.9.2-.9 1m25.2 17.4c0 6.5.1 7.2 1.3 5.5 2.1-2.7 1.8-1-1 5.2-1.3 3-3 5.5-3.7 5.5-1 0-1 .3.2 1 1 .6 1.7.5 2.3-.3.5-.7.5.3.1 2.3-.6 3.1-.5 3.3 1 2.1 1.4-1.1 1.7-1 2.5 1 .8 2.2 1 2.1 2-1.8 1.4-5.2 2.6-5.7 1.8-.8-.4 2.2-.2 3.5.5 3.5 1.3 0 .1 1.4-1.3 1.6l-1.8.3c-.5 0-1.2 1.2-1.5 2.5l-1.3 4.3c-.6 1.7-.5 1.7 1.5-.1 1.7-1.4 2.2-1.6 2.2-.5 0 .8 1-.4 2-2.6 2.3-4.5 4.8-7.3 3.6-4-.4 1.1-1 3.3-1.3 5-.4 1.7-2 4.8-3.5 7-1.5 2-2.6 4-2.2 4.4.3.3 1-.3 1.6-1.3 1-1.9 1.1-1.9 2.4 0 1.3 1.7 1.4 1.7 1.4-.5 0-1.2 1.6-3.8 3.5-5.8 3.7-3.8 5.1-7.9 1.8-5.2-1.5 1.2-1.6 1.2-1-.4.4-1 .7-2.9.7-4 0-1.6.9-2.7 2.8-3.4 2.5-1 2.5-1.1.4-1.2-1.3 0-2.2-.7-2.2-1.7 0-2.2-2.7-4.8-3.3-3.1-.4.9-.6.9-.6-.1 0-.7-.5-1-1-.7-1.5.8-2.4-5.8-1.7-11.3.6-4.3.5-4.6-.9-2.8-.8 1.1-1.5 1.6-1.6 1 0-.5-.5.2-1.1 1.6l-1 2.5-.9-3c-2.3-9-2.7-9.2-2.7-1.7m-190.2.3c0 .3 1.7 1.4 3.8 2.3 6.4 2.9 10.8 5.6 9.2 5.7-.8 0-.4.6 1 1.2 4 1.9 7.6 4.7 6 4.7-1 0-.8.4.6 1.4 3 2.2 4.5 0 1.6-2.4-2.7-2.2-2.8-3-.4-3 1-.1.3-.7-1.5-1.3-5-1.8-6-3.3-2.7-4.1 4.5-1.2 1.1-3-5-2.7-3.4.1-5.8-.2-6.7-1.1-1.4-1.4-5.9-2-5.9-.7m-73.8 46.7c.9 1 1.3 2.3 1 3-.2.7.6 1.2 2.2 1.2 1.3 0 3.7.5 5.3 1.2 3.3 1.3 18.3 2 18.3.8 0-.5-1.2-1.3-2.8-1.8-2.7-1-2.6-1 1-1.1 6.7-.2 4-2.1-2.8-2.1-3.6 0-6.3.4-6 .9.3.4 1.7.6 3 .3 4-.7 3 .6-1 1.7s-8.8.5-7.8-1c.3-.5-.4-.9-1.5-.9-1.2 0-2.1-.4-2.1-.8 0-.8-5.7-3.2-7.5-3.2-.4 0-.1.8.7 1.8m380.9 15.5c-5 1.7-11.5 14.3-12.7 24.2a94.5 94.5 0 0 0-2 12 149 149 0 0 1-1.8 12.7c-.1.9-.8 2.3-1.5 3.2-1 1.2-1 2-.3 3 .9.9.6 1.6-.8 2.6s-1.6 1.6-.8 2.1c.9.6.8 1.1-.1 2.3-1 1.2-1 1.6-.2 1.6.7 0 1 .4.7.9-.3.5.1 1.2 1 1.5.9.3 1.4 1.2 1 2-.2.7.7 2.5 2 4 1.3 1.3 2.4 3 2.4 3.6 0 .5.5 1 1 1.1l2.2.3c.6 0 1.2.9 1.4 1.8.4 2.7-4.5 1.7-9.9-2-5.4-3.8-6.4-4-6.2-1 .2 2.6 1.6 3.5 6.7 4.3 2.7.4 4.2 1.4 5.5 3.5 1 1.7 2.3 3 3 3 .7 0 1.7.9 2.3 2 .6 1.1 1.6 2 2.2 2 .7 0 .6-.5-.2-1.5-.7-.8-.8-1.5-.3-1.5 1.1 0 .4-7-1-8.8-.7-.8-.5-1.2.7-1.2 1 0 1.6.8 1.6 2 0 1.1.5 2 1.1 2 .6 0 .9.9.6 2-.4 1.5 0 2 1.6 2 2 0 2 .1.3 1.1-1.9 1.2-.7 2.8 2 2.9 1.6 0 2.7-3.2 1.5-4-.6-.3-.6-1.1-.1-2 1-1.5 5 2 5 4.3 0 .5.7.4 1.5-.3a3 3 0 0 0 1-3.3c-.6-1.6-.4-1.9.9-1.4.9.4 1.6.2 1.6-.3s.8-.6 1.7-.3c1 .4 1.3.8.5 1-1.7.6-1.5 2.3.4 2.3.8 0 1.2-.4.9-1-.3-.6-.1-1 .4-1 .6 0 1.1.7 1.1 1.5s-.7 1.5-1.6 1.5c-.8 0-1.3.4-1 1 .9 1.2 4.6 0 4.6-1.6 0-.8.4-1.4 1-1.4.5 0 .7.7.4 1.5-.5 1.1 0 1.5 2 1.5 1.5 0 2.5-.4 2.2-.8-.3-.5.8-.9 2.4-.9 1.7 0 3 .3 3 .6s1.8.6 4 .7c4.3 0 5.1-1.3 2.4-4-1.3-1.4-1.3-1.6 0-1.6.8 0 1.7.9 2 2 .4 1 2 2.5 3.6 3.2 1.7.7 3 2 3 2.8 0 1.2.3 1.1 1.4-.3 1.4-1.8 1.5-1.7 2 .2.4 1.2 1 2 1.5 1.7.4-.3 2 .4 3.7 1.4 3.2 2.2 6.4 2.6 6.4 1 0-.6-.4-.8-1-.5-.5.3-1.8.1-2.7-.4-1.4-.8-1.5-1-.3-1 1.3-.1 1.3-.3 0-1.2-1.3-1-1.3-1 .1-.6 1 .3 2.6-.1 3.7-.9 1.3-.8 2.3-1 2.7-.5.3.6 1.1.8 1.8.5.7-.2 1.8 1 2.5 2.6.8 1.6 2 3 2.8 3 .9 0 1.3.4 1 .8-.6 1 5.2 4 10.4 5.1 3 .7 4 .6 4-.4 0-.7.6-1.6 1.3-1.8.7-.3.4-.6-.6-.6-3.6-.2-.5-2.1 3.4-2.1 3.5 0 4 .3 3.4 1.9-.5 1.6 0 1.8 4 1.4 4-.5 4.5-.3 4.5 1.6 0 1 1.2 3.2 2.8 4.6l2.7 2.6 1.7-2.2c1-1.1 1.6-2.5 1.3-3-.3-.4 0-1 .6-1.5.8-.5 1 .1.7 2-.3 1.4-.1 2.6.3 2.6.5 0 .9-.6.9-1.2 0-.7.7-.3 1.5.9 1.7 2.5 6.3 3.9 7.9 2.3.8-.8.8-1.3-.1-1.8-.6-.4-1.7-2-2.3-3.6-.6-1.6-1.3-2.6-1.6-2.3-.3.3-1.7-.6-3.2-2-2.2-2-2.4-2.6-1.2-3.3 1.2-.7 1.2-1.2.2-2.2-1-1-1.2-.9-1.2.5 0 .9-.6 1.4-1.3 1.2-.6-.3-1.2-1.6-1.2-3 0-1.7.4-2.4 1.3-2 .8.3 1 0 .6-.6-.4-.7.7-1 3.2-.7 3 .2 4 0 4.2-1.5.2-1-.3-1.7-1-1.7-.8 0-2.7-1.4-4.4-3.2-2.1-2.2-2.4-3-1-2.4 1.4.5 1.7.3 1.1-1.1l-.9-2.8c0-.6-.6-1-1.1-1-.6 0-.9.5-.7 1.2.2.7-.2 1.3-.9 1.3-.8 0-.9-1.2-.4-3.8.9-4.7 1.2-5 3-2.6.8 1 1.5 1.4 1.5.8 0-.5-.6-1.9-1.4-3-1.6-2.1-4.6-.6-4.6 2.5 0 1.3-.2 1.4-1 .1-.5-.8-.7-1.8-.4-2.2.7-1-1.4-4.8-2.7-4.8-.6 0-.7.4-.4 1 .8 1.4-.8 1.3-2.2-.1-.8-.8-1.6-.8-3 0-1.7 1-1.7 1.1.4 1.7 3.7 1 8 10.6 6.3 13.8-1.9 3.6-2.7 3.3-4-1.4-.6-2.2-1.5-4-2-4-1.3 0-1.3 1.3.1 2.7.6.6 1 1.7.7 2.4-.2.7-1.4-.4-2.5-2.4-4.6-7.7-15.5-11.3-25.3-8.3-1.8.6-2.1.5-1-.3.8-.5 1-1.4.6-1.8-.5-.4-1-.3-1.3.3-.2.7-1.3 1-2.3.7-1.1-.3-2 0-2 .6s-.7 1.1-1.5 1.1-1.5-.5-1.5-1c0-.6-1.5-2-3.2-3-3.2-2-4.8-7.2-2.7-8.6 1.5-.9 1-2.4-.5-1.8-.9.3-1.7-.3-2-1.5-.4-1-1.3-1.8-2-1.5-.7.3-1.8-.7-2.6-2-1.4-2.7-3-3.4-3-1.4 0 1-.3 1-1.2 0-1.8-1.8-3-1.4-1.9.7.6 1 .8 2 .5 2.4-.3.3-.2 1.3.4 2.2.7 1.4 1 1.2 1.5-1.4.6-2.7.9-3 2-2 .8.8 1.3 2 1 2.5-.2.7 0 1.5.6 1.9.6.3 1 1.8 1 3.3-.1 2.1-.2 2.3-.6.7-.8-3.2-3.3-6.4-3.3-4.2 0 2.1-1.8 2.2-4 .1-1.2-1-2-1.2-2.5-.5-.3.6-.1 1.1.4 1.1.6 0 1.1.7 1.1 1.5s-.3 1.4-.8 1.4c-1.8-.3-2.2.2-1 1.5.7.8 1.6 1.2 2 1 .5-.3.8 0 .8.5 0 .6-.5 1.1-1 1.1s-1 .5-1 1c0 .6.4.9 1 .6 1.9-1.3 4 .6 3.4 3a4 4 0 0 0 1 4c.9.8 1.4 2 1 2.4-.2.5 0 1.1.6 1.5.5.3 1 1.3 1 2.2 0 1.3-.3 1.3-1.5.3-1-.9-1.5-.9-1.5-.1s-.6.8-2-.1c-2.7-1.7-2.5-2.7.3-2.2l2.2.5-2.3-1c-2.4-1.1-2.7-2.1-1.3-3.7.6-.5.4-1.9-.4-3.4-.8-1.4-1.4-2-1.5-1.2 0 .7-.4 1-.9.8-.5-.3-1.2.5-1.5 2-.4 1.3-1 2.4-1.6 2.4-1.3 0-1.3-.1.5-3.7 1.5-3 1.2-6.3-.6-6.3-.5 0-.9.6-.9 1.4 0 1.5-3 5-3.6 4.3-.3-.2.2-1.7 1-3.2.8-1.6 1.3-3.2 1-3.7-.3-.4.4-.8 1.5-.8 2.3 0 3.2-1.8 1.9-4.3-.5-1-.7-2.5-.4-3.2.3-.8 0-1.7-.5-2-.5-.4-.7-1-.4-1.6.4-.5.1-.9-.4-.9-.6 0-1-.3-.9-.8.4-1.5-1.3-8.2-2.1-8.2-.5 0-1.5 1.4-2.4 3.1-1.6 3.4-2.6 2.9-2.2-1.1.2-2.5-1.5-8.2-4-13a60 60 0 0 1-2.5-7.3c-.7-2.6-1.6-4.7-2-4.7-.8 0-4.8-6-6.2-9.3-.4-1-1.4-2-2.3-2.3-.8-.3-1.3-1-1-1.5 1.4-2.2-7-4.1-11.4-2.6M223 304c0 .5-.7.7-1.5.4-.8-.4-2.2 0-3 .6-1 .9-1.5.9-1.5.1 0-.6-.7-1.1-1.5-1.1s-1.5.3-1.5.6.7 1.2 1.5 2c2.3 2.4 1.8 3.1-2.2 3-4.7-.1-5.3 1.8-1 3.5l3.2 1.3-3.2.3a8.2 8.2 0 0 0-4.5 2c-1.1 1.4-1 1.6.4 1 1-.3 1.8-.1 2 .4.2.6 2.4 1.1 4.9 1.2 3.5.1 4.5.6 4.5 2 0 1-.7 1.7-1.6 1.7-1.2 0-1.1.3.3 1.1 1 .6 2.5.8 3.3.5.9-.3 3.3-.3 5.5 0 3.6.6 3.8.8 2.5 2.3-1.4 1.6-1.1 1.7 3.9 1.7 8.4-.1 9 1.9 1 3.4-5.6 1-6.9 1-7.6-.1-.5-.9-.9-1-.9-.2 0 .6-.9.9-2 .6-2.3-.6-6.5 3-6.5 5.7 0 .9-1 1.5-2.3 1.6-4 .2-5 2.3-1.4 3 8.3 1.7 1.5 3-12 2.4-2 0-3.9.3-4.2.8-.3.6 1.2 1 3.5 1 4.2 0 6.4 1.1 4.2 2-2.3.7-1.3 2.2 1.4 2 1.8 0 2.1-.2 1-.5-1-.2-1.5-.8-1.2-1.3.3-.5 2.1-.2 4 .6 2 .8 3.8 1.3 4.2 1.2.5-.1 1.9.2 3.2.6 2.4.8 2.4 1 .6 2.2-2.4 1.8-1 1.8 5 0 7.1-2.1 16.5-3.5 17-2.5.4.5-.3.9-1.5.9s-2.5 1-3.2 2.5a8 8 0 0 1-4.5 3.6c-2.5.8-3.2 1.4-2.4 2.2.8.8 2 .7 4-.6 3.6-2.1 4.7-2.2 3.1-.2-1.6 1.9-.3 2 1.6 0 .7-.7 2.2-1.1 3.3-.8 1 .3 2.2 0 2.5-.6.4-.6 1.5-1 2.4-1 1.3 0 1.1.3-.7 1.3l-2.3 1.3 2.3.6c1.3.4 2.6.2 2.7-.3.2-.6.8-1 1.3-1 .4 0 .6.7.3 1.5-.5 1.1 0 1.5 2 1.5 1.4 0 2.6-.4 2.6-1s-.7-1-1.5-1c-2.3 0-.6-3 1.9-3 2-.1 2-.2.2-.9-1.3-.5-1.6-1-.9-1.4.7-.4 1.4-.3 1.8.3.8 1.3 8.2 1.3 9 0 .3-.6-.4-1.4-1.7-2-2.3-.9-2.2-.9.4-1 1.6 0 2.8-.4 2.8-1s.6-.9 1.3-.8c.6.2 1.1-.5 1-1.4 0-1 .3-1.8.8-1.8s1.6-1.5 2.5-3.3a14 14 0 0 1 2.8-4c2.4-1.5-2.3-.6-8.8 1.7a23.4 23.4 0 0 1-8.1 2c-.8-.3-2.2 0-3.2.5-1.7 1-1.7 1 .1 1 2.6.1 1 1.6-2.6 2.5-1.5.3-3 .2-3.3-.4-.3-.5 0-1 .7-1 1 0 .9-.3-.2-1-1.2-.8-1.1-1 .5-1 3 0 9.9-3.7 8.3-4.4-.9-.4-.8-.5.2-.4.8.1 3.4-.2 5.8-.6 3.8-.7 4.7-1.5 4.3-3.9-.2-1 1.3-.9 2.5.3 1 1 7.6-.5 10.9-2.7 1.6-1 1.7-1.3.3-1.3-1 0-2 .5-2.4 1-.3.7-1.4 1-2.4.7-1-.2-2.5 0-3.4.5-1.2.7-1.6.5-1.6-.6 0-1.2 1-1.6 3.4-1.6 2 0 3.8-.4 4.1-1 .4-.6-.6-1-2.4-1-2 0-3.5-.8-4.5-2.2l-1.5-2.2-5 2.4c-2.8 1.3-5.1 2.9-5.1 3.5 0 1.3-3.2 4.5-4.5 4.5-.5 0 .2-1.1 1.5-2.5s1.9-2.5 1.3-2.5c-.6 0-1.6.7-2.3 1.5-.7.9-2 1.4-2.7 1-.7-.2-3.4.5-6 1.6-4.8 2-6.4 2-3.8 0 2.2-1.9 1.9-4.1-.6-4.1-3 0-1.4-1.7 2-2.2 3.3-.5 4.3.7 1.3 1.6-1 .3-.5.4 1 .2 1.6-.2 2.8 0 2.8.6 0 .5.4.7 1 .3 1.6-1 0-3.3-3.2-4.4-2.5-.9-2.8-1.3-1.6-2.3 1.6-1.6 7-4 7.5-3.5.7.8-2.8 3.7-4.5 3.8-1.2 0-1 .3.6 1 2.7 1 9.3.9 8.6-.3-.3-.4 0-.8.8-.8 1 0 .9-.3-.2-1-1.3-1-1.3-1.2.3-2.4 1.8-1.4 1.8-1.4-.2-2-1.2-.4-2.5-.5-3-.1-.5.3-1.2 0-1.6-.5-.8-1.3-6.2-1.3-6.7 0-.3 1.1-16.8-1-16.8-2.1 0-.4 3.3-.6 7.3-.5 4 .2 8.7.1 10.4-.1 3.2-.5 3.2-.5 1.3-2.6-2.6-2.7-1.6-3.6 1.1-1.1 1.6 1.4 2.3 1.5 2.6.6.3-.6 1-1.2 1.6-1.2 2.2 0 3.8-1.7 3.1-3.3-.4-1.3-1-1.4-2.4-.7-1.2.7-2.8.7-4.5 0-4-1.5-8-1.2-14.2 1-7.4 2.6-8 1.7-1.2-1.5l5.4-2.6-8.3.4c-4.5.2-7.7 0-7-.5.9-.5.4-.8-1.4-.8-1.6 0-2.8.4-2.8 1m420.7 27.7c-3.3.4-3.8.7-3.5 2.6.2 1.2 1 2.2 1.8 2.2 1 0 1.5 1 1.5 3.3 0 2.4.3 3.2 1.7 3.2 2 0 2.2.4.9 2.9-1.4 2.5-.2 6.1 1.9 6.1 2.2 0 4.6-5 3-6-1-.6-1-1 0-1.5.8-.5.6-1.2-.6-2.7-1.5-1.6-1.6-2.3-.6-3.8 1.6-2.6 1.5-3.1-.4-2.8-1 .2-1.9-.3-2.1-1-.4-1 .3-1.1 2.4-.7 2.7.6 2.7.6.9-1-1.1-.8-2.2-1.4-2.5-1.3l-4.4.5M465 353.8c-4 2.7-8.2 7-7.3 7.4.4.3.3.4-.2.3-1.3-.3-3.6 2-2.8 2.9.3.3-.2.8-1 1.2-3.2 1.2-1.8 2.6 1.9 2 2.8-.6 4-.3 5 1 1.5 1.8 1.5 1.8 1 .1-.4-1.2.1-2 1.7-2.6 7.2-2.8 7.3-3 1.3-2.4-4.3.5-5.7.3-5.2-.5.4-.7 1.6-1.2 2.6-1.2 2.3 0 3.5-1.6 1.8-2.3-.9-.3-.7-.7.4-1 5.5-2 5.5-2 3.5-2.4-1.6-.4-1.5-.6.5-2.3 3-2.5.4-2.6-3.2-.2M212 358c-6.4 1.3-9.6 3-8 4 1.1.7.9 1-1.2 1-3.1 0-4.7 1.8-2.7 3.1 1 .6.6.9-1.3.9-2.3 0-6.5 3.6-5.5 4.7 1.4 1.4 11.3-1.4 15-4.3 2.2-1.8 4.4-3.1 4.7-2.9.3.2 1.2 0 2-.6 1-.6 0-.9-3.3-.9s-4.7.4-4.5 1.3c.3 1.3-.3 1.7-2.4 1.7-.8 0-1-.3-.3-.8a9 9 0 0 0 2.1-2.7c.8-1.4 2-2 4.1-1.7 1.9.2 3.9-.5 5.4-1.7 2.6-2.2 1.9-2.4-4.1-1.1m142 6.3c0 3 1.4 5.6 3.2 6 2 .5 2 .7.4 2.3-1.6 1.5-1.8 1.5-3.1-.2-1.3-1.8-1.4-1.8-1.5-.1 0 1.8-2 2.5-2 .7 0-.6-.4-1-1-1-1.3 0-.6 2.7 1.5 5 2.5 2.8 7.6 2.6 12.5-.5 2.2-1.4 4-2.9 4-3.3 0-1.6-4.7-7.1-5.5-6.4-.5.4-.5 0 0-.7.5-.9.4-1.2-.2-.8-.6.4-1.6 0-2.3-.8-1.5-1.8-6-2-6-.3m286.5 1.3c-1.6.7-2.3 1.4-1.5 1.4 3.8.3 4.4 1.8 1.7 4.3-2.5 2.3-2.5 2.6-1 4.1 1.5 1.4 1.6 2 .5 3.7-1 1.7-1 2.1.5 2.7 1 .3 2.6 1.3 3.6 2.1 2 1.8 3.5.8 1.7-1.2-1.4-1.8.2-4 3.6-4.9 1.6-.4 1.6-.5-.4-.6-2.3-.1-3-1.5-1.1-2.7.6-.3 2.4.3 4 1.5s2.9 1.7 2.9 1.1c0-.5.9-1 2-1 1.8 0 2.5 1 2 3.4 0 .5.6.6 1.5.3.8-.4 1.5-.2 1.5.3 0 .6.5 1 1 1s.9-.6.8-1.2c-.2-.8 1.3-1.5 3.7-1.9 2.2-.3 3.5-.7 3-.8-.5 0-.3-.6.5-1.1 1.2-.8.9-1.2-1.8-2.2-1.7-.7-3.2-1.8-3.2-2.5s-.9-1.3-2-1.3-2-.5-2-1c0-.7-.6-1.8-1.4-2.5-1.7-1.8-4.2.5-3.2 3 .6 1.7-1.9 2.1-3 .5-.3-.6-1-.8-1.4-.5-.4.3-1-.2-1.4-1-.3-.9-1.8-1.5-3.5-1.5-2.3 0-2.9-.4-2.5-1.5.8-1.9-1-1.9-5.1 0m77 15.6c.4 1.5.2 3-.4 3.3-.6.4-1.1 0-1.1-1 0-1.5-.2-1.6-1-.5-1 1.6-6 .7-7.2-1.2-.5-.8-.8-.6-.8.6 0 1-.5 1.5-1 1.2-.5-.3-1-.1-1 .4 0 .6-.7 1.1-1.6 1.1-.8 0-1.3.4-1 1 .4.5 1.3.7 2 .4.8-.3 1.7 0 2 .5.4.6 0 1.1-1 1.1-1.5 0-1.6.2-.5.9s1.1 1 0 1.4c-.8.3-.2.6 1.3.6s3 .6 3.3 1.2c.4.6 1.3.8 2 .5.8-.3 1.7.4 2 1.6.6 1.8.9 1.9 2.3.5 1.3-1.3 1.3-1.9.2-3.1-.8-1-.9-1.6-.2-1.6.6 0 .9-.7.5-1.5-.5-1.4 0-1.3 3.1.2 2.9 1.3 3.9 1.4 4.5.5.8-1.3 4.1-.6 4.1 1 0 .4.5.8 1 .8 1.6 0 1.1-1.9-1-3.7-1.1-1-2-2.3-2-3 0-.6-.9-1-2-.8-1.1.2-2 0-2-.6 0-.5-.5-.9-1.1-.9-.7 0-1.8-.8-2.6-1.8-1.2-1.5-1.3-1.4-.7 1m-399.5 26c1 1.9 1 2-1 1.5-1.6-.4-2.1 0-2.1 1.3 0 1-.5 2.2-1.1 2.6-.8.5-.6 1 .5 1.6.9.5 2 .6 2.7.3 1.3-.9.8 2.7-.6 3.7-.6.4.6.8 2.5.9 2.7 0 3 .2 1.6.8-1.3.5-1.6 1-.9 1.4.7.4 1.4.3 1.8-.3.8-1.3 4.5-1.3 4.5 0 0 1 5.9 2.5 6.7 1.6 1.5-1.5-.7-3.5-3-2.7-1.7.7-2.6.4-4-1.5-1.5-2-1.6-2.4-.2-2.4.8 0 1.5-.4 1.5-.9 0-.4-1.2-.6-2.8-.3-2.7.5-2.7.5-.8-1.6 1-1.2 2.3-2 2.7-1.6 2.3 1.4 3-1 .8-2.8l-2.4-2 3.8.7c2.7.4 3.7.3 3.2-.4-.8-1.3-7.5-1.5-7.5-.2 0 .6-1.2.3-2.8-.5-3.7-2-4.5-1.8-3.1.7m-29.4 21.5c-1.2 1.2-.8 2.4.8 2.4.8 0 1.5.7 1.5 1.5 0 1.6-1.5 2-2.4.7-.2-.4-2-.9-3.8-1-3.1-.3-3.2-.2-1.3 1.2 2 1.5 2 1.5-.2 1.6-1.2 0-2.3-.5-2.5-1.1-.3-.8-1-.6-2.1.5-1 1-1.7 1.4-1.7 1 0-.5-.6 0-1.2 1-.9 1.5-.7 2.2.7 3.2 2.3 1.7 4.7 6.3 3.8 7.7-.4.6-.1.7.7.2.8-.5 1-.4.7.2-.8 1.3 1 2.8 4 3.6 2.9.7 4-.8 1.6-2.2-2.6-1.4-.9-2.5 1.7-1.1 1.2.6 2.4 1 2.7.6 1.1-1-2-3.6-4.4-3.6-1.3 0-2.2-.4-1.8-1 .3-.5-.3-1.4-1.2-2-1.5-1-1.4-1 .7-.4 1.4.4 4.9.8 7.8.8 4 0 5 .4 4.7 1.4a8 8 0 0 0-.5 1.8c0 .2-1.2.1-2.6-.2-2-.5-2.5-.4-2 .6.5.7 2 1 3.7.8 1.5-.3 2.6 0 2.3.4-.3.4-.2.8.3.8 1.1-.1 5.7-10 5-10.7-.4-.4-.7-.3-.7 0 0 .5-1.6-.8-3.6-2.8-2-2-4-3.3-4.5-3-.5.4-.9 0-.9-1 0-.8-.4-1.5-1-1.5-.4 0-1.5-.2-2.2-.5-.8-.3-1.7-.2-2.1.1M734 470c0 1 .6 2 1.4 2 .8 0 2.4 1 3.7 2 1.7 1.5 1.9 2 .7 1.6-3-.9-3 1.2 0 3 4.2 2.7 8.2 6.6 7.6 7.6-1.3 2 2.8 1.8 5.5-.4 3.2-2.5 3.9-6.8 1-6.8-1 0-2.2-.7-2.9-1.5-.7-.8-1.8-1.5-2.5-1.5-.8 0-1.5-.4-1.7-.9-.1-.5-1.4-1-2.8-1.3a8 8 0 0 1-3-.8l-3.8-2.8c-3.1-2.2-3.2-2.2-3.2-.2m-204 21.9c-.6 1.6-2 3.1-3 3.4-1.8.5-2.3 5-.7 7.4.4.6.3 2.3-.3 3.8-1.3 3.4-1.3 5.5 0 3.5.8-1.3 1-1.2 1 .3 0 1 .7 1.7 1.6 1.7 1 0 1.3.6 1 2-.4 1-.2 2.1.4 2.5.6.3.8 1 .5 1.6-.4.5 0 .9 1 .9 1.3 0 2-1.9 1.6-4.4-.1-.5.6-1.7 1.5-2.7.9-1 1.3-2.3.9-3-.6-.8-1-.8-1.6.2-.5 1-1 .5-1.4-1.4-.4-1.5-1.1-2.7-1.6-2.7s-.9-.7-.9-1.5-.4-1.5-1-1.5c-.4 0-.3-1.3.3-3 .6-1.6 1.4-2.7 1.8-2.4.4.2 1-.3 1.3-1.1.3-.8 0-1.5-.4-1.5-.6 0-.8-1.1-.4-2.5.8-3.4 0-3.2-1.6.4m-328.4 17.6c.4.8 1 1.5 1.3 1.5.7 0 .8.6 1.3 6 .3 2.5 4 8 5.3 8 .3 0 1.3.7 2.1 1.5 1.8 1.8 3.4 2 3.4.3 0-.6 1-.2 2 1 2 2.2 4 2.9 4 1.4 0-1-3.2-3.8-5.1-4.4-1-.4-.5-1 1.3-1.8 1.6-.7 2.8-1.7 2.8-2.2 0-.8-.5-1-4.5-1.2-3-.2-7.7-3.5-7-4.8.5-.7 1-.6 1.6.3.5.8.9 1 .9.5 0-.4 1.2 0 2.6.9 2.8 1.8 4.3 1.5 2-.4-.8-.7-1.3-1.8-1-2.6.3-.7-.5-2-1.8-2.9-3-2.1-4-2-3.3.4.8 2.6-.2 2.5-2.4-.2-2.1-2.6-6.3-3.6-5.5-1.3m133.7 46.9c-1.3 1.6-2 3.2-1.7 3.7.3.5-.2.9-1.1.9-1.2 0-1.5-.6-1-2 .6-2 .5-2-1.5-1-1.5.8-2 1.7-1.5 3 .4 1.2.2 2-.4 2-.6 0-1.1-.5-1.1-1.2 0-1.9-3.3 3.3-3.5 5.4 0 1-1 2.4-2 3.2-1.1.8-1.7 1.8-1.3 2.2.4.4 1.4.1 2.3-.6 1.3-1 1.5-.9 1.5 1.1v2.4l2.5-2.8c1.4-1.5 2.5-3.6 2.5-4.5 0-1.5.2-1.5 1-.2.8 1.2 1 1.1.8-.5-.3-4 .2-5 2.8-5.1 1.4-.1 3.4-1 4.5-2 2-1.8 2-1.8 1.4 1.1-.7 2.8-.6 2.9 1 1.4 2-2 1.2-6.4-1-5.5-.9.3-1.5-.3-1.7-1.7-.3-2-.4-2-2.5.7m35.6 28.9c-5.3 4-8 8.3-6 9.6 1 .6.9 1-.6 1.5-1.7.7-1.7.8 0 1.7a4 4 0 0 1 1.7 3.2c0 2.2 0 2.2 1.4-.2 1.3-2.4 1.4-2.4 2.5-.3.7 1.4.8 2.3.1 2.7-1.2.7-1.4 3.5-.3 3.5 1 0 6-7.2 6.8-10 .6-2 .4-2.2-1.2-1.8-1.3.3-2.2-.2-3-1.8-1-2-.6-2.4 3.6-4.8 4.4-2.4 4.5-2.6 1.7-2.6-2.3 0-2.6-.3-1.7-1.4 2.5-3-.9-2.5-5 .7m130.6 14.5c1.5 2.3 4.6 4.9 7.5 6.4 2.8 1.5 4.5 2.8 3.8 3.1-.9.4-1 .6-.1.6.6 0 2.5 1.3 4.1 2.9 5.1 4.7 6.6 5.7 8 5.4.6-.2 1.2.2 1.2.8 0 1.3 2.9 4.4 3.5 3.8.8-.8-3.8-6.9-5-6.4-.7.2-1.7-.6-2.3-1.9-.6-1.3-2-2.6-3.2-3-1.1-.3-1.8-1-1.4-1.6.3-.5 0-.8-.8-.7-.7.2-1.2-.5-1.2-1.5.1-1-.2-1.7-.6-1.7-.4 0-2.7-1.6-5-3.4-2.5-2-4.6-3.3-4.8-3.1-.2.2-1.3-.5-2.5-1.6-3.4-3-4-2.2-1.2 2m32.5 2.4c0 .7 1.7 3 3.8 5 4.3 4.1 8.2 9 8.2 10.5 0 .6 1.6 2 3.5 3.2 4 2.5 4.5 3.4 1.3 2.5-1.3-.3-1.8-.3-1.3.2.5.4 1 1.5 1 2.3 0 1 .8 1.4 2.4 1.2 1.5-.2 2 0 1.6.7-.3.6-.3 1.2.2 1.2 4.6.7 6.3.6 6.3 0 0-.5.9-.7 2-.4 2 .5 2.8-1 1-2.2-.6-.4-.8-1-.5-1.6.4-.5.1-.9-.4-.9a1 1 0 0 1-1.1-1c0-1.4-2.5-4-3.8-4-.6 0-1.2-.6-1.5-1.4-.3-.8-2.2-2-4.1-2.7-2-.7-3.6-1.6-3.6-2a20 20 0 0 0-4.8-4.3l-7.5-5.6c-2-1.6-2.7-1.8-2.7-.7m-134 9.6c0 .6-.7 1.1-1.6 1.1-.9 0-3.4 2-5.7 4.5-3 3.4-4.2 4.2-4.8 3.3-.7-1-.9-.8-.9.5 0 1-.4 1.5-1 1.2-.6-.3-1 0-1 1 0 1.3-.6 1.7-2.6 1.4-.7 0-2.4 2.2-2.4 3.2 0 1.1 6.8.3 8.4-1 2-1.7 2-.7 0 2.4-1.7 2.7-1.1 4.7 1.1 3.8 1-.3 1.5 0 1.5 1s.5 1.7 1.1 1.7c.6 0 .9-.9.6-2-.4-1.5 0-2 1.4-2 1.2 0 1.6.5 1.3 1.5-.4.9 0 1.5.8 1.5 2.3 0 3-1.2 1.2-2.4-1.4-1-1.3-1.5.6-3.9 2-2.5 1.6-3.8-.6-1.8-.5.5-2 1.2-3.4 1.5l-2.5.7 2.4-2c1.3-1.2 1.8-2.1 1.2-2.1-.6 0-.8-.6-.5-1.4.3-.8 0-1.7-.5-2-.6-.4-1.1-1.2-1.1-1.7 0-.6.5-.7 1.2-.3.7.4.8.3.4-.5-.4-.6-.4-1 0-1 2.8.6 8.4-5.3 6.4-6.6-.6-.3-1-.1-1 .4M540 631c-3 2 5.3 20 9.3 20 .7 0 2 1.2 2.6 2.7.9 2 1.5 2.3 2 1.4.7-1 1.3-1 3-.1 1.6.8 2.6.8 3.5 0 .7-.5 1.6-.7 2-.3.3.3.6 0 .6-.8s-1.8-3.2-4-5.4c-4.6-4.5-6-6-7.5-7.8-1.3-1.4-1.3-5.6-.2-7.5.7-1-.8-1.7-3.4-1.4l-3.7-.7c-1.6-.5-3.5-.5-4.2-.1m4.8 35.8c-1 .2-1.8 1-1.8 1.8s-.7 1.4-1.6 1.4c-.8 0-1.2.5-.9 1 .4.6 1.1.7 1.7.4.7-.5 1-.1.5 1-.4.9-.3 1.6 0 1.6.5 0 .9 1 1 2.4 0 1.7-.3 2.3-1.3 2-1-.5-1.2-.1-.8 1 .4 1 .2 1.5-.7 1.3-.8-.2-1-.2-.6 0 .4.3-.2 1.3-1.3 2.3l-2.2 1.9 2.7 3.5c1.5 2 3.1 3.3 3.6 3 .5-.3.9.6.9 2 0 1.6-.7 2.7-2 3.1-1.6.5-1.8 1-1 2s.8 1.5 0 2c-.6.4-.8 1.6-.4 2.7.5 1.5.3 2-.7 1.6-1.6-.6-4.2 1.6-3.1 2.6.3.4.7 1.4.8 2.4.2.9.8 1.8 1.3 2 1.8.6 1.2 2-1 2.5-1.8.5-1.9.8-.7 2.6 1.4 2.3 4.3 2.8 5.4 1 .3-.6 0-1.5-.7-2-1-.6-1-1 .3-1.4 1-.4 2.3-2.2 3-4.1.6-1.9 1.6-3.4 2-3.4.4 0 .8-.8.8-1.9 0-1 .9-3 2-4.4 1.8-2.3 1.9-2.8.6-7-1.4-4.8.1-12.5 1.7-8.3.6 1.5.9 1.6 2.2.3 1.5-1.6 1.8-9 .3-8.1-.4.3-.7-.5-.5-1.8 0-1.2-.3-2.3-.8-2.3s-2-.6-3.2-1.3c-1.5-.8-2.2-.9-2.5 0-.2.6-1 .3-1.8-.8-1.4-1.6-1.3-1.7.3-1.1 1.8.7 2 .2.9-2.3-.4-.9-1.5-1.4-2.5-1.2m-310 39.7c.2.8 1.4 1.7 2.5 2 1 .4 1.7 1 1.4 1.2-.3.3-1.8.1-3.3-.4-3.7-1.3-5.3-.6-5.3 2.3 0 2.5-1 3-2.6 1.5-1-1.1-6.4-.3-6.4 1 0 .5-1.5 1-3.3 1-1.7 0-2.6.3-2 .6 1.8.7.6 2.3-1.7 2.3-1 0-2 .7-2.4 1.5-.3 1 0 1.5 1.4 1.5 2.9 0 7 2.1 7 3.7 0 .7.9 1.3 2 1.3s2 .5 2 1c0 .6.6 1 1.3 1 2.5-.4 3.8 0 3.2 1-.3.5-1.6 1-2.8 1.1-1.3 0-.1.8 2.8 1.7l5 1.6-4.7 1c-4.8 1-6.8 4.6-2.5 4.6 1.5 0 1.7.3.8 1.4-1 1-.5 1.5 1.9 2 1.8.3 3 1.2 3 2 0 1 .7 1.6 1.5 1.6 2.8 0 6.4 3 5.8 4.8-.4 1.5-.3 1.5.6.2.7-1 1-1 1-.3s1.3 1 2.8 1c1.5-.1 2.8.3 3 .8.3 2.6 1.6 5.4 2.2 5 .3-.1 2.2.3 4.1 1.2 3 1.2 3.3 1.6 1.8 2.4-1 .6-1.8 1.4-1.8 2 0 .4.8.6 1.8.2 1.3-.5 1.4-.3.5.7-.6.7-3.2 1.5-5.8 1.8-3.6.4-4.3.7-3 1.4 1.4.8 1.3 1.1-.7 3l-2.3 2 5.5-.6c3.5-.3 4.8-.2 3.5.3-1.8.8-1.8 1-.3 1.6 1 .4 2.1.4 2.7 0 .5-.3 1.2 0 1.6.5.3.5.2 1-.3 1s-.8 1-.7 2.2c.1 1.7.8 2.2 3 2.3 1.5 0 3 .6 3.2 1.3.3.6-.2 1.2-1.1 1.2-.9 0-1.6.5-1.6 1 0 1.5 1.7 1.2 3.6-.8 1.7-1.6 1.8-1.6 1.1 0-.4 1.2-.2 1.8.8 1.8s1.2.6.8 1.7c-.5 1.2-.2 1.5 1 1 1-.3 1.7-.2 1.7.3 0 .6.5 1 1.1 1 .8 0 .8-.5-.1-1.5-1-1.2-1-1.5.4-1.5.9 0 1.6.7 1.6 1.6 0 1.3.3 1.4 1.4.4.8-.6 2.5-1 3.7-.8 2.1.3 2.2.4.6 2-1.9 1.8-.8 3.2 1.7 2.2 1-.4 1.6 0 1.6 1 0 2.3 2.7 2 3.5-.4a3 3 0 0 1 2.8-2c2 0 2 .2-.7 2.3-2.8 2.3-2.8 2.4-.8 3 1.2.2 2.3 0 2.5-.8.5-1.2 3.4-1.4 5.2-.3.6.3 1.5 0 2.2-.7 1-1 .4-1.7-2.5-3.1-2-1-4-2.4-4.4-2.9-.4-.5-.8-.6-.8-.1 0 .4-1.1.1-2.5-.8-2.8-1.8-3.9-2-3-.6.3.6-.4 1-1.7 1h-2.3l2.2-2 2.3-1.8-3-1c-1.7-.6-3.7-.9-4.5-.6-1 .4-2-.4-2.8-2.3-.6-1.6-1.7-2.8-2.3-2.6-.6.2-1.4-.3-1.7-1-.4-1 .4-1.9 2.5-2.6 2.6-1 2.9-1.3 1.8-2.6-1-1.3-1-1.5.8-1.5 1.2 0 2.4-.5 2.7-1 .3-.5-.3-1-1.4-1-1 0-2.3-.5-2.6-1-.3-.5-.2-1 .4-1 .6 0 .8-.7.4-1.7s-.3-1.4.5-.9c.7.4 1.2.3 1.2-.3 0-1.4-1.8-2.3-2.4-1.3-.7 1.1-5.6.3-5.6-1 0-.4-.9-.8-1.9-.8-1.2 0-2.3-1-3-3-.5-1.7-1.7-3.3-2.5-3.6a1.6 1.6 0 0 1-1-1.9c.7-1.6-3-5.5-5.1-5.5-.9 0-1.5-.6-1.4-1.3.4-3.1-.2-3.7-4.2-3.7-3.6 0-4-.2-2.9-1.5.7-.8 2.1-1.5 3.2-1.5 1.3 0 1.8-.5 1.5-1.4-.3-.7 0-1.9.6-2.5.8-.8.8-1.1 0-1.1-1.5 0-2.3-3.8-1-4.4.7-.2.2-.5-1-.5s-2.5-.6-2.8-1.1c-.4-.6-1-.8-1.5-.5-.4.3-1-.2-1.3-1-.8-2 4.4-2.4 6.1-.5 1.2 1.3 1.3 1.3.9-.1-.4-1.2 0-1.6 1.1-1.4 1 .1 1.1 0 .4-.2-.7-.3-1-.9-.7-1.4.4-.5.1-.9-.4-.9-.6 0-1-.3-.9-.8.4-1.5-1.4-5.2-2.3-4.7-.5.4-.9-.1-.9-1 0-1.3.4-1.4 2-.5 1.2.6 3 1 4.3.8 3-.4-6.2-4.8-10.2-4.8-1.6 0-3.6-.7-4.5-1.5-1.9-1.9-2.7-2-2 0m287.6 80.2c-1.3.3-2.2 1.2-2.2 2.3 0 2-2.8 3.4-5.3 2.5-2.6-1-2.8 1.1-.2 2.5 2 1 3 1 5 .2 1.5-.7 3.1-1 3.7-.6 1.5 1 2.9-1.8 1.6-3.3-.8-1-.6-1.3.5-1.3.8 0 1.7.6 2 1.4.4.9 1.5 1.2 3.3.8 2.5-.4 2.6-.3 2.2 2.2-1 5.2 5.4 8 7.2 3.1 1.2-3.2 3-3.2 3-.1 0 1.6.7 2.6 2.1 3 1.2.2 1.8 1 1.4 1.5-.3.6 0 1.1.9 1.1.8 0 2 .7 2.4 1.6.7 1.3 1.3 1.4 3 .5 1.5-.8 2.2-.8 2.2-.1 0 1.7 2.5 1.1 3.8-1 .7-1.1 1.9-2 2.7-2 1.3 0 1.3-.3-.1-2.5-1-1.5-2.3-2.4-3-2-.8.2-1.4-.2-1.4-1 0-.7-1.1-2-2.5-3-1.5-.9-2.5-1.1-2.5-.4 0 .6-1.4 0-3-1.5-3-2.5-6.7-3.6-5.5-1.6.4.6-.2.9-1.2.7a87 87 0 0 1-9.3-2.4c-2-.8-8-1-10.8-.6m3 19.2c-.2.9-1 1.1-2.6.7-3.1-.8-4.8 3-2.2 5 .8.6 1.3 1.4 1 1.7-.4.4-.1 1.3.6 2.2.7.8.9 1.5.5 1.5-.5 0 0 .9 1 2 2.5 2.8 3 2.6 5-2 1.5-3.3 2.2-3.9 4-3.4 2.1.5 2.4.2 2.3-2.5-.1-3.3-1.5-4.1-2.4-1.6-.4.8-1.5 1.5-2.5 1.5s-1.9-.7-1.9-1.5-.4-1.5-1-1.5c-.4 0-1-.8-1.3-1.8-.3-1-.5-1-.6-.3m2.9 18.6c0 .8-.5 1.4-1.1 1.3-.6-.2-1.4.3-1.6 1-.3.7.3 1.2 1.4 1.2 1.6 0 1.6.2-.3 1.8-3.2 2.5-4.3 6.7-1.6 6 2.2-.6 4 2.7 1.8 3.6-.6.2.2.5 1.8.5 2.3 0 2.6.4 1.7 1.5-1.7 2 .3 3 2.8 1.5 1-.7 1.7-1.9 1.4-2.6-.4-1 0-1.1 2-.3 1.5.5 2.7.6 2.7.3 0-.4.5-.2 1.1.4 1.4 1.4 4.4-1 3.4-2.7-.3-.5-.2-1 .4-1 .5 0 1.6-.2 2.3-.5 1-.4 1.3.3 1 3.2-.2 2.1 0 3.3.5 2.7 1-1.3 4.3-1.5 4.3-.2 0 .4.5.8 1 .8 2 0 1-3-1.8-5.8a16 16 0 0 1-3-3.5c-.1-.4-.4-.7-.7-.7h-2c-1 0-1.3.5-1 1 .3.5.1 1-.4 1-.6 0-1.1-.5-1.1-1s-.7-1-1.5-1-1.5-.6-1.5-1.3c0-.8-.4-.7-1 .3-.5.8-1 1-1 .4 0-1.7-3.4-1.2-4.2.6-.5 1.1-.7 1-.7-.7 0-1.2-1-2.4-2.1-2.8-2.1-.7-2.6-2-1-3 1-.7.2-3.5-1.1-3.5-.5 0-.9.7-.9 1.5m87.5 55c-.3 2.5-1 4.3-1.6 4-.5-.4-2-.8-3.4-1-2.2-.5-2.4-.2-2.2 2.5.1 1.6.8 3 1.5 3 1.5 0 1.6 1.6.2 2.5-.6.4-.8 1-.5 1.6.4.5.1.9-.5.9s-1 1.2-1 2.8c.3 4.1.1 4.5-1.5 3.2-1.8-1.5-3.1.9-2.1 3.6s-.4 3.5-3.5 1.8c-3-1.5-3-1.5-2.4.8l.6 2.3-2-2.4-2.2-2.4.2 3.9c.2 5.3 1 8.4 2 8.4.4 0 .5-1.6.2-3.5-.4-2.3-.2-3.5.6-3.5 1.1 0 1.6 2.6 1.2 6.7-.1 1.7.2 2.1 1.4 1.7.9-.4 1.5 0 1.5.7s-.3 1-.7.6c-.3-.4-1.2.1-2 1-.7 1.1-1.2 1.3-1.3.5 0-.6-1.1-1.2-2.4-1.2-3.2 0-3.6-.9-2.6-5.4.5-2.1.6-4.4.4-5-.5-1.3-5.4-1.8-5.4-.5 0 2.9-6.8-.5-7.1-3.6-.1-.5-1-1.6-2-2.3-2.6-1.8-5.5.6-3.3 2.6.8.7 1.4 1 1.4.7 0-.4.7 0 1.6 1 .8.8 1.3 1.9 1 2.3-.3.5.7 1.5 2.2 2.3 5.4 2.8 7.9 9.3 4 10.8-1.8.6-1.7.8.7 3 2.6 2.5 3.2 2 2.6-2.6-.1-.7.5-1.3 1.4-1.3.8 0 1.5.5 1.5 1 0 .6.4.9 1 .5.5-.3.8.4.7 1.5 0 1-.5 2-1 2-.4 0-.6.4-.2 1 .3.5 1.2.7 2 .3 1-.4 1.3 0 .9 1-.4 1.2 0 1.7 1 1.7s2 .6 2.2 1.4c.3.9 1.2 1.2 2.1.9 1.4-.5 1.3-1-.6-2.4-1.2-1-2-2.4-1.6-3 .4-.6 1-.7 1.4-.2a22 22 0 0 0 6.7 4.3c.3 0 .4-.6 0-1.4-.2-.7 0-1.8.6-2.4.6-.6.6-1.2-.2-1.7s-.6-1 .5-1.9c1.3-1 1.5-2 1-5-.7-3.3-.9-3.5-2-1.9-1.1 1.4-1.6 1.6-2.6.5-1-1-1-1.2 0-1.2.7 0 1-.4.7-1-1-1.5.5-4.2 1.8-3 2.3 1.8 4.1-1.1 3.7-5.9 0-.7-.7-1-1.6-.7-.8.3-1.5 0-1.5-.5s1.1-1.4 2.5-1.9 2.6-1.6 2.6-2.5c0-.8.3-2 .4-2.5l.4-3.6c0-1.6.6-2.4 1.4-2.1 1.7.5 1.6 4.9-.1 6.7-1 1-1.1 1.5-.3 1.8.6.2 1.1 1 1.1 1.8 0 .9-.5 1.2-1 .9-.5-.3-1 0-1 .9 0 .8.3 1.7.8 2 .6.3.8 7.1.2 7.1-.1 0-.3 1.5-.4 3.4 0 2-1 3.9-2 4.7-1.3.9-1.5 1.4-.7 1.4s2 .8 2.8 1.8c1.3 1.5 1.4 1.4.8-1.3-.5-2.4-.4-2.8.6-1.8 2.1 2.1 3.9 1.5 3.9-1.3 0-2.2-.3-2.4-1.4-1.5-2.2 1.9-2.6-1-.5-3.7 1.4-1.9 1.6-2.7.7-4.1-.6-1-.8-2.6-.3-3.7.4-1 .7-3.4.5-5.3-.2-4 1.7-5.7 4.2-3.4 1.7 1.5 1.8 1.4 1.8-.7 0-1.6-.4-2-1.5-1.6-1.7.6-2.2-7.8-.5-10.4.6-1 .4-2-.8-3.3-1.4-1.6-1.4-2-.2-2.7 1-.7 1.1-1 .3-1-.7 0-1.3-.7-1.3-1.5s-.8-1.5-1.9-1.5c-1.5 0-2 1-2.6 4.5m-58 3.2c-.4 1.3 4 11.2 5.6 12.3 1.1.8.3 7.8-1 9.4-.9 1-.9 1.6-.1 2 .6.4.8 1.1.5 1.6-.3.4.2 1 1 1.4 1 .3 1.5 0 1.5-1 0-.7.5-1.4 1-1.4s1-.7 1-1.6c0-.8.4-1.3.9-1 .5.3 1.2-.1 1.5-1 1-2.4.7-2.8-.9-1.4-1.3 1-1.5.9-1.6-1.1 0-1.3-.2-3.3-.4-4.3s.3-2.5 1.1-3.3c1.3-1.3 1.2-1.8-1.1-3.9-1.4-1.3-3-2.4-3.6-2.4-.6 0-.8-.4-.5-1 1-1.4-.4-3.8-2.4-4.3-1-.3-2.1.1-2.4 1m-45 18.4c-1 .6-1.6 2-1.4 3.2.1 1.2-.1 2.8-.6 3.6-.5.8-.4 1.6.4 2.1.7.5 1 1.9.8 3.4-.3 1.5-.1 3 .4 3.2.5.3.7 1.2.4 2-.2.6.2 1.5 1 1.8 1 .4 1.7-.7 2.5-3.7.6-2.4 2.4-5.4 4.1-6.9 3.3-3 3-5.3-.7-4.4-1.9.5-2.4 0-2.9-2.4-.6-3.2-1.1-3.5-4-1.9m99 24.7c-.4.7-.5 2.6-.1 4.2.4 1.9.3 3-.4 3-.6 0-1.1 1.5-1.2 3.3-.1 6-1 7.2-3.9 4.7-1.6-1.4-2-2.3-1.3-2.8.8-.5.8-1.2-.1-2.4-.7-1-1.6-1.5-2-1.1-.3.3-1.3 0-2.1-.7-1.5-1.2-1.6-1-1.2 2.8.3 2.3.1 4.2-.4 4.2s-1-.6-1-1.3c-.3-5.1-1.9-9.6-1.9-5.4 0 1-.5 1.7-1 1.7s-1-.8-1-1.7c0-.9-.3-1.3-.7-1-.9 1-3.3-1.3-3.3-3 0-1.1.7-1.3 2.5-.9 3.4.9 3.2 0-.5-1.7-2-1-3-1.2-3.5-.3-.4.8-.7.8-1-.1-.8-1.7-3.5-1.7-3.5 0 0 .7-1.3 2.3-3 3.7-3.1 2.6-3 4 .2 4 1.2 0 2.2.8 2.5 2 .3 1.3 1.1 1.9 2 1.6 1.6-.7 1.7.6.1 2.2-1 1-.8 1.2.4 1.2 1 0 2 .5 2.4 1.1.5.9 0 1-2 .5-2.8-.7-3.4.2-1.4 2.2 1 1 1 1.5-.2 2.3-1.3.8-1 1.4 1.5 3.4 1.6 1.4 2.6 2.5 2.1 2.5s-.3.7.4 1.5c1.4 1.7.5 3.6-1.5 2.8-.8-.3-1.5 0-1.5.5 0 .6-.9 1.4-2 1.7-2.3.7-2.7 2.5-.5 2.5 1 0 1.5 1 1.5 2.4 0 2-.4 2.3-2 1.9-1.1-.3-2-1-2-1.4 0-.5-.5-.9-1.1-.9-.7 0-.8.7-.4 1.8 1 2 1.8 10.2 1 10.2-.2 0-1.2-1.6-2-3.5-1.7-3.4-1.8-3.5-3.5-1.8-1.1 1.2-1.4 2.2-.8 3 .5.7.5 1.3-.3 1.5-1.5.5 1.4 6.3 3.6 7.2 1 .3 1.3 1 1 1.6-.3.6.5 1 1.9 1 1.3 0 2.6-.5 2.8-1 .5-1.5 7.8-.2 7.8 1.4 0 1.3 3.5 4.6 4.9 4.6.5 0 1.2-1.1 1.5-2.5.5-2 1.2-2.4 4.3-2.3 2 0 3.9-.4 4-1 .3-.6 1-.8 1.9-.5 2 .8 1.8-2.7-.5-5.6a6.5 6.5 0 0 1-1.3-4.8c.3-1.8.7-2.1 1.3-1.2 1.2 2 1.6 1 2.3-6.4.4-4.3.3-6.7-.4-6.7-.5 0-1 .6-1 1.4 0 .8-.8 2.2-1.7 3.1-1.3 1.4-1.4 2-.5 3.6.7 1.1.8 2 .2 2.4-.6.3-1.5-.5-2.2-2-.6-1.4-1.8-2.5-2.5-2.5-1.2 0-1.1-.3.2-1.6.9-1 1.4-2.3 1-3.1-.2-.8-.5-1.9-.5-2.4s-.7-.9-1.5-.9-1.5-.3-1.5-.6c0-1.5 3.7-3.3 6.8-3.4 3.1 0 3.2 0 3.2-4.5 0-2.5.7-6.2 1.5-8.2a21 21 0 0 0 1.5-5.3c0-1 .4-2 1-2.2.6-.2.7-2 .2-4.8-.5-2.8-1-4-1.6-3.2m-297.7 23c-.7 1.1-2 1.7-3 1.5-2.2-.6-4.6 3.4-3 5 1.6 1.6 1.4 3.7-.3 3.7-1.9 0-2.7 1.3-3.1 5.1-.3 1.7-1.1 3.6-2 4.3-2.2 1.6-3 12.5-1 15.1 1.1 1.6 1.4 1.7 1.5.5 0-.9-.5-2.1-1.2-2.8-.8-.8-.8-1.2-.1-1.2.6 0 1.3-.9 1.6-2 .3-1.1 0-2-.6-2s-.2-.7.9-1.6c1.6-1.3 1.6-1.5.1-1-2.7.9-2-.7 1.8-3.4 3.4-2.5 5.3-6.2 3.5-6.8-1.6-.6-1.2-3.2.4-3.2 2 0 3-2 1.7-3.3-1.5-1.5-1.4-3.7.3-3.7 1.6 0 6.6-3.8 6.6-5 0-1.7-3-1-4.1.9M457 959.2c-2 .5-4 1-4.8 1-.6 0-1.2.7-1.2 1.5 0 .7-.4 1.3-1 1.3s-1-.6-1-1.3c0-.8-.3-.8-1 .2-.6 1.1-1 1-2.1-.8-1.6-2.4-3.1-2.9-2.3-.6.4.8.2 1.5-.4 1.5-.6 0-.8.9-.5 2 .4 1.6 1.2 1.8 5.2 1.4 3.6-.4 5-.1 6 1 1.9 2.2 1 2.9-2.3 1.6-3.9-1.4-6.4-1.4-4.8.2.7.7 1.2 2 1.2 2.9 0 1.8 3.9 3.3 6.3 2.3.8-.3 2.4.5 3.6 1.7 1.4 1.5 2.1 1.8 2.1.9 0-1 .3-1.1 1.2-.2 1.6 1.6-2 5.7-3.7 4.2-.6-.5-1.5-.7-1.8-.3-.4.3-.7-.1-.7-1 0-1.8-2.9-3.7-5.5-3.7-1.2 0-1.4.4-.5 2 1.7 3.2 0 4.1-3.8 2-1-.5-4-1.6-7-2.5-5.1-1.6-7.4-3.8-3-2.8 2.2.4 2.2.3-.2-1.1l-2.5-1.5 2.5-.1 2.5-.1-2.3-1c-1.7-.6-2.8-.5-3.9.6-1.6 1.7-3.3 1.2-3.3-1 0-.7-.7-1.6-1.6-1.9-1.3-.5-1.4-1-.5-2 1-1.2.3-1.5-3.8-2-2.8-.5-5.5-.5-6.1 0-.7.3-1.4-.3-1.7-1.5-.6-2.2-3.7-2.8-6.3-1.1-1.8 1.1-1.6 1.3 4.3 4 4.2 1.8 7 5.1 3.2 3.6-.8-.3-1.5 0-1.5.5 0 .6-.9.9-2 .6-1.5-.4-1.9 0-1.7 1.3.4 2.7 2.7 5 4.8 5 1 0 1.9.7 1.9 1.5 0 1.8 1.1 2 3 .3 1-1 1.1-.8.6 1.4-.6 2.8 1.7 6.3 3.5 5.2 1.5-.9 6 .5 5.4 1.6-.4.6.1 1.3 1 1.6 1.4.6 1.4.9.3 1.6-1 .8-.9.9.4.5 1-.3 1.9 0 2.1.6.2.7.8.9 1.2.4.5-.4-.4-2-1.9-3.6-1.8-1.8-2.3-3-1.5-3.3 1.7-.6-3.2-5.7-6-6-3.2-.6-3.4-1.4-.6-2.6 2-1 2.5-.9 2.5.4 0 .8.4 1.2 1 1 .5-.4 2.7.2 5 1.3 2.2 1 4.8 1.7 5.9 1.4 1.5-.4 1.9 0 1.9 2.2 0 3 1 4.4 2 2.8 1-1.6 14 1.7 13.5 3.5-.5 1.4 1.3 1.6 2.2.2.4-.6 1.2-.7 1.8-.3.6.4 3.2.8 5.7 1 6.4.4 6.9.5 7.4 1.9s13.6 1.8 13.6.3c0-1-2-1.3-5.4-1-1.3 0-1.6-.3-1.2-1.5.5-1.2.2-1.5-1-1-1.1.4-1.5.2-1.1-.7.4-1-.3-1.4-2.4-1.3-2.9.1-4.2 1.6-1.4 1.6.8 0 1.5.5 1.5 1 0 1.3-.6 1.3-3 0-1.2-.6-1.8-1.5-1.5-2 .4-.6.3-1.5 0-2.1-.5-.8-1-.7-1.6.2-.6 1-1.2.4-2.3-2.1-1.4-3.3-1.4-3.5.7-4l2.2-.6-2.3-.8c-1.2-.4-2.2-1.3-2.2-2 0-.6-1-1.7-2.2-2.5-2-1.2-2-1.4-.5-2.3 1-.5 2.1-.7 2.6-.3 1.7 1 2.2-1.3.6-2.8-1.9-2-2-2.8-.1-2.1.7.3 2-.2 2.9-1 .8-.8 1.7-1.2 2-.9.4.4.7.2.7-.4 0-2.9-9-4.8-15-3.1m-61.7 22.6c-1.2 1-2.5 3-2.9 4.5-.5 2.4-1 2.8-3 2.3-2.4-.6-8.8.3-8 1.2.3.3-.2 1.8-1.2 3.4-1.6 2.8-1.6 3 0 4 1 .5 1.6 1.4 1.2 1.9-1 1.5 1.6 3.9 4.2 3.9a6 6 0 0 1 3.8 1.6c.9.8 1.6 1 1.6.5s.9-1.3 2-1.6c1.1-.3 2-1 2-1.5s-.6-.7-1.3-.4c-2.3.8-4-2-2.2-3.6 1.2-1 1.5-1 1.5.4 0 .9.5 1.6 1 1.6.6 0 1-.6.8-1.3-.2-.6.2-1.3.7-1.5.6 0 1 .3 1 .8s.3 1 .8 1h1.4c.5 0 .9-1.5 1-3.3.2-2 0-2.7-.6-1.8-.5.7-1 1-1.4.5-.7-1.3 2.8-5.4 4.7-5.4 2.5 0 2.8 1.8.6 4-1.2 1.2-2 2.8-1.6 3.5.3.8 0 1.7-.5 2-1.8 1.2 1.3 2.5 4 1.8 2-.5 2.2-.3 2 2.3-.3 1.8 0 2.9.9 2.9 1.6 0 1.6 2 0 2-3.2.4-3.8.5-3.7 1.3.3 2-.3 3-2.1 3.5-1.1.3-2.2.2-2.4-.2-.3-.4-2-.8-3.7-1-3-.1-3.2 0-1.7 1.6.8 1 1.3 2.4 1 3-.2.9.6 1.2 2.7 1 2.8-.4 3-.2 2.5 2-.4 1.4-.2 2.3.6 2.3.6 0 1.8.7 2.6 1.5 1.8 1.7 7.4 2 7.4.4 0-.5.4-.8 1-.5 1.2.9 4-.4 3.4-1.6-.3-.5-1.2-.7-2-.4-.8.3-1.4.2-1.5-.2l-.5-3.7c-.6-5-.3-10 .9-11 .4-.5.7-2 .7-3.3 0-1.7.4-2.2 1.4-1.9 1.6.6 4-1.6 3-2.6-.4-.4-.2-.7.4-.7.5 0 1.2.5 1.4 1 .2.7 1.4.9 3 .5s2.5-1.2 2.2-1.7c-.4-.5.2-.8 1.1-.6 2.3.4 3 5.8.9 5.8-1.1 0-1.2.4-.4 2 1.4 2.5 1.4 6.2 0 4-.5-.8-1-1-1-.5 0 .6-1.7.9-3.9.7-4.3-.4-5.9.9-3.7 3.1.8.8 1.2 1.7.9 2-.4.4.1.7 1 .7 1 0 1.5.5 1.2 1-1 1.5.4 1.2 2-.4 1-1 2.7-1.3 4.8-1 4.1.7 7.6-2.3 3.9-3.3-2.6-.6-2.6-.7-1-3.6.7-1.2 1-3.4 1-4.9-.2-1.4.1-2.9.7-3.2.6-.4.8-1.3.5-2.1-.4-.8-1-1.2-1.5-1-.5.4-.9.1-.9-.4 0-.6-1.1-1.1-2.5-1.1s-2.5-.5-2.5-1.1c0-.7-1-.4-2.6.6a7.3 7.3 0 0 1-5.5 1.1c-2.9-.5-4 .8-1.6 1.7.6.3 0 .6-1.4.6-2.6.1-7.5-4-6.3-5.2 1.3-1.3 1.2-5.6-.2-6.8-2-1.7-8 .2-7.8 2.4.2 1.8-2 2.4-3 .8-.3-.5 0-2.2.9-3.7 2.5-4.8 1.7-5.7-2.2-2.6m113 8.4c-4.9 4.7-7.1 9.8-4.3 9.8 1 0 9.2-4 10-5 .3-.3 2.5-1.2 4.9-2 2.4-.8 3.9-1.6 3.2-1.8-.6-.2-1.1-1-1.1-1.8 0-1.2-4.8-4.4-6.7-4.4-.5 0-3.2 2.3-6 5.1m-200 1.6c-2 .4-2.1 1-2.1 8 0 5-.5 7.9-1.3 8.4-1 .5-.8 1.4.6 3.5 1 1.6 2 2.4 2.2 1.7.2-.6 1.3-.9 2.3-.6 1.4.4 2 0 2-1 0-2.1 1.8-3.1 3.3-1.8.8.6 1.8.6 2.7 0 1.3-.8 1.3-1 0-2.2a35.1 35.1 0 0 1-6.3-12.5c0-.6-.3-1.2-.8-1.2s-.6-.7-.3-1.5c.4-.8.5-1.4.3-1.4l-2.6.6" fill="#b69420" fill-rule="evenodd"/></svg>