<svg xmlns="http://www.w3.org/2000/svg" viewBox="0 0 1024 1024"><filter id="b"><feGaussianBlur stdDeviation="12" /></filter><path fill="#5b4d1f" d="M0 0h1024v1024H0z"/><g filter="url(#b)" transform="matrix(4 0 0 4 2 2)" fill-opacity=".5"><path fill="#e7e0e0" d="M132 194.2l-56.3-38 54.2-80.4 56.4 38z"/><ellipse fill="#100500" cx="13" cy="149" rx="33" ry="255"/><ellipse fill="#c7b09c" rx="1" ry="1" transform="matrix(27.44434 -35.76907 14.2859 10.96107 76.7 90)"/><ellipse fill="#d8b906" cx="107" cy="250" rx="29" ry="29"/><path fill="#231b00" d="M-8-14.8L243-59l13 73.9L5 59z"/><path fill="#554300" d="M151.5 167.1L139 134.5l35.5-13.6 12.5 32.6z"/><ellipse fill="#000411" rx="1" ry="1" transform="matrix(11.49574 -1.23712 4.5358 42.14803 76.5 162.4)"/><ellipse fill="#ab8e70" cx="111" cy="85" rx="73" ry="21"/></g></svg>