<svg xmlns="http://www.w3.org/2000/svg" viewBox="0 0 300 300"><filter id="prefix__a"><feGaussianBlur stdDeviation="12"/></filter><rect width="100%" height="100%" fill="#93805f"/><g filter="url(#prefix__a)"><g stroke-linecap="round"><path fill="rgba(194,167,24,255)" stroke="rgba(194,167,24,255)" d="M300 300H0l137-56 163 56"/><path fill="rgba(59,46,0,255)" stroke="rgba(59,46,0,255)" d="M0 300V0l39 181L0 300"/><path fill="rgba(64,45,3,255)" stroke="rgba(64,45,3,255)" d="M137 244 0 300l39-119 98 63"/><path fill="rgba(157,130,100,255)" stroke="rgba(157,130,100,255)" d="m0 0 204 127-58 31L0 0"/><path fill="rgba(133,114,72,255)" stroke="rgba(133,114,72,255)" d="M39 181 0 0l146 158-107 23"/><path fill="rgba(86,80,70,255)" stroke="rgba(86,80,70,255)" d="m137 244-98-63 107-23-9 86"/><path fill="rgba(75,64,9,255)" stroke="rgba(75,64,9,255)" d="M0 0h300l-48 86L0 0"/><path fill="rgba(95,79,28,255)" stroke="rgba(95,79,28,255)" d="M204 127 0 0l252 86-48 41"/><path fill="rgba(82,62,15,255)" stroke="rgba(82,62,15,255)" d="M300 0v300L252 86l48-86"/><path fill="rgba(66,69,4,255)" stroke="rgba(66,69,4,255)" d="m300 300-163-56 97-87 66 143"/><path fill="rgba(213,200,167,255)" stroke="rgba(213,200,167,255)" d="m137 244 9-86 88-1-97 87"/><path fill="rgba(160,145,124,255)" stroke="rgba(160,145,124,255)" d="m146 158 58-31 30 30-88 1"/><path fill="rgba(100,77,31,255)" stroke="rgba(100,77,31,255)" d="m204 127 48-41-18 71-30-30"/><path fill="rgba(92,72,25,255)" stroke="rgba(92,72,25,255)" d="m252 86 48 214-66-143 18-71"/></g></g></svg>