<svg xmlns="http://www.w3.org/2000/svg" width="1024" height="1024" viewBox="0 0 1024 1024"><filter id="a"><feGaussianBlur stdDeviation="55"/></filter><rect width="100%" height="100%" fill="#5b4d1f"/><g filter="url(#a)"><g transform="matrix(4 0 0 4 2 2)" fill-opacity=".5"><ellipse fill="#bfb3ab" rx="1" ry="1" transform="rotate(-30.5 273 -147.1) scale(52.33247 71.94989)"/><ellipse fill="#110500" rx="1" ry="1" transform="matrix(-39.95631 2.0241 -12.9012 -254.67343 7.8 149.2)"/><path fill="#050000" d="M119 93l-53 67.7L51 149l53-67.7z"/><ellipse fill="#dad8ca" rx="1" ry="1" transform="rotate(62.7 -71.2 182.8) scale(33.42759 19.83657)"/><ellipse fill="#292000" cx="91" cy="17" rx="204" ry="28"/><ellipse fill="#d1b207" rx="1" ry="1" transform="matrix(6.05817 26.24084 -29.37867 6.7826 106.4 248.2)"/><ellipse fill="#c8b5a5" cx="146" cy="108" rx="41" ry="21"/><ellipse fill="#554700" cx="210" cy="179" rx="65" ry="65"/></g></g></svg>