<svg enable-background="new 0 0 490.667 490.667" viewBox="0 0 490.667 490.667" xmlns="http://www.w3.org/2000/svg"><g fill="#fff"><path d="m85.323 96c12.949-9.749 21.355-25.237 21.355-42.667-.001-29.397-23.937-53.333-53.334-53.333s-53.333 23.936-53.333 53.333c0 5.888 4.778 10.667 10.666 10.667s10.667-4.779 10.667-10.667c0-17.643 14.357-32 32-32s32 14.357 32 32-14.357 32-32 32h-21.333c-5.888 0-10.667 4.779-10.667 10.667s4.779 10.667 10.667 10.667h21.333c17.643 0 32 14.357 32 32s-14.357 32-32 32-32-14.357-32-32c0-5.888-4.779-10.667-10.667-10.667s-10.667 4.779-10.667 10.667c.001 29.397 23.937 53.333 53.334 53.333s53.333-23.936 53.333-53.333c0-17.43-8.405-32.918-21.354-42.667z"/><path d="m224.011 106.667h-42.667c-5.888 0-10.667 4.779-10.667 10.667s4.779 10.666 10.667 10.666h32v10.667c0 17.643-14.357 32-32 32s-32-14.357-32-32v-85.334c0-17.643 14.357-32 32-32s32 14.357 32 32c0 5.888 4.779 10.667 10.667 10.667s10.667-4.779 10.667-10.667c-.001-29.397-23.937-53.333-53.334-53.333s-53.333 23.936-53.333 53.333v85.333c0 29.397 23.936 53.333 53.333 53.333s53.333-23.936 53.333-53.333v-21.333c0-5.888-4.778-10.666-10.666-10.666z"/><path d="m217.76 260.437c-10.304-4.267-22.016-1.941-29.888 5.952l-41.685 41.685c-11.733 11.733-18.176 27.307-18.176 43.861v111.296c0 15.125 12.309 27.435 27.435 27.435h51.797c15.125 0 27.435-12.309 27.435-27.456v-177.429c-.001-11.136-6.635-21.077-16.918-25.344zm-4.416 202.795c0 3.371-2.731 6.101-6.101 6.101h-51.819c-3.371 0-6.101-2.731-6.101-6.101v-111.296c0-10.88 4.245-21.099 11.925-28.779l41.685-41.685c1.408-1.408 2.923-1.813 4.181-1.813 1.067 0 1.941.299 2.475.512 1.109.469 3.755 1.963 3.755 5.632z"/><path d="m89.739 388.48c-10.283-4.267-22.016-1.941-29.888 5.952l-49.429 49.429c-7.872 7.872-10.219 19.605-5.952 29.888 4.267 10.261 14.208 16.917 25.344 16.917h49.429c15.125 0 27.435-12.309 27.413-27.413v-49.429c0-11.136-6.635-21.077-16.917-25.344zm-4.395 74.752c0 3.371-2.731 6.101-6.101 6.101h-49.43c-3.669 0-5.163-2.645-5.632-3.776-.469-1.152-1.28-4.053 1.323-6.656l49.429-49.429c1.408-1.408 2.923-1.813 4.181-1.813 1.067 0 1.941.299 2.475.512 1.109.469 3.755 1.963 3.755 5.632z"/><path d="m473.739 4.437c-10.304-4.267-22.016-1.941-29.888 5.952l-41.685 41.685c-11.733 11.733-18.176 27.307-18.176 43.861v367.296c0 15.125 12.309 27.435 27.435 27.435h51.819c15.125 0 27.435-12.309 27.413-27.456v-433.429c-.001-11.136-6.636-21.077-16.918-25.344zm-4.395 458.795c0 3.371-2.731 6.101-6.101 6.101h-51.819c-3.371 0-6.101-2.731-6.101-6.101v-367.296c0-10.88 4.245-21.099 11.925-28.779l41.685-41.685c1.408-1.408 2.923-1.813 4.181-1.813 1.067 0 1.941.299 2.475.512 1.109.469 3.755 1.963 3.755 5.632z"/><path d="m345.739 132.437c-10.304-4.267-22.016-1.941-29.888 5.952l-41.685 41.685c-11.733 11.733-18.176 27.307-18.176 43.861v239.296c0 15.125 12.309 27.435 27.435 27.435h51.819c15.125 0 27.435-12.309 27.413-27.456v-305.429c-.001-11.136-6.636-21.077-16.918-25.344zm-4.395 330.795c0 3.371-2.731 6.101-6.101 6.101h-51.819c-3.371 0-6.101-2.731-6.101-6.101v-239.296c0-10.88 4.245-21.099 11.925-28.779l41.685-41.685c1.408-1.408 2.923-1.813 4.181-1.813 1.067 0 1.941.299 2.475.512 1.109.469 3.755 1.963 3.755 5.632z"/></g></svg>