<svg enable-background="new 0 0 60 60" viewBox="0 0 60 60" xmlns="http://www.w3.org/2000/svg"><g fill="#000"><path d="m54 58h-3v-4h-5v-10.222c0-2.7-1.342-5.208-3.589-6.706l-10.608-7.072 10.608-7.072c2.247-1.498 3.589-4.006 3.589-6.706v-10.222h5v-4h3c.552 0 1-.447 1-1s-.448-1-1-1h-3-1-40-1-3c-.552 0-1 .447-1 1s.448 1 1 1h3v4h5v10.222c0 2.7 1.342 5.208 3.589 6.706l10.608 7.072-10.608 7.072c-2.247 1.498-3.589 4.006-3.589 6.706v10.222h-5v4h-3c-.552 0-1 .447-1 1s.448 1 1 1h3 1 40 1 3c.552 0 1-.447 1-1s-.448-1-1-1zm-43-54v-2h38v2h-3-32zm7.698 17.264c-1.689-1.127-2.698-3.012-2.698-5.042v-10.222h28v10.222c0 2.03-1.009 3.915-2.698 5.042l-11.302 7.534zm-2.698 22.514c0-2.03 1.009-3.915 2.698-5.042l11.302-7.534 11.302 7.534c1.689 1.127 2.698 3.012 2.698 5.042v10.222h-28zm-5 12.222h3 32 3v2h-38z"/><path d="m20.917 17.936c-.574-.383-.917-1.024-.917-1.714v-2.222c0-.553-.448-1-1-1s-1 .447-1 1v2.222c0 1.361.676 2.624 1.808 3.378l4.638 3.092c.17.113.363.168.554.168.323 0 .64-.156.833-.445.306-.46.182-1.08-.277-1.387z"/><path d="m40.192 41.26-4.638-3.092c-.46-.307-1.08-.183-1.387.277-.306.46-.182 1.08.277 1.387l4.638 3.092c.575.383.918 1.023.918 1.714v2.222c0 .553.448 1 1 1s1-.447 1-1v-2.222c0-1.362-.676-2.624-1.808-3.378z"/></g></svg>