<svg xmlns="http://www.w3.org/2000/svg" width="300" height="225" viewBox="0 0 300 225"><g stroke-linecap="round"><path fill="rgba(57,52,70,255)" stroke="rgba(57,52,70,255)" d="M0 0h300l-31 42L0 0"/><path fill="rgba(194,112,88,255)" stroke="rgba(194,112,88,255)" d="M151 126 0 0l269 42-118 84"/><path fill="rgba(70,118,96,255)" stroke="rgba(70,118,96,255)" d="M300 0v225L269 42l31-42"/><path fill="rgba(239,108,80,255)" stroke="rgba(239,108,80,255)" d="m151 126 118-84-17 46-101 38"/><path fill="rgba(144,131,161,255)" stroke="rgba(144,131,161,255)" d="m269 42 31 183-48-137 17-46"/><path fill="rgba(84,81,36,255)" stroke="rgba(84,81,36,255)" d="m0 225 151-99 87 38L0 225"/><path fill="rgba(152,131,148,255)" stroke="rgba(152,131,148,255)" d="m151 126 101-38-14 76-87-38"/><path fill="rgba(73,81,92,255)" stroke="rgba(73,81,92,255)" d="M300 225H0l250-49 50 49"/><path fill="rgba(34,47,67,255)" stroke="rgba(34,47,67,255)" d="m0 225 238-61 12 12L0 225"/><path fill="rgba(209,190,134,255)" stroke="rgba(209,190,134,255)" d="m252 88 48 137-50-49 2-88"/><path fill="rgba(197,175,76,255)" stroke="rgba(197,175,76,255)" d="m238 164 14-76-2 88-12-12"/><path fill="rgba(142,65,47,255)" stroke="rgba(142,65,47,255)" d="M0 225V0l51 111L0 225"/><path fill="rgba(71,75,76,255)" stroke="rgba(71,75,76,255)" d="m0 0 151 126-100-15L0 0"/><path fill="rgba(167,145,108,255)" stroke="rgba(167,145,108,255)" d="M151 126 0 225l51-114 100 15"/></g></svg>