<svg xmlns="http://www.w3.org/2000/svg" width="300" height="225"><rect width="100%" height="100%" fill="#968658"/><g fill-opacity=".5"><path fill="#373452" d="M5.3-18.2-17 243.2l335.2-20z"/><path fill="#54435c" d="m39.3-18.2 266 261.4 12.9-256.7z"/><path fill="#c4a049" d="m172.9 120.1-105.5 61 198-37.5z"/><path fill="#213857" d="M226.8 181 66.2 210.5l193.4 32.8z"/><path fill="#33484d" d="m197.5 10 105.4-28.2 2.4 120.7z"/><path fill="#ffd519" d="M17 243.2h70.3l-21-37.5z"/><path fill="#dd9b7f" d="M148.2 27.5 136.5-10 60.4 38z"/><path fill="#f1b12b" d="m176.4 94.3-58.6-15.2 72.6-5.9z"/><path fill="#38454c" d="m15.8 119 34-59.8 198 56.2z"/><path fill="#bda364" d="m46.3 172.9 52.7-1.2-19.9-55.1z"/><path fill="#ff8360" d="m223.2 48.6 51.6 38.7-10.5-27z"/><path fill="#ac8e58" d="m61.5 42.8-66.8-3.5 25.8 53.9z"/><path fill="#e18548" d="m122.5 65 70.3-11.7-83.2-9.4z"/><path fill="#e27f66" d="m298.2 156.4-34 45.7v-45.7z"/><path fill="#121c35" d="M42.8 160-10 243.2l38.7-11.8z"/><path fill="#051345" d="M126-15.8 54.5 14.6 32.2-18.2z"/><path fill="#ac9bd8" d="M288.9 129.5 249 114.3l69.2 1.1z"/><path fill="#dc9070" d="m18.2 202.1-24.6-64.4-11.8 91.4z"/><path fill="#ff9d54" d="M52.1 194 30 209.1l12.9 5.8z"/><path fill="#f9c06b" d="m245.5 89.6-23.4 4.7-2.4 24.6z"/><path fill="#ffa17c" d="m160 41.6 34-15.2-42.2 3.5z"/><path fill="#d09464" d="M38 3 18.3 14.5l34 47z"/><path fill="#ffa567" d="m135.4 191.6 10.5-16.4-16.4-12.9z"/><path fill="#efab63" d="m45.1 149.4-12.9-18.7 27-4.7z"/><path fill="#cc8852" d="m124.8 73.2 34 48 4.7-16.3z"/><path fill="#204255" d="m286.5 61.5-19.9 51.6 41 1.2z"/><path fill="#31404e" d="m224.4 196.3-141.8-9.4 2.4 56.3z"/><path fill="#ff6b55" d="m264.3 33.4 16.4 7V20.5z"/><path fill="#212331" d="m21.7 202.1 35.1-24.6 48 4.7z"/><path fill="#343437" d="M102.5 67.4 117.8 31 38 93z"/><path fill="#281c33" d="m136.5 79.1 17.6-43.4-25.8 34z"/><path fill="#c4b679" d="m181 185.7 28.2-62 10.5 24.5z"/><path fill="#c0dd9e" d="m75.6 187 8.2 21-20-10.5z"/><path fill="#232239" d="m66.2 156.4-5.8-15.2-55.1 29.3z"/><path fill="#97a765" d="m236.1 134.2 35.2-57.4-9.4 73.8z"/><path fill="#0f1621" d="m216.2 178.7-10.5-5.8 23.4-34z"/><path fill="#1f0d35" d="M172.9 170.5 135.4 160l28 27z"/><path fill="#101629" d="M244.3 67.4 214 66.2l-9.4 16.4z"/><path fill="#32446d" d="m273.6 242 44.6-93.8-65.7 66.8z"/><path fill="#1d3847" d="m318.2 145.9-54-18.8v22.3z"/><path fill="#d0bfaa" d="m286.5 192.8 31.7 12.9h-36.4z"/><path fill="#54595d" d="m86.1 164.6 47-3.5-10.6-105.4z"/><path fill="#fc7136" d="m113 163.5-14 29.3 14-4.7z"/><path fill="#5b5176" d="m156.4 140-77.3-22.2 158.2-3.5z"/><path fill="#cf9f33" d="m177.5 167-56.2-30.5 50.4 5.9z"/><path fill="#221422" d="m151.8 31-20 17.6L112 38.1z"/><path fill="#46584d" d="m33.4 41.6 38.7 41L4 78z"/><path fill="#d6c053" d="M51 102.5 34.6 83.8 11 81.4z"/><path fill="#e77c79" d="m196.3 21.7-2.4 24.6 17.6 27z"/><path fill="#1c141b" d="m174 78 18.8-7.1 10.5-23.4z"/></g></svg>