<svg xmlns="http://www.w3.org/2000/svg" width="300" height="225" viewBox="0 0 300 225"><g filter="blur(20px)"><rect width="200%" height="200%" x="-50%" y="-50%" fill="#968658"/><g stroke-linecap="round"><path fill="rgba(126,140,149,255)" stroke="rgba(126,140,149,255)" d="M300 225H0l252-11 48 11"/><path fill="rgba(148,132,171,255)" stroke="rgba(148,132,171,255)" d="M300 0v225l-60-91L300 0"/><path fill="rgba(80,106,127,255)" stroke="rgba(80,106,127,255)" d="m300 225-48-11-12-80 60 91"/><path fill="rgba(47,51,74,255)" stroke="rgba(47,51,74,255)" d="m0 0 147 92-53 36L0 0"/><path fill="rgba(108,78,94,255)" stroke="rgba(108,78,94,255)" d="m147 92 93 42-146-6 53-36"/><path fill="rgba(159,159,109,255)" stroke="rgba(159,159,109,255)" d="m240 134 12 80-158-86 146 6"/><path fill="rgba(49,57,30,255)" stroke="rgba(49,57,30,255)" d="M0 225V0l44 174-44 51"/><path fill="rgba(134,144,137,255)" stroke="rgba(134,144,137,255)" d="m0 0 94 128-50 46L0 0"/><path fill="rgba(35,37,48,255)" stroke="rgba(35,37,48,255)" d="M252 214 0 225l44-51 208 40"/><path fill="rgba(84,81,36,255)" stroke="rgba(84,81,36,255)" d="m94 128 158 86-208-40 50-46"/><path fill="rgba(82,85,100,255)" stroke="rgba(82,85,100,255)" d="M0 0h300l-31 24L0 0"/><path fill="rgba(84,64,61,255)" stroke="rgba(84,64,61,255)" d="M147 92 0 0l269 24-122 68"/><path fill="rgba(76,127,108,255)" stroke="rgba(76,127,108,255)" d="m300 0-60 134 29-110 31-24"/><path fill="rgba(174,89,82,255)" stroke="rgba(174,89,82,255)" d="m240 134-93-42 122-68-29 110"/></g></g></svg>