<svg xmlns="http://www.w3.org/2000/svg" width="300" height="225" viewBox="0 0 300 225"><g filter="blur(20px)"><rect width="200%" height="200%" x="-50%" y="-50%" fill="#968658"/><g stroke-linecap="round"><path fill="rgba(103,101,122,255)" stroke="rgba(103,101,122,255)" d="M0 0h300L143 53 0 0"/><path fill="rgba(78,82,74,255)" stroke="rgba(78,82,74,255)" d="M39 37 0 0l143 53L39 37"/><path fill="rgba(51,67,78,255)" stroke="rgba(51,67,78,255)" d="M300 225H0l248-29 52 29"/><path fill="rgba(109,111,123,255)" stroke="rgba(109,111,123,255)" d="m0 225 52-32 196 3L0 225"/><path fill="rgba(160,87,36,255)" stroke="rgba(160,87,36,255)" d="m52 193 91-140 105 143-196-3"/><path fill="rgba(37,30,60,255)" stroke="rgba(37,30,60,255)" d="M300 0v225L270 53l30-53"/><path fill="rgba(176,157,75,255)" stroke="rgba(176,157,75,255)" d="m300 225-52-29 22-143 30 172"/><path fill="rgba(67,85,85,255)" stroke="rgba(67,85,85,255)" d="M143 53 300 0l-30 53H143"/><path fill="rgba(105,84,43,255)" stroke="rgba(105,84,43,255)" d="M248 196 143 53h127l-22 143"/><path fill="rgba(78,68,69,255)" stroke="rgba(78,68,69,255)" d="M0 225V0l21 117L0 225"/><path fill="rgba(182,152,92,255)" stroke="rgba(182,152,92,255)" d="m0 0 39 37-18 80L0 0"/><path fill="rgba(66,69,86,255)" stroke="rgba(66,69,86,255)" d="M52 193 0 225l21-108 31 76"/><path fill="rgba(103,103,111,255)" stroke="rgba(103,103,111,255)" d="m39 37 104 16-122 64 18-80"/><path fill="rgba(98,89,98,255)" stroke="rgba(98,89,98,255)" d="M143 53 52 193l-31-76 122-64"/></g></g></svg>