<svg xmlns="http://www.w3.org/2000/svg" width="300" height="225" viewBox="0 0 300 225"><g stroke-linecap="round"><path fill="rgba(45,64,69,255)" stroke="rgba(45,64,69,255)" d="M300 225H0l119-14 181 14"/><path fill="rgba(142,160,120,255)" stroke="rgba(142,160,120,255)" d="m0 225 115-81 4 67L0 225"/><path fill="rgba(27,31,30,255)" stroke="rgba(27,31,30,255)" d="M0 225V0l69 97L0 225"/><path fill="rgba(31,24,28,255)" stroke="rgba(31,24,28,255)" d="M115 144 0 225 69 97l46 47"/><path fill="rgba(101,106,125,255)" stroke="rgba(101,106,125,255)" d="M0 0h300l-29 24L0 0"/><path fill="rgba(67,51,50,255)" stroke="rgba(67,51,50,255)" d="M69 97 0 0l271 24L69 97"/><path fill="rgba(73,71,83,255)" stroke="rgba(73,71,83,255)" d="m300 225-181-14 123-29 58 43"/><path fill="rgba(48,41,62,255)" stroke="rgba(48,41,62,255)" d="m119 211-4-67 127 38-123 29"/><path fill="rgba(35,48,68,255)" stroke="rgba(35,48,68,255)" d="M300 0v225L270 71l30-71"/><path fill="rgba(55,81,68,255)" stroke="rgba(55,81,68,255)" d="m271 24 29-24-30 71 1-47"/><path fill="rgba(111,117,113,255)" stroke="rgba(111,117,113,255)" d="M115 144 69 97l201-26-155 73"/><path fill="rgba(190,164,90,255)" stroke="rgba(190,164,90,255)" d="m69 97 202-73-1 47L69 97"/><path fill="rgba(226,197,113,255)" stroke="rgba(226,197,113,255)" d="m242 182-127-38 155-73-28 111"/><path fill="rgba(183,167,107,255)" stroke="rgba(183,167,107,255)" d="m300 225-58-43 28-111 30 154"/></g><rect width="100%" height="100%" fill="#968658"/></svg>