<svg xmlns="http://www.w3.org/2000/svg" width="300" height="225"><rect width="100%" height="100%" fill="#968658"/><g fill-opacity=".5"><path fill="#373451" d="m-14.6 226.8 332.8-3.6L5.2-18.2z"/><path fill="#54435c" d="m41.6-15.8 261.3 3.5 2.4 255.5z"/><path fill="#c5a148" d="m167 122.5 99.6 19.9-198 38.7z"/><path fill="#193552" d="m99 243.2-16.4-51.6 184-3.5z"/><path fill="#2f484a" d="M318.2 138.9 314.6-8.8l-109-9.4z"/><path fill="#cd9476" d="m130.7-6.4 21 31.6-123 28.1z"/><path fill="#ffcf1a" d="m65 204.5 22.3 38.7H20.5z"/><path fill="#f0ae29" d="m196.3 75.6-73.8 2.3 49.2 17.6z"/><path fill="#424b4e" d="m217.4 119-157-84.4-47 84.3z"/><path fill="#bea463" d="m94.3 174-10.5-61-36.3 55.2z"/><path fill="#9d8155" d="m-14.6 63.9 70.3-82L31 99z"/><path fill="#aa7447" d="m176.4 22.9-73.9 28 58.6 68z"/><path fill="#ff8e5d" d="M273.6 85 262 55.7l-21 7z"/><path fill="#131c36" d="m24 243.2 21.1-90.3-38.7 66.8z"/><path fill="#031445" d="m53.3 14.6 80.9-32.8H34.6z"/><path fill="#e58467" d="m263 199.8 3.6-46.9 29.3 9.4z"/><path fill="#b09cd6" d="m312.3 114.3-18.7 16.4-42.2-15.3z"/><path fill="#e69a73" d="m-4.1 127.1 17.6 77.4-31.7 28.1z"/><path fill="#ff964d" d="m54.5 192.8-12.9 23.4-9.4-10.5z"/><path fill="#fead61" d="m42.8 151.8-8.2-21.1 22.2-4.7z"/><path fill="#ff9a66" d="m129.5 161.1 16.4 16.4-12.9 13z"/><path fill="#f1a05f" d="m244.3 94.3-22.2 18.8-1.2-35.2z"/><path fill="#0d0d27" d="M151.8 34.6h-44.6l25.8 14z"/><path fill="#ff6c5a" d="m263 34.6 16.5-11.7 2.3 16.4z"/><path fill="#0d1025" d="m127.1 69.7 10.6-12.9 16.4 23.5z"/><path fill="#344455" d="M219.7 103.7 149.4 146l35.2-59.8z"/><path fill="#212039" d="M66.2 156.4 61.5 140 10 167z"/><path fill="#202736" d="M29.9 198.6 99 187l-38.6-13z"/><path fill="#c4b67c" d="m183.4 183.4 24.6-64.5 9.4 30.5z"/><path fill="#dc9b83" d="m188 32.2-32.7 8.2L174 7.6z"/><path fill="#ffaf52" d="m109.6 59.2 3.5-16.4 25.8 11.7z"/><path fill="#a4a664" d="m256 153-24.6-14.1 43.4-65.7z"/><path fill="#36486d" d="m283 201 11.7 42.2-157-23.5z"/><path fill="#bcdc9d" d="m82.6 206.8-3.5-18.7-17.6 5.8z"/><path fill="#3e4e61" d="m252.5 58-75-53.9 95 1.2z"/><path fill="#32393a" d="m157.6 65 55.1 20 30.5-17.6z"/><path fill="#1d2431" d="M58 42.8 73.2 24l-31.6-8.2z"/><path fill="#27405d" d="m290 87.3-50.4 32.8 78.6-14z"/><path fill="#264250" d="m287.7 157.6-34-18.7 64.5-8.2z"/><path fill="#20143f" d="m171.7 169.3-8.2 23.5-23.5-30.5z"/><path fill="#302d49" d="m304.1 168.2-31.6 2.3 45.7 43.4z"/><path fill="#cb9e39" d="m174 143.6-57.4-8.2 63.3 34z"/><path fill="#be8c6a" d="m212.7 67.4-17.6-34 5.9 68z"/><path fill="#081122" d="m203.3 171.7 10.6 5.8 15.2-35.1z"/><path fill="#394449" d="m122.5 167 10.5-16.4-58.6 7z"/><path fill="#1c272a" d="M56.8 102.5 65 82.6l-48-14z"/><path fill="#d2dc7c" d="m161.1 86.1 5.9-25.7-16.4-13z"/><path fill="#2a262f" d="M68.6 76.8 106 58l14-29.3z"/><path fill="#2c2739" d="m-4.1 21.7 35.2 12.9 9.3 19.9z"/><path fill="#f97e37" d="m101.4 195.1 15.2-12.9-10.5-19.9z"/></g></svg>