<svg xmlns="http://www.w3.org/2000/svg" width="300" height="225"><g filter="blur(10px)"><rect width="200%" height="200%" x="-50%" y="-50%" fill="#968658"/><rect width="100%" height="100%" fill="#968658"/><g fill-opacity=".5" transform="translate(.6 .6)scale(1.17)"><circle cx="131" cy="159" r="203" fill="#433a56"/><circle cx="156" cy="191" r="51" fill="#2b3c59"/><circle cx="95" cy="22" r="30" fill="#bb846a"/><circle cx="159" cy="125" r="26" fill="#b39b54"/><circle cx="70" cy="71" r="33" fill="#35434a"/><circle cx="51" cy="191" r="13" fill="#ffc916"/><circle cx="150" cy="49" r="28" fill="#af8058"/><circle cx="93" cy="177" r="26" fill="#2d3447"/><circle cx="210" cy="72" r="23" fill="#b47858"/><circle cx="207" cy="117" r="10" fill="#f3c449"/><circle cx="222" cy="12" r="37" fill="#3b4c52"/><circle cx="67" cy="135" r="18" fill="#b2905e"/><circle cx="119" cy="130" r="15" fill="#c18a37"/><circle cx="9" cy="45" r="12" fill="#e09366"/><circle cx="161" cy="93" r="16" fill="#223958"/><circle cx="242" cy="103" r="13" fill="#9787b2"/><circle cx="121" cy="72" r="7" fill="#ffbb1d"/><circle cx="255" cy="76" r="22" fill="#1e3f4c"/><circle cx="238" cy="143" r="15" fill="#c27e5f"/><circle cx="115" cy="155" r="7" fill="#ff6e77"/><circle cx="65" cy="32" r="11" fill="#e0af6a"/><circle cx="229" cy="191" r="22" fill="#233d75"/><circle cx="34" cy="165" r="21" fill="#47353d"/><circle cx="35" cy="175" r="7" fill="#fa5"/><circle cx="142" cy="71" r="10" fill="#e7b931"/><circle cx="93" cy="146" r="6" fill="#ffda2e"/><circle cx="233" cy="27" r="7" fill="#ff6554"/><circle cx="17" cy="72" r="5" fill="#fffe2a"/><circle cx="112" cy="34" r="7" fill="#041426"/><circle cx="16" cy="188" r="13" fill="#112034"/></g></g></svg>