<svg xmlns="http://www.w3.org/2000/svg" width="300" height="225"><rect width="100%" height="100%" fill="#968658"/><g fill-opacity=".5" transform="translate(.6 .6)scale(1.17)"><circle cx="164" cy="145" r="216" fill="#433a56"/><circle cx="157" cy="191" r="51" fill="#2b3c59"/><circle cx="95" cy="22" r="30" fill="#bb846a"/><circle cx="159" cy="126" r="26" fill="#b39a52"/><circle cx="69" cy="72" r="33" fill="#35424a"/><circle cx="52" cy="191" r="13" fill="#ffc917"/><circle cx="149" cy="49" r="28" fill="#af7f57"/><circle cx="92" cy="177" r="26" fill="#2c3448"/><circle cx="205" cy="116" r="10" fill="#fbbd49"/><circle cx="209" cy="71" r="24" fill="#b37456"/><circle cx="234" cy="2" r="49" fill="#394b4f"/><circle cx="67" cy="135" r="18" fill="#b2905e"/><circle cx="119" cy="131" r="15" fill="#c18c39"/><circle cx="162" cy="93" r="16" fill="#233a58"/><circle cx="9" cy="44" r="12" fill="#e28e67"/><circle cx="236" cy="146" r="13" fill="#d5795d"/><circle cx="243" cy="103" r="13" fill="#9888b2"/><circle cx="255" cy="76" r="22" fill="#1e3f4c"/><circle cx="229" cy="191" r="22" fill="#243d75"/><circle cx="119" cy="72" r="8" fill="#ffa220"/><circle cx="67" cy="32" r="12" fill="#d6ab6a"/><circle cx="33" cy="166" r="21" fill="#47353d"/><circle cx="36" cy="175" r="7" fill="#ffa74e"/><circle cx="92" cy="146" r="6" fill="#ffdf2f"/><circle cx="144" cy="69" r="11" fill="#ddb434"/><circle cx="154" cy="53" r="17" fill="#5d524b"/><circle cx="117" cy="154" r="8" fill="#ff6d6a"/><circle cx="233" cy="28" r="7" fill="#ff6757"/><circle cx="110" cy="34" r="7" fill="#021122"/><circle cx="66" cy="106" r="5" fill="#fffc44"/></g></svg>