<svg xmlns="http://www.w3.org/2000/svg" width="300" height="225"><rect width="100%" height="100%" fill="#968658"/><g fill-opacity=".5"><path fill="#373452" d="m318.2 223.2-335.2 20L5.3-18.2z"/><path fill="#54425c" d="M301.8-18.2 53.3-4l257.8 247.3z"/><path fill="#c2a047" d="m70.9 181 200.4-39.8-112.5-18.7z"/><path fill="#1a3450" d="M267.8 188 86 190.5l2.4 52.8z"/><path fill="#df9b7f" d="m60.4 35.7 82-7V-11z"/><path fill="#32484c" d="m202.1 10 95-28.2 21 133.6z"/><path fill="#ffd519" d="m10 243.2 75-4.7-18.8-31.7z"/><path fill="#38454f" d="m224.4 114.3-202.7 8.2 25.8-65.7z"/><path fill="#b68138" d="m155.3 116.6 35.1-38.7-90.2-43.3z"/><path fill="#bfa462" d="M81.4 113 98 171.8H48.6z"/><path fill="#a18755" d="M35.7 94.3 51-18.2-18.2 78z"/><path fill="#ff8a59" d="m258.4 49.8-15.2 20 29.3 12.8z"/><path fill="#101b34" d="M24 243.2h-34L44 160z"/><path fill="#011344" d="M53.3 13.5 35.7-14.6 95.5-1.8z"/><path fill="#b1a0d6" d="m298.2 130.7-46.8-14.1 51.5-2.3z"/><path fill="#db7e67" d="m265.4 154.1 35.2 5.9-37.5 43.3z"/><path fill="#dd9173" d="M-18.2 109.6 17 196.3l-34 46.9z"/><path fill="#ff8f64" d="m145.9 181-14-22.2-2.4 34z"/><path fill="#ff9650" d="m28.7 206.8 14 8.2 11.8-21z"/><path fill="#020424" d="m136.5 58-9.4 13 27 9.4z"/><path fill="#e29579" d="m189.3 34.6-37.5 8.2 21-34z"/><path fill="#f2ac67" d="M55.7 127.1 31 128.3l14 22.3z"/><path fill="#b7a974" d="m206.8 119-29.3 70.3 43.4-39.9z"/><path fill="#f1b767" d="m222 113 28.2-23.4-31.6 3.6z"/><path fill="#fff843" d="m155.3 81.4 27 9.4L160 71z"/><path fill="#fa6b54" d="m280.7 44-15.3-11.8 14-15.2z"/><path fill="#2a2b35" d="m52.1 86.1 69.2-57.4L102.5 64z"/><path fill="#464f5b" d="M-18.2 92 215 94.3l-56.2 48z"/><path fill="#24444e" d="m270.1 112 30.5 1-8.2-85.5z"/><path fill="#1d2032" d="m93.2 183.4-66.8 16.4L58 175.2z"/><path fill="#cf8b5f" d="m195.1 51-96-4.7 55 21z"/><path fill="#41485d" d="m224.4 147 78.5 96.2L140 226.8z"/><path fill="#203e50" d="m284.2 157.6-24.6-22.2 58.6-1.2z"/><path fill="#afbc51" d="m257.2 120.1-30.4 14 39.8 20z"/><path fill="#342341" d="m318.2 194-45.7-2.4 14-25.8z"/><path fill="#211138" d="m175.2 170.5-38.7-9.4 24.6 25.8z"/><path fill="#0e1629" d="m205.7 83.8 9.3-17.6 27 2.4z"/><path fill="#10152d" d="m62.7 135.4-18.8 19.9 17.6 5.8z"/><path fill="#c18864" d="m15.8 15.8 22.3-8.2 16.4 54z"/><path fill="#233734" d="M47.5 70.9 65 94.3l-71.4-28z"/><path fill="#c6e3a0" d="m80.3 204.5 1.1-12.9-19.9 4.7z"/><path fill="#313b45" d="M80.3 158.8 140 147l-19.9 17.5z"/><path fill="#392331" d="m168.2 53.3-64.5-15.2 43.4-4.7z"/><path fill="#dbbf84" d="M253.7 93.2 276 77.9l-15.3 32.8z"/><path fill="#3a313b" d="M58 12.3 19.3 42.8 69.7 31z"/><path fill="#f86e36" d="m109.6 165.8 8.2 18.8-17.6 10.5z"/><path fill="#ff9352" d="m158.8 96.7-8.2 16.4 16.4 1.2z"/><path fill="#cb5a7d" d="m244.3 167 20 34 21-22.3z"/><path fill="#e3826b" d="M22.9 42.8-17 36.9l31.6 31.7z"/><path fill="#56586f" d="M89.6-18.2 289 17l-77.4 22.3z"/></g></svg>