<svg xmlns="http://www.w3.org/2000/svg" width="300" height="225"><rect width="100%" height="100%" fill="#968658"/><g fill-opacity=".5"><path fill="#373452" d="M318.2 223.2 5.2-18.2-17 243.2z"/><path fill="#54435c" d="M295.9 236.1 52.1-5.3l266-12.9z"/><path fill="#c29f48" d="m167 121.3-102 61 207.5-41z"/><path fill="#193552" d="m83.8 194 185.1-8.3-171 57.5z"/><path fill="#31484a" d="m318.2.6-15.3 118.3-99.6-137z"/><path fill="#e09b7f" d="m60.4 34.6 84.3-4.7-3.5-38.7z"/><path fill="#ffd519" d="M87.3 243.2H11.1l55.1-36.4z"/><path fill="#f4b229" d="m177.5 93.2 13-21.1-70.4 9.3z"/><path fill="#36454e" d="m-18.2 116.6 171.1 1.2L102.5 45z"/><path fill="#bea363" d="m51 170.5 49.2 3.5-21.1-62z"/><path fill="#a08256" d="m-17 67.4 55 30.5 10.6-116z"/><path fill="#ff8960" d="m259.6 55.7-22.3 10.5 43.4 20z"/><path fill="#f89347" d="m116.6 42.8 59.8 17.6h-71.5z"/><path fill="#e78169" d="m263 202.1 35.2-43.3-30.4-2.4z"/><path fill="#263c57" d="m223.2 114.3-71.4 16.4 36.3-47z"/><path fill="#161c35" d="m29.9 222-30.5 9.4L44 150.6z"/><path fill="#b39bce" d="m295.9 133 9.4-18.7-54 2.3z"/><path fill="#001043" d="m40.4-6.4 84.4-7-70.3 26.9z"/><path fill="#e09373" d="m15.8 197.5-34 45.7V101.4z"/><path fill="#ff984f" d="m48.6 195.1 1.2 17.6-20-1.2z"/><path fill="#ff9b64" d="M145.9 176.4 133 161l-2.3 30.5z"/><path fill="#f8a080" d="m178.7 18.2 8.2 16.4-41 5.8z"/><path fill="#fbbc6c" d="M250.2 90.8 219.7 112l2.4-20z"/><path fill="#ffaa60" d="m32.2 131.8 21.1-4.7-9.4 24.7z"/><path fill="#433930" d="m131.8 65 35.2 38.7-22.3-56.2z"/><path fill="#bcb17c" d="m213.9 116.6-1.2 37.5-35.2 35.2z"/><path fill="#1a2435" d="m95.5 187-34-13L30 197.5z"/><path fill="#ff6452" d="m260.7 35.7 21.1 4.7-2.3-19.9z"/><path fill="#29353a" d="m157.6 65 54 16.4 34-14z"/><path fill="#c2bc6b" d="m158.8 82.6 17.6-32.8-34 11.7z"/><path fill="#2b1a29" d="m145.9 45.1 9.4-15.2-54 12.9z"/><path fill="#1c3945" d="m266.6 149.4-4.7-22.3 56.3 17.6z"/><path fill="#b4d69c" d="m80.3 208-16.4-14 18.7-6z"/><path fill="#45506e" d="m157.6-4.1 80.9 14 15.2 49.3z"/><path fill="#080f29" d="m140 156.4 30.5 29.3-30.5-14z"/><path fill="#34476a" d="M295.9 243.2 130.7 222l150-21.1z"/><path fill="#213232" d="M55.7 94.3 72 79.1l-73.9-14z"/><path fill="#98a563" d="M260.7 154.1 235 136.5 271.3 71z"/><path fill="#2c2f49" d="m307.6 205.7-32.8-35.2 43.4-4.7z"/><path fill="#0d1424" d="m205.7 170.5 24.6-29.3-16.4 39.9z"/><path fill="#d2af6c" d="m59.2 45.1-17.6 14-3.5-24.5z"/><path fill="#28363f" d="m103.7 165.8 38.7-12.9-61 3.5z"/><path fill="#d6a243" d="m147 163.5-19.9-29.3 61 16.4z"/><path fill="#2d283d" d="m4.1 169.3 58.6-10.5 1.2-21.1z"/><path fill="#234159" d="m254.9 114.3 63.3-3.6-29.3-28z"/><path fill="#ff8a6f" d="m13.5 116.6 9.4-5.9-15.3-7z"/><path fill="#2c2b32" d="m60.4 42.8 14-20L38.1 17z"/><path fill="#ff7635" d="m117.8 185.7-9.4-22.2-7 29.3z"/><path fill="#f7dc3a" d="m38 82.6-17.5 8.2-5.9-11.7z"/><path fill="#d67a73" d="m192.8 49.8 21 27-18.7-58.6z"/></g></svg>