<svg xmlns="http://www.w3.org/2000/svg" width="300" height="225" viewBox="0 0 300 225"><g stroke-linecap="round"><path fill="rgba(22,38,51,255)" stroke="rgba(22,38,51,255)" d="M300 0v225l-6-172 6-53"/><path fill="rgba(54,48,60,255)" stroke="rgba(54,48,60,255)" d="m294 53 6 172-18-36 12-136"/><path fill="rgba(119,95,127,255)" stroke="rgba(119,95,127,255)" d="M0 225V0l15 147-15 78"/><path fill="rgba(32,46,61,255)" stroke="rgba(32,46,61,255)" d="M300 225H0l180-36 120 36"/><path fill="rgba(94,87,5,255)" stroke="rgba(94,87,5,255)" d="m294 53-12 136H180L294 53"/><path fill="rgba(34,81,131,255)" stroke="rgba(34,81,131,255)" d="m282 189 18 36-45-20 27-16"/><path fill="rgba(145,138,68,255)" stroke="rgba(145,138,68,255)" d="m300 225-120-36 75 16 45 20"/><path fill="rgba(118,119,121,255)" stroke="rgba(118,119,121,255)" d="M180 189h102l-27 16-75-16"/><path fill="rgba(55,47,58,255)" stroke="rgba(55,47,58,255)" d="M0 0h300L73 114 0 0"/><path fill="rgba(76,63,45,255)" stroke="rgba(76,63,45,255)" d="m300 0-6 53-221 61L300 0"/><path fill="rgba(55,28,57,255)" stroke="rgba(55,28,57,255)" d="m0 225 15-78 58-33L0 225"/><path fill="rgba(187,148,65,255)" stroke="rgba(187,148,65,255)" d="M180 189 0 225l73-111 107 75"/><path fill="rgba(111,99,137,255)" stroke="rgba(111,99,137,255)" d="M294 53 180 189 73 114l221-61"/><path fill="rgba(159,146,104,255)" stroke="rgba(159,146,104,255)" d="M15 147 0 0l73 114-58 33"/></g></svg>