<svg xmlns="http://www.w3.org/2000/svg" width="300" height="225" viewBox="0 0 300 225"><g stroke-linecap="round"><path fill="rgba(44,68,70,255)" stroke="rgba(44,68,70,255)" d="M300 225H0l141-3 159 3"/><path fill="rgba(41,42,50,255)" stroke="rgba(41,42,50,255)" d="M141 222 0 225l114-84 27 81"/><path fill="rgba(168,123,146,255)" stroke="rgba(168,123,146,255)" d="M0 0h300L197 95 0 0"/><path fill="rgba(97,100,141,255)" stroke="rgba(97,100,141,255)" d="m300 225-159-3 56-127 103 130"/><path fill="rgba(155,127,20,255)" stroke="rgba(155,127,20,255)" d="m141 222-27-81 83-46-56 127"/><path fill="rgba(59,69,69,255)" stroke="rgba(59,69,69,255)" d="M114 141 0 225 55 98l59 43"/><path fill="rgba(52,35,33,255)" stroke="rgba(52,35,33,255)" d="m0 0 197 95-142 3L0 0"/><path fill="rgba(51,59,58,255)" stroke="rgba(51,59,58,255)" d="m197 95-83 46-59-43 142-3"/><path fill="rgba(22,50,52,255)" stroke="rgba(22,50,52,255)" d="M300 0v225L275 86l25-86"/><path fill="rgba(150,168,92,255)" stroke="rgba(150,168,92,255)" d="M300 225 197 95l78-9 25 139"/><path fill="rgba(252,101,80,255)" stroke="rgba(252,101,80,255)" d="M197 95 300 0l-25 86-78 9"/><path fill="rgba(212,125,120,255)" stroke="rgba(212,125,120,255)" d="M0 225V0l35 97L0 225"/><path fill="rgba(108,105,64,255)" stroke="rgba(108,105,64,255)" d="m0 0 55 98-20-1L0 0"/><path fill="rgba(51,42,47,255)" stroke="rgba(51,42,47,255)" d="M55 98 0 225 35 97l20 1"/></g><rect width="100%" height="100%" fill="#968658"/></svg>