<svg xmlns="http://www.w3.org/2000/svg" width="300" height="225" viewBox="0 0 300 225"><g filter="blur(12px)"><rect width="200%" height="200%" x="-50%" y="-50%" fill="#968658"/><g stroke-linecap="round"><path fill="rgba(60,66,106,255)" stroke="rgba(60,66,106,255)" d="M300 225H0l15-49 285 49"/><path fill="rgba(87,85,97,255)" stroke="rgba(87,85,97,255)" d="M0 225V0l16 98L0 225"/><path fill="rgba(162,132,124,255)" stroke="rgba(162,132,124,255)" d="M15 176 0 225 16 98l-1 78"/><path fill="rgba(122,124,101,255)" stroke="rgba(122,124,101,255)" d="m0 0 72 86-56 12L0 0"/><path fill="rgba(82,67,98,255)" stroke="rgba(82,67,98,255)" d="m72 86-57 90 1-78 56-12"/><path fill="rgba(133,125,104,255)" stroke="rgba(133,125,104,255)" d="M72 86 0 0l123 35-51 51"/><path fill="rgba(83,78,98,255)" stroke="rgba(83,78,98,255)" d="M300 225 15 176l270-37 15 86"/><path fill="rgba(88,98,87,255)" stroke="rgba(88,98,87,255)" d="m15 176 57-90 213 53-270 37"/><path fill="rgba(152,142,168,255)" stroke="rgba(152,142,168,255)" d="M300 0v225l-15-86L300 0"/><path fill="rgba(241,212,120,255)" stroke="rgba(241,212,120,255)" d="m72 86 51-51 162 104L72 86"/><path fill="rgba(78,66,91,255)" stroke="rgba(78,66,91,255)" d="M0 0h300L192 11 0 0"/><path fill="rgba(228,140,164,255)" stroke="rgba(228,140,164,255)" d="M123 35 0 0l192 11-69 24"/><path fill="rgba(74,66,54,255)" stroke="rgba(74,66,54,255)" d="m300 0-15 139-93-128L300 0"/><path fill="rgba(224,123,77,255)" stroke="rgba(224,123,77,255)" d="M285 139 123 35l69-24 93 128"/></g></g></svg>