<svg xmlns="http://www.w3.org/2000/svg" width="300" height="225" viewBox="0 0 300 225"><g stroke-linecap="round"><path fill="rgba(143,161,141,255)" stroke="rgba(143,161,141,255)" d="M0 225V0l40 166-40 59"/><path fill="rgba(193,152,70,255)" stroke="rgba(193,152,70,255)" d="M300 0v225L177 102 300 0"/><path fill="rgba(56,53,60,255)" stroke="rgba(56,53,60,255)" d="m0 225 40-59 66-2L0 225"/><path fill="rgba(46,54,57,255)" stroke="rgba(46,54,57,255)" d="M40 166 0 0l105 78-65 88"/><path fill="rgba(183,163,100,255)" stroke="rgba(183,163,100,255)" d="m106 164-66 2 65-88 1 86"/><path fill="rgba(60,77,82,255)" stroke="rgba(60,77,82,255)" d="m177 102-71 62-1-86 72 24"/><path fill="rgba(102,121,102,255)" stroke="rgba(102,121,102,255)" d="M0 0h300L148 55 0 0"/><path fill="rgba(112,126,103,255)" stroke="rgba(112,126,103,255)" d="M105 78 0 0l148 55-43 23"/><path fill="rgba(29,70,86,255)" stroke="rgba(29,70,86,255)" d="M300 0 177 102l-29-47L300 0"/><path fill="rgba(251,180,48,255)" stroke="rgba(251,180,48,255)" d="m177 102-72-24 43-23 29 47"/><path fill="rgba(57,73,87,255)" stroke="rgba(57,73,87,255)" d="M300 225H0l176-24 124 24"/><path fill="rgba(47,52,61,255)" stroke="rgba(47,52,61,255)" d="m0 225 106-61 70 37L0 225"/><path fill="rgba(71,60,41,255)" stroke="rgba(71,60,41,255)" d="m177 102 123 123-124-24 1-99"/><path fill="rgba(220,187,108,255)" stroke="rgba(220,187,108,255)" d="m106 164 71-62-1 99-70-37"/></g></svg>