<svg xmlns="http://www.w3.org/2000/svg" width="300" height="225"><rect width="100%" height="100%" fill="#968658"/><g fill-opacity=".5"><path fill="#373452" d="M-17 243.2 5.3-18.2l312.9 241.4z"/><path fill="#54425c" d="M39.3-18.2 302.9-4l8.2 247.3z"/><path fill="#c6a246" d="m72 181 90.3-57.4L267.8 140z"/><path fill="#263a55" d="M75.6 183.4 99 243.2 313.5 208z"/><path fill="#35494e" d="m189.3 10 119.5-28.2 9.4 129z"/><path fill="#ffdb1a" d="m86.1 237.3-21-30.5-32.9 24.6z"/><path fill="#d9987e" d="M141.2-18.2 61.5 38.1l84.4-8.2z"/><path fill="#fdbc2d" d="m177.5 92 13-17.6-69.2 2.4z"/><path fill="#c1a564" d="m51 169.3 25.8-51.5 24.6 56.2z"/><path fill="#ff8859" d="M273.6 83.8 262 52l-22.3 15.3z"/><path fill="#38464d" d="m18.2 119 223.8-3.6L45 58z"/><path fill="#ab825c" d="m37 4.1 21 71.5-71.5-16.4z"/><path fill="#ff9343" d="m165.8 59.2-52.7-16.4-2.4 17.6z"/><path fill="#0f1933" d="M42.8 160 6.4 219.7 24 243.2z"/><path fill="#e78368" d="m264.3 202.1 2.3-46.8 29.3 3.5z"/><path fill="#031545" d="m52.1 14.6 82-32.8H35.8z"/><path fill="#b29bce" d="m318.2 114.3-65.7 1.1L296 133z"/><path fill="#ff9764" d="m133 192.8 14-17.6-16.3-12.9z"/><path fill="#ec9c73" d="M13.5 204.5-17 230.3l2.4-136z"/><path fill="#ff9e53" d="M39.3 216.2 55.7 194 31 208z"/><path fill="#e5987c" d="m187 34.6-33 8.2 20-35.2z"/><path fill="#f6a961" d="m56.8 126-14 25.8-10.6-21.1z"/><path fill="#dac744" d="m40.4 95.5-41-14L37 80.2z"/><path fill="#f9c565" d="m225.6 114.3-8.2-18.8 25.8-3.5z"/><path fill="#c8854e" d="m127.1 70.9 39.9 35.2-10.6 12.8z"/><path fill="#204457" d="M318.2 115.4 263 112l22.3-42.2z"/><path fill="#c0b27c" d="m181 189.3 37.6-41-9.4-30.5z"/><path fill="#ff6c56" d="m264.3 33.4 14-12.9 2.4 22.3z"/><path fill="#30233a" d="m124.8 70.9 28.1-29.3L140 77.9z"/><path fill="#a0aa66" d="m273.6 75.6-12.9 76.2-27-11.8z"/><path fill="#2e2e36" d="m119 27.5-13 32.9L53.4 86z"/><path fill="#31383c" d="m209.2 83.8 35.1-17.6-79.7-2.3z"/><path fill="#b4d39b" d="m82.6 189.3-3.5 21L63.9 194z"/><path fill="#1d3251" d="m254.9 179.9-30.5 24.6-55-11.7z"/><path fill="#0e162a" d="m68.6 168.2-18.8 15.2 5.9 29.3z"/><path fill="#2b233b" d="M62.7 135.4 5.3 171.7l57.4-15.3z"/><path fill="#ff6637" d="m99 191.6 11.7-22.3 7 18.8z"/><path fill="#210e35" d="m162.3 188-27-26.9 36.4 7z"/><path fill="#d0a573" d="m142.4 66.2 9.4-18.7 38.6 8.2z"/><path fill="#1a3643" d="m267.8 149.4-5.9-21 56.3 16.3z"/><path fill="#15172c" d="M42.8 55.7 27.5 34.6l-21-5.9z"/><path fill="#3a3048" d="m318.2 213.9-50.4-45.7h31.6z"/><path fill="#3c485b" d="M223.2 112 139 137.6 184.7 86z"/><path fill="#4a4d51" d="m81.4 163.5 45.7-2.4 30.5-80.8z"/><path fill="#2e1d2c" d="m109.6 42.8 41-14 2.3 16.3z"/><path fill="#be8d69" d="m211.5 66.2-11.7 35.2-3.5-68z"/><path fill="#131829" d="m201 174 14 3.5 15.3-36.3z"/><path fill="#c0bcb7" d="m278.3 205.7 39.9-2.4L290 194z"/><path fill="#3d4b64" d="m211.5 141.2 16.4-28.1 45.7-4.7z"/><path fill="#d19f44" d="m122.5 134.2 29.3 31.6 29.3-18.7z"/></g></svg>