<svg xmlns="http://www.w3.org/2000/svg" width="300" height="225"><rect width="100%" height="100%" fill="#968658"/><g fill-opacity=".5"><path fill="#373451" d="m-15.8 243.2 334-20L5.2-18.2z"/><path fill="#54435c" d="M305.3 243.2 304-12.3 39.3-18.2z"/><path fill="#c29f48" d="m63.9 182.2 102-59.7 105.4 19.9z"/><path fill="#1a3653" d="m270.1 185.7-189.8 7 19.9 50.5z"/><path fill="#2d4948" d="m318.2-.6-17.6 125.4-76.2-143z"/><path fill="#cd9576" d="m29.9 53.3 120.7-27-15.2-34z"/><path fill="#ffa620" d="m58 242 17.6-27-42.2-15.2z"/><path fill="#fab529" d="m122.5 79.1 69.1-4.7-14 20z"/><path fill="#3a4550" d="M133 117.8 107.2 38l-125.4 83.2z"/><path fill="#c0a462" d="M99 170.5H52.1l27-58.6z"/><path fill="#a18856" d="m34.6 92-52.8-10.6 68-99.6z"/><path fill="#ffa048" d="M158.8 53.3 113 45.1l-4.7 15.3z"/><path fill="#e37f69" d="m266.6 156.4-3.5 45.7 36.3-42.1z"/><path fill="#113444" d="m165.8 115.4 20-30.4 39.8 31.6z"/><path fill="#ff8960" d="m276 90.8-36.4-30.4 22.3-3.6z"/><path fill="#b79cd0" d="M294.7 133 255 115.4l63.3-1.1z"/><path fill="#0f1932" d="M7.6 213.9 44 161l-21 81z"/><path fill="#1e2b3f" d="M65 49.8 41.6 20.5l18.8-38.7z"/><path fill="#e89b72" d="m13.5 206.8-31.7 20 17.6-83.2z"/><path fill="#fea381" d="m189.3 35.7-41 3.6 30.4-18.8z"/><path fill="#ff9a68" d="m131.8 189.3-1.1-24.7 16.4 10.6z"/><path fill="#e5b06a" d="m67.4 122.5-35.2 8.2 10.6 15.2z"/><path fill="#f4bd68" d="m218.6 95.5 2.3 20 27-25.9z"/><path fill="#3d5062" d="m293.6-18.2-45.7 75-100.8-75z"/><path fill="#271d29" d="m61.5 208 3.5-41-27 57.4z"/><path fill="#cd7659" d="m281.8 65-3.5-50.4-12.9 17.6z"/><path fill="#bcaf78" d="m178.7 188 42.3-42-14-24.6z"/><path fill="#e1da73" d="m151.8 45.1 14 16.4-7 25.8z"/><path fill="#2a3844" d="m79.1 157.6 36.3 7 24.6-15.2z"/><path fill="#3e4861" d="m137.7 161.1 180.5 56.3-133.6 22.2z"/><path fill="#c3e1a3" d="m80.3 208 2.3-16.4-18.7 3.5z"/><path fill="#1b1124" d="M151.8 34.6h-49.3l29.3 12.9z"/><path fill="#ff8c4f" d="m53.3 203.3-5.8-12.9L31 215z"/><path fill="#322d48" d="m314.6 167-43.3 3.5 46.9 44.5z"/><path fill="#aabc53" d="m229.1 133 32.8 20 1.2-34z"/><path fill="#4c5159" d="m-15.8 99 180.4-12.9 14.1 56.3z"/><path fill="#ffa151" d="m150.6 114.3 8.2-17.6 4.7 17.6z"/><path fill="#345149" d="m266.6 130.7-37.5 38.6 86.7-27z"/><path fill="#cebc7c" d="M274.8 81.4 251.4 92l9.3 18.7z"/><path fill="#d7a544" d="m192.8 149.4-66.8-14 23.4 26.9z"/><path fill="#3d4942" d="M58 93.2 15.8 74.4l11.7-45.7z"/><path fill="#353c3e" d="m150.6 62.7 92.6 3.5-29.3 17.6z"/><path fill="#241a1e" d="m155.3 80.3-20-20-12.8 11.8z"/><path fill="#1b2036" d="m13.5 163.5 45.7-20 7 13z"/><path fill="#222537" d="m55.7 175.2-27 25.8 61-18.8z"/><path fill="#171d29" d="m205.7 169.3 9.3 14.1 14.1-43.4z"/><path fill="#db7873" d="m192.8 49.8 19.9 27-15.2-57.5z"/><path fill="#141e45" d="m8.8-13.5 85.5-4.7-18.7 31.7z"/><path fill="#df7e6b" d="M12.3 66.2-10 35.7l40 9.4z"/><path fill="#c8d5a0" d="m41.6 157.6 11.7 13 20-6z"/></g></svg>