<svg xmlns="http://www.w3.org/2000/svg" width="300" height="225"><rect width="100%" height="100%" fill="#968658"/><g fill-opacity=".5" transform="translate(.6 .6)scale(1.17)"><circle cx="152" cy="119" r="190" fill="#433a56"/><circle cx="157" cy="191" r="51" fill="#2b3c59"/><circle cx="95" cy="21" r="30" fill="#bc846c"/><circle cx="159" cy="125" r="26" fill="#b39b54"/><circle cx="67" cy="72" r="33" fill="#35424a"/><circle cx="49" cy="191" r="13" fill="#ffc216"/><circle cx="150" cy="49" r="28" fill="#af8058"/><circle cx="94" cy="177" r="26" fill="#2d3347"/><circle cx="210" cy="71" r="24" fill="#b37457"/><circle cx="206" cy="117" r="10" fill="#fbc048"/><circle cx="231" cy="10" r="43" fill="#3b4b4e"/><circle cx="56" cy="124" r="24" fill="#9d885b"/><circle cx="118" cy="132" r="16" fill="#bc8c3b"/><circle cx="162" cy="93" r="16" fill="#223858"/><circle cx="9" cy="45" r="12" fill="#e09366"/><circle cx="122" cy="71" r="7" fill="#ffb517"/><circle cx="243" cy="103" r="13" fill="#9888b2"/><circle cx="33" cy="166" r="21" fill="#46343d"/><circle cx="35" cy="176" r="7" fill="#ffa553"/><circle cx="255" cy="76" r="23" fill="#21414e"/><circle cx="237" cy="146" r="14" fill="#ce775e"/><circle cx="144" cy="71" r="10" fill="#f0bb34"/><circle cx="46" cy="129" r="8" fill="#000a31"/><circle cx="229" cy="191" r="22" fill="#243d75"/><circle cx="65" cy="31" r="11" fill="#e2ad69"/><circle cx="115" cy="155" r="7" fill="#ff6e78"/><circle cx="111" cy="35" r="6" fill="#000015"/><circle cx="92" cy="145" r="6" fill="#ffde31"/><circle cx="104" cy="46" r="9" fill="#ff912f"/><circle cx="232" cy="28" r="7" fill="#ff6157"/></g></svg>