<svg xmlns="http://www.w3.org/2000/svg" width="300" height="225"><rect width="100%" height="100%" fill="#968658"/><g fill-opacity=".5" transform="translate(.6 .6)scale(1.17188)"><circle cx="139" cy="125" r="184" fill="#433a56"/><circle cx="95" cy="21" r="30" fill="#bc846c"/><circle cx="155" cy="191" r="51" fill="#2b3c59"/><circle cx="159" cy="125" r="26" fill="#b39b54"/><circle cx="51" cy="191" r="13" fill="#ffc916"/><circle cx="69" cy="71" r="33" fill="#35434a"/><circle cx="149" cy="49" r="28" fill="#af7f57"/><circle cx="209" cy="71" r="24" fill="#b37456"/><circle cx="91" cy="175" r="25" fill="#2e3547"/><circle cx="205" cy="117" r="10" fill="#ffba47"/><circle cx="229" cy="12" r="40" fill="#3b4b4e"/><circle cx="55" cy="123" r="24" fill="#9c865b"/><circle cx="118" cy="130" r="15" fill="#c18b39"/><circle cx="121" cy="71" r="7" fill="#ffb619"/><circle cx="163" cy="92" r="16" fill="#233955"/><circle cx="8" cy="44" r="12" fill="#e58d66"/><circle cx="237" cy="144" r="15" fill="#c67a5d"/><circle cx="248" cy="105" r="9" fill="#caa0c7"/><circle cx="65" cy="32" r="11" fill="#e1af6a"/><circle cx="228" cy="191" r="22" fill="#233d74"/><circle cx="116" cy="156" r="7" fill="#ff6873"/><circle cx="34" cy="165" r="21" fill="#47353d"/><circle cx="36" cy="174" r="8" fill="#ff984a"/><circle cx="255" cy="76" r="22" fill="#20414f"/><circle cx="92" cy="146" r="6" fill="#ffe130"/><circle cx="46" cy="128" r="8" fill="#040931"/><circle cx="144" cy="70" r="10" fill="#ecbc36"/><circle cx="110" cy="34" r="7" fill="#021121"/><circle cx="152" cy="50" r="18" fill="#58504f"/><circle cx="233" cy="28" r="7" fill="#ff6758"/></g></svg>