<svg xmlns="http://www.w3.org/2000/svg" width="300" height="225"><g filter="blur(10px)"><rect width="200%" height="200%" x="-50%" y="-50%" fill="#968658"/><rect width="100%" height="100%" fill="#968658"/><g fill-opacity=".5" transform="translate(.6 .6)scale(1.17)"><circle cx="140" cy="112" r="177" fill="#433a56"/><circle cx="156" cy="191" r="51" fill="#2b3c59"/><circle cx="95" cy="21" r="30" fill="#bc846c"/><circle cx="159" cy="125" r="26" fill="#b39b54"/><circle cx="69" cy="71" r="33" fill="#35434a"/><circle cx="51" cy="191" r="13" fill="#ffc916"/><circle cx="138" cy="48" r="34" fill="#a27148"/><circle cx="210" cy="70" r="24" fill="#b37357"/><circle cx="91" cy="175" r="25" fill="#2e3547"/><circle cx="205" cy="116" r="10" fill="#fbbd49"/><circle cx="230" cy="9" r="42" fill="#3a4b4f"/><circle cx="56" cy="125" r="24" fill="#9d885a"/><circle cx="118" cy="132" r="16" fill="#bc8c3b"/><circle cx="162" cy="92" r="16" fill="#223955"/><circle cx="9" cy="44" r="11" fill="#ea9066"/><circle cx="235" cy="146" r="14" fill="#d0755c"/><circle cx="66" cy="31" r="12" fill="#daab69"/><circle cx="247" cy="106" r="9" fill="#cc9dc1"/><circle cx="144" cy="70" r="10" fill="#eec13e"/><circle cx="33" cy="166" r="22" fill="#49363e"/><circle cx="36" cy="175" r="7" fill="#ffa64e"/><circle cx="229" cy="191" r="22" fill="#233d75"/><circle cx="255" cy="75" r="22" fill="#20414e"/><circle cx="47" cy="130" r="8" fill="#041133"/><circle cx="234" cy="28" r="7" fill="#ff6a57"/><circle cx="92" cy="147" r="5" fill="#fff531"/><circle cx="116" cy="155" r="7" fill="#ff7176"/><circle cx="111" cy="35" r="7" fill="#030e27"/><circle cy="165" r="15" fill="#ce8274"/><circle cx="17" cy="186" r="12" fill="#112135"/></g></g></svg>