<svg xmlns="http://www.w3.org/2000/svg" width="300" height="225"><rect width="100%" height="100%" fill="#968658"/><g fill-opacity=".5" transform="translate(.6 .6)scale(1.17)"><circle cx="138" cy="123" r="182" fill="#433a56"/><circle cx="156" cy="191" r="51" fill="#2b3c59"/><circle cx="96" cy="22" r="30" fill="#bb8369"/><circle cx="159" cy="125" r="26" fill="#b39b54"/><circle cx="70" cy="71" r="33" fill="#35434a"/><circle cx="51" cy="191" r="13" fill="#ffc916"/><circle cx="150" cy="49" r="28" fill="#af8058"/><circle cx="93" cy="175" r="24" fill="#2c3246"/><circle cx="210" cy="72" r="23" fill="#b47858"/><circle cx="206" cy="117" r="10" fill="#fbc048"/><circle cx="231" cy="12" r="42" fill="#3d4b4e"/><circle cx="67" cy="135" r="18" fill="#b2905e"/><circle cx="117" cy="131" r="16" fill="#bc8d3d"/><circle cx="161" cy="92" r="16" fill="#223955"/><circle cx="8" cy="44" r="12" fill="#e58d66"/><circle cx="122" cy="72" r="7" fill="#ffb719"/><circle cx="243" cy="103" r="13" fill="#9888b2"/><circle cx="255" cy="76" r="22" fill="#1e3f4c"/><circle cx="65" cy="31" r="11" fill="#e5ae6a"/><circle cx="33" cy="165" r="22" fill="#4a363f"/><circle cx="35" cy="176" r="7" fill="#ffa452"/><circle cx="236" cy="144" r="15" fill="#c6785b"/><circle cx="229" cy="191" r="22" fill="#233d75"/><circle cx="117" cy="155" r="8" fill="#ff6a6d"/><circle cx="146" cy="74" r="7" fill="#ffcd30"/><circle cx="92" cy="146" r="6" fill="#ffdf2f"/><circle cx="233" cy="28" r="7" fill="#ff6758"/><circle cx="217" cy="55" r="9" fill="#ff904d"/><circle cx="110" cy="35" r="6" fill="#000013"/><circle cx="16" cy="72" r="5" fill="#fffc29"/></g></svg>