<svg xmlns="http://www.w3.org/2000/svg" width="300" height="225"><g filter="blur(12px)"><rect width="200%" height="200%" x="-50%" y="-50%" fill="#968658"/><rect width="100%" height="100%" fill="#968658"/><g fill-opacity=".5" transform="translate(.6 .6)scale(1.17)"><circle r="1" fill="#433a56" transform="rotate(46 -31.3 218)scale(167.07 197.54)"/><circle r="1" fill="#b79c4b" transform="rotate(80 -9 146.1)scale(13.57 88.52)"/><ellipse cx="154" cy="183" fill="#203958" rx="91" ry="25"/><circle r="1" fill="#ad7c58" transform="rotate(38 2 178.6)scale(58.17 29.93)"/><circle r="1" fill="#2f414b" transform="rotate(155 22 44.8)scale(46.69 24.18)"/><path fill="#ffd818" d="M65.8 193.2 46 205.1l-9.8-16.3L56 176.9z"/><path fill="#19223a" d="M16.2 206.3 41 142.9l-9.1-7.8L-6.2 207z"/><circle r="1" fill="#a597b5" transform="rotate(-87 177 -75.3)scale(7.46 33.62)"/></g></g></svg>