<svg xmlns="http://www.w3.org/2000/svg" width="300" height="225"><rect width="100%" height="100%" fill="#968658"/><g fill-opacity=".5" transform="translate(.6 .6)scale(1.17188)"><circle cx="146" cy="123" r="188" fill="#433a56"/><circle cx="156" cy="191" r="51" fill="#2b3c59"/><circle cx="95" cy="20" r="30" fill="#bc846d"/><circle cx="159" cy="125" r="26" fill="#b39b54"/><circle cx="67" cy="72" r="34" fill="#37444b"/><circle cx="51" cy="191" r="13" fill="#ffc916"/><circle cx="136" cy="46" r="36" fill="#a1724a"/><circle cx="93" cy="176" r="26" fill="#2e3447"/><circle cx="209" cy="71" r="24" fill="#b37456"/><circle cx="204" cy="118" r="10" fill="#ffb044"/><circle cx="229" cy="6" r="44" fill="#394b50"/><circle cx="57" cy="124" r="24" fill="#9d885a"/><circle cx="116" cy="131" r="15" fill="#c09140"/><circle cx="162" cy="93" r="16" fill="#223858"/><circle cx="9" cy="44" r="11" fill="#ea9066"/><circle cx="66" cy="31" r="11" fill="#e5af6a"/><circle cx="235" cy="146" r="14" fill="#d0755c"/><circle cx="243" cy="103" r="13" fill="#9888b2"/><circle cx="255" cy="76" r="22" fill="#1e3f4c"/><circle cx="144" cy="70" r="10" fill="#eec03d"/><circle cx="32" cy="167" r="22" fill="#49353d"/><circle cx="35" cy="174" r="7" fill="#ffab54"/><circle cx="229" cy="191" r="22" fill="#233d75"/><circle cx="46" cy="127" r="9" fill="#171239"/><circle cx="115" cy="154" r="8" fill="#ff6c6d"/><circle cx="91" cy="145" r="6" fill="#ffdf35"/><circle cx="110" cy="35" r="6" fill="#00001d"/><circle cx="233" cy="28" r="7" fill="#ff6757"/><circle cy="165" r="15" fill="#cf8374"/><circle cx="76" cy="146" r="7" fill="#f6c26e"/></g></svg>