<svg xmlns="http://www.w3.org/2000/svg" width="300" height="225"><rect width="100%" height="100%" fill="#968658"/><g fill-opacity=".5"><path fill="#373452" d="M5.3-18.2-17 243.2l335.2-20z"/><path fill="#54435c" d="M305.3 243.2 311-12.3 41.6-15.8z"/><path fill="#c2a048" d="m69.7 181 99.6-59.7 103.2 21z"/><path fill="#1c3a56" d="m54.5 202.1 100.8 41 103.1-60.9z"/><path fill="#33484d" d="M298.2-18.2 201 10l117.2 106.6z"/><path fill="#d9997d" d="M143.6-14.6 142.4 31 58 38z"/><path fill="#ffd41a" d="m10 243.2 56.2-36.4L85 236.1z"/><path fill="#ffbe2b" d="M123.6 76.8 176.4 92l12.9-17.6z"/><path fill="#37444e" d="m14.6 120.1 215.7-4.7L52 60.4z"/><path fill="#c1a664" d="m49.8 169.3 51.6 3.6-21.1-55.1z"/><path fill="#a18756" d="M-18.2 81.4 38.1 92l9.4-110.2z"/><path fill="#ff8a5e" d="M278.3 87.3 242 65l15.2-12.9z"/><path fill="#151d36" d="m28.7 232.6-35.1 10.6L42.8 154z"/><path fill="#a87448" d="m108.4 53.3 75-32.8L160 121.3z"/><path fill="#b09ad1" d="m249 114.3 44.6 17.5 16.4-16.4z"/><path fill="#0c1848" d="m39.3-13.5 14 30.5L89.6-1.8z"/><path fill="#e48369" d="m298.2 161.1-36.3 41 5.9-49.2z"/><path fill="#e99b71" d="m-18.2 235 30.5-30.5L2.9 154z"/><path fill="#ff974c" d="m39.3 216.2 14-20-21 4.8z"/><path fill="#ff9f63" d="m134.2 191.6 11.7-16.4-17.6-16.4z"/><path fill="#f1a15f" d="m220.9 114.3 22.3-18.8-20-18.7z"/><path fill="#f8ac5e" d="m33.4 133 11.7 16.4 14-24.6z"/><path fill="#372a3b" d="m116.6 27.5 62.1 20-76.2-3.6z"/><path fill="#ffb252" d="m110.7 45.1 31.7 3.5-31.7 11.8z"/><path fill="#3f4745" d="m83.8 54.5 103.1 15.2L39.3 87.3z"/><path fill="#c7e29e" d="M81.4 206.8v-17.5l-17.5 7z"/><path fill="#234453" d="m287.7 51-21.1 61 37.5 2.3z"/><path fill="#b8aa77" d="m178.7 188 39.9-35-8.2-37.6z"/><path fill="#ff6d59" d="m280.7 22.9-1.2 21-15.2-14z"/><path fill="#dd9a84" d="m154.1 42.8 20-35.2 12.8 23.5z"/><path fill="#142e41" d="M264.3 149.4v-17.6l48 14.1z"/><path fill="#262634" d="m26.4 202.1 73.8-18.7-42.2-8.2z"/><path fill="#334453" d="m220.9 100.2-37.5-14-27 55z"/><path fill="#26163d" d="m174 165.8-5.8 20-32.8-23.5z"/><path fill="#332f47" d="m270.1 169.3 36.3 31.7-5.8-32.8z"/><path fill="#191e2c" d="m197.5 172.9 18.7 5.8 12.9-37.5z"/><path fill="#343e3d" d="m161.1 62.7 42.2 18.7 49.2-12.8z"/><path fill="#494746" d="m114.3 127.1-32.9 35.2 63.3-1.2z"/><path fill="#a0ac64" d="m272.5 79.1-13 71.5-25.7-10.6z"/><path fill="#27283c" d="m7.6 168.2 61-10.6-9.4-16.4z"/><path fill="#cbd76f" d="m149.4 61.5 11.7 27 4.7-34z"/><path fill="#0b336a" d="m285.4 228-38.7-31.7 42.2 9.4z"/><path fill="#1e3033" d="M47.5 72 2.9 69.8l64.5 25.8z"/><path fill="#c7975d" d="M59.2 46.3 26.4 11l19.9 49.3z"/><path fill="#d6a446" d="m192.8 150.6-42.2 11.7-29.3-27z"/><path fill="#4c3747" d="m-6.4 39.3 62 2.3L81.5 17z"/><path fill="#e67d6c" d="M14.6 66.2-18.2 37l39.9 4.7z"/><path fill="#f77534" d="m116.6 187-16.4 5.8 9.4-32.8z"/><path fill="#0f2825" d="m153 80.3 22.2 23.4-25.8-10.5z"/><path fill="#bcb3ba" d="M314.6 199.8 283 208l-3.5-10.5z"/></g></svg>