<svg xmlns="http://www.w3.org/2000/svg" width="300" height="225"><rect width="100%" height="100%" fill="#968658"/><g fill-opacity=".5" transform="translate(.6 .6)scale(1.17)"><circle cx="150" cy="125" r="193" fill="#433a56"/><circle cx="156" cy="191" r="51" fill="#2b3c59"/><circle cx="95" cy="20" r="30" fill="#bc846d"/><circle cx="158" cy="125" r="26" fill="#b39b54"/><circle cx="52" cy="190" r="12" fill="#ffd016"/><circle cx="68" cy="73" r="34" fill="#37444b"/><circle cx="138" cy="48" r="34" fill="#a37148"/><circle cx="93" cy="177" r="26" fill="#2d3447"/><circle cx="209" cy="71" r="24" fill="#b37456"/><circle cx="206" cy="118" r="10" fill="#f9bb45"/><circle cx="56" cy="124" r="24" fill="#9e885b"/><circle cx="229" cy="9" r="42" fill="#3a4b4f"/><circle cx="118" cy="131" r="16" fill="#bd8c3c"/><circle cx="161" cy="93" r="16" fill="#233958"/><circle cx="11" cy="46" r="10" fill="#eaa763"/><circle cx="243" cy="103" r="13" fill="#9888b2"/><circle cx="255" cy="76" r="22" fill="#1e3f4c"/><circle cx="234" cy="146" r="14" fill="#cf745b"/><circle cx="46" cy="128" r="9" fill="#131337"/><circle cx="92" cy="146" r="6" fill="#ffdf2f"/><circle cx="65" cy="31" r="12" fill="#d8a867"/><circle cx="229" cy="191" r="22" fill="#233d75"/><circle cx="32" cy="166" r="22" fill="#4a363e"/><circle cx="35" cy="176" r="7" fill="#ffa453"/><circle cx="145" cy="71" r="10" fill="#eebc3c"/><circle cx="116" cy="154" r="8" fill="#ff6d6c"/><circle cx="112" cy="33" r="8" fill="#112535"/><circle cx="75" cy="146" r="8" fill="#eab363"/><circle cx="233" cy="27" r="7" fill="#f65"/><circle cx="130" cy="97" r="23" fill="#4b4b54"/></g></svg>