<svg xmlns="http://www.w3.org/2000/svg" width="300" height="225"><rect width="100%" height="100%" fill="#968658"/><g fill-opacity=".5" transform="translate(.6 .6)scale(1.17188)"><circle cx="145" cy="176" r="225" fill="#433a56"/><circle cx="156" cy="191" r="51" fill="#2b3c59"/><circle cx="95" cy="22" r="30" fill="#bb846a"/><circle cx="160" cy="126" r="25" fill="#b69c51"/><circle cx="68" cy="71" r="33" fill="#35434a"/><circle cx="51" cy="191" r="13" fill="#ffc916"/><circle cx="147" cy="50" r="29" fill="#ad7c53"/><circle cx="217" cy="58" r="10" fill="#ff8c52"/><circle cx="92" cy="175" r="25" fill="#2d3447"/><circle cx="212" cy="100" r="27" fill="#958b69"/><circle cx="226" cy="14" r="37" fill="#3a4b4f"/><circle cx="120" cy="138" r="22" fill="#ae7c4a"/><circle cx="56" cy="124" r="24" fill="#9d885b"/><circle cx="8" cy="42" r="11" fill="#ed8769"/><circle cx="236" cy="146" r="14" fill="#d0765d"/><circle cx="161" cy="92" r="16" fill="#243b55"/><circle cx="65" cy="32" r="11" fill="#e0af6a"/><circle cx="120" cy="72" r="7" fill="#ffb71e"/><circle cx="33" cy="166" r="21" fill="#47353d"/><circle cx="35" cy="175" r="7" fill="#fa5"/><circle cx="248" cy="106" r="9" fill="#cd9fc1"/><circle cx="229" cy="191" r="22" fill="#233d75"/><circle cx="45" cy="128" r="9" fill="#16173b"/><circle cx="255" cy="75" r="22" fill="#20414e"/><circle cx="110" cy="34" r="7" fill="#021122"/><circle cx="204" cy="118" r="9" fill="#fda23b"/><circle cx="91" cy="146" r="6" fill="#ffdf32"/><circle cx="137" cy="67" r="6" fill="#ffff34"/><circle cx="233" cy="27" r="8" fill="#ef6452"/><circle cx="147" cy="75" r="7" fill="#ffca33"/></g></svg>