<svg xmlns="http://www.w3.org/2000/svg" width="300" height="225" viewBox="0 0 300 225"><g stroke-linecap="round"><path fill="rgba(123,142,120,255)" stroke="rgba(123,142,120,255)" d="M0 225V0l6 176-6 49"/><path fill="rgba(50,59,66,255)" stroke="rgba(50,59,66,255)" d="m0 0 36 102-9 16L0 0"/><path fill="rgba(47,85,68,255)" stroke="rgba(47,85,68,255)" d="M6 176 0 0l27 118-21 58"/><path fill="rgba(156,108,120,255)" stroke="rgba(156,108,120,255)" d="M0 0h300L114 10 0 0"/><path fill="rgba(63,57,83,255)" stroke="rgba(63,57,83,255)" d="M36 102 0 0l114 10-78 92"/><path fill="rgba(146,124,163,255)" stroke="rgba(146,124,163,255)" d="M300 0v225l-102-87L300 0"/><path fill="rgba(121,90,85,255)" stroke="rgba(121,90,85,255)" d="M114 10 300 0 198 138 114 10"/><path fill="rgba(35,46,53,255)" stroke="rgba(35,46,53,255)" d="M300 225H0l102-68 198 68"/><path fill="rgba(65,45,58,255)" stroke="rgba(65,45,58,255)" d="m198 138 102 87-198-68 96-19"/><path fill="rgba(54,52,63,255)" stroke="rgba(54,52,63,255)" d="m0 225 6-49 96-19L0 225"/><path fill="rgba(101,97,93,255)" stroke="rgba(101,97,93,255)" d="m27 118 9-16 66 55-75-39"/><path fill="rgba(117,111,111,255)" stroke="rgba(117,111,111,255)" d="m6 176 21-58 75 39-96 19"/><path fill="rgba(136,137,119,255)" stroke="rgba(136,137,119,255)" d="m36 102 78-92-12 147-66-55"/><path fill="rgba(21,26,44,255)" stroke="rgba(21,26,44,255)" d="m114 10 84 128-96 19 12-147"/></g></svg>