<svg xmlns="http://www.w3.org/2000/svg" width="300" height="225"><rect width="100%" height="100%" fill="#968658"/><g fill-opacity=".5" transform="translate(.6 .6)scale(1.17)"><circle cx="153" cy="119" r="191" fill="#433a56"/><circle cx="156" cy="191" r="51" fill="#2b3c59"/><circle cx="95" cy="21" r="30" fill="#bc846c"/><circle cx="160" cy="125" r="25" fill="#b79d53"/><circle cx="69" cy="72" r="33" fill="#35424a"/><circle cx="50" cy="191" r="13" fill="#ffc716"/><circle cx="137" cy="48" r="35" fill="#a17149"/><circle cx="92" cy="175" r="25" fill="#2d3447"/><circle cx="209" cy="71" r="24" fill="#b37456"/><circle cx="205" cy="117" r="10" fill="#ffba47"/><circle cx="228" cy="12" r="40" fill="#3b4a4e"/><circle cx="56" cy="124" r="24" fill="#9d885b"/><circle cx="125" cy="128" r="13" fill="#d29737"/><circle cx="7" cy="44" r="12" fill="#e78d66"/><circle cx="162" cy="93" r="17" fill="#293b59"/><circle cx="235" cy="146" r="14" fill="#d0755c"/><circle cx="33" cy="165" r="22" fill="#49363f"/><circle cx="34" cy="176" r="7" fill="#ffa459"/><circle cx="242" cy="101" r="13" fill="#9184b3"/><circle cx="255" cy="76" r="22" fill="#1e3f4a"/><circle cx="65" cy="31" r="11" fill="#e2ad69"/><circle cx="46" cy="128" r="9" fill="#131337"/><circle cx="229" cy="191" r="22" fill="#233d75"/><circle cx="116" cy="155" r="7" fill="#ff7276"/><circle cx="144" cy="70" r="10" fill="#eec13d"/><circle cx="91" cy="145" r="6" fill="#ffdf35"/><circle cx="111" cy="34" r="7" fill="#00132e"/><circle cx="75" cy="146" r="7" fill="#fdc36c"/><circle cx="113" cy="141" r="5" fill="#ffff4f"/><circle cx="233" cy="26" r="7" fill="#ff6754"/></g></svg>