<svg xmlns="http://www.w3.org/2000/svg" width="300" height="225"><rect width="100%" height="100%" fill="#968658"/><g fill-opacity=".5" transform="translate(.6 .6)scale(1.17)"><circle cx="134" cy="114" r="173" fill="#433a56"/><circle cx="157" cy="191" r="51" fill="#2b3c59"/><circle cx="94" cy="20" r="30" fill="#bb846d"/><circle cx="159" cy="125" r="26" fill="#b39b54"/><circle cx="67" cy="72" r="33" fill="#35434a"/><circle cx="137" cy="47" r="35" fill="#a27149"/><circle cx="51" cy="191" r="13" fill="#ffc916"/><circle cx="93" cy="178" r="27" fill="#2e3548"/><circle cx="210" cy="71" r="24" fill="#b37457"/><circle cx="205" cy="116" r="10" fill="#fbbd49"/><circle cx="225" cy="12" r="38" fill="#3a4b50"/><circle cx="57" cy="123" r="25" fill="#9a845b"/><circle cx="118" cy="131" r="16" fill="#bd8c3c"/><circle cx="162" cy="94" r="16" fill="#24395a"/><circle cx="10" cy="44" r="11" fill="#e79166"/><circle cx="235" cy="145" r="15" fill="#c7745a"/><circle cx="247" cy="106" r="9" fill="#cc9dc1"/><circle cx="116" cy="155" r="7" fill="#ff7176"/><circle cx="33" cy="167" r="21" fill="#48353c"/><circle cx="36" cy="176" r="8" fill="#ff934a"/><circle cx="144" cy="71" r="10" fill="#efbf3b"/><circle cx="229" cy="191" r="22" fill="#243d75"/><circle cx="255" cy="75" r="22" fill="#20414e"/><circle cx="66" cy="32" r="11" fill="#e0b06b"/><circle cx="47" cy="126" r="10" fill="#2c1c38"/><circle cx="111" cy="35" r="7" fill="#020e28"/><circle cx="92" cy="145" r="6" fill="#ffde31"/><circle cx="233" cy="27" r="8" fill="#ef6452"/><circle cx="98" cy="97" r="26" fill="#40505e"/><circle cx="16" cy="185" r="11" fill="#0f1d30"/></g></svg>