<svg xmlns="http://www.w3.org/2000/svg" width="300" height="225"><g filter="blur(8px)"><rect width="200%" height="200%" x="-50%" y="-50%" fill="#968658"/><path fill="#716159" d="M-40-39.5h76v76h-76z"/><path fill="#7b6759" d="M36-39.5h38v76H36z"/><path fill="#937068" d="M74-39.5h38v76H74z"/><path fill="#947468" d="M112-39.5h38v76h-38z"/><path fill="#7a6265" d="M150-39.5h38v76h-38z"/><path fill="#695e68" d="M188-39.5h38v76h-38z"/><path fill="#4d555b" d="M226-39.5h38v76h-38z"/><path fill="#585d53" d="M264-39.5h76v76h-76z"/><path fill="#877255" d="M-40 36.5h76v38h-76z"/><path fill="#6c6250" d="M36 36.5h38v38H36z"/><path fill="#6d604f" d="M74 36.5h38v38H74z"/><path fill="#8a6649" d="M112 36.5h38v38h-38z"/><path fill="#8e6e54" d="M150 36.5h38v38h-38z"/><path fill="#796158" d="M188 36.5h38v38h-38z"/><path fill="#7c594e" d="M226 36.5h38v38h-38z"/><path fill="#605a4e" d="M264 36.5h76v38h-76z"/><path fill="#5e624f" d="M-40 74.5h76v38h-76z"/><path fill="#4a5256" d="M36 74.5h38v38H36z"/><path fill="#495055" d="M74 74.5h38v38H74z"/><path fill="#655f52" d="M112 74.5h38v38h-38z"/><path fill="#72674d" d="M150 74.5h38v38h-38z"/><path fill="#655b51" d="M188 74.5h38v38h-38z"/><path fill="#8d6d5c" d="M226 74.5h38v38h-38z"/><path fill="#666065" d="M264 74.5h76v38h-76z"/><path fill="#645f60" d="M-40 112.5h76v38h-76z"/><path fill="#786659" d="M36 112.5h38v38H36z"/><path fill="#676459" d="M74 112.5h38v38H74z"/><path fill="#655f59" d="M112 112.5h38v38h-38z"/><path fill="#826f4f" d="M150 112.5h38v38h-38z"/><path fill="#85775f" d="M188 112.5h38v38h-38z"/><path fill="#7d785b" d="M226 112.5h38v38h-38z"/><path fill="#6a6d6b" d="M264 112.5h76v38h-76z"/><path fill="#6f575a" d="M-40 150.5h76v38h-76z"/><path fill="#686159" d="M36 150.5h38v38H36z"/><path fill="#816e52" d="M74 150.5h38v38H74z"/><path fill="#84674e" d="M112 150.5h38v38h-38z"/><path fill="#7f6d51" d="M150 150.5h38v38h-38z"/><path fill="#6d6357" d="M188 150.5h38v38h-38z"/><path fill="#725b53" d="M226 150.5h38v38h-38z"/><path fill="#7c6158" d="M264 150.5h76v38h-76z"/><path fill="#66514f" d="M-40 188.5h76v76h-76z"/><path fill="#7d6546" d="M36 188.5h38v76H36z"/><path fill="#545453" d="M74 188.5h38v76H74z"/><path fill="#484754" d="M112 188.5h38v76h-38z"/><path fill="#3d4a5c" d="M150 188.5h38v76h-38z"/><path fill="#474d5c" d="M188 188.5h38v76h-38z"/><path fill="#59515c" d="M226 188.5h38v76h-38z"/><path fill="#5f5469" d="M264 188.5h76v76h-76z"/></g></svg>