<svg xmlns="http://www.w3.org/2000/svg" width="300" height="225" viewBox="0 0 300 225"><g stroke-linecap="round"><path fill="rgba(55,73,73,255)" stroke="rgba(55,73,73,255)" d="m300 0-47 49-42-28 89-21"/><path fill="rgba(44,38,64,255)" stroke="rgba(44,38,64,255)" d="m253 49-16 2-26-30 42 28"/><path fill="rgba(99,120,113,255)" stroke="rgba(99,120,113,255)" d="M300 225H0l55-13 245 13"/><path fill="rgba(98,103,86,255)" stroke="rgba(98,103,86,255)" d="M0 225V0l55 212-55 13"/><path fill="rgba(158,131,164,255)" stroke="rgba(158,131,164,255)" d="M0 0h300H0"/><path fill="rgba(80,82,95,255)" stroke="rgba(80,82,95,255)" d="m300 0-89 21L48 0h252"/><path fill="rgba(30,33,36,255)" stroke="rgba(30,33,36,255)" d="M211 21 55 212 48 0l163 21"/><path fill="rgba(78,88,75,255)" stroke="rgba(78,88,75,255)" d="M55 212 0 0h48l7 212"/><path fill="rgba(167,152,181,255)" stroke="rgba(167,152,181,255)" d="M300 0v225l-55-79L300 0"/><path fill="rgba(97,50,46,255)" stroke="rgba(97,50,46,255)" d="m253 49 47-49-55 146 8-97"/><path fill="rgba(161,98,83,255)" stroke="rgba(161,98,83,255)" d="m237 51 16-2-8 97-8-95"/><path fill="rgba(38,50,62,255)" stroke="rgba(38,50,62,255)" d="M300 225 55 212l190-66 55 79"/><path fill="rgba(97,83,73,255)" stroke="rgba(97,83,73,255)" d="m211 21 26 30 8 95-34-125"/><path fill="rgba(90,74,100,255)" stroke="rgba(90,74,100,255)" d="M55 212 211 21l34 125-190 66"/></g></svg>