<svg xmlns="http://www.w3.org/2000/svg" width="300" height="225" viewBox="0 0 300 225"><g stroke-linecap="round"><path fill="rgba(150,157,139,255)" stroke="rgba(150,157,139,255)" d="M300 0v225L252 28l48-28"/><path fill="rgba(98,85,118,255)" stroke="rgba(98,85,118,255)" d="M300 225 165 105l87-77 48 197"/><path fill="rgba(47,50,69,255)" stroke="rgba(47,50,69,255)" d="M0 0h300L165 14 0 0"/><path fill="rgba(80,68,93,255)" stroke="rgba(80,68,93,255)" d="m300 0-48 28-87-14L300 0"/><path fill="rgba(241,99,123,255)" stroke="rgba(241,99,123,255)" d="m252 28-87 77V14l87 14"/><path fill="rgba(214,161,179,255)" stroke="rgba(214,161,179,255)" d="m0 0 165 14-73 20L0 0"/><path fill="rgba(233,169,99,255)" stroke="rgba(233,169,99,255)" d="M165 14v91L92 34l73-20"/><path fill="rgba(79,74,79,255)" stroke="rgba(79,74,79,255)" d="M0 225V0l80 56L0 225"/><path fill="rgba(72,75,72,255)" stroke="rgba(72,75,72,255)" d="m0 0 92 34-12 22L0 0"/><path fill="rgba(90,91,109,255)" stroke="rgba(90,91,109,255)" d="m92 34 73 71-85-49 12-22"/><path fill="rgba(90,96,112,255)" stroke="rgba(90,96,112,255)" d="M300 225H0l114-45 186 45"/><path fill="rgba(191,138,78,255)" stroke="rgba(191,138,78,255)" d="m165 105 135 120-186-45 51-75"/><path fill="rgba(70,53,23,255)" stroke="rgba(70,53,23,255)" d="M0 225 80 56l34 124L0 225"/><path fill="rgba(57,75,77,255)" stroke="rgba(57,75,77,255)" d="m80 56 85 49-51 75L80 56"/></g></svg>