<svg xmlns="http://www.w3.org/2000/svg" width="300" height="225" viewBox="0 0 300 225"><g stroke-linecap="round"><path fill="rgba(109,84,88,255)" stroke="rgba(109,84,88,255)" d="M0 225V0l22 105L0 225"/><path fill="rgba(73,49,71,255)" stroke="rgba(73,49,71,255)" d="m0 225 22-120 14 50-36 70"/><path fill="rgba(250,189,157,255)" stroke="rgba(250,189,157,255)" d="M0 0h300L104 30 0 0"/><path fill="rgba(74,85,102,255)" stroke="rgba(74,85,102,255)" d="m300 0-24 32-172-2L300 0"/><path fill="rgba(180,141,72,255)" stroke="rgba(180,141,72,255)" d="M22 105 0 0l104 30-82 75"/><path fill="rgba(35,44,63,255)" stroke="rgba(35,44,63,255)" d="m36 155-14-50 82-75-68 125"/><path fill="rgba(60,65,83,255)" stroke="rgba(60,65,83,255)" d="M300 225H0l202-27 98 27"/><path fill="rgba(142,167,125,255)" stroke="rgba(142,167,125,255)" d="m0 225 36-70 166 43L0 225"/><path fill="rgba(57,59,70,255)" stroke="rgba(57,59,70,255)" d="m36 155 68-125 98 168-166-43"/><path fill="rgba(20,26,48,255)" stroke="rgba(20,26,48,255)" d="M300 0v225L281 53l19-53"/><path fill="rgba(75,101,87,255)" stroke="rgba(75,101,87,255)" d="m276 32 24-32-19 53-5-21"/><path fill="rgba(77,91,56,255)" stroke="rgba(77,91,56,255)" d="m300 225-98-27 79-145 19 172"/><path fill="rgba(241,192,145,255)" stroke="rgba(241,192,145,255)" d="m104 30 172 2 5 21-177-23"/><path fill="rgba(106,68,53,255)" stroke="rgba(106,68,53,255)" d="M202 198 104 30l177 23-79 145"/></g></svg>