<svg xmlns="http://www.w3.org/2000/svg" width="300" height="225"><g filter="blur(12px)"><rect width="200%" height="200%" x="-50%" y="-50%" fill="#968658"/><rect width="100%" height="100%" fill="#968658"/><g fill-opacity=".5" transform="translate(.6 .6)scale(1.17)"><circle r="1" fill="#433a56" transform="rotate(-48 200.6 -120.6)scale(186.17 185.7)"/><circle r="1" fill="#1b3553" transform="matrix(72.85 .4 -.12 22.45 138 183.4)"/><circle r="1" fill="#b7a158" transform="rotate(166 75 72.5)scale(92.03 11.15)"/><circle r="1" fill="#a6785b" transform="rotate(-61 88 -81.8)scale(34.68 68.2)"/><ellipse cx="69" cy="73" fill="#31414a" rx="37" ry="30"/><circle r="1" fill="#ffd116" transform="matrix(-12.93 8.72 -5 -7.42 49 191)"/><path fill="#18243a" d="m-3.9 200.6 49.5-83.5-18.9 63.7 15.1 15.1z"/><path fill="#bc9c5a" d="m52.8 103.2 21-2.2 5.4 51.8-21 2.2z"/></g></g></svg>