<svg xmlns="http://www.w3.org/2000/svg" width="300" height="225"><g filter="blur(10px)"><rect width="200%" height="200%" x="-50%" y="-50%" fill="#968658"/><rect width="100%" height="100%" fill="#968658"/><g fill-opacity=".5" transform="translate(.6 .6)scale(1.17)"><circle cx="137" cy="112" r="174" fill="#433a56"/><circle cx="156" cy="190" r="50" fill="#2b3c5a"/><circle cx="95" cy="22" r="30" fill="#bb846a"/><circle cx="158" cy="125" r="26" fill="#b39b54"/><circle cx="68" cy="73" r="34" fill="#36444b"/><circle cx="51" cy="191" r="13" fill="#ffc916"/><circle cx="147" cy="50" r="30" fill="#ab7b52"/><circle cx="92" cy="178" r="27" fill="#2d3649"/><circle cx="210" cy="72" r="23" fill="#b47858"/><circle cx="205" cy="116" r="10" fill="#fbbd49"/><circle cx="225" cy="8" r="41" fill="#3a4c52"/><circle cx="57" cy="124" r="24" fill="#9d885a"/><circle cx="117" cy="132" r="16" fill="#bb8c3d"/><circle cx="163" cy="93" r="17" fill="#283b59"/><circle cx="9" cy="44" r="11" fill="#ea9066"/><circle cx="235" cy="146" r="14" fill="#d0755c"/><circle cx="248" cy="106" r="9" fill="#cd9fc1"/><circle cx="33" cy="166" r="21" fill="#47353d"/><circle cx="35" cy="175" r="7" fill="#fa5"/><circle cx="66" cy="33" r="11" fill="#daaf6b"/><circle cx="229" cy="191" r="22" fill="#233d75"/><circle cx="91" cy="145" r="6" fill="#ffdf35"/><circle cx="121" cy="72" r="7" fill="#ffb91d"/><circle cx="45" cy="129" r="8" fill="#040f37"/><circle cx="116" cy="154" r="7" fill="#ff7673"/><circle cx="255" cy="75" r="22" fill="#20414e"/><circle cx="113" cy="35" r="7" fill="#0e1322"/><circle cx="234" cy="27" r="7" fill="#ff6a55"/><circle cx="142" cy="69" r="10" fill="#e1be39"/><circle cx="16" cy="184" r="10" fill="#0b192d"/></g></g></svg>