<svg xmlns="http://www.w3.org/2000/svg" width="300" height="225"><rect width="100%" height="100%" fill="#968658"/><g fill-opacity=".5" transform="translate(.6 .6)scale(1.17188)"><circle cx="146" cy="123" r="188" fill="#433a56"/><circle cx="156" cy="191" r="51" fill="#2b3c59"/><circle cx="93" cy="21" r="30" fill="#b9836c"/><circle cx="159" cy="125" r="26" fill="#b39b54"/><circle cx="68" cy="71" r="33" fill="#35434a"/><circle cx="49" cy="191" r="13" fill="#ffc216"/><circle cx="138" cy="48" r="34" fill="#a37149"/><circle cx="93" cy="176" r="26" fill="#2e3447"/><circle cx="209" cy="71" r="24" fill="#b37456"/><circle cx="225" cy="9" r="40" fill="#394c51"/><circle cx="206" cy="116" r="10" fill="#f8c24b"/><circle cx="109" cy="139" r="23" fill="#a47a4a"/><circle cx="161" cy="93" r="16" fill="#223958"/><circle cx="57" cy="124" r="24" fill="#9c885a"/><circle cx="9" cy="44" r="11" fill="#ea9066"/><circle cx="33" cy="167" r="21" fill="#47353c"/><circle cx="35" cy="175" r="7" fill="#ffaa56"/><circle cx="236" cy="144" r="15" fill="#c6785b"/><circle cx="246" cy="104" r="10" fill="#b493bf"/><circle cx="255" cy="77" r="22" fill="#1f404f"/><circle cx="229" cy="191" r="22" fill="#233d75"/><circle cx="66" cy="32" r="11" fill="#dfb06b"/><circle cx="144" cy="70" r="10" fill="#edc13d"/><circle cx="46" cy="126" r="10" fill="#291a3b"/><circle cx="97" cy="97" r="28" fill="#414f5b"/><circle cx="232" cy="28" r="7" fill="#ff6055"/><circle cx="110" cy="33" r="8" fill="#152634"/><circle cx="16" cy="72" r="5" fill="#fffc29"/><circle cx="75" cy="146" r="7" fill="#fdc36c"/><circle cx="16" cy="186" r="12" fill="#122033"/></g></svg>