<svg xmlns="http://www.w3.org/2000/svg" width="300" height="225"><rect width="100%" height="100%" fill="#968658"/><g fill-opacity=".5" transform="translate(.6 .6)scale(1.17188)"><circle cx="132" cy="106" r="167" fill="#433a56"/><circle cx="156" cy="191" r="51" fill="#2b3c59"/><circle cx="95" cy="21" r="30" fill="#bc846c"/><circle cx="158" cy="125" r="26" fill="#b39b54"/><circle cx="68" cy="72" r="34" fill="#37444b"/><circle cx="51" cy="191" r="13" fill="#ffc916"/><circle cx="149" cy="50" r="28" fill="#af8056"/><circle cx="209" cy="71" r="24" fill="#b37456"/><circle cx="93" cy="175" r="25" fill="#2e3346"/><circle cx="206" cy="117" r="10" fill="#fbc048"/><circle cx="224" cy="15" r="35" fill="#3a4b50"/><circle cx="57" cy="123" r="25" fill="#9a855b"/><circle cx="117" cy="132" r="16" fill="#bb8c3d"/><circle cx="122" cy="72" r="7" fill="#ffb719"/><circle cx="9" cy="45" r="12" fill="#e09366"/><circle cx="161" cy="91" r="16" fill="#233a53"/><circle cx="67" cy="32" r="12" fill="#d8ac6a"/><circle cx="242" cy="102" r="13" fill="#9586b3"/><circle cx="255" cy="76" r="22" fill="#1e3f4b"/><circle cx="235" cy="145" r="15" fill="#c7745a"/><circle cx="116" cy="155" r="7" fill="#ff7376"/><circle cx="34" cy="165" r="21" fill="#47353d"/><circle cx="38" cy="175" r="7" fill="#ff9941"/><circle cx="229" cy="191" r="22" fill="#233d75"/><circle cx="91" cy="146" r="6" fill="#ffdf32"/><circle cx="46" cy="128" r="8" fill="#050931"/><circle cx="144" cy="71" r="10" fill="#edb935"/><circle cx="151" cy="50" r="18" fill="#585150"/><circle cx="110" cy="35" r="6" fill="#000012"/><circle cx="18" cy="191" r="16" fill="#172539"/></g></svg>