<svg xmlns="http://www.w3.org/2000/svg" width="300" height="225"><path fill="#5a5c5a" d="M-21-20.5h38v38h-38z"/><path fill="#816d5e" d="M17-20.5h19v38H17z"/><path fill="#747260" d="M36-20.5h19v38H36z"/><path fill="#604e5a" d="M55-20.5h19v38H55z"/><path fill="#725d67" d="M74-20.5h19v38H74z"/><path fill="#8c6b71" d="M93-20.5h19v38H93z"/><path fill="#a58278" d="M112-20.5h19v38h-19z"/><path fill="#9c7c71" d="M131-20.5h19v38h-19z"/><path fill="#585766" d="M150-20.5h19v38h-19z"/><path fill="#6e5f6c" d="M169-20.5h19v38h-19z"/><path fill="#606067" d="M188-20.5h19v38h-19z"/><path fill="#656869" d="M207-20.5h19v38h-19z"/><path fill="#4b4d5c" d="M226-20.5h19v38h-19z"/><path fill="#4d5c58" d="M245-20.5h19v38h-19z"/><path fill="#495e56" d="M264-20.5h19v38h-19z"/><path fill="#515a54" d="M283-20.5h38v38h-38z"/><path fill="#605455" d="M-21 17.5h38v19h-38z"/><path fill="#916d5b" d="M17 17.5h19v19H17z"/><path fill="#675844" d="M36 17.5h19v19H36z"/><path fill="#80635a" d="M55 17.5h19v19H55z"/><path fill="#c38c66" d="M74 17.5h19v19H74z"/><path fill="#976c64" d="M93 17.5h19v19H93z"/><path fill="#887365" d="M112 17.5h19v19h-19z"/><path fill="#887059" d="M131 17.5h19v19h-19z"/><path fill="#8b6158" d="M150 17.5h19v19h-19z"/><path fill="#9c7d6b" d="M169 17.5h19v19h-19z"/><path fill="#705359" d="M188 17.5h19v19h-19z"/><path fill="#675b68" d="M207 17.5h19v19h-19z"/><path fill="#515a67" d="M226 17.5h19v19h-19z"/><path fill="#475453" d="M245 17.5h19v19h-19z"/><path fill="#805d55" d="M264 17.5h19v19h-19z"/><path fill="#536052" d="M283 17.5h38v19h-38z"/><path fill="#a76b60" d="M-21 36.5h38v19h-38z"/><path fill="#796656" d="M17 36.5h19v19H17z"/><path fill="#867156" d="M36 36.5h19v19H36z"/><path fill="#77644d" d="M55 36.5h19v19H55z"/><path fill="#7d775c" d="M74 36.5h19v19H74z"/><path fill="#756451" d="M93 36.5h19v19H93z"/><path fill="#965f42" d="M112 36.5h19v19h-19z"/><path fill="#7e544a" d="M131 36.5h19v19h-19z"/><path fill="#98635b" d="M150 36.5h19v19h-19z"/><path fill="#7d685d" d="M169 36.5h19v19h-19z"/><path fill="#885b64" d="M188 36.5h19v19h-19z"/><path fill="#7e645b" d="M207 36.5h19v19h-19z"/><path fill="#755b57" d="M226 36.5h19v19h-19z"/><path fill="#594a4b" d="M245 36.5h19v19h-19z"/><path fill="#6d5d4b" d="M264 36.5h19v19h-19z"/><path fill="#41564e" d="M283 36.5h38v19h-38z"/><path fill="#847a51" d="M-21 55.5h38v19h-38z"/><path fill="#6f7255" d="M17 55.5h19v19H17z"/><path fill="#636455" d="M36 55.5h19v19H36z"/><path fill="#5d5253" d="M55 55.5h19v19H55z"/><path fill="#454748" d="M74 55.5h19v19H74z"/><path fill="#645f4f" d="M93 55.5h19v19H93z"/><path fill="#8a6c4d" d="M112 55.5h19v19h-19z"/><path fill="#805e4c" d="M131 55.5h19v19h-19z"/><path fill="#928a5c" d="M150 55.5h19v19h-19z"/><path fill="#756050" d="M169 55.5h19v19h-19z"/><path fill="#6d6450" d="M188 55.5h19v19h-19z"/><path fill="#655d56" d="M207 55.5h19v19h-19z"/><path fill="#79564b" d="M226 55.5h19v19h-19z"/><path fill="#b16d4e" d="M245 55.5h19v19h-19z"/><path fill="#6e504b" d="M264 55.5h19v19h-19z"/><path fill="#48564f" d="M283 55.5h38v19h-38z"/><path fill="#6c7a55" d="M-21 74.5h38v19h-38z"/><path fill="#7c7a47" d="M17 74.5h19v19H17z"/><path fill="#414346" d="M36 74.5h19v19H36z"/><path fill="#505754" d="M55 74.5h19v19H55z"/><path fill="#565854" d="M74 74.5h19v19H74z"/><path fill="#49494d" d="M93 74.5h19v19H93z"/><path fill="#585d59" d="M112 74.5h19v19h-19z"/><path fill="#8c6d3d" d="M131 74.5h19v19h-19z"/><path fill="#9c853e" d="M150 74.5h19v19h-19z"/><path fill="#a17b43" d="M169 74.5h19v19h-19z"/><path fill="#776651" d="M188 74.5h19v19h-19z"/><path fill="#76594c" d="M207 74.5h19v19h-19z"/><path fill="#866450" d="M226 74.5h19v19h-19z"/><path fill="#876758" d="M245 74.5h19v19h-19z"/><path fill="#816869" d="M264 74.5h19v19h-19z"/><path fill="#465452" d="M283 74.5h38v19h-38z"/><path fill="#594e4a" d="M-21 93.5h38v19h-38z"/><path fill="#52574f" d="M17 93.5h19v19H17z"/><path fill="#434d56" d="M36 93.5h19v19H36z"/><path fill="#4b535a" d="M55 93.5h19v19H55z"/><path fill="#444a51" d="M74 93.5h19v19H74z"/><path fill="#525754" d="M93 93.5h19v19H93z"/><path fill="#4f595c" d="M112 93.5h19v19h-19z"/><path fill="#504c4b" d="M131 93.5h19v19h-19z"/><path fill="#78634f" d="M150 93.5h19v19h-19z"/><path fill="#434c48" d="M169 93.5h19v19h-19z"/><path fill="#454e54" d="M188 93.5h19v19h-19z"/><path fill="#7a6850" d="M207 93.5h19v19h-19z"/><path fill="#8f725b" d="M226 93.5h19v19h-19z"/><path fill="#77715c" d="M245 93.5h19v19h-19z"/><path fill="#6c6968" d="M264 93.5h19v19h-19z"/><path fill="#3d505d" d="M283 93.5h38v19h-38z"/><path fill="#6b6363" d="M-21 112.5h38v19h-38z"/><path fill="#5e5660" d="M17 112.5h19v19H17z"/><path fill="#6b6366" d="M36 112.5h19v19H36z"/><path fill="#6b6960" d="M55 112.5h19v19H55z"/><path fill="#726a56" d="M74 112.5h19v19H74z"/><path fill="#595e69" d="M93 112.5h19v19H93z"/><path fill="#565965" d="M112 112.5h19v19h-19z"/><path fill="#585762" d="M131 112.5h19v19h-19z"/><path fill="#6e5a62" d="M150 112.5h19v19h-19z"/><path fill="#685c64" d="M169 112.5h19v19h-19z"/><path fill="#6b6668" d="M188 112.5h19v19h-19z"/><path fill="#71666f" d="M207 112.5h19v19h-19z"/><path fill="#6d6560" d="M226 112.5h19v19h-19z"/><path fill="#777c65" d="M245 112.5h19v19h-19z"/><path fill="#797081" d="M264 112.5h19v19h-19z"/><path fill="#8d7b8b" d="M283 112.5h38v19h-38z"/><path fill="#5f6b61" d="M-21 131.5h38v19h-38z"/><path fill="#766d63" d="M17 131.5h19v19H17z"/><path fill="#846352" d="M36 131.5h19v19H36z"/><path fill="#7f634a" d="M55 131.5h19v19H55z"/><path fill="#907950" d="M74 131.5h19v19H74z"/><path fill="#505153" d="M93 131.5h19v19H93z"/><path fill="#666256" d="M112 131.5h19v19h-19z"/><path fill="#956d4c" d="M131 131.5h19v19h-19z"/><path fill="#8c7f44" d="M150 131.5h19v19h-19z"/><path fill="#a28c45" d="M169 131.5h19v19h-19z"/><path fill="#a29055" d="M188 131.5h19v19h-19z"/><path fill="#958660" d="M207 131.5h19v19h-19z"/><path fill="#a4764f" d="M226 131.5h19v19h-19z"/><path fill="#869750" d="M245 131.5h19v19h-19z"/><path fill="#515850" d="M264 131.5h19v19h-19z"/><path fill="#5d575e" d="M283 131.5h38v19h-38z"/><path fill="#705853" d="M-21 150.5h38v19h-38z"/><path fill="#634b55" d="M17 150.5h19v19H17z"/><path fill="#5c5958" d="M36 150.5h19v19H36z"/><path fill="#8b8363" d="M55 150.5h19v19H55z"/><path fill="#957d5f" d="M74 150.5h19v19H74z"/><path fill="#73664f" d="M93 150.5h19v19H93z"/><path fill="#7f7a55" d="M112 150.5h19v19h-19z"/><path fill="#91794a" d="M131 150.5h19v19h-19z"/><path fill="#9a7f42" d="M150 150.5h19v19h-19z"/><path fill="#94774d" d="M169 150.5h19v19h-19z"/><path fill="#837558" d="M188 150.5h19v19h-19z"/><path fill="#615c48" d="M207 150.5h19v19h-19z"/><path fill="#705c60" d="M226 150.5h19v19h-19z"/><path fill="#635a47" d="M245 150.5h19v19h-19z"/><path fill="#867f55" d="M264 150.5h19v19h-19z"/><path fill="#817369" d="M283 150.5h38v19h-38z"/><path fill="#896664" d="M-21 169.5h38v19h-38z"/><path fill="#584152" d="M17 169.5h19v19H17z"/><path fill="#545658" d="M36 169.5h19v19H36z"/><path fill="#5f5e58" d="M55 169.5h19v19H55z"/><path fill="#7c6652" d="M74 169.5h19v19H74z"/><path fill="#8a6443" d="M93 169.5h19v19H93z"/><path fill="#845d52" d="M112 169.5h19v19h-19z"/><path fill="#8c615a" d="M131 169.5h19v19h-19z"/><path fill="#45405a" d="M150 169.5h19v19h-19z"/><path fill="#6f6862" d="M169 169.5h19v19h-19z"/><path fill="#6c606b" d="M188 169.5h19v19h-19z"/><path fill="#514d56" d="M207 169.5h19v19h-19z"/><path fill="#5c5351" d="M226 169.5h19v19h-19z"/><path fill="#784e64" d="M245 169.5h19v19h-19z"/><path fill="#b35e5f" d="M264 169.5h19v19h-19z"/><path fill="#624e4f" d="M283 169.5h38v19h-38z"/><path fill="#8b645e" d="M-21 188.5h38v19h-38z"/><path fill="#494649" d="M17 188.5h19v19H17z"/><path fill="#6c4c41" d="M36 188.5h19v19H36z"/><path fill="#586057" d="M55 188.5h19v19H55z"/><path fill="#54605b" d="M74 188.5h19v19H74z"/><path fill="#4e454f" d="M93 188.5h19v19H93z"/><path fill="#46404c" d="M112 188.5h19v19h-19z"/><path fill="#4b4253" d="M131 188.5h19v19h-19z"/><path fill="#47565e" d="M150 188.5h19v19h-19z"/><path fill="#3c4850" d="M169 188.5h19v19h-19z"/><path fill="#444e5e" d="M188 188.5h19v19h-19z"/><path fill="#414758" d="M207 188.5h19v19h-19z"/><path fill="#4b524f" d="M226 188.5h19v19h-19z"/><path fill="#6a5d60" d="M245 188.5h19v19h-19z"/><path fill="#6a4863" d="M264 188.5h19v19h-19z"/><path fill="#6b646b" d="M283 188.5h38v19h-38z"/><path fill="#5f5249" d="M-21 207.5h38v38h-38z"/><path fill="#464349" d="M17 207.5h19v38H17z"/><path fill="#ac6f3e" d="M36 207.5h19v38H36z"/><path fill="#af8839" d="M55 207.5h19v38H55z"/><path fill="#4d4e50" d="M74 207.5h19v38H74z"/><path fill="#414d58" d="M93 207.5h19v38H93z"/><path fill="#43515c" d="M112 207.5h19v38h-19z"/><path fill="#3b4d53" d="M131 207.5h19v38h-19z"/><path fill="#3b4a54" d="M150 207.5h19v38h-19z"/><path fill="#424c5b" d="M169 207.5h19v38h-19z"/><path fill="#47515b" d="M188 207.5h19v38h-19z"/><path fill="#54535c" d="M207 207.5h19v38h-19z"/><path fill="#5a4e57" d="M226 207.5h19v38h-19z"/><path fill="#5a595e" d="M245 207.5h19v38h-19z"/><path fill="#364f70" d="M264 207.5h19v38h-19z"/><path fill="#535064" d="M283 207.5h38v38h-38z"/></svg>