<svg xmlns="http://www.w3.org/2000/svg" width="300" height="225" viewBox="0 0 300 225"><g stroke-linecap="round"><path fill="rgba(43,53,69,255)" stroke="rgba(43,53,69,255)" d="M300 225H0l210-23 90 23"/><path fill="rgba(123,83,58,255)" stroke="rgba(123,83,58,255)" d="M0 0h300L120 64 0 0"/><path fill="rgba(152,147,187,255)" stroke="rgba(152,147,187,255)" d="M300 0v225l-27-98L300 0"/><path fill="rgba(109,97,133,255)" stroke="rgba(109,97,133,255)" d="m300 225-90-23 63-75 27 98"/><path fill="rgba(113,91,65,255)" stroke="rgba(113,91,65,255)" d="M120 64 300 0l-33 105-147-41"/><path fill="rgba(28,24,37,255)" stroke="rgba(28,24,37,255)" d="m300 0-27 127-6-22L300 0"/><path fill="rgba(125,176,143,255)" stroke="rgba(125,176,143,255)" d="M0 225V0l61 62L0 225"/><path fill="rgba(97,100,105,255)" stroke="rgba(97,100,105,255)" d="m0 0 120 64-59-2L0 0"/><path fill="rgba(99,109,119,255)" stroke="rgba(99,109,119,255)" d="M210 202 0 225l179-61 31 38"/><path fill="rgba(71,84,90,255)" stroke="rgba(71,84,90,255)" d="m120 64 147 41-88 59-59-100"/><path fill="rgba(64,79,64,255)" stroke="rgba(64,79,64,255)" d="m273 127-63 75-31-38 94-37"/><path fill="rgba(229,201,112,255)" stroke="rgba(229,201,112,255)" d="m267 105 6 22-94 37 88-59"/><path fill="rgba(82,76,64,255)" stroke="rgba(82,76,64,255)" d="M0 225 61 62l118 102L0 225"/><path fill="rgba(56,67,57,255)" stroke="rgba(56,67,57,255)" d="m61 62 59 2 59 100L61 62"/></g></svg>