<svg xmlns="http://www.w3.org/2000/svg" width="300" height="225"><g filter="blur(10px)"><rect width="200%" height="200%" x="-50%" y="-50%" fill="#968658"/><rect width="100%" height="100%" fill="#968658"/><g fill-opacity=".5" transform="translate(.6 .6)scale(1.17)"><circle cx="176" cy="145" r="225" fill="#433a56"/><circle cx="156" cy="191" r="51" fill="#2b3c59"/><circle cx="95" cy="23" r="30" fill="#ba8369"/><circle cx="158" cy="125" r="26" fill="#b39b54"/><circle cx="70" cy="72" r="33" fill="#35434a"/><circle cx="51" cy="191" r="13" fill="#ffc916"/><circle cx="148" cy="50" r="29" fill="#ad7d54"/><circle cx="92" cy="175" r="25" fill="#2d3447"/><circle cx="209" cy="71" r="24" fill="#b37456"/><circle cx="206" cy="117" r="10" fill="#fbc048"/><circle cx="228" cy="12" r="40" fill="#3b4a4e"/><circle cx="56" cy="124" r="24" fill="#9d885b"/><circle cx="117" cy="131" r="16" fill="#bc8d3d"/><circle cx="162" cy="93" r="17" fill="#283a59"/><circle cx="11" cy="46" r="10" fill="#eaa763"/><circle cx="234" cy="146" r="13" fill="#d5765a"/><circle cx="246" cy="105" r="10" fill="#bb95bf"/><circle cx="120" cy="72" r="7" fill="#ffb71e"/><circle cx="33" cy="165" r="22" fill="#4a363f"/><circle cx="34" cy="174" r="8" fill="#ff9753"/><circle cx="229" cy="191" r="22" fill="#233d75"/><circle cx="46" cy="129" r="8" fill="#000a31"/><circle cx="116" cy="154" r="7" fill="#ff7673"/><circle cx="67" cy="31" r="12" fill="#d8a968"/><circle cx="255" cy="76" r="22" fill="#1f404f"/><circle cx="93" cy="146" r="6" fill="#ffdb2f"/><circle cx="233" cy="27" r="7" fill="#ff6656"/><circle cx="147" cy="73" r="7" fill="#ffcf39"/><circle cx="16" cy="72" r="5" fill="#fffc29"/><circle cx="18" cy="191" r="16" fill="#17273a"/></g></g></svg>