<svg xmlns="http://www.w3.org/2000/svg" width="300" height="225"><rect width="100%" height="100%" fill="#968658"/><g fill-opacity=".5" transform="translate(.6 .6)scale(1.17188)"><circle cx="158" cy="129" r="201" fill="#433a56"/><circle cx="156" cy="191" r="51" fill="#2b3c59"/><circle cx="95" cy="21" r="30" fill="#bc846c"/><circle cx="159" cy="126" r="26" fill="#b39a52"/><circle cx="69" cy="71" r="33" fill="#35434a"/><circle cx="51" cy="191" r="13" fill="#ffc916"/><circle cx="138" cy="48" r="34" fill="#a27148"/><circle cx="92" cy="175" r="25" fill="#2d3447"/><circle cx="209" cy="71" r="24" fill="#b37456"/><circle cx="206" cy="117" r="10" fill="#fbc048"/><circle cx="225" cy="12" r="38" fill="#3a4b50"/><circle cx="117" cy="131" r="16" fill="#bc8d3d"/><circle cx="69" cy="136" r="17" fill="#b49460"/><circle cx="7" cy="44" r="12" fill="#e78d66"/><circle cx="163" cy="94" r="16" fill="#253a5b"/><circle cx="236" cy="145" r="14" fill="#ce7a5c"/><circle cx="246" cy="105" r="10" fill="#bb95bf"/><circle cx="229" cy="191" r="22" fill="#233d75"/><circle cx="67" cy="32" r="12" fill="#d8ac6a"/><circle cx="33" cy="166" r="21" fill="#47353d"/><circle cx="34" cy="175" r="8" fill="#ff9957"/><circle cx="92" cy="146" r="6" fill="#ffe130"/><circle cx="255" cy="76" r="22" fill="#1f404f"/><circle cx="143" cy="70" r="10" fill="#ecc23d"/><circle cx="116" cy="155" r="7" fill="#ff7276"/><circle cx="112" cy="33" r="8" fill="#122536"/><circle cx="232" cy="29" r="7" fill="#ff6156"/><circle cx="67" cy="108" r="7" fill="#e5d141"/><circle cx="121" cy="72" r="7" fill="#ffb424"/><circle cx="18" cy="191" r="16" fill="#17263a"/></g></svg>