<svg xmlns="http://www.w3.org/2000/svg" width="300" height="225"><rect width="100%" height="100%" fill="#968658"/><g fill-opacity=".5"><path fill="#373452" d="m-17 240.8 335.2-17.6L5.2-18.2z"/><path fill="#54435c" d="M303-13.5 39.2-18.2l266 261.4z"/><path fill="#c5a148" d="M167 121.3 69.7 181l195.7-38.7z"/><path fill="#19344f" d="M264.3 190.4 90.8 243.2l-8.2-51.6z"/><path fill="#36494f" d="m299.4-18.2 18.8 125.4-132.5-96z"/><path fill="#ffd61a" d="M95.5 243.2H19.3l43.4-36.4z"/><path fill="#d6977d" d="m60.4 38 83.2-5.8 1.1-50.4z"/><path fill="#f8b62b" d="m122.5 79.1 64.4-5.9-8.2 21.1z"/><path fill="#bca162" d="m48.6 167 48 8.2L85 113.1z"/><path fill="#ff9161" d="m242 63.9 32.8 23.4-12.9-31.6z"/><path fill="#38464d" d="m53.3 59.2-34 57.4 234.4 1.2z"/><path fill="#ab845b" d="m-18.2 79.1 54-79.7 18.7 61z"/><path fill="#f99045" d="m113 60.4-2.3-18.8L173 59.2z"/><path fill="#ae99cb" d="M310 114.3 295.9 133l-48-17.6z"/><path fill="#e28069" d="m297 158.8-29.2-3.5-8.2 49.2z"/><path fill="#101b34" d="m22.9 243.2 21-82L3 222z"/><path fill="#031545" d="M52.1 14.6 37-18.2h98.5z"/><path fill="#e49872" d="m-11.1 226.8 25.7-23.5-22.2-85.5z"/><path fill="#df927a" d="m188 37-37.4 4.6 24.6-34z"/><path fill="#ff9852" d="m51 192.8-20 16.4 13 5.8z"/><path fill="#ff7b7f" d="m138.9 190.4-13-8.2 20-9.3z"/><path fill="#e79b5d" d="M245.5 96.7 221 79l-1.2 37.5z"/><path fill="#ffab61" d="M53.3 129.5 37 127l4.7 25.8z"/><path fill="#efd43e" d="m46.3 95.5-31.7-8.2 1.2-11.7z"/><path fill="#c7884f" d="m154.1 116.6 16.4-7-43.4-35.2z"/><path fill="#bcb07c" d="M219.7 145.9 180 191.6l29.3-72.7z"/><path fill="#214456" d="m318.2 116.6-54-4.7L289 65z"/><path fill="#ff6b57" d="m279.5 44 1.2-21.1-17.6 7z"/><path fill="#363539" d="m121.3 24-18.8 42.2-62 28.1z"/><path fill="#30272e" d="m126 72 27 8.3-9.4-30.5z"/><path fill="#3e4761" d="m167 238.5 31.6-75 114.9 59.7z"/><path fill="#181f32" d="m35.7 197.5 48-13-21-14z"/><path fill="#a2a964" d="m260.7 149.4-28-5.8 39.8-69.2z"/><path fill="#c3e0a2" d="m62.7 195.1 17.6-3.5V208z"/><path fill="#201f39" d="m59.2 140 7 15.3-58.6 14z"/><path fill="#2c1d2c" d="m147 31 9.4 14.1-55-2.3z"/><path fill="#344659" d="M140 138.9 184.6 86l35.1 20z"/><path fill="#1d1338" d="m179.9 182.2-43.4-25.8 10.6 22.3z"/><path fill="#24414e" d="m315.8 133-30.4 25.8-29.3-22.3z"/><path fill="#2f383d" d="m215 85-51.5-20 72.6 2.4z"/><path fill="#c7be6e" d="m140 62.7 28.2 23.4-10.6-36.3z"/><path fill="#2e2c3a" d="M41.6 60.4.6 22.9l31.6 12.8z"/><path fill="#52434b" d="m212.7 131.8 9.4 27 69.1 18.7z"/><path fill="#d8a543" d="m151.8 163.5 34-13-59.8-15.1z"/><path fill="#364347" d="m135.4 148.2-11.8 17.6-45.7-4.7z"/><path fill="#24252e" d="M41.6 20.5 74.4 23 56.8 42.8z"/><path fill="#382543" d="m287.7 167-16.4 28 46.9-3.5z"/><path fill="#ef6b33" d="m117.8 185.7-7-21-14.1 29.2z"/><path fill="#cc8c6c" d="m194 27.5 9.3 69.2 4.7-36.3z"/><path fill="#dfc94d" d="m237.3 192.8 12.9 9.3-5.9 8.3z"/></g></svg>