<svg xmlns="http://www.w3.org/2000/svg" width="300" height="225" viewBox="0 0 300 225"><g stroke-linecap="round"><path fill="rgba(93,108,113,255)" stroke="rgba(93,108,113,255)" d="M300 0v225L275 12l25-12"/><path fill="rgba(139,145,121,255)" stroke="rgba(139,145,121,255)" d="m275 12 25 213-136-86L275 12"/><path fill="rgba(212,136,110,255)" stroke="rgba(212,136,110,255)" d="M0 225V0l44 105L0 225"/><path fill="rgba(79,75,87,255)" stroke="rgba(79,75,87,255)" d="M300 225H0l82-56 218 56"/><path fill="rgba(95,76,60,255)" stroke="rgba(95,76,60,255)" d="m164 139 136 86-218-56 82-30"/><path fill="rgba(46,62,60,255)" stroke="rgba(46,62,60,255)" d="m117 117 47 22-82 30 35-52"/><path fill="rgba(34,44,57,255)" stroke="rgba(34,44,57,255)" d="m0 225 44-120 38 64-82 56"/><path fill="rgba(119,114,58,255)" stroke="rgba(119,114,58,255)" d="m44 105 73 12-35 52-38-64"/><path fill="rgba(107,88,98,255)" stroke="rgba(107,88,98,255)" d="M0 0h300L133 33 0 0"/><path fill="rgba(60,62,83,255)" stroke="rgba(60,62,83,255)" d="m300 0-25 12-142 21L300 0"/><path fill="rgba(55,50,55,255)" stroke="rgba(55,50,55,255)" d="M275 12 164 139 133 33l142-21"/><path fill="rgba(58,53,56,255)" stroke="rgba(58,53,56,255)" d="m164 139-47-22 16-84 31 106"/><path fill="rgba(97,99,124,255)" stroke="rgba(97,99,124,255)" d="m117 117-73-12 89-72-16 84"/><path fill="rgba(169,164,134,255)" stroke="rgba(169,164,134,255)" d="M44 105 0 0l133 33-89 72"/></g></svg>