<svg xmlns="http://www.w3.org/2000/svg" width="300" height="225"><rect width="100%" height="100%" fill="#968658"/><g fill-opacity=".5"><path fill="#373452" d="m5.3-18.2 312.9 241.4-334 13z"/><path fill="#54435c" d="M305.3 243.2 39.3-18.2l278.9 5.9z"/><path fill="#c3a047" d="m68.6 181 202.7-38.6-105.5-20z"/><path fill="#2a3f5b" d="m161.1 175.2 157 41-291.7 27z"/><path fill="#2c4847" d="m218.6-18.2 80.8 4.7L318.2 146z"/><path fill="#d19677" d="M143.6 27.5V-11L32.2 52z"/><path fill="#ffdc19" d="m65 206.8-23.4 17.6 49.2 18.8z"/><path fill="#ffbc28" d="M175.2 93.2 123.6 79l66.8-4.7z"/><path fill="#b89f63" d="m45.1 168.2 56.3 7L79 117.8z"/><path fill="#a18755" d="M51-18.2 34.6 93.2-18.2 79z"/><path fill="#384551" d="M240.8 117.8 17 120l36.3-61z"/><path fill="#202b3d" d="m41.6 22.9 23.4 28-4.6-69z"/><path fill="#f88c69" d="m244.3 72-27-37.4 68 52.7z"/><path fill="#eb8a47" d="m114.3 44-10.6 18.7 78.5-5.9z"/><path fill="#111b35" d="m-8.8 243.2 50.4-80.9-15.2 80.9z"/><path fill="#e25f7d" d="m265.4 198.6-24.6-32.8 44.6 13z"/><path fill="#a4a0db" d="m318.2 127.1-68-5.8 34-10.6z"/><path fill="#e59872" d="m-18.2 232.6 10.6-112.5 22.2 83.2z"/><path fill="#ffa259" d="m44 212.7-15.3-1.2L51 194z"/><path fill="#ff8f70" d="m130.7 161.1 1.1 28.2 20-4.7z"/><path fill="#eb9d7f" d="m188 31-12.8-21-22.3 32.8z"/><path fill="#3b4d62" d="M270.1 3h-93.7l75 57.4z"/><path fill="#f0a05e" d="m242 94.3-21.1 21.1 1.2-39.8z"/><path fill="#ffb062" d="m41.6 149.4 12.9-21-21.1 1z"/><path fill="#eac16f" d="m318.2 168.2-49.3-15.3-1.1 14z"/><path fill="#c4b57a" d="m217.4 149.4-5.9-27-35.1 69.2z"/><path fill="#bf8951" d="m120.1 67.4 49.2 39.8-14 9.4z"/><path fill="#ff6854" d="m281.8 19.3-4.7 22.3-12.8-8.2z"/><path fill="#333336" d="M122.5 26.4 41.6 92l59.8-24.6z"/><path fill="#281f38" d="M63.9 156.4 4 170.5l59.8-32.8z"/><path fill="#1b2234" d="m89.6 184.6-30.4-9.4-41 27z"/><path fill="#33373a" d="m240.8 67.4-27 18.7-50.3-21z"/><path fill="#161e2f" d="m103.7 168.2-10.5 52.7-8.2-35.2z"/><path fill="#274357" d="m301.8 113-41 1.3 28-50.4z"/><path fill="#a0a965" d="m258.4 149.4-24.6-14 39.8-57.5z"/><path fill="#4f524d" d="m277.1 133-31.6 79.7-58.6-46.9z"/><path fill="#aece97" d="m62.7 195.1 15.2-9.4 5.9 24.7z"/><path fill="#51312d" d="m156.4 19.3-22.2 70.3-5.9-50.3z"/><path fill="#314657" d="m140 137.7 79.7-32.8-34-17.6z"/><path fill="#282730" d="m160 177.5-38.7-21 9.4-9.4z"/><path fill="#131e46" d="m78 13.5 8-31.7-43.3 20z"/><path fill="#1f3537" d="m4.1 69.7 39.8-1.1L64 92z"/><path fill="#2b2746" d="M308.8 154.1 270 196.3l30.5-3.5z"/><path fill="#bdc16f" d="m161.1 80.3-21-17.6 31.6-9.4z"/><path fill="#ecc560" d="m137.7 136.5-10.6 28.1 9.4 7z"/><path fill="#4a4f6c" d="m218.6 141.2 48-31.6-57.4 5.8z"/><path fill="#c3bdb5" d="m317 206.8-35.2-2.3 8.2-11.7z"/><path fill="#2c213a" d="m12.3 33.4 27 23.4-5.9-24.6z"/><path fill="#29312a" d="m156.4 83.8 14.1 14-45.7 2.4z"/><path fill="#ff7035" d="m116.6 187-16.4 5.8 9.4-28.2z"/></g></svg>