<svg xmlns="http://www.w3.org/2000/svg" width="300" height="225"><rect width="100%" height="100%" fill="#968658"/><g fill-opacity=".5"><path fill="#373452" d="m5.3-18.2 312.9 241.4-335.2 20z"/><path fill="#54435c" d="M305.3 243.2 46.3-11.1l266-4.7z"/><path fill="#c4a148" d="M264.3 143.6 69.7 181l102-61z"/><path fill="#1d3a57" d="m164.6 243.2-109-39.9L256.2 180z"/><path fill="#ffd91b" d="M10 243.2h82L65 208z"/><path fill="#34484e" d="m303-18.2 15.2 126.6-127.8-97.3z"/><path fill="#db9a7f" d="m147 27.5-9.3-41-77.3 52.8z"/><path fill="#c2a763" d="m80.3 116.6-30.5 52.7 50.4 3.6z"/><path fill="#ffbd2a" d="m189.3 75.6-68 2.3 53.9 15.3z"/><path fill="#ff8260" d="m264.3 60.4-42.2-13 53.9 41z"/><path fill="#364450" d="m10 117.8 146.4 1.1-59.7-82z"/><path fill="#9e8455" d="m51-18.2-69.2 92.6 56.3 22.3z"/><path fill="#223b55" d="m153 128.3 69-14-34-30.5z"/><path fill="#d88952" d="m196.3 51-51.6 15.2L87.3 44z"/><path fill="#e38068" d="m262 205.7 35-48-28-2.4z"/><path fill="#101c35" d="m46.3 158.8-50.4 75 25.8 9.4z"/><path fill="#001243" d="M109.6-6.4 38-17l14 30.5z"/><path fill="#af9dd2" d="m307.6 114.3-12.9 16.4-46.8-14.1z"/><path fill="#e39672" d="M14.6 201-.6 145.9l-17.6 90.2z"/><path fill="#e99b7b" d="M188 32.2 174 10l-23.4 31.6z"/><path fill="#ff9a48" d="m35.7 201 1.2 15.2 18.8-18.7z"/><path fill="#ff9766" d="m135.4 192.8 9.3-18.8-15.2-9.4z"/><path fill="#ffc66c" d="M245.5 92h-23.4l-2.4 22.3z"/><path fill="#e5a968" d="m37 130.7 31.6-9.4-28.2 28.1z"/><path fill="#234558" d="m290 65-29.3 48 49.3 2.4z"/><path fill="#ff6556" d="M280.7 24 277 40.4 264.3 30z"/><path fill="#b9ae78" d="m205.7 122.5 15.2 23.4-41 44.5z"/><path fill="#b4d396" d="m61.5 196.3 20-9.4v20z"/><path fill="#192c2e" d="m10 72 55 26-17.5-27z"/><path fill="#162133" d="m58 176.4-24.6 19.9 65.6-9.4z"/><path fill="#a4ab63" d="m272.5 78-13 73.8-26.9-13z"/><path fill="#1c172e" d="m127.1 72 11.8 4.8 11.7-35.2z"/><path fill="#27243b" d="m58 141.2 10.6 14-62.2 14.1z"/><path fill="#22113a" d="m162.3 190.4-23.4-29.3 30.4 5.9z"/><path fill="#1d1121" d="m134.2 48.6 17.6-14-44.6 2.3z"/><path fill="#313a3e" d="m100.2 165.8 41-11.7H74.4z"/><path fill="#1d3849" d="m266.6 149.4-2.3-23.4 50.3 23.4z"/><path fill="#192924" d="m184.6 112-36.4-35.2 8.2 21z"/><path fill="#042e63" d="m280.7 205.7 18.7 37.5-53.9-48z"/><path fill="#554148" d="m299.4 181-83.2-48 8.2 29.3z"/><path fill="#36393c" d="m212.7 86.1 31.6-21-72.6 1.1z"/><path fill="#1e1f32" d="m76.8 20.5-34 1.2 12.9 17.6z"/><path fill="#d7a545" d="m150.6 162.3 41-12.9-69.1-14z"/><path fill="#bc8561" d="M40.4 51 18.2 4l58.6 61z"/><path fill="#e67c79" d="m192.8 47.5 18.7 28-16.4-53.8z"/><path fill="#e6806d" d="m14.6 68.6 7-25.8-32.7-5.9z"/><path fill="#414c68" d="m216.2 137.7 66.8-32.8-63.3 9.4z"/><path fill="#1a0f2a" d="M40.4 54.5 30 33.4l-14 2.3z"/><path fill="#131b2b" d="m226.8 144.7-27 28.2 15.2 5.8z"/><path fill="#5c5577" d="m188 117.8-28 23.4-88-25.8z"/></g></svg>