<svg xmlns="http://www.w3.org/2000/svg" width="300" height="225" viewBox="0 0 300 225"><g stroke-linecap="round"><path fill="rgba(123,126,115,255)" stroke="rgba(123,126,115,255)" d="M0 225V0l77 183-77 42"/><path fill="rgba(42,47,54,255)" stroke="rgba(42,47,54,255)" d="m0 0 109 159-32 24L0 0"/><path fill="rgba(35,47,51,255)" stroke="rgba(35,47,51,255)" d="M300 0v225l-20-19L300 0"/><path fill="rgba(25,42,48,255)" stroke="rgba(25,42,48,255)" d="M300 225H0l121-14 179 14"/><path fill="rgba(117,105,117,255)" stroke="rgba(117,105,117,255)" d="m280 206 20 19-179-14 159-5"/><path fill="rgba(207,105,57,255)" stroke="rgba(207,105,57,255)" d="m77 183 32-24 12 52-44-28"/><path fill="rgba(143,162,142,255)" stroke="rgba(143,162,142,255)" d="m109 159 171 47-159 5-12-52"/><path fill="rgba(121,91,79,255)" stroke="rgba(121,91,79,255)" d="M0 0h300l-74 75L0 0"/><path fill="rgba(70,79,82,255)" stroke="rgba(70,79,82,255)" d="M109 159 0 0l226 75-117 84"/><path fill="rgba(194,164,150,255)" stroke="rgba(194,164,150,255)" d="m300 0-20 206-54-131 74-75"/><path fill="rgba(105,97,76,255)" stroke="rgba(105,97,76,255)" d="m280 206-171-47 117-84 54 131"/><path fill="rgba(106,64,42,255)" stroke="rgba(106,64,42,255)" d="m0 225 77-42 2 27-79 15"/><path fill="rgba(72,86,93,255)" stroke="rgba(72,86,93,255)" d="m77 183 44 28-42-1-2-27"/><path fill="rgba(242,192,45,255)" stroke="rgba(242,192,45,255)" d="M121 211 0 225l79-15 42 1"/></g></svg>