<svg xmlns="http://www.w3.org/2000/svg" width="300" height="225"><rect width="100%" height="100%" fill="#968658"/><g fill-opacity=".5"><path fill="#363451" d="m318.2 223.2-328.2 20L4.1-18.2z"/><path fill="#54435c" d="m38-18.2 266.1 261.4 14-255.5z"/><path fill="#c4a14a" d="M174 120.1 68.6 180l196.8-36.3z"/><path fill="#1c3757" d="m69.7 209.2 184-30.5-59.8 64.5z"/><path fill="#2f484a" d="M205.7-18.2 318.2-.6V139z"/><path fill="#dd9b7d" d="M59.2 35.7 131.8-4l20 32.8z"/><path fill="#ffd41b" d="M19.3 243.2h71.5l-27-37.5z"/><path fill="#f7b529" d="m190.4 76.8-15.2 17.5-57.4-18.7z"/><path fill="#c0a562" d="M48.6 171.7h45.7L81.4 113z"/><path fill="#374452" d="m141.2 119-159.4 1 123-75z"/><path fill="#ae855b" d="M58 54.5 32.2 4l-46.8 76.2z"/><path fill="#ff8c60" d="M240.8 62.7 276 86.1l-13-29.3z"/><path fill="#ff9848" d="M158.8 53.3 116.6 44l-14 17.6z"/><path fill="#133543" d="m224.4 115.4-61 1.2L185.8 85z"/><path fill="#0d1831" d="M7.6 215 44 161.1l-22.2 82z"/><path fill="#e68168" d="m271.3 154.1 24.6 7-34 43.4z"/><path fill="#af9acd" d="m304.1 135.4-53.9-21.1 55 1.1z"/><path fill="#e19474" d="m15.8 197.5-21-58.6-8.3 98.4z"/><path fill="#061345" d="m56.8 13.5 77.4-31.7H24z"/><path fill="#ffa580" d="m178.7 19.3-34 22.3 43.4-9.4z"/><path fill="#ff9b64" d="m130.7 156.4-1.2 32.9 16.4-9.4z"/><path fill="#faa963" d="m34.6 129.5 7 24.6 12.9-27z"/><path fill="#ff8d4d" d="M28.7 204.5 41.6 215l15.2-21z"/><path fill="#fac36c" d="m222 113 27-23.4-29.3 6z"/><path fill="#e0c94a" d="m27.5 79.1 21.1 20L6.4 82.5z"/><path fill="#ff6d5c" d="m277.1 20.5-12.8 12.9 16.4 5.9z"/><path fill="#0b142a" d="m55.7 212.7 11.7-44.5-18.8 16.4z"/><path fill="#4e3332" d="m160 12.3-28.2 28.1-2.3 59.8z"/><path fill="#a5ad65" d="m273.6 78-15.2 71.4-24.6-10.5z"/><path fill="#bcb07e" d="m216.2 148.2-37.5 43.4 31.7-76.2z"/><path fill="#d7ac70" d="M142.4 68.6 191.6 52l-39.8-2.3z"/><path fill="#302e3f" d="M101.4 215 72 180l82 12.9z"/><path fill="#404d67" d="m256 22.9-113.6-41 112.5 78.5z"/><path fill="#e27235" d="m112 157.6-15.3 34 19.9-3.5z"/><path fill="#1e0e38" d="m136.5 162.3 28.1 25.8 7-20z"/><path fill="#27223a" d="m62.7 137.7 3.5 18.7-57.4 13z"/><path fill="#28405d" d="m242 119 50.4-33 25.8 22.3z"/><path fill="#383c3a" d="M246.7 67.4 209.2 85l-48-21.1z"/><path fill="#b8d7a0" d="m80.3 209.2 2.3-18.8-19.9 4.7z"/><path fill="#2a464c" d="m250.2 136.5 63.3-4.7-28.1 27z"/><path fill="#0f2928" d="m155.3 83.8 27 25.8L145.8 92z"/><path fill="#21323d" d="m114.3 164.6-32.9-7 61-3.5z"/><path fill="#312f47" d="m272.5 168.2 31.6 34 5.9-31.7z"/><path fill="#19192d" d="M41.6 54.5 31.1 36.9 1.8 27.5z"/><path fill="#042f65" d="M288.9 233.8 245.5 195l38.7 13z"/><path fill="#0b1624" d="m204.5 168.2 22.3-21.1-11.8 34z"/><path fill="#b9886a" d="m212.7 67.4-10.6 36.3-9.3-73.8z"/><path fill="#5c537a" d="m156.4 140 69.2-22.2L85 116.6z"/><path fill="#171d2a" d="M72 24 58 42.8 45.1 21.7z"/><path fill="#ff8969" d="m13.5 101.4-4.7 14 12.9-2.3z"/></g></svg>