<svg xmlns="http://www.w3.org/2000/svg" width="300" height="225"><rect width="100%" height="100%" fill="#968658"/><g fill-opacity=".5"><path fill="#373452" d="m-15.8 228 334-4.8L5.2-18.2z"/><path fill="#54435c" d="m45.1-12.3 273 1.2-14 253z"/><path fill="#c3a049" d="m72 179.9 194.6-35.2-96-24.6z"/><path fill="#203956" d="M247.9 243.2 49.8 205.7l182.8-21.1z"/><path fill="#364a4f" d="m314.6-7.6 3.6 130-143-140.6z"/><path fill="#df9b7f" d="M145.9 29.9 140-10 60.4 35.7z"/><path fill="#ffce19" d="m88.5 240.8-24.6-36.3-43.4 38.7z"/><path fill="#ba853a" d="m102.5 35.7 28.2 54 91.4 3.5z"/><path fill="#39454e" d="m168.2 66.2-116-12.9-41 80.9z"/><path fill="#c0a564" d="m81.4 117.8-34 50.4L99 174z"/><path fill="#ff8962" d="m259.6 53.3 22.2 35.2-41-22.3z"/><path fill="#9f8655" d="M52.1-18.2 37 94.3-18 78z"/><path fill="#3f4b57" d="m-18.2 95.5 177 43.4 68-49.3z"/><path fill="#011344" d="M31-18.2h109L53.3 13.5z"/><path fill="#141c35" d="m22.9 243.2 23.4-93.8-42.2 75z"/><path fill="#b297cc" d="M291.2 134.2 255 115.4l57.4-1.1z"/><path fill="#dd7d67" d="m300.6 157.6-35.2-1.2-2.3 45.7z"/><path fill="#e39772" d="m14.6 202.1-32.8 34 10.6-116z"/><path fill="#ff9f53" d="M54.5 195.1 31 205.7l8.2 9.3z"/><path fill="#b0845a" d="M155.3 137.7 181 1.7l-34 48.1z"/><path fill="#ff9f66" d="M145.9 176.4 133 162.3l-2.3 28.1z"/><path fill="#f8b968" d="m220.9 113-1.2-21 29.3-1.2z"/><path fill="#d2ac6b" d="m82.6 120.1-39.8 23.5-13-13z"/><path fill="#daa838" d="m120.1 76.8 70.3-2.4-15.2 20z"/><path fill="#0f1f1d" d="m176.4 106-27-14 1.2-15.2z"/><path fill="#3e2c3d" d="m104.9 44 73.8 3.5-68-22.3z"/><path fill="#2a4751" d="m304.1 115.4-37.5-4.7 25.8-83.2z"/><path fill="#b5d39b" d="m65 195.1 18.8-5.8-3.5 19.9z"/><path fill="#ff6251" d="m260.7 33.4 20-11.7-1.2 18.7z"/><path fill="#c2865e" d="m38 48.6 38.8 17.6-55.1-61z"/><path fill="#c3b880" d="M185.7 184.6 208 120l9.4 27z"/><path fill="#342a41" d="m62.7 131.8-54 37.5 54-11.7z"/><path fill="#353542" d="M154.1 191.6 85 227.9l-4.7-45.7z"/><path fill="#2e393c" d="m246.7 67.4-91.4-4.7L208 81.4z"/><path fill="#574549" d="m304.1 183.4-77.3-21.1-14.1-35.2z"/><path fill="#aba75f" d="m258.4 149.4-31.6-7L271.3 85z"/><path fill="#26163c" d="m160 187 15.2-16.5-38.7-11.7z"/><path fill="#151b30" d="m82.6 183.4-45.7 14L57 173z"/><path fill="#d7a545" d="m121.3 134.2 66.8 17.6-37.5 11.7z"/><path fill="#3c4268" d="M281.8 108.4 174 113.1l56.3 14z"/><path fill="#1d3032" d="m47.5 73.2 19.9 22.3L.6 67.4z"/><path fill="#ffa95d" d="m136.5 54.5-19.9-12.9-11.7 20z"/><path fill="#ff7a3b" d="m107.2 167-5.8 27 15.2-10.6z"/><path fill="#1f3a48" d="m264.3 129.5 53.9 15.2-54 7z"/><path fill="#c9c9c4" d="M203.3 14.6v-32.8l14 21.1z"/><path fill="#292939" d="m42.8 15.8 34 7-28.2 18.8z"/><path fill="#35456e" d="m318.2 151.8-88 82 42.3 4.7z"/><path fill="#cdbeae" d="m280.7 205.7 37.5-4.7-35.2-6z"/><path fill="#232e37" d="m102.5 164.6-25.7-9.3 55 1.1z"/><path fill="#eb9c80" d="M177.5 19.3 146 41.6l43.4-9.4z"/></g></svg>