<svg xmlns="http://www.w3.org/2000/svg" width="300" height="225" viewBox="0 0 300 225"><g filter="blur(20px)"><rect width="200%" height="200%" x="-50%" y="-50%" fill="#968658"/><g stroke-linecap="round"><path fill="rgba(124,132,155,255)" stroke="rgba(124,132,155,255)" d="M300 225H0l99-42 201 42"/><path fill="rgba(56,71,76,255)" stroke="rgba(56,71,76,255)" d="M0 225V0l24 70L0 225"/><path fill="rgba(80,92,78,255)" stroke="rgba(80,92,78,255)" d="m170 132-71 51L24 70l146 62"/><path fill="rgba(180,116,117,255)" stroke="rgba(180,116,117,255)" d="M0 0h300l-93 107L0 0"/><path fill="rgba(74,86,108,255)" stroke="rgba(74,86,108,255)" d="M170 132 24 70l183 37-37 25"/><path fill="rgba(44,38,40,255)" stroke="rgba(44,38,40,255)" d="M24 70 0 0l207 107L24 70"/><path fill="rgba(236,155,112,255)" stroke="rgba(236,155,112,255)" d="M99 183 0 225l54-34 45-8"/><path fill="rgba(30,50,49,255)" stroke="rgba(30,50,49,255)" d="M0 225 24 70l30 121-54 34"/><path fill="rgba(38,47,50,255)" stroke="rgba(38,47,50,255)" d="m24 70 75 113-45 8L24 70"/><path fill="rgba(142,125,135,255)" stroke="rgba(142,125,135,255)" d="M300 225 99 183l124-47 77 89"/><path fill="rgba(188,173,66,255)" stroke="rgba(188,173,66,255)" d="m99 183 71-51 53 4-124 47"/><path fill="rgba(146,130,159,255)" stroke="rgba(146,130,159,255)" d="M300 0v225l-77-89L300 0"/><path fill="rgba(139,51,73,255)" stroke="rgba(139,51,73,255)" d="M207 107 300 0l-77 136-16-29"/><path fill="rgba(105,92,112,255)" stroke="rgba(105,92,112,255)" d="m170 132 37-25 16 29-53-4"/></g></g></svg>