<svg xmlns="http://www.w3.org/2000/svg" width="300" height="225"><rect width="100%" height="100%" fill="#6693ac"/><g fill-opacity=".5"><path fill="#ccc4b5" d="m-18.2 26.4 254.3 216.8 82-261.4z"/><path fill="#7e624e" d="m10 40.4 308.2 96.1v99.6z"/><path fill="#652e0a" d="m-7.6 225.6 139.4-79.7-7 80.9z"/><path fill="#ffffe4" d="m-18.2 83.8 161.8 86.7-123-28.1z"/><path fill="#fffff3" d="m178.7 243.2 93.8-32.8-98.5-64.5z"/><path fill="#fffff8" d="m-18.2 158.8 75 31.6-50.4 22.3z"/><path fill="#84d1f4" d="M219.7 120.1 318.2.6 59.2-.6z"/><path fill="#493213" d="M3 97.9-18.3 45l139.5 91.4z"/><path fill="#ffeacd" d="m120.1 114.3-138.3-47V21.8z"/><path fill="#fff" d="m123.6 95.5 64.5 22.3L80.3 43.9z"/><path fill="#2e4037" d="m-18.2 119 22.3 49.2 124.2 25.7z"/><path fill="#40392b" d="m72 35.7 64.5 21.1 43.4 51.6z"/><path fill="#8f6e62" d="M264.3 243.2 239.6 99l78.6-38.6z"/><path fill="#fffdff" d="m32.2 22.9 79.7-41-35.1 67.9z"/><path fill="#816c5b" d="m46.3 82.6 131.2 160.6-4.6-85.6z"/><path fill="#ffe3da" d="m174 208 36.4 35.2 99.6-79.7z"/><path fill="#005b7e" d="m168.2 137.7-45.7-49.2-63.3-17.6z"/><path fill="#ffddc5" d="m211.5 121.3-11.7-43.4-91.4-30.4z"/><path fill="#fffaec" d="M179.9 147 76.8 83.9l58.6 62.1z"/><path fill="#ffeedf" d="m108.4 151.8-23.4 21-84.4-76z"/><path fill="#000f14" d="m142.4 109.6 41 43.3 20-8.2z"/><path fill="#005c78" d="m94.3 116.6 42.2 46.9L14.6 99z"/><path fill="#110700" d="m273.6 157.6 42.2 1.2-86.7 27z"/><path fill="#5f442b" d="M51 31 33.4 58l64.5 25.8z"/><path fill="#fffcec" d="m185.7 136.5 21.1-3.5-52.7-35z"/><path fill="#c37435" d="m27.5 153-45.7-42.3 112.5 55.1z"/><path fill="#6cb4d2" d="M230.3 106 97.9-18.1l220.3 65.7z"/><path fill="#764e33" d="m318.2 212.7-58.6 30.5-2.4-45.7z"/><path fill="#16272a" d="M163.5 96.7 201 127l18.7-5.8z"/><path fill="#381d09" d="M-18.2 56.8 5.3 96.7 34.6 85z"/><path fill="#cec9c8" d="m267.8 157.6-54 4.7 84.4-36.3z"/><path fill="#fde4dc" d="m177.5 238.5 103.2 4.7-105.5-99.6z"/><path fill="#ffeddf" d="m53.3 189.3-71.5-31.7 32.8 52.8z"/><path fill="#0b0500" d="m120.1 144.7-19.9-21 32.8 18.7z"/><path fill="#107a9a" d="m11.1-18.2 10.6 58.6-39.9-3.5z"/><path fill="#fff0ef" d="M-18.2 112 6.4 96.6l70.4 56.2z"/><path fill="#ffd8c1" d="m160 67.4-56.3-25.8L85 5.3z"/><path fill="#6c6762" d="m124.8 155.3 42.2 87.9-129-64.5z"/><path fill="#ffd8ba" d="M127.1 136.5 46.3 89.6l27-12.8z"/><path fill="#f8c095" d="m46.3 42.8 29.3-3.5L118.9 86z"/><path fill="#b5d4e7" d="m53.3 24-34-32.8L17 64z"/><path fill="#a47b54" d="m82.6 56.8 92.6 62.1-65.6-22.2z"/><path fill="#8d7c74" d="m253.7 190.4 23.4 28.2 41-51.6z"/><path fill="#0c5e7b" d="m83.8 169.3-100.8-14 71.5 31.6z"/><path fill="#999093" d="M176.4 197.5 127 243.2l1.2-102z"/><path fill="#62a6c1" d="M272.5-18.2 127 3l22.4 55z"/><path fill="#372a1f" d="m283 120.1 35.2-4.7-63.3 28.2z"/><path fill="#a07553" d="M92 24 76.8 42.8 126 52z"/><path fill="#807777" d="m276 161.1-59.8 5.9 102-44.5z"/><path fill="#b88059" d="M-10 47.5 54.5 86l-61-14z"/></g></svg>