<svg xmlns="http://www.w3.org/2000/svg" width="300" height="225" viewBox="0 0 300 225"><g filter="blur(20px)"><rect width="200%" height="200%" x="-50%" y="-50%" fill="#6693ac"/><g stroke-linecap="round"><path fill="rgba(136,132,131,255)" stroke="rgba(136,132,131,255)" d="M300 225H0l217-71 83 71"/><path fill="rgba(26,25,19,255)" stroke="rgba(26,25,19,255)" d="M0 225V0l33 52L0 225"/><path fill="rgba(217,235,223,255)" stroke="rgba(217,235,223,255)" d="M67 62 0 225 33 52l34 10"/><path fill="rgba(158,196,211,255)" stroke="rgba(158,196,211,255)" d="M0 0h300L61 55 0 0"/><path fill="rgba(136,116,92,255)" stroke="rgba(136,116,92,255)" d="M67 62 33 52l28 3 6 7"/><path fill="rgba(179,203,217,255)" stroke="rgba(179,203,217,255)" d="M33 52 0 0l61 55-28-3"/><path fill="rgba(19,109,131,255)" stroke="rgba(19,109,131,255)" d="M0 225 67 62l86 31L0 225"/><path fill="rgba(98,95,86,255)" stroke="rgba(98,95,86,255)" d="M217 154 0 225 153 93l64 61"/><path fill="rgba(206,168,133,255)" stroke="rgba(206,168,133,255)" d="m67 62-6-7 92 38-86-31"/><path fill="rgba(120,175,197,255)" stroke="rgba(120,175,197,255)" d="M61 55 300 0 153 93 61 55"/><path fill="rgba(142,136,136,255)" stroke="rgba(142,136,136,255)" d="M300 0v225l-23-111L300 0"/><path fill="rgba(118,107,101,255)" stroke="rgba(118,107,101,255)" d="m300 225-83-71 60-40 23 111"/><path fill="rgba(65,48,52,255)" stroke="rgba(65,48,52,255)" d="m217 154-64-61 124 21-60 40"/><path fill="rgba(130,188,212,255)" stroke="rgba(130,188,212,255)" d="M153 93 300 0l-23 114-124-21"/></g></g></svg>