<svg xmlns="http://www.w3.org/2000/svg" width="300" height="225"><rect width="100%" height="100%" fill="#6693ac"/><g fill-opacity=".5"><path fill="#ca9e7e" d="M318.2 215 72-18.2l-90.3 261.4z"/><path fill="#ade6fa" d="m59.2-.6 259 2.4L222 121.3z"/><path fill="#fff" d="m267.8 208-89 35.2-4.8-97.3z"/><path fill="#342821" d="m-18.2 232.6 146.5-8.2-2.3-76.2z"/><path fill="#fffffc" d="m-18.2 82.6 34 56.3 111.3 24.6z"/><path fill="#936651" d="m168.2 141.2 150-84.4v184z"/><path fill="#323728" d="m-18.2 90.8 7-44.5 138.3 96z"/><path fill="#fff3d9" d="m-18.2 14.6 9.4 52.8 133.6 51.5z"/><path fill="#14434f" d="M137.7 194 12.3 175.1l-28.1-51.6z"/><path fill="#feffff" d="m10 21.7 87.9-20L79 51z"/><path fill="#fff" d="m-18.2 157.6 24.6 52.8 50.4-20z"/><path fill="#1b5560" d="m40.4 62.7 84.4 18.7 65.6 68z"/><path fill="#fffae6" d="m198.6 124.8-116-79.7 41 54z"/><path fill="#fff" d="m104.9 123.6-41-48 106.6 69.1z"/><path fill="#00506f" d="m133 162.3-99.6-52.7 84.4 17.5z"/><path fill="#f1e1da" d="m176.4 213.9 141.8-56.3-95 85.6z"/><path fill="#6f4f33" d="m130.7 100.2-80.9-68-21 22.3z"/><path fill="#0f0801" d="m273.6 176.4 44.6-31.7-95 35.2z"/><path fill="#092223" d="m162.3 87.3-58.6-43.4 16.4 29.3z"/><path fill="#6b5e56" d="m254.9 191.6 61-24.6-50.5 76.2z"/><path fill="#fef0ee" d="m115.4 41.6 99.6 75-18.7-43.4z"/><path fill="#030604" d="m153 114.3 48 31.6-15.3 7z"/><path fill="#fff7f2" d="M11.1 102.5 114.3 153l-27 16.4z"/><path fill="#a2e1f7" d="m239.6 99 78.6-94.9-15.3 61z"/><path fill="#141b14" d="m218.6 121.3-16.5 7-34-30.4z"/><path fill="#b67b45" d="m-18.2 141.2 103.2 20-100.8-49.3z"/><path fill="#d4d1cd" d="M138.9 82.6 18.2 38.1l3.5-41z"/><path fill="#716e71" d="m61.5 175.2 118.4 68-13-97.3z"/><path fill="#292b20" d="m75.6 37 32.8 10.5 9.4 18.7z"/><path fill="#5ea7c3" d="M283-18.2H119l31.6 78.6z"/><path fill="#270200" d="m28.7 79.1-46.9 1.2L12.3 99z"/><path fill="#d2cbc6" d="m295.9 127.1-89 38.7 55-7z"/><path fill="#feebe2" d="M281.8 243.2 176.4 215l4.7-65.6z"/><path fill="#fff6ed" d="M-18.2 110.7 3 95.5l65.7 55z"/><path fill="#fffff6" d="m167 115.4 32.8 9.4 4.7 14z"/><path fill="#fff" d="m176.4 147-62.1-41 32.8 38.7z"/><path fill="#07627f" d="m74.4 80.3 56.3 14 43.3 47z"/><path fill="#ab7248" d="m-18.2 73.2 97.3 27-97.3-57.4z"/><path fill="#23809b" d="M-18.2 24 24 47.5l-9.4-65.7z"/><path fill="#026e94" d="M11.1 99h44.6l56.2 49.2z"/><path fill="#075c7d" d="m78 168.2-96.2-10.6 80.9 31.7z"/><path fill="#bb7b3e" d="m119 140 34 3.6-61-34z"/><path fill="#194c5e" d="m136.5 79.1 57.4 42.2-24.6-31.7z"/><path fill="#ae805d" d="m106 95.5 65.7 22.3L68.6 47.5z"/><path fill="#573c26" d="M72 79.1 48.7 35.7 33.4 54.5z"/><path fill="#fff7f6" d="m-7.6 47.5 41 5.8 39.8 41z"/><path fill="#2c1501" d="m115.4 141.2 21.1 2.4L93.2 120z"/><path fill="#695444" d="m259.6 243.2-2.4-41 61 7z"/><path fill="#fff1ed" d="m-18.2 161.1 36.4 47 34-21.2z"/><path fill="#372415" d="m318.2 117.8-65.7 24.6 28.2-21.1z"/></g></svg>