<svg xmlns="http://www.w3.org/2000/svg" width="300" height="225"><rect width="100%" height="100%" fill="#6693ac"/><g fill-opacity=".5" transform="translate(.6 .6)scale(1.17188)"><circle cx="147" cy="191" r="212" fill="#beaa96"/><circle cx="80" cy="191" r="52" fill="#44332a"/><circle cx="182" cy="185" r="36" fill="#fff"/><circle cx="185" r="84" fill="#7bd8ff"/><circle cx="244" cy="134" r="58" fill="#866458"/><circle cx="63" r="46" fill="#cfdce2"/><circle cx="10" cy="75" r="11"/><circle cx="19" cy="134" r="16" fill="#003644"/><circle cx="12" cy="161" r="17" fill="#fff"/><circle cx="162" cy="153" r="17" fill="#fffff8"/><circle cx="32" cy="111" r="15" fill="#fffde9"/><circle cx="42" cy="90" r="12" fill="#003240"/><circle cx="42" cy="144" r="14" fill="#004156"/><circle cx="57" cy="123" r="14" fill="#ffffed"/><circle cx="67" cy="104" r="12" fill="#003845"/><circle cx="46" cy="47" r="14" fill="#784013"/><circle cx="187" cy="188" r="33" fill="#ffefe2"/><circle cx="160" cy="109" r="20" fill="#6b5644"/><circle cx="10" cy="97" r="12" fill="#fff"/><circle cx="93" cy="118" r="11" fill="#00333e"/><circle cx="77" cy="133" r="12" fill="#fffff5"/><circle cx="113" cy="160" r="36" fill="#726c6c"/><circle cx="152" cy="83" r="24" fill="#d6c6bb"/><circle cx="23" cy="80" r="12" fill="#0d3a47"/><circle cx="83" cy="37" r="10" fill="#7c471b"/><circle cx="55" cy="75" r="11" fill="#fff7e0"/><circle cx="34" cy="63" r="11" fill="#fff0d7"/><circle cx="73" cy="87" r="10" fill="#fffbdf"/><circle cx="14" cy="191" r="15" fill="#573727"/><circle cx="99" cy="102" r="10" fill="#fff5d9"/></g></svg>