<svg xmlns="http://www.w3.org/2000/svg" width="300" height="225"><path fill="#4189a2" d="M-21-20.5h38v38h-38z"/><path fill="#86aec1" d="M17-20.5h19v38H17z"/><path fill="#6da5ba" d="M36-20.5h19v38H36z"/><path fill="#97bccc" d="M55-20.5h19v38H55z"/><path fill="#cddfe8" d="M74-20.5h19v38H74z"/><path fill="#9ec2d4" d="M93-20.5h19v38H93z"/><path fill="#9abfd1" d="M112-20.5h19v38h-19z"/><path fill="#6cabc3" d="M131-20.5h19v38h-19z"/><path fill="#69acc6" d="M150-20.5h19v38h-19z"/><path fill="#70b0ca" d="M169-20.5h19v38h-19z"/><path fill="#74b3cd" d="M188-20.5h19v38h-19z"/><path fill="#7ab8d1" d="M207-20.5h19v38h-19z"/><path fill="#80bcd6" d="M226-20.5h19v38h-19z"/><path fill="#84bdd8" d="M245-20.5h19v38h-19z"/><path fill="#85bed8" d="M264-20.5h19v38h-19z"/><path fill="#87c1d9" d="M283-20.5h38v38h-38z"/><path fill="#5392aa" d="M-21 17.5h38v19h-38z"/><path fill="#9bbdce" d="M17 17.5h19v19H17z"/><path fill="#cdd2d8" d="M36 17.5h19v19H36z"/><path fill="#e3e6ec" d="M55 17.5h19v19H55z"/><path fill="#c4c7ca" d="M74 17.5h19v19H74z"/><path fill="#c1bfbc" d="M93 17.5h19v19H93z"/><path fill="#a5c9da" d="M112 17.5h19v19h-19z"/><path fill="#6daac4" d="M131 17.5h19v19h-19z"/><path fill="#6fadc7" d="M150 17.5h19v19h-19z"/><path fill="#73b2cb" d="M169 17.5h19v19h-19z"/><path fill="#74b4cd" d="M188 17.5h19v19h-19z"/><path fill="#7ab7d0" d="M207 17.5h19v19h-19z"/><path fill="#81bbd5" d="M226 17.5h19v19h-19z"/><path fill="#84bed6" d="M245 17.5h19v19h-19z"/><path fill="#86c0d8" d="M264 17.5h19v19h-19z"/><path fill="#87c0d7" d="M283 17.5h38v19h-38z"/><path fill="#becace" d="M-21 36.5h38v19h-38z"/><path fill="#9aafbb" d="M17 36.5h19v19H17z"/><path fill="#806f5d" d="M36 36.5h19v19H36z"/><path fill="#cdb29b" d="M55 36.5h19v19H55z"/><path fill="#c2b4a9" d="M74 36.5h19v19H74z"/><path fill="#8b7d6a" d="M93 36.5h19v19H93z"/><path fill="#bcb4a8" d="M112 36.5h19v19h-19z"/><path fill="#a7cad9" d="M131 36.5h19v19h-19z"/><path fill="#78b3cc" d="M150 36.5h19v19h-19z"/><path fill="#94c1d5" d="M169 36.5h19v19h-19z"/><path fill="#7bb7d0" d="M188 36.5h19v19h-19z"/><path fill="#7bb6d0" d="M207 36.5h19v19h-19z"/><path fill="#82bbd5" d="M226 36.5h19v19h-19z"/><path fill="#85bed5" d="M245 36.5h19v19h-19z"/><path fill="#87bfd7" d="M264 36.5h19v19h-19z"/><path fill="#87c2da" d="M283 36.5h38v19h-38z"/><path fill="#c0a38d" d="M-21 55.5h38v19h-38z"/><path fill="#ddcbbe" d="M17 55.5h19v19H17z"/><path fill="#a59990" d="M36 55.5h19v19H36z"/><path fill="#5f5d53" d="M55 55.5h19v19H55z"/><path fill="#9c9487" d="M74 55.5h19v19H74z"/><path fill="#c0b6ac" d="M93 55.5h19v19H93z"/><path fill="#7c8684" d="M112 55.5h19v19h-19z"/><path fill="#ac9f93" d="M131 55.5h19v19h-19z"/><path fill="#c3d1d7" d="M150 55.5h19v19h-19z"/><path fill="#9cc7dd" d="M169 55.5h19v19h-19z"/><path fill="#7cb4cd" d="M188 55.5h19v19h-19z"/><path fill="#7db7d0" d="M207 55.5h19v19h-19z"/><path fill="#82bbd2" d="M226 55.5h19v19h-19z"/><path fill="#83bfd7" d="M245 55.5h19v19h-19z"/><path fill="#83c0d9" d="M264 55.5h19v19h-19z"/><path fill="#82aec3" d="M283 55.5h38v19h-38z"/><path fill="#41382b" d="M-21 74.5h38v19h-38z"/><path fill="#736f62" d="M17 74.5h19v19H17z"/><path fill="#d0b7a2" d="M36 74.5h19v19H36z"/><path fill="#d1cecb" d="M55 74.5h19v19H55z"/><path fill="#6897a7" d="M74 74.5h19v19H74z"/><path fill="#6c7e7a" d="M93 74.5h19v19H93z"/><path fill="#bfb1a2" d="M112 74.5h19v19h-19z"/><path fill="#959f9d" d="M131 74.5h19v19h-19z"/><path fill="#9a958c" d="M150 74.5h19v19h-19z"/><path fill="#d0cfcc" d="M169 74.5h19v19h-19z"/><path fill="#bedbea" d="M188 74.5h19v19h-19z"/><path fill="#83bad3" d="M207 74.5h19v19h-19z"/><path fill="#7dbbd5" d="M226 74.5h19v19h-19z"/><path fill="#82b2c7" d="M245 74.5h19v19h-19z"/><path fill="#8695a0" d="M264 74.5h19v19h-19z"/><path fill="#837b7f" d="M283 74.5h38v19h-38z"/><path fill="#a1a3a5" d="M-21 93.5h38v19h-38z"/><path fill="#4f8093" d="M17 93.5h19v19H17z"/><path fill="#345a61" d="M36 93.5h19v19H36z"/><path fill="#8f8370" d="M55 93.5h19v19H55z"/><path fill="#e1cab7" d="M74 93.5h19v19H74z"/><path fill="#9ec0c8" d="M93 93.5h19v19H93z"/><path fill="#547b82" d="M112 93.5h19v19h-19z"/><path fill="#9a9587" d="M131 93.5h19v19h-19z"/><path fill="#b1b1ac" d="M150 93.5h19v19h-19z"/><path fill="#8c8d86" d="M169 93.5h19v19h-19z"/><path fill="#bdb9b1" d="M188 93.5h19v19h-19z"/><path fill="#94bdcf" d="M207 93.5h19v19h-19z"/><path fill="#869da6" d="M226 93.5h19v19h-19z"/><path fill="#8b8481" d="M245 93.5h19v19h-19z"/><path fill="#8a7e7b" d="M264 93.5h19v19h-19z"/><path fill="#857c7c" d="M283 93.5h38v19h-38z"/><path fill="#e6d1c1" d="M-21 112.5h38v19h-38z"/><path fill="#ede5e1" d="M17 112.5h19v19H17z"/><path fill="#a1c0cc" d="M36 112.5h19v19H36z"/><path fill="#407a8e" d="M55 112.5h19v19H55z"/><path fill="#3f5d5c" d="M74 112.5h19v19H74z"/><path fill="#ad957e" d="M93 112.5h19v19H93z"/><path fill="#cecac1" d="M112 112.5h19v19h-19z"/><path fill="#6e99a3" d="M131 112.5h19v19h-19z"/><path fill="#6e7b77" d="M150 112.5h19v19h-19z"/><path fill="#aca89c" d="M169 112.5h19v19h-19z"/><path fill="#8a887f" d="M188 112.5h19v19h-19z"/><path fill="#8e7f75" d="M207 112.5h19v19h-19z"/><path fill="#998b83" d="M226 112.5h19v19h-19z"/><path fill="#8e8480" d="M245 112.5h19v19h-19z"/><path fill="#857d7a" d="M264 112.5h19v19h-19z"/><path fill="#837b79" d="M283 112.5h38v19h-38z"/><path fill="#74766e" d="M-21 131.5h38v19h-38z"/><path fill="#ae9780" d="M17 131.5h19v19H17z"/><path fill="#ebd0bc" d="M36 131.5h19v19H36z"/><path fill="#eee8e4" d="M55 131.5h19v19H55z"/><path fill="#95bcc9" d="M74 131.5h19v19H74z"/><path fill="#3f7586" d="M93 131.5h19v19H93z"/><path fill="#6e6f64" d="M112 131.5h19v19h-19z"/><path fill="#d3c3b7" d="M131 131.5h19v19h-19z"/><path fill="#97aeb5" d="M150 131.5h19v19h-19z"/><path fill="#605e58" d="M169 131.5h19v19h-19z"/><path fill="#7f7369" d="M188 131.5h19v19h-19z"/><path fill="#9c8d85" d="M207 131.5h19v19h-19z"/><path fill="#958c85" d="M226 131.5h19v19h-19z"/><path fill="#8f8680" d="M245 131.5h19v19h-19z"/><path fill="#928985" d="M264 131.5h19v19h-19z"/><path fill="#897f7b" d="M283 131.5h38v19h-38z"/><path fill="#326a7f" d="M-21 150.5h38v19h-38z"/><path fill="#2c5c6a" d="M17 150.5h19v19H17z"/><path fill="#596660" d="M36 150.5h19v19H36z"/><path fill="#9b8b76" d="M55 150.5h19v19H55z"/><path fill="#e4cdbe" d="M74 150.5h19v19H74z"/><path fill="#a6abaa" d="M93 150.5h19v19H93z"/><path fill="#5e696b" d="M112 150.5h19v19h-19z"/><path fill="#87878a" d="M131 150.5h19v19h-19z"/><path fill="#918f90" d="M150 150.5h19v19h-19z"/><path fill="#c6c1bf" d="M169 150.5h19v19h-19z"/><path fill="#aea29a" d="M188 150.5h19v19h-19z"/><path fill="#94867b" d="M207 150.5h19v19h-19z"/><path fill="#948982" d="M226 150.5h19v19h-19z"/><path fill="#8e8482" d="M245 150.5h19v19h-19z"/><path fill="#716866" d="M264 150.5h19v19h-19z"/><path fill="#655c59" d="M283 150.5h38v19h-38z"/><path fill="#cacbcb" d="M-21 169.5h38v19h-38z"/><path fill="#8fabb6" d="M17 169.5h19v19H17z"/><path fill="#4d88a0" d="M36 169.5h19v19H36z"/><path fill="#3f626c" d="M55 169.5h19v19H55z"/><path fill="#686259" d="M74 169.5h19v19H74z"/><path fill="#635c57" d="M93 169.5h19v19H93z"/><path fill="#6d6762" d="M112 169.5h19v19h-19z"/><path fill="#8a8b8f" d="M131 169.5h19v19h-19z"/><path fill="#808388" d="M150 169.5h19v19h-19z"/><path fill="#d2cdc9" d="M169 169.5h19v19h-19z"/><path fill="#f4e9e2" d="M188 169.5h19v19h-19z"/><path fill="#cfc3bb" d="M207 169.5h19v19h-19z"/><path fill="#8a7d75" d="M226 169.5h19v19h-19z"/><path fill="#766e68" d="M245 169.5h19v19h-19z"/><path fill="#908985" d="M264 169.5h19v19h-19z"/><path fill="#a59d9b" d="M283 169.5h38v19h-38z"/><path fill="#e8dad3" d="M-21 188.5h38v19h-38z"/><path fill="#ded1cb" d="M17 188.5h19v19H17z"/><path fill="#928c89" d="M36 188.5h19v19H36z"/><path fill="#67625e" d="M55 188.5h19v19H55z"/><path fill="#66605a" d="M74 188.5h19v19H74z"/><path fill="#625b54" d="M93 188.5h19v19H93z"/><path fill="#6c6864" d="M112 188.5h19v19h-19z"/><path fill="#8a8c90" d="M131 188.5h19v19h-19z"/><path fill="#828388" d="M150 188.5h19v19h-19z"/><path fill="#c7c1be" d="M169 188.5h19v19h-19z"/><path fill="#efe3de" d="M188 188.5h19v19h-19z"/><path fill="#ebe0da" d="M207 188.5h19v19h-19z"/><path fill="#e2d5cd" d="M226 188.5h19v19h-19z"/><path fill="#c2b6b1" d="M245 188.5h19v19h-19z"/><path fill="#9e938c" d="M264 188.5h19v19h-19z"/><path fill="#7c6f67" d="M283 188.5h38v19h-38z"/><path fill="#877a70" d="M-21 207.5h38v38h-38z"/><path fill="#6e6a67" d="M17 207.5h19v38H17z"/><path fill="#5f5a56" d="M36 207.5h19v38H36z"/><path fill="#655e59" d="M55 207.5h19v38H55z"/><path fill="#605951" d="M74 207.5h19v38H74z"/><path fill="#5e574e" d="M93 207.5h19v38H93z"/><path fill="#6c6864" d="M112 207.5h19v38h-19z"/><path fill="#85878a" d="M131 207.5h19v38h-19z"/><path fill="#7a7b7f" d="M150 207.5h19v38h-19z"/><path fill="#c0bcb9" d="M169 207.5h19v38h-19z"/><path fill="#efe4dd" d="M188 207.5h19v38h-19z"/><path fill="#e3d8d2" d="M207 207.5h19v38h-19z"/><path fill="#eee1d9" d="M226 207.5h19v38h-19z"/><path fill="#bcb1aa" d="M245 207.5h19v38h-19z"/><path fill="#77675e" d="M264 207.5h19v38h-19z"/><path fill="#726255" d="M283 207.5h38v38h-38z"/></svg>