<svg xmlns="http://www.w3.org/2000/svg" width="300" height="225"><rect width="100%" height="100%" fill="#6693ac"/><g fill-opacity=".5" transform="translate(.6 .6)scale(1.17188)"><circle cx="145" cy="191" r="211" fill="#beaa96"/><circle cx="81" cy="191" r="53" fill="#46352c"/><circle cx="182" cy="183" r="35" fill="#fff"/><circle cx="185" r="84" fill="#7bd8ff"/><circle cx="248" cy="127" r="60" fill="#826257"/><circle cx="56" r="40" fill="#d0e5f1"/><circle cx="12" cy="74" r="13" fill="#120400"/><circle cx="19" cy="134" r="16" fill="#003644"/><circle cx="12" cy="161" r="17" fill="#fff"/><circle cx="163" cy="154" r="18" fill="#fffff3"/><circle cx="32" cy="111" r="15" fill="#fffde9"/><circle cx="72" cy="131" r="13" fill="#fffff7"/><circle cx="39" cy="89" r="12" fill="#003243"/><circle cx="42" cy="144" r="14" fill="#004156"/><circle cx="161" cy="109" r="20" fill="#6d5643"/><circle cx="46" cy="47" r="14" fill="#7d4518"/><circle cx="77" cy="109" r="12" fill="#003c43"/><circle cx="9" cy="98" r="13" fill="#fffff6"/><circle cx="51" cy="121" r="13" fill="#fffeea"/><circle cx="97" cy="120" r="11" fill="#00363d"/><circle cx="59" cy="99" r="11" fill="#003744"/><circle cx="115" cy="160" r="34" fill="#756e6f"/><circle cx="245" cy="191" r="27" fill="#624937"/><circle cx="154" cy="84" r="24" fill="#d6c7bd"/><circle cx="185" cy="189" r="35" fill="#ffe8dc"/><circle cx="15" cy="52" r="16" fill="#f4d0b9"/><circle cx="67" cy="83" r="11" fill="#fff5db"/><circle cx="85" cy="94" r="11" fill="#ffeed0"/><circle cx="15" cy="191" r="16" fill="#5b3c2d"/><circle cx="106" cy="106" r="10" fill="#fff4da"/></g></svg>