<svg xmlns="http://www.w3.org/2000/svg" width="300" height="225" viewBox="0 0 300 225"><g stroke-linecap="round"><path fill="rgba(70,57,47,255)" stroke="rgba(70,57,47,255)" d="M0 225V0l9 22-9 203"/><path fill="rgba(140,129,123,255)" stroke="rgba(140,129,123,255)" d="M300 0v225l-128-19L300 0"/><path fill="rgba(134,135,137,255)" stroke="rgba(134,135,137,255)" d="M300 225H0l172-19 128 19"/><path fill="rgba(179,205,216,255)" stroke="rgba(179,205,216,255)" d="M0 0h300L51 30 0 0"/><path fill="rgba(108,170,195,255)" stroke="rgba(108,170,195,255)" d="M300 0 83 42 51 30 300 0"/><path fill="rgba(112,163,182,255)" stroke="rgba(112,163,182,255)" d="M9 22 0 0l51 30-42-8"/><path fill="rgba(127,185,209,255)" stroke="rgba(127,185,209,255)" d="M83 42 300 0 112 88 83 42"/><path fill="rgba(216,218,217,255)" stroke="rgba(216,218,217,255)" d="M300 0 172 206 112 88 300 0"/><path fill="rgba(227,226,218,255)" stroke="rgba(227,226,218,255)" d="M0 225 9 22l85 97L0 225"/><path fill="rgba(113,95,71,255)" stroke="rgba(113,95,71,255)" d="m9 22 42 8 43 89L9 22"/><path fill="rgba(97,93,89,255)" stroke="rgba(97,93,89,255)" d="M172 206 0 225l94-106 78 87"/><path fill="rgba(164,139,108,255)" stroke="rgba(164,139,108,255)" d="m112 88 60 118-78-87 18-31"/><path fill="rgba(65,50,35,255)" stroke="rgba(65,50,35,255)" d="m51 30 32 12 11 77-43-89"/><path fill="rgba(165,162,183,255)" stroke="rgba(165,162,183,255)" d="m83 42 29 46-18 31-11-77"/></g></svg>