<svg xmlns="http://www.w3.org/2000/svg" width="300" height="225"><rect width="100%" height="100%" fill="#6693ac"/><g fill-opacity=".5" transform="translate(.6 .6)scale(1.17)"><circle cx="154" cy="182" r="209" fill="#beaa96"/><circle cx="81" cy="191" r="52" fill="#44332a"/><circle cx="182" cy="185" r="36" fill="#fff"/><circle cx="183" r="85" fill="#7ed8ff"/><circle cx="255" cy="128" r="65" fill="#816156"/><circle cx="67" cy="18" r="24" fill="#ebf1f8"/><circle cx="9" cy="74" r="11"/><circle cx="19" cy="134" r="16" fill="#003644"/><circle cx="9" cy="161" r="17" fill="#fff"/><circle cx="164" cy="153" r="18" fill="#fffff3"/><circle cx="30" cy="110" r="15" fill="#fffde9"/><circle cx="40" cy="88" r="13" fill="#073a42"/><circle cx="41" cy="144" r="14" fill="#004156"/><circle cx="73" cy="131" r="13" fill="#fffff6"/><circle cx="163" cy="111" r="19" fill="#6b533f"/><circle cx="77" cy="109" r="12" fill="#003b43"/><circle cx="51" cy="121" r="13" fill="#ffffed"/><circle cx="52" cy="51" r="13" fill="#6b3d16"/><circle cx="9" cy="98" r="12" fill="#fffffd"/><circle cx="98" cy="120" r="11" fill="#063539"/><circle cx="58" cy="99" r="11" fill="#003949"/><circle cx="116" cy="158" r="33" fill="#766f70"/><circle cx="54" cy="75" r="11" fill="#fff7dd"/><circle cx="192" cy="183" r="27" fill="#ffeadd"/><circle cx="80" cy="35" r="11" fill="#855933"/><circle cx="153" cy="84" r="24" fill="#d5c3b6"/><circle cx="14" cy="191" r="16" fill="#5b3c2b"/><circle cx="84" cy="94" r="10" fill="#fff5d4"/><circle cx="30" cy="21" r="13" fill="#cfedff"/><circle cx="107" cy="107" r="10" fill="#fff4d8"/></g></svg>