<svg xmlns="http://www.w3.org/2000/svg" width="300" height="225"><rect width="100%" height="100%" fill="#6693ac"/><g fill-opacity=".5"><path fill="#ccc4b5" d="M318.2-18.2-18.2 26.4l254.3 216.8z"/><path fill="#7e624f" d="M21.7 48.6 305.3 126l12.9 109z"/><path fill="#652d09" d="m127.1 149.4 1.2 84.4-133.6-10.6z"/><path fill="#ffffe8" d="m26.4 145.9-44.6-61 153.6 79.7z"/><path fill="#fffff9" d="m177.5 243.2 89.1-31.7L174 146z"/><path fill="#fffffe" d="m-18.2 158.8 27 51.6 49.2-20z"/><path fill="#83d1f5" d="M318.2 4.1 42.8-18.2l174.6 139.5z"/><path fill="#49381a" d="m20.5 65 110.2 79.7-146.5-55z"/><path fill="#ffffe5" d="m44 93.2 84.3 22.2L-18.2 30z"/><path fill="#2b3e37" d="m127.1 189.3-145.3-66.8 24.6 48z"/><path fill="#fff" d="m195.1 120.1-62-19.9-31.7-41z"/><path fill="#2b200f" d="M121.3 48.6 79 39.3l82 55z"/><path fill="#fffcfd" d="M112-10 74.3 49.8 30 19.3z"/><path fill="#93756a" d="m197.5 122.5 116-61-31.7 181.7z"/><path fill="#fbe0d5" d="m177.5 216.2 140.7-59.8-96.1 86.8z"/><path fill="#866c5c" d="M174 158.8 69.7 95.5l100.8 147.7z"/><path fill="#334740" d="M49.8 31 31.1 53.4l89 54z"/><path fill="#fff0e1" d="m.6 95.5 114.8 59.8L78 168.2z"/><path fill="#0d5060" d="M208 164.6 86.1 86.1l72.7 22.3z"/><path fill="#fffdeb" d="m175.2 143.6-36.3 3.5-56.3-54z"/><path fill="#fff0e6" d="m127.1 51 79.7 30.4 7 36.4z"/><path fill="#0f0801" d="m235 185.7 44.5-32.8 38.7 2.4z"/><path fill="#ffe" d="m168.2 123.6 42.2 11.8-65.7-44.6z"/><path fill="#005263" d="m44 115.4 75 38.7 18.7-18.7z"/><path fill="#bc7031" d="m102.5 168.2-66.8-10.6-53.9-44.5z"/><path fill="#f6ccb0" d="m32.2 32.2 106.7 68-68-75z"/><path fill="#ffcba4" d="M96.7 11.1 154 78l-52.7-35.1z"/><path fill="#0b0000" d="m164.6 136.5 48.1 2.4-23.4 12.9z"/><path fill="#6fb5d3" d="m318.2.6-39.9 86.7L48.6-18.2z"/><path fill="#e0925e" d="M-18.2 67.4 65 92l-83.2-51.6z"/><path fill="#ffebd7" d="m54.5 188-72.7-28 25.8 53.9z"/><path fill="#6f4a30" d="m259.6 199.8-4.7 43.4 63.3-29.3z"/><path fill="#ffeeeb" d="M88.5 156.4 17 102.5l-35.2 11.8z"/><path fill="#0f0000" d="m15.8 100.2-34-18.8L24 80.3z"/><path fill="#c3bfbe" d="m213.9 162.3 89-37.5-61 48z"/><path fill="#012429" d="m219.7 121.3-17.6 5.8-29.2-19.9z"/><path fill="#ffe7db" d="m178.7 155.3 70.3 37.5-73.8 36.3z"/><path fill="#097696" d="m-18.2 21.7 32.8-39.9L17 44z"/><path fill="#057da3" d="m115.4 88.5-49.2-14 84.4 51.5z"/><path fill="#d4c3bb" d="m169.3 162.3 82-39.8-25.7 29.3z"/><path fill="#116885" d="m46.3 90.8 55 55.1L7.7 95.5z"/><path fill="#e6ab80" d="m158.8 101.4-30.5-5.9 61 41z"/><path fill="#988986" d="M123.6 243.2 180 222l-45.7-89z"/><path fill="#81736a" d="m254.9 190.4 49.2-18.7-16.4 71.5z"/><path fill="#1b617b" d="m32.2 144.7 41 46.9-82-29.3z"/><path fill="#2c261c" d="m303 123.6-55.1 21.1 24.6-18.7z"/><path fill="#b0d1e5" d="M51 26.4 20.5-11.1 23 58z"/><path fill="#ffc390" d="m59.2 97.9 43.3 9.3 31.7 32.8z"/><path fill="#6a625e" d="M135.4 143.6 20.5 208l93.8-3.5z"/><path fill="#344a4e" d="m168.2 106 34 13-56.3-44.6z"/></g></svg>