<svg xmlns="http://www.w3.org/2000/svg" width="300" height="225"><g filter="blur(10px)"><rect width="200%" height="200%" x="-50%" y="-50%" fill="#6693ac"/><rect width="100%" height="100%" fill="#6693ac"/><g fill-opacity=".5" transform="translate(.6 .6)scale(1.17)"><circle cx="86" cy="191" r="186" fill="#c3a38a"/><circle cx="77" cy="191" r="51" fill="#3f352e"/><circle cx="182" cy="184" r="36" fill="#fff"/><circle cx="181" r="86" fill="#93e0fe"/><circle cx="56" r="40" fill="#d4e9f4"/><circle cx="248" cy="127" r="60" fill="#84665b"/><circle cx="11" cy="74" r="12"/><circle cx="13" cy="162" r="16" fill="#fff"/><circle cx="20" cy="134" r="16" fill="#003847"/><circle cx="161" cy="151" r="16" fill="#fff"/><circle cx="32" cy="111" r="15" fill="#ffffef"/><circle cx="59" cy="124" r="14" fill="#fffff2"/><circle cx="42" cy="90" r="12" fill="#003545"/><circle cx="44" cy="144" r="15" fill="#0a4b5c"/><circle cx="69" cy="105" r="12" fill="#003d4b"/><circle cx="11" cy="98" r="12" fill="#fff"/><circle cx="157" cy="120" r="10" fill="#221104"/><circle cx="91" cy="117" r="11" fill="#003845"/><circle cx="79" cy="133" r="11" fill="#fffffc"/><circle cx="45" cy="46" r="14" fill="#7b491f"/><circle cx="114" cy="160" r="35" fill="#6f6b6c"/><circle cx="56" cy="76" r="11" fill="#fffbe4"/><circle cx="190" cy="184" r="29" fill="#ffecdf"/><circle cx="35" cy="162" r="8" fill="#fff"/><circle cx="244" cy="190" r="26" fill="#5f4a3a"/><circle cx="17" cy="53" r="15" fill="#f6d5c0"/><circle cx="76" cy="89" r="10" fill="#fffde0"/><circle cx="26" cy="81" r="12" fill="#174f5f"/><circle cx="35" cy="64" r="11" fill="#ffeed6"/><circle cx="100" cy="103" r="10" fill="#fff8dc"/></g></g></svg>