<svg xmlns="http://www.w3.org/2000/svg" width="300" height="225"><rect width="100%" height="100%" fill="#6693ac"/><g fill-opacity=".5" transform="translate(.6 .6)scale(1.17)"><circle cx="151" cy="191" r="214" fill="#beaa96"/><circle cx="80" cy="191" r="52" fill="#44332a"/><circle cx="181" cy="183" r="35" fill="#fff"/><circle cx="187" cy="9" r="76" fill="#77d7ff"/><circle cx="255" cy="130" r="65" fill="#826156"/><circle cx="66" r="46" fill="#cedde5"/><circle cx="9" cy="73" r="12" fill="#090000"/><circle cx="12" cy="162" r="16" fill="#fff"/><circle cx="19" cy="134" r="16" fill="#003443"/><circle cx="32" cy="111" r="15" fill="#fffde9"/><circle cx="164" cy="154" r="18" fill="#fffff2"/><circle cx="42" cy="144" r="14" fill="#004156"/><circle cx="72" cy="131" r="13" fill="#fffff5"/><circle cx="43" cy="91" r="12" fill="#003342"/><circle cx="47" cy="47" r="14" fill="#794113"/><circle cx="162" cy="110" r="19" fill="#6a523f"/><circle cx="78" cy="110" r="12" fill="#003d46"/><circle cx="53" cy="120" r="12" fill="#fffffd"/><circle cx="10" cy="99" r="13" fill="#fffff3"/><circle cx="186" cy="188" r="34" fill="#ffeade"/><circle cx="100" cy="125" r="13" fill="#254245"/><circle cx="60" cy="100" r="11" fill="#003a48"/><circle cx="24" cy="81" r="12" fill="#083d4e"/><circle cx="81" cy="36" r="10" fill="#7d481c"/><circle cx="155" cy="83" r="26" fill="#d0c5bc"/><circle cx="58" cy="77" r="11" fill="#fff8e0"/><circle cx="37" cy="65" r="11" fill="#ffeed4"/><circle cx="13" cy="50" r="16" fill="#f2d3c0"/><circle cx="87" cy="95" r="10" fill="#fff7d9"/><circle cx="116" cy="157" r="33" fill="#787071"/></g></svg>