<svg xmlns="http://www.w3.org/2000/svg" width="300" height="225"><rect width="100%" height="100%" fill="#6693ac"/><g fill-opacity=".5" transform="translate(.6 .6)scale(1.17188)"><circle cx="94" cy="191" r="189" fill="#c2a48c"/><circle cx="81" cy="191" r="52" fill="#42362f"/><circle cx="182" cy="183" r="35" fill="#fff"/><circle cx="182" r="86" fill="#8fdeff"/><circle cx="56" r="40" fill="#d2e8f4"/><circle cx="248" cy="127" r="60" fill="#82655b"/><circle cx="11" cy="73" r="12" fill="#080000"/><circle cx="13" cy="162" r="16" fill="#fff"/><circle cx="20" cy="135" r="16" fill="#00374a"/><circle cx="161" cy="151" r="16" fill="#fffffe"/><circle cx="33" cy="111" r="15" fill="#ffffef"/><circle cx="72" cy="131" r="13" fill="#fffff9"/><circle cx="43" cy="91" r="12" fill="#003546"/><circle cx="43" cy="144" r="14" fill="#004459"/><circle cx="12" cy="100" r="13" fill="#fffff7"/><circle cx="158" cy="120" r="10" fill="#220e00"/><circle cx="65" cy="102" r="12" fill="#003c47"/><circle cx="54" cy="121" r="13" fill="#fffff5"/><circle cx="89" cy="116" r="11" fill="#003745"/><circle cx="47" cy="48" r="14" fill="#79471d"/><circle cx="57" cy="76" r="11" fill="#fffce8"/><circle cx="184" cy="189" r="35" fill="#ffebdf"/><circle cx="14" cy="51" r="17" fill="#ecd1be"/><circle cx="74" cy="88" r="10" fill="#fffde0"/><circle cx="115" cy="160" r="35" fill="#746f70"/><circle cx="245" cy="191" r="27" fill="#614939"/><circle cx="25" cy="81" r="12" fill="#0e4759"/><circle cx="37" cy="63" r="9" fill="#fffff5"/><circle cx="97" cy="100" r="10" fill="#fff9e2"/><circle cx="15" cy="191" r="16" fill="#583e31"/></g></svg>