<svg xmlns="http://www.w3.org/2000/svg" width="300" height="225"><rect width="100%" height="100%" fill="#6693ac"/><g fill-opacity=".5" transform="translate(.6 .6)scale(1.17)"><circle cx="86" cy="191" r="186" fill="#c3a38a"/><circle cx="74" cy="181" r="42" fill="#392f27"/><circle cx="181" cy="184" r="36" fill="#fff"/><circle cx="181" r="86" fill="#93e0fe"/><circle cx="56" r="40" fill="#d4e9f4"/><circle cx="255" cy="128" r="65" fill="#83665b"/><circle cx="12" cy="73" r="13" fill="#140700"/><circle cx="13" cy="162" r="16" fill="#fff"/><circle cx="21" cy="135" r="16" fill="#00384a"/><circle cx="34" cy="112" r="15" fill="#ffe"/><circle cx="162" cy="152" r="17" fill="#fffff9"/><circle cx="73" cy="131" r="13" fill="#fffffd"/><circle cx="47" cy="93" r="12" fill="#003747"/><circle cx="10" cy="100" r="14" fill="ivory"/><circle cx="44" cy="145" r="14" fill="#004c63"/><circle cx="160" cy="121" r="9" fill="#0e0000"/><circle cx="77" cy="109" r="12" fill="#003f49"/><circle cx="56" cy="123" r="13" fill="#ffe"/><circle cx="115" cy="159" r="35" fill="#6d6869"/><circle cx="93" cy="118" r="10" fill="#003342"/><circle cx="48" cy="47" r="14" fill="#7a491c"/><circle cx="191" cy="184" r="28" fill="#ffede0"/><circle cx="18" cy="53" r="15" fill="#f8d9c5"/><circle cx="30" cy="85" r="11" fill="#00455f"/><circle cx="58" cy="77" r="11" fill="#fffee7"/><circle cx="83" cy="92" r="11" fill="#fff4dc"/><circle cx="25" cy="191" r="17" fill="#4d3d36"/><circle cx="38" cy="66" r="11" fill="#ffedd3"/><circle cx="63" cy="102" r="10" fill="#003e51"/><circle cx="35" cy="161" r="7" fill="#fff"/></g></svg>