<svg xmlns="http://www.w3.org/2000/svg" width="300" height="225" viewBox="0 0 300 225"><g stroke-linecap="round"><path fill="rgba(234,230,230,255)" stroke="rgba(234,230,230,255)" d="M0 225V0l116 148L0 225"/><path fill="rgba(1,111,128,255)" stroke="rgba(1,111,128,255)" d="m0 0 164 112-48 36L0 0"/><path fill="rgba(181,173,164,255)" stroke="rgba(181,173,164,255)" d="M300 0v225L282 84l18-84"/><path fill="rgba(127,132,135,255)" stroke="rgba(127,132,135,255)" d="M300 225H0l209-21 91 21"/><path fill="rgba(100,95,89,255)" stroke="rgba(100,95,89,255)" d="m0 225 116-77 93 56L0 225"/><path fill="rgba(62,51,43,255)" stroke="rgba(62,51,43,255)" d="m282 84 18 141-91-21 73-120"/><path fill="rgba(149,184,190,255)" stroke="rgba(149,184,190,255)" d="m116 148 48-36 21 26-69 10"/><path fill="rgba(133,137,140,255)" stroke="rgba(133,137,140,255)" d="m209 204-93-56 69-10 24 66"/><path fill="rgba(240,234,232,255)" stroke="rgba(240,234,232,255)" d="m164 112 118-28-97 54-21-26"/><path fill="rgba(169,156,150,255)" stroke="rgba(169,156,150,255)" d="m282 84-73 120-24-66 97-54"/><path fill="rgba(114,178,205,255)" stroke="rgba(114,178,205,255)" d="M0 0h300l-40 38L0 0"/><path fill="rgba(217,232,241,255)" stroke="rgba(217,232,241,255)" d="M164 112 0 0l260 38-96 74"/><path fill="rgba(136,192,215,255)" stroke="rgba(136,192,215,255)" d="m300 0-18 84-22-46 40-38"/><path fill="rgba(129,187,211,255)" stroke="rgba(129,187,211,255)" d="m282 84-118 28 96-74 22 46"/></g></svg>