<svg xmlns="http://www.w3.org/2000/svg" width="300" height="225"><rect width="100%" height="100%" fill="#6693ac"/><g fill-opacity=".5" transform="translate(.6 .6)scale(1.17)"><circle cx="98" cy="172" r="171" fill="#c2a58c"/><circle cx="76" cy="183" r="44" fill="#3c3028"/><circle cx="182" cy="183" r="35" fill="#fff"/><circle cx="182" r="86" fill="#8fdeff"/><circle cx="56" r="40" fill="#d3e8f4"/><circle cx="255" cy="129" r="64" fill="#816359"/><circle cx="12" cy="74" r="13" fill="#100700"/><circle cx="12" cy="162" r="16" fill="#fff"/><circle cx="19" cy="134" r="16" fill="#003748"/><circle cx="164" cy="155" r="18" fill="#fffff8"/><circle cx="32" cy="111" r="15" fill="#ffe"/><circle cx="74" cy="131" r="13" fill="#fffffc"/><circle cx="40" cy="89" r="12" fill="#003444"/><circle cx="45" cy="145" r="14" fill="#00475d"/><circle cx="53" cy="122" r="13" fill="ivory"/><circle cx="10" cy="99" r="14" fill="#fffdf1"/><circle cx="79" cy="110" r="12" fill="#003e47"/><circle cx="158" cy="122" r="8"/><circle cx="46" cy="47" r="14" fill="#7a471c"/><circle cx="60" cy="101" r="11" fill="#003c51"/><circle cx="115" cy="160" r="34" fill="#6f696a"/><circle cx="97" cy="120" r="10" fill="#00313d"/><circle cx="190" cy="184" r="29" fill="#ffeadd"/><circle cx="17" cy="52" r="16" fill="#f1d4c1"/><circle cx="56" cy="76" r="11" fill="#fff9e2"/><circle cx="89" cy="96" r="10" fill="#fffce0"/><circle cx="23" cy="191" r="16" fill="#4c3931"/><circle cx="36" cy="64" r="10" fill="#fff6e1"/><circle cx="147" cy="115" r="7" fill="#000706"/><circle cx="122" cy="116" r="10" fill="#fffbea"/></g></svg>