<svg xmlns="http://www.w3.org/2000/svg" width="300" height="225"><rect width="100%" height="100%" fill="#6693ac"/><g fill-opacity=".5"><path fill="#ccc4b6" d="m-18.2 25.2 336.4-43.4-84.4 261.4z"/><path fill="#a6765d" d="m304.1 243.2 14-181.7-336.3 161.7z"/><path fill="#fff" d="m172.9 145.9 99.6 65.6-93.8 31.7z"/><path fill="#ffffe7" d="M129.5 162.3-18.2 85l50.4 64.4z"/><path fill="#fff" d="m55.7 188-73.9-28 25.8 53.9z"/><path fill="#3c3a2d" d="m89.6 243.2 48.1-48L7.7 133z"/><path fill="#80cff4" d="M29.9-18.2 222 115.4 318 5.3z"/><path fill="#1d3d3a" d="m109.6 70.9 71.5 75L19.3 47.5z"/><path fill="#553915" d="M-18.2 89.6 128.3 140 11.1 60.4z"/><path fill="#ffead1" d="m11.1 38 113.7 78.6-143-50.4z"/><path fill="#202319" d="m82.6 44 82 53.9-37.5-44.6z"/><path fill="#f3d7c7" d="M115.4 87.3 27.5 24 98-10z"/><path fill="#040200" d="m189.3 151.8 17.5-8.2-59.7-31.7z"/><path fill="#0f0100" d="m277.1 175.2-52.7 4.7 93.8-36.3z"/><path fill="#5b514a" d="m130.7 140-7 103.2-141.9-5.9z"/><path fill="#feeee8" d="M190.4 67.4 105 34.6l113.7 84.3z"/><path fill="#ffecd7" d="m-3 113 123.1 40-36.3 16.3z"/><path fill="#fbebe4" d="m175.2 206.8 21 36.4L310 163.5z"/><path fill="#3a352a" d="m155.3 89.6 48 41 18.8-12.8z"/><path fill="#004553" d="m122.5 157.6 7-22.2-82-20z"/><path fill="#fff5dd" d="M88.5 48.6 128.3 99l54 16.4z"/><path fill="#fffaea" d="m119 133 69 21.1L78 83.8z"/><path fill="#3b3422" d="m95.5 26.4-14 14 39.8 28.2z"/><path fill="#8d5a34" d="M48.6 32.2 28.7 55.7l99.6 31.6z"/><path fill="#00384a" d="m10 148.2-28.2 10.6 79.7 28.1z"/><path fill="#604531" d="m260.7 243.2-3.5-43.4 61 8.2z"/><path fill="#a46e3e" d="m35.7 162.3 73.9 10.6-127.8-61z"/><path fill="#75b6d2" d="m228 104.9 90.2-54L61.5-18z"/><path fill="#3a322a" d="m258.4 127.1-35.2 28.2 79.7-34z"/><path fill="#ffeae1" d="m11.1 135.4 62.1-2.4-91.4-46.9z"/><path fill="#301a0c" d="m12.3 101.4 18.8-18.8-48-23.4z"/><path fill="#ffead9" d="m213.9 136.5-64.5-42.2 36.3 42.2z"/><path fill="#ffedda" d="M-6.4 165.8v46.9l63.2-24.6z"/><path fill="#f9ece5" d="m276 239.6-97.3-1.1-3.5-93.8z"/><path fill="#d3e5f4" d="m65 42.8 78.6-46.9-123 21z"/><path fill="#f5c39f" d="m88.5 31 57.4 43.4-29.3-48z"/><path fill="#0d7798" d="m13.5-14.6 7 60.9-38.7-23.4z"/><path fill="#f5c6a4" d="m41.6 88.5 29.3-11.7 56.2 59.7z"/><path fill="#006b91" d="M96.7 142.4 46.3 95.5l-34 2.4z"/><path fill="#976232" d="m116.6 143.6-25.8-35.2 57.4 34z"/><path fill="#7e6c63" d="M298.2 174 249 192.8l61 16.4z"/><path fill="#161008" d="m238.5 187-8.2-7.1 34-4.7z"/><path fill="#686161" d="m192.8 150.6 65.6-62.1 41 8.2z"/><path fill="#62a7c2" d="m149.4 60.4-27-78.6L248 5.3z"/><path fill="#f1ebea" d="m264.3 195.1 23.4-15.2 23.4 1.2z"/><path fill="#a76e41" d="m117.8 81.4 30.4 36.4 44.6 14z"/><path fill="#006489" d="m106 97.9 48.1 15.2 21.1 30.5z"/><path fill="#aa7b55" d="m-18.2 42.8 92.6 53.9L-18.2 72z"/><path fill="#f8feff" d="M109.6 116.6 73.2 77.9 30 68.6z"/><path fill="#33606e" d="m83.8 169.3-23.4 25.8L-3 129.5z"/></g></svg>