<svg xmlns="http://www.w3.org/2000/svg" width="300" height="225"><rect width="100%" height="100%" fill="#6693ac"/><g fill-opacity=".5"><path fill="#ccc4b6" d="m233.8 243.2-252-218L317-18.2z"/><path fill="#8d5f47" d="m300.6 78-147.7 49 157 113.7z"/><path fill="#662f0b" d="m130.7 144.7-148.9 86.7L126 228z"/><path fill="#ffffec" d="m-18.2 83.8 150 79.7-98.4-15.3z"/><path fill="#fffffa" d="m269 206.8-90.3 36.4-4.7-95z"/><path fill="#81d0f4" d="M220.9 120.1 39.3-18.2 318.2 3z"/><path fill="#fff" d="m-13.5 161.1 21.1 50.4 46.9-23.4z"/><path fill="#23423f" d="m196.3 155.3-70.3-75L24 51z"/><path fill="#493719" d="m27.5 68.6-45.7 19.9 152.4 57.4z"/><path fill="#fff6dd" d="M21.7 81.4-18.2 24l138.3 88z"/><path fill="#2c3d34" d="M-18.2 121.3-6.4 167l127.7 20z"/><path fill="#272c20" d="m131.8 55.7 41 50.4-93.7-66.8z"/><path fill="#fff" d="M78 51 35.6 22.9l73.9-41z"/><path fill="#fffbe1" d="m124.8 97.9 63.3 21L77.9 41.6z"/><path fill="#fbdcce" d="m230.3 243.2 83.2-85.6-141.8 59.8z"/><path fill="#fffeee" d="M178.7 149.4 69.7 78l43.4 50.4z"/><path fill="#ffd4b0" d="m110.7 178.7-91.4-76.2-37.5 18.8z"/><path fill="#7a6a62" d="M169.3 145.9 35.7 178.7l143 64.5z"/><path fill="#f7d8c5" d="m96.7 39.3 86.7 21 30.5 57.5z"/><path fill="#9a5e33" d="M133 90.8 31 55.7l18.8-23.5z"/><path fill="#150600" d="m273.6 156.4 44.6 1.2-88 28.1z"/><path fill="#0e5059" d="m120.1 155.3-82-42.2 99.6 21z"/><path fill="#151910" d="m204.5 129.5-38.7-32.8 50.4 23.4z"/><path fill="#704b32" d="m257.2 197.5 4.7 45.7 56.3-36.4z"/><path fill="#000002" d="m167 138.9 45.7-1.2-23.4 14z"/><path fill="#a96d42" d="M94.3 108.4-10 80.3l-5.8-36.4z"/><path fill="#fff7f0" d="m24 108.4 65.6 59.8 23.5-14.1z"/><path fill="#74b6d1" d="M60.4-18.2 318.2 44l-86.8 63.3z"/><path fill="#fff" d="m209.2 141.2-39.9-27 27 7z"/><path fill="#ffe5d0" d="m52.1 190.4-70.3-32.8L6.4 215z"/><path fill="#080300" d="M-18.2 74.4 11.1 99 30 82.6z"/><path fill="#a26b39" d="m95.5 165.8-103.1-48L36.9 160z"/><path fill="#fabd8b" d="m130.7 138.9-37.5-37.5-39.9-7z"/><path fill="#077496" d="M18.2 39.3h-36.4L10-17z"/><path fill="#c1b6b4" d="m303 123.6-35.2 41-63.3 3.6z"/><path fill="#dcd6d6" d="M131.8 53.3 126-18.2 88.5 21.7z"/><path fill="#006584" d="M80.3 82.6 134.2 98l37.5 43.3z"/><path fill="#ffe5d8" d="M148.2 93.2 87.3 70.9l-38.7-48z"/><path fill="#116e93" d="m14.6 101.4 11.8-21.1 70.3 55z"/><path fill="#ffe7dd" d="m178.7 243.2-2.3-92.6 89 79.7z"/><path fill="#826a51" d="m223.2 124.8-86.7-64.4 37.5 50.3z"/><path fill="#a5744c" d="m93.2 26.4 39.8 28-53.9-16.3z"/><path fill="#005574" d="m22.9 175.2 57.4 11.7-95-48z"/><path fill="#fbf6ff" d="m67.4 149.4-85.6-39.8 35.2-7z"/><path fill="#61a7c2" d="m264.3-14.6-113.7 75L128.3 4z"/><path fill="#2e2217" d="M265.4 128.3 242 149.4l56.2-27z"/><path fill="#b47c53" d="M174 116.6 82.6 58l41 45.7z"/><path fill="#3c3d38" d="m101.4 76.8-68-34 21 28.1z"/><path fill="#bbd8eb" d="m55.7 25.2-30.5 27-4.7-56.3z"/><path fill="#7f4215" d="M-18.2 229.1v-32.8l35.2 14z"/></g></svg>