<svg xmlns="http://www.w3.org/2000/svg" width="300" height="225"><rect width="100%" height="100%" fill="#6693ac"/><g fill-opacity=".5"><path fill="#ccc4b6" d="m-18.2 25.2 336.4-43.4-86.8 261.4z"/><path fill="#a6765d" d="m299.4 243.2-317.6-20L318.2 61.5z"/><path fill="#fff" d="m177.5 243.2 95-30.5-98.5-68z"/><path fill="#ffffe9" d="m-18.2 85 148.9 77.3-102-15.2z"/><path fill="#22403c" d="M34.6 54.5 195 155.3l-63.3-72.7z"/><path fill="#fff" d="m-18.2 158.8 73.9 30.5L10 211.5z"/><path fill="#3f3d30" d="m101.4 243.2-119.6-123 153.6 72.6z"/><path fill="#80cff4" d="M223.2 119 33.4-18.3 318.2 4.1z"/><path fill="#583c18" d="m8.8 58 120.7 83.2-147.7-51.6z"/><path fill="#fff1d6" d="M116.6 112 6.4 38l-24.6 28.2z"/><path fill="#e2c7b6" d="M18.2 19.3 94.3-5.3l65.7 123z"/><path fill="#373325" d="m144.7 60.4 50.4 58.5L78 39.3z"/><path fill="#ffe5d3" d="m110.7 49.8 105.5 69.1-23.4-49.2z"/><path fill="#0b0000" d="m281.8 172.9-52.7 7 89-37.5z"/><path fill="#594f47" d="m128.3 149.4-146.5 79.7L129.5 242z"/><path fill="#6d4120" d="M27.5 55.7 99 79 49.8 32.2z"/><path fill="#fff5e2" d="m121.3 136.5-54-57.4 117.3 71.5z"/><path fill="#00424e" d="m134.2 135.4-14 19.9-76.3-41z"/><path fill="#ffd3ac" d="m-18.2 120.1 116 54-15.2-38.7z"/><path fill="#faeae2" d="m206.8 243.2-30.4-34 132.4-46.9z"/><path fill="#040502" d="m184.6 151.8-15.3-23.5 41 14z"/><path fill="#00374c" d="m-17 160 22.3-13 51.5 36.4z"/><path fill="#644936" d="m318.2 201-61 42.2 1.2-45.7z"/><path fill="#1c2826" d="m204.5 128.3 15.2-10.5L162.3 99z"/><path fill="#fffcff" d="m104.9 164.6-59.8-48-63.3-5.9z"/><path fill="#fff2e1" d="m199.8 126-58.6-18.8L99 58z"/><path fill="#dbefff" d="m147-6.4-120.6 27 41 21z"/><path fill="#2c231b" d="m292.4 126-68 30.4 31.7-25.7z"/><path fill="#ffefdc" d="m4.1 209.2 52.7-20-71.4-26.9z"/><path fill="#73b4d0" d="M318.2 40.4 63.9-18.2l169.9 126.6z"/><path fill="#321602" d="m7.6 97.9 23.5-16.5-49.3-19.9z"/><path fill="#f9ede6" d="m178.7 232.6 90.2 1.2-96-87.9z"/><path fill="#525347" d="M133 76.8 95.5 21.7l-14 19.9z"/><path fill="#077595" d="m17 42.8-35.2-16.4 32.8-44.6z"/><path fill="#f8bc8d" d="m116.6 130.7-83.2-48 49.2 10.5z"/><path fill="#026d92" d="m13.5 100.2 30.4-5.9 41 41z"/><path fill="#a26c3b" d="m82.6 160-100.8-48 36.4 36.2z"/><path fill="#90623d" d="m122.5 86.1 60.9 38.7-22.3 4.7z"/><path fill="#fff2e7" d="M138.9 44 96.7 28.6l65.6 46.9z"/><path fill="#443c3b" d="m287.7 178.7-22.3 16.4-18.7-2.3z"/><path fill="#281f15" d="m266.6 174-41 2.4 15.2 10.5z"/><path fill="#b8743b" d="m94.3 110.7 52.8 30.5-22.3 1.2z"/><path fill="#7f7679" d="m256 141.2-43.3-23.4 104.3-61z"/><path fill="#006e99" d="M141.2 107.2 99 95.5l70.3 42.2z"/><path fill="#fdeceb" d="m110.7 153-19.9 15.2-52.7-52.8z"/><path fill="#fff" d="m162.3 109.6 43.4 29.3-14.1-20z"/><path fill="#362b21" d="m66.2 74.4 10.6-11.7-49.3-10.6z"/><path fill="#2b2211" d="m237.3 150.6-22.3 2.3-7 10.6z"/><path fill="#655f5a" d="M1.8 220.9 127 232.6l2.4-85.5z"/><path fill="#60a7c2" d="M249 12.3 128.3 45.1l7-63.3z"/></g></svg>