<svg xmlns="http://www.w3.org/2000/svg" width="300" height="225"><g filter="blur(12px)"><rect width="200%" height="200%" x="-50%" y="-50%" fill="#6693ac"/><rect width="100%" height="100%" fill="#6693ac"/><circle r="1" fill="#c4a388" fill-opacity=".5" transform="rotate(132 26.6 132.7)scale(165.5 221.75)"/><circle r="1" fill="#fff" fill-opacity=".5" transform="matrix(-27.13 17 -33.9 -54.1 215 218)"/><circle r="1" fill="#94dffd" fill-opacity=".5" transform="matrix(-90.73 4.75 -3.04 -57.99 220 40)"/><circle r="1" fill="#392c24" fill-opacity=".5" transform="rotate(-39 340 -3.8)scale(63.99 38.6)"/><circle r="1" fill="#fffff9" fill-opacity=".5" transform="matrix(64 28.86 -5.7 12.64 42 133)"/><circle r="1" fill="#d9f2ff" fill-opacity=".5" transform="rotate(259 49.5 -24)scale(19.7 57.98)"/><path fill="#002831" fill-opacity=".5" d="m-4.2 87.8 9.6-17.4L136.6 143l-9.6 17.4z"/><path fill="#0a404f" fill-opacity=".5" d="M2.8 170.2 92 194.5 82.4 168l-95.6-41.3z"/></g></svg>