<svg xmlns="http://www.w3.org/2000/svg" width="300" height="225"><rect width="100%" height="100%" fill="#6693ac"/><g fill-opacity=".5"><path fill="#ccc4b6" d="m-18.2 25.2 252 218 84.4-261.4z"/><path fill="#a6765e" d="m318.2 61.5-16.4 181.7-320-22.3z"/><path fill="#fff" d="M178.7 243.2 174 147l96.1 62z"/><path fill="#ffffe8" d="M21.7 142.4 140 167-18.2 85z"/><path fill="#80cff4" d="M222 116.6 34.7-15.8 318.2 4z"/><path fill="#fff" d="M54.5 188 10 212.8-18.2 160z"/><path fill="#344841" d="m25.2 48.6 91.4 21.1 78.5 86.7z"/><path fill="#3d3c30" d="M-.6 130.7 141.2 195 92 243z"/><path fill="#483e24" d="M-18.2 89.6 143.6 153l-116-85.5z"/><path fill="#ffdfbd" d="m-18.2 51 43.4-10.6 83.2 86.7z"/><path fill="#dbc6b9" d="m15.8 20.5 132.4 87.9-24.6-121.9z"/><path fill="#19251d" d="m70.9 33.4 59.8 21 39.8 49.3z"/><path fill="#130500" d="m318.2 155.3-91.4 34 48-35.2z"/><path fill="#fffff2" d="M182.2 148.2 119 133 68.6 82.6z"/><path fill="#504c3f" d="m131.8 133-34-21 27 128.8z"/><path fill="#ffeadb" d="m117.8 155.3-41 14-88-80.8z"/><path fill="#1c1a12" d="M189.3 151.8 140 109.6l68 31.6z"/><path fill="#fddfcd" d="M216.2 117.8 99 41.6l97.3 31.6z"/><path fill="#1c1f18" d="m157.6 90.8 43.4 38.7 17.6-8.2z"/><path fill="#f7e7de" d="m169.3 203.3 72.7 39.9 35.1-68z"/><path fill="#704322" d="m32.2 58 62.1 18.8-45.7-44.6z"/><path fill="#003a4c" d="M-18.2 157.6 58 187 7.6 146z"/><path fill="#effbff" d="m78 52.1-42.3-34L94.3 5.4z"/><path fill="#4c443d" d="m259.6 121.3 51.5-3.5-104.3 46.8z"/><path fill="#5d534c" d="m129.5 148.2-3.5 76.2-144.2 5.9z"/><path fill="#fffae4" d="m204.5 131.8-24.6 1.2L147 90.8z"/><path fill="#6c5341" d="M257.2 243.2v-57.5l61 22.3z"/><path fill="#af6d33" d="m38 160-56.2-48 126.6 59.7z"/><path fill="#fffffa" d="m93.2 53.3 31.6 37.5 48 16.4z"/><path fill="#69aecb" d="M249 100.2 96.7 15.8l131.2-34z"/><path fill="#ffefde" d="m61.5 190.4-79.7-29.3 13 45.7z"/><path fill="#fbf0ea" d="m235 187-63.3-38.8 9.4 95z"/><path fill="#006383" d="m18.2 100.2 68 14 32.7 41z"/><path fill="#fff" d="m79.1 81.4 30.5 37.5-76.2-52.7z"/><path fill="#200200" d="m25.2 85-11.7 16.4L-18.2 65z"/><path fill="#157c9d" d="M24 47.5 12.3-17l-27 43.4z"/><path fill="#fffdf7" d="m310 157.6-49.3 25.8L303 174z"/><path fill="#7dc6e5" d="m290-18.2 28.2 73.9-89.1 49.2z"/><path fill="#ffedec" d="m10 99-18.8 18.8 92.6 35.1z"/><path fill="#fff6fb" d="m33.4 54.5 27 34L-18.2 38z"/><path fill="#6a6467" d="m286.5 72-84.4 71.6L299.4 99z"/><path fill="#a17551" d="m201 107.2-37.5-10.5L133 58z"/><path fill="#b97b4b" d="M-18.2 42.8-7.6 79l55 3.5z"/><path fill="#99714d" d="m78 40.4 16.3-12.9L136.5 58z"/><path fill="#00688b" d="m136.5 101.4 18.8 30.4L85 85z"/><path fill="#3b322a" d="m288.9 164.6-48 22.3-21.2-11.7z"/><path fill="#212619" d="m92 171.7-32.8-2.4-22.3-18.7z"/><path fill="#e4dad6" d="M277.1 197.5h-32.8l57.5-16.4z"/><path fill="#2c241d" d="m68.6 76.8 2.3-13-42.2-11.7z"/><path fill="#afa8a6" d="M249 120.1h41l-90.2 42.2z"/></g></svg>