<svg xmlns="http://www.w3.org/2000/svg" width="300" height="225" viewBox="0 0 300 225"><g stroke-linecap="round"><path fill="rgba(172,200,215,255)" stroke="rgba(172,200,215,255)" d="M0 0h300L80 78 0 0"/><path fill="rgba(187,176,168,255)" stroke="rgba(187,176,168,255)" d="M300 0v225L274 85l26-85"/><path fill="rgba(150,142,142,255)" stroke="rgba(150,142,142,255)" d="m300 225-76-68 50-72 26 140"/><path fill="rgba(125,115,116,255)" stroke="rgba(125,115,116,255)" d="m274 85-50 72-74-50 124-22"/><path fill="rgba(79,66,48,255)" stroke="rgba(79,66,48,255)" d="m224 157-76-34 2-16 74 50"/><path fill="rgba(133,182,201,255)" stroke="rgba(133,182,201,255)" d="M80 78 300 0 150 107 80 78"/><path fill="rgba(91,119,130,255)" stroke="rgba(91,119,130,255)" d="M148 123 80 78l70 29-2 16"/><path fill="rgba(130,188,212,255)" stroke="rgba(130,188,212,255)" d="m300 0-26 85-124 22L300 0"/><path fill="rgba(106,103,98,255)" stroke="rgba(106,103,98,255)" d="M300 225H0l75-65 225 65"/><path fill="rgba(237,225,221,255)" stroke="rgba(237,225,221,255)" d="m224 157 76 68-225-65 149-3"/><path fill="rgba(230,230,230,255)" stroke="rgba(230,230,230,255)" d="M0 225V0l75 160-75 65"/><path fill="rgba(239,233,229,255)" stroke="rgba(239,233,229,255)" d="m0 0 80 78-5 82L0 0"/><path fill="rgba(234,232,231,255)" stroke="rgba(234,232,231,255)" d="m148 123 76 34-149 3 73-37"/><path fill="rgba(204,163,121,255)" stroke="rgba(204,163,121,255)" d="m80 78 68 45-73 37 5-82"/></g></svg>