<svg xmlns="http://www.w3.org/2000/svg" width="300" height="225"><g filter="blur(10px)"><rect width="200%" height="200%" x="-50%" y="-50%" fill="#6693ac"/><rect width="100%" height="100%" fill="#6693ac"/><g fill-opacity=".5" transform="translate(.6 .6)scale(1.17)"><circle cx="86" cy="191" r="186" fill="#c3a38a"/><circle cx="75" cy="179" r="40" fill="#382d24"/><circle cx="182" cy="183" r="35" fill="#fff"/><circle cx="181" r="86" fill="#93e0fe"/><circle cx="55" cy="2" r="38" fill="#d5eaf5"/><circle cx="255" cy="128" r="65" fill="#83665a"/><circle cx="11" cy="75" r="12"/><circle cx="11" cy="162" r="16" fill="#fff"/><circle cx="19" cy="134" r="16" fill="#003849"/><circle cx="163" cy="154" r="18" fill="#fffff8"/><circle cx="32" cy="111" r="15" fill="#ffffef"/><circle cx="71" cy="130" r="14" fill="#fffff4"/><circle cx="45" cy="92" r="12" fill="#003848"/><circle cx="43" cy="144" r="14" fill="#00465b"/><circle cx="10" cy="98" r="13" fill="#fffffc"/><circle cx="79" cy="110" r="12" fill="#003d47"/><circle cx="161" cy="121" r="9" fill="#100000"/><circle cx="115" cy="159" r="34" fill="#6d6769"/><circle cx="51" cy="121" r="13" fill="#ffffed"/><circle cx="50" cy="49" r="13" fill="#6f4116"/><circle cx="61" cy="100" r="11" fill="#003f4c"/><circle cx="97" cy="119" r="10" fill="#00333b"/><circle cx="187" cy="186" r="32" fill="#ffebdf"/><circle cx="59" cy="77" r="12" fill="#fff6e2"/><circle cx="26" cy="82" r="12" fill="#0b4c61"/><circle cx="25" cy="191" r="17" fill="#4a3931"/><circle cx="87" cy="95" r="10" fill="#fffcdf"/><circle cx="34" cy="63" r="11" fill="#ffefd6"/><circle cx="13" cy="46" r="15" fill="#e7dfd8"/><circle cx="105" cy="105" r="10" fill="#fff8e2"/></g></g></svg>