<svg xmlns="http://www.w3.org/2000/svg" width="300" height="225"><rect width="100%" height="100%" fill="#6693ac"/><g fill-opacity=".5"><path fill="#cdc4b6" d="M235 243.2-18.2 26.4l336.4-44.6z"/><path fill="#a5765d" d="m315.8 63.9-334 159.3 321.1 20z"/><path fill="#fff" d="m272.5 211.5-93.8 31.7-5.8-97.3z"/><path fill="#ffffe9" d="m-18.2 86.1 150 76.2-105.4-16.4z"/><path fill="#7ecef3" d="m318.2 3-92.6 114.8-193.4-136z"/><path fill="#fffffc" d="m-18.2 158.8 23.5 55 50.4-24.5z"/><path fill="#1f332b" d="M101.4 67.4 21.7 48.6l143 82z"/><path fill="#3a3a2d" d="m-11.1 126 140.6 63.3-27 53.9z"/><path fill="#433012" d="m17 66.2-35.2 22.3 138.3 49.2z"/><path fill="#ffedd0" d="m-12.3 25.2 1.2 42.2 123 42.2z"/><path fill="#000200" d="m181 149.4 22.3-4.7-62-38.6z"/><path fill="#f8f5f7" d="M147-10 66.3 44l-41-28.2z"/><path fill="#2a2a1d" d="M133 56.8 164.6 99 72.1 35.7z"/><path fill="#594e46" d="M-18.2 231.4 130.7 146l-5.9 97.3z"/><path fill="#ffeed4" d="m100.2 81.4 69.1 28.2L60.3 24z"/><path fill="#190c03" d="m272.5 154.1-48 35.2 93.7-32.9z"/><path fill="#0b464b" d="m42.8 114.3 92.6 19.9-9.4 23.4z"/><path fill="#fffeec" d="m75.6 82.6 106.6 66.8-61-14z"/><path fill="#ffeddc" d="m119 156.4-47 9.4-76-72.6z"/><path fill="#0d130e" d="m160 86.1 57.4 42.2-29.3-7z"/><path fill="#fbdac5" d="m178.7 61.5 37.5 56.3L87.3 34.6z"/><path fill="#fbebe4" d="m206.8 243.2 97.3-78.6-127.7 45.8z"/><path fill="#003649" d="m-3 164.6 59.8 20-57.4-41z"/><path fill="#956037" d="M31 56.8 53.4 37l83.2 56.3z"/><path fill="#654935" d="m290 243.2 28.2-69.2-63.3 37.5z"/><path fill="#00627f" d="m93.2 93.2 31.6-2.4 45.7 49.2z"/><path fill="#fbbe94" d="M-18.2 82.6v39.9l110.2 48z"/><path fill="#fff3e0" d="m171.7 126-29.3-38.7 66.8 46.9z"/><path fill="#473f38" d="m265.4 120.1 38.7 2.4-89 36.3z"/><path fill="#fff1e2" d="m8.8 208 48-20-63.2-22.2z"/><path fill="#f9ece5" d="m175.2 243.2 91.4-11.8-90.2-86.7z"/><path fill="#5ba6c3" d="M119-18.2 240.7 5.3l-86.7 55z"/><path fill="#a26a40" d="m87.3 104.9-105.5-61L.6 82.6z"/><path fill="#0a7697" d="m19.3 40.4-8.2-58.6L-18.2 37z"/><path fill="#a6642e" d="m78 102.5 70.2 38.7-34 1.2z"/><path fill="#fad7bd" d="M115.4 129.5 73.2 77.9l-32.8 9.4z"/><path fill="#090300" d="M-18.2 80.3 13.5 99l16.4-18.7z"/><path fill="#7d7576" d="M267.8 133 317 60.4 202 120z"/><path fill="#78bdda" d="m215 113 103.2-57.3-120.7-73.9z"/><path fill="#147192" d="m24 78 76.2 62-80.9-36.3z"/><path fill="#f4f8ff" d="m69.7 151.8-87.9-42.2 37.5-3.5z"/><path fill="#a6774e" d="m81.4 37 11.8-11.8 45.7 35.2z"/><path fill="#574f4d" d="m271.3 194 18.7-16.5-48 16.4z"/><path fill="#996d40" d="M106 170.5-18.1 112l52.8 45.7z"/><path fill="#f1e1db" d="m80.3 25.2-20-43.4 84.4 73.9z"/><path fill="#b6acab" d="m274.8 162.3-71.5 5.9 96.1-42.2z"/><path fill="#191814" d="m187 140 35-4.6-38.6 18.7z"/><path fill="#fde9e1" d="M86.1 68.6 146 87.3 58 29.9z"/><path fill="#ab7b55" d="m86.1 58 98.5 68-63.3-22.3z"/><path fill="#eedfd6" d="m256 198.6-71.4-43.3 72.6 87.9z"/></g></svg>