<svg xmlns="http://www.w3.org/2000/svg" width="300" height="225" viewBox="0 0 300 225"><g filter="blur(20px)"><rect width="200%" height="200%" x="-50%" y="-50%" fill="#6693ac"/><g stroke-linecap="round"><path fill="rgba(100,160,184,255)" stroke="rgba(100,160,184,255)" d="M0 0h300L102 13 0 0"/><path fill="rgba(102,93,84,255)" stroke="rgba(102,93,84,255)" d="M300 225H0l54-53 246 53"/><path fill="rgba(207,165,125,255)" stroke="rgba(207,165,125,255)" d="M0 225V0l54 172-54 53"/><path fill="rgba(186,151,121,255)" stroke="rgba(186,151,121,255)" d="m0 0 102 13-30 109L0 0"/><path fill="rgba(199,185,178,255)" stroke="rgba(199,185,178,255)" d="m110 129-56 43 18-50 38 7"/><path fill="rgba(91,95,106,255)" stroke="rgba(91,95,106,255)" d="M54 172 0 0l72 122-18 50"/><path fill="rgba(149,140,137,255)" stroke="rgba(149,140,137,255)" d="M300 0v225l-108-80L300 0"/><path fill="rgba(120,182,207,255)" stroke="rgba(120,182,207,255)" d="M102 13 300 0 192 145 102 13"/><path fill="rgba(239,230,225,255)" stroke="rgba(239,230,225,255)" d="M300 225 54 172l138-27 108 80"/><path fill="rgba(15,116,136,255)" stroke="rgba(15,116,136,255)" d="m54 172 56-43 82 16-138 27"/><path fill="rgba(206,165,139,255)" stroke="rgba(206,165,139,255)" d="m110 129-38-7 34-21 4 28"/><path fill="rgba(155,162,167,255)" stroke="rgba(155,162,167,255)" d="m72 122 30-109 4 88-34 21"/><path fill="rgba(234,234,246,255)" stroke="rgba(234,234,246,255)" d="m102 13 90 132-86-44-4-88"/><path fill="rgba(255,253,243,255)" stroke="rgba(255,253,243,255)" d="m192 145-82-16-4-28 86 44"/></g></g></svg>