<svg xmlns="http://www.w3.org/2000/svg" width="300" height="225"><rect width="100%" height="100%" fill="#6693ac"/><g fill-opacity=".5" transform="translate(.6 .6)scale(1.17188)"><circle cx="150" cy="191" r="213" fill="#beaa96"/><circle cx="77" cy="185" r="47" fill="#413127"/><circle cx="182" cy="183" r="35" fill="#fff"/><circle cx="184" r="85" fill="#7dd8ff"/><circle cx="238" cy="124" r="53" fill="#836359"/><circle cx="55" r="40" fill="#d0e5f1"/><circle cx="11" cy="72" r="13" fill="#1d0300"/><circle cx="12" cy="162" r="16" fill="#fff"/><circle cx="19" cy="134" r="16" fill="#003443"/><circle cx="163" cy="152" r="17" fill="#fffff6"/><circle cx="33" cy="112" r="14" fill="#ffffef"/><circle cx="74" cy="131" r="13" fill="#fffffa"/><circle cx="42" cy="144" r="14" fill="#004459"/><circle cx="245" cy="190" r="27" fill="#603f2b"/><circle cx="45" cy="92" r="12" fill="#003644"/><circle cx="161" cy="110" r="19" fill="#685240"/><circle cx="77" cy="109" r="12" fill="#003b43"/><circle cx="11" cy="99" r="13" fill="#fffff6"/><circle cx="45" cy="46" r="14" fill="#7e4619"/><circle cx="54" cy="122" r="13" fill="#ffe"/><circle cx="99" cy="127" r="16" fill="#3e504f"/><circle cx="15" cy="52" r="15" fill="#fcd8c1"/><circle cx="63" cy="102" r="11" fill="#003f4e"/><circle cx="27" cy="84" r="11" fill="#004964"/><circle cx="56" cy="76" r="11" fill="#fff8df"/><circle cx="155" cy="83" r="26" fill="#d0c3ba"/><circle cx="87" cy="95" r="10" fill="#fff8da"/><circle cx="15" cy="191" r="16" fill="#593b2b"/><circle cx="35" cy="162" r="8" fill="#fff"/><circle cx="38" cy="65" r="10" fill="#fff4dd"/></g></svg>