<svg xmlns="http://www.w3.org/2000/svg" width="300" height="225" viewBox="0 0 300 225"><g stroke-linecap="round"><path fill="rgba(153,190,210,255)" stroke="rgba(153,190,210,255)" d="M0 0h300L39 4 0 0"/><path fill="rgba(118,180,205,255)" stroke="rgba(118,180,205,255)" d="m39 4 261-4-47 174L39 4"/><path fill="rgba(235,232,227,255)" stroke="rgba(235,232,227,255)" d="M0 225V0l41 143-41 82"/><path fill="rgba(175,198,206,255)" stroke="rgba(175,198,206,255)" d="m0 0 39 4 2 139L0 0"/><path fill="rgba(236,227,222,255)" stroke="rgba(236,227,222,255)" d="M300 225H0l243-44 57 44"/><path fill="rgba(136,122,113,255)" stroke="rgba(136,122,113,255)" d="m285 208 15 17-57-44 42 27"/><path fill="rgba(192,184,181,255)" stroke="rgba(192,184,181,255)" d="m253 174 32 34-42-27 10-7"/><path fill="rgba(245,233,221,255)" stroke="rgba(245,233,221,255)" d="m39 4 214 170-10 7L39 4"/><path fill="rgba(226,229,220,255)" stroke="rgba(226,229,220,255)" d="M41 143 39 4l204 177-202-38"/><path fill="rgba(100,96,93,255)" stroke="rgba(100,96,93,255)" d="m0 225 41-82 202 38L0 225"/><path fill="rgba(113,105,103,255)" stroke="rgba(113,105,103,255)" d="M300 0v225l-8-45 8-180"/><path fill="rgba(113,99,88,255)" stroke="rgba(113,99,88,255)" d="m300 225-15-17 7-28 8 45"/><path fill="rgba(141,133,131,255)" stroke="rgba(141,133,131,255)" d="m285 208-32-34 39 6-7 28"/><path fill="rgba(141,133,133,255)" stroke="rgba(141,133,133,255)" d="M253 174 300 0l-8 180-39-6"/></g></svg>