<svg xmlns="http://www.w3.org/2000/svg" width="300" height="225" viewBox="0 0 300 225"><g stroke-linecap="round"><path fill="rgba(235,229,229,255)" stroke="rgba(235,229,229,255)" d="m0 225 130-113 31 37L0 225"/><path fill="rgba(132,133,137,255)" stroke="rgba(132,133,137,255)" d="M300 225H0l172-56 128 56"/><path fill="rgba(101,96,92,255)" stroke="rgba(101,96,92,255)" d="m0 225 161-76 11 20L0 225"/><path fill="rgba(81,68,58,255)" stroke="rgba(81,68,58,255)" d="m237 158 63 67-128-56 65-11"/><path fill="rgba(198,184,173,255)" stroke="rgba(198,184,173,255)" d="m161 149 76 9-65 11-11-20"/><path fill="rgba(181,213,227,255)" stroke="rgba(181,213,227,255)" d="M0 0h300L62 71 0 0"/><path fill="rgba(50,129,152,255)" stroke="rgba(50,129,152,255)" d="M0 225V0l62 71L0 225"/><path fill="rgba(245,237,236,255)" stroke="rgba(245,237,236,255)" d="M130 112 0 225 62 71l68 41"/><path fill="rgba(63,56,54,255)" stroke="rgba(63,56,54,255)" d="M300 0v225L240 92l60-92"/><path fill="rgba(150,142,141,255)" stroke="rgba(150,142,141,255)" d="m300 225-63-67 3-66 60 133"/><path fill="rgba(165,139,124,255)" stroke="rgba(165,139,124,255)" d="m237 158-76-9 79-57-3 66"/><path fill="rgba(240,234,246,255)" stroke="rgba(240,234,246,255)" d="m161 149-31-37 110-20-79 57"/><path fill="rgba(236,249,233,255)" stroke="rgba(236,249,233,255)" d="M130 112 62 71l178 21-110 20"/><path fill="rgba(122,182,208,255)" stroke="rgba(122,182,208,255)" d="M62 71 300 0l-60 92L62 71"/></g></svg>