<svg xmlns="http://www.w3.org/2000/svg" width="300" height="225" viewBox="0 0 300 225"><g stroke-linecap="round"><path fill="rgba(137,138,142,255)" stroke="rgba(137,138,142,255)" d="M300 225H0l109-36 191 36"/><path fill="rgba(115,180,204,255)" stroke="rgba(115,180,204,255)" d="M0 0h300l-29 55L0 0"/><path fill="rgba(142,131,139,255)" stroke="rgba(142,131,139,255)" d="M300 0v225L271 55l29-55"/><path fill="rgba(233,222,216,255)" stroke="rgba(233,222,216,255)" d="m300 225-191-36 124-40 67 76"/><path fill="rgba(232,226,224,255)" stroke="rgba(232,226,224,255)" d="m271 55 29 170-67-76 38-94"/><path fill="rgba(107,99,96,255)" stroke="rgba(107,99,96,255)" d="M109 189 0 225l48-28 61-8"/><path fill="rgba(173,149,125,255)" stroke="rgba(173,149,125,255)" d="m0 0 271 55L16 67 0 0"/><path fill="rgba(151,147,146,255)" stroke="rgba(151,147,146,255)" d="M0 225V0l16 67L0 225"/><path fill="rgba(33,93,109,255)" stroke="rgba(33,93,109,255)" d="M48 197 0 225 16 67l32 130"/><path fill="rgba(116,100,74,255)" stroke="rgba(116,100,74,255)" d="m271 55-38 94-110 7L271 55"/><path fill="rgba(255,248,243,255)" stroke="rgba(255,248,243,255)" d="m16 67 255-12-148 101L16 67"/><path fill="rgba(136,137,141,255)" stroke="rgba(136,137,141,255)" d="m233 149-124 40 14-33 110-7"/><path fill="rgba(103,99,96,255)" stroke="rgba(103,99,96,255)" d="m109 189-61 8 75-41-14 33"/><path fill="rgba(237,231,231,255)" stroke="rgba(237,231,231,255)" d="M48 197 16 67l107 89-75 41"/></g></svg>