<svg xmlns="http://www.w3.org/2000/svg" width="300" height="225" viewBox="0 0 300 225"><g stroke-linecap="round"><path fill="rgba(222,207,212,255)" stroke="rgba(222,207,212,255)" d="M0 225V0l61 105L0 225"/><path fill="rgba(90,164,191,255)" stroke="rgba(90,164,191,255)" d="M0 0h300L112 28 0 0"/><path fill="rgba(114,179,203,255)" stroke="rgba(114,179,203,255)" d="M300 0 147 41l-35-13L300 0"/><path fill="rgba(186,151,121,255)" stroke="rgba(186,151,121,255)" d="M61 105 0 0l112 28-51 77"/><path fill="rgba(79,126,136,255)" stroke="rgba(79,126,136,255)" d="m147 41-86 64 51-77 35 13"/><path fill="rgba(65,58,53,255)" stroke="rgba(65,58,53,255)" d="M300 0v225l-72-124L300 0"/><path fill="rgba(128,185,212,255)" stroke="rgba(128,185,212,255)" d="M147 41 300 0l-72 101-81-60"/><path fill="rgba(136,137,141,255)" stroke="rgba(136,137,141,255)" d="M300 225H0l164-75 136 75"/><path fill="rgba(239,227,223,255)" stroke="rgba(239,227,223,255)" d="m228 101 72 124-136-75 64-49"/><path fill="rgba(107,96,92,255)" stroke="rgba(107,96,92,255)" d="m61 105 86-64 17 109-103-45"/><path fill="rgba(200,161,142,255)" stroke="rgba(200,161,142,255)" d="m147 41 81 60-64 49-17-109"/><path fill="rgba(107,151,176,255)" stroke="rgba(107,151,176,255)" d="m0 225 61-120 1 46-62 74"/><path fill="rgba(25,112,143,255)" stroke="rgba(25,112,143,255)" d="m61 105 103 45-102 1-1-46"/><path fill="rgba(66,119,133,255)" stroke="rgba(66,119,133,255)" d="M164 150 0 225l62-74 102-1"/></g></svg>