<svg xmlns="http://www.w3.org/2000/svg" width="300" height="225"><g filter="blur(10px)"><rect width="200%" height="200%" x="-50%" y="-50%" fill="#6693ac"/><rect width="100%" height="100%" fill="#6693ac"/><g fill-opacity=".5" transform="translate(.6 .6)scale(1.17)"><circle cx="161" cy="191" r="221" fill="#beaa96"/><circle cx="80" cy="191" r="52" fill="#44332a"/><circle cx="182" cy="184" r="36" fill="#fffffe"/><circle cx="183" r="85" fill="#7ed8ff"/><circle cx="239" cy="125" r="54" fill="#836359"/><circle cx="56" r="40" fill="#cfe5f1"/><circle cx="10" cy="74" r="12" fill="#040000"/><circle cx="13" cy="162" r="16" fill="#fff"/><circle cx="19" cy="134" r="16" fill="#003443"/><circle cx="163" cy="153" r="17" fill="#fffff7"/><circle cx="32" cy="111" r="15" fill="#fffde9"/><circle cx="42" cy="144" r="14" fill="#004156"/><circle cx="73" cy="131" r="13" fill="#fffff7"/><circle cx="43" cy="91" r="12" fill="#003342"/><circle cx="159" cy="120" r="10" fill="#260b00"/><circle cx="244" cy="190" r="26" fill="#60402d"/><circle cx="79" cy="110" r="12" fill="#003b42"/><circle cx="47" cy="48" r="14" fill="#7b4518"/><circle cx="52" cy="121" r="13" fill="#ffe"/><circle cx="9" cy="97" r="12" fill="#fff"/><circle cx="101" cy="128" r="15" fill="#3b4c4b"/><circle cx="62" cy="101" r="11" fill="#003645"/><circle cx="56" cy="76" r="11" fill="#fff7de"/><circle cx="25" cy="81" r="12" fill="#104454"/><circle cx="37" cy="64" r="11" fill="#ffefd9"/><circle cx="14" cy="191" r="15" fill="#563727"/><circle cx="88" cy="95" r="10" fill="#fff9de"/><circle cx="13" cy="52" r="16" fill="#f4cdb6"/><circle cx="186" cy="187" r="33" fill="#ffe8db"/><circle cx="162" cy="76" r="14" fill="#ffe8dd"/></g></g></svg>