<svg xmlns="http://www.w3.org/2000/svg" width="300" height="225"><g filter="blur(12px)"><rect width="200%" height="200%" x="-50%" y="-50%" fill="#6693ac"/><path fill="#6ca3b9" d="M-40-39.5h76v76h-76z"/><path fill="#aec4ce" d="M36-39.5h38v76H36z"/><path fill="#c2ccd0" d="M74-39.5h38v76H74z"/><path fill="#86b6cb" d="M112-39.5h38v76h-38z"/><path fill="#69aec9" d="M150-39.5h38v76h-38z"/><path fill="#78b5ce" d="M188-39.5h38v76h-38z"/><path fill="#83bcd5" d="M226-39.5h38v76h-38z"/><path fill="#87c1da" d="M264-39.5h76v76h-76z"/><path fill="#ada8a2" d="M-40 36.5h76v38h-76z"/><path fill="#ad9d90" d="M36 36.5h38v38H36z"/><path fill="#a59c90" d="M74 36.5h38v38H74z"/><path fill="#a4aaa7" d="M112 36.5h38v38h-38z"/><path fill="#9ac3d4" d="M150 36.5h38v38h-38z"/><path fill="#81bbd6" d="M188 36.5h38v38h-38z"/><path fill="#81bfd9" d="M226 36.5h38v38h-38z"/><path fill="#85bad1" d="M264 36.5h76v38h-76z"/><path fill="#858681" d="M-40 74.5h76v38h-76z"/><path fill="#87928f" d="M36 74.5h38v38H36z"/><path fill="#93a09d" d="M74 74.5h38v38H74z"/><path fill="#919993" d="M112 74.5h38v38h-38z"/><path fill="#aeaba5" d="M150 74.5h38v38h-38z"/><path fill="#9fbeca" d="M188 74.5h38v38h-38z"/><path fill="#82a3b1" d="M226 74.5h38v38h-38z"/><path fill="#868588" d="M264 74.5h76v38h-76z"/><path fill="#a3a59f" d="M-40 112.5h76v38h-76z"/><path fill="#a3afaf" d="M36 112.5h38v38H36z"/><path fill="#879a99" d="M74 112.5h38v38H74z"/><path fill="#949e9b" d="M112 112.5h38v38h-38z"/><path fill="#8a8f8b" d="M150 112.5h38v38h-38z"/><path fill="#8d8075" d="M188 112.5h38v38h-38z"/><path fill="#948680" d="M226 112.5h38v38h-38z"/><path fill="#847975" d="M264 112.5h76v38h-76z"/><path fill="#79939c" d="M-40 150.5h76v38h-76z"/><path fill="#7d8a89" d="M36 150.5h38v38H36z"/><path fill="#878680" d="M74 150.5h38v38H74z"/><path fill="#767779" d="M112 150.5h38v38h-38z"/><path fill="#aeabac" d="M150 150.5h38v38h-38z"/><path fill="#c2b6ad" d="M188 150.5h38v38h-38z"/><path fill="#8d837d" d="M226 150.5h38v38h-38z"/><path fill="#867e7b" d="M264 150.5h76v38h-76z"/><path fill="#b0a6a1" d="M-40 188.5h76v76h-76z"/><path fill="#676868" d="M36 188.5h38v76H36z"/><path fill="#5b5249" d="M74 188.5h38v76H74z"/><path fill="#737272" d="M112 188.5h38v76h-38z"/><path fill="#a7a6a7" d="M150 188.5h38v76h-38z"/><path fill="#f5e9e3" d="M188 188.5h38v76h-38z"/><path fill="#cabeb7" d="M226 188.5h38v76h-38z"/><path fill="#83756d" d="M264 188.5h76v76h-76z"/></g></svg>