<svg xmlns="http://www.w3.org/2000/svg" width="300" height="225"><rect width="100%" height="100%" fill="#6693ac"/><g fill-opacity=".5"><path fill="#ca9e7d" d="m69.7-18.2 248.5 232-336.4 29.4z"/><path fill="#ade1f3" d="M244.3 112 318.2-8.9 7.6 6.4z"/><path fill="#fff" d="m171.7 145.9 9.4 97.3 86.7-34z"/><path fill="#332721" d="m123.6 243.2-130-18.8 137-77.3z"/><path fill="#fff" d="M126 160 11 136.5l-25.7-50.4z"/><path fill="#956853" d="M299.4 243.2 173 133l135.9-68z"/><path fill="#003242" d="M-18.2 82.6 51 86.1l79.7 72.7z"/><path fill="#ffffe9" d="m-18.2 20.5 52.8 66.8 93.7 30.5z"/><path fill="#093c4a" d="m8.8 171.7-27-50.4 146.5 70.3z"/><path fill="#fff" d="M-18.2 158.8 53.3 188 7.6 213.9z"/><path fill="#004b65" d="m130.7 92-68-18.8 119.5 73.9z"/><path fill="#fff6ec" d="M54.5 10 29.9 27.5l98.4 58.6z"/><path fill="#362c1b" d="M158.8 93.2 79 39.2l37.5 3.6z"/><path fill="#fffefc" d="m197.5 74.4 19.9 44.5-96.1-72.6z"/><path fill="#fff" d="m96.7 96.7 41 49.2h37.5z"/><path fill="#fffffa" d="m131.8 99-30.4-43.3 90.2 65.6z"/><path fill="#7e5c3b" d="M45.1 29.9 34.6 61.5l111.3 39.9z"/><path fill="#100801" d="m230.3 187 87.9-30.6-44.6-1.1z"/><path fill="#f9eae3" d="m182.2 205.7 126.6-42.2-102 79.7z"/><path fill="#a25c27" d="M-13.5 46.3 85 103.7-5.3 86.1z"/><path fill="#040a08" d="m203.3 144.7-21 4.7-40-41z"/><path fill="#0b2723" d="m131.8 141.2-14 11.7-46.9-46.8z"/><path fill="#fffff9" d="m88.5 168.2-62.1-45.7 85.5 32.8z"/><path fill="#dde2eb" d="M92 29.9-18.2 59.2l126.6-77.4z"/><path fill="#0a2429" d="m206.8 120.1-34-11.7-23.4-28.1z"/><path fill="#fde9df" d="m175.2 231.4 3.5-83.2 86.7 78.6z"/><path fill="#a4e5fb" d="M318.2 55.7V-4.1l-57.5 91.4z"/><path fill="#b57c49" d="m1.8 121.3 86.7 41-103.1-18.7z"/><path fill="#5d4c3f" d="m257.2 243.2 1.2-43.4 59.8 5.9z"/><path fill="#d0c8c4" d="m263 158.8 44.6-36.3L203.3 167z"/><path fill="#fffdf3" d="m182.2 131.8 25.8 2.4-51.6-37.5z"/><path fill="#f6c39f" d="M93.2 35.7 113 25.2l48 58.6z"/><path fill="#130000" d="m24 79.1-8.2 22.3-34-20z"/><path fill="#1e1f1b" d="m29.9 51 36.3 24.6L78 63.9z"/><path fill="#6a6c71" d="M170.5 147 38.1 178.8l139.4 64.5z"/><path fill="#fef4f9" d="m78 78 46.8 49.1L18.2 62.7z"/><path fill="#5ca8c4" d="M232.6 7.6 122.5-18.2l29.3 80.9z"/><path fill="#152626" d="m204.5 128.3 17.6-8.2-41-9.4z"/><path fill="#0b5f7d" d="m-18.2 155.3 77.4 34L79 167z"/><path fill="#ffefe6" d="M85 138.9-.6 95.5l-8.2 24.6z"/><path fill="#0b799d" d="M95.5 122.5 39.3 113l90.2 46.9z"/><path fill="#6f6c6b" d="m247.9 192.8 38.6-14 31.7 29.2z"/><path fill="#7e7371" d="m279.5 161.1-62.1 4.7 89-37.5z"/><path fill="#e6cab6" d="m24 41.6 61 69.1-103.2-56.2z"/><path fill="#36869f" d="m70.9 14.6-89-9.3 78.5-23.5z"/><path fill="#cdc6c1" d="m260.7 117.8-36.3 34L187 154z"/><path fill="#09769c" d="M92 73.2 59.2 71l72.6 43.4z"/><path fill="#f0c49c" d="M112 69.7 80.2 64l57.4 36.3z"/><path fill="#281608" d="m262 140 22.2-18.7 30.4-4.7z"/><path fill="#fcf5f3" d="m278.3 184.6 22.3-1.2-39.9 14z"/></g></svg>