<svg xmlns="http://www.w3.org/2000/svg" width="300" height="225"><g filter="blur(10px)"><rect width="200%" height="200%" x="-50%" y="-50%" fill="#6693ac"/><rect width="100%" height="100%" fill="#6693ac"/><g fill-opacity=".5" transform="translate(.6 .6)scale(1.17)"><circle cx="89" cy="188" r="184" fill="#c3a48a"/><circle cx="76" cy="185" r="46" fill="#3c312b"/><circle cx="181" cy="182" r="35" fill="#fff"/><circle cx="182" r="86" fill="#91dfff"/><circle cx="57" r="40" fill="#d3e8f4"/><circle cx="243" cy="127" r="57" fill="#84665d"/><circle cx="11" cy="73" r="12" fill="#070000"/><circle cx="11" cy="162" r="16" fill="#fff"/><circle cx="19" cy="134" r="16" fill="#003749"/><circle cx="28" cy="109" r="15" fill="#ffe"/><circle cx="161" cy="151" r="16" fill="#fffffc"/><circle cx="72" cy="131" r="13" fill="#fffffb"/><circle cx="41" cy="88" r="13" fill="#083d46"/><circle cx="44" cy="144" r="14" fill="#01475b"/><circle cx="51" cy="120" r="13" fill="#fffffa"/><circle cx="63" cy="103" r="11" fill="#00384f"/><circle cx="84" cy="113" r="11" fill="#003846"/><circle cx="160" cy="120" r="9" fill="#130000"/><circle cx="48" cy="47" r="14" fill="#7b481c"/><circle cx="9" cy="96" r="11" fill="#fff"/><circle cx="187" cy="186" r="32" fill="#ffece0"/><circle cx="115" cy="162" r="35" fill="#6f696a"/><circle cx="52" cy="74" r="11" fill="#fff8df"/><circle cx="246" cy="191" r="28" fill="#5f4736"/><circle cx="99" cy="122" r="9" fill="#002e3f"/><circle cx="16" cy="53" r="15" fill="#f7d5c0"/><circle cx="33" cy="162" r="8" fill="#fff"/><circle cx="72" cy="85" r="11" fill="#fff6e4"/><circle cx="93" cy="97" r="11" fill="#fff1de"/><circle cx="104" cy="87" r="9" fill="#004557"/></g></g></svg>