<svg xmlns="http://www.w3.org/2000/svg" width="300" height="225" viewBox="0 0 300 225"><g stroke-linecap="round"><path fill="rgba(177,211,225,255)" stroke="rgba(177,211,225,255)" d="M0 0h300L70 66 0 0"/><path fill="rgba(141,153,153,255)" stroke="rgba(141,153,153,255)" d="M0 225V0l32 202-32 23"/><path fill="rgba(89,89,77,255)" stroke="rgba(89,89,77,255)" d="m0 0 70 66-38 136L0 0"/><path fill="rgba(94,88,80,255)" stroke="rgba(94,88,80,255)" d="M300 225H0l32-23 268 23"/><path fill="rgba(31,112,129,255)" stroke="rgba(31,112,129,255)" d="M32 202 70 66l20 43-58 93"/><path fill="rgba(174,217,227,255)" stroke="rgba(174,217,227,255)" d="M70 66 300 0 151 93 70 66"/><path fill="rgba(129,187,211,255)" stroke="rgba(129,187,211,255)" d="m300 0-65 110-84-17L300 0"/><path fill="rgba(170,157,151,255)" stroke="rgba(170,157,151,255)" d="m235 110 65 115L151 93l84 17"/><path fill="rgba(135,139,142,255)" stroke="rgba(135,139,142,255)" d="M300 225 32 202 151 93l149 132"/><path fill="rgba(68,89,116,255)" stroke="rgba(68,89,116,255)" d="M90 109 70 66l81 27-61 16"/><path fill="rgba(7,100,131,255)" stroke="rgba(7,100,131,255)" d="m32 202 58-93 61-16L32 202"/><path fill="rgba(139,133,135,255)" stroke="rgba(139,133,135,255)" d="M300 0v225l-5-103 5-122"/><path fill="rgba(146,138,137,255)" stroke="rgba(146,138,137,255)" d="m300 225-65-115 60 12 5 103"/><path fill="rgba(138,181,200,255)" stroke="rgba(138,181,200,255)" d="M235 110 300 0l-5 122-60-12"/></g><rect width="100%" height="100%" fill="#6693ac"/></svg>