<svg xmlns="http://www.w3.org/2000/svg" width="300" height="225"><rect width="100%" height="100%" fill="#6693ac"/><g fill-opacity=".5" transform="translate(.6 .6)scale(1.17188)"><circle cx="94" cy="180" r="178" fill="#c2a48c"/><circle cx="80" cy="191" r="52" fill="#42362f"/><circle cx="182" cy="184" r="36" fill="#fff"/><circle cx="182" r="86" fill="#90dfff"/><circle cx="56" r="40" fill="#d3e8f4"/><circle cx="255" cy="128" r="64" fill="#826359"/><circle cx="11" cy="74" r="12" fill="#010000"/><circle cx="14" cy="162" r="16" fill="#fff"/><circle cx="20" cy="135" r="16" fill="#003749"/><circle cx="164" cy="154" r="18" fill="#fffff7"/><circle cx="33" cy="112" r="14" fill="#fffff3"/><circle cx="70" cy="130" r="14" fill="ivory"/><circle cx="44" cy="145" r="14" fill="#00465d"/><circle cx="12" cy="100" r="13" fill="#fffff9"/><circle cx="40" cy="88" r="13" fill="#083f48"/><circle cx="80" cy="111" r="12" fill="#003e4a"/><circle cx="160" cy="120" r="9" fill="#140000"/><circle cx="61" cy="100" r="12" fill="#003f4a"/><circle cx="44" cy="45" r="14" fill="#7b4920"/><circle cx="52" cy="118" r="11" fill="#fff"/><circle cx="100" cy="128" r="14" fill="#2d4b4f"/><circle cx="55" cy="75" r="11" fill="#fffbe6"/><circle cx="73" cy="87" r="10" fill="#fffee4"/><circle cx="189" cy="185" r="30" fill="#ffe9dd"/><circle cx="14" cy="51" r="16" fill="#f0d3c0"/><circle cx="92" cy="97" r="10" fill="#fffae3"/><circle cx="56" cy="57" r="9" fill="#20221a"/><circle cx="36" cy="64" r="10" fill="#fff6e0"/><circle cx="15" cy="191" r="15" fill="#543b2d"/><circle cx="148" cy="116" r="7" fill="#000705"/></g></svg>