<svg xmlns="http://www.w3.org/2000/svg" width="300" height="225" viewBox="0 0 300 225"><g filter="blur(12px)"><rect width="200%" height="200%" x="-50%" y="-50%" fill="#6693ac"/><g stroke-linecap="round"><path fill="rgba(147,139,139,255)" stroke="rgba(147,139,139,255)" d="M300 0v225l-20-97L300 0"/><path fill="rgba(140,141,145,255)" stroke="rgba(140,141,145,255)" d="M300 225H0l92-53 208 53"/><path fill="rgba(243,226,218,255)" stroke="rgba(243,226,218,255)" d="M0 225V0l92 172-92 53"/><path fill="rgba(131,184,210,255)" stroke="rgba(131,184,210,255)" d="M0 0h300L129 71 0 0"/><path fill="rgba(243,234,229,255)" stroke="rgba(243,234,229,255)" d="m143 107-51 65 37-101 14 36"/><path fill="rgba(136,153,161,255)" stroke="rgba(136,153,161,255)" d="M92 172 0 0l129 71-37 101"/><path fill="rgba(122,190,213,255)" stroke="rgba(122,190,213,255)" d="m300 0-20 128-21-44 41-84"/><path fill="rgba(129,187,211,255)" stroke="rgba(129,187,211,255)" d="M129 71 300 0l-41 84-130-13"/><path fill="rgba(242,235,229,255)" stroke="rgba(242,235,229,255)" d="m143 107-14-36 130 13-116 23"/><path fill="rgba(229,222,218,255)" stroke="rgba(229,222,218,255)" d="m280 128 20 97-45-49 25-48"/><path fill="rgba(233,222,216,255)" stroke="rgba(233,222,216,255)" d="M300 225 92 172l163 4 45 49"/><path fill="rgba(138,137,142,255)" stroke="rgba(138,137,142,255)" d="m92 172 51-65 112 69-163-4"/><path fill="rgba(213,198,191,255)" stroke="rgba(213,198,191,255)" d="m143 107 116-23-4 92-112-69"/><path fill="rgba(140,132,129,255)" stroke="rgba(140,132,129,255)" d="m259 84 21 44-25 48 4-92"/></g></g></svg>