<svg xmlns="http://www.w3.org/2000/svg" width="300" height="225"><rect width="100%" height="100%" fill="#6693ac"/><g fill-opacity=".5" transform="translate(.6 .6)scale(1.17)"><circle cx="155" cy="191" r="217" fill="#beaa96"/><circle cx="80" cy="191" r="52" fill="#44332a"/><circle cx="181" cy="181" r="34" fill="#fff"/><circle cx="183" r="85" fill="#7ed8ff"/><circle cx="254" cy="129" r="64" fill="#816156"/><circle cx="56" r="40" fill="#d0e5f1"/><circle cx="12" cy="74" r="13" fill="#120400"/><circle cx="19" cy="134" r="16" fill="#003644"/><circle cx="12" cy="162" r="16" fill="#fff"/><circle cx="32" cy="111" r="15" fill="#fffde9"/><circle cx="162" cy="152" r="16" fill="#fffffa"/><circle cx="44" cy="145" r="14" fill="#004358"/><circle cx="39" cy="89" r="12" fill="#003243"/><circle cx="71" cy="131" r="13" fill="#fffff2"/><circle cx="160" cy="109" r="20" fill="#6b5644"/><circle cx="65" cy="102" r="12" fill="#003942"/><circle cx="47" cy="47" r="14" fill="#7c4416"/><circle cx="11" cy="97" r="12" fill="#fff"/><circle cx="85" cy="114" r="11" fill="#003744"/><circle cx="54" cy="122" r="13" fill="#ffffec"/><circle cx="186" cy="188" r="34" fill="#ffebde"/><circle cx="103" cy="130" r="14" fill="#394848"/><circle cx="154" cy="83" r="25" fill="#d3c5bb"/><circle cx="73" cy="87" r="10" fill="#fffde1"/><circle cx="17" cy="53" r="15" fill="#fad4bd"/><circle cx="55" cy="75" r="11" fill="#fff5de"/><circle cx="14" cy="191" r="15" fill="#573727"/><circle cx="92" cy="98" r="10" fill="#fff4d7"/><circle cx="127" cy="175" r="23" fill="#868289"/><circle cx="36" cy="64" r="10" fill="#fff3dc"/></g></svg>