<svg xmlns="http://www.w3.org/2000/svg" width="300" height="225" viewBox="0 0 300 225"><g stroke-linecap="round"><path fill="rgba(228,219,216,255)" stroke="rgba(228,219,216,255)" d="M300 0v225l-36-47L300 0"/><path fill="rgba(68,58,55,255)" stroke="rgba(68,58,55,255)" d="m300 0-36 178-32-13L300 0"/><path fill="rgba(100,93,90,255)" stroke="rgba(100,93,90,255)" d="m264 178 36 47-68-60 32 13"/><path fill="rgba(228,219,216,255)" stroke="rgba(228,219,216,255)" d="M0 225V0l60 114L0 225"/><path fill="rgba(135,136,140,255)" stroke="rgba(135,136,140,255)" d="M300 225H0l168-61 132 61"/><path fill="rgba(120,107,98,255)" stroke="rgba(120,107,98,255)" d="m232 165 68 60-132-61 64 1"/><path fill="rgba(157,140,133,255)" stroke="rgba(157,140,133,255)" d="m300 0-68 165-64-1L300 0"/><path fill="rgba(163,195,210,255)" stroke="rgba(163,195,210,255)" d="M0 0h300L62 104 0 0"/><path fill="rgba(231,225,223,255)" stroke="rgba(231,225,223,255)" d="M60 114 0 0l62 104-2 10"/><path fill="rgba(242,227,216,255)" stroke="rgba(242,227,216,255)" d="M300 0 168 164 62 104 300 0"/><path fill="rgba(87,123,137,255)" stroke="rgba(87,123,137,255)" d="m0 225 60-111 44 51L0 225"/><path fill="rgba(107,102,98,255)" stroke="rgba(107,102,98,255)" d="M168 164 0 225l104-60 64-1"/><path fill="rgba(18,109,136,255)" stroke="rgba(18,109,136,255)" d="m60 114 2-10 42 61-44-51"/><path fill="rgba(28,119,138,255)" stroke="rgba(28,119,138,255)" d="m62 104 106 60-64 1-42-61"/></g></svg>