<svg xmlns="http://www.w3.org/2000/svg" width="300" height="225"><rect width="100%" height="100%" fill="#6693ac"/><g fill-opacity=".5"><path fill="#ccc4b6" d="M317-18.2-18.2 25.2l252 218z"/><path fill="#87604b" d="M127.1 112 310 88.4l8.2 152.3z"/><path fill="#652e0a" d="m129.5 145.9-4.7 97.3-143-11.8z"/><path fill="#ffffe5" d="m-18.2 86.1 50.4 63.3L139 165.8z"/><path fill="#fffff3" d="m174 145.9 98.5 64.5-93.8 32.8z"/><path fill="#fff" d="M54.5 188 8.8 212.8-17 160z"/><path fill="#80ccee" d="M254.9 101.4 2.9 5.3 318.2-10z"/><path fill="#0a3335" d="m92 63.9 57.4 62-124.2-76z"/><path fill="#573f1e" d="M134.2 145.9 7.6 55.7l-25.8 34z"/><path fill="#ffeed5" d="m11.1 38 105.5 77.4L-18.2 64z"/><path fill="#2e3f36" d="m126 190.4-144.2-70.3 23.5 49.2z"/><path fill="#4d341b" d="m163.5 95.5-89-56.2 32.7-4.7z"/><path fill="#ffe2d6" d="M28.7 31 81.4-5.2l64.5 61z"/><path fill="#f6feff" d="m208 79.1 8.2 38.7L126 48.6z"/><path fill="#f8d8cc" d="m313.5 160-82 83.2-63.3-30.5z"/><path fill="#001c21" d="m172.9 147 28-1.1-66.7-44.5z"/><path fill="#856d63" d="m60.4 171.7 118.3 71.5-7-98.5z"/><path fill="#ffe3cd" d="M76.8 63.9 54.5 13.5l99.6 89z"/><path fill="#fff" d="m147 89.6 24.7 35.2 39.8 11.7z"/><path fill="#ffe7d8" d="M-18.2 127.1V83.8l136 75z"/><path fill="#ffffef" d="m108.4 126 53.9 12.9L70.9 79z"/><path fill="#6f462b" d="m260.7 243.2 57.5-37.5-61-8.2z"/><path fill="#13545f" d="m122.5 124.8 9.3 35.2-112.5-56.3z"/><path fill="#1e0d01" d="m223.2 179.9 95-35.2-39.9 30.5z"/><path fill="#965b2f" d="m48.6 33.4 64.5 43.4-83.2-21.1z"/><path fill="#363d35" d="m174 110.7-31.6-37.5 70.3 48z"/><path fill="#986f48" d="m24 161.1 93.8 15.3-136-63.3z"/><path fill="#45463c" d="m94.3 26.4 43.4 51.5-59.8-38.6z"/><path fill="#71b8d6" d="m215 112 103.2-56.3-207.5-73.9z"/><path fill="#006987" d="m79.1 83.8 92.6 56.2L127 93.2z"/><path fill="#ffede8" d="m22.9 106 90.2 48.1L85 170.5z"/><path fill="#120000" d="m27.5 79.1-14 21.1-31.7-18.8z"/><path fill="#077293" d="m13.5-14.6-31.7 37.5L18.2 45z"/><path fill="#ffecd8" d="M54.5 190.4-17 158.8l-1.2 57.4z"/><path fill="#c2814e" d="M141.2 136.5 41.6 79.1l46.9 48z"/><path fill="#ffefe5" d="m90.8 96.7 48 48 42.3 2.4z"/><path fill="#82625f" d="m318.2 99-84.4 4.7L318.2 58z"/><path fill="#e0d4d0" d="m265.4 154.1 30.5-25.8-70.3 29.3z"/><path fill="#105d79" d="m87.3 169.3-29.3 20-76.2-39.9z"/><path fill="#fde7e0" d="m174 145.9 4.7 97.3h100.8z"/><path fill="#b17646" d="m191.6 129.5-89-57.4 34 39.8z"/><path d="m191.6 116.6 14 11.7 10.6-7z"/><path fill="#5b5751" d="m115.4 242 20-110.2-85.6 88z"/><path fill="#0c0602" d="m185.7 151.8-1.1-11.8 31.6-2.3z"/><path fill="#85776e" d="m250.2 191.6 28.1 35.2 39.9-59.8z"/><path fill="#f5e7e3" d="m83.8 66.2 59.8 21.1-102-71.5z"/><path fill="#0d6888" d="M82.6 110.7 12.3 94.3l104.3 59.8z"/><path fill="#362416" d="m273.6 124.8 34-5.9-55 25.8z"/><path fill="#e9af83" d="m174 94.3-73.8-51.5 46.9 16.4z"/><path fill="#cfe0ec" d="M70.9 37 21.7 18.1 145.9-5.3z"/></g></svg>