<svg xmlns="http://www.w3.org/2000/svg" width="300" height="225"><rect width="100%" height="100%" fill="#6693ac"/><g fill-opacity=".5"><path fill="#ccc4b6" d="m-18.2 24 252 219.2 84.4-261.4z"/><path fill="#9e8169" d="m318.2 160-313 83.2-23.4-223.9z"/><path fill="#fff" d="M271.3 210.4 174 147l4.7 96zM-18.2 86.1l43.4 57.5 113.7 22.2z"/><path fill="#8b6555" d="m169.3 136.5 132.5 106.7 7-178.2z"/><path fill="#493427" d="m123.6 243.2 5.9-96.1-133.6 76.1z"/><path fill="#fff" d="m55.7 189.3-47 23.4-26.9-52.7z"/><path fill="#83d0f4" d="M217.4 117.8 318.2 2.9 35.7-18z"/><path fill="#fff" d="m-18.2 26.4 56.3 60.9 83.2 22.3z"/><path fill="#003e4c" d="m-17 85 62.1-3.6 86.7 76.2z"/><path fill="#004863" d="m75.6 81.4 113.7 70.4-52.8-57.5z"/><path fill="#fff" d="m76.8 87.3 107.8 62.1-59.8-12.9z"/><path fill="#2f2513" d="m74.4 35.7 89 61-31.6-41z"/><path fill="#114656" d="m130.7 196.3-143-31.7 34-25.7z"/><path fill="#fffcfd" d="M97.9-8.8 81.4 53.3 31.1 23z"/><path fill="#fffbe9" d="m123.6 97.9 65.7 19.9L83.8 47.5z"/><path fill="#ffe0d1" d="M306.4 162.3 174 212.7l54 30.5z"/><path fill="#443e30" d="m45.1 34.6 79.7 62-91.4-37.4z"/><path fill="#f7d3bb" d="M189.3 66.2 81.4 31.1 208 114.3z"/><path fill="#fff9f0" d="m86.1 170.5 28.2-16.4L10 100.2z"/><path fill="#0c1a14" d="m136.5 144.7-58.6-34 31.7 32.9z"/><path fill="#0a0704" d="m318.2 142.4-80.9 34 49.2-5.9z"/><path fill="#112f37" d="M172.9 110.7 148.2 78l66.8 49.2z"/><path fill="#000201" d="m184.6 150.6 17.5-4.7-48-30.5z"/><path fill="#fdf4ed" d="m144.7 87.3 28.2 39.8 38.6 9.4z"/><path fill="#725039" d="m258.4 198.6 59.8-10.5-61 55z"/><path fill="#6ab1cf" d="M318.2 66.2 158.8 71l-42.2-89z"/><path fill="#b17343" d="m-18.2 78 29.3-16.5 76.2 42.2z"/><path fill="#120000" d="m-18.2 74.4 31.7 27 11.7-20z"/><path fill="#ffeee5" d="m175.2 150.6 2.3 79.7 66.8-38.7z"/><path fill="#fff9f5" d="m11.1 99-29.3 13 75 31.6z"/><path fill="#dcd7d4" d="m233.8 154.1 71.5-31.6-34 28z"/><path fill="#0e7ea3" d="m12.3-18.2 8.2 59.8-38.7-7z"/><path fill="#b47842" d="m-18.2 110.7 41 42.2 65.7 10.6z"/><path fill="#fff6f1" d="m49.8 187-37.5 21-30.5-49.2z"/><path fill="#faeae0" d="m18.2 45.1 99.6 72.7-71.5-27z"/><path fill="#936c59" d="m103.7 219.7 70.3 14 2.4-35z"/><path fill="#a76f41" d="M126 103.7 93.2 64l82 56.2z"/><path fill="#514b43" d="m210.4 162.3 93.7-39.8h-43.4z"/><path fill="#b9b4b4" d="m274.8 128.3-39.8-1.2-39.9 35.2z"/><path fill="#7ec2df" d="m213.9 110.7 44.5-128.9 59.8 75z"/><path fill="#110b03" d="m263 176.4-28 9.3-4.7-10.5z"/><path fill="#d99763" d="m51 33.4 50.4 36.3-54-19.9z"/><path fill="#c2d4e1" d="M34.6 13.5 144.7-1.8-18.2 67.4z"/><path fill="#06799f" d="m106 130.7 17.6 27-69.1-36.4z"/><path fill="#454343" d="m292.4 176.4-41 15.2 27-1.2z"/><path fill="#9e7451" d="M128.3 51 92 25.2 78 42.8z"/><path fill="#ffe9dc" d="m103.7 37-14-29.4 53.9 48z"/><path fill="#dfe9f2" d="m208 82.6-79.7-34 88 69.2z"/><path fill="#006f98" d="m79.1 68.6 32.8 29.3L59.2 72z"/></g></svg>