<svg xmlns="http://www.w3.org/2000/svg" width="300" height="225" viewBox="0 0 300 225"><g stroke-linecap="round"><path fill="rgba(106,97,88,255)" stroke="rgba(106,97,88,255)" d="M300 225H0l66-44 234 44"/><path fill="rgba(206,167,126,255)" stroke="rgba(206,167,126,255)" d="M0 225V0l66 181-66 44"/><path fill="rgba(187,179,168,255)" stroke="rgba(187,179,168,255)" d="M300 0v225L269 90l31-90"/><path fill="rgba(111,175,200,255)" stroke="rgba(111,175,200,255)" d="M0 0h300L193 64 0 0"/><path fill="rgba(143,126,98,255)" stroke="rgba(143,126,98,255)" d="M143 87 0 0l193 64-50 23"/><path fill="rgba(133,191,215,255)" stroke="rgba(133,191,215,255)" d="m300 0-31 90-76-26L300 0"/><path fill="rgba(162,150,148,255)" stroke="rgba(162,150,148,255)" d="m269 90 31 135L152 92l117-2"/><path fill="rgba(160,130,102,255)" stroke="rgba(160,130,102,255)" d="m143 87 50-23-41 28-9-5"/><path fill="rgba(172,205,226,255)" stroke="rgba(172,205,226,255)" d="m193 64 76 26-117 2 41-28"/><path fill="rgba(95,98,97,255)" stroke="rgba(95,98,97,255)" d="m0 0 143 87-43 42L0 0"/><path fill="rgba(82,87,83,255)" stroke="rgba(82,87,83,255)" d="M66 181 0 0l100 129-34 52"/><path fill="rgba(136,137,141,255)" stroke="rgba(136,137,141,255)" d="M300 225 66 181l34-52 200 96"/><path fill="rgba(43,41,43,255)" stroke="rgba(43,41,43,255)" d="m152 92 148 133-200-96 52-37"/><path fill="rgba(73,72,65,255)" stroke="rgba(73,72,65,255)" d="m143 87 9 5-52 37 43-42"/></g></svg>