<svg xmlns="http://www.w3.org/2000/svg" width="300" height="225" viewBox="0 0 300 225"><g filter="blur(20px)"><rect width="200%" height="200%" x="-50%" y="-50%" fill="#6693ac"/><g stroke-linecap="round"><path fill="rgba(235,224,218,255)" stroke="rgba(235,224,218,255)" d="M300 225H0l285-17 15 17"/><path fill="rgba(196,188,187,255)" stroke="rgba(196,188,187,255)" d="M0 225V0l37 101L0 225"/><path fill="rgba(135,136,140,255)" stroke="rgba(135,136,140,255)" d="M285 208 0 225l185-89 100 72"/><path fill="rgba(241,234,227,255)" stroke="rgba(241,234,227,255)" d="m0 225 37-124 148 35L0 225"/><path fill="rgba(100,167,194,255)" stroke="rgba(100,167,194,255)" d="M0 0h300L136 26 0 0"/><path fill="rgba(181,150,122,255)" stroke="rgba(181,150,122,255)" d="M37 101 0 0l136 26-99 75"/><path fill="rgba(194,153,107,255)" stroke="rgba(194,153,107,255)" d="M185 136 37 101l99-75 49 110"/><path fill="rgba(127,184,211,255)" stroke="rgba(127,184,211,255)" d="m300 0-68 138-96-112L300 0"/><path fill="rgba(197,173,147,255)" stroke="rgba(197,173,147,255)" d="m232 138-47-2-49-110 96 112"/><path fill="rgba(229,222,216,255)" stroke="rgba(229,222,216,255)" d="M300 0v225l-33-49L300 0"/><path fill="rgba(118,101,91,255)" stroke="rgba(118,101,91,255)" d="m300 225-15-17-18-32 33 49"/><path fill="rgba(146,138,138,255)" stroke="rgba(146,138,138,255)" d="M232 138 300 0l-33 176-35-38"/><path fill="rgba(64,53,45,255)" stroke="rgba(64,53,45,255)" d="m285 208-100-72 82 40 18 32"/><path fill="rgba(170,159,149,255)" stroke="rgba(170,159,149,255)" d="m185 136 47 2 35 38-82-40"/></g></g></svg>