<svg xmlns="http://www.w3.org/2000/svg" width="300" height="225"><rect width="100%" height="100%" fill="#6693ac"/><g fill-opacity=".5" transform="translate(.6 .6)scale(1.17)"><circle r="1" fill="#c5a185" transform="rotate(129 33.8 129.5)scale(127.14 228.18)"/><circle r="1" fill="#fff" transform="rotate(137 56 124.8)scale(27.08 48.98)"/><path fill="#312c24" d="m110.2 140.4-3.5 66.9-69-3.7 3.6-66.9z"/><ellipse cx="211" cy="22" fill="#a5daed" rx="169" ry="55"/><circle r="1" fill="#002933" transform="matrix(4.6 -8.64 70.4 37.43 46.5 93)"/><path fill="#fff" d="M87.6 127.2 80 142.4-5.6 98.8 2 83.6z"/><path fill="#00435b" d="m-10.9 134.5 10.2-21.7 61.6 28.7-10.2 21.7z"/><circle r="1" fill="#fff" transform="rotate(121 12.8 61.8)scale(6.34 106.76)"/></g></svg>