<svg xmlns="http://www.w3.org/2000/svg" width="300" height="225"><rect width="100%" height="100%" fill="#6693ac"/><g fill-opacity=".5" transform="translate(.6 .6)scale(1.17188)"><circle cx="91" cy="191" r="189" fill="#c2a48c"/><circle cx="80" cy="191" r="52" fill="#42362f"/><circle cx="182" cy="183" r="35" fill="#fff"/><circle cx="182" r="86" fill="#90dfff"/><circle cx="56" r="40" fill="#d1e8f4"/><circle cx="243" cy="125" r="57" fill="#83665d"/><circle cx="11" cy="74" r="12" fill="#010000"/><circle cx="12" cy="162" r="16" fill="#fff"/><circle cx="22" cy="135" r="16" fill="#003848"/><circle cx="164" cy="154" r="18" fill="#fffff7"/><circle cx="32" cy="111" r="15" fill="#ffe"/><circle cx="73" cy="131" r="13" fill="#fffffb"/><circle cx="41" cy="90" r="12" fill="#003547"/><circle cx="45" cy="146" r="14" fill="#004b64"/><circle cx="12" cy="98" r="12" fill="#fff"/><circle cx="77" cy="109" r="12" fill="#003e48"/><circle cx="54" cy="120" r="12" fill="#fff"/><circle cx="163" cy="111" r="19" fill="#695544"/><circle cx="44" cy="45" r="14" fill="#7b4920"/><circle cx="246" cy="191" r="28" fill="#5f4534"/><circle cx="95" cy="119" r="11" fill="#003944"/><circle cx="59" cy="100" r="11" fill="#003d50"/><circle cx="56" cy="75" r="11" fill="#fffae7"/><circle cx="114" cy="161" r="35" fill="#726d6e"/><circle cx="83" cy="93" r="10" fill="#fff9dd"/><circle cx="186" cy="187" r="33" fill="#ffe8dc"/><circle cx="16" cy="52" r="16" fill="#f0d1bd"/><circle cx="60" cy="58" r="9" fill="#1a2825"/><circle cx="153" cy="103" r="8" fill="ivory"/><circle cx="25" cy="82" r="11" fill="#084d66"/></g></svg>