<svg xmlns="http://www.w3.org/2000/svg" width="300" height="225"><rect width="100%" height="100%" fill="#6693ac"/><g fill-opacity=".5" transform="translate(.6 .6)scale(1.17)"><circle cx="148" cy="191" r="212" fill="#beaa96"/><circle cx="80" cy="191" r="52" fill="#44332a"/><circle cx="182" cy="183" r="35" fill="#fff"/><circle cx="182" cy="6" r="80" fill="#7dd8ff"/><circle cx="255" cy="129" r="65" fill="#816156"/><circle cx="55" r="40" fill="#d0e5f1"/><circle cx="12" cy="73" r="13" fill="#170300"/><circle cx="13" cy="162" r="16" fill="#fff"/><circle cx="19" cy="134" r="16" fill="#003443"/><circle cx="164" cy="155" r="18" fill="#fffff4"/><circle cx="32" cy="111" r="15" fill="#fffde9"/><circle cx="40" cy="143" r="14" fill="#004052"/><circle cx="44" cy="91" r="12" fill="#003340"/><circle cx="74" cy="132" r="13" fill="#fffff3"/><circle cx="162" cy="110" r="19" fill="#6a523f"/><circle cx="45" cy="45" r="14" fill="#7f471a"/><circle cx="64" cy="102" r="11" fill="#00323f"/><circle cx="51" cy="121" r="13" fill="#ffffed"/><circle cx="86" cy="114" r="11" fill="#00343f"/><circle cx="11" cy="100" r="13" fill="#fffff1"/><circle cx="184" cy="188" r="35" fill="#ffe8dc"/><circle cx="114" cy="161" r="35" fill="#736c6c"/><circle cx="16" cy="53" r="15" fill="#fcd5bd"/><circle cx="155" cy="83" r="26" fill="#d0c3b9"/><circle cx="55" cy="75" r="11" fill="#fff7e0"/><circle cx="26" cy="82" r="11" fill="#084b62"/><circle cx="73" cy="86" r="10" fill="#fffde6"/><circle cx="102" cy="125" r="10" fill="#0e383f"/><circle cx="60" cy="58" r="9" fill="#1d2724"/><circle cx="14" cy="191" r="15" fill="#563727"/></g></svg>