<svg xmlns="http://www.w3.org/2000/svg" width="300" height="225"><rect width="100%" height="100%" fill="#6693ac"/><g fill-opacity=".5"><path fill="#ccc4b6" d="M318.2-18.2-18.2 25.2l252 218z"/><path fill="#8b614b" d="M314.6 82.6 301.8 235 137.7 116.6z"/><path fill="#652d09" d="M-18.2 231.4 126 243.2l3.5-96.1z"/><path fill="#ffffe8" d="m-18.2 85 36.4 56.2L140 167z"/><path fill="#fffff5" d="m273.6 210.4-94.9 32.8L174 147z"/><path fill="#fffffb" d="m-18.2 158.8 75 31.6-51.5 21.1z"/><path fill="#81d1f5" d="M38-18.2 318.3 4.1l-98.5 114.8z"/><path fill="#27433e" d="m184.6 148.2-73.9-78.5L15.8 44z"/><path fill="#583f1d" d="m-13.5 93.2-4.7-52.8 154.7 104.3z"/><path fill="#fff7dd" d="m40.4 93.2-58.6-63.3 148.9 86.7z"/><path fill="#303f35" d="m5.3 168.2-22.3-48 144.1 71.4z"/><path fill="#e8ccbb" d="m25.2 24 117.2 82-48-114.8z"/><path fill="#242f27" d="m74.4 37 103.1 72.6-45.7-55.1z"/><path fill="#fdddd2" d="m229.1 243.2-58.6-31.7 133.6-46.9z"/><path fill="#ffe7d4" d="m52.1 156.4 65.7 9.4-136-84.4z"/><path fill="#f4d2bd" d="M213.9 122.5 82.6 28.7 196.3 71z"/><path fill="#876d62" d="M171.7 147 72 168.3l106.6 75z"/><path fill="#0d0000" d="m278.3 156.4-37.5 27 77.4-28.1z"/><path fill="#fffcef" d="m133 79.1 85.6 61-55.1-20z"/><path fill="#034c64" d="M107.2 148.2-18.2 82.6l59.8 3.5z"/><path fill="#6f4931" d="m318.2 198.6-59.8-1.1-1.2 45.7z"/><path fill="#fff3e1" d="m185.7 151.8-68-18.8-42.1-49.2z"/><path fill="#000608" d="m163.5 135.4 51.5 2.3-28 14z"/><path fill="#b57c4d" d="m3 148.2 92.5 16.4L-4 117.8z"/><path fill="#1c2c2a" d="M184.6 117.8 156.4 85l69.2 46.8z"/><path fill="#1f3d3e" d="m56.8 99 68 65.6 7-24.6z"/><path fill="#794825" d="m33.4 55.7 63.3 22.2-49.2-44.5z"/><path fill="#70b5d3" d="m97.9-18.2 220.3 72.7-95 55z"/><path fill="#d6ebfb" d="M69.7 44 25.2 14.5 131.8-1.8z"/><path fill="#b57f58" d="m-18.2 45.1 122 69.2L34.5 99z"/><path fill="#ffefdf" d="M55.7 188 10 209.3l-18.8-44.6z"/><path fill="#067495" d="m18.2 42.8-30.5-14 24.6-47z"/><path fill="#574b3b" d="m83.8 42.8 11.7-17.6 52.7 58.6z"/><path fill="#21150a" d="m271.3 161.1-28.1 24.6-16.4-4.6z"/><path fill="#ddd1cd" d="m225.6 157.6 76.2-32.8-30.5 27z"/><path fill="#f6fbff" d="M73.2 48.6 147.1 99l-28.2-36.3z"/><path fill="#3e3228" d="m263 126-33.8 28 71.5-31.6z"/><path fill="#24616f" d="M158.8 107.2 80.3 85l116 70.3z"/><path fill="#90817f" d="m277.1 130.7 41-79.7-125.3 87.9z"/><path fill="#fae9e9" d="m-13.5 88.5-1.1 34 112.5 22.2z"/><path fill="#ffe9e0" d="m177.5 151.8-1.1 91.4 53.9-59.8z"/><path fill="#185d78" d="M-18.2 157.6 71 192.8 24 140z"/><path fill="#260000" d="m24 81.4-42.2-1.1 32.8 19.9z"/><path fill="#fee9e9" d="M68.6 92 24 42.8-1.8 52z"/><path fill="#0d4a5f" d="M123.6 56.8 99 53.3l50.4 36.3z"/><path fill="#b47237" d="m95.5 112 31.6 31.6 16.5-4.7z"/><path fill="#393738" d="m251.4 191.6 18.7 1.2 18.8-14z"/><path fill="#64a8c3" d="m149.4 58 102-50.4L120-18.2z"/><path fill="#dde9f2" d="m216.2 117.8-7-36.4-78.5-27z"/><path fill="#fceae5" d="m88.5 169.3-62.1-45.7 86.7 28.2z"/></g></svg>