<svg xmlns="http://www.w3.org/2000/svg" width="300" height="225" viewBox="0 0 300 225"><g stroke-linecap="round"><path fill="rgba(132,133,137,255)" stroke="rgba(132,133,137,255)" d="M300 225H0l172-21 128 21"/><path fill="rgba(231,216,209,255)" stroke="rgba(231,216,209,255)" d="m300 225-128-21 89-14 39 35"/><path fill="rgba(107,165,189,255)" stroke="rgba(107,165,189,255)" d="M0 0h300L112 80 0 0"/><path fill="rgba(118,180,205,255)" stroke="rgba(118,180,205,255)" d="M300 0 175 97l-63-17L300 0"/><path fill="rgba(29,101,123,255)" stroke="rgba(29,101,123,255)" d="M0 225V0l112 80L0 225"/><path fill="rgba(73,67,59,255)" stroke="rgba(73,67,59,255)" d="M300 0v225l-41-75L300 0"/><path fill="rgba(134,125,126,255)" stroke="rgba(134,125,126,255)" d="m300 225-39-35-2-40 41 75"/><path fill="rgba(129,187,211,255)" stroke="rgba(129,187,211,255)" d="M175 97 300 0l-41 150-84-53"/><path fill="rgba(75,63,51,255)" stroke="rgba(75,63,51,255)" d="m261 190-89 14 87-54 2 40"/><path fill="rgba(145,131,120,255)" stroke="rgba(145,131,120,255)" d="m172 204 3-107 84 53-87 54"/><path fill="rgba(99,94,90,255)" stroke="rgba(99,94,90,255)" d="M172 204 0 225l122-116 50 95"/><path fill="rgba(244,250,250,255)" stroke="rgba(244,250,250,255)" d="M0 225 112 80l10 29L0 225"/><path fill="rgba(228,221,225,255)" stroke="rgba(228,221,225,255)" d="m175 97-3 107-50-95 53-12"/><path fill="rgba(169,148,129,255)" stroke="rgba(169,148,129,255)" d="m112 80 63 17-53 12-10-29"/></g></svg>