<svg xmlns="http://www.w3.org/2000/svg" width="300" height="225" viewBox="0 0 300 225"><g stroke-linecap="round"><path fill="rgba(141,133,131,255)" stroke="rgba(141,133,131,255)" d="M300 0v225l-5-99 5-126"/><path fill="rgba(145,125,126,255)" stroke="rgba(145,125,126,255)" d="m300 0-5 126-26-14L300 0"/><path fill="rgba(132,132,134,255)" stroke="rgba(132,132,134,255)" d="M300 225H0l190-25 110 25"/><path fill="rgba(240,231,228,255)" stroke="rgba(240,231,228,255)" d="M0 225 95 66l95 134L0 225"/><path fill="rgba(224,245,224,255)" stroke="rgba(224,245,224,255)" d="m95 66 174 46-79 88L95 66"/><path fill="rgba(230,223,219,255)" stroke="rgba(230,223,219,255)" d="m295 126 5 99-110-25 105-74"/><path fill="rgba(94,85,78,255)" stroke="rgba(94,85,78,255)" d="m269 112 26 14-105 74 79-88"/><path fill="rgba(108,163,186,255)" stroke="rgba(108,163,186,255)" d="M0 0h300L100 57 0 0"/><path fill="rgba(237,229,231,255)" stroke="rgba(237,229,231,255)" d="M95 66 0 0l100 57-5 9"/><path fill="rgba(127,184,211,255)" stroke="rgba(127,184,211,255)" d="m300 0-31 112-169-55L300 0"/><path fill="rgba(201,168,137,255)" stroke="rgba(201,168,137,255)" d="M269 112 95 66l5-9 169 55"/><path fill="rgba(229,220,217,255)" stroke="rgba(229,220,217,255)" d="M0 225V0l13 99L0 225"/><path fill="rgba(65,56,49,255)" stroke="rgba(65,56,49,255)" d="m0 0 95 66-82 33L0 0"/><path fill="rgba(235,232,227,255)" stroke="rgba(235,232,227,255)" d="M95 66 0 225 13 99l82-33"/></g><rect width="100%" height="100%" fill="#6693ac"/></svg>