<svg xmlns="http://www.w3.org/2000/svg" width="298" height="375"><rect width="100%" height="100%" fill="#536984"/><g fill-opacity=".5"><path fill="#002e2d" d="M-22.7 362.5 298-22.7l1.5 420.4z"/><path fill="#6ddbff" d="M156 46.1-22.7 148.7l344.2-5.9z"/><path fill="#002d24" d="m5.1 125.2 316.4 237.3-344.2 35.2z"/><path fill="#00153e" d="M8-22.7 321.6 8-22.7 82.8z"/><path fill="#004452" d="m153 119.4-175.7 92.3 344.2 131.8z"/><path fill="#0064a8" d="M321.5 128.2-5 47.6l268-22z"/><path fill="#a8dcf1" d="m72.5 96 156.7 58.5 1.5-45.4z"/><path fill="#002533" d="m321.5 137-24.9 260.7L201.4 156z"/><path fill="#005680" d="m-6.6 181 271 19L156 126.7z"/><path fill="#002c4c" d="M295.2-22.7-22.8 5l338.6 72z"/><path fill="#022633" d="M-9.5 151.6h109.8L6.6 397.7z"/><path fill="#2c86c0" d="M103.3 69.6 9.5 156-22.7 50.5z"/><path fill="#037b5e" d="M280.5 309.8 14 273.2l162.6-30.8z"/><path fill="#a8d3e3" d="m183.8 88.6-85 61.5-89.3-2.9z"/><path fill="#157aa1" d="m257 182.4-221 7.3 104-36.6z"/><path fill="#1f8fcf" d="m208.7 62.3 23.5 87.8 89.3-23.4z"/><path fill="#66a8c6" d="M255.6 112 126.7 58 21.2 113.5z"/><path fill="#05455f" d="m112 214.6 42.5-92.3-139.1 61.5z"/><path fill="#0d2639" d="m318.6 254.2 3-82L27 243.8z"/><path fill="#02639d" d="M321.5 71v86.5l-193.3-129z"/><path fill="#cdeaf0" d="m191.2 148.7-41-29.3 54.1 13.2z"/><path fill="#015046" d="m96 350.8-105.5-104 325.2 70.3z"/><path fill="#499bbb" d="m132.6 181-19-20.6 67.3-4.4z"/><path fill="#0c4268" d="m-6.6 16.8 149.4 6-152.3 73z"/><path fill="#0b2d34" d="m-12.5 309.8 19 88 315-25z"/><path fill="#005072" d="m62.3 192.6 187.5-38-36.7 74.6z"/><path fill="#132632" d="m100.3 252.7-120-3 139-71.7z"/><path fill="#84c1de" d="m135.5 97.4 136.2 44-55.6 8.7z"/><path fill="#003d5b" d="m151.6 122.3 41 33.7-98.1-5.9z"/><path fill="#5f94c3" d="M53.5 151.6v-46.9L-22.7 140z"/><path fill="#077d6d" d="M161.9 248.3 87.2 282l-25-23.5z"/><path fill="#107090" d="m53.5 169.2 1.4 30.8 73.3-27.9z"/><path fill="#216a97" d="M200 37.4 6.6 60.8l96.7 20.5z"/><path fill="#03594a" d="m264.4 349.4-82-101.1 109.8 16.1z"/><path fill="#152d3a" d="m-22.7-21.2 230-1.5-230 68.8z"/><path fill="#3f98c1" d="m147.2 63.7 109.9 82V96z"/><path fill="#11303b" d="m24.2 397.7 20.5-240.2-67.4-17.6z"/><path fill="#0a4779" d="M84.2 28.6 321.5 90l-98.1-70.3z"/><path fill="#8ec4d6" d="M159 75.4 56.3 125.2l60 14.7z"/><path fill="#122c37" d="m257 159 64.5 114.2-133.3-30.8z"/><path fill="#162e40" d="M309.8 47.6 115-6.6 309.8-11z"/><path fill="#077098" d="m167.7 172.1 44 25 32.2-28z"/><path fill="#295f90" d="m55 62.3-66 70.3-8.8-86.5z"/><path fill="#002f4d" d="m170.7 167.7 16-20.5 66 7.3z"/><path fill="#097f6b" d="m208.7 254.2-26.3 22-55.7-26.4z"/><path fill="#112a33" d="M160.4 323 134 282l51.3 4.4z"/><path fill="#073a51" d="m173.6 182.4 86.4 29.3-82 27.8z"/><path fill="#0b3c54" d="M125.2 156-8 198.5 27.1 150z"/><path fill="#a9d0e0" d="m94.5 148.7-52.8-1.5 98.2-24.9z"/><path fill="#4b8cb4" d="m59.3 74-82 79 162.6-86.3z"/></g></svg>