<svg xmlns="http://www.w3.org/2000/svg" width="298" height="375"><rect width="100%" height="100%" fill="#536984"/><g fill-opacity=".5"><path fill="#002e2d" d="m-22.7 362.5 344.2 35.2-26.3-420.4z"/><path fill="#6edbff" d="m321.5 142.8-167-96.7-177.2 102.6z"/><path fill="#002d23" d="M2.2 397.7 321.5 364-.7 122.3z"/><path fill="#00153e" d="M321.5 8-22.7 82.9 8-22.7z"/><path fill="#004452" d="m153 118-175.6 95 344.2 130.4z"/><path fill="#0064a7" d="M321.5 123.8-22.7 49l278.3-25z"/><path fill="#ade0f5" d="m229.2 112-1.4 42.5-145-60z"/><path fill="#00222f" d="m321.5 131.1-105.4 25 74.7 241.6z"/><path fill="#005b87" d="m40.3 191.2 230 2.9-126-71.8z"/><path fill="#002735" d="m106.2 150.1-115.7 4.4 16 243.2z"/><path fill="#002c4c" d="m-22.7 5.1 315-27.8 26.3 99.6z"/><path fill="#2e87c1" d="m-22.7 63.7 128.9 3L11 154.5z"/><path fill="#016c55" d="M280.5 334.7 263 251.2l-285.6 5.9z"/><path fill="#a4cfe3" d="m-11 145.8 101 5.8L185.4 96z"/><path fill="#1f8ed0" d="m226.3 151.6 95.2-17.6L222 60.8z"/><path fill="#197fa5" d="m46.1 185.3 108.4-32.2 77.7 32.2z"/><path fill="#6fb0cd" d="M170.7 63.7 38.8 94.5l225.6 51.3z"/><path fill="#0a2638" d="m321.5 150.1-193.3 86.5 193.3 33.7z"/><path fill="#b2d9e7" d="M188.2 147.2 137 110.6l112.8 35.2z"/><path fill="#054661" d="m104.7 216 52.8-90.8L13.9 178z"/><path fill="#02629c" d="M321.5 68.1v83.5l-200.7-123z"/><path fill="#172330" d="m-.7 268.8-4.4-82 153.8 46.8z"/><path fill="#024843" d="m106.2 361-129-101 344.3 61.5z"/><path fill="#4d9cba" d="m178 159-61.5-1.5 17.5 22z"/><path fill="#0d7d6a" d="m98.9 251.2 63 35.2 60-33.7z"/><path fill="#104871" d="M141.4 18.3-19.8 30l5.9 79.1z"/><path fill="#004d6f" d="m213.1 230.7 38.1-85-177.2 47z"/><path fill="#0b2d35" d="m321.5 314.2-32.2 83.5-293-26.4z"/><path fill="#0f7496" d="m56.4 172.1 85-4.4L57.9 197z"/><path fill="#5792bb" d="m132.6 53.5-155.3 85 58.6 10.2z"/><path fill="#96ccd9" d="m59.3 103.3 98.2 5.8-51.3 35.2z"/><path fill="#003b58" d="m98.9 147.2 52.7-23.4 48.4 38z"/><path fill="#122e3f" d="M.7-21.2-.7 50.5l183-73.2z"/><path fill="#3e97c1" d="m141.4 60.8 112.8 82 7.3-45.4z"/><path fill="#077e6c" d="m74 258.5 90.8-8.7L71 286.4z"/><path fill="#012238" d="m170.7 161.9 29.3-17.6 24.9 10.2z"/><path fill="#3374a4" d="M-8 160.4 18.2 54.9l66 7.4z"/><path fill="#05729a" d="m148.7 164.8 90.8 8.8-26.4 23.4z"/><path fill="#172d3c" d="m312.7 44.7-16-67.4-194.9 5.9z"/><path fill="#0a3249" d="m-21.2 142.8 137.7 19-139.2 22z"/><path fill="#236994" d="M74 56.4 205.8 33l-26.4 38z"/><path fill="#0a4272" d="m238 14 83.5 73.2L93 30z"/><path fill="#062d42" d="M141.4 182.4 63.7 219l46.9-41z"/><path fill="#043251" d="m314.2 183.8-108.4-29.3L321.5 137z"/><path fill="#112932" d="m128.2 282 58.6 4.4-27.9 33.7z"/><path fill="#0f2f37" d="m11 236.6-27.8 161.1h126z"/><path fill="#127bb5" d="M280.5 142.8 203 66.7l118.6 65.9z"/><path fill="#05463e" d="m304 263-88 10.2 105.5 54.2z"/><path fill="#a9d5e2" d="m134 116.5-29.3 27.8-49.8 7.3z"/><path fill="#075249" d="m8 254.2 161.2 67.3-74.7 19z"/></g></svg>