<svg xmlns="http://www.w3.org/2000/svg" width="298" height="375"><rect width="100%" height="100%" fill="#536984"/><g fill-opacity=".5"><path fill="#002e2d" d="M299.6 397.7 298-22.7-22.7 362.5z"/><path fill="#6ddbff" d="m321.5 142.8-344.2 5.9L156 46z"/><path fill="#002c23" d="M321.5 365.5-22.7 106.2 3.7 397.7z"/><path fill="#00153e" d="M321.5 8 8.1-22.6-22.7 82.8z"/><path fill="#004552" d="M321.5 353.8-22.7 213l177.2-95z"/><path fill="#0064a7" d="M321.5 125.2-22.7 47.6l284.2-22z"/><path fill="#afe0f4" d="M224.9 153 81.3 99l145 10.2z"/><path fill="#002432" d="M321.5 135.5 203 156l93.7 238.8z"/><path fill="#005782" d="m151.6 125.2 112.8 70.4-265.1-8.8z"/><path fill="#002b4a" d="m304 72.5-6-95.2L-22.7 3.7z"/><path fill="#022733" d="m98.9 153-121.6-2.9L8 397.7z"/><path fill="#2c85be" d="m112 65.2-134.7-8.8L8 151.6z"/><path fill="#03795c" d="m-11 270.3 192-25 101 66z"/><path fill="#a3cee2" d="m181 97.4-89.4 52.7-114.3-4.3z"/><path fill="#2190d0" d="M321.5 131.1 225 151.6l-13.2-92.3z"/><path fill="#177fa5" d="m49 183.8 107-30.7 83.5 33.7z"/><path fill="#70b1cd" d="m35.9 98.9 232.9 44-107-79.2z"/><path fill="#0c2639" d="m296.6 178 10.3 77.6L30 242.4z"/><path fill="#01609a" d="M317.1 151.6 120.8 24.2l178.8 41z"/><path fill="#025046" d="M-14 252.7 115 361l206.5-60z"/><path fill="#a4d1e2" d="M188.2 147.2 112.1 93l142 52.8z"/><path fill="#005173" d="m251.2 154.5-205 35.2L216 229.2z"/><path fill="#003650" d="m75.4 169.2 108.4-23.4-39.5-25z"/><path fill="#58a1bd" d="m132.6 182.4 44-23.5-41.1-2.9z"/><path fill="#132633" d="m-22.7 245.4 148-68.9-29.4 77.7z"/><path fill="#0a3f64" d="m-6.6 69.6-3-55.7L200 25.6z"/><path fill="#5290bb" d="M-22.7 132.6 131 53.5 34.4 150z"/><path fill="#0c2c34" d="m12.5 397.7-35.2-83.5 328.1 57.1z"/><path fill="#097b6c" d="m71 283.4 120.2-32.2H78.4z"/><path fill="#225987" d="m-5.1 53.5-3 67.3L71 52z"/><path fill="#94cbd9" d="m57.9 109.1 48.3 33.7 55.7-35.1z"/><path fill="#0c6281" d="m62.3 200-27.9-28 112.8-8.8z"/><path fill="#03624f" d="m189.7 246.8-3 74.7 95.3-54.2z"/><path fill="#12303b" d="m55 169.2-77.7-36.6 45.4 265.1z"/><path fill="#162d3a" d="M128.2-.7H-14l7.3 41z"/><path fill="#3d95be" d="M260 141.4V95.9L126.7 56.4z"/><path fill="#002b48" d="m235.1 161.9-61.5 2.9 27.8-20.5z"/><path fill="#053248" d="m110.6 172.1-4.4-26.3L30 160.4z"/><path fill="#1c6995" d="M126.7 38.8 40.3 69.6l165.5-7.3z"/><path fill="#162d3f" d="m125.2-15.4 196.3-5.8v76.1z"/><path fill="#0b4575" d="m321.5 85.7-86.4-66-164 7.4z"/><path fill="#08729c" d="m141.4 161.9 101 13.1-39.5 14.7z"/><path fill="#a1cddf" d="m128.2 115-93.8 35 58.6-2.9z"/><path fill="#122c37" d="m204.3 252.7 49.9-107 67.3 118.7z"/><path fill="#bbdfe8" d="m150.1 119.4 41 27.8 10.3-13.2z"/><path fill="#07374e" d="m172.1 239.5 3-57.1 79 33.7z"/><path fill="#112b33" d="M159 318.6 128.1 282l61.5 5.8z"/><path fill="#0f77af" d="m286.4 142.8 35.1-29.3L181 55z"/><path fill="#023353" d="m321.5 176.5-5.8-38-112.8 16z"/><path fill="#03445d" d="M125.2 176.5 52 200l90.8 29.2z"/></g></svg>