<svg xmlns="http://www.w3.org/2000/svg" width="300" height="375" viewBox="0 0 300 375"><g stroke-linecap="round"><path fill="rgba(13,57,56,255)" stroke="rgba(13,57,56,255)" d="M300 375H0l236-11 64 11"/><path fill="rgba(19,46,61,255)" stroke="rgba(19,46,61,255)" d="M300 0v375l-35-181L300 0"/><path fill="rgba(10,84,75,255)" stroke="rgba(10,84,75,255)" d="m300 375-64-11 29-170 35 181"/><path fill="rgba(13,119,97,255)" stroke="rgba(13,119,97,255)" d="m236 364-124-87 153-83-29 170"/><path fill="rgba(14,60,99,255)" stroke="rgba(14,60,99,255)" d="M0 0h300l-82 78L0 0"/><path fill="rgba(14,108,160,255)" stroke="rgba(14,108,160,255)" d="m300 0-35 194-47-116 82-78"/><path fill="rgba(30,126,164,255)" stroke="rgba(30,126,164,255)" d="m265 194-153 83L218 78l47 116"/><path fill="rgba(14,53,58,255)" stroke="rgba(14,53,58,255)" d="M236 364 0 375l90-43 146 32"/><path fill="rgba(4,66,67,255)" stroke="rgba(4,66,67,255)" d="m0 375 112-98-22 55-90 43"/><path fill="rgba(22,81,73,255)" stroke="rgba(22,81,73,255)" d="m112 277 124 87-146-32 22-55"/><path fill="rgba(49,101,138,255)" stroke="rgba(49,101,138,255)" d="M0 375V0l53 74L0 375"/><path fill="rgba(22,42,57,255)" stroke="rgba(22,42,57,255)" d="M112 277 0 375 53 74l59 203"/><path fill="rgba(18,84,132,255)" stroke="rgba(18,84,132,255)" d="m0 0 218 78-165-4L0 0"/><path fill="rgba(13,77,101,255)" stroke="rgba(13,77,101,255)" d="M218 78 112 277 53 74l165 4"/></g></svg>