<svg xmlns="http://www.w3.org/2000/svg" width="300" height="375" viewBox="0 0 300 375"><g stroke-linecap="round"><path fill="rgba(20,57,72,255)" stroke="rgba(20,57,72,255)" d="M0 375V0l29 158L0 375"/><path fill="rgba(20,44,60,255)" stroke="rgba(20,44,60,255)" d="M300 0v375l-76-35L300 0"/><path fill="rgba(14,51,55,255)" stroke="rgba(14,51,55,255)" d="M300 375H0l224-35 76 35"/><path fill="rgba(24,102,87,255)" stroke="rgba(24,102,87,255)" d="m0 375 64-113 160 78L0 375"/><path fill="rgba(55,107,154,255)" stroke="rgba(55,107,154,255)" d="M29 158 0 0l58 54-29 104"/><path fill="rgba(20,53,74,255)" stroke="rgba(20,53,74,255)" d="M64 262 29 158l158-99L64 262"/><path fill="rgba(94,167,209,255)" stroke="rgba(94,167,209,255)" d="m300 0-76 340-37-281L300 0"/><path fill="rgba(10,67,85,255)" stroke="rgba(10,67,85,255)" d="M224 340 64 262 187 59l37 281"/><path fill="rgba(20,58,91,255)" stroke="rgba(20,58,91,255)" d="M0 0h300L187 59 0 0"/><path fill="rgba(14,63,107,255)" stroke="rgba(14,63,107,255)" d="M58 54 0 0l187 59-129-5"/><path fill="rgba(104,161,191,255)" stroke="rgba(104,161,191,255)" d="M29 158 58 54l129 5-158 99"/><path fill="rgba(11,46,53,255)" stroke="rgba(11,46,53,255)" d="M64 262 0 375l57-120 7 7"/><path fill="rgba(8,67,71,255)" stroke="rgba(8,67,71,255)" d="m0 375 29-217 28 97L0 375"/><path fill="rgba(18,45,52,255)" stroke="rgba(18,45,52,255)" d="m29 158 35 104-7-7-28-97"/></g></svg>