<svg xmlns="http://www.w3.org/2000/svg" width="300" height="375"><g filter="blur(8px)"><rect width="200%" height="200%" x="-50%" y="-50%" fill="#536984"/><path fill="#205079" d="M-61.5-47.5h94v94h-94z"/><path fill="#1d5b88" d="M32.5-47.5h47v94h-47z"/><path fill="#246a98" d="M79.5-47.5h47v94h-47z"/><path fill="#3077a4" d="M126.5-47.5h47v94h-47z"/><path fill="#166697" d="M173.5-47.5h47v94h-47z"/><path fill="#035083" d="M220.5-47.5h47v94h-47z"/><path fill="#083f6a" d="M267.5-47.5h94v94h-94z"/><path fill="#3b7cab" d="M-61.5 46.5h94v47h-94z"/><path fill="#64a2c5" d="M32.5 46.5h47v47h-47z"/><path fill="#7eb8d1" d="M79.5 46.5h47v47h-47z"/><path fill="#76b2cc" d="M126.5 46.5h47v47h-47z"/><path fill="#64b1d1" d="M173.5 46.5h47v47h-47z"/><path fill="#3593c1" d="M220.5 46.5h47v47h-47z"/><path fill="#0f6ea9" d="M267.5 46.5h94v47h-94z"/><path fill="#3b6f90" d="M-61.5 93.5h94v47h-94z"/><path fill="#5c90aa" d="M32.5 93.5h47v47h-47z"/><path fill="#4a869d" d="M79.5 93.5h47v47h-47z"/><path fill="#2a6d8a" d="M126.5 93.5h47v47h-47z"/><path fill="#558fa8" d="M173.5 93.5h47v47h-47z"/><path fill="#4281a1" d="M220.5 93.5h47v47h-47z"/><path fill="#165980" d="M267.5 93.5h94v47h-94z"/><path fill="#113141" d="M-61.5 140.5h94v47h-94z"/><path fill="#0b4156" d="M32.5 140.5h47v47h-47z"/><path fill="#034762" d="M79.5 140.5h47v47h-47z"/><path fill="#0c5878" d="M126.5 140.5h47v47h-47z"/><path fill="#024d6e" d="M173.5 140.5h47v47h-47z"/><path fill="#073a52" d="M220.5 140.5h47v47h-47z"/><path fill="#102a38" d="M267.5 140.5h94v47h-94z"/><path fill="#152e3a" d="M-61.5 187.5h94v47h-94z"/><path fill="#13313c" d="M32.5 187.5h47v47h-47z"/><path fill="#0f3e49" d="M79.5 187.5h47v47h-47z"/><path fill="#0b4553" d="M126.5 187.5h47v47h-47z"/><path fill="#0c4050" d="M173.5 187.5h47v47h-47z"/><path fill="#103241" d="M220.5 187.5h47v47h-47z"/><path fill="#162c38" d="M267.5 187.5h94v47h-94z"/><path fill="#0c3b3f" d="M-61.5 234.5h94v47h-94z"/><path fill="#0a504b" d="M32.5 234.5h47v47h-47z"/><path fill="#0c5850" d="M79.5 234.5h47v47h-47z"/><path fill="#0e564f" d="M126.5 234.5h47v47h-47z"/><path fill="#0a5d52" d="M173.5 234.5h47v47h-47z"/><path fill="#0a534c" d="M220.5 234.5h47v47h-47z"/><path fill="#0c3e41" d="M267.5 234.5h94v47h-94z"/><path fill="#10353c" d="M-61.5 281.5h94v47h-94z"/><path fill="#0c4445" d="M32.5 281.5h47v47h-47z"/><path fill="#094c44" d="M79.5 281.5h47v47h-47z"/><path fill="#0b433f" d="M126.5 281.5h47v47h-47z"/><path fill="#0a4b45" d="M173.5 281.5h47v47h-47z"/><path fill="#08514b" d="M220.5 281.5h47v47h-47z"/><path fill="#0a4343" d="M267.5 281.5h94v47h-94z"/><path fill="#143037" d="M-61.5 328.5h94v94h-94z"/><path fill="#123139" d="M32.5 328.5h47v94h-47z"/><path fill="#0d3a3b" d="M79.5 328.5h47v94h-47z"/><path fill="#0c3c3b" d="M126.5 328.5h47v94h-47z"/><path fill="#0f363a" d="M173.5 328.5h47v94h-47z"/><path fill="#0f333b" d="M220.5 328.5h47v94h-47z"/><path fill="#123138" d="M267.5 328.5h94v94h-94z"/></g></svg>