<svg xmlns="http://www.w3.org/2000/svg" width="298" height="375"><rect width="100%" height="100%" fill="#536984"/><g fill-opacity=".5" transform="translate(.7 .7)scale(1.46484)"><circle cx="100" cy="241" r="147" fill="#001b11"/><circle cx="98" cy="27" r="121" fill="#096b99"/><circle cx="62" cy="74" r="29" fill="#ade7fb"/><circle cx="130" cy="73" r="28" fill="#90e4ff"/><circle cx="157" r="60" fill="#001f47"/><circle cx="47" r="52" fill="#001c3e"/><circle cx="181" cy="138" r="40" fill="#001a2f"/><circle cx="95" cy="65" r="20" fill="#93d2e9"/><circle cx="23" cy="138" r="37" fill="#002131"/><circle cx="36" cy="74" r="31" fill="#68a4cc"/><circle cx="97" cy="245" r="120" fill="#00403e"/><circle cx="153" cy="73" r="30" fill="#45abda"/><circle cx="127" cy="47" r="22" fill="#1f82b6"/><circle cx="129" cy="83" r="16" fill="#b0d8e2"/><circle cx="71" cy="45" r="20" fill="#297eb2"/><circle cx="190" cy="2" r="63" fill="#01365b"/><circle cx="112" cy="188" r="51" fill="#015551"/><circle cx="99" cy="115" r="29" fill="#03587c"/><circle cx="192" cy="72" r="26" fill="#0071b7"/><circle cx="157" cy="49" r="22" fill="#0168a2"/><circle cx="30" cy="53" r="23" fill="#266798"/><circle cx="151" cy="89" r="15" fill="#84bfda"/><circle cx="195" cy="125" r="29" fill="#042838"/><circle cx="46" cy="86" r="18" fill="#8ec2d5"/><circle cx="13" r="37" fill="#13293f"/><circle cx="187" r="29" fill="#1c262e"/><circle cx="99" cy="114" r="9" fill="#4aa5c5"/><circle cx="145" cy="123" r="13" fill="#00709b"/><circle cx="15" cy="255" r="51" fill="#0b2530"/><circle cx="71" cy="83" r="14" fill="#a3d7e3"/></g></svg>