<svg xmlns="http://www.w3.org/2000/svg" width="298" height="375"><rect width="100%" height="100%" fill="#536984"/><g fill-opacity=".5"><path fill="#002e2d" d="m295.2-22.7-318 385.2 344.3 35.2z"/><path fill="#6ddaff" d="M-22.7 148.7 153 44.7l168.4 98.1z"/><path fill="#002d23" d="M321.5 364-3.7 119.4l5.9 278.3z"/><path fill="#001944" d="M-22.7 90 6.6-22.6 321.6 8z"/><path fill="#004553" d="m321.5 347.9-344.2-142 177.2-86.5z"/><path fill="#0068ab" d="m255.6 28.6-275.4 22 341.3 73.2z"/><path fill="#a7dcf3" d="m229.2 154.5 10.3-43.9L82.8 98.9z"/><path fill="#00222f" d="M295.2 397.7 321.5 137l-111.3 17.5z"/><path fill="#005d8a" d="m43.2 191.2 101-70.4 110 67.4z"/><path fill="#002c4c" d="M-22.7 5.1 315.7 77l-19-99.6z"/><path fill="#012a38" d="M126.7 144.3 6.6 397.7l-29.3-233z"/><path fill="#3389c0" d="M119.4 60.8 11 154.5l-33.7-87.8z"/><path fill="#01745a" d="m-12.5 264.4 227.1-17.6 70.3 74.7z"/><path fill="#b0d8e8" d="M179.4 97.4 9.5 147.2l83.5 3z"/><path fill="#1989cb" d="m207.3 53.5 114.2 79-89.3 16.2z"/><path fill="#197ea4" d="M232.2 182.4 145.8 153 37.4 189.7z"/><path fill="#76b3ce" d="m-19.8 148.7 161.2-82 93.7 39.5z"/><path fill="#065186" d="m220.5 21.2 101 73.3L36 31.5z"/><path fill="#152332" d="m238 242.4-260.7 14.7 19-66z"/><path fill="#003854" d="m151.6 122.3-57.1 27.8 107 11.8z"/><path fill="#d0ecf1" d="m202.9 135.5-11.7 13.2-45.4-32.2z"/><path fill="#024c45" d="m104.7 355.2 216.8-38-336.9-64.5z"/><path fill="#014c6b" d="m21.2 164.8 221.2 27.8-109.8 36.6z"/><path fill="#0b2839" d="m321.5 267.3-159.6-22 159.6-123z"/><path fill="#5da4c0" d="m141.4 178 41-22-49.8 4.4z"/><path fill="#10334b" d="m-22.7 60.8 315-60L-9.6-22.8z"/><path fill="#69b1d6" d="m270.3 142.8-77.7-48.3 22 55.6z"/><path fill="#0b2c34" d="m-19.8 397.7-1.4-85 320.8 60.1z"/><path fill="#016aa9" d="M287.8 145.8 219 54.9l102.5 55.7z"/><path fill="#0b7463" d="m249.8 268.8-214 14.6 92.4-39.5z"/><path fill="#5490bb" d="M-18.3 138.4 116.5 55l-80.6 95.2z"/><path fill="#005d88" d="m214.6 197-63-29.3 105.5-13.2z"/><path fill="#042b42" d="m-22.7 144.3 128.9 13.2-129 22z"/><path fill="#1a517f" d="m-22.7 137 126-118.7L2.2 49.1z"/><path fill="#97c8d8" d="M148.7 82.8 34.4 151.6l85-13.2z"/><path fill="#035144" d="m274.7 258.5-90.9 4.4 137.7 61.6z"/><path fill="#157695" d="m55 197 2.9-22 67.3-2.9z"/><path fill="#002339" d="m98.9 202.9 35.1-20.5-26.3-5.9z"/><path fill="#033351" d="M321.5 186.8 282 147.2 169.2 156z"/><path fill="#256f99" d="M122.3 41.7 55 78.4l145-30.8z"/><path fill="#192b36" d="M317.1 44.7 185.3-9.5l136.2 5.8z"/><path fill="#4399bf" d="m223.4 128.2 41-14.7-118.6-54.2z"/><path fill="#033953" d="M243.9 216 156 249.9l20.5-67.4z"/><path fill="#0f3237" d="m160.4 320-52.7-55.6 85 30.8z"/><path fill="#004a83" d="M321.5 55v49.7L186.8 49.1z"/><path fill="#9dcedf" d="m134 115 93.8 35.1L194 118z"/><path fill="#103137" d="m47.6 183.8-3 214-67.3-126z"/><path fill="#397dac" d="m85.7 72.5-108.4 90.8L30 63.7z"/><path fill="#0e426e" d="m56.4 56.4 136.2-36.6L55 18.3z"/><path fill="#538fb1" d="m123.8 90 60-35-126 29.2z"/></g></svg>