<svg xmlns="http://www.w3.org/2000/svg" width="300" height="375" viewBox="0 0 300 375"><g stroke-linecap="round"><path fill="rgba(21,45,61,255)" stroke="rgba(21,45,61,255)" d="M0 375V0l4 262-4 113"/><path fill="rgba(13,46,65,255)" stroke="rgba(13,46,65,255)" d="M300 0v375L235 73l65-73"/><path fill="rgba(20,48,60,255)" stroke="rgba(20,48,60,255)" d="m235 73 65 302-107-196 42-106"/><path fill="rgba(6,60,58,255)" stroke="rgba(6,60,58,255)" d="M300 375H0l161-45 139 45"/><path fill="rgba(21,112,93,255)" stroke="rgba(21,112,93,255)" d="m193 179 107 196-139-45 32-151"/><path fill="rgba(19,61,71,255)" stroke="rgba(19,61,71,255)" d="m0 375 4-113 157 68L0 375"/><path fill="rgba(6,119,99,255)" stroke="rgba(6,119,99,255)" d="m4 262 189-83-32 151L4 262"/><path fill="rgba(14,64,105,255)" stroke="rgba(14,64,105,255)" d="M0 0h300L199 86 0 0"/><path fill="rgba(10,74,123,255)" stroke="rgba(10,74,123,255)" d="m300 0-65 73-36 13L300 0"/><path fill="rgba(103,176,208,255)" stroke="rgba(103,176,208,255)" d="m235 73-42 106 6-93 36-13"/><path fill="rgba(101,164,199,255)" stroke="rgba(101,164,199,255)" d="M4 262 0 0l143 134L4 262"/><path fill="rgba(9,53,80,255)" stroke="rgba(9,53,80,255)" d="M193 179 4 262l139-128 50 45"/><path fill="rgba(62,135,176,255)" stroke="rgba(62,135,176,255)" d="m0 0 199 86-56 48L0 0"/><path fill="rgba(161,207,219,255)" stroke="rgba(161,207,219,255)" d="m199 86-6 93-50-45 56-48"/></g></svg>