<svg xmlns="http://www.w3.org/2000/svg" width="298" height="375"><g filter="blur(12px)"><rect width="200%" height="200%" x="-50%" y="-50%" fill="#536984"/><rect width="100%" height="100%" fill="#536984"/><g fill-opacity=".5" transform="translate(.7 .7)scale(1.46)"><circle r="1" fill="#001a11" transform="rotate(1 -8716.8 5566.3)scale(203 88.88)"/><path fill="#63d3f9" d="m178 51.1 1 49-161 2.8-1-49z"/><circle r="1" fill="#002656" transform="rotate(187 71 6.9)scale(203 34.98)"/><circle r="1" fill="#00547d" transform="matrix(55.45 -.83 .55 36.56 99 127.7)"/><circle r="1" fill="#0a87c2" transform="rotate(200 101 20.5)scale(130.87 20.76)"/><circle r="1" fill="#003e3f" transform="rotate(243 118.6 73.7)scale(83.94 198.43)"/><circle r="1" fill="#a4d3e2" transform="matrix(7.13 12.3 -39.05 22.64 74.2 79)"/><ellipse cx="116" fill="#002941" rx="203" ry="30"/></g></g></svg>