<svg xmlns="http://www.w3.org/2000/svg" width="298" height="375"><g filter="blur(10px)"><rect width="200%" height="200%" x="-50%" y="-50%" fill="#536984"/><rect width="100%" height="100%" fill="#536984"/><g fill-opacity=".5" transform="translate(.7 .7)scale(1.46)"><circle cx="102" cy="255" r="160" fill="#001b10"/><circle cx="97" cy="31" r="117" fill="#096b9a"/><circle cx="62" cy="73" r="30" fill="#a8e3f7"/><circle cx="130" cy="73" r="28" fill="#8fe4ff"/><circle cx="157" r="60" fill="#001f47"/><circle cx="47" r="53" fill="#001d3f"/><circle cx="181" cy="137" r="39" fill="#001b30"/><circle cx="12" cy="138" r="37" fill="#001d2d"/><circle cx="97" cy="65" r="20" fill="#91d0e8"/><circle cx="153" cy="75" r="28" fill="#4bb0dd"/><circle cx="99" cy="228" r="106" fill="#00403e"/><circle cx="36" cy="74" r="30" fill="#6aa5cd"/><circle cx="135" cy="48" r="25" fill="#157bb0"/><circle cx="128" cy="82" r="17" fill="#abd4e1"/><circle cx="98" cy="119" r="32" fill="#025579"/><circle cx="195" cy="69" r="29" fill="#0066ab"/><circle cx="203" cy="3" r="49" fill="#09273d"/><circle cx="73" cy="45" r="20" fill="#2b80b4"/><circle cx="115" cy="189" r="50" fill="#015550"/><circle cx="30" cy="53" r="23" fill="#266899"/><circle cx="68" cy="81" r="17" fill="#a0d3e0"/><circle cx="103" cy="119" r="15" fill="#2987ab"/><circle cx="195" cy="124" r="28" fill="#04293a"/><circle cx="13" r="37" fill="#13293e"/><circle cx="149" cy="92" r="12" fill="#96c9df"/><circle cx="43" cy="86" r="18" fill="#85bbd3"/><circle cx="164" cy="45" r="24" fill="#005890"/><circle cx="146" cy="124" r="14" fill="#006b96"/><circle cx="6" cy="255" r="56" fill="#0c2530"/><circle cx="13" cy="88" r="14" fill="#5898cd"/></g></g></svg>