<svg xmlns="http://www.w3.org/2000/svg" width="300" height="375" viewBox="0 0 300 375"><g filter="blur(20px)"><rect width="200%" height="200%" x="-50%" y="-50%" fill="#536984"/><g stroke-linecap="round"><path fill="rgba(5,59,59,255)" stroke="rgba(5,59,59,255)" d="M300 375H0l96-62 204 62"/><path fill="rgba(19,72,68,255)" stroke="rgba(19,72,68,255)" d="m188 287 112 88-204-62 92-26"/><path fill="rgba(18,55,85,255)" stroke="rgba(18,55,85,255)" d="M0 0h300L174 37 0 0"/><path fill="rgba(22,63,99,255)" stroke="rgba(22,63,99,255)" d="m0 0 174 37-98-2L0 0"/><path fill="rgba(16,50,65,255)" stroke="rgba(16,50,65,255)" d="M0 375V0l41 150L0 375"/><path fill="rgba(13,89,77,255)" stroke="rgba(13,89,77,255)" d="M96 313 0 375l41-225 55 163"/><path fill="rgba(12,52,66,255)" stroke="rgba(12,52,66,255)" d="m188 287-92 26-55-163 147 137"/><path fill="rgba(18,95,127,255)" stroke="rgba(18,95,127,255)" d="m174 37 14 250L41 150 174 37"/><path fill="rgba(64,133,174,255)" stroke="rgba(64,133,174,255)" d="m76 35 98 2L41 150 76 35"/><path fill="rgba(29,85,132,255)" stroke="rgba(29,85,132,255)" d="m0 0 76 35-35 115L0 0"/><path fill="rgba(20,46,59,255)" stroke="rgba(20,46,59,255)" d="M300 0v375l-48-91L300 0"/><path fill="rgba(0,62,64,255)" stroke="rgba(0,62,64,255)" d="m300 375-112-88 64-3 48 91"/><path fill="rgba(8,58,81,255)" stroke="rgba(8,58,81,255)" d="M188 287 174 37l78 247-64 3"/><path fill="rgba(58,143,189,255)" stroke="rgba(58,143,189,255)" d="M174 37 300 0l-48 284-78-247"/></g></g></svg>