<svg xmlns="http://www.w3.org/2000/svg" width="298" height="375"><g filter="blur(10px)"><rect width="200%" height="200%" x="-50%" y="-50%" fill="#536984"/><rect width="100%" height="100%" fill="#536984"/><g fill-opacity=".5" transform="translate(.7 .7)scale(1.46)"><circle cx="101" cy="255" r="160" fill="#001b10"/><circle cx="99" cy="28" r="120" fill="#096b99"/><circle cx="62" cy="74" r="29" fill="#ade7fa"/><circle cx="131" cy="74" r="27" fill="#94e8ff"/><circle cx="157" r="61" fill="#002149"/><circle cx="47" r="52" fill="#001c3e"/><circle cx="186" cy="136" r="39" fill="#00182c"/><circle cx="98" cy="65" r="20" fill="#95d5ec"/><circle cx="16" cy="143" r="42" fill="#002331"/><circle cx="33" cy="74" r="30" fill="#66a2cb"/><circle cx="98" cy="255" r="130" fill="#00403e"/><circle cx="153" cy="73" r="30" fill="#45abdb"/><circle cx="124" cy="48" r="22" fill="#2788ba"/><circle cx="71" cy="46" r="21" fill="#2e81b4"/><circle cx="186" r="34" fill="#0f212e"/><circle cx="130" cy="86" r="14" fill="#bddde5"/><circle cx="174" cy="49" r="30" fill="#00528c"/><circle cx="114" cy="190" r="50" fill="#005551"/><circle cx="99" cy="118" r="31" fill="#03567a"/><circle cx="153" cy="83" r="20" fill="#6bb2d3"/><circle cx="28" cy="53" r="24" fill="#266697"/><circle cx="43" cy="85" r="19" fill="#88bed5"/><circle cx="189" cy="80" r="19" fill="#0580c5"/><circle cx="14" r="37" fill="#13293f"/><circle cx="97" cy="114" r="9" fill="#49a7c7"/><circle cx="68" cy="80" r="18" fill="#98cddc"/><circle cx="2" cy="255" r="59" fill="#0c2530"/><circle cx="200" cy="122" r="26" fill="#022a3c"/><circle cx="60" cy="184" r="13" fill="#008366"/><circle cx="43" cy="127" r="10" fill="#127898"/></g></g></svg>