<svg xmlns="http://www.w3.org/2000/svg" width="300" height="375" viewBox="0 0 300 375"><g stroke-linecap="round"><path fill="rgba(2,54,81,255)" stroke="rgba(2,54,81,255)" d="M300 0v375l-13-264L300 0"/><path fill="rgba(28,126,175,255)" stroke="rgba(28,126,175,255)" d="m300 0-13 111-187 36L300 0"/><path fill="rgba(12,114,101,255)" stroke="rgba(12,114,101,255)" d="m0 375 100-228 123 114L0 375"/><path fill="rgba(3,100,141,255)" stroke="rgba(3,100,141,255)" d="m100 147 187-36-64 150-123-114"/><path fill="rgba(8,64,65,255)" stroke="rgba(8,64,65,255)" d="m287 111 13 264-46-54 33-210"/><path fill="rgba(20,44,60,255)" stroke="rgba(20,44,60,255)" d="m223 261 64-150-33 210-31-60"/><path fill="rgba(25,50,58,255)" stroke="rgba(25,50,58,255)" d="M300 375H0l226-57 74 57"/><path fill="rgba(7,65,65,255)" stroke="rgba(7,65,65,255)" d="m254 321 46 54-74-57 28 3"/><path fill="rgba(15,73,72,255)" stroke="rgba(15,73,72,255)" d="m0 375 223-114 3 57L0 375"/><path fill="rgba(0,85,71,255)" stroke="rgba(0,85,71,255)" d="m223 261 31 60-28-3-3-57"/><path fill="rgba(17,64,106,255)" stroke="rgba(17,64,106,255)" d="M0 0h300L27 91 0 0"/><path fill="rgba(91,157,191,255)" stroke="rgba(91,157,191,255)" d="M300 0 100 147 27 91 300 0"/><path fill="rgba(12,56,71,255)" stroke="rgba(12,56,71,255)" d="M0 375V0l27 91L0 375"/><path fill="rgba(16,46,58,255)" stroke="rgba(16,46,58,255)" d="M100 147 0 375 27 91l73 56"/></g></svg>