<svg xmlns="http://www.w3.org/2000/svg" width="298" height="375"><rect width="100%" height="100%" fill="#536984"/><g fill-opacity=".5"><path fill="#001d0e" d="m-22.7 358.2 319.3 39.5 16.1-313.5z"/><path fill="#002d37" d="m8 397.7 313.5-250.5-344.2 4.4z"/><path fill="#68d7ff" d="m-22.7 147.2 344.2-4.4L137 49.1z"/><path fill="#002c5f" d="M295.2-22.7 321.5 134-22.7 8z"/><path fill="#004b4c" d="m150.1 112 171.4 278.4-344.2-99.6z"/><path fill="#002846" d="M-22.7 78.4 321.5 5 6.5-22.7z"/><path fill="#0c85c1" d="m44.7 33 232.9 26.3 44 95.2z"/><path fill="#005e8f" d="m44.7 186.8 101-66 115.8 73.3z"/><path fill="#023634" d="M-22.7 125.2v253.5l335.4-3z"/><path fill="#aadcea" d="m69.6 97.4 133.3 7.3 33.7 49.8z"/><path fill="#057961" d="M205.8 246.8-.7 263l269.5 51.3z"/><path fill="#1c77b1" d="m-12.5 53.5 1.5 98.1 148-98.1z"/><path fill="#002a38" d="m211.7 205.8 86.4 192 23.4-281.3z"/><path fill="#a7d4e2" d="M98.9 150.1H31.5l145-82z"/><path fill="#002e52" d="M321.5 97.4 295.2-22.7 194 52z"/><path fill="#54abcd" d="m120.8 159 11.8 22 48.3-23.5z"/><path fill="#00334b" d="M173.6 153 60.8 166.4l89.3-45.5z"/><path fill="#579fc1" d="m276.1 112-263.6-8.7 152.3-48.4z"/><path fill="#151f34" d="M239.5 243.9-5.1 188.2l-1.5 66z"/><path fill="#03557d" d="m93 205.8 130.4 17.6 29.3-83.5z"/><path fill="#a2d4e5" d="m261.5 147.2-77.7-3-57-39.5z"/><path fill="#0e4c7d" d="m56.4 18.3-79.1 66 272.5-49.9z"/><path fill="#0268a5" d="m151.6 34.4 152.4 44-4.4 64.4z"/><path fill="#122f46" d="M2.2-22.7 274.7 3.7l-293 49.8z"/><path fill="#085247" d="M321.5 299.6 90.1 352.3l-71.8-90.8z"/><path fill="#0d2d34" d="m-22.7 308.3 339.8 63-332.5 26.4z"/><path fill="#91c7d8" d="m66.7 104.7 121.5-7.3L99 145.8z"/><path fill="#55a9d5" d="m285 139.9-67.5 11.7-51.2-68.8z"/><path fill="#01324c" d="M-22.7 201.4 11 148.7l112.8 8.8z"/><path fill="#0b7363" d="m132.6 243.9-99.6 38 219.7-11.6z"/><path fill="#00233a" d="m200 145.8 39.5 16-68.8 1.5z"/><path fill="#192a32" d="m207.3-3.7 92.3-19 13.1 79.1z"/><path fill="#09769f" d="m211.7 194-76.2-30.7 104 8.8z"/><path fill="#01534a" d="m321.5 273.2-128.9-27.8 63 96.6z"/><path fill="#073354" d="m198.5 154.5 115.7 27.9 7.3-45.4z"/><path fill="#83b5d1" d="m14 147.2 57 4.4 85-76.2z"/><path fill="#0a6686" d="m37.4 176.5 29.3 25 79-39.6z"/><path fill="#044e82" d="m321.5 107.7-57.1-66L137 34.4z"/><path fill="#034663" d="m82.8 157.5 67.3-35.2 44 32.2z"/><path fill="#2f76a0" d="m208.7 37.4-183 35.1 96.6 7.3z"/><path fill="#122839" d="m321.5 261.5-131.8-11.7 66-93.8z"/><path fill="#112e36" d="m38.8 397.7-61.5-146.5 76.2-79z"/><path fill="#093a54" d="m249.8 217.5-148 36.7 76.2-70.4z"/><path fill="#1e84bb" d="m173.6 53.5 148 82-55.7 8.8z"/><path fill="#548fb6" d="M132.6 74 49 76.9l-71.8 77.6z"/><path fill="#102f35" d="m185.3 293.7-73.2-27.8 45.4 55.6z"/><path fill="#03344b" d="m112 223.4-63-22 82.1-23.4z"/><path fill="#acd7e3" d="m103.3 144.3 41-23.5L71 134z"/><path fill="#10436f" d="m-22.7 66.7 244.6-41L71 11z"/><path fill="#9cccdc" d="M198.5 110.6 169.2 134l55.7 17.6z"/></g></svg>