<svg xmlns="http://www.w3.org/2000/svg" width="298" height="375"><rect width="100%" height="100%" fill="#536984"/><g fill-opacity=".5"><path fill="#002e2d" d="M-22.7 362.5 298-22.7l1.5 420.4z"/><path fill="#6ddbff" d="M321.5 142.8 156 46.1-22.7 148.7z"/><path fill="#002c23" d="M-18.3 397.7 321.5 367 3.7 123.8z"/><path fill="#00153e" d="M8-22.7 321.6 8-22.7 82.8z"/><path fill="#004553" d="m-22.7 201.4 177.2-80.6 167 233z"/><path fill="#0062a7" d="M321.5 128.2 6.5 47.6l255-23.4z"/><path fill="#00222d" d="m200 210.2 121.5-99.6v284.2z"/><path fill="#aadef4" d="M227.8 153 81.3 99 238 112z"/><path fill="#005c88" d="m44.7 189.7 101-70.3 107 76.2z"/><path fill="#002c4a" d="m292.2-22.7 27.9 98.1L-22.7 5.1z"/><path fill="#002734" d="m-22.7 153 35.2 244.7 82-246z"/><path fill="#2c86c0" d="m9.5 154.5 96.7-85-129-21.9z"/><path fill="#a2cee2" d="m191.2 93-214 54.2 117.3 3z"/><path fill="#017058" d="m283.4 328.9-290-66 238.8-17.5z"/><path fill="#198bcc" d="M236.6 148.7 202.9 52l118.6 80.6z"/><path fill="#5db4d4" d="m176.5 157.5-44 1.4 1.5 23.5z"/><path fill="#68aac7" d="m16.8 112 110-51.2L255.5 112z"/><path fill="#00344f" d="M195.6 153 71 159l79.1-33.8z"/><path fill="#142332" d="m-2.2 254.2 244.6-10.3-265.1-60z"/><path fill="#c5e4ec" d="m188.2 147.2 32.3-8.8-74.7-22z"/><path fill="#055287" d="m52 28.6 164-5.9 105.5 77.6z"/><path fill="#044c6a" d="M-8 139.9 229.1 213H75.4z"/><path fill="#024b44" d="m321.5 321.5-213.8 36.7-130.4-105.5z"/><path fill="#003052" d="m245.4 200-47-49.9h123.1z"/><path fill="#0074a0" d="m242.4 170.7-104-6 79.1 32.3z"/><path fill="#0c3b5e" d="M78.4 16.8-22.7 129.6V12.5z"/><path fill="#64afd6" d="m224.9 151.6-41-61.5 79 49.8z"/><path fill="#0b7262" d="M263 270.3 40.2 282l102.5-42.5z"/><path fill="#127898" d="M134 169.2 58 200l-1.5-25z"/><path fill="#036ead" d="m222 60.8 99.5 49.8-33.7 33.7z"/><path fill="#0a2f35" d="m290.8 397.7-313.5-26.4 344.2-63z"/><path fill="#0d2b3f" d="m293.7 257-191.9-13 209.5-88z"/><path fill="#508cbb" d="M-22.7 141.4 81.3 74l-41 76.1z"/><path fill="#8fc7d7" d="m50.5 148.7 76.2-61.5 55.7 23.4z"/><path fill="#27709c" d="M3.7 68.1 112 81.3l93.7-42.5z"/><path fill="#162e3b" d="m.7-22.7 189 14.6L-9.5 36z"/><path fill="#055148" d="M321.5 268.8 241 359.6l-51.3-111.3z"/><path fill="#0d323b" d="M135.5 181 27.1 198.4l-45.4 139.1z"/><path fill="#034460" d="m216 236.6 22-58.6-131.8 45.4z"/><path fill="#063347" d="m112 169.2-90.8-8.8 95.3-16.1z"/><path fill="#172d3d" d="m321.5 50.5-13.2-73.2-194.8 5.9z"/><path fill="#103137" d="m160.4 317.1-54.2-52.7 85 29.3z"/><path fill="#004882" d="m182.4 50.5 114.2 3 23.5 41z"/><path fill="#00314d" d="m185.3 157.5 63 17.5 32.2-32.2z"/><path fill="#b2d8e6" d="m69.6 137 51.2-1.5-35.1 14.6z"/><path fill="#122737" d="m47.6 161.9-61.5-22-8.8 44z"/><path fill="#81bedb" d="m167.7 104.7 46.9 47 38-7.4z"/><path fill="#276091" d="m59.3 56.4-82 90.8 7.3-98.1z"/><path fill="#449ac1" d="m255.6 145.8-1.4-41-114.3-44z"/><path fill="#0e4068" d="m53.5 12.5 156.7 7.3-161.1 38z"/></g></svg>