<svg xmlns="http://www.w3.org/2000/svg" width="300" height="375" viewBox="0 0 300 375"><g filter="blur(20px)"><rect width="200%" height="200%" x="-50%" y="-50%" fill="#536984"/><g stroke-linecap="round"><path fill="rgba(12,51,54,255)" stroke="rgba(12,51,54,255)" d="M300 375H0l180-27 120 27"/><path fill="rgba(46,121,166,255)" stroke="rgba(46,121,166,255)" d="M0 0h300l-90 177L0 0"/><path fill="rgba(18,45,63,255)" stroke="rgba(18,45,63,255)" d="M300 0v375l-90-198L300 0"/><path fill="rgba(11,81,77,255)" stroke="rgba(11,81,77,255)" d="m300 375-120-27 9-129 111 156"/><path fill="rgba(4,81,79,255)" stroke="rgba(4,81,79,255)" d="m210 177 90 198-111-156 21-42"/><path fill="rgba(17,49,58,255)" stroke="rgba(17,49,58,255)" d="M180 348 0 375l56-18 124-9"/><path fill="rgba(19,45,58,255)" stroke="rgba(19,45,58,255)" d="M0 375V0l111 230L0 375"/><path fill="rgba(12,54,64,255)" stroke="rgba(12,54,64,255)" d="M56 357 0 375l111-145-55 127"/><path fill="rgba(8,73,67,255)" stroke="rgba(8,73,67,255)" d="m180 348-124 9 55-127 69 118"/><path fill="rgba(162,210,222,255)" stroke="rgba(162,210,222,255)" d="m0 0 210 177-67 38L0 0"/><path fill="rgba(147,205,229,255)" stroke="rgba(147,205,229,255)" d="M111 230 0 0l143 215-32 15"/><path fill="rgba(6,54,80,255)" stroke="rgba(6,54,80,255)" d="m210 177-21 42-46-4 67-38"/><path fill="rgba(17,126,107,255)" stroke="rgba(17,126,107,255)" d="m189 219-9 129-37-133 46 4"/><path fill="rgba(0,58,58,255)" stroke="rgba(0,58,58,255)" d="m180 348-69-118 32-15 37 133"/></g></g></svg>