<svg xmlns="http://www.w3.org/2000/svg" width="298" height="375"><rect width="100%" height="100%" fill="#536984"/><g fill-opacity=".5" transform="translate(.7 .7)scale(1.46)"><circle cx="101" cy="254" r="159" fill="#001b10"/><circle cx="102" cy="29" r="119" fill="#096b99"/><circle cx="62" cy="74" r="29" fill="#ade7fa"/><circle cx="130" cy="73" r="28" fill="#8fe4ff"/><circle cx="157" r="60" fill="#001f47"/><circle cx="47" r="52" fill="#001c3e"/><circle cx="188" cy="136" r="39" fill="#001629"/><circle cx="95" cy="65" r="20" fill="#93d2e9"/><circle cx="27" cy="140" r="39" fill="#002535"/><circle cx="36" cy="74" r="31" fill="#68a5cc"/><circle cx="97" cy="244" r="120" fill="#00403e"/><circle cx="153" cy="73" r="30" fill="#45abda"/><circle cx="128" cy="47" r="22" fill="#1e81b5"/><circle cx="129" cy="86" r="14" fill="#bedee5"/><circle cx="71" cy="46" r="21" fill="#2c80b3"/><circle cx="196" r="68" fill="#00365c"/><circle cx="99" cy="114" r="28" fill="#02587c"/><circle cx="114" cy="188" r="53" fill="#015350"/><circle cx="177" cy="72" r="27" fill="#1381bf"/><circle cx="152" cy="88" r="16" fill="#87bfd8"/><circle cx="29" cy="54" r="23" fill="#276798"/><circle cx="46" cy="84" r="20" fill="#89bed3"/><circle cx="5" cy="132" r="32" fill="#0d2b3b"/><circle cx="3" r="36" fill="#132536"/><circle cx="186" r="29" fill="#1d262e"/><circle cx="97" cy="114" r="9" fill="#4aa6c6"/><circle cx="47" cy="125" r="14" fill="#0c6a8a"/><circle cx="6" cy="255" r="56" fill="#0c2530"/><circle cx="156" cy="47" r="21" fill="#02639b"/><circle cx="69" cy="84" r="14" fill="#a3d7e3"/></g></svg>