<svg xmlns="http://www.w3.org/2000/svg" width="298" height="375"><rect width="100%" height="100%" fill="#536984"/><g fill-opacity=".5" transform="translate(.7 .7)scale(1.46484)"><circle cx="100" cy="222" r="128" fill="#001b11"/><circle cx="101" r="147" fill="#086997"/><circle cx="63" cy="73" r="30" fill="#a9e4f8"/><circle cx="130" cy="73" r="28" fill="#90e5ff"/><circle cx="157" r="61" fill="#002149"/><circle cx="47" r="52" fill="#001c3f"/><circle cx="193" cy="137" r="41" fill="#001221"/><circle cx="20" cy="143" r="42" fill="#002230"/><circle cx="96" cy="65" r="20" fill="#90cfe7"/><circle cx="35" cy="74" r="31" fill="#69a4cd"/><circle cx="154" cy="74" r="29" fill="#47aedc"/><circle cx="102" cy="246" r="121" fill="#00403e"/><circle cx="127" cy="48" r="22" fill="#2185b9"/><circle cx="128" cy="84" r="15" fill="#b4dae3"/><circle cx="99" cy="121" r="34" fill="#035477"/><circle cx="70" cy="44" r="20" fill="#257baf"/><circle cx="186" r="34" fill="#0f212f"/><circle cx="174" cy="51" r="30" fill="#005691"/><circle cx="115" cy="194" r="50" fill="#00554e"/><circle cx="150" cy="83" r="20" fill="#72b5d4"/><circle cx="28" cy="53" r="24" fill="#256495"/><circle cx="47" cy="85" r="19" fill="#8ec2d6"/><circle cx="189" cy="81" r="18" fill="#0883c9"/><circle cx="103" cy="118" r="14" fill="#2c8caf"/><circle cx="13" r="37" fill="#132a3e"/><circle cx="71" cy="82" r="15" fill="#a1d5e2"/><circle cx="74" cy="255" r="66" fill="#083636"/><circle cx="67" cy="200" r="31" fill="#066354"/><circle cx="179" cy="128" r="30" fill="#063045"/><circle cx="46" cy="125" r="12" fill="#0e7292"/></g></svg>