<svg xmlns="http://www.w3.org/2000/svg" width="298" height="375"><rect width="100%" height="100%" fill="#536984"/><g fill-opacity=".5"><path fill="#001d0e" d="m321.5 76.9-24.9 320.8-319.3-39.5z"/><path fill="#002d37" d="m-21.2 151.6 342.7-3L8.1 397.8z"/><path fill="#65d5fe" d="m-22.7 147.2 168.5-101 175.7 96.6z"/><path fill="#00295b" d="M295.2-22.7-22.8 8l344.3 123z"/><path fill="#004b4c" d="m321.5 390.4-344.2-99.6L150 112z"/><path fill="#002948" d="M8-22.7-22.6 79.8 321.5 5.1z"/><path fill="#0883bf" d="M282 59.3 56.4 34.4l265.1 120.1z"/><path fill="#023634" d="m314.2 380.1-334-7.3V125.2z"/><path fill="#005f8f" d="m271.7 194-130.3-71.7-93.8 67.4z"/><path fill="#a8dbe9" d="M66.7 98.9h131.8l33.7 54.2z"/><path fill="#1c77b1" d="M-22.7 156V55l170-6z"/><path fill="#067d63" d="M173.6 245.4 19.8 268.8l265.1 41z"/><path fill="#002a38" d="M211.7 204.3 298 397.7l23.4-284.2z"/><path fill="#afd9e7" d="M9.5 147.2 178 99l-83.5 51z"/><path fill="#002e51" d="m295.2-22.7-99.6 73.2L320 96z"/><path fill="#00324c" d="m154.5 122.3 33.7 32.2H81.3z"/><path fill="#51a8cb" d="m179.4 156-60 4.4 19 22z"/><path fill="#60a2c2" d="M254.2 116.5 18.3 100.3 162 56.4z"/><path fill="#151f33" d="M227.8 245.4-9.5 183.8l-1.5 68.9z"/><path fill="#035279" d="m245.4 145.8-14.7 77.6-143.5-14.7z"/><path fill="#095489" d="m321.5 85.7-112.8-66-190.4 25z"/><path fill="#2c91c7" d="m172.1 49 64.5 99.7 85-14.7z"/><path fill="#01314a" d="M-9.5 145.8 115 158.9.7 200z"/><path fill="#a4d4e3" d="m251.2 147.2-71.8-4.4-60-46.9z"/><path fill="#12324c" d="m-21.2 62.3 27.8-85L305.4 2.2z"/><path fill="#015b4d" d="m175 345 146.5-70.3-128.9-26.4z"/><path fill="#0c2d34" d="m8 397.7-20.5-83.5L311.3 370z"/><path fill="#094f46" d="m101.8 361 219.7-61.4-301.7-29.3z"/><path fill="#91c7d8" d="m69.6 109.1-11.7 44 130.3-48.4z"/><path fill="#124a79" d="M195.6 14 8 34.3-22.7 99z"/><path fill="#08789f" d="m230.7 172.1-10.2 25-83.5-33.8z"/><path fill="#053152" d="m298.1 139.9-118.7 19 131.9 23.5z"/><path fill="#0b7063" d="m123.8 242.4 130.4 25-212.5 17.5z"/><path fill="#71b7d8" d="m135.5 78.4 82 73.2 48.4-10.2z"/><path fill="#192b33" d="m321.5 57.9-29.3-77.7-108.4 7.3z"/><path fill="#3b83ab" d="m43.2 81.3 109.9-35.2 49.8 29.3z"/><path fill="#036ba5" d="m290.8 142.8 30.7-51.2-133.3-35.2z"/><path fill="#132738" d="m321.5 264.4-128.9-17.6 67.4-95.2z"/><path fill="#538dbb" d="m-22.7 141.4 73.2 10.2 20.5-79z"/><path fill="#096e90" d="m60.8 197 79-30.7-86.3 5.8z"/><path fill="#023c54" d="m47.6 200 79.1-22 25 54.2z"/><path fill="#00283b" d="m202.9 144.3-26.4 16.1 45.4 1.5z"/><path fill="#06435e" d="m145.8 120.8 32.2 20.6-127.5 39.5z"/><path fill="#112f37" d="M-22.7 368.4V169.2L109 397.7z"/><path fill="#80bbd2" d="m27.1 138.4 121.6-60 20.5 39.5z"/><path fill="#0a3953" d="m106.2 254.2 71.8-70.4 76.2 33.7z"/><path fill="#152d3d" d="m9.5 46.1 66-46.8-98.2-1.5z"/><path fill="#0d3538" d="m179.4 292.2-70.3-27.8L219 386z"/><path fill="#b2d9e3" d="m183.8 116.5 8.8 32.2-39.5-27.9z"/><path fill="#397aa8" d="M35.9 56.4-14 148.7l95.2-73.3z"/></g></svg>