<svg xmlns="http://www.w3.org/2000/svg" width="298" height="375"><rect width="100%" height="100%" fill="#536984"/><g fill-opacity=".5" transform="translate(.7 .7)scale(1.46)"><circle cx="103" cy="244" r="150" fill="#001b11"/><circle cx="100" cy="26" r="122" fill="#096b99"/><circle cx="62" cy="74" r="29" fill="#ade7fb"/><circle cx="131" cy="74" r="27" fill="#94e8ff"/><circle cx="157" r="61" fill="#002149"/><circle cx="47" r="52" fill="#001c3e"/><circle cx="193" cy="141" r="45" fill="#001a2b"/><circle cx="97" cy="65" r="20" fill="#95d5ec"/><circle cx="13" cy="138" r="37" fill="#001e2d"/><circle cx="154" cy="74" r="30" fill="#45abda"/><circle cx="98" cy="233" r="110" fill="#00403e"/><circle cx="38" cy="74" r="31" fill="#6aa6cc"/><circle cx="125" cy="48" r="22" fill="#2688bb"/><circle cx="131" cy="85" r="15" fill="#b6d9e3"/><circle cx="71" cy="45" r="21" fill="#2a7eb2"/><circle cx="186" r="34" fill="#0f212e"/><circle cx="174" cy="49" r="30" fill="#00528d"/><circle cx="114" cy="190" r="50" fill="#005551"/><circle cx="100" cy="109" r="24" fill="#076185"/><circle cx="30" cy="53" r="23" fill="#266798"/><circle cx="153" cy="84" r="19" fill="#6db4d5"/><circle cx="14" r="37" fill="#13293f"/><circle cx="187" cy="81" r="18" fill="#0984c8"/><circle cx="49" cy="84" r="20" fill="#8cc0d4"/><circle cx="7" cy="255" r="55" fill="#0c2530"/><circle cx="13" cy="89" r="14" fill="#5c99ce"/><circle cx="45" cy="120" r="18" fill="#054c65"/><circle cx="98" cy="114" r="9" fill="#48a2c1"/><circle cx="81" cy="73" r="17" fill="#8ec7d8"/><circle cx="58" cy="185" r="12" fill="#008968"/></g></svg>