<svg xmlns="http://www.w3.org/2000/svg" width="300" height="375" viewBox="0 0 300 375"><g filter="blur(12px)"><rect width="200%" height="200%" x="-50%" y="-50%" fill="#536984"/><g stroke-linecap="round"><path fill="rgba(18,55,87,255)" stroke="rgba(18,55,87,255)" d="M0 0h300L153 44 0 0"/><path fill="rgba(22,44,56,255)" stroke="rgba(22,44,56,255)" d="M0 375V0l51 255L0 375"/><path fill="rgba(3,66,61,255)" stroke="rgba(3,66,61,255)" d="M300 375H0l104-72 196 72"/><path fill="rgba(8,50,60,255)" stroke="rgba(8,50,60,255)" d="m0 375 51-120 53 48L0 375"/><path fill="rgba(14,71,115,255)" stroke="rgba(14,71,115,255)" d="m0 0 153 44-71 33L0 0"/><path fill="rgba(74,143,184,255)" stroke="rgba(74,143,184,255)" d="M51 255 0 0l82 77-31 178"/><path fill="rgba(16,58,98,255)" stroke="rgba(16,58,98,255)" d="M153 44 300 0l-40 45-107-1"/><path fill="rgba(106,173,204,255)" stroke="rgba(106,173,204,255)" d="m82 77 71-33 76 111L82 77"/><path fill="rgba(14,61,79,255)" stroke="rgba(14,61,79,255)" d="m104 303-53-48 178-100-125 148"/><path fill="rgba(48,126,156,255)" stroke="rgba(48,126,156,255)" d="M51 255 82 77l147 78L51 255"/><path fill="rgba(15,50,70,255)" stroke="rgba(15,50,70,255)" d="M300 0v375l-71-220L300 0"/><path fill="rgba(4,76,125,255)" stroke="rgba(4,76,125,255)" d="m260 45 40-45-71 155 31-110"/><path fill="rgba(11,112,92,255)" stroke="rgba(11,112,92,255)" d="m300 375-196-72 125-148 71 220"/><path fill="rgba(23,125,173,255)" stroke="rgba(23,125,173,255)" d="m153 44 107 1-31 110-76-111"/></g></g></svg>