<svg xmlns="http://www.w3.org/2000/svg" width="298" height="375"><rect width="100%" height="100%" fill="#536984"/><g fill-opacity=".5"><path fill="#002e2d" d="m301 397.7-323.7-35.2L298-22.7z"/><path fill="#6ddaff" d="m-22.7 148.7 174.3-104 170 98.1z"/><path fill="#002d23" d="m.7 397.7-13.2-284.2 334 250.5z"/><path fill="#001a45" d="M8-22.7-22.6 90 321.5 9.5z"/><path fill="#004452" d="m150.1 119.4 171.4 227-344.2-131.8z"/><path fill="#0068ab" d="M264.4 28.6-21.2 49l342.7 77.6z"/><path fill="#a9ddf2" d="m72.5 97.4 155.3 11.7 4.4 45.4z"/><path fill="#00202d" d="m217.5 153 76.2 244.7L321.5 137z"/><path fill="#00557f" d="m156 126.7 102.5 68.9-279.7-7.4z"/><path fill="#002b4a" d="M295.2-22.7-22.8 5l340 71.8z"/><path fill="#022633" d="m11 397.7-33.7-247.6 120.1 3z"/><path fill="#3088c1" d="m101.8 65.2-124.5-3L11 156z"/><path fill="#02785c" d="m188.2 245.4-200.7 20.5L282 314.2z"/><path fill="#a0cddf" d="M188.2 75.4 99 150.1l-91-2.9z"/><path fill="#1781a7" d="m233.6 182.4-190.4 4.4 107-33.7z"/><path fill="#1d8dcd" d="m233.6 150.1 88-22-117.3-71.7z"/><path fill="#70afcb" d="m-22.7 148.7 168.5-82 92.2 38z"/><path fill="#003450" d="M179.4 153 74 159l79-36.7z"/><path fill="#132434" d="m-22.7 254.2 279.8-8.8-279.8-66z"/><path fill="#034c45" d="m-22.7 309.8 344.2-57.1-60 105.5z"/><path fill="#065489" d="M43.2 31.5 219 24.2l102.5 74.7z"/><path fill="#badee9" d="M192.6 147.2 134 112.1l82 19z"/><path fill="#054864" d="M210.2 241-8 183.8 103.3 156z"/><path fill="#0c2736" d="m178 246.8 143.5 20.5-60-111.3z"/><path fill="#10334c" d="M-22.7 62.3 295.2.7l-318-23.4z"/><path fill="#5ca2c0" d="m135.5 160.4 46.9-4.4-42.5 23.4z"/><path fill="#005c88" d="m223.4 204.3 23.4-48.3-89.3 11.7z"/><path fill="#66b0d6" d="M271.7 139.9 185.3 93l33.7 58.6z"/><path fill="#0069a8" d="m214.6 56.4 107 51.3-30.8 36.6z"/><path fill="#0b2d35" d="m293.7 397.7 14.6-80.6L2.2 370z"/><path fill="#a7d6e2" d="m59.3 132.6 41 13.2L162 109z"/><path fill="#097060" d="m264.4 267.3-243.2 19 120.2-43.9z"/><path fill="#1b517f" d="M-6.6 55 96 19.7-19.8 134z"/><path fill="#5490bb" d="m-22.7 138.4 133.3-77.6L35.9 150z"/><path fill="#0b3439" d="M-9.5 397.7 122.3 175l-145 98.2z"/><path fill="#137797" d="m57.9 197-1.5-24.9h73.2z"/><path fill="#002c4a" d="m198.5 147.2-30.8 19 90.8-5.8z"/><path fill="#337ba3" d="M185.3 91.6 106.2 49l86.4-8.8z"/><path fill="#0b3045" d="M106.2 161.9.7 145.8l-23.4 30.7z"/><path fill="#013751" d="m175 185.3-13 67.4 90.8-42.5z"/><path fill="#10436f" d="m137 9.5 139 27.9L8.1 54.9z"/><path fill="#509cc1" d="m264.4 125.2-98.1-61.5L90 77z"/><path fill="#0f3036" d="M186.8 298.1 109 262.9l49.8 57.2z"/><path fill="#004881" d="M321.5 52 304 88.6 186.8 53.5z"/><path fill="#192a35" d="M321.5 46.1 159-22.7 321.5-9.5z"/><path fill="#033554" d="M321.5 138.4 197 154.5 321.5 175z"/><path fill="#024866" d="m90 150.1 111.4 7.4-48.3-32.3z"/><path fill="#054f47" d="M167.7 321.5 11 251.2l83.5 101z"/><path fill="#8bbcd4" d="m151.6 79.8-68.8 68.9-54.2 1.4z"/><path fill="#025676" d="M183.8 216 159 169.3l-58.6 35.1z"/></g></svg>