<svg xmlns="http://www.w3.org/2000/svg" width="298" height="375"><rect width="100%" height="100%" fill="#536984"/><g fill-opacity=".5"><path fill="#001c0d" d="m296.6 397.7-319.3-41 331-265.1z"/><path fill="#002e37" d="M321.5 150.1 5.1 397.7l-27.8-249z"/><path fill="#68d6ff" d="M321.5 142.8 134 49.1l-156.7 98.1z"/><path fill="#002c5f" d="M296.6-22.7-22.7 8l344.2 126z"/><path fill="#004b4d" d="M321.5 326 141.4 110.5-22.7 397.7z"/><path fill="#002846" d="M321.5 5.1-22.7 78.4 6.6-22.7z"/><path fill="#0c86c2" d="m274.7 57.9 46.8 98.1-268-120z"/><path fill="#002326" d="M98.9 217.5 3.7 397.7l-26.4-274z"/><path fill="#005986" d="m-8 189.7 158-64.5 121.6 70.4z"/><path fill="#aad8e4" d="m55 156 136.2-49.8L79.8 93z"/><path fill="#1971aa" d="m-19.8 151.6-1.4-89.3 202.1-30.8z"/><path fill="#b1e1ed" d="M211.7 110.6 131 115l96.7 39.5z"/><path fill="#002a2c" d="m321.5 299.6-32.2 98.1-312-29.3z"/><path fill="#03775d" d="M282 308.3 179.4 244l-189 24.9z"/><path fill="#002e50" d="m195.6 52 98.1-74.7 27.8 118.6z"/><path fill="#022339" d="M317.1 116.5 189.7 230.7l111.3 60z"/><path fill="#248cb6" d="m98.9 175 46.9-23.4 86.4 35.2z"/><path fill="#00324a" d="m142.8 122.3 41 23.5L59.3 172z"/><path fill="#5ba1c2" d="m14 98.9 257.7 14.6-107-58.6z"/><path fill="#9dcbde" d="m172.1 101.8-71.8 48.3H12.5z"/><path fill="#014c72" d="m56.4 195.6 155.3 35.1 48.3-87.9z"/><path fill="#112638" d="M-22.7 251.2v-83.5l256.3 80.6z"/><path fill="#075287" d="M226.3 22.7 24.2 37.4l297.3 57z"/><path fill="#042e42" d="m-14 147.2 51.4 38.1 76.1-29.3z"/><path fill="#61b4dc" d="m224.9 150.1 42.4-7.3-93.7-52.7z"/><path fill="#0979b4" d="M164.8 56.4 320 98.9l-25 42.5z"/><path fill="#123148" d="M271.7 3.7-22.7 53.5 8-22.7z"/><path fill="#054c41" d="m115 353.8 206.5-41-344.2-58.6z"/><path fill="#5099b5" d="m144.3 178-27.8-19 57-1.5z"/><path fill="#c7e4e7" d="m200 131.1-8.8 17.6-38.1-26.4z"/><path fill="#0c4371" d="m-22.7 37.4 99.6 29.3 102.5-54.2z"/><path fill="#063250" d="M181 157.5 321.4 137l-27.8 44z"/><path fill="#132f37" d="m123.8 381.6-146.5 16.1 19-162.6z"/><path fill="#097062" d="m40.3 279 105.5-38 127.4 29.3z"/><path fill="#192932" d="m321.5-5.1-23.4 52.7L178-22.7z"/><path fill="#4988b2" d="m-18.3 153 55.7-77.6 152.3-24.9z"/><path fill="#7db7d0" d="m28.6 148.7 60-68.9 117.2 26.4z"/><path fill="#05739b" d="m147.2 164.8 93.8 8.8-26.4 22z"/><path fill="#046885" d="m139.9 163.3-82 8.8L52 203z"/><path fill="#044764" d="m151.6 122.3 45.4 35.2H78.4z"/><path fill="#034054" d="m123.8 175 22 54.2L53.5 200z"/><path fill="#0e3034" d="m109.1 264.4 64.5 68.9 3-39.6z"/><path fill="#015149" d="m320 271.7-123-24.9 57.2 98.2z"/><path fill="#25719c" d="M207.3 57.9 47.6 78.4 118 43.2z"/><path fill="#002739" d="m226.3 153-46.9 11.8 14.7-19z"/><path fill="#112d37" d="m227.8 182.4 87.9-7.4-4.4 197.8z"/><path fill="#1b4e7e" d="m33 59.3-55.7 82V36z"/><path fill="#004f86" d="m301 62.3-109.8-19 130.3 82z"/><path fill="#358ec4" d="m236.6 148.7 45.4-7.3-42.5-57.2z"/><path fill="#0c3850" d="m147.2 251.2 99.6-35.1-70.3-33.7z"/></g></svg>