<svg xmlns="http://www.w3.org/2000/svg" width="300" height="375" viewBox="0 0 300 375"><g stroke-linecap="round"><path fill="rgba(19,45,58,255)" stroke="rgba(19,45,58,255)" d="M300 0v375l-44-116L300 0"/><path fill="rgba(6,43,57,255)" stroke="rgba(6,43,57,255)" d="M233 193 300 0l-44 259-23-66"/><path fill="rgba(15,51,55,255)" stroke="rgba(15,51,55,255)" d="M300 375H0l256-116 44 116"/><path fill="rgba(49,140,187,255)" stroke="rgba(49,140,187,255)" d="m300 0-67 193-6-36L300 0"/><path fill="rgba(0,76,113,255)" stroke="rgba(0,76,113,255)" d="m233 193-21-37 15 1 6 36"/><path fill="rgba(47,135,183,255)" stroke="rgba(47,135,183,255)" d="M212 156 300 0l-73 157-15-1"/><path fill="rgba(15,57,93,255)" stroke="rgba(15,57,93,255)" d="M0 0h300L42 71 0 0"/><path fill="rgba(67,149,189,255)" stroke="rgba(67,149,189,255)" d="m300 0-88 156L42 71 300 0"/><path fill="rgba(108,157,189,255)" stroke="rgba(108,157,189,255)" d="M0 375V0l42 71L0 375"/><path fill="rgba(5,116,144,255)" stroke="rgba(5,116,144,255)" d="m212 156 21 37-104-7 83-30"/><path fill="rgba(3,59,84,255)" stroke="rgba(3,59,84,255)" d="m233 193 23 66-127-73 104 7"/><path fill="rgba(12,58,62,255)" stroke="rgba(12,58,62,255)" d="M256 259 0 375l129-189 127 73"/><path fill="rgba(14,50,62,255)" stroke="rgba(14,50,62,255)" d="M0 375 42 71l87 115L0 375"/><path fill="rgba(8,70,99,255)" stroke="rgba(8,70,99,255)" d="m42 71 170 85-83 30L42 71"/></g><rect width="100%" height="100%" fill="#536984"/></svg>