<svg xmlns="http://www.w3.org/2000/svg" width="298" height="375"><rect width="100%" height="100%" fill="#536984"/><g fill-opacity=".5" transform="translate(.7 .7)scale(1.46)"><circle cx="102" cy="255" r="160" fill="#001b10"/><circle cx="106" cy="80" r="54" fill="#3eb2dd"/><circle cx="149" r="66" fill="#002859"/><circle cx="43" r="51" fill="#001d48"/><circle cx="52" cy="74" r="31" fill="#80cbeb"/><circle cx="95" cy="120" r="34" fill="#004166"/><circle cx="185" cy="131" r="35" fill="#001b33"/><circle cx="179" cy="70" r="30" fill="#0086cc"/><circle cx="130" cy="72" r="27" fill="#83d1eb"/><circle cx="20" cy="149" r="48" fill="#002e3c"/><circle cx="101" cy="209" r="115" fill="#004246"/><circle cx="203" r="66" fill="#002d4f"/><circle cx="12" cy="68" r="33" fill="#2780b9"/><circle cx="85" cy="72" r="19" fill="#9ecedc"/><circle cx="148" cy="47" r="25" fill="#016da6"/><circle cx="102" cy="117" r="15" fill="#298bba"/><circle cx="61" cy="25" r="31" fill="#014974"/><circle cx="152" cy="83" r="20" fill="#72bbdc"/><circle cx="1" r="48" fill="#072e47"/><circle cx="133" cy="127" r="27" fill="#004f7c"/><circle cx="129" cy="88" r="13" fill="#b6dae6"/><circle cx="50" cy="120" r="18" fill="#0a5a83"/><circle cx="63" cy="82" r="20" fill="#99c6d6"/><circle cx="111" cy="231" r="79" fill="#024a42"/><circle cx="28" cy="89" r="15" fill="#79b7d9"/><circle cx="15" cy="243" r="43" fill="#0e232e"/><circle cx="6" cy="135" r="34" fill="#122638"/><circle cx="97" cy="95" r="12" fill="#003152"/><circle cx="108" r="31" fill="#002f4d"/><circle cx="196" cy="126" r="30" fill="#082739"/></g></svg>