<svg xmlns="http://www.w3.org/2000/svg" width="300" height="375" viewBox="0 0 300 375"><g stroke-linecap="round"><path fill="rgba(4,54,53,255)" stroke="rgba(4,54,53,255)" d="M300 375H0l275-48 25 48"/><path fill="rgba(12,78,126,255)" stroke="rgba(12,78,126,255)" d="M0 0h300L166 123 0 0"/><path fill="rgba(8,64,65,255)" stroke="rgba(8,64,65,255)" d="m300 375-25-48-15-67 40 115"/><path fill="rgba(10,52,56,255)" stroke="rgba(10,52,56,255)" d="M275 327 0 375l191-125 84 77"/><path fill="rgba(0,65,61,255)" stroke="rgba(0,65,61,255)" d="m260 260 15 67-84-77 69 10"/><path fill="rgba(24,50,61,255)" stroke="rgba(24,50,61,255)" d="M0 375V0l147 209L0 375"/><path fill="rgba(125,185,209,255)" stroke="rgba(125,185,209,255)" d="m0 0 166 123-19 86L0 0"/><path fill="rgba(11,102,83,255)" stroke="rgba(11,102,83,255)" d="M191 250 0 375l147-166 44 41"/><path fill="rgba(9,52,74,255)" stroke="rgba(9,52,74,255)" d="M300 0v375l-40-227L300 0"/><path fill="rgba(11,49,58,255)" stroke="rgba(11,49,58,255)" d="m300 375-40-115V148l40 227"/><path fill="rgba(25,121,171,255)" stroke="rgba(25,121,171,255)" d="M166 123 300 0l-40 148-94-25"/><path fill="rgba(6,52,76,255)" stroke="rgba(6,52,76,255)" d="m260 260-69-10 69-102v112"/><path fill="rgba(12,53,71,255)" stroke="rgba(12,53,71,255)" d="m191 250-44-41 113-61-69 102"/><path fill="rgba(1,58,93,255)" stroke="rgba(1,58,93,255)" d="m147 209 19-86 94 25-113 61"/></g><rect width="100%" height="100%" fill="#536984"/></svg>