<svg xmlns="http://www.w3.org/2000/svg" width="298" height="375"><rect width="100%" height="100%" fill="#536984"/><g fill-opacity=".5" transform="translate(.7 .7)scale(1.46484)"><circle cx="102" cy="255" r="160" fill="#001b10"/><circle cx="101" cy="36" r="114" fill="#096b99"/><circle cx="63" cy="74" r="29" fill="#ade7fa"/><circle cx="130" cy="73" r="28" fill="#8fe4ff"/><circle cx="157" r="60" fill="#001f47"/><circle cx="47" r="52" fill="#001c3e"/><circle cx="190" cy="134" r="38" fill="#001528"/><circle cx="20" cy="142" r="41" fill="#002332"/><circle cx="98" cy="65" r="20" fill="#91d0e8"/><circle cx="34" cy="75" r="30" fill="#69a5cd"/><circle cx="107" cy="220" r="98" fill="#00423f"/><circle cx="156" cy="75" r="29" fill="#43abda"/><circle cx="129" cy="48" r="23" fill="#1d82b6"/><circle cx="97" cy="114" r="28" fill="#02587d"/><circle cx="132" cy="84" r="16" fill="#afd6e1"/><circle cx="69" cy="46" r="21" fill="#2c80b3"/><circle cx="195" cy="70" r="28" fill="#0064a9"/><circle cx="203" cy="7" r="46" fill="#08273e"/><circle cx="136" cy="197" r="31" fill="#006755"/><circle cy="247" r="58" fill="#062630"/><circle cx="161" cy="46" r="24" fill="#005b94"/><circle cx="66" cy="200" r="32" fill="#006051"/><circle cx="28" cy="56" r="23" fill="#2b6b9b"/><circle cx="47" cy="85" r="19" fill="#8ec2d6"/><circle cx="150" cy="85" r="18" fill="#74b6d5"/><circle cx="3" r="36" fill="#132536"/><circle cx="103" cy="117" r="14" fill="#2d89ad"/><circle cx="75" cy="81" r="14" fill="#a0d6e2"/><circle cx="46" cy="126" r="11" fill="#0e7696"/><circle cx="97" r="31" fill="#0a2e4e"/></g></svg>