<svg xmlns="http://www.w3.org/2000/svg" width="300" height="375" viewBox="0 0 300 375"><g stroke-linecap="round"><path fill="rgba(95,150,193,255)" stroke="rgba(95,150,193,255)" d="M0 375V0l59 54L0 375"/><path fill="rgba(19,43,55,255)" stroke="rgba(19,43,55,255)" d="M300 0v375L171 143 300 0"/><path fill="rgba(6,60,58,255)" stroke="rgba(6,60,58,255)" d="M300 375H0l161-45 139 45"/><path fill="rgba(5,101,79,255)" stroke="rgba(5,101,79,255)" d="m171 143 129 232-139-45 10-187"/><path fill="rgba(18,84,106,255)" stroke="rgba(18,84,106,255)" d="M0 375 59 54l55 108L0 375"/><path fill="rgba(4,62,88,255)" stroke="rgba(4,62,88,255)" d="m171 143-10 187-47-168 57-19"/><path fill="rgba(17,56,61,255)" stroke="rgba(17,56,61,255)" d="M161 330 0 375l76-44 85-1"/><path fill="rgba(16,62,66,255)" stroke="rgba(16,62,66,255)" d="m0 375 114-213-38 169-76 44"/><path fill="rgba(0,75,63,255)" stroke="rgba(0,75,63,255)" d="m114 162 47 168-85 1 38-169"/><path fill="rgba(19,56,86,255)" stroke="rgba(19,56,86,255)" d="M0 0h300L169 39 0 0"/><path fill="rgba(20,63,103,255)" stroke="rgba(20,63,103,255)" d="M59 54 0 0l169 39L59 54"/><path fill="rgba(4,89,142,255)" stroke="rgba(4,89,142,255)" d="M300 0 171 143l-2-104L300 0"/><path fill="rgba(134,194,218,255)" stroke="rgba(134,194,218,255)" d="m171 143-57 19 55-123 2 104"/><path fill="rgba(88,156,193,255)" stroke="rgba(88,156,193,255)" d="M114 162 59 54l110-15-55 123"/></g></svg>