<svg xmlns="http://www.w3.org/2000/svg" width="300" height="375" viewBox="0 0 300 375"><g stroke-linecap="round"><path fill="rgba(8,62,60,255)" stroke="rgba(8,62,60,255)" d="M300 375H0l187-106 113 106"/><path fill="rgba(14,56,84,255)" stroke="rgba(14,56,84,255)" d="M0 375V0l130 137L0 375"/><path fill="rgba(104,157,191,255)" stroke="rgba(104,157,191,255)" d="m0 0 137 125-7 12L0 0"/><path fill="rgba(0,74,104,255)" stroke="rgba(0,74,104,255)" d="m137 125 47 77-54-65 7-12"/><path fill="rgba(11,113,100,255)" stroke="rgba(11,113,100,255)" d="M187 269 0 375l130-238 57 132"/><path fill="rgba(4,74,100,255)" stroke="rgba(4,74,100,255)" d="m184 202 3 67-57-132 54 65"/><path fill="rgba(21,56,86,255)" stroke="rgba(21,56,86,255)" d="M0 0h300l-40 46L0 0"/><path fill="rgba(45,117,163,255)" stroke="rgba(45,117,163,255)" d="M137 125 0 0l260 46-123 79"/><path fill="rgba(4,83,75,255)" stroke="rgba(4,83,75,255)" d="M300 375 187 269l50-94 63 200"/><path fill="rgba(8,70,95,255)" stroke="rgba(8,70,95,255)" d="m187 269-3-67 53-27-50 94"/><path fill="rgba(16,47,64,255)" stroke="rgba(16,47,64,255)" d="M300 0v375l-63-200L300 0"/><path fill="rgba(9,84,137,255)" stroke="rgba(9,84,137,255)" d="m260 46 40-46-63 175 23-129"/><path fill="rgba(3,83,122,255)" stroke="rgba(3,83,122,255)" d="m184 202-47-77 100 50-53 27"/><path fill="rgba(103,176,208,255)" stroke="rgba(103,176,208,255)" d="m137 125 123-79-23 129-100-50"/></g></svg>