<svg xmlns="http://www.w3.org/2000/svg" width="298" height="375"><rect width="100%" height="100%" fill="#536984"/><g fill-opacity=".5"><path fill="#001c0d" d="m296.6 397.7 19-312-338.3 271z"/><path fill="#002e37" d="m-22.7 151.6 344.2-3L8.1 397.8z"/><path fill="#69d7ff" d="m-22.7 147.2 344.2-4.4L137 50.5z"/><path fill="#002c5f" d="m-22.7 8 344.2 126-26.3-156.7z"/><path fill="#004c4d" d="M150.1 110.6-22.7 290.8l344.2 96.7z"/><path fill="#002846" d="M321.5 5.1-22.7 78.4 6.6-22.7z"/><path fill="#0c88c4" d="m47.6 33 274 121.5L279 63.7z"/><path fill="#013634" d="M-22.7 372.8-5.1 137l326.6 247.5z"/><path fill="#005d8d" d="M141.4 122.3 279 194.1l-231.5-4.4z"/><path fill="#aee0ec" d="m84.2 98.9 123 10.2 25 47z"/><path fill="#1a72ab" d="M5.1 56.4 183.8 33-22.7 153z"/><path fill="#077c63" d="m175 242.4 96.7 63L14 271.7z"/><path fill="#002937" d="M299.6 397.7 216 204.3l90.8-77.6z"/><path fill="#9fcfdf" d="M98.9 150.1h-88l184.7-79z"/><path fill="#002f53" d="m293.7-22.7-98.1 76.2 126 44z"/><path fill="#51abce" d="m178 157.5-42.5 24.9-20.5-20.5z"/><path fill="#00324c" d="M189.7 150.1 52 169.1l96.7-45.3z"/><path fill="#141f34" d="m-22.7 182.4 272.5 63-253.5 8.8z"/><path fill="#5ba1c2" d="m161.9 53.5 108.4 60L11 104.7z"/><path fill="#084372" d="m220.5 27.1-243.2-1.5 87.9 44z"/><path fill="#025279" d="M222 226.3 87.1 208.7l164-67.3z"/><path fill="#0165a0" d="m147.2 31.5 155.3 33.7-4.4 77.6z"/><path fill="#64b5dd" d="m163.3 93 64.5 57.1 42.5-8.7z"/><path fill="#102c35" d="m118 397.7-137.8-208-3 183.1z"/><path fill="#075147" d="M321.5 296.6 87.2 355.2l-64.5-82z"/><path fill="#00304a" d="m-22.7 186.8 22-41 130.3 19z"/><path fill="#172c39" d="M289.3-22.7 75.4.7l246.1 38.1z"/><path fill="#142b3a" d="m-5.1-.7 131.8-7.4L.7 49.1z"/><path fill="#90c5d8" d="m81.3 90 112.8 11.8-121.6 49.8z"/><path fill="#002034" d="m195.6 145.8-22 17.5 71.8-5.8z"/><path fill="#d2eaed" d="m210.2 139.9-55.7-16.1 33.7 22z"/><path fill="#2288be" d="m167.7 53.5 153.8 79-61.5 13.3z"/><path fill="#087aa4" d="m139.9 164.8 99.6 8.8-30.8 17.6z"/><path fill="#016152" d="m188.2 323 101.1-57.1-102.5-17.6z"/><path fill="#4e8cb5" d="m44.7 76.9 102.5-11.7-170 93.7z"/><path fill="#0e2f4a" d="m321.5 138.4-76.1 8.8-39.6 108.4z"/><path fill="#076b8c" d="m144.3 164.8-87.9 5.9-1.5 30.7z"/><path fill="#0d2c33" d="M321.5 324.5 285 397.7 36 370z"/><path fill="#0a7e6f" d="m113.5 248.3 73.3 4.4L54.9 282z"/><path fill="#074170" d="m128.2 25.6 193.3 61.6-90.8-74.7z"/><path fill="#053c54" d="m122.3 181-83.5 17.5L197 241z"/><path fill="#236e9b" d="M57.9 69.6 197 63.7l-49.8-24.9z"/><path fill="#7baccc" d="m27.1 147.2 41 4.4 17.6-70.3z"/><path fill="#132836" d="m201.4 246.8 120.1 19L260 159z"/><path fill="#103237" d="m110.6 264.4 46.9 55.7 35.1-23.5z"/><path fill="#0a354d" d="M246.8 219 178 185.3l-23.5 64.5z"/><path fill="#4e90ac" d="m175 157.5-26.3 10.2-32.2-11.7z"/><path fill="#b1d6e3" d="m93 147.2 39.6-17.6-68.9 7.4z"/><path fill="#194d7c" d="M-19.8 43.2 36 49.1 6.6 104.7z"/><path fill="#2b9681" d="m123.8 257 11.7 20.6 16.1 1.5z"/></g></svg>