<svg xmlns="http://www.w3.org/2000/svg" width="298" height="375"><g filter="blur(10px)"><rect width="200%" height="200%" x="-50%" y="-50%" fill="#536984"/><rect width="100%" height="100%" fill="#536984"/><g fill-opacity=".5" transform="translate(.7 .7)scale(1.46)"><circle cx="102" cy="255" r="160" fill="#001b10"/><circle cx="100" cy="17" r="129" fill="#096b99"/><circle cx="62" cy="74" r="29" fill="#ade7fa"/><circle cx="129" cy="73" r="28" fill="#90e4fe"/><circle cx="156" r="61" fill="#002149"/><circle cx="46" r="52" fill="#001c3e"/><circle cx="186" cy="133" r="36" fill="#00162a"/><circle cx="10" cy="135" r="35" fill="#001d2d"/><circle cx="94" cy="65" r="20" fill="#92d1e8"/><circle cx="154" cy="75" r="29" fill="#49afdd"/><circle cx="98" cy="240" r="116" fill="#003f3d"/><circle cx="35" cy="74" r="30" fill="#68a4cc"/><circle cx="125" cy="48" r="22" fill="#2689bc"/><circle cx="98" cy="115" r="29" fill="#02587b"/><circle cx="70" cy="45" r="21" fill="#297cb0"/><circle cx="128" cy="85" r="14" fill="#bbdee6"/><circle cx="186" r="34" fill="#0f212e"/><circle cx="113" cy="190" r="51" fill="#005651"/><circle cx="175" cy="49" r="30" fill="#00538d"/><circle cx="153" cy="85" r="18" fill="#75b7d7"/><circle cx="28" cy="54" r="24" fill="#276798"/><circle cx="42" cy="84" r="20" fill="#84bbd2"/><circle cx="186" cy="80" r="19" fill="#0b83c6"/><circle cx="14" r="37" fill="#13293f"/><circle cx="97" cy="114" r="9" fill="#4aa6c7"/><circle cx="71" cy="81" r="16" fill="#9cd1df"/><circle cx="16" cy="87" r="16" fill="#5595c7"/><circle cx="58" cy="184" r="12" fill="#008869"/><circle cx="197" cy="124" r="28" fill="#062b3c"/><circle cx="12" cy="255" r="50" fill="#0c2530"/></g></g></svg>