<svg xmlns="http://www.w3.org/2000/svg" width="298" height="375"><rect width="100%" height="100%" fill="#536984"/><g fill-opacity=".5" transform="translate(.7 .7)scale(1.46484)"><circle cx="102" cy="255" r="160" fill="#001b10"/><circle cx="98" cy="30" r="119" fill="#096b99"/><circle cx="62" cy="73" r="30" fill="#a8e3f7"/><circle cx="130" cy="74" r="27" fill="#95e8ff"/><circle cx="157" r="61" fill="#002149"/><circle cx="47" r="52" fill="#001b3e"/><circle cx="190" cy="137" r="40" fill="#001629"/><circle cx="20" cy="137" r="36" fill="#002030"/><circle cx="97" cy="65" r="20" fill="#92d2ea"/><circle cx="153" cy="73" r="30" fill="#45acdc"/><circle cx="101" cy="215" r="94" fill="#004240"/><circle cx="36" cy="75" r="30" fill="#6ba6cd"/><circle cx="125" cy="48" r="22" fill="#2587ba"/><circle cx="190" cy="1" r="64" fill="#01365b"/><circle cx="99" cy="113" r="27" fill="#035a7f"/><circle cx="128" cy="82" r="17" fill="#aad2df"/><circle cx="71" cy="45" r="20" fill="#297eb2"/><circle cx="191" cy="72" r="26" fill="#0073b8"/><circle cx="136" cy="196" r="30" fill="#006855"/><circle cx="46" cy="255" r="94" fill="#033e3b"/><circle cx="30" cy="53" r="23" fill="#276899"/><circle cx="157" cy="49" r="22" fill="#0269a2"/><circle cx="69" cy="198" r="30" fill="#086556"/><circle cx="66" cy="82" r="17" fill="#a0d3e0"/><circle cx="151" cy="89" r="15" fill="#85c0da"/><circle cx="13" r="37" fill="#132a3f"/><circle cx="187" r="29" fill="#1c262e"/><circle cx="203" cy="243" r="68" fill="#003a39"/><circle cx="39" cy="91" r="13" fill="#91c2db"/><circle cx="101" cy="117" r="13" fill="#308db0"/></g></svg>