<svg xmlns="http://www.w3.org/2000/svg" width="300" height="375" viewBox="0 0 300 375"><g stroke-linecap="round"><path fill="rgba(19,57,92,255)" stroke="rgba(19,57,92,255)" d="M0 0h300L108 62 0 0"/><path fill="rgba(21,48,63,255)" stroke="rgba(21,48,63,255)" d="M0 375V0l34 273L0 375"/><path fill="rgba(12,62,103,255)" stroke="rgba(12,62,103,255)" d="m0 0 108 62-64 6L0 0"/><path fill="rgba(120,176,203,255)" stroke="rgba(120,176,203,255)" d="m108 62 14 121L44 68l64-6"/><path fill="rgba(4,77,108,255)" stroke="rgba(4,77,108,255)" d="m122 183-88 90L44 68l78 115"/><path fill="rgba(73,138,180,255)" stroke="rgba(73,138,180,255)" d="M34 273 0 0l44 68-10 205"/><path fill="rgba(19,46,61,255)" stroke="rgba(19,46,61,255)" d="M300 0v375l-54-158L300 0"/><path fill="rgba(39,142,185,255)" stroke="rgba(39,142,185,255)" d="M108 62 300 0l-54 217L108 62"/><path fill="rgba(0,71,101,255)" stroke="rgba(0,71,101,255)" d="M122 183 108 62l138 155-124-34"/><path fill="rgba(8,56,56,255)" stroke="rgba(8,56,56,255)" d="M300 375H0l109-62 191 62"/><path fill="rgba(0,61,61,255)" stroke="rgba(0,61,61,255)" d="m0 375 34-102 75 40L0 375"/><path fill="rgba(7,96,82,255)" stroke="rgba(7,96,82,255)" d="m246 217 54 158-191-62 137-96"/><path fill="rgba(9,89,90,255)" stroke="rgba(9,89,90,255)" d="m34 273 88-90-13 130-75-40"/><path fill="rgba(18,51,70,255)" stroke="rgba(18,51,70,255)" d="m122 183 124 34-137 96 13-130"/></g></svg>