<svg xmlns="http://www.w3.org/2000/svg" width="300" height="375" viewBox="0 0 300 375"><g stroke-linecap="round"><path fill="rgba(19,45,60,255)" stroke="rgba(19,45,60,255)" d="M300 0v375l-70-174L300 0"/><path fill="rgba(15,52,66,255)" stroke="rgba(15,52,66,255)" d="M0 375V0l34 156L0 375"/><path fill="rgba(76,158,198,255)" stroke="rgba(76,158,198,255)" d="m300 0-70 201-35-21L300 0"/><path fill="rgba(8,75,118,255)" stroke="rgba(8,75,118,255)" d="M0 0h300L76 121 0 0"/><path fill="rgba(58,119,163,255)" stroke="rgba(58,119,163,255)" d="M34 156 0 0l76 121-42 35"/><path fill="rgba(15,51,53,255)" stroke="rgba(15,51,53,255)" d="M300 375H0l129-11 171 11"/><path fill="rgba(0,71,64,255)" stroke="rgba(0,71,64,255)" d="m230 201 70 174-171-11 101-163"/><path fill="rgba(0,59,65,255)" stroke="rgba(0,59,65,255)" d="m195 180 35 21-101 163 66-184"/><path fill="rgba(4,73,69,255)" stroke="rgba(4,73,69,255)" d="m0 375 34-219 95 208L0 375"/><path fill="rgba(83,165,202,255)" stroke="rgba(83,165,202,255)" d="M300 0 195 180l-21-13L300 0"/><path fill="rgba(82,165,199,255)" stroke="rgba(82,165,199,255)" d="M76 121 300 0 174 167l-98-46"/><path fill="rgba(160,208,230,255)" stroke="rgba(160,208,230,255)" d="m34 156 42-35 98 46-140-11"/><path fill="rgba(18,48,62,255)" stroke="rgba(18,48,62,255)" d="m195 180-66 184 45-197 21 13"/><path fill="rgba(16,51,61,255)" stroke="rgba(16,51,61,255)" d="M129 364 34 156l140 11-45 197"/></g></svg>