<svg xmlns="http://www.w3.org/2000/svg" width="298" height="375"><rect width="100%" height="100%" fill="#536984"/><g fill-opacity=".5" transform="translate(.7 .7)scale(1.46)"><circle cx="102" cy="243" r="149" fill="#001b11"/><circle cx="104" cy="79" r="54" fill="#3fb2dd"/><circle cx="149" r="66" fill="#002859"/><circle cx="45" r="52" fill="#001f49"/><circle cx="51" cy="73" r="31" fill="#7ecaea"/><circle cx="187" cy="130" r="34" fill="#00172f"/><circle cx="176" cy="69" r="31" fill="#0088cd"/><circle cx="101" cy="129" r="42" fill="#003f62"/><circle cx="130" cy="74" r="26" fill="#8cd5ed"/><circle cx="23" cy="146" r="45" fill="#002c3c"/><circle cx="109" cy="255" r="127" fill="#00413e"/><circle cx="203" r="66" fill="#002c4d"/><circle cx="10" cy="67" r="34" fill="#247cb6"/><circle cx="89" cy="71" r="16" fill="#a9dae7"/><circle cx="136" cy="127" r="27" fill="#004c75"/><circle cx="154" cy="85" r="18" fill="#72bdde"/><circle cx="149" cy="49" r="26" fill="#0571a8"/><circle cx="53" r="54" fill="#023f63"/><circle cx="52" cy="121" r="19" fill="#005a7e"/><circle cx="136" cy="197" r="31" fill="#006855"/><circle cx="31" cy="87" r="17" fill="#79b7d8"/><circle cx="69" cy="81" r="17" fill="#a5ced9"/><circle cx="69" cy="199" r="31" fill="#006352"/><circle cx="69" cy="49" r="22" fill="#3a85b5"/><circle cx="99" cy="95" r="12" fill="#002e49"/><circle cx="112" cy="54" r="18" fill="#4ea1c9"/><circle cx="7" cy="130" r="29" fill="#092938"/><circle cx="129" cy="88" r="12" fill="#b9dee8"/><circle cy="8" r="38" fill="#122c43"/><circle cx="119" r="25" fill="#022a45"/></g></svg>