<svg xmlns="http://www.w3.org/2000/svg" width="300" height="375" viewBox="0 0 300 375"><g filter="blur(20px)"><rect width="200%" height="200%" x="-50%" y="-50%" fill="#536984"/><g stroke-linecap="round"><path fill="rgba(21,59,92,255)" stroke="rgba(21,59,92,255)" d="M0 0h300L193 56 0 0"/><path fill="rgba(18,80,125,255)" stroke="rgba(18,80,125,255)" d="M86 76 0 0l193 56L86 76"/><path fill="rgba(22,44,56,255)" stroke="rgba(22,44,56,255)" d="M0 375V0l52 285-52 90"/><path fill="rgba(84,154,190,255)" stroke="rgba(84,154,190,255)" d="m0 0 86 76-34 209L0 0"/><path fill="rgba(12,49,53,255)" stroke="rgba(12,49,53,255)" d="M300 375H0l220-56 80 56"/><path fill="rgba(1,72,64,255)" stroke="rgba(1,72,64,255)" d="m0 375 52-90 168 34L0 375"/><path fill="rgba(22,116,167,255)" stroke="rgba(22,116,167,255)" d="M193 56 300 0l-74 202-33-146"/><path fill="rgba(125,191,215,255)" stroke="rgba(125,191,215,255)" d="m86 76 107-20 33 146L86 76"/><path fill="rgba(1,63,90,255)" stroke="rgba(1,63,90,255)" d="M52 285 86 76l140 126-174 83"/><path fill="rgba(0,96,82,255)" stroke="rgba(0,96,82,255)" d="M220 319 52 285l174-83-6 117"/><path fill="rgba(21,46,56,255)" stroke="rgba(21,46,56,255)" d="M300 0v375l-46-76L300 0"/><path fill="rgba(16,43,58,255)" stroke="rgba(16,43,58,255)" d="M226 202 300 0l-46 299-28-97"/><path fill="rgba(12,68,71,255)" stroke="rgba(12,68,71,255)" d="m300 375-80-56 34-20 46 76"/><path fill="rgba(10,77,73,255)" stroke="rgba(10,77,73,255)" d="m220 319 6-117 28 97-34 20"/></g></g></svg>