<svg xmlns="http://www.w3.org/2000/svg" width="298" height="375"><rect width="100%" height="100%" fill="#536984"/><g fill-opacity=".5"><path fill="#002e2d" d="m298.1 397.7-320.8-36.6L298-22.7z"/><path fill="#6cdaff" d="m-22.7 148.7 344.2-5.9-167-98.1z"/><path fill="#002c23" d="m.7 397.7-2.9-276.9 323.7 244.7z"/><path fill="#001a45" d="M-22.7 90 321.5 9.6 8.1-22.7z"/><path fill="#004552" d="m-22.7 213.1 344.2 136.3-169.9-230z"/><path fill="#0064aa" d="M267.3 30 28.6 41.7l293 93.8z"/><path fill="#a3d9f1" d="m226.3 153 19-46.8-161-5.9z"/><path fill="#004243" d="m-22.7 276.1 319.3 121.6 19-272.5z"/><path fill="#005782" d="m-.7 183.8 250.5 14.7-93.8-73.3z"/><path fill="#002c4b" d="m295.2-22.7 26.3 101L-22.7 5.2z"/><path fill="#2b86bf" d="m126.7 57.9-149.4-3 29.3 96.7z"/><path fill="#07202b" d="M-22.7 356.7 91.6 224.9-22.7 122.3z"/><path fill="#a2cde1" d="m98.9 150.1-121.6-2.9 202.1-52.7z"/><path fill="#0b7c61" d="m3.7 270.3 271 35.1L175 244z"/><path fill="#1d8ccb" d="m214.6 57.9 14.6 92.2 92.3-20.5z"/><path fill="#0e1b32" d="m321.5 267.3-149.4-22L299.6 137z"/><path fill="#002235" d="m11 161.9 142-23.5-68.8 33.7z"/><path fill="#2590b9" d="m156 153 70.3 33.8-121.6-13.2z"/><path fill="#b4dae7" d="M185.3 145.8 138.4 112l115.8 35.1z"/><path fill="#065388" d="m219 24.2 102.5 73.2L40.3 30z"/><path fill="#004b70" d="m57.9 197 189-49.8-22 82z"/><path fill="#64a7c5" d="m257 110.6-234.3-5.9L140 65.2z"/><path fill="#003b58" d="m93 151.6 55.7-29.3 51.3 35.2z"/><path fill="#0f3650" d="M268.8-.7-22.7-5.1l19 73.2z"/><path fill="#0a2d34" d="M312.7 371.3.7 397.7l-23.4-87.9z"/><path fill="#084f45" d="m-22.7 255.6 332.5 52.7-208 47z"/><path fill="#182637" d="m217.5 245.4-240.2 8.8 14.6-64.5z"/><path fill="#548fbb" d="m35.9 150.1-58.6-11.7 127.4-73.2z"/><path fill="#5098b4" d="m134 157.5-2.9 24.9L178 156z"/><path fill="#006aaa" d="m230.7 60.8 60 83.5 30.8-30.8z"/><path fill="#63add3" d="m264.4 142.8-44 7.3-26.3-55.6z"/><path fill="#05729b" d="m214.6 195.6-73.2-30.8 96.6 5.9z"/><path fill="#07364d" d="m-22.7 141.4 96.7 16-63 36.7z"/><path fill="#8fc5d6" d="m90 148.7-20.4-48.4 98.1-7.3z"/><path fill="#1e598a" d="m-22.7 46.1 90.8 3-74.7 74.7z"/><path fill="#0d2d3a" d="m235.1 151.6 63 244.6 8.8-257.8z"/><path fill="#30759e" d="m97.4 87.2 108.4-45.5-93.7 6z"/><path fill="#063040" d="m52 208.7 74.7-32.2-23.4 45.4z"/><path fill="#002844" d="M241 163.3h-67.4l26.4-19z"/><path fill="#0b7767" d="m239.5 255.6-86.4 25-54.2-30.8z"/><path fill="#192a36" d="M315.7 38.8 115-22.7h206.5z"/><path fill="#076b8b" d="m53.5 198.5 86.4-33.7-85 8.8z"/><path fill="#063554" d="m289.3 142.8 32.2 45.4L189.7 156z"/><path fill="#004b85" d="m321.5 97.4-1.4-41-134.8-3z"/><path fill="#192d3b" d="M2.2-22.7.7 30 147.2-2.2z"/><path fill="#acd3e2" d="m62.3 151.6 17.5-22 39.6 5.9z"/><path fill="#085a4d" d="m274.7 260-47 67.4-96.6-64.5z"/><path fill="#078168" d="m66.7 276.1 55.6 5.9-33.7-26.4z"/><path fill="#112b33" d="m188.2 287.8-57.1-4.4 27.8 38.1z"/><path fill="#112f41" d="m179.4 181-7.3 19 64.5 23.4z"/></g></svg>