<svg xmlns="http://www.w3.org/2000/svg" width="300" height="375" viewBox="0 0 300 375"><g stroke-linecap="round"><path fill="rgba(3,49,50,255)" stroke="rgba(3,49,50,255)" d="M300 375H0l40-115 260 115"/><path fill="rgba(13,117,92,255)" stroke="rgba(13,117,92,255)" d="M300 375 40 260l87-52 173 167"/><path fill="rgba(18,55,88,255)" stroke="rgba(18,55,88,255)" d="M0 0h300L99 51 0 0"/><path fill="rgba(8,60,85,255)" stroke="rgba(8,60,85,255)" d="M0 375V0l14 182L0 375"/><path fill="rgba(7,59,60,255)" stroke="rgba(7,59,60,255)" d="M40 260 0 375l14-193 26 78"/><path fill="rgba(47,113,155,255)" stroke="rgba(47,113,155,255)" d="m0 0 99 51-27 106L0 0"/><path fill="rgba(73,138,178,255)" stroke="rgba(73,138,178,255)" d="M14 182 0 0l72 157-58 25"/><path fill="rgba(9,50,60,255)" stroke="rgba(9,50,60,255)" d="m127 208-87 52 32-103 55 51"/><path fill="rgba(20,46,59,255)" stroke="rgba(20,46,59,255)" d="m40 260-26-78 58-25-32 103"/><path fill="rgba(7,50,73,255)" stroke="rgba(7,50,73,255)" d="M300 0v375L135 171 300 0"/><path fill="rgba(12,96,97,255)" stroke="rgba(12,96,97,255)" d="M300 375 127 208l8-37 165 204"/><path fill="rgba(62,141,184,255)" stroke="rgba(62,141,184,255)" d="M99 51 300 0 135 171 99 51"/><path fill="rgba(15,60,89,255)" stroke="rgba(15,60,89,255)" d="m127 208-55-51 63 14-8 37"/><path fill="rgba(140,197,218,255)" stroke="rgba(140,197,218,255)" d="M72 157 99 51l36 120-63-14"/></g></svg>