<svg xmlns="http://www.w3.org/2000/svg" width="298" height="375"><g filter="blur(10px)"><rect width="200%" height="200%" x="-50%" y="-50%" fill="#536984"/><rect width="100%" height="100%" fill="#536984"/><g fill-opacity=".5" transform="translate(.7 .7)scale(1.46)"><circle cx="99" cy="248" r="154" fill="#001b11"/><circle cx="101" cy="31" r="118" fill="#096b99"/><circle cx="62" cy="74" r="29" fill="#aee7fb"/><circle cx="130" cy="74" r="27" fill="#95e8ff"/><circle cx="157" r="61" fill="#002149"/><circle cx="47" r="52" fill="#001c3e"/><circle cx="190" cy="136" r="40" fill="#001628"/><circle cx="97" cy="65" r="20" fill="#93d3eb"/><circle cx="14" cy="135" r="34" fill="#001f2f"/><circle cx="153" cy="73" r="30" fill="#45acdc"/><circle cx="100" cy="225" r="103" fill="#00403e"/><circle cx="37" cy="74" r="31" fill="#69a5cc"/><circle cx="126" cy="48" r="22" fill="#2386b9"/><circle cx="71" cy="46" r="21" fill="#2d81b3"/><circle cx="130" cy="85" r="15" fill="#b6d9e2"/><circle cx="191" r="66" fill="#01365b"/><circle cx="98" cy="116" r="29" fill="#03587d"/><circle cx="137" cy="197" r="32" fill="#006654"/><circle cx="191" cy="70" r="28" fill="#0172b6"/><circle cx="68" cy="200" r="32" fill="#006151"/><circle cx="29" cy="53" r="23" fill="#266597"/><circle cx="150" cy="90" r="14" fill="#89c2db"/><circle cx="44" cy="85" r="19" fill="#88bdd4"/><circle cx="155" cy="49" r="21" fill="#026aa4"/><circle cx="13" r="37" fill="#13293f"/><circle cx="187" r="29" fill="#1c262e"/><circle cx="93" cy="255" r="65" fill="#073535"/><circle cx="103" cy="118" r="14" fill="#2c8aad"/><circle cx="70" cy="85" r="13" fill="#a9dbe5"/><circle cx="14" cy="86" r="16" fill="#5393c8"/></g></g></svg>