<svg xmlns="http://www.w3.org/2000/svg" width="298" height="375"><rect width="100%" height="100%" fill="#536984"/><g fill-opacity=".5" transform="translate(.7 .7)scale(1.46484)"><circle cx="102" cy="255" r="160" fill="#001b10"/><circle cx="102" r="147" fill="#086997"/><circle cx="62" cy="73" r="30" fill="#a9e4f8"/><circle cx="130" cy="74" r="27" fill="#96e9ff"/><circle cx="156" r="60" fill="#002149"/><circle cx="47" r="52" fill="#001c3f"/><circle cx="189" cy="136" r="39" fill="#001527"/><circle cx="98" cy="65" r="20" fill="#92d2ea"/><circle cx="21" cy="139" r="38" fill="#002131"/><circle cx="156" cy="74" r="29" fill="#41abdc"/><circle cx="98" cy="242" r="117" fill="#00403e"/><circle cx="36" cy="75" r="30" fill="#6ba6cd"/><circle cx="126" cy="48" r="22" fill="#2387bb"/><circle cx="191" cy="2" r="64" fill="#01365c"/><circle cx="70" cy="44" r="21" fill="#277bb0"/><circle cx="131" cy="85" r="15" fill="#b4d9e4"/><circle cx="98" cy="117" r="30" fill="#03577b"/><circle cx="112" cy="188" r="53" fill="#015350"/><circle cx="164" cy="54" r="23" fill="#056ea9"/><circle cx="30" cy="53" r="23" fill="#276899"/><circle cx="151" cy="86" r="18" fill="#7ab9d6"/><circle cx="67" cy="84" r="15" fill="#a8d9e4"/><circle cx="193" cy="78" r="19" fill="#0077c0"/><circle cx="101" cy="117" r="13" fill="#2f8eb1"/><circle cx="13" r="37" fill="#132a3f"/><circle cx="187" r="29" fill="#1c262e"/><circle cx="39" cy="90" r="14" fill="#8dc0d9"/><circle cx="3" cy="255" r="58" fill="#0c2530"/><circle cx="45" cy="126" r="11" fill="#107696"/><circle cx="11" cy="90" r="12" fill="#5d9bd2"/></g></svg>