<svg xmlns="http://www.w3.org/2000/svg" width="298" height="375"><rect width="100%" height="100%" fill="#536984"/><g fill-opacity=".5"><path fill="#002e2d" d="M296.6-22.7-22.7 362.5l344.2 35.2z"/><path fill="#6fdcff" d="m321.5 142.8-344.2 4.4L156 47.6z"/><path fill="#002d24" d="m5.1 397.7-27.8-293 344.2 256.4z"/><path fill="#00153e" d="M321.5 8 8.1-22.6-22.7 82.8z"/><path fill="#004452" d="M151.6 119.4-22.7 213l344.2 127.5z"/><path fill="#0067ab" d="m260 27.1 61.5 102.5-338.3-82z"/><path fill="#a2d9f1" d="m85.7 98.9 146.5 3-3 52.6z"/><path fill="#002330" d="M296.6 397.7 304 140l-95.3 13z"/><path fill="#00567f" d="m-18.3 182.4 278.3 19-99.6-73.2z"/><path fill="#002c4c" d="m-22.7 5.1 315-27.8 29.2 101z"/><path fill="#022631" d="M-22.7 153 93 151.7l-83.5 246z"/><path fill="#3087c0" d="M-22.7 52 9.5 157.5l95.2-85z"/><path fill="#01745a" d="m211.7 245.4-234.4 17.5L279 320.1z"/><path fill="#a0cce1" d="m191.2 93-95.3 57.1-118.6-4.3z"/><path fill="#1f8ecb" d="M233.6 150.1 191.2 55l130.3 71.8z"/><path fill="#167ea6" d="m236.6 185.3-181.7-3 104-32.2z"/><path fill="#66a8c5" d="M267.3 115 123.8 59.3l-89.4 46.9z"/><path fill="#add7e6" d="m251.2 147.2-120.1-42.5 51.3 41z"/><path fill="#003853" d="m151.6 120.8 27.8 29.3-139.1 26.4z"/><path fill="#0d2639" d="m321.5 172.1-5.8 83.5L21.2 244z"/><path fill="#015274" d="m255.6 154.5-49.8 77.7-162.6-44z"/><path fill="#03629c" d="M321.5 68.1v86.4l-200.7-126z"/><path fill="#044741" d="m276.1 397.7-271-92.3 296-48.3z"/><path fill="#4c9ab8" d="M115 157.5h64.4l-43.9 23.4z"/><path fill="#0e4268" d="m-22.7 107.7 161.1-89.4H6.6z"/><path fill="#0d2c35" d="M132.6 178 2.2 220.5l-19 130.3z"/><path fill="#0d2a33" d="m321.5 317.1-19 80.6-290-24.9z"/><path fill="#92c4d8" d="m163.3 76.9-71.7 73.2H27z"/><path fill="#69b1d5" d="m264.4 142.8-71.8-48.3 22 57.1z"/><path fill="#0b6483" d="m60.8 198.5 80.6-33.7-101.1 5.9z"/><path fill="#508cba" d="M-22.7 145.8 81.3 71l-35.2 77.7z"/><path fill="#142d3a" d="M189.7-22.7-12.5 46 2.2-22.7z"/><path fill="#0b715f" d="m27.1 277.6 218.3 8.8-96.7-41z"/><path fill="#084171" d="m264.4 24.2-152.3-5.9 209.4 79.1z"/><path fill="#002945" d="m204.3 144.3-39.5 20.5 52.7-3z"/><path fill="#296596" d="m6.6 53.5-20.5 82 80.6-76.2z"/><path fill="#162d3f" d="m91.6-22.7 215.3 73.2 14.6-73.2z"/><path fill="#172a3a" d="M-22.7 119.4v131.8l130.4-1.4z"/><path fill="#064a45" d="m100.3 358.2 202.2-27.9L.7 257.1z"/><path fill="#236b97" d="M211.7 40.3 95.9 79.8l19-35.1z"/><path fill="#3b93bd" d="m128.2 57.9 137.7 39.5-7.4 39.6z"/><path fill="#04709a" d="m145.8 166.3 96.6 4.4-26.3 23.4z"/><path fill="#0b3b51" d="m-9.5 147.2 130.3 8.8-143.5 48.3z"/><path fill="#103036" d="m186.8 293.7-29.3 26.4-46.9-54.2z"/><path fill="#07374c" d="M251.2 216 175 183.9l-11.7 58.6z"/><path fill="#abdae3" d="m74 135.5 35.1 5.9 38.1-23.5z"/><path fill="#0f2b35" d="M18.3 306.9 123.8 361l-146.5 36.6z"/><path fill="#7db9d0" d="m170.7 120.8-124.6 3 107-48.4z"/><path fill="#0b73b1" d="m321.5 134-85-68.8 41 77.6z"/><path fill="#066051" d="m188.2 251.2-1.4 73.3 93.7-60.1z"/></g></svg>