<svg xmlns="http://www.w3.org/2000/svg" width="300" height="375"><path fill="#173145" d="M-30-28.5h48v48h-48z"/><path fill="#163146" d="M18-28.5h24v48H18z"/><path fill="#183753" d="M42-28.5h24v48H42z"/><path fill="#173855" d="M66-28.5h24v48H66z"/><path fill="#143652" d="M90-28.5h24v48H90z"/><path fill="#123552" d="M114-28.5h24v48h-24z"/><path fill="#143756" d="M138-28.5h24v48h-24z"/><path fill="#133654" d="M162-28.5h24v48h-24z"/><path fill="#153754" d="M186-28.5h24v48h-24z"/><path fill="#173856" d="M210-28.5h24v48h-24z"/><path fill="#15344e" d="M234-28.5h24v48h-24z"/><path fill="#163145" d="M258-28.5h24v48h-24z"/><path fill="#162e3f" d="M282-28.5h48v48h-48z"/><path fill="#163a5b" d="M-30 19.5h48v24h-48z"/><path fill="#113b5e" d="M18 19.5h24v24H18z"/><path fill="#114069" d="M42 19.5h24v24H42z"/><path fill="#104570" d="M66 19.5h24v24H66z"/><path fill="#114975" d="M90 19.5h24v24H90z"/><path fill="#0f4a77" d="M114 19.5h24v24h-24z"/><path fill="#0d4c7b" d="M138 19.5h24v24h-24z"/><path fill="#134c79" d="M162 19.5h24v24h-24z"/><path fill="#154b78" d="M186 19.5h24v24h-24z"/><path fill="#0e4471" d="M210 19.5h24v24h-24z"/><path fill="#0d3e68" d="M234 19.5h24v24h-24z"/><path fill="#0d375b" d="M258 19.5h24v24h-24z"/><path fill="#123450" d="M282 19.5h48v24h-48z"/><path fill="#22527c" d="M-30 43.5h48v24h-48z"/><path fill="#245a87" d="M18 43.5h24v24H18z"/><path fill="#1d5b87" d="M42 43.5h24v24H42z"/><path fill="#18608f" d="M66 43.5h24v24H66z"/><path fill="#216b9a" d="M90 43.5h24v24H90z"/><path fill="#2e77a4" d="M114 43.5h24v24h-24z"/><path fill="#307ba7" d="M138 43.5h24v24h-24z"/><path fill="#2c77a4" d="M162 43.5h24v24h-24z"/><path fill="#14679a" d="M186 43.5h24v24h-24z"/><path fill="#03568a" d="M210 43.5h24v24h-24z"/><path fill="#064f82" d="M234 43.5h24v24h-24z"/><path fill="#054576" d="M258 43.5h24v24h-24z"/><path fill="#083d68" d="M282 43.5h48v24h-48z"/><path fill="#285f8d" d="M-30 67.5h48v24h-48z"/><path fill="#39739f" d="M18 67.5h24v24H18z"/><path fill="#4482ab" d="M42 67.5h24v24H42z"/><path fill="#5491b6" d="M66 67.5h24v24H66z"/><path fill="#5496bb" d="M90 67.5h24v24H90z"/><path fill="#5c9ec0" d="M114 67.5h24v24h-24z"/><path fill="#61a2c3" d="M138 67.5h24v24h-24z"/><path fill="#4898be" d="M162 67.5h24v24h-24z"/><path fill="#338eb9" d="M186 67.5h24v24h-24z"/><path fill="#187dad" d="M210 67.5h24v24h-24z"/><path fill="#116fa3" d="M234 67.5h24v24h-24z"/><path fill="#0c6095" d="M258 67.5h24v24h-24z"/><path fill="#064f83" d="M282 67.5h48v24h-48z"/><path fill="#3070a0" d="M-30 91.5h48v24h-48z"/><path fill="#3f82ac" d="M18 91.5h24v24H18z"/><path fill="#5495b9" d="M42 91.5h24v24H42z"/><path fill="#71aac5" d="M66 91.5h24v24H66z"/><path fill="#7ab5cf" d="M90 91.5h24v24H90z"/><path fill="#8bc4d9" d="M114 91.5h24v24h-24z"/><path fill="#87c3d9" d="M138 91.5h24v24h-24z"/><path fill="#7abcd7" d="M162 91.5h24v24h-24z"/><path fill="#62accd" d="M186 91.5h24v24h-24z"/><path fill="#479dc5" d="M210 91.5h24v24h-24z"/><path fill="#358dbb" d="M234 91.5h24v24h-24z"/><path fill="#1679ae" d="M258 91.5h24v24h-24z"/><path fill="#0766a0" d="M282 91.5h48v24h-48z"/><path fill="#4888ba" d="M-30 115.5h48v24h-48z"/><path fill="#5e9dc7" d="M18 115.5h24v24H18z"/><path fill="#7ab4d3" d="M42 115.5h24v24H42z"/><path fill="#91c6dc" d="M66 115.5h24v24H66z"/><path fill="#95cadc" d="M90 115.5h24v24H90z"/><path fill="#5a90a6" d="M114 115.5h24v24h-24z"/><path fill="#316780" d="M138 115.5h24v24h-24z"/><path fill="#82b5c7" d="M162 115.5h24v24h-24z"/><path fill="#98cde1" d="M186 115.5h24v24h-24z"/><path fill="#77bad8" d="M210 115.5h24v24h-24z"/><path fill="#54a4cd" d="M234 115.5h24v24h-24z"/><path fill="#2d8bbf" d="M258 115.5h24v24h-24z"/><path fill="#1575af" d="M282 115.5h48v24h-48z"/><path fill="#2a516a" d="M-30 139.5h48v24h-48z"/><path fill="#3b6681" d="M18 139.5h24v24H18z"/><path fill="#47738c" d="M42 139.5h24v24H42z"/><path fill="#487185" d="M66 139.5h24v24H66z"/><path fill="#266079" d="M90 139.5h24v24H90z"/><path fill="#095472" d="M114 139.5h24v24h-24z"/><path fill="#125b7b" d="M138 139.5h24v24h-24z"/><path fill="#17607d" d="M162 139.5h24v24h-24z"/><path fill="#326178" d="M186 139.5h24v24h-24z"/><path fill="#396f8b" d="M210 139.5h24v24h-24z"/><path fill="#265e7b" d="M234 139.5h24v24h-24z"/><path fill="#164661" d="M258 139.5h24v24h-24z"/><path fill="#0f3c57" d="M282 139.5h48v24h-48z"/><path fill="#0d3444" d="M-30 163.5h48v24h-48z"/><path fill="#0b3547" d="M18 163.5h24v24H18z"/><path fill="#044761" d="M42 163.5h24v24H42z"/><path fill="#024f6b" d="M66 163.5h24v24H66z"/><path fill="#034d6c" d="M90 163.5h24v24H90z"/><path fill="#136283" d="M114 163.5h24v24h-24z"/><path fill="#20789a" d="M138 163.5h24v24h-24z"/><path fill="#0b5e81" d="M162 163.5h24v24h-24z"/><path fill="#025a80" d="M186 163.5h24v24h-24z"/><path fill="#005479" d="M210 163.5h24v24h-24z"/><path fill="#07354d" d="M234 163.5h24v24h-24z"/><path fill="#0e2c3d" d="M258 163.5h24v24h-24z"/><path fill="#0c3248" d="M282 163.5h48v24h-48z"/><path fill="#133646" d="M-30 187.5h48v24h-48z"/><path fill="#16313f" d="M18 187.5h24v24H18z"/><path fill="#144658" d="M42 187.5h24v24H42z"/><path fill="#0e4b60" d="M66 187.5h24v24H66z"/><path fill="#094459" d="M90 187.5h24v24H90z"/><path fill="#054a65" d="M114 187.5h24v24h-24z"/><path fill="#06526c" d="M138 187.5h24v24h-24z"/><path fill="#0a4c64" d="M162 187.5h24v24h-24z"/><path fill="#0d4a61" d="M186 187.5h24v24h-24z"/><path fill="#084d68" d="M210 187.5h24v24h-24z"/><path fill="#113444" d="M234 187.5h24v24h-24z"/><path fill="#142e3d" d="M258 187.5h24v24h-24z"/><path fill="#142e3c" d="M282 187.5h48v24h-48z"/><path fill="#162c38" d="M-30 211.5h48v24h-48z"/><path fill="#172a36" d="M18 211.5h24v24H18z"/><path fill="#132a37" d="M42 211.5h24v24H42z"/><path fill="#112f39" d="M66 211.5h24v24H66z"/><path fill="#10333d" d="M90 211.5h24v24H90z"/><path fill="#0c3d52" d="M114 211.5h24v24h-24z"/><path fill="#0f3b51" d="M138 211.5h24v24h-24z"/><path fill="#0a3b54" d="M162 211.5h24v24h-24z"/><path fill="#083951" d="M186 211.5h24v24h-24z"/><path fill="#0b3449" d="M210 211.5h24v24h-24z"/><path fill="#11303f" d="M234 211.5h24v24h-24z"/><path fill="#142d3a" d="M258 211.5h24v24h-24zm24 0h48v24h-48z"/><path fill="#132f3b" d="M-30 235.5h48v24h-48z"/><path fill="#122f39" d="M18 235.5h24v24H18z"/><path fill="#12313c" d="M42 235.5h24v24H42z"/><path fill="#103540" d="M66 235.5h24v24H66z"/><path fill="#103a44" d="M90 235.5h24v24H90z"/><path fill="#0e464f" d="M114 235.5h24v24h-24z"/><path fill="#0d454b" d="M138 235.5h24v24h-24z"/><path fill="#0d484e" d="M162 235.5h24v24h-24z"/><path fill="#0d424a" d="M186 235.5h24v24h-24z"/><path fill="#0f3842" d="M210 235.5h24v24h-24z"/><path fill="#11323c" d="M234 235.5h24v24h-24z"/><path fill="#132e39" d="M258 235.5h24v24h-24z"/><path fill="#162b35" d="M282 235.5h48v24h-48z"/><path fill="#0a3e41" d="M-30 259.5h48v24h-48z"/><path fill="#084444" d="M18 259.5h24v24H18z"/><path fill="#06504a" d="M42 259.5h24v24H42z"/><path fill="#086759" d="M66 259.5h24v24H66z"/><path fill="#076b5c" d="M90 259.5h24v24H90z"/><path fill="#0c655a" d="M114 259.5h24v24h-24z"/><path fill="#0d6659" d="M138 259.5h24v24h-24z"/><path fill="#0a7362" d="M162 259.5h24v24h-24z"/><path fill="#086557" d="M186 259.5h24v24h-24z"/><path fill="#085d54" d="M210 259.5h24v24h-24z"/><path fill="#094f4b" d="M234 259.5h24v24h-24z"/><path fill="#0a4345" d="M258 259.5h24v24h-24z"/><path fill="#0e383d" d="M282 259.5h48v24h-48z"/><path fill="#0f383c" d="M-30 283.5h48v24h-48z"/><path fill="#0d3c3d" d="M18 283.5h24v24H18z"/><path fill="#0b4d49" d="M42 283.5h24v24H42z"/><path fill="#0b4c46" d="M66 283.5h24v24H66z"/><path fill="#0b4a44" d="M90 283.5h24v24H90z"/><path fill="#0b4844" d="M114 283.5h24v24h-24z"/><path fill="#0f4140" d="M138 283.5h24v24h-24z"/><path fill="#0c4343" d="M162 283.5h24v24h-24z"/><path fill="#0a5b4e" d="M186 283.5h24v24h-24z"/><path fill="#096151" d="M210 283.5h24v24h-24z"/><path fill="#09574d" d="M234 283.5h24v24h-24z"/><path fill="#0a4b46" d="M258 283.5h24v24h-24z"/><path fill="#0a4242" d="M282 283.5h48v24h-48z"/><path fill="#12323a" d="M-30 307.5h48v24h-48z"/><path fill="#0f343d" d="M18 307.5h24v24H18z"/><path fill="#0c4248" d="M42 307.5h24v24H42z"/><path fill="#0b4c48" d="M66 307.5h24v24H66z"/><path fill="#0a4a45" d="M90 307.5h24v24H90z"/><path fill="#094d44" d="M114 307.5h24v24h-24z"/><path fill="#0c4240" d="M138 307.5h24v24h-24z"/><path fill="#0b423f" d="M162 307.5h24v24h-24z"/><path fill="#085049" d="M186 307.5h24v24h-24z"/><path fill="#084c47" d="M210 307.5h24v24h-24z"/><path fill="#08534d" d="M234 307.5h24v24h-24z"/><path fill="#074f49" d="M258 307.5h24v24h-24z"/><path fill="#0b3d3e" d="M282 307.5h48v24h-48z"/><path fill="#10333a" d="M-30 331.5h48v24h-48z"/><path fill="#10343a" d="M18 331.5h24v24H18z"/><path fill="#10353b" d="M42 331.5h24v24H42z"/><path fill="#0b4241" d="M66 331.5h24v24H66z"/><path fill="#094943" d="M90 331.5h24v24H90z"/><path fill="#09443e" d="M114 331.5h24v24h-24z"/><path fill="#084641" d="M138 331.5h24v24h-24z"/><path fill="#0b403e" d="M162 331.5h24v24h-24z"/><path fill="#0c403f" d="M186 331.5h24v24h-24z"/><path fill="#0b3f41" d="M210 331.5h24v24h-24z"/><path fill="#0a4041" d="M234 331.5h24v24h-24z"/><path fill="#0b3c41" d="M258 331.5h24v24h-24z"/><path fill="#10333a" d="M282 331.5h48v24h-48z"/><path fill="#123138" d="M-30 355.5h48v48h-48z"/><path fill="#152d36" d="M18 355.5h24v48H18z"/><path fill="#132f38" d="M42 355.5h24v48H42z"/><path fill="#113139" d="M66 355.5h24v48H66z"/><path fill="#0f3338" d="M90 355.5h24v48H90z"/><path fill="#0c3a3b" d="M114 355.5h24v48h-24z"/><path fill="#0e3839" d="M138 355.5h24v48h-24z"/><path fill="#0e3739" d="M162 355.5h24v48h-24z"/><path fill="#0e363a" d="M186 355.5h24v48h-24z"/><path fill="#11333a" d="M210 355.5h24v48h-24z"/><path fill="#0f333a" d="M234 355.5h24v48h-24z"/><path fill="#113138" d="M258 355.5h24v48h-24z"/><path fill="#152e35" d="M282 355.5h48v48h-48z"/></svg>