<svg xmlns="http://www.w3.org/2000/svg" width="300" height="375" viewBox="0 0 300 375"><g stroke-linecap="round"><path fill="rgba(2,70,59,255)" stroke="rgba(2,70,59,255)" d="M300 375H0l105-102 195 102"/><path fill="rgba(15,101,86,255)" stroke="rgba(15,101,86,255)" d="M300 375 105 273l94-63 101 165"/><path fill="rgba(16,47,64,255)" stroke="rgba(16,47,64,255)" d="M300 0v375l-74-198L300 0"/><path fill="rgba(15,56,64,255)" stroke="rgba(15,56,64,255)" d="M300 375 199 210l27-33 74 198"/><path fill="rgba(18,60,98,255)" stroke="rgba(18,60,98,255)" d="M0 0h300L130 71 0 0"/><path fill="rgba(24,120,170,255)" stroke="rgba(24,120,170,255)" d="m300 0-74 177-48-93L300 0"/><path fill="rgba(8,82,131,255)" stroke="rgba(8,82,131,255)" d="M130 71 300 0 178 84l-48-13"/><path fill="rgba(8,56,82,255)" stroke="rgba(8,56,82,255)" d="m226 177-27 33-21-126 48 93"/><path fill="rgba(133,199,225,255)" stroke="rgba(133,199,225,255)" d="M199 210 130 71l48 13 21 126"/><path fill="rgba(20,46,57,255)" stroke="rgba(20,46,57,255)" d="M0 375V0l79 239L0 375"/><path fill="rgba(21,90,86,255)" stroke="rgba(21,90,86,255)" d="M105 273 0 375l79-136 26 34"/><path fill="rgba(104,163,195,255)" stroke="rgba(104,163,195,255)" d="m0 0 130 71-51 168L0 0"/><path fill="rgba(15,58,78,255)" stroke="rgba(15,58,78,255)" d="m199 210-94 63-26-34 120-29"/><path fill="rgba(37,131,165,255)" stroke="rgba(37,131,165,255)" d="m130 71 69 139-120 29 51-168"/></g></svg>