<svg xmlns="http://www.w3.org/2000/svg" width="298" height="375"><rect width="100%" height="100%" fill="#536984"/><g fill-opacity=".5" transform="translate(.7 .7)scale(1.46484)"><circle cx="102" cy="255" r="160" fill="#001b10"/><circle cx="103" cy="27" r="121" fill="#096b99"/><circle cx="62" cy="74" r="29" fill="#ade7fa"/><circle cx="128" cy="73" r="28" fill="#91e4fe"/><circle cx="156" r="61" fill="#002149"/><circle cx="46" r="52" fill="#001c3e"/><circle cx="189" cy="134" r="37" fill="#001427"/><circle cx="21" cy="138" r="37" fill="#002132"/><circle cx="153" cy="75" r="28" fill="#4db3e0"/><circle cx="92" cy="65" r="20" fill="#90cfe6"/><circle cx="102" cy="233" r="110" fill="#00403e"/><circle cx="36" cy="75" r="30" fill="#6ba6cd"/><circle cx="128" cy="49" r="23" fill="#2387ba"/><circle cx="99" cy="118" r="31" fill="#02557a"/><circle cx="67" cy="46" r="22" fill="#2a7caf"/><circle cx="186" r="34" fill="#0f212e"/><circle cx="128" cy="83" r="16" fill="#afd7e2"/><circle cx="175" cy="50" r="30" fill="#00548f"/><circle cx="115" cy="192" r="50" fill="#00554f"/><circle cx="28" cy="56" r="22" fill="#2b6b9c"/><circle cx="153" cy="84" r="19" fill="#6fb4d4"/><circle cx="186" cy="81" r="18" fill="#0c86ca"/><circle cx="43" cy="86" r="18" fill="#89bed5"/><circle cx="104" cy="119" r="15" fill="#2987aa"/><circle cx="3" r="36" fill="#132637"/><circle cx="69" cy="84" r="14" fill="#a5d8e3"/><circle cx="1" cy="255" r="60" fill="#0c2530"/><circle cx="46" cy="127" r="11" fill="#0e7695"/><circle cy="131" r="31" fill="#0a2d3b"/><circle cx="60" cy="184" r="13" fill="#008467"/></g></svg>