<svg xmlns="http://www.w3.org/2000/svg" width="298" height="375"><rect width="100%" height="100%" fill="#536984"/><g fill-opacity=".5" transform="translate(.7 .7)scale(1.46)"><circle cx="101" cy="234" r="140" fill="#001b11"/><circle cx="99" cy="34" r="115" fill="#096b99"/><circle cx="62" cy="73" r="30" fill="#a8e3f8"/><circle cx="130" cy="73" r="28" fill="#90e4ff"/><circle cx="157" r="60" fill="#001f47"/><circle cx="48" r="53" fill="#001d40"/><circle cx="191" cy="138" r="42" fill="#001629"/><circle cx="13" cy="141" r="40" fill="#001f2e"/><circle cx="94" cy="67" r="19" fill="#98d5ea"/><circle cx="101" cy="225" r="102" fill="#00413e"/><circle cx="153" cy="73" r="30" fill="#45abda"/><circle cx="37" cy="74" r="31" fill="#6aa5cc"/><circle cx="139" cy="46" r="25" fill="#0d71a7"/><circle cx="195" r="65" fill="#023356"/><circle cx="131" cy="82" r="18" fill="#a7d2de"/><circle cx="73" cy="45" r="20" fill="#2c81b4"/><circle cx="99" cy="120" r="33" fill="#025478"/><circle cx="192" cy="71" r="27" fill="#0071b7"/><circle cx="136" cy="196" r="30" fill="#006956"/><circle cx="31" cy="52" r="23" fill="#256697"/><circle cx="68" cy="200" r="31" fill="#006251"/><circle cx="68" cy="83" r="15" fill="#a6d8e3"/><circle cx="14" r="37" fill="#13293e"/><circle cx="151" cy="91" r="13" fill="#89c3dd"/><circle cx="103" cy="118" r="14" fill="#2c8baf"/><circle cx="93" cy="255" r="65" fill="#073535"/><circle cx="114" cy="53" r="20" fill="#4a9bc4"/><circle cx="39" cy="90" r="14" fill="#8ec0d9"/><circle cx="186" r="28" fill="#1c2730"/><circle cx="179" cy="128" r="30" fill="#063146"/></g></svg>