<svg xmlns="http://www.w3.org/2000/svg" width="298" height="375"><rect width="100%" height="100%" fill="#536984"/><g fill-opacity=".5" transform="translate(.7 .7)scale(1.46)"><circle cx="102" cy="255" r="160" fill="#001b10"/><circle cx="105" cy="30" r="121" fill="#086997"/><circle cx="63" cy="73" r="30" fill="#a9e4f8"/><circle cx="128" cy="73" r="28" fill="#92e5ff"/><circle cx="156" r="60" fill="#002148"/><circle cx="47" r="52" fill="#001c3f"/><circle cx="186" cy="141" r="44" fill="#001c2d"/><circle cx="19" cy="142" r="41" fill="#002332"/><circle cx="153" cy="74" r="29" fill="#4ab0de"/><circle cx="33" cy="77" r="29" fill="#6ba6ce"/><circle cx="95" cy="65" r="20" fill="#8dcce4"/><circle cx="98" cy="252" r="125" fill="#00403d"/><circle cx="133" cy="47" r="25" fill="#177aaf"/><circle cx="98" cy="115" r="29" fill="#01577a"/><circle cx="130" cy="82" r="18" fill="#a6d1de"/><circle cx="191" cy="4" r="62" fill="#01355a"/><circle cx="64" cy="46" r="24" fill="#2b7bad"/><circle cx="114" cy="192" r="51" fill="#015550"/><circle cx="180" cy="71" r="28" fill="#0e7dbd"/><circle cx="152" cy="85" r="18" fill="#78b7d4"/><circle cx="66" cy="78" r="21" fill="#97cada"/><circle cx="24" cy="57" r="23" fill="#2b6a9b"/><circle cx="100" cy="114" r="9" fill="#4ca5c7"/><circle cx="1" r="37" fill="#132637"/><circle cx="40" cy="85" r="19" fill="#7cb5d0"/><circle cx="186" r="28" fill="#1d252e"/><circle cx="7" cy="253" r="54" fill="#0c2531"/><circle cx="145" cy="122" r="14" fill="#006994"/><circle cx="43" cy="126" r="11" fill="#107494"/><circle cx="58" cy="185" r="13" fill="#008266"/></g></svg>