<svg xmlns="http://www.w3.org/2000/svg" width="300" height="187"><rect width="100%" height="100%" fill="#5c8fa4"/><g fill-opacity=".5" transform="translate(.6 .6)scale(1.17)"><circle cx="202" cy="142" r="53" fill="#5d2a14"/><circle cx="145" cy="17" r="65" fill="#d5a988"/><circle cx="104" cy="159" r="39" fill="#ffdeb1"/><circle cx="33" cy="159" r="33" fill="#ffd6ac"/><circle cx="139" cy="28" r="18" fill="#ffb23f"/><circle cx="234" cy="115" r="31" fill="#4d97ab"/><circle cx="172" cy="31" r="17" fill="#ff911b"/><circle cx="105" cy="109" r="30" fill="#317388"/><circle cx="190" cy="106" r="16" fill="#950300"/><circle cx="215" cy="38" r="11" fill="#ff9815"/><circle cx="29" cy="109" r="31" fill="#346f85"/><circle cx="111" cy="28" r="14" fill="#ffae3d"/><circle cx="121" cy="65" r="26" fill="#5ea7d5"/><circle cx="190" r="21" fill="#167ec9"/><circle cx="56" cy="51" r="34" fill="#89abc8"/><circle cx="97" r="20" fill="#167ccb"/><circle cx="154" cy="100" r="27" fill="#437d8e"/><circle cx="175" cy="65" r="22" fill="#67abd6"/><circle cx="85" cy="31" r="10" fill="#ffcc52"/><circle cx="192" cy="32" r="13" fill="#ffa643"/><circle cx="193" cy="159" r="22" fill="#1b151d"/><circle cx="137" r="15" fill="#127dce"/><circle cx="183" cy="122" r="12" fill="#6b0000"/><circle cx="128" cy="159" r="23" fill="#f6d4b0"/><circle cx="73" cy="159" r="24" fill="#eed9c0"/><circle cx="232" cy="59" r="24" fill="#99afc0"/><circle cx="245" cy="134" r="10" fill="#cccbb6"/><circle cx="228" cy="159" r="20" fill="#231f26"/><circle cx="237" cy="107" r="28" fill="#32718a"/><circle cx="132" cy="28" r="16" fill="#ffab62"/></g></svg>