<svg xmlns="http://www.w3.org/2000/svg" width="300" height="187"><rect width="100%" height="100%" fill="#5c8fa4"/><g fill-opacity=".5"><path fill="#ffb03b" d="M65 42.8 167 4l151.2 55z"/><path fill="#5d1600" d="m318.2 204.5-152.4-21.1 62.1-89z"/><path fill="#fff5be" d="m-18.2 163.5 230.9-3.5-150 45.7z"/><path fill="#91afc9" d="m-18.2 95.5 332.8-2.3L46.3 22.9z"/><path fill="#ff9d4b" d="M284.2 48.6 167 12.3 80.3 42.8z"/><path fill="#8cc2c2" d="m225.6 161.1 17.6-37.5 75 44.6z"/><path fill="#f2cfb6" d="m206.8 205.7-62-50.4-163 28.1z"/><path fill="#840300" d="m205.7 161.1 55-56.2-48 1.2z"/><path fill="#3d84c3" d="m195.1-18.2 123 32.8-232 1.2z"/><path fill="#317289" d="M254.9 97.9-7.6 94.3l8.2 70.3z"/><path fill="#1c1e26" d="m258.4 205.7 59.8-36.4-151.2-1.1z"/><path fill="#216a82" d="m232.6 160 85.6-57.5-71.5-9.3z"/><path fill="#84aac9" d="M318.2 90.8 165.8 59.2l152.4-16.4z"/><path fill="#ffb170" d="M183.4 13.5 174 55.7 87.3 27.5z"/><path fill="#656b60" d="m162.3 154.1 31.6 8.2-16.4-106.6z"/><path fill="#ffe3c2" d="m256 160 44.6-3.6 17.6 15.3z"/><path fill="#750000" d="m229.1 149.4-35.2 8.2 43.4-53.9z"/><path fill="#ef8536" d="M267.8 54.5 157.6 41.6l78.5-16.4z"/><path fill="#4a86be" d="m-18.2 11.1 102 45.7 14-75z"/><path fill="#678785" d="m215 158.8-205 4.7 53.9-44.6z"/><path fill="#487e8e" d="m208 142.4 8.2-45.7-164 52.7z"/><path fill="#4c7c87" d="m220.9 154.1 97.3-61-16.4 65.7z"/><path fill="#f6b163" d="M223.2 19.3 181.1 58l62-12.9z"/><path fill="#5e98c5" d="m318.2 17-75-3.5 75 82z"/><path fill="#804e2a" d="m182.2 40.4-10.5 21.1 3.5 17.6z"/><path fill="#ffbc7a" d="m88.5 31 42.2-14-23.5 30.5z"/><path fill="#946132" d="m171.7 175.2-5.9-22.3 8.2-23.4z"/><path fill="#d0bdaf" d="m86.1 162.3-104.3 2.3 36.4 41z"/><path fill="#e4d3b7" d="m168.2 155.3-44.6 35.1 43.4 5.9z"/><path fill="#77a7c1" d="m209.2 63.9-32.8 43.3 3.5-62z"/><path fill="#508ab2" d="m136.5 10 157 18.7 15.3-46.9z"/><path fill="#1e82a6" d="m178.7 95.5-2.3 20 73.8-18.8z"/><path fill="#5b1300" d="m205.7 158.8-27-10.6 54-5.8z"/><path fill="#a3a89f" d="m236.1 149.4-38.6 12.9 66.8-1.2z"/><path fill="#ffa672" d="m217.4 20.5-85.6-4.7-10.5 32.8z"/><path fill="#843300" d="M245.5 52.1 255 44l-23.5 4.7z"/><path fill="#8c2900" d="m215 108.4 36.4-4.7-44.6 41z"/><path fill="#548ab5" d="m182.2 4.1-191-14 5.9 63.2z"/><path fill="#ba4800" d="M192.8 53.3 195 37h-12.9z"/><path fill="#39393d" d="m151.8 205.7 59.7-44.6 106.7 8.2z"/><path fill="#ffa742" d="m172.9 31-4.7 21.1L92 32.2z"/><path fill="#1e7496" d="m303 119-1.2-23.5-80.9 4.7z"/><path fill="#6a9cbc" d="m-18.2 69.7 167.6-14-136-29.3z"/><path fill="#8a8c88" d="m206.8 178.7-10.5-10.5 1.2-25.8z"/><path fill="#dd8d75" d="m177.5 33.4 83.2 3.5-41-16.4z"/><path fill="#8c948f" d="M68.6 163.5h-86.8l37.5-14z"/><path fill="#312730" d="m257.2 112-11.7 5.8L249 133z"/><path fill="#7ea7bc" d="m216.2 48.6 102 20-139.5 27z"/><path fill="#707d78" d="m187 150.6 24.5-23.5 2.4-31.6z"/><path fill="#734927" d="m169.3 116.6 5.9-30.5 2.3 17.6z"/></g></svg>