<svg xmlns="http://www.w3.org/2000/svg" width="300" height="187"><g filter="blur(10px)"><rect width="200%" height="200%" x="-50%" y="-50%" fill="#5c8fa4"/><rect width="100%" height="100%" fill="#5c8fa4"/><g fill-opacity=".5" transform="translate(.6 .6)scale(1.17)"><circle cx="203" cy="142" r="53" fill="#5c2a14"/><circle cx="144" cy="16" r="66" fill="#d4a989"/><circle cx="104" cy="159" r="39" fill="#ffdeb1"/><circle cx="33" cy="159" r="33" fill="#ffd6ac"/><circle cx="153" cy="30" r="20" fill="#ff9934"/><circle cx="235" cy="114" r="32" fill="#4c97ab"/><circle cx="117" cy="29" r="17" fill="#ffb14a"/><circle cx="105" cy="109" r="30" fill="#317388"/><circle cx="191" cy="106" r="16" fill="#950100"/><circle cx="214" cy="38" r="12" fill="#ff9920"/><circle cx="183" cy="32" r="15" fill="#ff9f2c"/><circle cx="29" cy="109" r="31" fill="#346f85"/><circle cx="117" cy="66" r="27" fill="#5ca6d4"/><circle cx="191" r="21" fill="#157ec9"/><circle cx="53" cy="51" r="35" fill="#86a9c9"/><circle cx="97" r="20" fill="#167cc9"/><circle cx="86" cy="31" r="11" fill="#ffc95b"/><circle cx="152" cy="99" r="29" fill="#467e8e"/><circle cx="184" cy="64" r="22" fill="#6fadd5"/><circle cx="194" cy="159" r="22" fill="#1b151d"/><circle cx="184" cy="122" r="11" fill="#6c0000"/><circle cx="155" r="16" fill="#1c7fc7"/><circle cx="73" cy="159" r="24" fill="#eed9c0"/><circle cx="232" cy="59" r="24" fill="#98afc0"/><circle cx="128" cy="159" r="23" fill="#f6d4b0"/><circle cx="137" cy="29" r="16" fill="#ffb45d"/><circle cx="247" cy="135" r="10" fill="#d0cbb5"/><circle cx="230" cy="159" r="20" fill="#252028"/><circle cx="241" cy="107" r="28" fill="#33748e"/><circle cx="127" r="14" fill="#137bc7"/></g></g></svg>