<svg xmlns="http://www.w3.org/2000/svg" width="300" height="188" viewBox="0 0 300 188"><g stroke-linecap="round"><path fill="rgba(78,136,174,255)" stroke="rgba(78,136,174,255)" d="M0 0h300L44 7 0 0"/><path fill="rgba(115,155,182,255)" stroke="rgba(115,155,182,255)" d="M0 188V0l44 7L0 188"/><path fill="rgba(122,160,185,255)" stroke="rgba(122,160,185,255)" d="M300 0v188L257 36l43-36"/><path fill="rgba(55,106,127,255)" stroke="rgba(55,106,127,255)" d="m300 188-27-16-16-136 43 152"/><path fill="rgba(124,160,184,255)" stroke="rgba(124,160,184,255)" d="M273 172 243 56l14-20 16 136"/><path fill="rgba(255,184,121,255)" stroke="rgba(255,184,121,255)" d="M243 56 44 7l213 29-14 20"/><path fill="rgba(78,137,177,255)" stroke="rgba(78,137,177,255)" d="m44 7 256-7-23 9L44 7"/><path fill="rgba(83,141,178,255)" stroke="rgba(83,141,178,255)" d="m300 0-43 36 20-27 23-9"/><path fill="rgba(132,153,184,255)" stroke="rgba(132,153,184,255)" d="M257 36 44 7l233 2-20 27"/><path fill="rgba(102,87,80,255)" stroke="rgba(102,87,80,255)" d="M300 188H0l241-20 59 20"/><path fill="rgba(71,70,76,255)" stroke="rgba(71,70,76,255)" d="m273 172 27 16-59-20 32 4"/><path fill="rgba(68,129,150,255)" stroke="rgba(68,129,150,255)" d="m243 56 30 116-32-4 2-112"/><path fill="rgba(79,131,153,255)" stroke="rgba(79,131,153,255)" d="M0 188 44 7l197 161L0 188"/><path fill="rgba(134,71,26,255)" stroke="rgba(134,71,26,255)" d="m44 7 199 49-2 112L44 7"/></g><rect width="100%" height="100%" fill="#5c8fa4"/></svg>