<svg xmlns="http://www.w3.org/2000/svg" width="300" height="188" viewBox="0 0 300 188"><g stroke-linecap="round"><path fill="rgba(83,136,178,255)" stroke="rgba(83,136,178,255)" d="M0 0h300l-89 15L0 0"/><path fill="rgba(83,141,181,255)" stroke="rgba(83,141,181,255)" d="m0 0 211 15-106 9L0 0"/><path fill="rgba(86,141,180,255)" stroke="rgba(86,141,180,255)" d="m0 0 105 24-28 7L0 0"/><path fill="rgba(64,128,163,255)" stroke="rgba(64,128,163,255)" d="M300 0v188l-5-87 5-101"/><path fill="rgba(103,150,196,255)" stroke="rgba(103,150,196,255)" d="m211 15 89-15-5 101-84-86"/><path fill="rgba(85,138,152,255)" stroke="rgba(85,138,152,255)" d="M300 188H0L138 60l162 128"/><path fill="rgba(242,184,97,255)" stroke="rgba(242,184,97,255)" d="m77 31 28-7 33 36-61-29"/><path fill="rgba(111,121,130,255)" stroke="rgba(111,121,130,255)" d="m295 101 5 87L138 60l157 41"/><path fill="rgba(255,165,99,255)" stroke="rgba(255,165,99,255)" d="m105 24 106-9-73 45-33-36"/><path fill="rgba(118,160,198,255)" stroke="rgba(118,160,198,255)" d="m211 15 84 86-157-41 73-45"/><path fill="rgba(121,155,180,255)" stroke="rgba(121,155,180,255)" d="M0 188V0l33 62L0 188"/><path fill="rgba(91,143,180,255)" stroke="rgba(91,143,180,255)" d="m0 0 77 31-44 31L0 0"/><path fill="rgba(109,158,190,255)" stroke="rgba(109,158,190,255)" d="m77 31 61 29-105 2 44-31"/><path fill="rgba(54,132,160,255)" stroke="rgba(54,132,160,255)" d="M138 60 0 188 33 62l105-2"/></g></svg>