<svg xmlns="http://www.w3.org/2000/svg" width="300" height="187"><rect width="100%" height="100%" fill="#5c8fa4"/><g fill-opacity=".5"><path fill="#ffb038" d="M313.5 56.8 172.9 6.4l-116 36.4z"/><path fill="#5c1600" d="M154.1 205.7 227.9 92l78.5 99.6z"/><path fill="#fff4be" d="m67.4 205.7-85.6-41 234.4-6z"/><path fill="#91afca" d="M305.3 94.3 52 25.2l-70.3 69.1z"/><path fill="#ffa04d" d="m279.5 49.8-123-37.5-72.7 32.8z"/><path fill="#95c8c5" d="m219.7 160 98.5 9.3-72.7-39.8z"/><path fill="#f3d0b7" d="m236.1 205.7-118.3-48-136 25.7z"/><path fill="#800" d="m212.7 108.4 48-4.7-53.9 57.4z"/><path fill="#30728a" d="m254.9 95.5-238 66.8-35-66.8z"/><path fill="#1d1f27" d="m295.9 205.7-134.8-37.5H303z"/><path fill="#216c84" d="M249 94.3 229.1 160l89-57.5z"/><path fill="#90aec5" d="M305.3 95.5V51H151.8z"/><path fill="#4184c2" d="M144.7-18.2 20.5 14.6 255 15.8z"/><path fill="#ffaf6e" d="m88.5 27.5 87.9 28.2 5.8-42.2z"/><path fill="#66685b" d="m176.4 52.1 17.5 109-29.3-3.5z"/><path fill="#fa8e4e" d="m190.4 55.7-11.7-41 80.9 19.9z"/><path fill="#f3d4b7" d="m298.2 155.3 20 16.4-66.8-13z"/><path fill="#771200" d="M188 153h37.6l22.3-50.5z"/><path fill="#4f89bd" d="m88.5 62.7-106.7-48 105.5-33z"/><path fill="#4c7c86" d="m79.1 143.6 125.4 2.3 12.9-41z"/><path fill="#5391c3" d="M212.7-18.2 318.2 94.3 307.6 1.8z"/><path fill="#4b7a84" d="m318.2 156.4-105.5 1.2 86.7-46.9z"/><path fill="#7c9085" d="M133 162.3H-8.8L72.1 140z"/><path fill="#d8cbb6" d="M182.2 205.7 25.2 167l143-5.9z"/><path fill="#ffbc7b" d="m134.2 17-29.3 31.6-17.6-17.5z"/><path fill="#a46c37" d="m169.3 187 7-20-8.1-23.4z"/><path fill="#9f4200" d="M253.7 53.3 236.1 51 248 38z"/><path fill="#6c9cbd" d="m-18.2 83.8 134.8-37.5-116-14z"/><path fill="#353335" d="m191.6 164.6-22.3 41 104.3-42.1z"/><path fill="#b74300" d="m174 40.4 20 8.2 1.1-12.9z"/><path fill="#cbbcad" d="m-18.2 162.3 37.5 43.4 59.8-41z"/><path fill="#1d84a8" d="m264.3 101.4-44.6-8.2-37.5 15.2z"/><path fill="#710a00" d="m199.8 157.6 35.2-12.9-8.2-41z"/><path fill="#e6946f" d="m215 18.2-53.9 11.7 116 15.2z"/><path fill="#7d4e32" d="m185.7 34.6-11.7 21 2.4 18.8z"/><path fill="#ffaf4f" d="M176.4 53.3 89.6 37l90.3-9.4z"/><path fill="#7ea7bd" d="m178.7 45.1 106.7 50.4-106.7-1.2z"/><path fill="#4e89b3" d="m257.2 24 61-42.2-174.6 30.5z"/><path fill="#8c9495" d="m198.6 171.7-9.3-16.4 24.6 4.7z"/><path fill="#f9ac91" d="m183.4 35.7-2.3-21-62.2 4.6z"/><path fill="#1a7091" d="m318.2 93.2-5.9 22.2-82-12.9z"/><path fill="#fae05c" d="m194 45.1 35.1 1.2-35.2 9.4z"/><path fill="#251d27" d="M254.9 110.7 244.3 126l10.6-2.4z"/><path fill="#aaa79d" d="m237.3 151.8 35.2 11.7-66.8-3.5z"/><path fill="#729eba" d="m265.4 51 49.2 65.6 3.6-102z"/><path fill="#e59a31" d="m249 33.4 17.6 22.3-15.2-1.2z"/><path fill="#849283" d="m108.4 161.1 73.8-2.3-46.8-11.7z"/><path fill="#3484a3" d="m178.7 96.7-2.3 51.5 37.5-52.7z"/><path fill="#5c888e" d="M318.2 157.6h-93.8l18.8-34z"/><path fill="#b45722" d="M115.4 44V32.1l13 1.2z"/></g></svg>