<svg xmlns="http://www.w3.org/2000/svg" width="300" height="188" viewBox="0 0 300 188"><g stroke-linecap="round"><path fill="rgba(208,190,164,255)" stroke="rgba(208,190,164,255)" d="M300 188H0l191-16 109 16"/><path fill="rgba(64,114,139,255)" stroke="rgba(64,114,139,255)" d="M0 188V0l76 173-76 15"/><path fill="rgba(213,208,190,255)" stroke="rgba(213,208,190,255)" d="M191 172 0 188l76-15 115-1"/><path fill="rgba(215,211,196,255)" stroke="rgba(215,211,196,255)" d="m189 170 2 2-115 1 113-3"/><path fill="rgba(92,144,155,255)" stroke="rgba(92,144,155,255)" d="m150 102 39 68-113 3 74-71"/><path fill="rgba(199,205,193,255)" stroke="rgba(199,205,193,255)" d="M0 0h300L119 53 0 0"/><path fill="rgba(56,128,151,255)" stroke="rgba(56,128,151,255)" d="m150 102-74 71 43-120 31 49"/><path fill="rgba(123,161,186,255)" stroke="rgba(123,161,186,255)" d="M76 173 0 0l119 53-43 120"/><path fill="rgba(122,160,185,255)" stroke="rgba(122,160,185,255)" d="M300 0v188L277 38l23-38"/><path fill="rgba(82,131,145,255)" stroke="rgba(82,131,145,255)" d="m300 188-109-16 86-134 23 150"/><path fill="rgba(133,22,1,255)" stroke="rgba(133,22,1,255)" d="m191 172-2-2 88-132-86 134"/><path fill="rgba(42,125,159,255)" stroke="rgba(42,125,159,255)" d="m189 170-39-68 127-64-88 132"/><path fill="rgba(123,163,175,255)" stroke="rgba(123,163,175,255)" d="m150 102-31-49 158-15-127 64"/><path fill="rgba(216,154,119,255)" stroke="rgba(216,154,119,255)" d="M119 53 300 0l-23 38-158 15"/></g></svg>