<svg xmlns="http://www.w3.org/2000/svg" width="300" height="188" viewBox="0 0 300 188"><g stroke-linecap="round"><path fill="rgba(118,154,178,255)" stroke="rgba(118,154,178,255)" d="M0 188V0l124 97L0 188"/><path fill="rgba(79,139,176,255)" stroke="rgba(79,139,176,255)" d="M0 0h300L96 24 0 0"/><path fill="rgba(103,154,185,255)" stroke="rgba(103,154,185,255)" d="M124 97 0 0l96 24 28 73"/><path fill="rgba(66,130,165,255)" stroke="rgba(66,130,165,255)" d="M300 0v188l-15-87L300 0"/><path fill="rgba(120,164,190,255)" stroke="rgba(120,164,190,255)" d="M124 97 96 24l88 55-60 18"/><path fill="rgba(238,149,83,255)" stroke="rgba(238,149,83,255)" d="M96 24 300 0 184 79 96 24"/><path fill="rgba(109,163,191,255)" stroke="rgba(109,163,191,255)" d="m300 0-15 101-101-22L300 0"/><path fill="rgba(65,117,138,255)" stroke="rgba(65,117,138,255)" d="m285 101 15 87-45-72 30-15"/><path fill="rgba(46,133,148,255)" stroke="rgba(46,133,148,255)" d="m184 79 101 22-30 15-71-37"/><path fill="rgba(198,195,180,255)" stroke="rgba(198,195,180,255)" d="M300 188H0l135-48 165 48"/><path fill="rgba(71,127,142,255)" stroke="rgba(71,127,142,255)" d="m0 188 124-91 11 43L0 188"/><path fill="rgba(131,106,84,255)" stroke="rgba(131,106,84,255)" d="m255 116 45 72-165-48 120-24"/><path fill="rgba(51,135,161,255)" stroke="rgba(51,135,161,255)" d="m124 97 60-18-49 61-11-43"/><path fill="rgba(55,126,146,255)" stroke="rgba(55,126,146,255)" d="m184 79 71 37-120 24 49-61"/></g></svg>