<svg xmlns="http://www.w3.org/2000/svg" width="300" height="187"><rect width="100%" height="100%" fill="#5c8fa4"/><g fill-opacity=".5" transform="translate(.6 .6)scale(1.17188)"><circle cx="201" cy="142" r="53" fill="#5d2a14"/><circle cx="145" cy="18" r="65" fill="#d4a989"/><circle cx="104" cy="159" r="39" fill="#ffdeb1"/><circle cx="33" cy="159" r="33" fill="#ffd6ac"/><circle cx="154" cy="31" r="21" fill="#ff9937"/><circle cx="233" cy="114" r="31" fill="#4c95a9"/><circle cx="117" cy="28" r="16" fill="#ffb244"/><circle cx="104" cy="109" r="30" fill="#317388"/><circle cx="192" cy="106" r="15" fill="#9a0000"/><circle cx="216" cy="38" r="11" fill="#ff9817"/><circle cx="184" cy="31" r="15" fill="#ff9e2f"/><circle cx="150" cy="81" r="39" fill="#4f8fae"/><circle cx="30" cy="110" r="31" fill="#356f85"/><circle cx="191" r="21" fill="#147eca"/><circle cx="55" cy="53" r="35" fill="#86a9c8"/><circle cx="99" r="20" fill="#197dc9"/><circle cx="86" cy="31" r="11" fill="#ffc95a"/><circle cx="108" cy="62" r="24" fill="#73add4"/><circle cx="194" cy="159" r="22" fill="#1b151d"/><circle cx="185" cy="121" r="11" fill="#6f0000"/><circle cx="156" r="15" fill="#137bc8"/><circle cx="191" cy="63" r="22" fill="#7eafd0"/><circle cx="138" cy="28" r="16" fill="#ffb45c"/><circle cx="245" cy="134" r="10" fill="#ccccb8"/><circle cx="73" cy="159" r="24" fill="#eed9c0"/><circle cx="127" cy="159" r="24" fill="#f3d3b1"/><circle cx="235" cy="57" r="24" fill="#98afc1"/><circle cx="237" cy="159" r="19" fill="#241f27"/><circle cx="140" cy="108" r="30" fill="#507a82"/><circle cx="239" cy="106" r="28" fill="#32738d"/></g></svg>