<svg xmlns="http://www.w3.org/2000/svg" width="300" height="187"><rect width="100%" height="100%" fill="#5c8fa4"/><g fill-opacity=".5"><path fill="#ffb139" d="m174 7.6 144.2 51.6L53.3 41.6z"/><path fill="#5c1700" d="m167 182.2 63.3-91.4 85.5 114.9z"/><path fill="#fff4be" d="m68.6 205.7-86.8-39.9 235.6-8.2z"/><path fill="#8fadc9" d="m-18.2 96.7 331.7-5.9-286-71.5z"/><path fill="#ffa050" d="m162.3 11.1 123 38.7L78 43.9z"/><path fill="#8fc5c6" d="m246.7 126 61 41-88-5.9z"/><path fill="#890000" d="m212.7 108.4-5.9 56.2 52.8-62z"/><path fill="#f1ceb5" d="m143.6 155.3-161.8 28.1L208 205.7z"/><path fill="#317289" d="m4.1 163.5-16.4-69.2 273 3.6z"/><path fill="#1c1d26" d="m318.2 168.2-150 1.1 105.4 36.4z"/><path fill="#7fa8c8" d="m318.2 95.5-18.8-62.1L187 95.5z"/><path fill="#1f6a83" d="m233.8 160 84.4-64.5-72.7 3.5z"/><path fill="#4283c0" d="M249 14.6 126-18.2 1.8 15.8z"/><path fill="#ffb06a" d="M182.2 55.7 146 12.3l-61 20z"/><path fill="#617a76" d="m201 158.8-156 3.5 172.3-57.4z"/><path fill="#f3d3b4" d="M318.2 171.7 251.4 160l49.2-5.9z"/><path fill="#508bbc" d="m82.6 52.1-100.8-9.3 123-61z"/><path fill="#720a00" d="m243.2 107.2-16.4 44.6-43.4 7z"/><path fill="#f78e51" d="m176.4 14.6 15.2 44.6 54-30.5z"/><path fill="#7d624e" d="M185.7 34.6 168.2 72l4.7 41z"/><path fill="#4a7a85" d="M213.9 157.6 308.8 99l-7 58.6z"/><path fill="#7eabc4" d="m177.5 52.1 54 51.6 18.7-51.6z"/><path fill="#cfc2b0" d="M7.6 205.7-14.6 154l193.3 25.8z"/><path fill="#518fc1" d="M312.3-7.6 206.8-18.2l104.3 99.6z"/><path fill="#77928d" d="m-18.2 163.5 159.4-2.4L61.5 139z"/><path fill="#9b2a00" d="m249 52.1 3.5-11.7-16.4 8.2z"/><path fill="#9a612e" d="m171.7 179.9 1.2-46.9-7 23.4z"/><path fill="#ffab5e" d="m181 15.8-92.5 20L176.4 52z"/><path fill="#d25a07" d="m174 37 16.4 11.6 18.8-12.9z"/><path fill="#881b00" d="M242 106h-29.3l18.7 43.4z"/><path fill="#333134" d="m272.5 164.6-61-1.1-62 42.2z"/><path fill="#4f87b3" d="m5.3 33.4-23.5-51.6 198 29.3z"/><path fill="#999b93" d="m257.2 163.5-59.7-3.5 44.5-9.4z"/><path fill="#f0a159" d="m187 52.1 83-10.5-55-22.3z"/><path fill="#fca78d" d="m182.2 38-73.8-15 71.5-8.3z"/><path fill="#76a7c2" d="M174 58 49.8 35.7 169.3 99z"/><path fill="#dad1ba" d="m167 205.7-92.6-21.1 93.8-24.6z"/><path fill="#561706" d="m235 143.6-30.5 15.2-27-10.6z"/><path fill="#838888" d="m185.7 162.3 17.6 11.7-4.7-25.8z"/><path fill="#7da5ba" d="m242 89.6-59.8-43.3-5.8 49.2z"/><path fill="#1e7ea1" d="M257.2 96.7 191.6 113l3.5-17.6z"/><path fill="#4d7e8f" d="m203.3 145.9 11.7-39.8-147.6 35.1z"/><path fill="#3a2f36" d="m245.5 113 11.7 1.3-9.3 19.9z"/><path fill="#7a9fb5" d="m290 24-62 70.3 90.2-2.3z"/><path fill="#4c808f" d="m318.2 135.4-75-13-16.4 32.9z"/><path fill="#a04406" d="m116.6 44 1.2-9.4 8.2-2.4z"/><path fill="#fff57b" d="m88.5 39.3 23.4-1.2-2.3 9.4z"/><path fill="#fbd760" d="m217.4 40.4 28.1 4.7-61 10.6z"/><path fill="#754924" d="m172.9 112 1.1-37.6 4.7 20z"/><path fill="#4e8594" d="m170.5 151.8-172.3-1.2 163-44.5z"/></g></svg>