<svg xmlns="http://www.w3.org/2000/svg" width="300" height="188" viewBox="0 0 300 188"><g stroke-linecap="round"><path fill="rgba(176,163,120,255)" stroke="rgba(176,163,120,255)" d="M0 0h300L138 50 0 0"/><path fill="rgba(122,160,183,255)" stroke="rgba(122,160,183,255)" d="M0 188V0l138 50L0 188"/><path fill="rgba(122,160,185,255)" stroke="rgba(122,160,185,255)" d="M300 0v188L272 38l28-38"/><path fill="rgba(226,154,106,255)" stroke="rgba(226,154,106,255)" d="M138 50 300 0 191 47l-53 3"/><path fill="rgba(97,148,175,255)" stroke="rgba(97,148,175,255)" d="m300 0-28 38-81 9L300 0"/><path fill="rgba(209,164,111,255)" stroke="rgba(209,164,111,255)" d="M300 188H0l205-18 95 18"/><path fill="rgba(118,154,178,255)" stroke="rgba(118,154,178,255)" d="m272 38 28 150-65-130 37-20"/><path fill="rgba(86,103,110,255)" stroke="rgba(86,103,110,255)" d="m300 188-95-18 30-112 65 130"/><path fill="rgba(245,224,111,255)" stroke="rgba(245,224,111,255)" d="m191 47 81-9-37 20-44-11"/><path fill="rgba(77,128,149,255)" stroke="rgba(77,128,149,255)" d="M0 188 138 50l35 107L0 188"/><path fill="rgba(208,204,187,255)" stroke="rgba(208,204,187,255)" d="M205 170 0 188l173-31 32 13"/><path fill="rgba(131,164,183,255)" stroke="rgba(131,164,183,255)" d="m138 50 53-3-18 110-35-107"/><path fill="rgba(126,164,187,255)" stroke="rgba(126,164,187,255)" d="m191 47 44 11-62 99 18-110"/><path fill="rgba(64,124,160,255)" stroke="rgba(64,124,160,255)" d="m235 58-30 112-32-13 62-99"/></g></svg>