<svg xmlns="http://www.w3.org/2000/svg" width="300" height="187"><rect width="100%" height="100%" fill="#5c8fa4"/><g fill-opacity=".5" transform="translate(.6 .6)scale(1.17188)"><circle cx="204" cy="143" r="54" fill="#5c2a15"/><circle cx="145" cy="19" r="63" fill="#d6a987"/><circle cx="104" cy="159" r="39" fill="#ffdeb1"/><circle cx="33" cy="159" r="33" fill="#ffd6ac"/><circle cx="153" cy="30" r="20" fill="#ff9935"/><circle cx="237" cy="113" r="34" fill="#4b95aa"/><circle cx="119" cy="28" r="16" fill="#ffb445"/><circle cx="214" cy="38" r="12" fill="#ff9920"/><circle cx="191" cy="104" r="15" fill="#900"/><circle cx="104" cy="109" r="30" fill="#317388"/><circle cx="184" cy="31" r="15" fill="#ff9e2e"/><circle cx="30" cy="109" r="31" fill="#346f85"/><circle cx="120" cy="65" r="26" fill="#5ea7d6"/><circle cx="190" r="21" fill="#167eca"/><circle cx="54" cy="51" r="36" fill="#86a9c7"/><circle cx="101" r="19" fill="#157cc9"/><circle cx="86" cy="30" r="11" fill="#ffc858"/><circle cx="184" cy="123" r="10" fill="#6e0000"/><circle cx="194" cy="159" r="22" fill="#1b151d"/><circle cx="183" cy="64" r="22" fill="#6eacd4"/><circle cx="154" cy="99" r="27" fill="#437c8d"/><circle cx="154" r="16" fill="#1c7fc8"/><circle cx="246" cy="134" r="10" fill="#cfccb8"/><circle cx="127" cy="159" r="24" fill="#f3d3b0"/><circle cx="71" cy="159" r="23" fill="#f0dbc1"/><circle cx="233" cy="59" r="24" fill="#98afc0"/><circle cx="107" cy="28" r="13" fill="#ffa753"/><circle cx="230" cy="159" r="20" fill="#252027"/><circle cx="134" cy="29" r="16" fill="#ffb15e"/><circle cx="239" cy="107" r="28" fill="#33748e"/></g></svg>