<svg xmlns="http://www.w3.org/2000/svg" width="300" height="187"><g filter="blur(10px)"><rect width="200%" height="200%" x="-50%" y="-50%" fill="#5c8fa4"/><rect width="100%" height="100%" fill="#5c8fa4"/><g fill-opacity=".5" transform="translate(.6 .6)scale(1.17)"><circle cx="205" cy="142" r="54" fill="#5b2b16"/><circle cx="145" cy="18" r="64" fill="#d6a988"/><circle cx="104" cy="159" r="39" fill="#ffdeb1"/><circle cx="33" cy="159" r="33" fill="#ffd6ac"/><circle cx="138" cy="29" r="18" fill="#ffb340"/><circle cx="235" cy="114" r="32" fill="#4c98ae"/><circle cx="172" cy="30" r="17" fill="#ff901b"/><circle cx="191" cy="105" r="16" fill="#960200"/><circle cx="102" cy="109" r="30" fill="#317388"/><circle cx="214" cy="38" r="12" fill="#ff9920"/><circle cx="30" cy="108" r="32" fill="#367087"/><circle cx="111" cy="28" r="14" fill="#ffae3e"/><circle cx="118" cy="65" r="27" fill="#60a7d4"/><circle cx="187" r="20" fill="#127ecc"/><circle cx="52" cy="50" r="37" fill="#85a8c7"/><circle cx="98" r="20" fill="#187dca"/><circle cx="89" cy="29" r="11" fill="#ffc45a"/><circle cx="193" cy="159" r="22" fill="#1c141c"/><circle cx="152" cy="100" r="29" fill="#457c8b"/><circle cx="175" cy="65" r="22" fill="#68acd6"/><circle cx="184" cy="122" r="11" fill="#6e0000"/><circle cx="193" cy="32" r="12" fill="#ffa53c"/><circle cx="135" r="15" fill="#147ecc"/><circle cx="71" cy="159" r="23" fill="#f0dbc1"/><circle cx="127" cy="159" r="24" fill="#f3d3b0"/><circle cx="235" cy="58" r="24" fill="#97afc1"/><circle cx="247" cy="135" r="10" fill="#d1cab3"/><circle cx="229" cy="159" r="20" fill="#241e26"/><circle cx="241" cy="107" r="28" fill="#33758f"/><circle cx="164" r="15" fill="#227dbf"/></g></g></svg>