<svg xmlns="http://www.w3.org/2000/svg" width="300" height="187"><rect width="100%" height="100%" fill="#5c8fa4"/><g fill-opacity=".5" transform="translate(.6 .6)scale(1.17)"><circle cx="203" cy="141" r="53" fill="#5c2b16"/><circle cx="145" cy="17" r="65" fill="#d5a988"/><circle cx="104" cy="159" r="39" fill="#ffdeb1"/><circle cx="33" cy="159" r="33" fill="#ffd6ac"/><circle cx="138" cy="28" r="18" fill="#ffb441"/><circle cx="173" cy="31" r="17" fill="#ff921c"/><circle cx="234" cy="114" r="32" fill="#4c96aa"/><circle cx="191" cy="106" r="16" fill="#950000"/><circle cx="102" cy="109" r="30" fill="#317388"/><circle cx="215" cy="38" r="11" fill="#ff9815"/><circle cx="30" cy="110" r="31" fill="#356f85"/><circle cx="111" cy="27" r="14" fill="#ffac40"/><circle cx="120" cy="65" r="26" fill="#5ea7d5"/><circle cx="190" r="21" fill="#167eca"/><circle cx="55" cy="52" r="35" fill="#87aac8"/><circle cx="98" r="20" fill="#167ccb"/><circle cx="87" cy="31" r="11" fill="#ffc959"/><circle cx="177" cy="65" r="22" fill="#66aad6"/><circle cx="156" cy="99" r="26" fill="#437d8c"/><circle cx="194" cy="159" r="22" fill="#1b141c"/><circle cx="194" cy="32" r="12" fill="#ffa43d"/><circle cx="136" r="15" fill="#117dce"/><circle cx="182" cy="123" r="11" fill="#6a0000"/><circle cx="127" cy="159" r="24" fill="#f3d3b0"/><circle cx="70" cy="159" r="23" fill="#f0dac0"/><circle cx="233" cy="59" r="24" fill="#98afc0"/><circle cx="246" cy="135" r="10" fill="#cfcab4"/><circle cx="237" cy="159" r="19" fill="#231e26"/><circle cx="240" cy="107" r="28" fill="#32748f"/><circle cx="162" r="14" fill="#187ac2"/></g></svg>