<svg xmlns="http://www.w3.org/2000/svg" width="300" height="187"><rect width="100%" height="100%" fill="#5c8fa4"/><g fill-opacity=".5"><path fill="#ffb039" d="m65 44 246.1 12.8L165.8 4.1z"/><path fill="#5c1500" d="m228 94.3 90.2 110.2L167 183.4z"/><path fill="#fff5be" d="m-18.2 164.6 232-5.8L71 205.7z"/><path fill="#94b0c8" d="m318.2 90.8-259-65.6-77.4 70.3z"/><path fill="#ff9f4b" d="M284.2 51 72 42.8l99.6-29.3z"/><path fill="#9eccc6" d="m212.7 160 37.5-24.6 68 32.8z"/><path fill="#880100" d="m204.5 170.5 52.7-65.6-43.3 2.3z"/><path fill="#f0ceb5" d="m147 154.1-165.2 29.3 221.5 22.3z"/><path fill="#307188" d="m-13.5 94.3-4.7 72.7 270.7-66.8z"/><path fill="#236d85" d="m230.3 160 16.4-65.7 71.5 8.2z"/><path fill="#1c1e26" d="m318.2 169.3-58.6 36.4-92.6-37.5z"/><path fill="#3e85c4" d="M184.6-18.2 59.2 10l234.4 10.5z"/><path fill="#86accb" d="m318.2 89.6-5.9-43.3-127.7 9.4z"/><path fill="#ffb06e" d="m175.2 54.5 7-42.2-99.6 17.6z"/><path fill="#60807e" d="m215 106-32.8 57.5L3 155.3z"/><path fill="#4e89bf" d="M-18.2 10 85 67.4l8.2-85.6z"/><path fill="#fd9d52" d="m218.6 19.3 50.3 23.5-85.5 12.9z"/><path fill="#ffe6c5" d="m260.7 160 57.5-3.6V173z"/><path fill="#805e47" d="m168.2 70.9 7 38.7 8.2-72.7z"/><path fill="#7e1200" d="m245.5 106-32.8 1.2 5.9 56.3z"/><path fill="#467b8a" d="m220.9 154.1 91.4 3.5-4.7-72.6z"/><path fill="#b86916" d="m247.9 38 23.4 18.8L236 51z"/><path fill="#739ebd" d="m318.2-.6-11.8 91.4-86.7 8.2z"/><path fill="#5f1000" d="m175.2 148.2 63.3-10.5-30.5 20z"/><path fill="#4a7e8f" d="m202.1 145.9 15.3-41-144.2 39.8z"/><path fill="#c4b3a4" d="M-18.2 204.5 96.7 160l-109-3.6z"/><path fill="#8a6e4d" d="m175.2 113-3.5 64.5-8.2-30.4z"/><path fill="#8ea19b" d="m192.8 163.5 32.8-11.7 35.1 7z"/><path fill="#db5406" d="m178.7 35.7 9.4 11.8 30.5-9.4z"/><path fill="#d9cfb9" d="m78 175.2 90.2-18.8v49.3z"/><path fill="#4b88b4" d="m108.4 17 209.8-7-95-28.2z"/><path fill="#6e9ebf" d="M-5.3 22.9 174 61.5l-186.3 13z"/><path fill="#ffaa5b" d="m179.9 52.1-54-34-41 15.3z"/><path fill="#1d7c9f" d="m177.5 116.6 13-21 65.6 1z"/><path fill="#7ea7c0" d="m172.9 95.5-136-9.4 134.8-32.8z"/><path fill="#393a3e" d="m151.8 204.5 64.4-44.5 102 10.5z"/><path fill="#7da8c1" d="m181 46.3-2.3 48 61 1.2z"/><path fill="#fca58b" d="m94.3 28.7 57.5-14 39.8 19.9z"/><path fill="#2d1c26" d="m256 109.6-4.6 21-4.7-11.7z"/><path fill="#668b8d" d="M-18.2 162.3 44 138.9l62.2 23.4z"/><path fill="#8f948d" d="m198.6 148.2 4.7 25.8-7 1.2z"/><path fill="#ffe876" d="m273.6 40.4-19.9 5.9-1.2 9.4z"/><path fill="#5c95be" d="m225.6 11.1 76.2 2.4 16.4 63.3z"/><path fill="#60898d" d="m243.2 121.3 66.8 36.3h-81z"/><path fill="#ecd7c2" d="m247.9 163.5-10.6-5.9 27 3.5z"/><path fill="#1e7395" d="M313.5 95.5 220.9 98l97.3 24.6z"/><path fill="#faed7c" d="m205.7 53.3 37.5-9.4-25.8-1.1z"/><path fill="#f39065" d="m215 20.5 13 27-72.7-28.2z"/><path fill="#fff477" d="m114.3 37-5.9 9.3-21.1-7z"/><path fill="#6e0900" d="m201 149.4 21 5.9 10.6-49.2z"/></g></svg>