<svg xmlns="http://www.w3.org/2000/svg" width="300" height="187"><rect width="100%" height="100%" fill="#5c8fa4"/><g fill-opacity=".5"><path fill="#ffb038" d="m301.8 55.7-252-13L181.1 6.5z"/><path fill="#5c1600" d="m229.1 93.2 89 109L167 183.3z"/><path fill="#fff7c0" d="m-18.2 164.6 118.4 41 102-45.6z"/><path fill="#8babc8" d="m11.1 99-29.3-89 336.4 78.5z"/><path fill="#ff9c4c" d="M287.7 51 80.3 41.6l92.6-29.3z"/><path fill="#a9d1c9" d="m318.2 167-116-7 59.7-20z"/><path fill="#7e0200" d="M213.9 108.4 202 186.9l50.4-84.4z"/><path fill="#f3cfb5" d="m-18.2 183.4 167.6-28.1 51.6 50.4z"/><path fill="#2e7189" d="m253.7 99-271.9-4.7L11.1 160z"/><path fill="#1e232a" d="M256 205.7 161.2 167l157 3.5z"/><path fill="#30748a" d="m318.2 138.9-96.1 21 42.2-75z"/><path fill="#84a7c1" d="M304.1 95.5 317 30 150.6 94.3z"/><path fill="#4387c2" d="M318.2 28.7 99 8.7l156-26.8z"/><path fill="#ffb26a" d="M181 55.7 86.2 32.2l64.5-21z"/><path fill="#676657" d="m194 153-18.8-96.2-8.2 104.3z"/><path fill="#4886be" d="m-18.2 22.9 125.4-41-27 72.6z"/><path fill="#f9964f" d="m187 55.7 3.4-39.9 75 23.5z"/><path fill="#186f92" d="M318.2 126 205.7 95.5h112.5z"/><path fill="#cfbead" d="m-18.2 163.5 133.6-3.5-96 45.7z"/><path fill="#ffe3c3" d="m310 156.4-4.7 13-45.7-8.3z"/><path fill="#648685" d="m135.4 115.4 58.5 43.4-212 4.7z"/><path fill="#7e0900" d="m233.8 143.6-37.5 15.2 28.1-52.7z"/><path fill="#467e92" d="m218.6 90.8-11.8 52.8L25.2 147z"/><path fill="#b4a998" d="m169.3 171.7 49.3-13-65.7-1z"/><path fill="#58858d" d="m266.6 116.6 44.5 39.8-94.9 1.2z"/><path fill="#80abc2" d="m247.9 51-71.5 51.5 5.8-48z"/><path fill="#ffab8e" d="M179.9 35.7 107.2 23l77.4-9.4z"/><path fill="#8b2600" d="m250.2 42.8-16.4 7 15.2 2.3z"/><path fill="#c94f00" d="M202.1 35.7h-28l17.5 14.1z"/><path fill="#4987b7" d="m117.8-14.6 91.4 30.4-126.6-1.2z"/><path fill="#343639" d="m156.4 205.7 51.6-42.2h66.8z"/><path fill="#845636" d="m176.4 82.6-3.5-27 10.5-17.5z"/><path fill="#2c2d35" d="m253.7 127.1-11.7-5.8 14-17.6z"/><path fill="#649bc1" d="m306.4 21.7 11.8 78.5L247.9 17z"/><path fill="#ffae50" d="M168.2 52.1 87.3 37l100.8-10.5z"/><path fill="#8a2200" d="m245.5 106-35.1 1.2 18.7 39.9z"/><path fill="#df9e5f" d="m272.5 42.8-51.6-22.3 32.8 36.3z"/><path fill="#8e5a27" d="m170.5 155.3-2.3 25.8 8.2-2.4z"/><path fill="#5c8e90" d="m247.9 161.1-2.4-58.6-10.5 44.6z"/><path fill="#e3d3b6" d="m167 205.7-32.8-13 34-34z"/><path fill="#2183a5" d="M179.9 114.3 249 99l-71.5-3.5z"/><path fill="#581402" d="m199.8 158.8 34-14-52.7 3.4z"/><path fill="#ffd47b" d="M104.9 25.2 86 42.8l29.3 2.3z"/><path fill="#97a29c" d="m194 164.6 10.5 11.8-5.9-28.2z"/><path fill="#d5c9b9" d="m236.1 158.8 22.3 5.8 11.7-7z"/><path fill="#f8da5e" d="m194 42.8 41 4.7-39.9 7z"/><path fill="#5389b2" d="M-18.2 56.8 184.6 3-17-14.6z"/><path fill="#679bbc" d="M88.5 15.8 85 66.2-18.2 48.6z"/><path fill="#7fa7be" d="m171.7 89.6-23.5-42.1L-6.4 90.8z"/><path fill="#79a4bb" d="m240.8 100.2-63.3-17.6 3.6-37.5z"/></g></svg>