<svg xmlns="http://www.w3.org/2000/svg" width="300" height="188" viewBox="0 0 300 188"><g stroke-linecap="round"><path fill="rgba(55,124,157,255)" stroke="rgba(55,124,157,255)" d="M300 0v188l-56-78L300 0"/><path fill="rgba(112,146,171,255)" stroke="rgba(112,146,171,255)" d="M0 188V0l9 98-9 90"/><path fill="rgba(102,147,180,255)" stroke="rgba(102,147,180,255)" d="m0 0 13 36-4 62L0 0"/><path fill="rgba(83,141,152,255)" stroke="rgba(83,141,152,255)" d="m0 188 9-90 122 51L0 188"/><path fill="rgba(216,212,199,255)" stroke="rgba(216,212,199,255)" d="M300 188H0l186-17 114 17"/><path fill="rgba(211,206,186,255)" stroke="rgba(211,206,186,255)" d="m0 188 131-39 55 22L0 188"/><path fill="rgba(105,145,137,255)" stroke="rgba(105,145,137,255)" d="m244 110 56 78-114-17 58-61"/><path fill="rgba(87,133,148,255)" stroke="rgba(87,133,148,255)" d="m131 149 113-39-58 61-55-22"/><path fill="rgba(86,142,179,255)" stroke="rgba(86,142,179,255)" d="M0 0h300L127 47 0 0"/><path fill="rgba(91,143,180,255)" stroke="rgba(91,143,180,255)" d="M13 36 0 0l127 47L13 36"/><path fill="rgba(112,171,177,255)" stroke="rgba(112,171,177,255)" d="m300 0-56 110-117-63L300 0"/><path fill="rgba(53,128,160,255)" stroke="rgba(53,128,160,255)" d="m244 110-113 39-4-102 117 63"/><path fill="rgba(113,158,187,255)" stroke="rgba(113,158,187,255)" d="m9 98 4-62 114 11L9 98"/><path fill="rgba(67,128,159,255)" stroke="rgba(67,128,159,255)" d="M131 149 9 98l118-51 4 102"/></g></svg>