<svg xmlns="http://www.w3.org/2000/svg" width="300" height="188" viewBox="0 0 300 188"><g filter="blur(20px)"><rect width="200%" height="200%" x="-50%" y="-50%" fill="#5c8fa4"/><g stroke-linecap="round"><path fill="rgba(70,121,148,255)" stroke="rgba(70,121,148,255)" d="M0 188V0l54 149-54 39"/><path fill="rgba(209,201,175,255)" stroke="rgba(209,201,175,255)" d="M300 188H0l163-31 137 31"/><path fill="rgba(197,194,179,255)" stroke="rgba(197,194,179,255)" d="m0 188 54-39 109 8L0 188"/><path fill="rgba(117,161,187,255)" stroke="rgba(117,161,187,255)" d="M54 149 0 0l206 46L54 149"/><path fill="rgba(73,127,151,255)" stroke="rgba(73,127,151,255)" d="m163 157-109-8L206 46l-43 111"/><path fill="rgba(66,135,166,255)" stroke="rgba(66,135,166,255)" d="m163 157 43-111 20 50-63 61"/><path fill="rgba(85,110,131,255)" stroke="rgba(85,110,131,255)" d="M0 0h300l-55 31L0 0"/><path fill="rgba(233,151,113,255)" stroke="rgba(233,151,113,255)" d="M206 46 0 0l245 31-39 15"/><path fill="rgba(126,161,165,255)" stroke="rgba(126,161,165,255)" d="m226 96-20-50 39-15-19 65"/><path fill="rgba(117,153,177,255)" stroke="rgba(117,153,177,255)" d="M300 0v188l-55-91 55-97"/><path fill="rgba(109,131,145,255)" stroke="rgba(109,131,145,255)" d="m300 188-137-31 82-60 55 91"/><path fill="rgba(95,129,138,255)" stroke="rgba(95,129,138,255)" d="m163 157 63-61 19 1-82 60"/><path fill="rgba(123,164,186,255)" stroke="rgba(123,164,186,255)" d="m226 96 19-65v66l-19-1"/><path fill="rgba(230,146,73,255)" stroke="rgba(230,146,73,255)" d="m245 31 55-31-55 97V31"/></g></g></svg>