<svg xmlns="http://www.w3.org/2000/svg" width="300" height="187"><rect width="100%" height="100%" fill="#5c8fa4"/><g fill-opacity=".5" transform="translate(.6 .6)scale(1.17188)"><circle cx="201" cy="139" r="50" fill="#5c2711"/><circle cx="146" cy="20" r="63" fill="#d5a988"/><circle cx="104" cy="159" r="39" fill="#ffdeb1"/><circle cx="33" cy="159" r="33" fill="#ffd6ac"/><circle cx="137" cy="28" r="18" fill="#ffb542"/><circle cx="171" cy="31" r="17" fill="#ff8f1a"/><circle cx="232" cy="114" r="30" fill="#4c96a9"/><circle cx="102" cy="109" r="30" fill="#317388"/><circle cx="215" cy="38" r="12" fill="#ff9821"/><circle cx="193" cy="105" r="15" fill="#9a0000"/><circle cx="31" cy="109" r="31" fill="#346f86"/><circle cx="110" cy="29" r="14" fill="#ffaf40"/><circle cx="119" cy="63" r="25" fill="#62aad7"/><circle cx="55" cy="51" r="35" fill="#88aac8"/><circle cx="187" r="20" fill="#137eca"/><circle cx="86" cy="30" r="11" fill="#ffc858"/><circle cx="100" r="19" fill="#157cca"/><circle cx="174" cy="67" r="23" fill="#5ca6d3"/><circle cx="191" cy="32" r="13" fill="#ffa642"/><circle cx="154" cy="99" r="27" fill="#447c8b"/><circle cx="184" cy="122" r="11" fill="#6f0000"/><circle cx="194" cy="159" r="22" fill="#1b161f"/><circle cx="135" r="15" fill="#117dce"/><circle cx="242" cy="159" r="18" fill="#241c22"/><circle cx="128" cy="159" r="23" fill="#f6d4b0"/><circle cx="244" cy="135" r="11" fill="#c5c3b0"/><circle cx="73" cy="159" r="24" fill="#eed9c0"/><circle cx="234" cy="58" r="24" fill="#98afc1"/><circle cx="232" cy="107" r="28" fill="#357289"/><circle cx="215" cy="124" r="18" fill="#759b9c"/></g></svg>