<svg xmlns="http://www.w3.org/2000/svg" width="300" height="187"><rect width="100%" height="100%" fill="#5c8fa4"/><g fill-opacity=".5" transform="translate(.6 .6)scale(1.17188)"><circle cx="201" cy="140" r="51" fill="#5c2812"/><circle cx="145" cy="19" r="63" fill="#d6a987"/><circle cx="104" cy="159" r="39" fill="#ffdeb1"/><circle cx="33" cy="159" r="33" fill="#ffd6ac"/><circle cx="138" cy="28" r="18" fill="#ffb441"/><circle cx="173" cy="31" r="17" fill="#ff921c"/><circle cx="233" cy="114" r="31" fill="#4c95a8"/><circle cx="214" cy="38" r="12" fill="#ff9920"/><circle cx="104" cy="109" r="30" fill="#317388"/><circle cx="192" cy="105" r="15" fill="#9a0000"/><circle cx="29" cy="109" r="31" fill="#346f85"/><circle cx="110" cy="28" r="14" fill="#ffae3e"/><circle cx="119" cy="67" r="28" fill="#5ca5d1"/><circle cx="56" cy="51" r="35" fill="#89aac7"/><circle cx="187" r="20" fill="#137ecb"/><circle cx="100" r="19" fill="#127bcb"/><circle cx="88" cy="31" r="11" fill="#ffc758"/><circle cx="177" cy="65" r="22" fill="#66aad6"/><circle cx="155" cy="99" r="26" fill="#437c8c"/><circle cx="194" cy="159" r="22" fill="#1b161e"/><circle cx="185" cy="120" r="12" fill="#720000"/><circle cx="137" r="15" fill="#127dce"/><circle cx="194" cy="32" r="12" fill="#ffa43f"/><circle cx="239" cy="159" r="18" fill="#221c23"/><circle cx="127" cy="159" r="24" fill="#f3d3b0"/><circle cx="73" cy="159" r="24" fill="#eed9c0"/><circle cx="243" cy="134" r="11" fill="#c1c4b2"/><circle cx="232" cy="59" r="24" fill="#98afc0"/><circle cx="238" cy="107" r="28" fill="#31728b"/><circle cx="145" cy="28" r="16" fill="#ff9c55"/></g></svg>