<svg xmlns="http://www.w3.org/2000/svg" width="300" height="188" viewBox="0 0 300 188"><g stroke-linecap="round"><path fill="rgba(210,201,180,255)" stroke="rgba(210,201,180,255)" d="M300 188H0l152-35 148 35"/><path fill="rgba(63,127,153,255)" stroke="rgba(63,127,153,255)" d="M0 188V0l33 140-33 48"/><path fill="rgba(115,140,147,255)" stroke="rgba(115,140,147,255)" d="M152 153 0 188l33-48 119 13"/><path fill="rgba(110,159,189,255)" stroke="rgba(110,159,189,255)" d="m0 0 135 61-17 35L0 0"/><path fill="rgba(122,160,181,255)" stroke="rgba(122,160,181,255)" d="M33 140 0 0l118 96-85 44"/><path fill="rgba(57,137,164,255)" stroke="rgba(57,137,164,255)" d="m135 61 17 92-34-57 17-35"/><path fill="rgba(82,133,154,255)" stroke="rgba(82,133,154,255)" d="M152 153 33 140l85-44 34 57"/><path fill="rgba(53,123,149,255)" stroke="rgba(53,123,149,255)" d="M300 0v188l-24-45L300 0"/><path fill="rgba(206,197,174,255)" stroke="rgba(206,197,174,255)" d="m300 188-148-35 124-10 24 45"/><path fill="rgba(59,119,137,255)" stroke="rgba(59,119,137,255)" d="m152 153-17-92 141 82-124 10"/><path fill="rgba(80,140,177,255)" stroke="rgba(80,140,177,255)" d="M0 0h300L149 27 0 0"/><path fill="rgba(210,180,166,255)" stroke="rgba(210,180,166,255)" d="M135 61 0 0l149 27-14 34"/><path fill="rgba(125,154,198,255)" stroke="rgba(125,154,198,255)" d="m300 0-24 143L149 27 300 0"/><path fill="rgba(135,162,183,255)" stroke="rgba(135,162,183,255)" d="M276 143 135 61l14-34 127 116"/></g></svg>