<svg xmlns="http://www.w3.org/2000/svg" width="300" height="187"><rect width="100%" height="100%" fill="#5c8fa4"/><g fill-opacity=".5" transform="translate(.6 .6)scale(1.17188)"><circle cx="204" cy="142" r="54" fill="#5b2b16"/><circle cx="145" cy="19" r="63" fill="#d6a987"/><circle cx="104" cy="159" r="39" fill="#ffdeb1"/><circle cx="33" cy="159" r="33" fill="#ffd6ac"/><circle cx="153" cy="30" r="20" fill="#ff9935"/><circle cx="236" cy="112" r="33" fill="#4b96ac"/><circle cx="191" cy="106" r="16" fill="#960100"/><circle cx="214" cy="38" r="12" fill="#ff9920"/><circle cx="119" cy="28" r="16" fill="#ffb445"/><circle cx="103" cy="109" r="30" fill="#317388"/><circle cx="182" cy="31" r="15" fill="#ff9c2b"/><circle cx="30" cy="109" r="31" fill="#346f85"/><circle cx="118" cy="69" r="30" fill="#5aa2cc"/><circle cx="57" cy="51" r="35" fill="#8aabc7"/><circle cx="190" r="21" fill="#177fca"/><circle cx="86" cy="31" r="11" fill="#ffc956"/><circle cx="101" r="19" fill="#157cc9"/><circle cx="154" cy="98" r="28" fill="#457e8e"/><circle cx="194" cy="159" r="22" fill="#1c141c"/><circle cx="181" cy="65" r="23" fill="#6cabd3"/><circle cx="185" cy="122" r="11" fill="#6d0000"/><circle cx="155" r="15" fill="#137bc9"/><circle cx="71" cy="159" r="23" fill="#f0dbc1"/><circle cx="234" cy="58" r="24" fill="#98afc0"/><circle cx="127" cy="159" r="24" fill="#f3d3b0"/><circle cx="246" cy="134" r="10" fill="#ceccb7"/><circle cx="109" cy="28" r="13" fill="#ffa750"/><circle cx="232" cy="159" r="19" fill="#221e26"/><circle cx="139" cy="29" r="16" fill="#ffb35e"/><circle cx="129" r="14" fill="#167cc6"/></g></svg>