<svg xmlns="http://www.w3.org/2000/svg" width="300" height="187"><g filter="blur(10px)"><rect width="200%" height="200%" x="-50%" y="-50%" fill="#5c8fa4"/><rect width="100%" height="100%" fill="#5c8fa4"/><g fill-opacity=".5" transform="translate(.6 .6)scale(1.17)"><circle cx="201" cy="141" r="52" fill="#5c2913"/><circle cx="143" cy="17" r="65" fill="#d5a989"/><circle cx="104" cy="159" r="39" fill="#ffdeb1"/><circle cx="33" cy="159" r="33" fill="#ffd6ac"/><circle cx="153" cy="31" r="21" fill="#ff9a38"/><circle cx="235" cy="113" r="32" fill="#4a94a8"/><circle cx="213" cy="38" r="12" fill="#ff991f"/><circle cx="118" cy="28" r="16" fill="#ffb344"/><circle cx="102" cy="109" r="30" fill="#317388"/><circle cx="192" cy="106" r="15" fill="#9a0000"/><circle cx="184" cy="32" r="15" fill="#ffa02e"/><circle cx="30" cy="109" r="31" fill="#346f85"/><circle cx="147" cy="79" r="40" fill="#5191af"/><circle cx="188" r="20" fill="#127dc9"/><circle cx="49" cy="50" r="37" fill="#82a7c8"/><circle cx="96" r="20" fill="#157cc9"/><circle cx="106" cy="61" r="24" fill="#76aed4"/><circle cx="87" cy="31" r="11" fill="#ffc95c"/><circle cx="194" cy="159" r="22" fill="#1b151e"/><circle cx="184" cy="121" r="11" fill="#6f0000"/><circle cx="192" cy="63" r="22" fill="#7fafd0"/><circle cx="139" cy="29" r="17" fill="#ffb35e"/><circle cx="154" r="15" fill="#147cc7"/><circle cx="73" cy="159" r="24" fill="#eed9c0"/><circle cx="146" cy="110" r="31" fill="#55797e"/><circle cx="127" cy="159" r="24" fill="#f4d4b1"/><circle cx="236" cy="58" r="24" fill="#97aec1"/><circle cx="237" cy="159" r="19" fill="#262027"/><circle cx="246" cy="135" r="10" fill="#d2ccb5"/><circle cx="126" r="14" fill="#107bc7"/></g></g></svg>