<svg xmlns="http://www.w3.org/2000/svg" width="300" height="188" viewBox="0 0 300 188"><g filter="blur(20px)"><rect width="200%" height="200%" x="-50%" y="-50%" fill="#5c8fa4"/><g stroke-linecap="round"><path fill="rgba(209,164,111,255)" stroke="rgba(209,164,111,255)" d="M300 188H0l205-19 95 19"/><path fill="rgba(255,165,112,255)" stroke="rgba(255,165,112,255)" d="M0 0h300L158 61 0 0"/><path fill="rgba(73,127,155,255)" stroke="rgba(73,127,155,255)" d="M0 188V0l123 151L0 188"/><path fill="rgba(121,163,187,255)" stroke="rgba(121,163,187,255)" d="m0 0 158 61-35 90L0 0"/><path fill="rgba(213,208,188,255)" stroke="rgba(213,208,188,255)" d="M205 169 0 188l123-37 82 18"/><path fill="rgba(101,151,142,255)" stroke="rgba(101,151,142,255)" d="m218 153-13 16-82-18 95 2"/><path fill="rgba(79,134,152,255)" stroke="rgba(79,134,152,255)" d="m158 61 60 92-95-2 35-90"/><path fill="rgba(118,154,178,255)" stroke="rgba(118,154,178,255)" d="M300 0v188l-19-88L300 0"/><path fill="rgba(31,126,156,255)" stroke="rgba(31,126,156,255)" d="m218 153-60-92 123 39-63 53"/><path fill="rgba(139,104,98,255)" stroke="rgba(139,104,98,255)" d="M158 61 300 0l-19 100-123-39"/><path fill="rgba(57,56,62,255)" stroke="rgba(57,56,62,255)" d="m300 188-95-19 69-1 26 20"/><path fill="rgba(81,84,79,255)" stroke="rgba(81,84,79,255)" d="m205 169 13-16 56 15-69 1"/><path fill="rgba(72,136,148,255)" stroke="rgba(72,136,148,255)" d="m218 153 63-53-7 68-56-15"/><path fill="rgba(103,143,153,255)" stroke="rgba(103,143,153,255)" d="m281 100 19 88-26-20 7-68"/></g></g></svg>