<svg xmlns="http://www.w3.org/2000/svg" width="300" height="187"><rect width="100%" height="100%" fill="#5c8fa4"/><g fill-opacity=".5" transform="translate(.6 .6)scale(1.17)"><circle cx="204" cy="142" r="54" fill="#5b2b16"/><circle cx="143" cy="18" r="64" fill="#d5a988"/><circle cx="104" cy="159" r="39" fill="#ffdeb1"/><circle cx="33" cy="159" r="33" fill="#ffd6ac"/><circle cx="139" cy="28" r="18" fill="#ffb23f"/><circle cx="236" cy="120" r="25" fill="#61abbe"/><circle cx="172" cy="31" r="17" fill="#ff911b"/><circle cx="213" cy="37" r="12" fill="#ff9a1f"/><circle cx="104" cy="109" r="30" fill="#317388"/><circle cx="191" cy="105" r="15" fill="#9b0000"/><circle cx="111" cy="28" r="14" fill="#ffae3d"/><circle cx="30" cy="110" r="31" fill="#356f85"/><circle cx="119" cy="66" r="27" fill="#5ca6d3"/><circle cx="186" r="20" fill="#147ecb"/><circle cx="55" cy="52" r="34" fill="#87aac9"/><circle cx="97" r="20" fill="#157ccb"/><circle cx="177" cy="65" r="22" fill="#68abd5"/><circle cx="194" cy="159" r="22" fill="#1c141c"/><circle cx="87" cy="30" r="11" fill="#ffc85b"/><circle cx="152" cy="100" r="29" fill="#477c8a"/><circle cx="183" cy="122" r="11" fill="#6f0000"/><circle cx="191" cy="31" r="13" fill="#ffa447"/><circle cx="137" r="15" fill="#127dce"/><circle cx="237" cy="101" r="23" fill="#226e8e"/><circle cx="232" cy="59" r="24" fill="#9ab0bf"/><circle cx="127" cy="159" r="24" fill="#f3d3b0"/><circle cx="73" cy="159" r="24" fill="#eed9c0"/><circle cx="231" cy="159" r="19" fill="#211d25"/><circle cx="250" cy="136" r="8" fill="#e5dbbf"/><circle cx="214" cy="124" r="17" fill="#6a9da2"/></g></svg>