<svg xmlns="http://www.w3.org/2000/svg" width="300" height="187"><rect width="100%" height="100%" fill="#5c8fa4"/><g fill-opacity=".5"><path fill="#ffb037" d="M162.3 5.3 69.7 43.9l248.5 13z"/><path fill="#5b1500" d="M318.2 205.7 226.8 90.8l-56.3 91.4z"/><path fill="#fff2bc" d="m67.4 205.7 157-48-242.6 8.1z"/><path fill="#ff9d50" d="M76.8 41.6 285.4 51 175.2 12.3z"/><path fill="#8badc9" d="M310 73.2 38 103.7-18.1 23z"/><path fill="#91c7c6" d="m308.8 168.2-89-8.2 26.9-32.9z"/><path fill="#870200" d="m215 108.4 45.7-7-60.9 69.1z"/><path fill="#2e7189" d="m20.5 160 239-62.1-277.7-2.4z"/><path fill="#f0ceb5" d="m153 155.3-171.2 28.1 218 22.3z"/><path fill="#1d1e25" d="m165.8 168.2 152.4 1.1-66.8 36.4z"/><path fill="#86a8c4" d="M310 33.4 150.6 93.2 297 95.5z"/><path fill="#226b83" d="m233.8 162.3 84.4-61-72.7-5.8z"/><path fill="#ffb16e" d="m85 29.9 92.5-17.6-2.3 42.2z"/><path fill="#3f85c2" d="m172.9-18.2-122 32.8 245 1.2z"/><path fill="#617e7b" d="m6.4 158.8 215.7-55-32.8 57.3z"/><path fill="#ffdcbc" d="m300.6 156.4 17.6 16.5-63.3-13z"/><path fill="#86491c" d="m170.5 68.6 9.4-24.7-3.5 51.6z"/><path fill="#fa9f52" d="m267.8 42.8-50.4-23.5-32.8 37.5z"/><path fill="#751300" d="m182.2 160 51.6-11.8 7-42.1z"/><path fill="#5289b9" d="M-3-18.2 143.7-.6-7.6 80.3z"/><path fill="#cbbbac" d="m119 158.8-137.2 3.5 34 43.4z"/><path fill="#467b8a" d="m299.4 157.6 5.9-70.3-79.7 63.3z"/><path fill="#5592c1" d="m318.2 90.8-75-73.8L297-18.2z"/><path fill="#db5905" d="m190.4 49.8-11.7-12.9 37.5-1.2z"/><path fill="#ffbe79" d="m130.7 17-22.3 30.5-24.6-14.1z"/><path fill="#80654b" d="m195.1 147-25.8 35.2v-44.5z"/><path fill="#749ebb" d="m-18.2 92 105.5 3.5V7.6z"/><path fill="#3a393e" d="m167 205.7 151.2-36.4-125.4-7z"/><path fill="#8f2d00" d="m237.3 48.6 14 4.7-1.1-11.7z"/><path fill="#871200" d="m211.5 106 30.5 1.2-15.2 39.9z"/><path fill="#78a8c0" d="m231.4 103.7-52.7-48 57.4-5.9z"/><path fill="#497f93" d="m212.7 104.9-5.9 39.8H66.2z"/><path fill="#e1cfb1" d="m185.7 155.3-89 49.2 48 1.2z"/><path fill="#7d969a" d="m189.3 156.4 9.3 16.5 14.1-15.3z"/><path fill="#81a8be" d="m175.2 51-143 30.4 138.3 14.1z"/><path fill="#ffc250" d="m120.1 45.1 34-16.4L176.4 51z"/><path fill="#765d42" d="m174 82.6 4.7 25.8-10.5 23.4z"/><path fill="#6f8e8c" d="m107.2 158.8-125.4 5.8L25.2 140z"/><path fill="#fea986" d="M213.9 20.5 133 35.7l4.7-21z"/><path fill="#207699" d="m305.3 94.3 1.1 25.8-96-22.2z"/><path fill="#4f8bb3" d="m39.3 24 118.3-42.2 20 31.7z"/><path fill="#4b0000" d="m225.6 150.6 1.2-23.5-27 31.7z"/><path fill="#d3c5b3" d="m231.4 158.8 22.3 4.7 16.4-7z"/><path fill="#373037" d="M258.4 109.6 246.7 140v-25.7z"/><path fill="#fa8936" d="m124.8 41.6 29.3-10.5-64.5 2.3z"/><path fill="#4f7e92" d="M179.9 127.1 1.8 156.4l-20-49.2z"/><path fill="#638a8d" d="M223.2 158.8h95l-75-34z"/><path fill="#984c07" d="m265.4 48.6 1.2 7h-10.5z"/><path fill="#6c9ebf" d="m188 45.1-8 24.6-1.2-24.6z"/><path fill="#493935" d="m211.5 162.3-11.7 43.4-29.3-34z"/></g></svg>