<svg xmlns="http://www.w3.org/2000/svg" width="300" height="187"><rect width="100%" height="100%" fill="#5c8fa4"/><g fill-opacity=".5" transform="translate(.6 .6)scale(1.17)"><circle cx="202" cy="140" r="51" fill="#5c2812"/><circle cx="146" cy="19" r="63" fill="#d6a987"/><circle cx="104" cy="159" r="39" fill="#ffdeb1"/><circle cx="33" cy="159" r="33" fill="#ffd6ac"/><circle cx="153" cy="30" r="20" fill="#ff9935"/><circle cx="233" cy="114" r="31" fill="#4c96a9"/><circle cx="118" cy="28" r="16" fill="#ffb345"/><circle cx="102" cy="108" r="31" fill="#327489"/><circle cx="214" cy="39" r="12" fill="#ff9820"/><circle cx="191" cy="105" r="15" fill="#9a0000"/><circle cx="183" cy="31" r="15" fill="#ff9d2c"/><circle cx="29" cy="110" r="31" fill="#356f85"/><circle cx="119" cy="67" r="28" fill="#5ca5d1"/><circle cx="60" cy="52" r="33" fill="#8dadc8"/><circle cx="190" r="21" fill="#157ecb"/><circle cx="87" cy="31" r="11" fill="#ffc955"/><circle cx="102" r="19" fill="#167cca"/><circle cx="154" cy="98" r="28" fill="#457e8e"/><circle cx="182" cy="64" r="22" fill="#6eadd5"/><circle cx="194" cy="159" r="22" fill="#1b161e"/><circle cx="185" cy="120" r="12" fill="#720000"/><circle cx="154" r="16" fill="#1c7fc8"/><circle cx="232" cy="59" r="24" fill="#98afc0"/><circle cx="128" cy="159" r="23" fill="#f6d4b0"/><circle cx="73" cy="159" r="24" fill="#eed9c0"/><circle cx="139" cy="28" r="17" fill="#ffb261"/><circle cx="245" cy="133" r="11" fill="#bfc4b4"/><circle cx="239" cy="159" r="18" fill="#211d24"/><circle cx="239" cy="107" r="28" fill="#31728c"/><circle cx="107" cy="27" r="13" fill="#ffa456"/></g></svg>