<svg xmlns="http://www.w3.org/2000/svg" width="300" height="188" viewBox="0 0 300 188"><g stroke-linecap="round"><path fill="rgba(219,213,193,255)" stroke="rgba(219,213,193,255)" d="M300 188H0l94-15 206 15"/><path fill="rgba(198,197,181,255)" stroke="rgba(198,197,181,255)" d="m0 188 20-36 74 21-94 15"/><path fill="rgba(83,136,178,255)" stroke="rgba(83,136,178,255)" d="M0 0h300l-88 17L0 0"/><path fill="rgba(16,10,10,255)" stroke="rgba(16,10,10,255)" d="M300 188 94 173l54-12 152 27"/><path fill="rgba(131,29,0,255)" stroke="rgba(131,29,0,255)" d="m212 17 88 171-152-27 64-144"/><path fill="rgba(117,159,185,255)" stroke="rgba(117,159,185,255)" d="M300 0v188l-8-177 8-11"/><path fill="rgba(121,161,186,255)" stroke="rgba(121,161,186,255)" d="M300 188 212 17l80-6 8 177"/><path fill="rgba(80,138,176,255)" stroke="rgba(80,138,176,255)" d="m212 17 88-17-8 11-80 6"/><path fill="rgba(78,128,161,255)" stroke="rgba(78,128,161,255)" d="M0 188V0l29 106-29 82"/><path fill="rgba(75,129,139,255)" stroke="rgba(75,129,139,255)" d="M20 152 0 188l29-82-9 46"/><path fill="rgba(75,132,151,255)" stroke="rgba(75,132,151,255)" d="m94 173-74-21 9-46 65 67"/><path fill="rgba(87,141,153,255)" stroke="rgba(87,141,153,255)" d="m148 161-54 12-65-67 119 55"/><path fill="rgba(101,162,183,255)" stroke="rgba(101,162,183,255)" d="m0 0 212 17-183 89L0 0"/><path fill="rgba(121,159,182,255)" stroke="rgba(121,159,182,255)" d="m212 17-64 144-119-55 183-89"/></g></svg>