<svg xmlns="http://www.w3.org/2000/svg" width="300" height="187"><rect width="100%" height="100%" fill="#5c8fa4"/><g fill-opacity=".5"><path fill="#ffb137" d="m318.2 58-150-51.6L63.9 42.8z"/><path fill="#5c1600" d="M318.2 204.5 167 183.4l61-90.2z"/><path fill="#fff6bf" d="m217.4 158.8-235.6 7 82 39.9z"/><path fill="#92afca" d="m-18.2 95.5 323.5-4.7L48.6 25.2z"/><path fill="#ff9b4c" d="M171.7 12.3 283 51 80.3 40.4z"/><path fill="#96c8c4" d="M318.2 169.3 249 130.7 217.4 160z"/><path fill="#8a0000" d="m209.2 160 49.2-56.3-45.7 3.5z"/><path fill="#f0cdb4" d="m138.9 154.1-157 29.3 227.3 22.3z"/><path fill="#317289" d="m258.4 97.9-264.8 68L-3 94.2z"/><path fill="#1d1e26" d="m257.2 205.7 61-37.5-150 1.1z"/><path fill="#8bacc4" d="m165.8 52.1 152.4-3.5-20 45.7z"/><path fill="#216b84" d="M318.2 104.9 249 94.3l-17.6 64.5z"/><path fill="#4185c1" d="m170.5-18.2-124.2 34 248.4-1.2z"/><path fill="#ffb369" d="m82.6 33.4 99.6 22.3-37.5-42.2z"/><path fill="#607e7c" d="m7.6 156.4 209.8-49.2-24.6 55.1z"/><path fill="#ff9d55" d="m190.4 54.5 77.4-15.2L208 18.2z"/><path fill="#760b00" d="m184.6 156.4 44.5-5.8L242 106z"/><path fill="#7d644e" d="m164.6 86.1 10.6 36.4 4.7-77.4z"/><path fill="#ffe7c6" d="m259.6 161.1 49.2 8.2 9.4-14z"/><path fill="#4d89bd" d="M103.7-18.2-18.2 4.1l97.3 62.1z"/><path fill="#5692c1" d="m231.4 10 86.8-28.2L307.6 78z"/><path fill="#457b8a" d="m297 158.8-71.4-8.2 89-71.5z"/><path fill="#c1b3a4" d="m-10 157.6 116-1.2-124.2 45.7z"/><path fill="#ffaa8e" d="m182.2 13.5-75 11.7 73.9 10.5z"/><path fill="#bf5e00" d="m250.2 41.6 16.4 14-29.3-5.8z"/><path fill="#d95402" d="m190.4 48.6 22.3-10.5-36.3-2.4z"/><path fill="#75a5c1" d="m174 52.1-3.5 49.3L-8.8 39.3z"/><path fill="#ddd0b8" d="M169.3 189.3H72.1l96-32.9z"/><path fill="#9f7141" d="m168.2 185.7 9.3-31.6-8.2-27z"/><path fill="#353335" d="m150.6 205.7 58.6-41 68-1.2z"/><path fill="#ffb650" d="m177.5 53.3-86.7-14 86.7-9.4z"/><path fill="#7ba3bc" d="M318.2 29.9 174 95.5l144.2-1.2z"/><path fill="#487e92" d="m65 143.6 139.5 1.1 8.2-39.8z"/><path fill="#861900" d="m204.5 157.6 12.9-50.4h27z"/><path fill="#1886ae" d="m244.3 104.9-53.9-1.2 37.5-9.4z"/><path fill="#fde9d3" d="m239.6 162.3 14.1-4.7 12.9 3.5z"/><path fill="#75645b" d="m197.5 135.4 8.2 43.3-27-27z"/><path fill="#658c8e" d="m-18.2 162.3 62.1-27 90.3 25.8z"/><path fill="#ffd962" d="m270.1 44-17.6 11.7-1.1-14.1z"/><path fill="#5188b1" d="m67.4-18.2 138.3 31.7-180.5 7z"/><path fill="#ffb57e" d="M103.7 46.3 136.5 17 89.6 28.7z"/><path fill="#281d26" d="m244.3 120.1 11.8-10.5-3.6 17.5z"/><path fill="#6595bb" d="M-18.2 85 126 13.5-18.2 31z"/><path fill="#511506" d="m232.6 145.9-30.5 12.9L180 147z"/><path fill="#1d7498" d="m301.8 95.5 16.4 25.8-95-24.6z"/><path fill="#744c31" d="m183.4 39.3-8.2 34-1.2-18.8z"/><path fill="#f7ce58" d="m192.8 54.5 53.9-9.4-50.4-4.7z"/><path fill="#ab501c" d="m115.4 32.2 1.2 10.6 8.2-8.2z"/><path fill="#792909" d="m235 49.8 11.7-5.9-1.2 9.4z"/><path fill="#9ca6a7" d="m216.2 157.6-18.7 7-23.5-5.8z"/></g></svg>