<svg xmlns="http://www.w3.org/2000/svg" width="300" height="188" viewBox="0 0 300 188"><g stroke-linecap="round"><path fill="rgba(38,117,148,255)" stroke="rgba(38,117,148,255)" d="M300 0v188l-44-75L300 0"/><path fill="rgba(203,194,171,255)" stroke="rgba(203,194,171,255)" d="M300 188H0l171-21 129 21"/><path fill="rgba(77,136,176,255)" stroke="rgba(77,136,176,255)" d="M0 0h300L99 8 0 0"/><path fill="rgba(235,133,58,255)" stroke="rgba(235,133,58,255)" d="m300 0-44 113L99 8l201-8"/><path fill="rgba(140,76,39,255)" stroke="rgba(140,76,39,255)" d="m256 113-85 54L99 8l157 105"/><path fill="rgba(120,154,179,255)" stroke="rgba(120,154,179,255)" d="M0 188V0l18 56L0 188"/><path fill="rgba(87,140,180,255)" stroke="rgba(87,140,180,255)" d="m0 0 99 8-81 48L0 0"/><path fill="rgba(78,129,148,255)" stroke="rgba(78,129,148,255)" d="M171 167 0 188 18 56l153 111"/><path fill="rgba(123,164,186,255)" stroke="rgba(123,164,186,255)" d="m99 8 72 159L18 56 99 8"/><path fill="rgba(99,17,1,255)" stroke="rgba(99,17,1,255)" d="m171 167 85-54-42 48-43 6"/><path fill="rgba(120,142,139,255)" stroke="rgba(120,142,139,255)" d="m256 113 44 75-45-20 1-55"/><path fill="rgba(96,138,162,255)" stroke="rgba(96,138,162,255)" d="m214 161 42-48-1 55-41-7"/><path fill="rgba(60,58,69,255)" stroke="rgba(60,58,69,255)" d="m300 188-129-21 84 1 45 20"/><path fill="rgba(70,76,76,255)" stroke="rgba(70,76,76,255)" d="m171 167 43-6 41 7-84-1"/></g></svg>