<svg xmlns="http://www.w3.org/2000/svg" width="300" height="187"><rect width="100%" height="100%" fill="#5c8fa4"/><g fill-opacity=".5"><path fill="#ffb038" d="m175.2 7.6 143 49.2-263.7-14z"/><path fill="#5c1500" d="m228 94.3 90.2 109-150-22.2z"/><path fill="#fff4be" d="m216.2 158.8-234.4 5.8 91.4 41z"/><path fill="#ff9c4a" d="m83.8 41.6 195.7 8.2-110.2-36.3z"/><path fill="#8ec3c2" d="m245.5 126 72.7 43.3-98.5-9.3z"/><path fill="#8faeca" d="m306.4 87.3-321 9.4 43.3-76.2z"/><path fill="#8a0000" d="m253.7 102.5-41 7-2.3 61z"/><path fill="#f1ceb5" d="m141.2 155.3 68 50.4-227.4-22.3z"/><path fill="#2f7189" d="m-18.2 94.3 27 65.7L249 100.2z"/><path fill="#84a6c1" d="m303 95.5 11.6-62.1-187.5 62.1z"/><path fill="#212128" d="m318.2 169.3-140.7-3.5 4.7 39.9z"/><path fill="#ffb270" d="m164.6 11.1-84.3 20 97.2 23.4z"/><path fill="#23687f" d="m318.2 102.5-72.7-8.2-11.7 68z"/><path fill="#4285c0" d="m68.6 13.5 249.6 4.7-124.3-36.4z"/><path fill="#6f6959" d="m167 175.2 29.3-9.4-21.1-105.4z"/><path fill="#ffe0c0" d="m318.2 153-58.6 8.1 49.2 8.2z"/><path fill="#4a87bd" d="m-18.2 5.3 138.3-23.5L68.6 65z"/><path fill="#fb9e4a" d="m217.4 19.3-129 21.1 122 14z"/><path fill="#770900" d="m191.6 156.4 46.9-52.7-4.7 43.4z"/><path fill="#54808a" d="m218.6 120.1-84.4 43.4-152.4-38.7z"/><path fill="#457c8c" d="M228 148.2 300.5 92l17.6 70.3z"/><path fill="#88533a" d="m179.9 35.7-7 31.7L196.3 38z"/><path fill="#5a97c6" d="m318.2 20.5-86.8-8.2 86.8 68z"/><path fill="#ccbaaa" d="m-4.1 203.3-14-39.8L93.1 160z"/><path fill="#80a9bd" d="m318.2 74.4-139.5 20 1.2-48.1z"/><path fill="#92a39d" d="m202.1 160 57.5 3.5 1.1-20z"/><path fill="#fb9f50" d="m219.7 21.7-34 32.8L269 43.9z"/><path fill="#984004" d="m233.8 49.8 17.6-10.5 1.1 14z"/><path fill="#313a40" d="m307.6 168.2-16.4 37.5L201 161z"/><path fill="#4a7e8f" d="m59.2 140 144.1 5.9 15.3-49.2z"/><path fill="#788d83" d="m-18.2 163.5 68-22.3 59.8 20z"/><path fill="#ffc272" d="M110.7 47.5 129.5 17l-41 21z"/><path fill="#1c80a6" d="m198.6 110.7-22.2-15.2h77.3z"/><path fill="#fea88e" d="m179.9 13.5 5.8 21-82-8.1z"/><path fill="#e4d3b7" d="m104.9 198.6 63.3-41 2.3 48z"/><path fill="#831d00" d="m208 156.4 5.9-49.2 32.8-2.3z"/><path fill="#252029" d="m253.7 126-9.4-5.9 11.8-15.2z"/><path fill="#c2b6a5" d="M194 163.5 163.4 174l14-17.6z"/><path fill="#5b1704" d="m235 138.9-31.7 21-23.4-11.7z"/><path fill="#8b8f8c" d="m194 160 10.5 22.2-5.9-38.6z"/><path fill="#9a2d00" d="M264.3 55.7v-5.9l-4.7 3.5z"/><path fill="#8c6437" d="m172.9 129.5-1.2 42.2-5.9-20z"/><path fill="#d15d00" d="m195.1 34.6-2.3 19.9L182.2 38z"/><path fill="#d48a7c" d="m260.7 35.7-44.5-16.4L171.7 30z"/><path fill="#1d7598" d="m219.7 100.2 75-5.9 23.5 24.6z"/><path fill="#825030" d="m174 94.3 7-19.9-7-15.2z"/><path fill="#518bb2" d="m115.4 4.1 168.8 28.1 34-49.2z"/><path fill="#fbe269" d="M141.2 37 173 49.7 121.4 45z"/><path fill="#6899bb" d="M128.3 52.1-13.5 20.5-18.2 71z"/><path fill="#7aa2b9" d="m176.4 95.5 3.5-46.9 102 45.7z"/></g></svg>