<svg xmlns="http://www.w3.org/2000/svg" width="300" height="188" viewBox="0 0 300 188"><g stroke-linecap="round"><path fill="rgba(78,137,177,255)" stroke="rgba(78,137,177,255)" d="M0 0h300L117 16 0 0"/><path fill="rgba(117,159,181,255)" stroke="rgba(117,159,181,255)" d="M0 188V0l117 16L0 188"/><path fill="rgba(209,204,186,255)" stroke="rgba(209,204,186,255)" d="M300 188H0l198-7 102 7"/><path fill="rgba(35,116,144,255)" stroke="rgba(35,116,144,255)" d="M300 0v188l-83-54L300 0"/><path fill="rgba(120,158,181,255)" stroke="rgba(120,158,181,255)" d="M0 188 117 16l40 60L0 188"/><path fill="rgba(100,153,163,255)" stroke="rgba(100,153,163,255)" d="M198 181 0 188 157 76l41 105"/><path fill="rgba(230,136,84,255)" stroke="rgba(230,136,84,255)" d="M117 16 300 0 157 76l-40-60"/><path fill="rgba(122,164,188,255)" stroke="rgba(122,164,188,255)" d="m300 0-83 134-60-58L300 0"/><path fill="rgba(83,139,156,255)" stroke="rgba(83,139,156,255)" d="m217 134-19 47-41-105 60 58"/><path fill="rgba(61,67,81,255)" stroke="rgba(61,67,81,255)" d="m300 188-102-7h45l57 7"/><path fill="rgba(69,75,75,255)" stroke="rgba(69,75,75,255)" d="m198 181 19-47 26 47h-45"/><path fill="rgba(63,75,77,255)" stroke="rgba(63,75,77,255)" d="m217 134 83 54-54-9-29-45"/><path fill="rgba(64,59,63,255)" stroke="rgba(64,59,63,255)" d="m300 188-57-7 3-2 54 9"/><path fill="rgba(64,66,66,255)" stroke="rgba(64,66,66,255)" d="m243 181-26-47 29 45-3 2"/></g></svg>