<svg xmlns="http://www.w3.org/2000/svg" width="300" height="187"><g filter="blur(12px)"><rect width="200%" height="200%" x="-50%" y="-50%" fill="#5c8fa4"/><rect width="100%" height="100%" fill="#5c8fa4"/><g fill-opacity=".5" transform="translate(.6 .6)scale(1.17)"><circle r="1" fill="#ffb147" transform="matrix(1.55 -17.95 80.97 6.97 154.4 34)"/><circle r="1" fill="#5d1b01" transform="rotate(188 101.6 70.5)scale(41.9 67)"/><circle r="1" fill="#ffecb7" transform="matrix(-.2 -19.62 84.78 -.86 67.7 154)"/><ellipse cx="143" cy="61" fill="#8faeca" rx="255" ry="20"/><path fill="#ffa149" d="M238 44 60 36l89-28z"/><circle r="1" fill="#24191c" transform="rotate(91 40.4 186.4)scale(9.23 85.16)"/><path fill="#89c5cb" d="m257.2 141.4-20.6-8-12.8-28.3-39.3 32.2z"/><path fill="#8d0000" d="m187.2 92.9 25.6-4.7-19.6 38.6-24.3 12z"/></g></g></svg>