<svg xmlns="http://www.w3.org/2000/svg" width="300" height="187"><rect width="100%" height="100%" fill="#5c8fa4"/><g fill-opacity=".5"><path fill="#ffb13b" d="m318.2 60.4-143-54L56.8 41.6z"/><path fill="#5d1600" d="m226.8 93.2 91.4 109L167 183.3z"/><path fill="#fff4be" d="m-18.2 165.8 238-8.2-145.4 48z"/><path fill="#91afca" d="m48.6 22.9 256.7 71.4H-18.2z"/><path fill="#ff9c4b" d="m167 12.3 116 37.5-202.7-8.2z"/><path fill="#90c5c4" d="m246.7 127.1-28.1 34 92.5 7z"/><path fill="#860000" d="M216.2 107.2 205.7 160l55-56.3z"/><path fill="#f1ceb6" d="m137.7 155.3 73.8 50.4-229.7-22.3z"/><path fill="#2f728a" d="m18.2 161.1-36.4-64.4 274.3-1.2z"/><path fill="#1c1e26" d="m258.4 205.7 59.8-37.5-148.9 1.1z"/><path fill="#87accc" d="m300.6 93.2-130-37.5 138.2-8.2z"/><path fill="#226b83" d="m318.2 102.5-86.8 58.6 15.3-66.8z"/><path fill="#4185c2" d="M188-18.2 71 14.6 311.1 17z"/><path fill="#ffb368" d="M185.7 56.8 80.3 33.4l56.2-17.6z"/><path fill="#5f7e7d" d="m196.3 161.1 21-58.6L4.2 158.8z"/><path fill="#ffdebe" d="m253.7 160 52.7 9.3v-14z"/><path fill="#4986be" d="m-18.2 6.4 127.8-24.6L79 58z"/><path fill="#751000" d="m226.8 151.8 21-51.6-65.6 58.6z"/><path fill="#83491e" d="m176.4 100.2-7-15.2 9.3-28.2z"/><path fill="#fd9e54" d="m184.6 56.8 82-17.5-52.7-20z"/><path fill="#4a7b88" d="m288.9 100.2-69.2 55 98.5 2.4z"/><path fill="#cbbaaa" d="m-18.2 164.6 112.5-7-77.3 48z"/><path fill="#f48d48" d="m112 38 162.8 15.3-76.2-35.1z"/><path fill="#5a95c2" d="m263 61.5 54-4.7-30.5-63.2z"/><path fill="#ffb398" d="m184.6 14.6-66.8 4.7L181 35.7z"/><path fill="#7c2900" d="m236.1 48.6 14.1-4.7v10.6z"/><path fill="#7a7263" d="m172.9 88.5-4.7 87.9 22.2-16.4z"/><path fill="#373537" d="m164.6 196.3 47-35.2 60.9 3.5z"/><path fill="#bd4600" d="m179.9 45.1 31.6-5.8-28.1-3.6z"/><path fill="#1d81a6" d="m271.3 102.5-77.4 3.6 36.4-13z"/><path fill="#477f94" d="m212.7 99-8.2 45.7-161.7-3.5z"/><path fill="#ded0b7" d="m114.3 168.2 53.9-9.4 1.1 46.9z"/><path fill="#73908d" d="m109.6 161.1-70.3-18.7-57.5 19.9z"/><path fill="#7b1200" d="m220.9 158.8 20-54-28.2 2.4z"/><path fill="#689abd" d="M130.7 54.5-15.8 14.6l-2.4 58.6z"/><path fill="#508ab3" d="M318.2-18.2v50.4l-170-21z"/><path fill="#724c2e" d="m175.2 75.6 5.9-31.7-8.2 15.3z"/><path fill="#7da9c1" d="m62.7 70.9 110.2 20 2.3-40z"/><path fill="#cdc4b3" d="m274.8 154.1-18.7 9.4-24.7-3.5z"/><path fill="#ffca75" d="m87.3 39.3 32.8-18.8-8.2 25.8z"/><path fill="#828784" d="m198.6 144.7 5.9 32.8-11.7-11.7z"/><path fill="#ffd55a" d="m182.2 48.6-44.5-14-18.8 11.7z"/><path fill="#210c16" d="M254.9 123.6v-10.5l-8.2 11.7z"/><path fill="#7ea5bb" d="m179.9 48.6 117.2 47H177.5z"/><path fill="#4e1005" d="M202.1 158.8 178.7 147l50.4 1.1z"/><path fill="#1f7395" d="m229.1 99 87.9 24.6V94.3z"/><path fill="#dfdac9" d="m174 169.3-1.1-14 9.3 5.8z"/><path fill="#f5eb79" d="m206.8 53.3 2.4-10.5 37.5 1.1z"/><path fill="#feda5f" d="m254.9 45.1 21-3.5-25.7 15.2z"/><path fill="#7aa4bc" d="m226.8 96.7-14.1-46.9 96 11.7z"/></g></svg>