<svg xmlns="http://www.w3.org/2000/svg" width="300" height="187"><g filter="blur(10px)"><rect width="200%" height="200%" x="-50%" y="-50%" fill="#5c8fa4"/><rect width="100%" height="100%" fill="#5c8fa4"/><g fill-opacity=".5" transform="translate(.6 .6)scale(1.17)"><circle cx="203" cy="142" r="53" fill="#5c2a14"/><circle cx="146" cy="17" r="65" fill="#d5a988"/><circle cx="104" cy="159" r="39" fill="#ffdeb1"/><circle cx="33" cy="159" r="33" fill="#ffd6ac"/><circle cx="140" cy="28" r="18" fill="#ffaf3d"/><circle cx="233" cy="114" r="31" fill="#4c97ab"/><circle cx="172" cy="31" r="16" fill="#ff9114"/><circle cx="191" cy="105" r="16" fill="#950200"/><circle cx="104" cy="109" r="30" fill="#317388"/><circle cx="215" cy="38" r="11" fill="#ff9816"/><circle cx="112" cy="28" r="14" fill="#ffaf3c"/><circle cx="30" cy="110" r="31" fill="#356f85"/><circle cx="57" cy="52" r="34" fill="#89abc8"/><circle cx="193" r="21" fill="#157dc9"/><circle cx="120" cy="65" r="26" fill="#5fa7d5"/><circle cx="99" r="19" fill="#117bcb"/><circle cx="195" cy="33" r="12" fill="#ffa436"/><circle cx="86" cy="31" r="11" fill="#ffc959"/><circle cx="153" cy="98" r="29" fill="#467e8f"/><circle cx="176" cy="65" r="22" fill="#69acd6"/><circle cx="194" cy="159" r="22" fill="#1b151d"/><circle cx="184" cy="121" r="11" fill="#6f0000"/><circle cx="138" r="15" fill="#127dce"/><circle cx="127" cy="159" r="24" fill="#f3d3b0"/><circle cx="248" cy="135" r="10" fill="#cfceb9"/><circle cx="73" cy="159" r="24" fill="#eed9c0"/><circle cx="232" cy="59" r="24" fill="#99afc0"/><circle cx="228" cy="159" r="20" fill="#232128"/><circle cx="239" cy="107" r="28" fill="#33738d"/><circle cx="165" r="15" fill="#1a7bc2"/></g></g></svg>