<svg xmlns="http://www.w3.org/2000/svg" width="300" height="187"><rect width="100%" height="100%" fill="#5c8fa4"/><g fill-opacity=".5"><path fill="#ffb03d" d="m179.9 6.4 138.3 54L54.5 41.6z"/><path fill="#5c1500" d="m318.2 205.7-88-112.5-63.2 90.2z"/><path fill="#fff4be" d="m65 205.7-83.2-42.2 232-3.5z"/><path fill="#93afc8" d="m48.6 20.5-66.8 72.7 336.4 1.1z"/><path fill="#ff9d49" d="M280.7 52.1 74.4 41.6l100.8-29.3z"/><path fill="#95c9c6" d="m315.8 168.2-72.6-38.7-23.5 31.6z"/><path fill="#f1ceb5" d="m220.9 205.7-89-50.4-150 27z"/><path fill="#890200" d="m213.9 107.2-10.6 63.3 54-66.8z"/><path fill="#307289" d="M-15.8 168.2 253.7 99l-271.9-3.5z"/><path fill="#1d2027" d="m164.6 167 153.6 2.3-58.6 36.4z"/><path fill="#82abce" d="m318.2 93.2-20-48L185.7 58z"/><path fill="#226c85" d="m318.2 102.5-71.5-9.3-13 68z"/><path fill="#4286c2" d="M72 11.1 318.3 23 203.4-18z"/><path fill="#ffb165" d="m142.4 14.6 43.3 42.2-99.6-24.6z"/><path fill="#5f7e7c" d="M184.6 158.8 229 96.7 7.6 163.5z"/><path fill="#4a87be" d="m-18.2 7.6 133.6-25.8-41 80.9z"/><path fill="#f8d7b9" d="m317 170.5-11.7-16.4-52.8 5.9z"/><path fill="#720300" d="m233.8 145.9-37.5 14 31.6-55z"/><path fill="#785a42" d="m182.2 90.8-4.7-42.2-10.5 68z"/><path fill="#497c8a" d="m290 93.2 28.2 65.6-97.3-2.4z"/><path fill="#f69553" d="m191.6 54.5-15.2-42.2 96 29.3z"/><path fill="#989b8d" d="m176.4 170.5-32.8-20 77.3 9.5z"/><path fill="#bdb2a6" d="m-18.2 155.3 124.3 2.3-119.6 41z"/><path fill="#b15e07" d="m233.8 49.8 17.6-7 14 12.9z"/><path fill="#ffb18f" d="m134.2 15.8 56.2 1.2L173 40.4z"/><path fill="#609ac5" d="m292.4 72-41-55 66.8 9.4z"/><path fill="#d6ceba" d="M170.5 205.7 23 165.8l144-4.7z"/><path fill="#bc3e00" d="m195.1 35.7-21 2.4 17.5 10.5z"/><path fill="#881b00" d="m212.7 106 14 41 17.6-38.6z"/><path fill="#2d819f" d="m183.4 120.1 64.5-25.8-147.7 5.9z"/><path fill="#79abc6" d="m203.3 66.2-25.8 35.2 3.6-56.3z"/><path fill="#696b61" d="M189.3 157.6 167 160l8.2-79.7z"/><path fill="#373638" d="m160 205.7 113.6-41-68-3.6z"/><path fill="#4a7f92" d="m216.2 101.4-10.5 43.3H74.4z"/><path fill="#4f8ab3" d="m147 12.3 171.2-30.5-7 45.7z"/><path fill="#ffcd5e" d="M254.9 55.7 270 43.9l-18.7-4.6z"/><path fill="#ffb780" d="m89.6 28.7 1.2 17.6L141.2 17z"/><path fill="#ffa949" d="M185.7 29.9 99 34.6 174 52z"/><path fill="#699bbd" d="m-13.5 73.2 157-18.7L4.2 22.9z"/><path fill="#7da6bc" d="m228 96.7 90.2-32.8-107.8-15.3z"/><path fill="#638b8d" d="m114.3 162.3-54-29.3-78.5 28.1z"/><path fill="#9a9e95" d="m201 161.1 57.4 1.2-16.4-14z"/><path fill="#187397" d="m301.8 115.4-75-15.2 91.4-5.9z"/><path fill="#5d1300" d="m179.9 148.2 49.2-4.6-27 14z"/><path fill="#ab753e" d="m176.4 167-7-25.8-1.2 50.4z"/><path fill="#39383d" d="m251.4 99 5.8 15.3-11.7 25.7z"/><path fill="#8c928e" d="m198.6 147-4.7 20 10.6 7z"/><path fill="#feea71" d="m119 46.3 41 1.2-24.6-8.2z"/><path fill="#fedd64" d="m244.3 45.1-21-5.8-32.9 15.2z"/><path fill="#dfd9c9" d="M273.6 162.3H242l16.4-5.9z"/></g></svg>