<svg xmlns="http://www.w3.org/2000/svg" width="300" height="188" viewBox="0 0 300 188"><g stroke-linecap="round"><path fill="rgba(80,138,176,255)" stroke="rgba(80,138,176,255)" d="M0 0h300L95 26 0 0"/><path fill="rgba(236,153,95,255)" stroke="rgba(236,153,95,255)" d="M95 26 300 0 200 45 95 26"/><path fill="rgba(206,149,96,255)" stroke="rgba(206,149,96,255)" d="m300 0-72 59-28-14L300 0"/><path fill="rgba(207,206,190,255)" stroke="rgba(207,206,190,255)" d="M300 188H0l184-42 116 42"/><path fill="rgba(124,166,188,255)" stroke="rgba(124,166,188,255)" d="m95 26 105 19-16 101L95 26"/><path fill="rgba(126,164,187,255)" stroke="rgba(126,164,187,255)" d="m200 45 28 14-44 87 16-101"/><path fill="rgba(40,114,141,255)" stroke="rgba(40,114,141,255)" d="M300 0v188l-51-49L300 0"/><path fill="rgba(119,161,187,255)" stroke="rgba(119,161,187,255)" d="m228 59 72-59-51 139-21-80"/><path fill="rgba(115,147,134,255)" stroke="rgba(115,147,134,255)" d="m300 188-116-42 65-7 51 49"/><path fill="rgba(135,28,0,255)" stroke="rgba(135,28,0,255)" d="m184 146 44-87 21 80-65 7"/><path fill="rgba(120,156,180,255)" stroke="rgba(120,156,180,255)" d="M0 188V0l60 50L0 188"/><path fill="rgba(90,144,182,255)" stroke="rgba(90,144,182,255)" d="m0 0 95 26-35 24L0 0"/><path fill="rgba(122,164,188,255)" stroke="rgba(122,164,188,255)" d="m95 26 89 120L60 50l35-24"/><path fill="rgba(84,132,154,255)" stroke="rgba(84,132,154,255)" d="M184 146 0 188 60 50l124 96"/></g></svg>