<svg xmlns="http://www.w3.org/2000/svg" width="300" height="187"><rect width="100%" height="100%" fill="#5c8fa4"/><g fill-opacity=".5"><path fill="#ffb13a" d="M172.9 7.6 49.8 42.8l268.4 14z"/><path fill="#5c1500" d="m318.2 203.3-150-21 58.6-89.1z"/><path fill="#fff2bd" d="m-18.2 163.5 236.8-4.7-159.4 46.9z"/><path fill="#92afc9" d="m52.1 22.9 266 70.3-336.3 1.1z"/><path fill="#ff9d48" d="M174 13.5 283 52 73.2 41.6z"/><path fill="#91c6c4" d="m219.7 161.1 23.5-32.8 75 38.7z"/><path fill="#8e0000" d="m205.7 162.3 51.5-56.2H214z"/><path fill="#f2cfb5" d="m144.7 155.3 61 50.4-223.9-22.3z"/><path fill="#317289" d="M11.1 95.5 258.4 98l-276.6 71.4z"/><path fill="#1c1e26" d="m169.3 169.3 90.3 36.4 58.6-37.5z"/><path fill="#256980" d="m232.6 160 85.6-55.1-73.9-11.7z"/><path fill="#88abc7" d="M177.5 54.5 318.2 92V45z"/><path fill="#ffaf70" d="M175.2 14.6 94.3 25.2l84.4 34z"/><path fill="#4286c0" d="m318.2 21.7-68-39.9-138.3 30.5z"/><path fill="#607e7b" d="m8.8 162.3 184-2.3 28.1-57.5z"/><path fill="#4987c0" d="m83.8 58 12.9-76.2-114.9 31.7z"/><path fill="#760f00" d="m232.6 147-50.4 14.1 59.8-57.4z"/><path fill="#ffe7c5" d="m311.1 155.3 7 15.2-59.7-9.4z"/><path fill="#fc9e58" d="m208 17-17.6 38.7L269 40.4z"/><path fill="#7e583a" d="m176.4 106 3.5-60.9-11.7 27z"/><path fill="#5c98c7" d="M308.8 69.7 305.3 23l-79.7-9.4z"/><path fill="#447b8b" d="M226.8 149.4 297 90.8l21 70.3z"/><path fill="#ae610e" d="m251.4 44-23.5 7 42.2 3.5z"/><path fill="#cfc2b1" d="m-15.8 155.3 198 25.8L6.4 205.7z"/><path fill="#c84400" d="m194 49.8-20-10.5 22.3-3.6z"/><path fill="#ffb97b" d="M141.2 15.8 105 46.3 89.6 29.9z"/><path fill="#976c40" d="M169.3 187v-57.5l9.4 24.6z"/><path fill="#7aa8c1" d="M171.7 94.3 31 65l143-12.9z"/><path fill="#3b3637" d="m165.8 205.7 25.8-39.9 61-3.5z"/><path fill="#7e1200" d="m213.9 107.2 5.8 48 24.6-50.3z"/><path fill="#fde9d0" d="m239.6 160 24.7-2.4-8.2 5.9z"/><path fill="#ffa854" d="m170.5 51 25.8-31.7-98.4 18.8z"/><path fill="#7b9390" d="m44 144.7 66.7 14-128.9 7.1z"/><path fill="#ffdf62" d="m271.3 41.6-17.6 2.3-2.3 13z"/><path fill="#591909" d="M202.1 157.6 175.2 146l45.7 2.3z"/><path fill="#6295bc" d="M-11.1 75.6 141.2 8.8-17 31z"/><path fill="#2480a2" d="m251.4 95.5-71.5 1.2 3.5 22.2z"/><path fill="#8b9694" d="m198.6 144.7-3.5 20 9.4 12.8z"/><path fill="#4b7e91" d="M61.5 144.7h144.2l8.2-41z"/><path fill="#fab095" d="m195.1 15.8-61 1.2L160 34.6z"/><path fill="#2c2932" d="m256 108.4-4.6 22.3-7-13z"/><path fill="#1c7396" d="m222 100.2 96.2 20v-26z"/><path fill="#4b87b7" d="m131.8-18.2 65.7 31.7-140.7 4.7z"/><path fill="#dad1bb" d="m165.8 205.7-124.2-8.2 126.6-38.7z"/><path fill="#a3a498" d="m145.9 154.1 68 4.7-43.4 11.7z"/><path fill="#7ea6bc" d="m178.7 44-1.2 51.5 78.6-1.2z"/><path fill="#f6c551" d="m212.7 38-29.3 16.5 63.3-9.4z"/><path fill="#7d674b" d="m170.5 95.5 2.4 32.8 4.6-23.4z"/><path fill="#fdde62" d="m117.8 47.5 53.9-1.2L140 38z"/><path fill="#8b4b1a" d="M121.3 32.2 111.9 44l9.4-3.5z"/></g></svg>