<svg xmlns="http://www.w3.org/2000/svg" width="300" height="188"><path fill="#4c83ac" d="M-21-20h38v38h-38z"/><path fill="#4d85ad" d="M17-20h19v38H17z"/><path fill="#4f87af" d="M36-20h19v38H36z"/><path fill="#5288b1" d="M55-20h19v38H55z"/><path fill="#4e88b4" d="M74-20h19v38H74z"/><path fill="#4687b8" d="M93-20h19v38H93z"/><path fill="#568db3" d="M112-20h19v38h-19z"/><path fill="#6590ae" d="M131-20h19v38h-19z"/><path fill="#7095ac" d="M150-20h19v38h-19z"/><path fill="#7294a8" d="M169-20h19v38h-19z"/><path fill="#608fad" d="M188-20h19v38h-19z"/><path fill="#548eb4" d="M207-20h19v38h-19z"/><path fill="#488cb7" d="M226-20h19v38h-19z"/><path fill="#4b8bb4" d="M245-20h19v38h-19z"/><path fill="#4f89b0" d="M264-20h19v38h-19z"/><path fill="#4f88af" d="M283-20h38v38h-38z"/><path fill="#5a8cb1" d="M-21 18h38v19h-38z"/><path fill="#5b8eb4" d="M17 18h19v19H17z"/><path fill="#5d90b5" d="M36 18h19v19H36z"/><path fill="#5992b9" d="M55 18h19v19H55z"/><path fill="#7497ac" d="M74 18h19v19H74z"/><path fill="#c4a787" d="M93 18h19v19H93z"/><path fill="#e39f6e" d="M112 18h19v19h-19z"/><path fill="#fea566" d="M131 18h19v19h-19z"/><path fill="#ffa76a" d="M150 18h19v19h-19z"/><path fill="#f59c62" d="M169 18h19v19h-19z"/><path fill="#e2915b" d="M188 18h19v19h-19z"/><path fill="#d3956c" d="M207 18h19v19h-19z"/><path fill="#ab9586" d="M226 18h19v19h-19z"/><path fill="#7593a5" d="M245 18h19v19h-19z"/><path fill="#5f95b6" d="M264 18h19v19h-19z"/><path fill="#5c92b4" d="M283 18h38v19h-38z"/><path fill="#6694b4" d="M-21 37h38v19h-38z"/><path fill="#6797b6" d="M17 37h19v19H17z"/><path fill="#6a99b9" d="M36 37h19v19H36z"/><path fill="#669abd" d="M55 37h19v19H55z"/><path fill="#80a2b1" d="M74 37h19v19H74z"/><path fill="#afaf97" d="M93 37h19v19H93z"/><path fill="#b0a88a" d="M112 37h19v19h-19z"/><path fill="#baad85" d="M131 37h19v19h-19z"/><path fill="#d4af70" d="M150 37h19v19h-19z"/><path fill="#be9364" d="M169 37h19v19h-19z"/><path fill="#c79151" d="M188 37h19v19h-19z"/><path fill="#d9ab6c" d="M207 37h19v19h-19z"/><path fill="#c79b69" d="M226 37h19v19h-19z"/><path fill="#c6945a" d="M245 37h19v19h-19z"/><path fill="#879e9d" d="M264 37h19v19h-19z"/><path fill="#6499bb" d="M283 37h38v19h-38z"/><path fill="#739bb3" d="M-21 56h38v19h-38z"/><path fill="#749eb5" d="M17 56h19v19H17z"/><path fill="#759fb8" d="M36 56h19v19H36z"/><path fill="#77a1bb" d="M55 56h19v19H55z"/><path fill="#73a1be" d="M74 56h19v19H74z"/><path fill="#6a9fc3" d="M93 56h19v19H93z"/><path fill="#6fa3c4" d="M112 56h19v19h-19z"/><path fill="#70a4c4" d="M131 56h19v19h-19z"/><path fill="#74a3bd" d="M150 56h19v19h-19z"/><path fill="#7896a4" d="M169 56h19v19h-19z"/><path fill="#77a9c0" d="M188 56h19v19h-19z"/><path fill="#74a6c0" d="M207 56h19v19h-19z"/><path fill="#71a2bd" d="M226 56h19v19h-19z"/><path fill="#79a2b4" d="M245 56h19v19h-19z"/><path fill="#79a0b5" d="M264 56h19v19h-19z"/><path fill="#75a0ba" d="M283 56h38v19h-38z"/><path fill="#7799b3" d="M-21 75h38v19h-38z"/><path fill="#789cb4" d="M17 75h19v19H17z"/><path fill="#799eb6" d="M36 75h19v19H36z"/><path fill="#7a9fb7" d="M55 75h19v19H55z"/><path fill="#7aa0b8" d="M74 75h19v19H74z"/><path fill="#7da2b8" d="M93 75h19v19H93z"/><path fill="#7da2b9" d="M112 75h19v19h-19z"/><path fill="#7ea3ba" d="M131 75h19v19h-19z"/><path fill="#7da0b4" d="M150 75h19v19h-19z"/><path fill="#7e939d" d="M169 75h19v19h-19z"/><path fill="#7ba4bc" d="M188 75h19v19h-19z"/><path fill="#78a4bd" d="M207 75h19v19h-19z"/><path fill="#77a7c1" d="M226 75h19v19h-19z"/><path fill="#78a2bb" d="M245 75h19v19h-19z"/><path fill="#799fb8" d="M264 75h19v19h-19z"/><path fill="#789db6" d="M283 75h38v19h-38z"/><path fill="#46819e" d="M-21 94h38v19h-38z"/><path fill="#4783a0" d="M17 94h19v19H17z"/><path fill="#4684a0" d="M36 94h19v19H36z"/><path fill="#4786a1" d="M55 94h19v19H55z"/><path fill="#4687a2" d="M74 94h19v19H74z"/><path fill="#4487a0" d="M93 94h19v19H93z"/><path fill="#4588a0" d="M112 94h19v19h-19z"/><path fill="#4688a2" d="M131 94h19v19h-19z"/><path fill="#49869f" d="M150 94h19v19h-19z"/><path fill="#4d7d8c" d="M169 94h19v19h-19z"/><path fill="#3f87a3" d="M188 94h19v19h-19z"/><path fill="#4f7483" d="M207 94h19v19h-19z"/><path fill="#586068" d="M226 94h19v19h-19z"/><path fill="#45768a" d="M245 94h19v19h-19z"/><path fill="#3a809d" d="M264 94h19v19h-19z"/><path fill="#397d99" d="M283 94h38v19h-38z"/><path fill="#487b94" d="M-21 113h38v19h-38z"/><path fill="#497c95" d="M17 113h19v19H17z"/><path fill="#487d94" d="M36 113h19v19H36z"/><path fill="#497e94" d="M55 113h19v19H55z"/><path fill="#487f94" d="M74 113h19v19H74z"/><path fill="#497f95" d="M93 113h19v19H93z"/><path fill="#4b8197" d="M112 113h19v19h-19zm19 0h19v19h-19z"/><path fill="#4e8193" d="M150 113h19v19h-19z"/><path fill="#527f8d" d="M169 113h19v19h-19z"/><path fill="#4e899a" d="M188 113h19v19h-19z"/><path fill="#7d3826" d="M207 113h19v19h-19z"/><path fill="#7b200c" d="M226 113h19v19h-19z"/><path fill="#436975" d="M245 113h19v19h-19z"/><path fill="#427b94" d="M264 113h19v19h-19z"/><path fill="#407890" d="M283 113h38v19h-38z"/><path fill="#467c8f" d="M-21 132h38v19h-38z"/><path fill="#487e90" d="M17 132h19v19H17z"/><path fill="#4a7f91" d="M36 132h19v19H36z"/><path fill="#4a8191" d="M55 132h19v19H55z"/><path fill="#4a8091" d="M74 132h19v19H74z"/><path fill="#4b8291" d="M93 132h19v19H93z"/><path fill="#4c8191" d="M112 132h19v19h-19z"/><path fill="#4d8394" d="M131 132h19v19h-19z"/><path fill="#517f8d" d="M150 132h19v19h-19z"/><path fill="#5b7a81" d="M169 132h19v19h-19z"/><path fill="#616765" d="M188 132h19v19h-19z"/><path fill="#741d08" d="M207 132h19v19h-19z"/><path fill="#645b56" d="M226 132h19v19h-19z"/><path fill="#528d9b" d="M245 132h19v19h-19z"/><path fill="#528796" d="M264 132h19v19h-19z"/><path fill="#4d8191" d="M283 132h38v19h-38z"/><path fill="#7f9798" d="M-21 151h38v19h-38z"/><path fill="#849b9a" d="M17 151h19v19H17z"/><path fill="#869e9b" d="M36 151h19v19H36z"/><path fill="#89a09d" d="M55 151h19v19H55z"/><path fill="#8ea4a1" d="M74 151h19v19H74z"/><path fill="#91a69f" d="M93 151h19v19H93z"/><path fill="#91a59f" d="M112 151h19v19h-19z"/><path fill="#93a8a2" d="M131 151h19v19h-19z"/><path fill="#97a499" d="M150 151h19v19h-19z"/><path fill="#86887c" d="M169 151h19v19h-19z"/><path fill="#6f5850" d="M188 151h19v19h-19z"/><path fill="#584946" d="M207 151h19v19h-19z"/><path fill="#667677" d="M226 151h19v19h-19z"/><path fill="#738480" d="M245 151h19v19h-19z"/><path fill="#7b8d8b" d="M264 151h19v19h-19z"/><path fill="#909f98" d="M283 151h38v19h-38z"/><path fill="#c8bfaf" d="M-21 170h38v38h-38z"/><path fill="#cac2b1" d="M17 170h19v38H17z"/><path fill="#cec5b4" d="M36 170h19v38H36z"/><path fill="#d0c7b4" d="M55 170h19v38H55z"/><path fill="#d4ccb9" d="M74 170h19v38H74z"/><path fill="#d8cfbb" d="M93 170h19v38H93z"/><path fill="#d7ccb7" d="M112 170h19v38h-19z"/><path fill="#d9cfbb" d="M131 170h19v38h-19z"/><path fill="#dacbb0" d="M150 170h19v38h-19z"/><path fill="#806e60" d="M169 170h19v38h-19z"/><path fill="#474143" d="M188 170h19v38h-19z"/><path fill="#403d3f" d="M207 170h19v38h-19z"/><path fill="#383338" d="M226 170h19v38h-19z"/><path fill="#3c393e" d="M245 170h19v38h-19z"/><path fill="#444245" d="M264 170h19v38h-19z"/><path fill="#504e51" d="M283 170h38v38h-38z"/></svg>