<svg xmlns="http://www.w3.org/2000/svg" width="300" height="188" viewBox="0 0 300 188"><g filter="blur(12px)"><rect width="200%" height="200%" x="-50%" y="-50%" fill="#5c8fa4"/><g stroke-linecap="round"><path fill="rgba(215,144,40,255)" stroke="rgba(215,144,40,255)" d="M168 30 282 8l-116 93 2-71"/><path fill="rgba(75,131,162,255)" stroke="rgba(75,131,162,255)" d="M0 188V0l166 101L0 188"/><path fill="rgba(56,126,152,255)" stroke="rgba(56,126,152,255)" d="M300 0v188l-43-45L300 0"/><path fill="rgba(98,158,194,255)" stroke="rgba(98,158,194,255)" d="m282 8 18-8-43 143L282 8"/><path fill="rgba(125,163,186,255)" stroke="rgba(125,163,186,255)" d="M166 101 282 8l-25 135-91-42"/><path fill="rgba(96,82,72,255)" stroke="rgba(96,82,72,255)" d="M300 188H0l244-17 56 17"/><path fill="rgba(73,81,82,255)" stroke="rgba(73,81,82,255)" d="m257 143 43 45-56-17 13-28"/><path fill="rgba(102,145,151,255)" stroke="rgba(102,145,151,255)" d="m0 188 166-87 78 70L0 188"/><path fill="rgba(112,7,2,255)" stroke="rgba(112,7,2,255)" d="m166 101 91 42-13 28-78-70"/><path fill="rgba(77,139,178,255)" stroke="rgba(77,139,178,255)" d="M0 0h300L157 13 0 0"/><path fill="rgba(80,138,176,255)" stroke="rgba(80,138,176,255)" d="m300 0-18 8-125 5L300 0"/><path fill="rgba(91,144,178,255)" stroke="rgba(91,144,178,255)" d="M282 8 168 30l-11-17 125-5"/><path fill="rgba(255,206,93,255)" stroke="rgba(255,206,93,255)" d="m168 30-2 71-9-88 11 17"/><path fill="rgba(255,176,83,255)" stroke="rgba(255,176,83,255)" d="M166 101 0 0l157 13 9 88"/></g></g></svg>