<svg xmlns="http://www.w3.org/2000/svg" width="300" height="187"><rect width="100%" height="100%" fill="#5c8fa4"/><g fill-opacity=".5" transform="translate(.6 .6)scale(1.17188)"><circle cx="201" cy="139" r="50" fill="#5c2711"/><circle cx="143" cy="13" r="69" fill="#d2a98a"/><circle cx="104" cy="159" r="39" fill="#ffdeb1"/><circle cx="33" cy="159" r="33" fill="#ffd6ac"/><circle cx="151" cy="31" r="21" fill="#ff9b3a"/><circle cx="233" cy="114" r="31" fill="#4c95a8"/><circle cx="116" cy="28" r="15" fill="#ffb440"/><circle cx="103" cy="109" r="30" fill="#317388"/><circle cx="193" cy="105" r="15" fill="#9a0000"/><circle cx="215" cy="38" r="11" fill="#ff9816"/><circle cx="185" cy="32" r="15" fill="#ffa02e"/><circle cx="30" cy="109" r="31" fill="#346f85"/><circle cx="151" cy="76" r="35" fill="#4e90b2"/><circle cx="194" r="22" fill="#197ec9"/><circle cx="91" r="21" fill="#167cca"/><circle cx="45" cy="50" r="36" fill="#80a6ca"/><circle cx="103" cy="62" r="25" fill="#72add4"/><circle cx="185" cy="121" r="11" fill="#710000"/><circle cx="97" cy="30" r="13" fill="#ffb155"/><circle cx="194" cy="159" r="22" fill="#1b161f"/><circle cx="192" cy="62" r="21" fill="#80b1d2"/><circle cx="240" cy="159" r="18" fill="#231b21"/><circle cx="156" r="16" fill="#1c7ec7"/><circle cx="155" cy="103" r="26" fill="#4a7780"/><circle cx="127" cy="159" r="24" fill="#f3d3b0"/><circle cx="73" cy="159" r="24" fill="#eed9c0"/><circle cx="137" cy="29" r="17" fill="#ffb562"/><circle cx="245" cy="134" r="10" fill="#cdcbb6"/><circle cx="235" cy="58" r="24" fill="#97afc1"/><circle cx="126" r="15" fill="#167dc8"/></g></svg>