<svg xmlns="http://www.w3.org/2000/svg" width="300" height="188"><path fill="#5388b0" d="M-40-39h76v76h-76z"/><path fill="#538cb5" d="M36-39h38v76H36z"/><path fill="#7393a6" d="M74-39h38v76H74z"/><path fill="#a99a8c" d="M112-39h38v76h-38z"/><path fill="#b79b83" d="M150-39h38v76h-38z"/><path fill="#a09081" d="M188-39h38v76h-38z"/><path fill="#778e9a" d="M226-39h38v76h-38z"/><path fill="#568eb0" d="M264-39h76v76h-76z"/><path fill="#729bb7" d="M-40 37h76v38h-76z"/><path fill="#729fbc" d="M36 37h38v38H36z"/><path fill="#8da7b0" d="M74 37h38v38H74z"/><path fill="#acad9f" d="M112 37h38v38h-38z"/><path fill="#b4a186" d="M150 37h38v38h-38z"/><path fill="#afa48d" d="M188 37h38v38h-38z"/><path fill="#a3a598" d="M226 37h38v38h-38z"/><path fill="#7ea0b2" d="M264 37h76v38h-76z"/><path fill="#608fa9" d="M-40 75h76v38h-76z"/><path fill="#6192ac" d="M36 75h38v38H36z"/><path fill="#5c93b0" d="M74 75h38v38H74z"/><path fill="#5794b4" d="M112 75h38v38h-38z"/><path fill="#5890ab" d="M150 75h38v38h-38z"/><path fill="#588eab" d="M188 75h38v38h-38z"/><path fill="#5c8299" d="M226 75h38v38h-38z"/><path fill="#558da9" d="M264 75h76v38h-76z"/><path fill="#437a91" d="M-40 113h76v38h-76z"/><path fill="#447c90" d="M36 113h38v38H36z"/><path fill="#467d90" d="M74 113h38v38H74z"/><path fill="#497e90" d="M112 113h38v38h-38z"/><path fill="#508390" d="M150 113h38v38h-38z"/><path fill="#6a5147" d="M188 113h38v38h-38z"/><path fill="#635b56" d="M226 113h38v38h-38z"/><path fill="#498b9e" d="M264 113h76v38h-76z"/><path fill="#a2aca4" d="M-40 151h76v76h-76z"/><path fill="#a9b2a8" d="M36 151h38v76H36z"/><path fill="#aeb7ab" d="M74 151h38v76H74z"/><path fill="#b6bfb2" d="M112 151h38v76h-38z"/><path fill="#9b9788" d="M150 151h38v76h-38z"/><path fill="#544340" d="M188 151h38v76h-38z"/><path fill="#50595c" d="M226 151h38v76h-38z"/><path fill="#667070" d="M264 151h76v76h-76z"/></svg>