<svg xmlns="http://www.w3.org/2000/svg" width="300" height="188" viewBox="0 0 300 188"><g filter="blur(20px)"><rect width="200%" height="200%" x="-50%" y="-50%" fill="#5c8fa4"/><g stroke-linecap="round"><path fill="rgba(70,124,152,255)" stroke="rgba(70,124,152,255)" d="M0 188V0l30 158-30 30"/><path fill="rgba(210,192,164,255)" stroke="rgba(210,192,164,255)" d="M300 188H0l192-28 108 28"/><path fill="rgba(61,68,76,255)" stroke="rgba(61,68,76,255)" d="m194 153 106 35-108-28 2-7"/><path fill="rgba(207,200,183,255)" stroke="rgba(207,200,183,255)" d="m0 188 30-30 162 2L0 188"/><path fill="rgba(120,149,147,255)" stroke="rgba(120,149,147,255)" d="m30 158 164-5-2 7-162-2"/><path fill="rgba(115,160,189,255)" stroke="rgba(115,160,189,255)" d="M30 158 0 0l181 30L30 158"/><path fill="rgba(75,127,151,255)" stroke="rgba(75,127,151,255)" d="m194 153-164 5L181 30l13 123"/><path fill="rgba(56,119,154,255)" stroke="rgba(56,119,154,255)" d="M300 0v188l-56-84L300 0"/><path fill="rgba(106,151,146,255)" stroke="rgba(106,151,146,255)" d="m300 188-106-35 50-49 56 84"/><path fill="rgba(123,161,184,255)" stroke="rgba(123,161,184,255)" d="M194 153 181 30l63 74-50 49"/><path fill="rgba(75,137,176,255)" stroke="rgba(75,137,176,255)" d="M0 0h300l-63 7L0 0"/><path fill="rgba(86,142,179,255)" stroke="rgba(86,142,179,255)" d="M181 30 0 0l237 7-56 23"/><path fill="rgba(109,146,191,255)" stroke="rgba(109,146,191,255)" d="m300 0-56 104-7-97 63-7"/><path fill="rgba(225,167,61,255)" stroke="rgba(225,167,61,255)" d="m244 104-63-74 56-23 7 97"/></g></g></svg>