<svg xmlns="http://www.w3.org/2000/svg" width="300" height="188" viewBox="0 0 300 188"><g stroke-linecap="round"><path fill="rgba(71,125,149,255)" stroke="rgba(71,125,149,255)" d="M300 0v188l-6-13 6-175"/><path fill="rgba(114,154,179,255)" stroke="rgba(114,154,179,255)" d="M0 188V0l35 12L0 188"/><path fill="rgba(121,159,182,255)" stroke="rgba(121,159,182,255)" d="M72 34 0 188 35 12l37 22"/><path fill="rgba(126,151,147,255)" stroke="rgba(126,151,147,255)" d="M300 188H0l122-85 178 85"/><path fill="rgba(111,140,146,255)" stroke="rgba(111,140,146,255)" d="m294 175 6 13-178-85 172 72"/><path fill="rgba(66,132,157,255)" stroke="rgba(66,132,157,255)" d="M0 188 72 34l50 69L0 188"/><path fill="rgba(115,160,189,255)" stroke="rgba(115,160,189,255)" d="m72 34 33 18 17 51-50-69"/><path fill="rgba(254,157,78,255)" stroke="rgba(254,157,78,255)" d="M105 52 72 34l155-17-122 35"/><path fill="rgba(83,136,178,255)" stroke="rgba(83,136,178,255)" d="M0 0h300l-73 17L0 0"/><path fill="rgba(82,137,178,255)" stroke="rgba(82,137,178,255)" d="M35 12 0 0l227 17-192-5"/><path fill="rgba(81,142,207,255)" stroke="rgba(81,142,207,255)" d="M72 34 35 12l192 5L72 34"/><path fill="rgba(119,161,185,255)" stroke="rgba(119,161,185,255)" d="m122 103-17-51 122-35-105 86"/><path fill="rgba(108,165,194,255)" stroke="rgba(108,165,194,255)" d="m300 0-6 175-67-158 73-17"/><path fill="rgba(56,132,174,255)" stroke="rgba(56,132,174,255)" d="m294 175-172-72 105-86 67 158"/></g><rect width="100%" height="100%" fill="#5c8fa4"/></svg>