<svg xmlns="http://www.w3.org/2000/svg" width="300" height="187"><rect width="100%" height="100%" fill="#5c8fa4"/><g fill-opacity=".5"><path fill="#ffb03d" d="M164.6 5.3 59.2 43.9l259 14.1z"/><path fill="#5b1500" d="m318.2 203.3-148.9-21L228 93.1z"/><path fill="#fff3bd" d="m67.4 205.7-85.6-41 238-6z"/><path fill="#8fadc8" d="M318.2 89.6-18.2 98l48-78.6z"/><path fill="#ff9d48" d="M181 12.3 76.9 41.6l205 10.5z"/><path fill="#95c9c6" d="m219.7 160 25.8-30.5 72.7 39.8z"/><path fill="#8a0000" d="m210.4 161.1 48-57.4-48 3.5z"/><path fill="#f3d0b6" d="m-18.2 183.4 161.8-27 64.4 49.3z"/><path fill="#2f728a" d="m260.7 96.7-278.9-2.4L18.2 160z"/><path fill="#212027" d="m188 205.7 130.2-36.4-143-2.3z"/><path fill="#2f7086" d="m259.6 81.4-31.7 70.4 90.3-9.4z"/><path fill="#82a6c1" d="M315.8 94.3 133 95.5l178.1-61z"/><path fill="#4085c3" d="M294.7 17 65 14.6l124.3-32.8z"/><path fill="#ffb169" d="m150.6 14.6-68 16.5 100.8 27z"/><path fill="#6e6858" d="m175.2 49.8 21 103.1-29.2 32.8z"/><path fill="#4a87be" d="M96.7-18.2-18.2 12.3l102 51.6z"/><path fill="#770200" d="M233.8 145.9 195 158.8l38.7-54z"/><path fill="#ffdfc0" d="m295.9 168.2 22.3-13L256 160z"/><path fill="#f99e58" d="m185.7 56.8 25.8-38.6 58.6 22.2z"/><path fill="#4a7f8c" d="m40.4 151.8 164-8.2 14.2-49.3z"/><path fill="#146f92" d="m318.2 122.5-20-27L215 98z"/><path fill="#5592c1" d="m298.2-18.2-62 35.2L304 69.7z"/><path fill="#7b9187" d="m162.3 162.3-83.2-23.4-82 22.2z"/><path fill="#7baac5" d="m182.2 55.7-7 48L244.3 51z"/><path fill="#bf4100" d="M176.4 39.3 192.8 51l2.3-16.4z"/><path fill="#d7ccb8" d="M168.2 202.1 19.3 165.8l148.9-4.7z"/><path fill="#ffad7e" d="m134.2 15.8 56.2 1.2L174 52z"/><path fill="#31373e" d="m273.6 205.7-82-42.2 126.6 4.7z"/><path fill="#8c3b0b" d="m250.2 38 2.3 15.3-15.2-1.2z"/><path fill="#cbbfaf" d="M4.1 205.7 131.8 167l-138.2-4.7z"/><path fill="#56828a" d="m318.2 158.8-52.8-41-46.8 38.6z"/><path fill="#776254" d="m175.2 89.6 10.5-49.2L173 56.8z"/><path fill="#580d00" d="m229.1 143.6-49.2 4.6 27 9.4z"/><path fill="#ff9d56" d="m185.7 40.4-98.4-1.1 30.5-18.8z"/><path fill="#868a86" d="m194 164.6 10.5 14.1-4.7-39.8z"/><path fill="#5087b2" d="m12.3-18.2 184 28.2-214.5 25.7z"/><path fill="#2084a9" d="m177.5 116.6 63.3-18.7-62-1.2z"/><path fill="#892000" d="m231.4 141.2 11.8-35.1h-31.7z"/><path fill="#c1c3b6" d="m191.6 165.8-20 3.5 1.3-18.7z"/><path fill="#2e2c34" d="m257.2 116.6-4.7-14-5.8 32.8z"/><path fill="#7aa2ba" d="M157.6 54.5 318.2 99V51z"/><path fill="#ecd9c4" d="m256 163.5 11.8-5.9-30.5 2.4z"/><path fill="#4d7e8e" d="M-18.2 156.4V105l181.7 36.3z"/><path fill="#689bbd" d="M-13.5 19.3 153 59.2-18 65z"/><path fill="#7c6747" d="m165.8 135.4 5.9 38.6 4.7-41z"/><path fill="#ffc950" d="m251.4 42.8 19.9 1.1-18.8 13z"/><path fill="#ffdb7c" d="m113 45.1-23.4-3.5L112 25.2z"/><path fill="#a6d4d3" d="m212.7 161.1 2.3-5.8-7 2.3z"/><path fill="#767e73" d="m215 123.6-29.3 28.2 24.7-49.3z"/><path fill="#79abc9" d="m179.9 79.1 8.2-34-9.4 4.7z"/></g></svg>