<svg xmlns="http://www.w3.org/2000/svg" width="300" height="187"><rect width="100%" height="100%" fill="#5c8fa4"/><g fill-opacity=".5" transform="translate(.6 .6)scale(1.17)"><circle cx="201" cy="141" r="52" fill="#5c2913"/><circle cx="145" cy="17" r="65" fill="#d5a988"/><circle cx="104" cy="159" r="39" fill="#ffdeb1"/><circle cx="33" cy="159" r="33" fill="#ffd6ac"/><circle cx="138" cy="28" r="18" fill="#ffb441"/><circle cx="174" cy="31" r="17" fill="#ff941e"/><circle cx="234" cy="114" r="31" fill="#4c95aa"/><circle cx="102" cy="109" r="30" fill="#317388"/><circle cx="215" cy="38" r="11" fill="#ff9815"/><circle cx="192" cy="105" r="15" fill="#9a0000"/><circle cx="30" cy="109" r="31" fill="#346f85"/><circle cx="111" cy="28" r="14" fill="#ffae3e"/><circle cx="190" r="21" fill="#157eca"/><circle cx="117" cy="67" r="29" fill="#5da5d0"/><circle cx="56" cy="52" r="34" fill="#88abc8"/><circle cx="97" r="20" fill="#167ccb"/><circle cx="86" cy="31" r="11" fill="#ffc95a"/><circle cx="178" cy="65" r="22" fill="#66aad6"/><circle cx="155" cy="100" r="26" fill="#437c8c"/><circle cx="194" cy="159" r="22" fill="#1b151e"/><circle cx="185" cy="121" r="11" fill="#710000"/><circle cx="137" r="15" fill="#127dce"/><circle cx="193" cy="31" r="13" fill="#ffa448"/><circle cx="127" cy="159" r="24" fill="#f3d3b0"/><circle cx="72" cy="159" r="23" fill="#f0dbc1"/><circle cx="233" cy="59" r="24" fill="#98afc0"/><circle cx="246" cy="134" r="10" fill="#cdcbb5"/><circle cx="237" cy="159" r="19" fill="#241e26"/><circle cx="239" cy="107" r="28" fill="#32738c"/><circle cx="146" cy="28" r="16" fill="#ff9a53"/></g></svg>