<svg xmlns="http://www.w3.org/2000/svg" width="300" height="300"><path fill="#5faaba" d="M-40-40h76v76h-76z"/><path fill="#65adbb" d="M36-40h38v76H36z"/><path fill="#69aebc" d="M74-40h38v76H74z"/><path fill="#67adbc" d="M112-40h38v76h-38z"/><path fill="#67aebc" d="M150-40h38v76h-38z"/><path fill="#62abb9" d="M188-40h38v76h-38z"/><path fill="rgba(94,168,183,0.99)" d="M226-40h38v76h-38z"/><path fill="#5fa6b5" d="M264-40h76v76h-76z"/><path fill="#86b6c1" d="M-40 36h76v38h-76z"/><path fill="#85b8c3" d="M36 36h38v38H36z"/><path fill="#84b9c5" d="M74 36h38v38H74z"/><path fill="#85b8c5" d="M112 36h38v38h-38z"/><path fill="#81b6c3" d="M150 36h38v38h-38z"/><path fill="#7bb5c1" d="M188 36h38v38h-38z"/><path fill="#77b2c0" d="M226 36h38v38h-38z"/><path fill="#76b0bd" d="M264 36h76v38h-76z"/><path fill="#a7bfc8" d="M-40 74h76v38h-76z"/><path fill="#99b1b8" d="M36 74h38v38H36z"/><path fill="#8fa7ad" d="M74 74h38v38H74z"/><path fill="#a3c1ca" d="M112 74h38v38h-38z"/><path fill="#a1bfc7" d="M150 74h38v38h-38z"/><path fill="#9cbbc3" d="M188 74h38v38h-38z"/><path fill="#9ab9c2" d="M226 74h38v38h-38z"/><path fill="#94b6bf" d="M264 74h76v38h-76z"/><path fill="#a7c4ce" d="M-40 112h76v38h-76z"/><path fill="#899295" d="M36 112h38v38H36z"/><path fill="#525b5f" d="M74 112h38v38H74z"/><path fill="#64767b" d="M112 112h38v38h-38z"/><path fill="#9db3ba" d="M150 112h38v38h-38z"/><path fill="#9ab2ba" d="M188 112h38v38h-38z"/><path fill="#9bbdc7" d="M226 112h38v38h-38z"/><path fill="#96b9c2" d="M264 112h76v38h-76z"/><path fill="#8f9e9e" d="M-40 150h76v38h-76z"/><path fill="#a29c98" d="M36 150h38v38H36z"/><path fill="#636c6f" d="M74 150h38v38H74z"/><path fill="#787877" d="M112 150h38v38h-38z"/><path fill="#8b8e91" d="M150 150h38v38h-38z"/><path fill="#6b6d66" d="M188 150h38v38h-38z"/><path fill="#6f6e66" d="M226 150h38v38h-38z"/><path fill="#7c8e8f" d="M264 150h76v38h-76z"/><path fill="#6f523a" d="M-40 188h76v38h-76z"/><path fill="#755c48" d="M36 188h38v38H36z"/><path fill="#554738" d="M74 188h38v38H74z"/><path fill="#625142" d="M112 188h38v38h-38z"/><path fill="#847369" d="M150 188h38v38h-38z"/><path fill="#664b34" d="M188 188h38v38h-38z"/><path fill="#624229" d="M226 188h38v38h-38z"/><path fill="#654d39" d="M264 188h76v38h-76z"/><path fill="#3b2d1d" d="M-40 226h76v38h-76z"/><path fill="#3a2e1f" d="M36 226h38v38H36z"/><path fill="#503d2a" d="M74 226h38v38H74z"/><path fill="#503f2e" d="M112 226h38v38h-38z"/><path fill="#4c3c2b" d="M150 226h38v38h-38z"/><path fill="#6f5032" d="M188 226h38v38h-38z"/><path fill="#875f41" d="M226 226h38v38h-38z"/><path fill="#3f3428" d="M264 226h76v38h-76z"/><path fill="#3d2e1e" d="M-40 264h76v76h-76z"/><path fill="#3d2f1f" d="M36 264h38v76H36z"/><path fill="#493926" d="M74 264h38v76H74z"/><path fill="#423627" d="M112 264h38v76h-38z"/><path fill="#413729" d="M150 264h38v76h-38z"/><path fill="#553f29" d="M188 264h38v76h-38z"/><path fill="#734f31" d="M226 264h38v76h-38z"/><path fill="#523f2d" d="M264 264h76v76h-76z"/></svg>