<svg xmlns="http://www.w3.org/2000/svg" width="300" height="300"><rect width="100%" height="100%" fill="#68adbb"/><g fill-opacity=".5"><path fill="#500" d="m82.6 75.6 235.6 222.6-336.4 1.2z"/><path fill="#512000" d="m318.2 318.2-336.4-31.7 304.7-145.3z"/><path fill="#bec2c6" d="m311.1 47.5-329.3 28 314.1 109z"/><path fill="#3a1b00" d="M147 204.5 5.4 318.2l-21.1-131.3z"/><path fill="#dbcfcc" d="M72 212.7 48.7 39.3l-66.8 79.6z"/><path fill="#531e03" d="M310 192.8 167 154l138.3 130z"/><path fill="#aaaba6" d="m210.4 81.4-23.5 152.4-73.8-59.8z"/><path fill="#7f5f42" d="m174 154.1 138.3 10.5-85.5 153.6z"/><path fill="#2f2512" d="M-18.2 311.1v-130l173.5 134.7z"/><path fill="#2a4344" d="m148.2 161.1-96-42.2 91.4-1.1z"/><path fill="#c6a795" d="M65 130.7-18.2 188l88 4.7z"/><path fill="#9cbcc6" d="m240.8 126-259-16.4 41-89z"/><path fill="#1d2e31" d="M76.8 76.8 94.3 140l-22.2 6z"/><path fill="#7b4d2a" d="M-14.6 244.3 89.6 208l-75-30.5z"/><path fill="#091517" d="m284.2 304.1 34-45.7-39.9-63.3z"/><path fill="#768986" d="M103.7 97.9v94.9l-36.3-3.5z"/><path fill="#0a1e18" d="m184.6 286.5-29.3-39.8-52.8 45.7z"/><path fill="#6e939c" d="M306.4 145.9 296 195.1l-105.5-53.9z"/><path fill="#ecd2c9" d="M41.6 181 65 204.6l-2.3-70.3z"/><path fill="#dabdb1" d="m164.6 212.7-25.7-34 23.4-22.3z"/><path fill="#9c6c44" d="m201 226.8 72.6 62-19.9-78.4z"/><path fill="#e9d4cc" d="m172.9 157.6 9.3 41-11.7 17.6z"/><path fill="#584932" d="M278.3 188 42.8 239.7l61 41z"/><path fill="#8a989a" d="M-1.8 142.4-7.6 201l90.2-48z"/><path fill="#74b4c2" d="M318.2 74.4-18.2 55.7l223.9-48z"/><path fill="#716261" d="m202.1 169.3-7-55 15.3 10.5z"/><path fill="#4b3624" d="m246.7 164.6 71.5 81-132.5-58.7z"/><path fill="#a6bfc7" d="m279.5 119-225-4.7 153.5-48z"/><path fill="#182c30" d="m52.1 112 43.4 29.2-28.1 1.2z"/><path fill="#f3d1c8" d="M45.1 177.5 61.5 139l-11.7-34z"/><path fill="#513f28" d="m140 184.6-90.2 21 89 91.5z"/><path fill="#627274" d="m187 157.6-62.2-16.4L62.7 194z"/><path fill="#192429" d="m97.9 110.7 3.5-14 3.5 28.1z"/><path fill="#d3b8b2" d="m92 109.6 11.7 17.5-2.3 20z"/><path fill="#956e53" d="m156.4 189.3-9.3 55 16.4 3.6z"/><path fill="#d47f1f" d="M222 318.2h47l-10.6-34z"/><path fill="#0e1716" d="m1.8 231.4 71.4 59.8 3.6-29.3z"/><path fill="#ffe4e2" d="M198.6 167 187 140l7-15.2z"/><path fill="#37586c" d="m194 160-10.6 57.4-5.9-64.5z"/><path fill="#5ba5b5" d="m307.6 72-246-89L317 .6z"/><path fill="#95bfc9" d="M192.8 51 86 110.7l-12.9-68z"/><path fill="#1e333b" d="m101.4 119 3.5 28 38.7-24.5z"/><path fill="#b0c5cc" d="m226.8 127.1-85.6-10.5 11.7 30.5z"/><path fill="#172a34" d="m171.7 213.9-2.4-28.2-7 36.4z"/><path fill="#162012" d="M219.7 318.2h-23.4l-3.5-78.6z"/><path fill="#684a2c" d="M24 293.6 62.7 277l-43.4-19.9z"/><path fill="#978579" d="m265.4 170.5 52.8 8.2-13 41z"/><path fill="#0f1617" d="m112 211.5-21.2-2.3-30.4 42.2z"/><path fill="#e5c1c1" d="M246.7 190.4v-9.3l8.2 8.2z"/><path fill="#676256" d="M66.2 141.2v57.4l25.8 7z"/></g></svg>