<svg xmlns="http://www.w3.org/2000/svg" width="300" height="300"><rect width="100%" height="100%" fill="#68adbb"/><g fill-opacity=".5" transform="translate(.6 .6)scale(1.17)"><circle cx="123" cy="255" r="149" fill="#570000"/><circle cx="176" cy="86" r="59" fill="#b8c9ce"/><circle cx="84" cy="255" r="91" fill="#321b00"/><circle cx="30" cy="105" r="60" fill="#b9aaa6"/><circle cx="67" cy="111" r="15"/><circle cx="135" cy="155" r="21" fill="#cfc4b6"/><circle cx="233" cy="215" r="80" fill="#693d0d"/><circle cx="101" cy="70" r="32" fill="#b9c6cc"/><circle cx="242" cy="119" r="38" fill="#a9b2b9"/><circle cx="12" cy="216" r="57" fill="#412c0f"/><circle cx="255" cy="220" r="28" fill="#051316"/><circle cx="88" cy="131" r="35" fill="#4c6263"/><circle cx="47" cy="154" r="11" fill="#fff4e1"/><circle cx="9" cy="79" r="45" fill="#abc9d5"/><circle cx="146" cy="111" r="22" fill="#b0cfd5"/><circle cx="206" cy="206" r="24" fill="#9c6b43"/><circle cx="100" cy="113" r="12" fill="#0c1c22"/><circle cx="42" cy="130" r="15" fill="#d6c8c0"/><circle cx="137" cy="149" r="31" fill="#848885"/><circle cx="191" cy="12" r="50" fill="#5ba8b8"/><circle cx="40" cy="178" r="17" fill="#8c603c"/><circle cx="54" cy="105" r="7" fill="#000e17"/><circle cx="132" cy="234" r="14" fill="#001010"/><circle cx="66" cy="86" r="6" fill="#412521"/><circle cx="51" cy="165" r="5" fill="#fff8ec"/><circle cx="234" cy="88" r="35" fill="#a3bbc3"/><circle cx="9" cy="151" r="16" fill="#a29283"/><circle cx="73" cy="152" r="19" fill="#6e7875"/><circle cx="131" cy="202" r="9" fill="#aa7958"/><circle cx="65" cy="76" r="4"/></g></svg>