<svg xmlns="http://www.w3.org/2000/svg" width="300" height="300"><g filter="blur(10px)"><rect width="200%" height="200%" x="-50%" y="-50%" fill="#68adbb"/><rect width="100%" height="100%" fill="#68adbb"/><g fill-opacity=".5" transform="translate(.6 .6)scale(1.17)"><circle cx="123" cy="255" r="149" fill="#570000"/><circle cx="84" cy="255" r="91" fill="#321b00"/><circle cx="176" cy="84" r="60" fill="#b7c9ce"/><circle cx="28" cy="104" r="62" fill="#b9aaa6"/><circle cx="75" cy="115" r="24" fill="#253033"/><circle cx="221" cy="209" r="70" fill="#693d0b"/><circle cx="134" cy="156" r="21" fill="#d0c4b5"/><circle cx="100" cy="70" r="32" fill="#b9c6cd"/><circle cx="24" cy="197" r="38" fill="#482f0f"/><circle cx="253" cy="104" r="56" fill="#a5b1b7"/><circle cx="255" cy="220" r="28" fill="#051317"/><circle cx="47" cy="154" r="11" fill="#fff3e0"/><circle cx="147" cy="110" r="23" fill="#b1ccd1"/><circle cx="10" cy="81" r="43" fill="#accad6"/><circle cx="62" cy="109" r="13" fill="#161f25"/><circle cx="83" cy="148" r="29" fill="#697770"/><circle cx="104" cy="111" r="11" fill="#071e22"/><circle cx="204" cy="206" r="24" fill="#9d6b44"/><circle cx="189" cy="5" r="57" fill="#5aa8b8"/><circle cx="39" cy="125" r="18" fill="#ccc6c0"/><circle cx="19" cy="241" r="44" fill="#282113"/><circle cx="138" cy="150" r="30" fill="#828885"/><circle cx="52" cy="167" r="5" fill="#fff2dc"/><circle cx="132" cy="232" r="14" fill="#000f10"/><circle cx="66" cy="85" r="6" fill="#3c2321"/><circle cx="100" cy="193" r="34" fill="#5b442a"/><circle cx="66" cy="76" r="4" fill="#000006"/><circle cx="38" cy="179" r="17" fill="#805836"/><circle cx="75" cy="96" r="6" fill="#bbdde7"/><circle cx="69" cy="110" r="12" fill="#1a2b33"/></g></g></svg>