<svg xmlns="http://www.w3.org/2000/svg" width="300" height="300"><rect width="100%" height="100%" fill="#68adbb"/><g fill-opacity=".5"><path fill="#500" d="m79.1 73.2 239 219.2-336.3 19.9z"/><path fill="#512000" d="m318.2 318.2-31.7-177-304.7 145.3z"/><path fill="#bfc3c8" d="M317 49.8-18.2 73.2l308.2 109z"/><path fill="#3a1a00" d="m5.3 318.2-23.5-131.3 166.4 17.6z"/><path fill="#d8cfcd" d="M-18.2 113 65 209.3V41.6z"/><path fill="#521e03" d="m170.5 154.1 131.3 36.3 16.4 99.6z"/><path fill="#a6a7a2" d="m187 230.3 26.9-139.5-109 80.9z"/><path fill="#805f41" d="M220.9 318.2 198.6 133l105.5 61z"/><path fill="#40341d" d="M-18.2 315.8 7.6 174l264.9 144.2z"/><path fill="#9dbdc6" d="m-18.2 22.9 318.8 84.3L6.4 119z"/><path fill="#c4ada0" d="m-15.8 195.1 83.2-7-9.4-72.7z"/><path fill="#3a5252" d="m143.6 121.3-13 83.2L51 116.6z"/><path fill="#0b1516" d="m283 318.2 35.2-88-38.7-30.4z"/><path fill="#8d9a98" d="m100.2 107.2-16.4 83.2 23.4 5.9z"/><path fill="#17272c" d="M75.6 142.4v-68l21 69.2z"/><path fill="#dabcb0" d="m136.5 177.5 25.8-19.9v51.6z"/><path fill="#774b2d" d="m27.5 177.5 62.1 42.2L-18.2 235z"/><path fill="#719197" d="m314.6 218.6 3.6-76.2-90.3 3.5z"/><path fill="#fde3da" d="m171.7 163.5 10.5 24.6-8.2 25.8z"/><path fill="#5f4b31" d="m175.2 318.2 4.7-163 63.3 30.5z"/><path fill="#9f6e46" d="M271.3 287.7 195 220.9l58.6-3.5z"/><path fill="#2c2317" d="M135.4 292.4 2.9 318.2l-14-99.6z"/><path fill="#eed0c5" d="m44 183.4 9.3-72.7 15.3 89.1z"/><path fill="#8a9697" d="m-.6 196.3-17.6-54L94.3 153z"/><path fill="#5c4a33" d="m192.8 228-85.6-47-32.8 116z"/><path fill="#74b3c1" d="m303 86.1-13-71.5-264.8 34z"/><path fill="#0f1e1e" d="m184.6 236.1-22.3 62.1-32.8-30.4z"/><path fill="#adbec5" d="m-18.2 68.6 113.7 45.7-84.4 1.1z"/><path fill="#5fadc3" d="m291.2 150.6-85.5-11.7v23.4z"/><path fill="#97591f" d="m228 283-18.8 35.2 98.4-21.1z"/><path fill="#303d42" d="m151.8 170.5-9.4-51.6-39.9 2.4z"/><path fill="#011d26" d="m52.1 114.3 22.3 5.8-3.5 17.6z"/><path fill="#6c787a" d="m62.7 205.7 106.6-63.3-94.9 1.2z"/><path fill="#47311d" d="m283 233.8-83.2-49.2 79.7 8.2z"/><path fill="#afc5cd" d="M188 94.3 74.5 78l124.2 79.7z"/><path fill="#121d1e" d="m96.7 115.4 11.7 11.7-8.2-23.4z"/><path fill="#b1cfd2" d="m85 107.2 16.4 23.5-14.1-62.1z"/><path fill="#615f66" d="m196.3 115.4 2.3 42.2 8.2-36.3z"/><path fill="#9e7357" d="m163.5 246.7-8.2-46.9-8.2 46.9z"/><path fill="#54a3b3" d="m318.2 42.8-24.6-61-211 24.6z"/><path fill="#152e3b" d="M162.3 162.3v-8.2l27 7z"/><path fill="#9a8174" d="M318.2 198.6V160l-66.8 11.7z"/><path fill="#674626" d="M59.2 276 8.8 251.4l23.4 49.2z"/><path fill="#1e211e" d="m140 242-12.9-51.6 25.8 22.3z"/><path fill="#413d35" d="m161.1 260.7 4.7-72.6 15.3 52.7z"/><path fill="#b1c4ca" d="M145.9 128.3h79.7l-73.8 20z"/><path fill="#edc9bf" d="m100.2 149.4-4.7-28.1 7 12.9z"/><path fill="#031013" d="m33.4 266.6-12.9-30.5L83.8 276z"/><path fill="#1a1c14" d="m187 260.7 18.7 25.8-11.8-58.6z"/><path fill="#66b0c3" d="m40.4 167 5.9-24.6-61 5.8z"/></g></svg>