<svg xmlns="http://www.w3.org/2000/svg" width="300" height="300"><rect width="100%" height="100%" fill="#68adbb"/><g fill-opacity=".5"><path fill="#500" d="m-18.2 299.4 336.4-1.2L81.4 75.6z"/><path fill="#512000" d="m318.2 318.2-336.4-32.8 302.4-144.2z"/><path fill="#c6cace" d="m-17 122.5 335.2-10.6L27.5 32.2z"/><path fill="#3b1c00" d="m5.3 318.2-20-131.3 164.1 16.4z"/><path fill="#a59b92" d="M-18.2 179.9 181.1 215 318 89.6z"/><path fill="#4f1e05" d="M308.8 286.5 163.5 151.8 304 191.6z"/><path fill="#ebd7d0" d="m65 205.7 1.2-75-84.4-20z"/><path fill="#a3bcc5" d="M293.6 188-18.2 54.6 311.1 58z"/><path fill="#3e4841" d="m122.5 318.2 21-198-89-4.8z"/><path fill="#956a3e" d="m168.2 212.7 103 3.5-16.3 102z"/><path fill="#342c18" d="m203.3 283-205 35.2-10.6-122z"/><path fill="#b0a6a2" d="m177.5 224.4 2.4-61-64.5 7.1z"/><path fill="#193139" d="m74.4 151.8 16.4-22.3-15.2-59.8z"/><path fill="#69492d" d="m172.9 305.3-191-96.1 50.3-29.3z"/><path fill="#816b5e" d="m179.9 157.6 130 2.4 8.3 56.2z"/><path fill="#011114" d="m318.2 240.8-37.5-35.1 7 93.7z"/><path fill="#a0a9af" d="m99 196.3-3.5-79.7 14 32.8z"/><path fill="#989894" d="M-18.2 142.4V208l102-57.4z"/><path fill="#fed5c7" d="m49.8 114.3-5.9 79.6 20-55z"/><path fill="#523f27" d="M290 295.9 119 184.6-1.9 226.8z"/><path fill="#75b4c3" d="m68.6 4.1-86.8 61 311.8-2.4z"/><path fill="#abbec6" d="m149.4 148.2 168.8-12.8-173.5-55.1z"/><path fill="#52595d" d="m196.3 156.4 1.2-45.7 16.4 43.4z"/><path fill="#60a4b4" d="m197.5 148.2 120.7-7-31.7 27z"/><path fill="#1e2726" d="M151.8 303 167 191.5l11.7 85.5z"/><path fill="#82654c" d="m224.4 188-77.3 35.2 1.1 31.7z"/><path fill="#9dc7ce" d="m88.5 67.4 39.8 52.7-45.7-5.8z"/><path fill="#2e3b42" d="m116.6 143.6-11.7 25.7-5.9-65.6z"/><path fill="#141713" d="M76.8 278.3 41.6 228l-59.8 11.7z"/><path fill="#664729" d="m174 276 27-105.5 53.9-8.2z"/><path fill="#9a6e4d" d="m270.1 277.1-31.6-68-36.4 20z"/><path fill="#637176" d="M65 140v70.4L170.5 154z"/><path fill="#fff7ed" d="m65 178.7-18.7-1.2 15.2 20z"/><path fill="#fcdbd5" d="m187 141.2 12.8 27-4.7-44.6z"/><path fill="#d7c4bc" d="m163.5 182.2-8.2-37.5-4.7 49.2z"/><path fill="#ffe9e4" d="m171.7 170.5 1.2 31.6 7-8.2z"/><path fill="#adbec5" d="m-18.2 126 97.3-14-89-71.6z"/><path fill="#031519" d="m169.3 290-31.6-11.7 17.6-36.3z"/><path fill="#1f3239" d="m102.5 138.9 48 4.7-11.6-25.8z"/><path fill="#000308" d="m117.8 272.5 10.5 14-38.7 31.7z"/><path fill="#212518" d="m191.6 228 4.7 80.8 27 9.4z"/><path fill="#374e56" d="m162.3 142.4 10.6 15.2-7 27z"/><path fill="#0c2b37" d="m70.9 137.7 11.7-17.6-29.3-4.7z"/><path fill="#66a4b4" d="m-5.3 143.6 50.4 2.3v32.8z"/><path fill="#caada3" d="m104.9 151.8-7-39.9-3.6 21.1z"/><path fill="#191b1b" d="m95.5 199.8 12.9 14-54 45.8z"/><path fill="#22353c" d="m163.5 189.3 5.8 21v-35.1z"/><path fill="#bf977e" d="M-18.2 203.3V180l83.2-9.4z"/><path fill="#486370" d="m197.5 163.5-17.6 59.7-2.4-70.3z"/><path fill="#202220" d="M151.8 210.4 140 243.2l-14-51.6z"/></g></svg>