<svg xmlns="http://www.w3.org/2000/svg" width="300" height="300"><rect width="100%" height="100%" fill="#68adbb"/><g fill-opacity=".5"><path fill="#500" d="m85 74.4 233.2 223.8-336.4 1.2z"/><path fill="#512000" d="m318.2 317-336.4-31.6 304.7-144.2z"/><path fill="#c0c3c7" d="m-18.2 69.7 314.1 116 9.4-131.2z"/><path fill="#3a1a00" d="m142.4 206.8-160.6-22.2L5.3 318.2z"/><path fill="#d6cdcb" d="m62.7 28.7 3.5 178.1-84.4-86.7z"/><path fill="#531f04" d="m312.3 290 1.2-93.7-147.7-45.7z"/><path fill="#a9aca9" d="M209.2 83.8 109.6 174l77.3 56.3z"/><path fill="#815f41" d="m222 318.2 77.4-131.3-102-51.5z"/><path fill="#342d18" d="m-1.8 199.8 228.6 97.3-225 21z"/><path fill="#9dbdc7" d="m318.2 115.4-336.4 1.2 3.6-93.7z"/><path fill="#1e393b" d="m142.4 122.5-72.7 27-16.4-35.2z"/><path fill="#af998b" d="m-18.2 195.1 134.8-16.4L-14.6 146z"/><path fill="#f6d3c6" d="m52.1 99 16.5 93.8-24.7-4.7z"/><path d="m75.6 74.4 9.4 27-8.2 5.8z"/><path fill="#6a4a2d" d="m32.2 181-50.4 27L160 293.6z"/><path fill="#091517" d="m318.2 249-39.9-52.7 7 109z"/><path fill="#f2ddd1" d="m103.7 127.1-9.4-12.8 5.9 38.6z"/><path fill="#6f9097" d="m235 145.9 62-2.3 21.2 84.3z"/><path fill="#5f7577" d="M63.9 199.8 195 155.3 72 143.6z"/><path fill="#d6b7ab" d="m165.8 216.2-31.6-39.8 27-17.6z"/><path fill="#ffe9de" d="m181 188-8.1 27-1.2-46.8z"/><path fill="#9b6c45" d="m254.9 218.6-62.1-1.2 82 75z"/><path fill="#554434" d="m299.4 196.3-118.3-38.7 1.1 75z"/><path fill="#0d292b" d="M141.2 117.8 101.4 140l43.3 2.4z"/><path fill="#1e2a25" d="m156.4 303 23.5-43.4-13-72.7z"/><path fill="#7ab6c4" d="M308.8 69.7 87.3 7.7 18.2 67.3z"/><path fill="#54432b" d="m128.3 183.4 65.6 80.9-200.3-37.5z"/><path fill="#74abba" d="m188 168.2 130.2-17.6-103.2-14z"/><path fill="#131612" d="m39.3 230.3 42.1 50.4-99.6-41z"/><path fill="#966f54" d="m163.5 247.9-7-55.1-10.6 53.9z"/><path fill="#001017" d="m168.2 287.7-11.8-43.4-17.5 35.2z"/><path fill="#abc4cc" d="m153 149.4-34-95 78.5 76.3z"/><path fill="#54575f" d="m196.3 115.4 10.5 7-1.1 31.7z"/><path fill="#976328" d="m235 285.4 80.8 12.8-117.2 20z"/><path fill="#976f48" d="m206.8 197.5-27 68 8.3-77.4z"/><path fill="#649dac" d="m46.3 179.9-2.4-36.3-52.7 2.3z"/><path fill="#a2c1c8" d="m81.4 61.5 3.6 55.1 99.6 5.9z"/><path fill="#282928" d="m96.7 110.7 8.2 18.8-2.4-24.6z"/><path fill="#0b1317" d="M108.4 213.9 92 205.7l-27 42.2z"/><path fill="#00040a" d="m122.5 272.5 2.3 21-42.2 24.7z"/><path fill="#ffe7e0" d="m187 136.5 8.1 25.8v-31.6z"/><path fill="#fff8ef" d="M52.1 178.7 64 180v22z"/><path fill="#3c2e27" d="m251.4 215-30.5-8.2 29.3-48z"/><path fill="#a5bcc4" d="M81.4 115.4 18.2 49.8l-36.4 63.3z"/><path fill="#1d3237" d="m94.3 138.9-24.6 2.3-17.6-30.5z"/><path fill="#dcb9b6" d="m246.7 182.2 8.2 5.9-4.7 4.7z"/><path fill="#c4967d" d="m-18.2 179.9 76.2-7-76.2 30.4z"/><path fill="#92a9ae" d="m96.7 149.4 2.3 45.7 7-23.4z"/><path fill="#4ca0b1" d="M235 32.2 318.2.6 158.8-3z"/><path fill="#100e08" d="M38 294.7 87.4 262l-31.6 37.5z"/></g></svg>