<svg xmlns="http://www.w3.org/2000/svg" width="300" height="300" viewBox="0 0 300 300"><g stroke-linecap="round"><path fill="rgba(90,78,62,255)" stroke="rgba(90,78,62,255)" d="M300 300H0l152-46 148 46"/><path fill="rgba(160,148,146,255)" stroke="rgba(160,148,146,255)" d="M300 0v300l-52-92L300 0"/><path fill="rgba(132,102,74,255)" stroke="rgba(132,102,74,255)" d="m300 300-148-46 96-46 52 92"/><path fill="rgba(91,65,38,255)" stroke="rgba(91,65,38,255)" d="m248 208-96 46 13-34 83-12"/><path fill="rgba(127,179,195,255)" stroke="rgba(127,179,195,255)" d="M0 0h300l-70 128L0 0"/><path fill="rgba(154,185,190,255)" stroke="rgba(154,185,190,255)" d="m300 0-52 208-18-80L300 0"/><path fill="rgba(129,150,153,255)" stroke="rgba(129,150,153,255)" d="M0 300V0l8 213-8 87"/><path fill="rgba(31,29,18,255)" stroke="rgba(31,29,18,255)" d="M152 254 0 300l8-87 144 41"/><path fill="rgba(88,73,64,255)" stroke="rgba(88,73,64,255)" d="m165 220-13 34L8 213l157 7"/><path fill="rgba(158,188,200,255)" stroke="rgba(158,188,200,255)" d="m0 0 230 128-22 28L0 0"/><path fill="rgba(94,67,40,255)" stroke="rgba(94,67,40,255)" d="m248 208-83 12 43-64 40 52"/><path fill="rgba(136,90,67,255)" stroke="rgba(136,90,67,255)" d="m230 128 18 80-40-52 22-28"/><path fill="rgba(116,86,62,255)" stroke="rgba(116,86,62,255)" d="M165 220 8 213l200-57-43 64"/><path fill="rgba(36,59,67,255)" stroke="rgba(36,59,67,255)" d="M8 213 0 0l208 156L8 213"/></g></svg>