<svg xmlns="http://www.w3.org/2000/svg" width="300" height="300" viewBox="0 0 300 300"><g stroke-linecap="round"><path fill="rgba(173,152,145,255)" stroke="rgba(173,152,145,255)" d="M300 0v300l-66-70L300 0"/><path fill="rgba(105,86,70,255)" stroke="rgba(105,86,70,255)" d="M300 300H0l250-23 50 23"/><path fill="rgba(16,24,22,255)" stroke="rgba(16,24,22,255)" d="m0 300 234-70 16 47L0 300"/><path fill="rgba(145,115,87,255)" stroke="rgba(145,115,87,255)" d="m234 230 66 70-50-23-16-47"/><path fill="rgba(141,155,155,255)" stroke="rgba(141,155,155,255)" d="M0 300V0l19 203-19 97"/><path fill="rgba(162,191,199,255)" stroke="rgba(162,191,199,255)" d="m0 0 125 56L19 203 0 0"/><path fill="rgba(120,131,135,255)" stroke="rgba(120,131,135,255)" d="m125 56 109 174-215-27L125 56"/><path fill="rgba(80,63,43,255)" stroke="rgba(80,63,43,255)" d="M234 230 0 300l19-97 215 27"/><path fill="rgba(88,167,182,255)" stroke="rgba(88,167,182,255)" d="M0 0h300l-15 7L0 0"/><path fill="rgba(136,185,194,255)" stroke="rgba(136,185,194,255)" d="m300 0-66 230L285 7l15-7"/><path fill="rgba(121,177,192,255)" stroke="rgba(121,177,192,255)" d="M125 56 0 0l243 25-118 31"/><path fill="rgba(99,171,185,255)" stroke="rgba(99,171,185,255)" d="m0 0 285 7-42 18L0 0"/><path fill="rgba(158,187,195,255)" stroke="rgba(158,187,195,255)" d="M234 230 125 56l118-31-9 205"/><path fill="rgba(150,184,195,255)" stroke="rgba(150,184,195,255)" d="m285 7-51 223 9-205 42-18"/></g></svg>