<svg xmlns="http://www.w3.org/2000/svg" width="300" height="300"><rect width="100%" height="100%" fill="#68adbb"/><g fill-opacity=".5"><path fill="#500" d="m81.4 75.6-99.6 225 336.4-2.4z"/><path fill="#522100" d="m318.2 318.2-30.5-180.5-305.9 150z"/><path fill="#bfc3c8" d="M307.6 48.6-18.2 76.8 296 182.2z"/><path fill="#3b1c00" d="M-18.2 187 5.3 318.1l145.3-116z"/><path fill="#dbd1ce" d="m67.4 210.4-11.7-170-73.9 70.3z"/><path fill="#91806d" d="m264.3 276-57.5-140.6-144.1 19.9z"/><path fill="#491b03" d="m292.4 194 25.8 101.9-154.7-144.1z"/><path fill="#acb5b9" d="M182.2 210.4 170.5 56.8l-35.1 141.8z"/><path fill="#332d1a" d="m.6 318.2 209.8-37.5L-18.2 195z"/><path fill="#2d4447" d="m44 115.4 99.6 5.9 10.5 46.9z"/><path fill="#cdab98" d="m68.6 191.6-86.8-3.5 82-54z"/><path fill="#9bbdc6" d="m13.5 20.5-31.7 97.3 273-8.2z"/><path fill="#67492e" d="m178.7 310-196.9-98.5 51.6-35.1z"/><path fill="#1d1e1d" d="m73.2 102.5 14.1 22.3-10.5-50.4z"/><path fill="#895f39" d="m225.6 318.2 92.6-173.5-112.5 91.4z"/><path fill="#0e1718" d="m286.5 304.1 31.7-59.8-42.2-51.5z"/><path fill="#dfcec4" d="m97.9 156.4 7-28-9.4-9.5z"/><path fill="#6f8f95" d="m318.2 201-120.7-51.6 120.7-9.4z"/><path fill="#62412a" d="m290 196.3-110 37.5 50.4-80.9z"/><path fill="#60767a" d="M185.7 150.6 67.4 140 65 208z"/><path fill="#889392" d="m41.6 183.4 8.2-58.6-68 73.8z"/><path fill="#fffbf2" d="M44 182.2 65 201l-1-24.6z"/><path fill="#a0c0ca" d="M184.6 34.6 61.6 65l137 97.3z"/><path fill="#50402a" d="M-6.4 226.8 140 181l10.6 77.3z"/><path fill="#1a2e30" d="m96.7 140-29.3 7-14-35z"/><path fill="#6eb1bf" d="m-6.4 46.3 274.2-41L318.2 85z"/><path fill="#1b231d" d="M183.4 237.3 167 287.7l-91.4 12.9z"/><path fill="#efcec5" d="m49.8 115.4 16.4 25.8-21 50.4z"/><path fill="#151612" d="m38 228-56.2 14 99.6 38.7z"/><path fill="#665849" d="m144.7 249 28.2 11.7-3.6-92.5z"/><path fill="#ccada4" d="m135.4 183.4 24.6-29.3 4.6 55z"/><path fill="#70676a" d="m197.5 102.5 11.7 43.4-11.7 27z"/><path fill="#1b3137" d="m102.5 121.3 42.2-2.4-37.5 30.5z"/><path fill="#96796c" d="m298.2 210.4-58.6-54 78.6 35.2z"/><path fill="#ffe5dd" d="m178.7 195.1-8.2 8.2L173 167z"/><path fill="#6cb2c2" d="m287.7 162.3 25.8-27-113.7 16.5z"/><path fill="#c9791e" d="m217.4 318.2 44.5-36.4-1.2 36.4z"/><path fill="#ffdcd4" d="M196.3 123.6v39.9l-8.2-24.6z"/><path fill="#a8bcc3" d="M99 117.8-13.5 48.6v54z"/><path fill="#3d4950" d="m161.1 136.5 9.4 22.3-4.7 24.6z"/><path fill="#081a1c" d="m106 120.1-5.8-19.9-2.3 15.2z"/><path fill="#499faf" d="m145.9-18.2 78.5 49.3 93.8-28.2z"/><path fill="#362f14" d="m197.5 313.5-8.2-88 27 14.1z"/><path fill="#a9c3ca" d="m113 119 105.6-4.7L79 82.6z"/><path fill="#85a3ac" d="m-18.2 179.9 11.8-42.2 76.1 17.6z"/><path fill="#0f1618" d="M108.4 211.5 95.5 201 65 249z"/><path fill="#67808d" d="m160 147 41 13-8.2 25.7z"/><path fill="#ab7c3f" d="m197.5 278.3-7-12.9-4.8 24.6z"/><path fill="#90623d" d="m252.5 212.7-53.9 15.2 72.7 58.6z"/><path fill="#473d32" d="m318.2 190.4-95-5.8 23.5 34z"/></g></svg>