<svg xmlns="http://www.w3.org/2000/svg" width="300" height="300"><rect width="100%" height="100%" fill="#68adbb"/><g fill-opacity=".5" transform="translate(.6 .6)scale(1.17188)"><circle cx="123" cy="255" r="149" fill="#570000"/><circle cx="174" cy="85" r="59" fill="#b8c9cf"/><circle cx="84" cy="255" r="91" fill="#321b00"/><circle cx="30" cy="101" r="63" fill="#b7aba8"/><circle cx="65" cy="111" r="16"/><circle cx="224" cy="207" r="71" fill="#6a3d0c"/><circle cx="135" cy="157" r="21" fill="#d1c4b5"/><circle cx="103" cy="69" r="33" fill="#b4c5cc"/><circle cx="255" cy="108" r="54" fill="#a9b3b9"/><circle cx="91" cy="129" r="34" fill="#4c6263"/><circle cx="48" cy="155" r="12" fill="#ffe7d5"/><circle cx="19" cy="220" r="60" fill="#432e11"/><circle cx="255" cy="220" r="28" fill="#051317"/><circle cx="15" cy="85" r="39" fill="#b1cad4"/><circle cx="146" cy="111" r="23" fill="#aecbd1"/><circle cx="38" cy="126" r="19" fill="#c6c3be"/><circle cx="204" cy="206" r="24" fill="#9d6b44"/><circle cx="99" cy="113" r="12" fill="#0c1b22"/><circle cx="186" cy="12" r="50" fill="#5ca9b8"/><circle cx="136" cy="150" r="31" fill="#838783"/><circle cx="74" cy="155" r="20" fill="#6d736c"/><circle cx="39" cy="178" r="17" fill="#895e3b"/><circle cx="99" cy="197" r="37" fill="#5c462c"/><circle cx="132" cy="233" r="14" fill="#000f10"/><circle cx="65" cy="83" r="8" fill="#574847"/><circle cx="5" cy="152" r="15" fill="#a88e7c"/><circle cx="52" cy="104" r="5" fill="#000a13"/><circle cx="23" cy="236" r="40" fill="#2b241a"/><circle cx="113" cy="111" r="10" fill="#293438"/><circle cx="67" cy="111" r="12" fill="#12222c"/></g></svg>