<svg xmlns="http://www.w3.org/2000/svg" width="300" height="300"><rect width="100%" height="100%" fill="#68adbb"/><g fill-opacity=".5" transform="translate(.6 .6)scale(1.17)"><circle cx="123" cy="255" r="149" fill="#570000"/><circle cx="84" cy="255" r="91" fill="#321b00"/><circle cx="176" cy="84" r="60" fill="#b7c9ce"/><circle cx="36" cy="108" r="57" fill="#b7a7a3"/><circle cx="65" cy="111" r="15"/><circle cx="217" cy="204" r="65" fill="#693d0b"/><circle cx="135" cy="157" r="21" fill="#d1c4b5"/><circle cx="102" cy="69" r="33" fill="#b6c5cc"/><circle cx="89" cy="131" r="35" fill="#4a6061"/><circle cx="255" cy="100" r="60" fill="#a3b1b7"/><circle cx="19" cy="212" r="52" fill="#412c0f"/><circle cx="255" cy="220" r="28" fill="#051317"/><circle cx="9" cy="78" r="46" fill="#aecad5"/><circle cx="45" cy="150" r="13" fill="#fae3d3"/><circle cx="146" cy="111" r="22" fill="#b1cfd5"/><circle cx="198" r="63" fill="#5ba7b7"/><circle cx="203" cy="206" r="24" fill="#9d6b44"/><circle cx="98" cy="112" r="11" fill="#06151e"/><circle cx="44" cy="122" r="12" fill="#f3cfc4"/><circle cx="136" cy="148" r="30" fill="#858a88"/><circle cx="51" cy="165" r="5" fill="#ffe"/><circle cx="132" cy="233" r="14" fill="#000f10"/><circle cx="38" cy="179" r="17" fill="#845937"/><circle cx="10" cy="152" r="15" fill="#a7917f"/><circle cx="65" cy="86" r="6" fill="#4d2a25"/><circle cx="82" cy="148" r="27" fill="#6b706d"/><circle cx="101" cy="193" r="35" fill="#5d472c"/><circle cx="111" cy="112" r="11" fill="#273336"/><circle cx="49" cy="102" r="4" fill="#000006"/><circle cx="245" cy="185" r="9" fill="#081216"/></g></svg>