<svg xmlns="http://www.w3.org/2000/svg" width="300" height="300"><g filter="blur(10px)"><rect width="200%" height="200%" x="-50%" y="-50%" fill="#68adbb"/><rect width="100%" height="100%" fill="#68adbb"/><g fill-opacity=".5" transform="translate(.6 .6)scale(1.17)"><circle cx="123" cy="255" r="149" fill="#570000"/><circle cx="176" cy="85" r="60" fill="#b7c9ce"/><circle cx="84" cy="255" r="91" fill="#321b00"/><circle cx="32" cy="107" r="58" fill="#baa9a4"/><circle cx="66" cy="112" r="16"/><circle cx="230" cy="214" r="77" fill="#683d0c"/><circle cx="136" cy="157" r="21" fill="#d1c4b5"/><circle cx="101" cy="69" r="33" fill="#b7c5cc"/><circle cx="248" cy="110" r="49" fill="#a8b2b8"/><circle cx="92" cy="132" r="38" fill="#546664"/><circle cx="25" cy="201" r="41" fill="#462e0f"/><circle cx="255" cy="220" r="28" fill="#061317"/><circle cx="47" cy="154" r="11" fill="#fff3e1"/><circle cx="9" cy="79" r="45" fill="#adcad5"/><circle cx="146" cy="111" r="22" fill="#b1cfd5"/><circle cx="204" cy="206" r="24" fill="#9e6b44"/><circle cx="98" cy="113" r="12" fill="#0c1b24"/><circle cx="40" cy="126" r="17" fill="#cfc7c1"/><circle cx="190" cy="9" r="53" fill="#5aa8b8"/><circle cx="127" cy="143" r="24" fill="#939190"/><circle cx="23" cy="240" r="44" fill="#2a2316"/><circle cx="52" cy="103" r="5" fill="#000008"/><circle cx="51" cy="168" r="5" fill="#ffead3"/><circle cx="132" cy="231" r="14" fill="#001011"/><circle cx="65" cy="84" r="7" fill="#4e3836"/><circle cx="38" cy="178" r="16" fill="#835835"/><circle cx="133" cy="202" r="8" fill="#b3805d"/><circle cx="151" cy="140" r="14" fill="#526d73"/><circle cx="72" cy="152" r="18" fill="#6b7776"/><circle cx="65" cy="74" r="4" fill="#00050d"/></g></g></svg>