<svg xmlns="http://www.w3.org/2000/svg" width="300" height="300" viewBox="0 0 300 300"><g filter="blur(20px)"><rect width="200%" height="200%" x="-50%" y="-50%" fill="#68adbb"/><g stroke-linecap="round"><path fill="rgba(17,31,32,255)" stroke="rgba(17,31,32,255)" d="M300 300H0l182-78 118 78"/><path fill="rgba(116,180,194,255)" stroke="rgba(116,180,194,255)" d="M0 0h300L108 126 0 0"/><path fill="rgba(155,188,197,255)" stroke="rgba(155,188,197,255)" d="M300 0 184 142l-76-16L300 0"/><path fill="rgba(130,151,156,255)" stroke="rgba(130,151,156,255)" d="M0 300V0l64 213-64 87"/><path fill="rgba(18,9,0,255)" stroke="rgba(18,9,0,255)" d="M182 222 0 300l64-87 118 9"/><path fill="rgba(147,129,129,255)" stroke="rgba(147,129,129,255)" d="m184 142-2 80-96-67 98-13"/><path fill="rgba(80,85,89,255)" stroke="rgba(80,85,89,255)" d="m108 126 76 16-98 13 22-29"/><path fill="rgba(160,189,195,255)" stroke="rgba(160,189,195,255)" d="m0 0 108 126-22 29L0 0"/><path fill="rgba(173,189,191,255)" stroke="rgba(173,189,191,255)" d="M64 213 0 0l86 155-22 58"/><path fill="rgba(141,88,52,255)" stroke="rgba(141,88,52,255)" d="m182 222-118-9 22-58 96 67"/><path fill="rgba(168,155,157,255)" stroke="rgba(168,155,157,255)" d="M300 0v300l-89-88L300 0"/><path fill="rgba(162,188,197,255)" stroke="rgba(162,188,197,255)" d="M184 142 300 0l-89 212-27-70"/><path fill="rgba(153,97,44,255)" stroke="rgba(153,97,44,255)" d="m300 300-118-78 29-10 89 88"/><path fill="rgba(112,92,101,255)" stroke="rgba(112,92,101,255)" d="m182 222 2-80 27 70-29 10"/></g></g></svg>