<svg xmlns="http://www.w3.org/2000/svg" width="300" height="300" viewBox="0 0 300 300"><g stroke-linecap="round"><path fill="rgba(22,28,28,255)" stroke="rgba(22,28,28,255)" d="M300 300H0l175-44 125 44"/><path fill="rgba(98,170,186,255)" stroke="rgba(98,170,186,255)" d="M0 0h300L171 17 0 0"/><path fill="rgba(126,182,196,255)" stroke="rgba(126,182,196,255)" d="m0 0 171 17-85 103L0 0"/><path fill="rgba(154,183,191,255)" stroke="rgba(154,183,191,255)" d="M300 0v300L168 175 300 0"/><path fill="rgba(78,61,31,255)" stroke="rgba(78,61,31,255)" d="m300 300-125-44-7-81 132 125"/><path fill="rgba(131,185,199,255)" stroke="rgba(131,185,199,255)" d="M171 17 300 0 168 175l3-158"/><path fill="rgba(83,64,48,255)" stroke="rgba(83,64,48,255)" d="m175 256-35-29 28-52 7 81"/><path fill="rgba(142,149,157,255)" stroke="rgba(142,149,157,255)" d="M140 227 86 120l82 55-28 52"/><path fill="rgba(161,185,195,255)" stroke="rgba(161,185,195,255)" d="m86 120 85-103-3 158-82-55"/><path fill="rgba(131,106,76,255)" stroke="rgba(131,106,76,255)" d="m140 227 35 29-115-25 80-4"/><path fill="rgba(115,85,51,255)" stroke="rgba(115,85,51,255)" d="M175 256 0 300l60-69 115 25"/><path fill="rgba(162,153,146,255)" stroke="rgba(162,153,146,255)" d="M0 300V0l60 231-60 69"/><path fill="rgba(166,195,205,255)" stroke="rgba(166,195,205,255)" d="m0 0 86 120-26 111L0 0"/><path fill="rgba(120,125,118,255)" stroke="rgba(120,125,118,255)" d="m86 120 54 107-80 4 26-111"/></g></svg>