<svg xmlns="http://www.w3.org/2000/svg" width="300" height="300"><rect width="100%" height="100%" fill="#68adbb"/><g fill-opacity=".5"><path fill="#500" d="M318.2 293.6-18.2 310 79.1 74.4z"/><path fill="#512000" d="M280.7 140-18.2 291.2l336.4 21.1z"/><path fill="#a9b0b1" d="M318.2 156.4 29.9-18.2l-48 220.3z"/><path fill="#3a1b00" d="m5.3 318.2-21.1-133.6 164 19.9z"/><path fill="#705740" d="m318.2 182.2-63.3 133.6L42.8 109.6z"/><path fill="#b0bcc2" d="M184.6 37 133 190.3l44.5 34z"/><path fill="#a9bec7" d="M313.5 55.7-11.1 66.2l305.8 119.5z"/><path fill="#25404b" d="m59.2 115.4 16.4 82 76.2-76.1z"/><path fill="#dfd5d2" d="m63.9 209.2-82-155.9L65 136.5z"/><path fill="#3d1d08" d="M318.2 218.6 176.4 154l128.9 130z"/><path fill="#2f2512" d="m-6.4 188 135.9 109-140.6 16.5z"/><path fill="#a16e43" d="m259.6 278.3 15.2-71.5-76.2 17.6z"/><path fill="#697c81" d="M68.6 143.6 65 202l197-53.9z"/><path fill="#68b4c5" d="m29.9-17 288.3 83.2-313-4.7z"/><path fill="#162930" d="m76.8 75.6-1.2 58.6 20 15.2z"/><path fill="#825534" d="m81.4 211.5-94.9-56.2 5.9 84.3z"/><path fill="#091c17" d="m95.5 295.9 62.1-46.9 28.1 34z"/><path fill="#acc2cb" d="m-15.8 120.1 113.7-5.8L.6 48.6z"/><path fill="#051316" d="m283 206.8 3.5 102 25.8-63.3z"/><path fill="#a2c3cc" d="M174 40.4 80.3 82.6l120.7 82z"/><path fill="#ffebdd" d="M102.5 145.9 98 120.1l-3.6 14z"/><path fill="#2e3a3f" d="m153 171.7-56.3-52.8h44.5z"/><path fill="#7e7770" d="m299.4 157.6-70.3 1.2 78.5 41z"/><path fill="#53462e" d="m70.9 257.2 153.5-2.3-114.8-78.5z"/><path fill="#929c9a" d="m-17 199.8 65.6-75-4.7 56.3z"/><path fill="#ffead8" d="M63.9 179.9v21l-28.2-24.5z"/><path fill="#dfbcb1" d="m164.6 202.1-3.5-43.3-22.2 18.7z"/><path fill="#6a5857" d="m209.2 135.4-13-23.5 2.4 50.4z"/><path fill="#efd3ca" d="m181 183.4-10.5-25.8 4.7 52.8z"/><path fill="#767b7e" d="m201 161.1-15.3 76.2-9.3-58.6z"/><path fill="#101e24" d="m165.8 215 5.9-12.9-7-21z"/><path fill="#539fb0" d="m217.4 143.6 79.7 27 9.3-25.9z"/><path fill="#704b2a" d="m253.7 160-78.5 109 28.1-96.1z"/><path fill="#a67658" d="m156.4 208 8.2 38.7-17.5-2.4z"/><path fill="#51a4b5" d="M15.8 29.9 182.2 4-18.2-18.2z"/><path fill="#161712" d="M81.4 280.7-18.2 242l34-16.4z"/><path fill="#1e323a" d="m76.8 153 18.7-31.7-42.2-5.9z"/><path fill="#ffe3d7" d="m195.1 161.1 1.2-38.6-8.2 15.2z"/><path fill="#1a2113" d="m219.7 318.2-24.6-18.8-2.3-69.1z"/><path fill="#93571d" d="m222 281.8 96.2 18.8-95 8.2z"/><path fill="#b7c5cb" d="m65 150.6-83.2-11.7 64.5-49.3z"/><path fill="#a2bcc5" d="m318.2 85-27 63.2-229.7-82z"/><path fill="#36444e" d="m191.6 157.6-3.5 14-34-17.5z"/><path fill="#0e1b19" d="m97.9 122.5 2.3-18.8 3.5 11.7z"/><path fill="#6b4c2d" d="M21.7 254.9v37.5l37.5-13z"/><path fill="#accbcf" d="m85 109.6 18.7 19.9-12.9-52.7z"/><path fill="#a7c6ce" d="m149.4 115.4-61-39.8 20 43.3z"/><path fill="#55422a" d="m185.7 315.8-150-132.4-53.9 31.6z"/><path fill="#181a17" d="M110.7 209.2 93.2 201l-32.8 53.9z"/><path fill="#4aa0b0" d="m137.7-18.2 92.6 48L318.2 3z"/></g></svg>