<svg xmlns="http://www.w3.org/2000/svg" width="300" height="300"><rect width="100%" height="100%" fill="#68adbb"/><g fill-opacity=".5"><path fill="#500" d="m82.6 74.4 235.6 223.8-336.4 1.2z"/><path fill="#512000" d="M285.4 141.2-18.2 287.7l336.4 30.5z"/><path fill="#a8aeaf" d="m-18.2 199.8 336.4-34-277.8-184z"/><path fill="#3b1c00" d="m5.3 318.2 143-114.9-166.5-18.7z"/><path fill="#6d553e" d="m37 106 281.2 81-64.5 131.2z"/><path fill="#b1c4cc" d="M318.2 44-18.2 88.4l327 69.1z"/><path fill="#b2b9be" d="M189.3 222 160 79.2l-20 119.5z"/><path fill="#c4cbce" d="m-18.2 81.4 82-25.7v151.1z"/><path fill="#24404a" d="m55.7 113 19.9 81 73.8-70.4z"/><path fill="#3e1d08" d="m179.9 155.3 132.4 62 5.9 84.5z"/><path fill="#362f1a" d="m3 196.3 270.6 121.9-291.8-16.4z"/><path fill="#9f6c43" d="M197.5 226.8 277 202l-16.4 75z"/><path fill="#6bb5c6" d="M41.6-11.1-7.6 65l325.8-1z"/><path fill="#0c181a" d="m74.4 76.8 4.7 45.7 5.9-20z"/><path fill="#6d4b2f" d="M143.6 270.1 25.2 173l-36.3 48z"/><path fill="#77969d" d="m314.6 141.2-19.9 51.6-90.2-45.7z"/><path fill="#69797f" d="m61.5 203.3 17.6-59.7 127.7 7z"/><path fill="#c6a99a" d="M66.2 177.5 65 131.8l-83.2 65.7z"/><path fill="#031217" d="m287.7 297 30.5-25.7-36.4-68z"/><path fill="#694a34" d="m238.5 154.1 45.7 46.9L126 250.2z"/><path fill="#e9d3cb" d="m93.2 110.7 10.5 17.6-3.5 22.3z"/><path fill="#a3c2cb" d="M163.5 53.3 59.2 69.7 208 168.2z"/><path fill="#6a514c" d="M199.8 175.2 208 140l-10.5-28z"/><path fill="#ffe5d3" d="m62.7 170.5 3.5 32.8L44 184.6z"/><path fill="#202f35" d="m92 136.5 49.2-18.7 8.2 25.8z"/><path fill="#202a26" d="m167 187 14 93.7-28 16.4z"/><path fill="#cbb0a6" d="m162.3 156.4-28.1 18.8 31.6 39.8z"/><path fill="#a1bdc6" d="m8.8 41.6-27 72.7L85 115.4z"/><path fill="#ffe7dd" d="m179.9 191.6-4.7 20-3.5-42.3z"/><path fill="#151713" d="m40.4 226.8 43.4 55-102-42.2z"/><path fill="#112630" d="m97.9 121.3-20 28.1-23.4-32.8z"/><path fill="#554530" d="m73.2 292.4 119.6-54-83.2-62z"/><path fill="#6c8f98" d="m42.8 177.5 1.1-35.1-62 32.8z"/><path fill="#51a4b5" d="m-18.2-17 39.9 48L189.3 1.9z"/><path fill="#976d52" d="m157.6 190.4-10.5 56.3 16.4-3.5z"/><path fill="#fad7ce" d="m63.9 144.7-18.8 13 7-44.6z"/><path fill="#6f7172" d="m201 161.1-15.3 85.6-10.5-85.6z"/><path fill="#011317" d="m154.1 245.5-16.4 32.8 34 11.7z"/><path fill="#101717" d="m92 204.5 16.4 8.2L58 254.9z"/><path fill="#10170c" d="m195.1 225.6-5.8 36.3 16.4 23.5z"/><path fill="#172220" d="m96.7 119 8.2 1.1-3.5-16.4z"/><path fill="#ffd8d0" d="m187 133 9.3 30.5 1.2-39.9z"/><path fill="#00030a" d="M120.1 308.8 103.7 297l17.6-27z"/><path fill="#324249" d="m171.7 161.1-9.4-21 3.5 42.1z"/><path fill="#ae9183" d="m285.4 189.3 30.4-9.4-82-25.8z"/><path fill="#7a5b35" d="m188 232.6 8.3 85.6-37.5-1.2z"/><path fill="#955f26" d="m209.2 318.2 109-17.6-90.3-17.6z"/><path fill="#6aafbf" d="m318.2 158.8-116-1.2 72.6-18.7z"/><path fill="#4ba0b1" d="m141.2-18.2 84.4 49.3 92.6-28.2z"/><path fill="#4c4244" d="M153 163.5 142.3 147l7 34z"/></g></svg>