<svg xmlns="http://www.w3.org/2000/svg" width="300" height="300"><rect width="100%" height="100%" fill="#68adbb"/><g fill-opacity=".5" transform="translate(.6 .6)scale(1.17188)"><circle cx="123" cy="255" r="149" fill="#570000"/><circle cx="177" cy="85" r="60" fill="#b7c9ce"/><circle cx="84" cy="255" r="91" fill="#321b00"/><circle cx="23" cy="129" r="37" fill="#d7beb4"/><circle cx="66" cy="111" r="15" fill="#0b0000"/><circle cx="231" cy="216" r="81" fill="#693e0e"/><circle cx="136" cy="158" r="21" fill="#d1c4b4"/><circle cx="27" cy="73" r="36" fill="#c5c6cb"/><circle cx="99" cy="71" r="31" fill="#c1c6ca"/><circle cx="47" cy="156" r="10" fill="#ffffef"/><circle cx="22" cy="197" r="39" fill="#49300f"/><circle cx="239" cy="124" r="32" fill="#a6b0b8"/><circle cx="255" cy="220" r="28" fill="#051216"/><circle cx="92" cy="134" r="38" fill="#5e6b67"/><circle cx="146" cy="112" r="22" fill="#b0cfd4"/><circle cx="96" cy="111" r="10" fill="#01111b"/><circle cx="204" cy="206" r="24" fill="#9d6a43"/><circle cx="191" cy="6" r="56" fill="#5ba8b8"/><circle cx="24" cy="233" r="39" fill="#292214"/><circle cx="235" cy="89" r="34" fill="#a7bbc3"/><circle cx="52" cy="104" r="6" fill="#0a0a11"/><circle cx="132" cy="147" r="27" fill="#8b8b8a"/><circle cx="7" cy="145" r="22" fill="#818f8d"/><circle cx="131" cy="232" r="14" fill="#011"/><circle cx="65" cy="84" r="7" fill="#6d342a"/><circle cx="52" cy="168" r="4" fill="#fffff8"/><circle cx="111" cy="113" r="12" fill="#1f3136"/><circle cx="132" cy="204" r="8" fill="#b2815e"/><circle cx="39" cy="178" r="16" fill="#855a38"/><circle cx="68" cy="112" r="13" fill="#1b262e"/></g></svg>