<svg xmlns="http://www.w3.org/2000/svg" width="300" height="300"><g filter="blur(12px)"><rect width="200%" height="200%" x="-50%" y="-50%" fill="#68adbb"/><rect width="100%" height="100%" fill="#68adbb"/><g fill-opacity=".5" transform="translate(.6 .6)scale(1.17)"><circle r="1" fill="#510000" transform="rotate(-94 161.4 48.7)scale(81.4 157.33)"/><circle r="1" fill="#b3a7a5" transform="matrix(171.91 -7.27 2.5 59.1 89.9 105.4)"/><path fill="#1a1b1d" d="m54.7 98.8 67 3.5-2.4 45-67-3.6z"/><ellipse cx="129" cy="221" fill="#482700" rx="255" ry="49"/><circle r="1" fill="#a47e5f" transform="rotate(-59 252 -57.2)scale(18.76 64.5)"/><path fill="#9dc5d1" d="m271 58-90 83L-4 28z"/><path fill="#ffd4c1" d="m35 164.8 1-50 19 .4-1 50z"/><ellipse cx="215" cy="164" fill="#6d4c2b" rx="61" ry="29"/></g></g></svg>