<svg xmlns="http://www.w3.org/2000/svg" width="300" height="300" viewBox="0 0 300 300"><g stroke-linecap="round"><path fill="rgba(156,189,198,255)" stroke="rgba(156,189,198,255)" d="M14 175 0 0l81 63-67 112"/><path fill="rgba(21,22,15,255)" stroke="rgba(21,22,15,255)" d="M300 300H0l147-91 153 91"/><path fill="rgba(61,72,79,255)" stroke="rgba(61,72,79,255)" d="M14 175 81 63l66 146-133-34"/><path fill="rgba(116,180,192,255)" stroke="rgba(116,180,192,255)" d="M81 63 0 0l100 61-19 2"/><path fill="rgba(164,190,199,255)" stroke="rgba(164,190,199,255)" d="M147 209 81 63l19-2 47 148"/><path fill="rgba(154,183,191,255)" stroke="rgba(154,183,191,255)" d="M300 0v300L273 18l27-18"/><path fill="rgba(107,82,65,255)" stroke="rgba(107,82,65,255)" d="m300 300-153-91L273 18l27 282"/><path fill="rgba(89,168,183,255)" stroke="rgba(89,168,183,255)" d="M0 0h300l-27 18L0 0"/><path fill="rgba(121,177,192,255)" stroke="rgba(121,177,192,255)" d="M100 61 0 0l273 18-173 43"/><path fill="rgba(170,189,195,255)" stroke="rgba(170,189,195,255)" d="M147 209 100 61l173-43-126 191"/><path fill="rgba(162,146,131,255)" stroke="rgba(162,146,131,255)" d="M0 300V0v300"/><path fill="rgba(118,172,184,255)" stroke="rgba(118,172,184,255)" d="m0 0 14 175-14 97V0"/><path fill="rgba(110,70,34,255)" stroke="rgba(110,70,34,255)" d="m14 175 133 34L0 272l14-97"/><path fill="rgba(64,61,52,255)" stroke="rgba(64,61,52,255)" d="M147 209 0 300v-28l147-63"/></g><rect width="100%" height="100%" fill="#68adbb"/></svg>