<svg xmlns="http://www.w3.org/2000/svg" width="300" height="300"><rect width="100%" height="100%" fill="#68adbb"/><g fill-opacity=".5" transform="translate(.6 .6)scale(1.17)"><circle cx="123" cy="255" r="149" fill="#570000"/><circle cx="176" cy="84" r="60" fill="#b7c9ce"/><circle cx="84" cy="255" r="91" fill="#321b00"/><circle cx="31" cy="106" r="59" fill="#b9a9a5"/><circle cx="67" cy="114" r="16" fill="#000001"/><circle cx="214" cy="205" r="64" fill="#683c0a"/><circle cx="135" cy="157" r="21" fill="#d1c4b5"/><circle cx="101" cy="70" r="32" fill="#b9c5cc"/><circle cx="47" cy="155" r="11" fill="#fff2df"/><circle cx="243" cy="107" r="49" fill="#a7afb4"/><circle cx="23" cy="192" r="34" fill="#4e320f"/><circle cx="93" cy="135" r="37" fill="#566663"/><circle cx="255" cy="220" r="28" fill="#061318"/><circle cx="11" cy="83" r="41" fill="#b0ccd7"/><circle cx="146" cy="107" r="25" fill="#afc8cd"/><circle cx="204" cy="205" r="24" fill="#9e6b45"/><circle cx="98" cy="112" r="11" fill="#03141e"/><circle cx="23" cy="235" r="40" fill="#282011"/><circle cx="187" cy="12" r="51" fill="#5ba8b8"/><circle cx="42" cy="129" r="16" fill="#d3c7c0"/><circle cx="54" cy="106" r="7" fill="#001018"/><circle cx="117" cy="140" r="19" fill="#939494"/><circle cx="134" cy="233" r="15" fill="#021312"/><circle cx="66" cy="86" r="6" fill="#412622"/><circle cx="58" cy="168" r="10" fill="#b09b86"/><circle cx="111" cy="116" r="14" fill="#2f3d41"/><circle cx="243" cy="147" r="15" fill="#807b75"/><circle cx="131" cy="203" r="9" fill="#aa7a5a"/><circle cx="66" cy="76" r="4" fill="#000109"/><circle cx="6" cy="151" r="16" fill="#a28e7e"/></g></svg>