<svg xmlns="http://www.w3.org/2000/svg" width="300" height="300" viewBox="0 0 300 300"><g stroke-linecap="round"><path fill="rgba(107,175,188,255)" stroke="rgba(107,175,188,255)" d="M0 0h300L145 62 0 0"/><path fill="rgba(110,176,190,255)" stroke="rgba(110,176,190,255)" d="m300 0-37 56-118 6L300 0"/><path fill="rgba(120,174,186,255)" stroke="rgba(120,174,186,255)" d="M300 0v300l-42-157L300 0"/><path fill="rgba(124,178,190,255)" stroke="rgba(124,178,190,255)" d="m263 56 37-56-42 143 5-87"/><path fill="rgba(155,188,197,255)" stroke="rgba(155,188,197,255)" d="m145 62 118-6-14 95-104-89"/><path fill="rgba(155,185,195,255)" stroke="rgba(155,185,195,255)" d="m263 56-5 87-9 8 14-95"/><path fill="rgba(55,51,38,255)" stroke="rgba(55,51,38,255)" d="M0 300V0l59 296-59 4"/><path fill="rgba(36,65,71,255)" stroke="rgba(36,65,71,255)" d="m0 0 145 62-86 234L0 0"/><path fill="rgba(53,46,41,255)" stroke="rgba(53,46,41,255)" d="M300 300H0l59-4 241 4"/><path fill="rgba(146,136,136,255)" stroke="rgba(146,136,136,255)" d="m145 62 104 89L59 296l86-234"/><path fill="rgba(129,97,76,255)" stroke="rgba(129,97,76,255)" d="m258 143 42 157-28-27-14-130"/><path fill="rgba(86,73,67,255)" stroke="rgba(86,73,67,255)" d="m249 151 9-8 14 130-23-122"/><path fill="rgba(82,68,45,255)" stroke="rgba(82,68,45,255)" d="m300 300-241-4 213-23 28 27"/><path fill="rgba(60,51,36,255)" stroke="rgba(60,51,36,255)" d="m59 296 190-145 23 122-213 23"/></g></svg>