<svg xmlns="http://www.w3.org/2000/svg" width="300" height="300"><rect width="100%" height="100%" fill="#68adbb"/><g fill-opacity=".5" transform="translate(.6 .6)scale(1.17188)"><circle cx="123" cy="255" r="149" fill="#570000"/><circle cx="175" cy="85" r="59" fill="#b8c9cf"/><circle cx="84" cy="255" r="91" fill="#321b00"/><circle cx="25" cy="100" r="65" fill="#b7aba9"/><circle cx="65" cy="112" r="16"/><circle cx="234" cy="224" r="88" fill="#683d0e"/><circle cx="134" cy="157" r="21" fill="#d0c3b4"/><circle cx="240" cy="115" r="40" fill="#aab3b9"/><circle cx="103" cy="70" r="32" fill="#b8c6cc"/><circle cx="47" cy="154" r="11" fill="#fff5e2"/><circle cx="14" cy="214" r="53" fill="#3f2b0e"/><circle cx="92" cy="133" r="38" fill="#556563"/><circle cx="255" cy="220" r="28" fill="#061316"/><circle cx="147" cy="109" r="24" fill="#aec9ce"/><circle cx="15" cy="86" r="38" fill="#b3cbd5"/><circle cx="39" cy="126" r="18" fill="#cbc5bf"/><circle cx="204" cy="205" r="24" fill="#9e6b43"/><circle cx="101" cy="112" r="11" fill="#02161f"/><circle cx="189" cy="11" r="51" fill="#5ba8b8"/><circle cx="137" cy="149" r="31" fill="#868a87"/><circle cx="40" cy="178" r="17" fill="#8d613c"/><circle cx="66" cy="85" r="6" fill="#3e2420"/><circle cx="133" cy="233" r="14" fill="#000e0f"/><circle cx="98" cy="195" r="36" fill="#5c452b"/><circle cx="65" cy="76" r="4"/><circle cx="50" cy="102" r="4"/><circle cx="55" cy="165" r="8" fill="#c5bfb7"/><circle cx="73" cy="154" r="19" fill="#6c7572"/><circle cx="234" cy="87" r="36" fill="#a0bbc4"/><circle cx="67" cy="111" r="13" fill="#14252f"/></g></svg>