<svg xmlns="http://www.w3.org/2000/svg" width="300" height="300"><rect width="100%" height="100%" fill="#68adbb"/><g fill-opacity=".5" transform="translate(.6 .6)scale(1.17)"><circle cx="123" cy="255" r="149" fill="#570000"/><circle cx="177" cy="83" r="62" fill="#b5c7cd"/><circle cx="84" cy="255" r="91" fill="#321b00"/><circle cx="21" cy="114" r="52" fill="#c5afa9"/><circle cx="65" cy="111" r="15"/><circle cx="136" cy="158" r="21" fill="#d1c4b4"/><circle cx="221" cy="204" r="69" fill="#6a3e0d"/><circle cx="100" cy="70" r="32" fill="#bdc5ca"/><circle cx="47" cy="155" r="11" fill="#fff8e5"/><circle cx="25" cy="196" r="38" fill="#493010"/><circle cx="255" cy="220" r="28" fill="#051216"/><circle cx="238" cy="124" r="32" fill="#a5afb6"/><circle cx="92" cy="133" r="38" fill="#5a6966"/><circle cx="20" cy="72" r="41" fill="#adc7d1"/><circle cx="146" cy="109" r="23" fill="#b2ced3"/><circle cx="194" r="62" fill="#59a7b7"/><circle cx="101" cy="114" r="13" fill="#0d2029"/><circle cx="204" cy="204" r="23" fill="#9f6b44"/><circle cx="12" cy="253" r="56" fill="#282011"/><circle cx="37" cy="125" r="19" fill="#c1c4c2"/><circle cx="227" cy="87" r="37" fill="#a3bac3"/><circle cx="132" cy="147" r="27" fill="#8c8d8b"/><circle cx="132" cy="234" r="14" fill="#001010"/><circle cx="58" cy="168" r="10" fill="#b19c89"/><circle cx="66" cy="81" r="9" fill="#6f5552"/><circle cx="145" cy="194" r="20" fill="#7d6147"/><circle cx="54" cy="105" r="7" fill="#041c26"/><circle cx="85" cy="141" r="22" fill="#6a7d83"/><circle cx="19" cy="141" r="20" fill="#799a9d"/><circle cx="70" cy="111" r="11" fill="#111f2b"/></g></svg>