<svg xmlns="http://www.w3.org/2000/svg" width="300" height="300" viewBox="0 0 300 300"><g stroke-linecap="round"><path fill="rgba(107,90,70,255)" stroke="rgba(107,90,70,255)" d="M300 300H0l114-59 186 59"/><path fill="rgba(124,88,54,255)" stroke="rgba(124,88,54,255)" d="m0 300 112-73 2 14L0 300"/><path fill="rgba(127,155,156,255)" stroke="rgba(127,155,156,255)" d="M300 0v300l-38-114L300 0"/><path fill="rgba(167,192,199,255)" stroke="rgba(167,192,199,255)" d="M0 300V0l102 61L0 300"/><path fill="rgba(109,120,126,255)" stroke="rgba(109,120,126,255)" d="M112 227 0 300 102 61l10 166"/><path fill="rgba(107,175,188,255)" stroke="rgba(107,175,188,255)" d="M0 0h300L102 61 0 0"/><path fill="rgba(79,70,55,255)" stroke="rgba(79,70,55,255)" d="m300 300-186-59 104-29 82 88"/><path fill="rgba(146,107,76,255)" stroke="rgba(146,107,76,255)" d="m262 186 38 114-82-88 44-26"/><path fill="rgba(145,120,98,255)" stroke="rgba(145,120,98,255)" d="m114 241-2-14 106-15-104 29"/><path fill="rgba(157,186,194,255)" stroke="rgba(157,186,194,255)" d="m300 0-38 186-83-30L300 0"/><path fill="rgba(142,186,197,255)" stroke="rgba(142,186,197,255)" d="M102 61 300 0 179 156l-77-95"/><path fill="rgba(111,125,134,255)" stroke="rgba(111,125,134,255)" d="M112 227 102 61l77 95-67 71"/><path fill="rgba(84,96,98,255)" stroke="rgba(84,96,98,255)" d="m218 212-106 15 67-71 39 56"/><path fill="rgba(109,79,45,255)" stroke="rgba(109,79,45,255)" d="m262 186-44 26-39-56 83 30"/></g><rect width="100%" height="100%" fill="#68adbb"/></svg>