<svg xmlns="http://www.w3.org/2000/svg" width="300" height="300"><rect width="100%" height="100%" fill="#68adbb"/><g fill-opacity=".5" transform="translate(.6 .6)scale(1.17188)"><circle cx="123" cy="255" r="149" fill="#570000"/><circle cx="176" cy="85" r="60" fill="#b7c9ce"/><circle cx="84" cy="255" r="91" fill="#321b00"/><circle cx="35" cy="108" r="56" fill="#b9a8a4"/><circle cx="220" cy="205" r="70" fill="#6a3e0e"/><circle cx="65" cy="112" r="16"/><circle cx="136" cy="156" r="21" fill="#d0c4b6"/><circle cx="102" cy="69" r="33" fill="#b7c5cc"/><circle cx="255" cy="220" r="28" fill="#051216"/><circle cx="245" cy="123" r="38" fill="#a8aeb4"/><circle cx="89" cy="130" r="35" fill="#4b6263"/><circle cx="17" cy="216" r="56" fill="#422d10"/><circle cx="46" cy="154" r="11" fill="#fff4e1"/><circle cx="10" cy="78" r="46" fill="#aec9d4"/><circle cx="145" cy="108" r="23" fill="#b2cdd2"/><circle cx="37" cy="125" r="20" fill="#c3c4c1"/><circle cx="204" cy="204" r="23" fill="#9f6b44"/><circle cx="100" cy="112" r="11" fill="#06161d"/><circle cx="188" cy="9" r="54" fill="#5ba8b8"/><circle cx="135" cy="149" r="31" fill="#848885"/><circle cx="132" cy="233" r="14" fill="#000f10"/><circle cx="56" cy="168" r="9" fill="#bca997"/><circle cx="228" cy="87" r="37" fill="#a2bbc3"/><circle cx="7" cy="152" r="15" fill="#a9907e"/><circle cx="65" cy="84" r="7" fill="#4e3837"/><circle cx="27" cy="179" r="22" fill="#714e2f"/><circle cx="131" cy="202" r="9" fill="#aa7958"/><circle cx="73" cy="150" r="19" fill="#6a7777"/><circle cx="20" cy="235" r="41" fill="#2b251a"/><circle cx="52" cy="103" r="5" fill="#00040f"/></g></svg>