<svg xmlns="http://www.w3.org/2000/svg" width="300" height="300" viewBox="0 0 300 300"><g filter="blur(20px)"><rect width="200%" height="200%" x="-50%" y="-50%" fill="#68adbb"/><g stroke-linecap="round"><path fill="rgba(53,66,80,255)" stroke="rgba(53,66,80,255)" d="M131 197 0 0l203 175-72 22"/><path fill="rgba(153,144,137,255)" stroke="rgba(153,144,137,255)" d="M300 0v300l-20-43L300 0"/><path fill="rgba(118,86,53,255)" stroke="rgba(118,86,53,255)" d="M300 300H0l266-1 34 1"/><path fill="rgba(23,26,21,255)" stroke="rgba(23,26,21,255)" d="m280 257 20 43-34-1 14-42"/><path fill="rgba(94,56,35,255)" stroke="rgba(94,56,35,255)" d="m131 197 72-22 63 124-135-102"/><path fill="rgba(137,109,87,255)" stroke="rgba(137,109,87,255)" d="m203 175 77 82-14 42-63-124"/><path fill="rgba(164,148,133,255)" stroke="rgba(164,148,133,255)" d="M0 300V0l73 248-73 52"/><path fill="rgba(101,106,108,255)" stroke="rgba(101,106,108,255)" d="m0 0 131 197-58 51L0 0"/><path fill="rgba(103,83,72,255)" stroke="rgba(103,83,72,255)" d="m131 197 135 102-193-51 58-51"/><path fill="rgba(40,38,27,255)" stroke="rgba(40,38,27,255)" d="M266 299 0 300l73-52 193 51"/><path fill="rgba(110,177,188,255)" stroke="rgba(110,177,188,255)" d="M0 0h300l-33 88L0 0"/><path fill="rgba(153,189,199,255)" stroke="rgba(153,189,199,255)" d="M203 175 0 0l267 88-64 87"/><path fill="rgba(154,183,191,255)" stroke="rgba(154,183,191,255)" d="m300 0-20 257-13-169 33-88"/><path fill="rgba(120,96,86,255)" stroke="rgba(120,96,86,255)" d="m280 257-77-82 64-87 13 169"/></g></g></svg>