<svg xmlns="http://www.w3.org/2000/svg" width="300" height="300"><rect width="100%" height="100%" fill="#68adbb"/><g fill-opacity=".5" transform="translate(.6 .6)scale(1.17)"><circle cx="123" cy="255" r="149" fill="#570000"/><circle cx="82" cy="255" r="92" fill="#321b00"/><circle cx="175" cy="87" r="58" fill="#bacacf"/><circle cx="34" cy="108" r="57" fill="#b9a8a4"/><circle cx="66" cy="112" r="16"/><circle cx="226" cy="211" r="74" fill="#693d0c"/><circle cx="135" cy="157" r="21" fill="#d1c4b5"/><circle cx="103" cy="69" r="33" fill="#b8c5cc"/><circle cx="250" cy="109" r="51" fill="#a9b2b8"/><circle cx="99" cy="113" r="13" fill="#081c1f"/><circle cx="255" cy="220" r="28" fill="#051317"/><circle cx="46" cy="153" r="10" fill="#ffffec"/><circle cx="13" cy="79" r="44" fill="#aec9d4"/><circle cx="10" cy="212" r="53" fill="#432d10"/><circle cx="146" cy="109" r="23" fill="#b0ccd2"/><circle cx="82" cy="147" r="28" fill="#5f726d"/><circle cx="203" cy="206" r="24" fill="#9d6b44"/><circle cx="38" cy="126" r="19" fill="#c5c4bf"/><circle cx="54" cy="166" r="7" fill="#e4d6c8"/><circle cx="186" cy="18" r="46" fill="#5ea9b9"/><circle cx="138" cy="149" r="30" fill="#818886"/><circle cx="52" cy="103" r="5" fill="#000004"/><circle cx="132" cy="232" r="14" fill="#000f10"/><circle cx="27" cy="178" r="21" fill="#734f2f"/><circle cx="10" cy="152" r="15" fill="#a69384"/><circle cx="66" cy="85" r="6" fill="#3d2522"/><circle cx="111" cy="112" r="11" fill="#263839"/><circle cx="131" cy="203" r="9" fill="#aa7a5a"/><circle cx="66" cy="76" r="4" fill="#000109"/><circle cx="88" cy="100" r="7" fill="#4f4746"/></g></svg>