<svg xmlns="http://www.w3.org/2000/svg" width="300" height="300"><g filter="blur(10px)"><rect width="200%" height="200%" x="-50%" y="-50%" fill="#68adbb"/><rect width="100%" height="100%" fill="#68adbb"/><g fill-opacity=".5" transform="translate(.6 .6)scale(1.17)"><circle cx="123" cy="255" r="149" fill="#570000"/><circle cx="177" cy="84" r="61" fill="#b6c8cd"/><circle cx="84" cy="255" r="91" fill="#321b00"/><circle cx="25" cy="131" r="35" fill="#d9c0b5"/><circle cx="215" cy="205" r="65" fill="#683c0b"/><circle cx="65" cy="110" r="15" fill="#0f0000"/><circle cx="136" cy="157" r="21" fill="#d1c4b5"/><circle cx="27" cy="74" r="36" fill="#c7c6cb"/><circle cx="100" cy="70" r="32" fill="#bec5cb"/><circle cx="21" cy="197" r="39" fill="#49300f"/><circle cx="47" cy="155" r="11" fill="#fff6e4"/><circle cx="254" cy="106" r="55" fill="#a5afb5"/><circle cx="255" cy="220" r="28" fill="#061317"/><circle cx="103" cy="114" r="14" fill="#10272a"/><circle cx="146" cy="109" r="24" fill="#b0cad0"/><circle cx="205" cy="205" r="24" fill="#9e6b44"/><circle cx="88" cy="135" r="34" fill="#5f706e"/><circle cx="194" r="62" fill="#5aa7b7"/><circle cx="22" cy="238" r="42" fill="#292113"/><circle cx="8" cy="144" r="22" fill="#809191"/><circle cx="133" cy="234" r="14" fill="#000f0f"/><circle cx="66" cy="85" r="7" fill="#6e3329"/><circle cx="138" cy="152" r="28" fill="#858683"/><circle cx="52" cy="103" r="5" fill="#00040a"/><circle cx="51" cy="169" r="5" fill="#f8d8c0"/><circle cx="38" cy="178" r="16" fill="#805634"/><circle cx="131" cy="202" r="9" fill="#aa7958"/><circle cx="98" cy="113" r="12" fill="#1a262f"/><circle cx="67" cy="112" r="13" fill="#1b252c"/><circle cx="47" cy="120" r="9" fill="#ffcec0"/></g></g></svg>