<svg xmlns="http://www.w3.org/2000/svg" width="300" height="300" viewBox="0 0 300 300"><g stroke-linecap="round"><path fill="rgba(37,27,23,255)" stroke="rgba(37,27,23,255)" d="M300 300H0l40-36 260 36"/><path fill="rgba(142,164,164,255)" stroke="rgba(142,164,164,255)" d="M0 300V0l18 195L0 300"/><path fill="rgba(99,76,56,255)" stroke="rgba(99,76,56,255)" d="m41 199-1 65-22-69 23 4"/><path fill="rgba(23,19,19,255)" stroke="rgba(23,19,19,255)" d="M40 264 0 300l18-105 22 69"/><path fill="rgba(169,189,198,255)" stroke="rgba(169,189,198,255)" d="m0 0 116 121-98 74L0 0"/><path fill="rgba(140,111,103,255)" stroke="rgba(140,111,103,255)" d="m116 121-75 78-23-4 98-74"/><path fill="rgba(99,170,188,255)" stroke="rgba(99,170,188,255)" d="M0 0h300l-60 48L0 0"/><path fill="rgba(125,183,196,255)" stroke="rgba(125,183,196,255)" d="M116 121 0 0l240 48-124 73"/><path fill="rgba(62,59,50,255)" stroke="rgba(62,59,50,255)" d="M300 300 40 264l219-25 41 61"/><path fill="rgba(92,70,47,255)" stroke="rgba(92,70,47,255)" d="m40 264 1-65 218 40-219 25"/><path fill="rgba(100,86,83,255)" stroke="rgba(100,86,83,255)" d="m41 199 75-78 143 118-218-40"/><path fill="rgba(165,148,138,255)" stroke="rgba(165,148,138,255)" d="M300 0v300l-41-61L300 0"/><path fill="rgba(144,184,193,255)" stroke="rgba(144,184,193,255)" d="m240 48 60-48-41 239-19-191"/><path fill="rgba(158,177,185,255)" stroke="rgba(158,177,185,255)" d="m116 121 124-73 19 191-143-118"/></g></svg>