<svg xmlns="http://www.w3.org/2000/svg" width="300" height="300"><g filter="blur(10px)"><rect width="200%" height="200%" x="-50%" y="-50%" fill="#68adbb"/><rect width="100%" height="100%" fill="#68adbb"/><g fill-opacity=".5" transform="translate(.6 .6)scale(1.17)"><circle cx="123" cy="255" r="149" fill="#570000"/><circle cx="84" cy="255" r="91" fill="#321b00"/><circle cx="177" cy="84" r="61" fill="#b6c8cd"/><circle cx="31" cy="104" r="61" fill="#b8aaa6"/><circle cx="65" cy="112" r="15"/><circle cx="221" cy="206" r="71" fill="#693e0e"/><circle cx="137" cy="158" r="22" fill="#c9beaf"/><circle cx="102" cy="69" r="33" fill="#b6c5cc"/><circle cx="88" cy="131" r="34" fill="#496061"/><circle cx="241" cy="119" r="37" fill="#a8b1b8"/><circle cx="255" cy="220" r="28" fill="#051216"/><circle cx="21" cy="206" r="46" fill="#432d0f"/><circle cx="46" cy="153" r="11" fill="#fff3e1"/><circle cx="147" cy="108" r="25" fill="#aec7cc"/><circle cx="11" cy="79" r="44" fill="#acc9d5"/><circle cx="193" cy="11" r="50" fill="#58a7b7"/><circle cx="205" cy="205" r="24" fill="#9d6a43"/><circle cx="41" cy="127" r="16" fill="#d5c9c1"/><circle cx="102" cy="113" r="13" fill="#13242a"/><circle cx="118" cy="140" r="20" fill="#949695"/><circle cx="53" cy="167" r="6" fill="#f5dec9"/><circle cx="133" cy="233" r="14" fill="#000e0f"/><circle cx="53" cy="103" r="6" fill="#00141e"/><circle cx="66" cy="86" r="6" fill="#422521"/><circle cx="66" cy="77" r="4" fill="#000001"/><circle cx="22" cy="235" r="40" fill="#2b2418"/><circle cx="211" cy="89" r="47" fill="#98b7c0"/><circle cx="31" cy="179" r="21" fill="#734f30"/><circle cx="73" cy="155" r="19" fill="#727771"/><circle cx="131" cy="202" r="9" fill="#aa7958"/></g></g></svg>