<svg xmlns="http://www.w3.org/2000/svg" width="300" height="300"><rect width="100%" height="100%" fill="#68adbb"/><g fill-opacity=".5"><path fill="#500" d="M318.2 298.2 83.8 74.4l-102 226.2z"/><path fill="#512000" d="m-18.2 286.5 336.4 31.7L285.4 140z"/><path fill="#c1c3c8" d="m314.6 55.7-332.8 14 311.8 114.9z"/><path fill="#3c1c00" d="m144.7 205.7-162.9-22.3L4.1 318.2z"/><path fill="#dbcfcc" d="m-18.2 119 80.9-74 3.5 161.7z"/><path fill="#531e04" d="m304.1 191.6 4.7 95L167 152.8z"/><path fill="#a8aaa6" d="m212.7 85-27 147.6-75-59.7z"/><path fill="#87633e" d="M195.1 109.6 285.4 297l-64.5 21z"/><path fill="#9ebec6" d="m318.2 115.4-334-93.7-2.4 94.9z"/><path fill="#2e2512" d="M157.6 318.2-5.3 190.4-18.2 296z"/><path fill="#173638" d="m140 121.3-71.4 24.6-14.1-30.5z"/><path fill="#b49888" d="m99 170.5-117.2-20 7 48.1z"/><path fill="#72807f" d="m318.2 218.6-122-70.4 122-2.3z"/><path fill="#ebcec0" d="M40.4 184.6 71 203.3l-15.2-92.6z"/><path fill="#151b1d" d="m76.8 73.2-2.4 29.3 14 28.2z"/><path fill="#000f14" d="m291.2 297 27-60.9-37.5-27z"/><path fill="#809290" d="m100.2 100.2-16.4 93.7 24.6-2.3z"/><path fill="#0d1d17" d="m154.1 247.9 30.5 34-97.3 21z"/><path fill="#7e512e" d="m-17 240.8 112.5-36.3-80.9-22.3z"/><path fill="#ffe6dd" d="M182.2 190.4 171.7 215v-48z"/><path fill="#d8baad" d="m164.6 213.9-3.5-59.8-23.4 27z"/><path fill="#684b34" d="M298.2 199.8 235 157.6l-110.2 93.8z"/><path fill="#0b2a2c" d="m97.9 140 43.3-22.2 4.7 19.9z"/><path fill="#986944" d="m195.1 219.7 65.6 59.8 13-64.5z"/><path fill="#54432b" d="M140 290 1.8 219.7l139.4-37.5z"/><path fill="#5b7072" d="m65 151.8 125.4 3.5-124.2 43.3z"/><path fill="#7eb7c4" d="M24 80.3 92 10l226.2 57.4z"/><path fill="#64b2c6" d="m201 148.2 117.2-8.2-35.2 24.6z"/><path fill="#4b5053" d="m179.9 225.6 28.1-54-30.5-21z"/><path fill="#f4d1c4" d="M102.5 124.8 99 148.2l-3.5-28z"/><path fill="#629aa7" d="m45.1 144.7-45.7-1.1 45.7 38.6z"/><path fill="#abc3cb" d="m202.1 109.6-71.4-21.1 24.6 64.4z"/><path fill="#a0c1c8" d="M88.5 52.1 82.6 119h59.8z"/><path fill="#140f0e" d="M103.7 115.4 98 103.7l2.3 18.8z"/><path fill="#fdeee6" d="M53.3 177.5 64 208v-28z"/><path fill="#26363d" d="m52.1 108.4 47 37.5-40-15.2z"/><path fill="#18282e" d="M164.6 232.6v-50.4l8.3 29.3z"/><path fill="#906d51" d="m156.4 190.4-8.2 59.8 15.3-5.9z"/><path fill="#ffe5e0" d="m195.1 126 2.4 38.6-10.6-26.9z"/><path fill="#181b16" d="m-18.2 238.5 100.8 43.3-41-53.9z"/><path fill="#342922" d="m247.9 161.1-22.3 36.4 25.8 18.7z"/><path fill="#182213" d="m192.8 235 21 66.8-17.5 16.4z"/><path fill="#0c1316" d="M107.2 216.2 65 245.5l27-38.7z"/><path fill="#c39d86" d="m-12.3 198.6 68-23.4-73.9 2.3z"/><path fill="#e6c1be" d="m249 191.6 4.7-2.3-7-8.2z"/><path fill="#3c3428" d="m290 297-48-16.3 41-41z"/><path fill="#6b4d2f" d="m21.7 291.2 2.3-35.1 34 22.2z"/><path fill="#946d43" d="m181 264.3 27-75-22.3 16.4z"/><path fill="#4ca1b1" d="M238.5 29.9 318.2.6 140-.6z"/><path fill="#aabec5" d="M-18.2 40.4 80.3 112l-98.5 12.9z"/></g></svg>