<svg xmlns="http://www.w3.org/2000/svg" width="300" height="300"><rect width="100%" height="100%" fill="#68adbb"/><g fill-opacity=".5" transform="translate(.6 .6)scale(1.17188)"><circle cx="123" cy="255" r="149" fill="#570000"/><circle cx="84" cy="255" r="91" fill="#321b00"/><circle cx="175" cy="86" r="59" fill="#b8c9ce"/><circle cx="27" cy="107" r="61" fill="#b9a8a3"/><circle cx="66" cy="113" r="16"/><circle cx="233" cy="219" r="84" fill="#683e0e"/><circle cx="135" cy="156" r="21" fill="#d0c5b6"/><circle cx="103" cy="69" r="33" fill="#b8c5cc"/><circle cx="255" cy="105" r="56" fill="#a7b4bb"/><circle cx="22" cy="197" r="38" fill="#472e0d"/><circle cx="255" cy="220" r="28" fill="#061216"/><circle cx="93" cy="133" r="37" fill="#556664"/><circle cx="45" cy="149" r="13" fill="#f8e3d3"/><circle cx="11" cy="81" r="44" fill="#accad6"/><circle cx="147" cy="110" r="23" fill="#b0cbd1"/><circle cx="204" cy="206" r="24" fill="#9e6a43"/><circle cx="100" cy="115" r="14" fill="#192a31"/><circle cx="46" cy="123" r="11" fill="#fed3c6"/><circle cx="188" cy="4" r="58" fill="#5da9b8"/><circle cx="18" cy="242" r="45" fill="#282113"/><circle cx="136" cy="148" r="31" fill="#858987"/><circle cx="51" cy="167" r="5" fill="#fff8dd"/><circle cx="53" cy="103" r="6" fill="#000e19"/><circle cx="133" cy="234" r="14" fill="#000f0f"/><circle cx="65" cy="76" r="4"/><circle cx="65" cy="85" r="6" fill="#482927"/><circle cx="37" cy="178" r="16" fill="#805533"/><circle cx="77" cy="144" r="23" fill="#637479"/><circle cx="132" cy="200" r="10" fill="#9d7051"/><circle cx="68" cy="111" r="13" fill="#152530"/></g></svg>