<svg xmlns="http://www.w3.org/2000/svg" width="300" height="300"><rect width="100%" height="100%" fill="#68adbb"/><g fill-opacity=".5"><path fill="#560000" d="m318.2 297-336.4 4.8L81.4 70.9z"/><path fill="#502000" d="m-18.2 285.4 336.4 32.8-30.5-175.8z"/><path fill="#bfc3c8" d="M318.2 49.8-18.2 74.4l307 109z"/><path fill="#3a1c00" d="M-18.2 187 6.4 318.1l144.2-114.9z"/><path fill="#d9d1ce" d="m-18.2 108.4 78.6-69.1 7 171z"/><path fill="#541f04" d="M318.2 196.3v98.4L165.8 150.6z"/><path fill="#a8aca7" d="m206.8 89.6-18.7 141.8-79.7-58.5z"/><path fill="#976b41" d="M271.3 224.4 181 188.1l73.8 130z"/><path fill="#332d19" d="m206.8 279.5-222.6-82L6.4 318.2z"/><path fill="#9bbdc6" d="m21.7 19.3-39.9 91.4L307.6 126z"/><path fill="#1e3c3e" d="m148.2 122.5-94.9-8.2 20 37.5z"/><path fill="#c1a99b" d="m68.6 185.7-86.8 10.6L54.5 113z"/><path fill="#786354" d="m199.8 178.7 118.4 21.1-122-66.8z"/><path fill="#68492d" d="m37 181 130 119.6L-18.2 208z"/><path fill="#7e908e" d="m102.5 106 3.6 95-29.3-25.8z"/><path fill="#212423" d="m76.8 70.9 10.5 55-14-23.4z"/><path fill="#091617" d="m318.2 243.2-37.5-43.4L283 310z"/><path fill="#739296" d="m318.2 232.6-77.4-87.9 77.4-1.1z"/><path fill="#fffef5" d="m172.9 210.4-1.2-38.7 7 21z"/><path fill="#dfc1b5" d="m141.2 176.4 23.4 37.5-3.5-56.3z"/><path fill="#e0cec7" d="m35.7 138.9 28.2 68L65 133z"/><path fill="#2c4043" d="m150.6 175.2-9.4-56.3h-37.5z"/><path fill="#73969f" d="M-18.2 168.2 44 137.7v46.9z"/><path fill="#564533" d="m265.4 196.3-87.9 43.3 4.7-83.2z"/><path fill="#76b5c3" d="m-18.2 58 336.4 14L151.8 8.9z"/><path fill="#58442c" d="M138.9 183.4 106 291.2l-45.7-89z"/><path fill="#12201e" d="m183.4 235-17.6 58.6-39.8-25.8z"/><path fill="#191915" d="M-18.2 237.3 79.1 283l-32.8-55z"/><path fill="#e5c6bb" d="M102.5 127.1 99 148.2 94.3 112z"/><path fill="#987555" d="m144.7 249 13-59.7 3.4 53.9z"/><path fill="#59a7b9" d="m206.8 141.2-1.1 22.3 82-14z"/><path fill="#734f26" d="m199.8 250.2 25.8 57.4 85.5-8.2z"/><path fill="#607274" d="M192.8 157.6 72 188.1l-9.4-45.7z"/><path fill="#524d52" d="M204.5 147v-26.9l-9.4-4.7z"/><path fill="#b2c6cc" d="m212.7 130.7-63.3 18.7-4.7-43.3z"/><path fill="#c2c7c6" d="m69.7 63.9-9.3 52.7 16.4-1.2z"/><path fill="#fff3e8" d="m58 190.4-10.5-22.2-2.4 22.2z"/><path fill="#000109" d="M127.1 288.9 92 318.2l28.1-47z"/><path fill="#1c2d31" d="M103.7 140 99 106l21.1 38.7z"/><path fill="#a6754f" d="m199.8 228 69.1 45.6-43.3-55z"/><path fill="#111819" d="m109.6 215-11.7-14L58 250.2z"/><path fill="#a8c2ca" d="M115.4 120.1 260.7 105 71 70.9z"/><path fill="#1b2e37" d="m55.7 116.6 38.6 32.8v-31.6z"/><path fill="#27343a" d="m174 206.8-8.2 11.8-1.2-38.7z"/><path fill="#a6ccd3" d="m92 61.5-9.4 54 15.3 3.4z"/><path fill="#ffebe3" d="m189.3 144.7 7 17.6L195 126z"/><path fill="#be8e73" d="m-5.3 178.7-9.3 22.3 75-28.1z"/><path fill="#131f13" d="m220.9 314.6-22.3 3.6-4.7-68z"/><path fill="#a3783d" d="m197.5 273.6-11.8-7v35.2z"/><path fill="#5da7b6" d="m318.2.6-252-8.2 252 85.5z"/></g></svg>