<svg xmlns="http://www.w3.org/2000/svg" width="300" height="300"><rect width="100%" height="100%" fill="#68adbb"/><g fill-opacity=".5" transform="translate(.6 .6)scale(1.17188)"><circle cx="123" cy="255" r="149" fill="#570000"/><circle cx="76" cy="248" r="85" fill="#321b00"/><circle cx="174" cy="84" r="59" fill="#b8cacf"/><circle cx="30" cy="104" r="61" fill="#b9aaa6"/><circle cx="65" cy="111" r="16"/><circle cx="226" cy="213" r="77" fill="#683c0b"/><circle cx="136" cy="156" r="21" fill="#d0c4b6"/><circle cx="101" cy="69" r="33" fill="#b5c5cc"/><circle cx="252" cy="106" r="54" fill="#a8b3ba"/><circle cx="87" cy="128" r="33" fill="#475f62"/><circle cx="47" cy="155" r="11" fill="#fff2de"/><circle cx="255" cy="220" r="28" fill="#061317"/><circle cx="25" cy="193" r="35" fill="#503514"/><circle cx="146" cy="109" r="24" fill="#afc9cf"/><circle cx="12" cy="84" r="40" fill="#b0cbd6"/><circle cx="205" cy="205" r="24" fill="#9e6b44"/><circle cx="42" cy="125" r="16" fill="#d6c6be"/><circle cx="22" cy="238" r="43" fill="#282111"/><circle cx="189" cy="10" r="53" fill="#5ba8b8"/><circle cx="100" cy="113" r="12" fill="#0e1d23"/><circle cx="95" cy="146" r="26" fill="#777d77"/><circle cx="57" cy="168" r="10" fill="#b6a393"/><circle cx="132" cy="233" r="14" fill="#000f10"/><circle cx="66" cy="83" r="7" fill="#453939"/><circle cx="102" cy="194" r="36" fill="#5d472c"/><circle cx="112" cy="112" r="11" fill="#2b3739"/><circle cx="138" cy="149" r="29" fill="#838988"/><circle cx="6" cy="151" r="16" fill="#a18c7c"/><circle cx="51" cy="103" r="5" fill="#011019"/><circle cx="245" cy="185" r="9" fill="#091216"/></g></svg>