<svg xmlns="http://www.w3.org/2000/svg" width="300" height="300" viewBox="0 0 300 300"><g stroke-linecap="round"><path fill="rgba(45,43,34,255)" stroke="rgba(45,43,34,255)" d="M300 300H0l54-67 246 67"/><path fill="rgba(116,180,194,255)" stroke="rgba(116,180,194,255)" d="M0 0h300L130 123 0 0"/><path fill="rgba(76,81,85,255)" stroke="rgba(76,81,85,255)" d="M95 140 0 0l130 123-35 17"/><path fill="rgba(125,175,186,255)" stroke="rgba(125,175,186,255)" d="M300 0v300l-24-156L300 0"/><path fill="rgba(153,186,197,255)" stroke="rgba(153,186,197,255)" d="M130 123 300 0l-24 144-146-21"/><path fill="rgba(95,80,65,255)" stroke="rgba(95,80,65,255)" d="M300 300 54 233l128-69 118 136"/><path fill="rgba(112,125,131,255)" stroke="rgba(112,125,131,255)" d="m54 233 41-93 87 24-128 69"/><path fill="rgba(79,80,88,255)" stroke="rgba(79,80,88,255)" d="m95 140 35-17 52 41-87-24"/><path fill="rgba(218,215,210,255)" stroke="rgba(218,215,210,255)" d="m130 123 146 21-94 20-52-41"/><path fill="rgba(74,43,11,255)" stroke="rgba(74,43,11,255)" d="m276 144 24 156-118-136 94-20"/><path fill="rgba(141,162,169,255)" stroke="rgba(141,162,169,255)" d="M0 300V0l23 190L0 300"/><path fill="rgba(32,31,25,255)" stroke="rgba(32,31,25,255)" d="M54 233 0 300l23-110 31 43"/><path fill="rgba(165,191,198,255)" stroke="rgba(165,191,198,255)" d="m0 0 95 140-72 50L0 0"/><path fill="rgba(188,167,158,255)" stroke="rgba(188,167,158,255)" d="m95 140-41 93-31-43 72-50"/></g></svg>