<svg xmlns="http://www.w3.org/2000/svg" width="300" height="300"><path fill="#5aa7b7" d="M-21-21h38v38h-38z"/><path fill="#59a7b8" d="M17-21h19v38H17z"/><path fill="#5ba9b9" d="M36-21h19v38H36z"/><path fill="#65abba" d="M55-21h19v38H55z"/><path fill="#67abbb" d="M74-21h19v38H74z"/><path fill="#63abba" d="M93-21h19v38H93z"/><path fill="#61abb9" d="M112-21h19v38h-19z"/><path fill="#5fabba" d="M131-21h19v38h-19z"/><path fill="#63acba" d="M150-21h19v38h-19z"/><path fill="#61aaba" d="M169-21h19v38h-19z"/><path fill="#5ca8b7" d="M188-21h19v38h-19z"/><path fill="#5ea8b7" d="M207-21h19v38h-19z"/><path fill="#59a6b4" d="M226-21h19v38h-19z"/><path fill="rgba(89,164,181,0.98)" d="M245-21h19v38h-19z"/><path fill="#54a3b3" d="M264-21h19v38h-19z"/><path fill="#57a3b2" d="M283-21h38v38h-38z"/><path fill="#67adbc" d="M-21 17h38v19h-38z"/><path fill="#6aaebc" d="M17 17h19v19H17z"/><path fill="#6cafbd" d="M36 17h19v19H36z"/><path fill="#6fafbf" d="M55 17h19v19H55z"/><path fill="#6fb1be" d="M74 17h19v19H74zm19 0h19v19H93z"/><path fill="#72b1bf" d="M112 17h19v19h-19zm19 0h19v19h-19z"/><path fill="#70b0be" d="M150 17h19v19h-19z"/><path fill="#6fb0be" d="M169 17h19v19h-19z"/><path fill="#6aafbd" d="M188 17h19v19h-19z"/><path fill="#66acbb" d="M207 17h19v19h-19z"/><path fill="#63abba" d="M226 17h19v19h-19z"/><path fill="#66abba" d="M245 17h19v19h-19z"/><path fill="#69aab8" d="M264 17h19v19h-19z"/><path fill="#6ba9b7" d="M283 17h38v19h-38z"/><path fill="#79b3c0" d="M-21 36h38v19h-38z"/><path fill="#77b3c0" d="M17 36h19v19H17z"/><path fill="#76b4c0" d="M36 36h19v19H36z"/><path fill="#75b4c1" d="M55 36h19v19H55z"/><path fill="#75b5c1" d="M74 36h19v19H74z"/><path fill="#74b5c2" d="M93 36h19v19H93z"/><path fill="#76b5c3" d="M112 36h19v19h-19z"/><path fill="#78b5c3" d="M131 36h19v19h-19z"/><path fill="#76b4c2" d="M150 36h19v19h-19z"/><path fill="#75b4c0" d="M169 36h19v19h-19z"/><path fill="#73b3c0" d="M188 36h19v19h-19z"/><path fill="#6fb2c0" d="M207 36h19v19h-19z"/><path fill="#6db0be" d="M226 36h19v19h-19z"/><path fill="#6daebd" d="M245 36h19v19h-19z"/><path fill="#6daebc" d="M264 36h19v19h-19z"/><path fill="#6cacba" d="M283 36h38v19h-38z"/><path fill="#92b8c1" d="M-21 55h38v19h-38z"/><path fill="#91b9c3" d="M17 55h19v19H17z"/><path fill="#90b8c4" d="M36 55h19v19H36z"/><path fill="#8fb9c4" d="M55 55h19v19H55z"/><path fill="#8fbac5" d="M74 55h19v19H74z"/><path fill="#8eb9c4" d="M93 55h19v19H93z"/><path fill="#90bac5" d="M112 55h19v19h-19z"/><path fill="#8dbac5" d="M131 55h19v19h-19z"/><path fill="#8bbac4" d="M150 55h19v19h-19z"/><path fill="#89b8c4" d="M169 55h19v19h-19z"/><path fill="#85b7c3" d="M188 55h19v19h-19z"/><path fill="#80b6c3" d="M207 55h19v19h-19z"/><path fill="#7eb5c1" d="M226 55h19v19h-19z"/><path fill="#7eb3c0" d="M245 55h19v19h-19z"/><path fill="#7cb2bf" d="M264 55h19v19h-19z"/><path fill="#7bb1be" d="M283 55h38v19h-38z"/><path fill="#a4bcc5" d="M-21 74h38v19h-38z"/><path fill="#a0bbc4" d="M17 74h19v19H17z"/><path fill="#a4c1ca" d="M36 74h19v19H36z"/><path fill="#94acb3" d="M55 74h19v19H55z"/><path fill="#8ca5ac" d="M74 74h19v19H74z"/><path fill="#a3c3cc" d="M93 74h19v19H93z"/><path fill="#9bbbc4" d="M112 74h19v19h-19z"/><path fill="#9bbcc6" d="M131 74h19v19h-19z"/><path fill="#9cbdc6" d="M150 74h19v19h-19z"/><path fill="#9dbcc5" d="M169 74h19v19h-19z"/><path fill="#9abcc4" d="M188 74h19v19h-19z"/><path fill="#98bbc4" d="M207 74h19v19h-19z"/><path fill="#98b9c4" d="M226 74h19v19h-19z"/><path fill="#93b8c2" d="M245 74h19v19h-19z"/><path fill="#8eb6c0" d="M264 74h19v19h-19z"/><path fill="#8db5bf" d="M283 74h38v19h-38z"/><path fill="#a4bdc5" d="M-21 93h38v19h-38z"/><path fill="#a2bdc5" d="M17 93h19v19H17z"/><path fill="#a5c1c9" d="M36 93h19v19H36z"/><path fill="#9eaaae" d="M55 93h19v19H55z"/><path fill="#8b999d" d="M74 93h19v19H74z"/><path fill="#9bbac1" d="M93 93h19v19H93z"/><path fill="#abc6cd" d="M112 93h19v19h-19z"/><path fill="#a7c2ca" d="M131 93h19v19h-19z"/><path fill="#a2bdc5" d="M150 93h19v19h-19z"/><path fill="#a0bcc4" d="M169 93h19v19h-19z"/><path fill="#9dbcc4" d="M188 93h19v19h-19z"/><path fill="#9ebbc4" d="M207 93h19v19h-19z"/><path fill="#9fbac3" d="M226 93h19v19h-19z"/><path fill="#9bb8c1" d="M245 93h19v19h-19z"/><path fill="#97b7c0" d="M264 93h19v19h-19z"/><path fill="#97b5be" d="M283 93h38v19h-38z"/><path fill="#a9bec5" d="M-21 112h38v19h-38z"/><path fill="#acc2c9" d="M17 112h19v19H17z"/><path fill="#a6b3b7" d="M36 112h19v19H36z"/><path fill="#536165" d="M55 112h19v19H55z"/><path fill="#4e5b60" d="M74 112h19v19H74z"/><path fill="#687275" d="M93 112h19v19H93z"/><path fill="#556c73" d="M112 112h19v19h-19z"/><path fill="#7c9298" d="M131 112h19v19h-19z"/><path fill="#abc5cc" d="M150 112h19v19h-19z"/><path fill="#a8bfc6" d="M169 112h19v19h-19z"/><path fill="#99aaae" d="M188 112h19v19h-19z"/><path fill="#a0b9c0" d="M207 112h19v19h-19z"/><path fill="#a5bdc4" d="M226 112h19v19h-19z"/><path fill="#a2bbc2" d="M245 112h19v19h-19z"/><path fill="#a0bac2" d="M264 112h19v19h-19z"/><path fill="#9eb8c1" d="M283 112h38v19h-38z"/><path fill="#9dbbc4" d="M-21 131h38v19h-38z"/><path fill="#93b9c3" d="M17 131h19v19H17z"/><path fill="#c3c2c1" d="M36 131h19v19H36z"/><path fill="#77716f" d="M55 131h19v19H55z"/><path fill="#3b464a" d="M74 131h19v19H74z"/><path fill="#5e6163" d="M93 131h19v19H93z"/><path fill="#2f3c40" d="M112 131h19v19h-19z"/><path fill="#5e6567" d="M131 131h19v19h-19z"/><path fill="#97aeb5" d="M150 131h19v19h-19z"/><path fill="#9abcc4" d="M169 131h19v19h-19z"/><path fill="#9fa4a7" d="M188 131h19v19h-19z"/><path fill="#88adb6" d="M207 131h19v19h-19z"/><path fill="#93bcc7" d="M226 131h19v19h-19z"/><path fill="#8db7c2" d="M245 131h19v19h-19z"/><path fill="#8db5bf" d="M264 131h19v19h-19z"/><path fill="#90b5bf" d="M283 131h38v19h-38z"/><path fill="#7fa4ae" d="M-21 150h38v19h-38z"/><path fill="#7ba7b0" d="M17 150h19v19H17z"/><path fill="#b6b2ae" d="M36 150h19v19H36z"/><path fill="#918886" d="M55 150h19v19H55z"/><path fill="#5a6d73" d="M74 150h19v19H74z"/><path fill="#636f74" d="M93 150h19v19H93z"/><path fill="#6b777b" d="M112 150h19v19h-19z"/><path fill="#747576" d="M131 150h19v19h-19z"/><path fill="#7b7e7e" d="M150 150h19v19h-19z"/><path fill="#677e85" d="M169 150h19v19h-19z"/><path fill="#8b8b87" d="M188 150h19v19h-19z"/><path fill="#709195" d="M207 150h19v19h-19z"/><path fill="#7f8781" d="M226 150h19v19h-19z"/><path fill="#809595" d="M245 150h19v19h-19z"/><path fill="#7ea2ab" d="M264 150h19v19h-19z"/><path fill="#6e97a0" d="M283 150h38v19h-38z"/><path fill="#9f9b94" d="M-21 169h38v19h-38z"/><path fill="#8b8882" d="M17 169h19v19H17z"/><path fill="#c4b3aa" d="M36 169h19v19H36z"/><path fill="#a39a97" d="M55 169h19v19H55z"/><path fill="#606c6f" d="M74 169h19v19H74z"/><path fill="#677479" d="M93 169h19v19H93z"/><path fill="#626a6c" d="M112 169h19v19h-19z"/><path fill="#9c9390" d="M131 169h19v19h-19z"/><path fill="#aa9c97" d="M150 169h19v19h-19z"/><path fill="#84878a" d="M169 169h19v19h-19z"/><path fill="#5e574d" d="M188 169h19v19h-19z"/><path fill="#6f5136" d="M207 169h19v19h-19z"/><path fill="#674834" d="M226 169h19v19h-19z"/><path fill="#74594c" d="M245 169h19v19h-19z"/><path fill="#83776c" d="M264 169h19v19h-19z"/><path fill="#878984" d="M283 169h38v19h-38z"/><path fill="#78604c" d="M-21 188h38v19h-38z"/><path fill="#644b36" d="M17 188h19v19H17z"/><path fill="#876a56" d="M36 188h19v19H36z"/><path fill="#8d7b6f" d="M55 188h19v19H55z"/><path fill="#655443" d="M74 188h19v19H74z"/><path fill="#635342" d="M93 188h19v19H93z"/><path fill="#5f462f" d="M112 188h19v19h-19z"/><path fill="#7d6c62" d="M131 188h19v19h-19z"/><path fill="#998c86" d="M150 188h19v19h-19z"/><path fill="#898383" d="M169 188h19v19h-19z"/><path fill="#665040" d="M188 188h19v19h-19z"/><path fill="#624327" d="M207 188h19v19h-19z"/><path fill="#46382d" d="M226 188h19v19h-19z"/><path fill="#503f30" d="M245 188h19v19h-19z"/><path fill="#5f442e" d="M264 188h19v19h-19z"/><path fill="#6e665c" d="M283 188h38v19h-38z"/><path fill="#60422a" d="M-21 207h38v19h-38z"/><path fill="#654830" d="M17 207h19v19H17z"/><path fill="#664628" d="M36 207h19v19H36z"/><path fill="#553c26" d="M55 207h19v19H55z"/><path fill="#443222" d="M74 207h19v19H74z"/><path fill="#413224" d="M93 207h19v19H93z"/><path fill="#4e3b2a" d="M112 207h19v19h-19z"/><path fill="#3e3327" d="M131 207h19v19h-19z"/><path fill="#675344" d="M150 207h19v19h-19z"/><path fill="#816c5d" d="M169 207h19v19h-19z"/><path fill="#6f5137" d="M188 207h19v19h-19z"/><path fill="#6d4f37" d="M207 207h19v19h-19z"/><path fill="#72543f" d="M226 207h19v19h-19z"/><path fill="#704d2d" d="M245 207h19v19h-19z"/><path fill="#5d4227" d="M264 207h19v19h-19z"/><path fill="#4b3b2c" d="M283 207h38v19h-38z"/><path fill="#493521" d="M-21 226h38v19h-38z"/><path fill="#342c22" d="M17 226h19v19H17z"/><path fill="#4f3e29" d="M36 226h19v19H36z"/><path fill="#4d3b2a" d="M55 226h19v19H55z"/><path fill="#45392b" d="M74 226h19v19H74z"/><path fill="#584635" d="M93 226h19v19H93z"/><path fill="#514130" d="M112 226h19v19h-19z"/><path fill="#5b4834" d="M131 226h19v19h-19z"/><path fill="#674c3b" d="M150 226h19v19h-19z"/><path fill="#56422d" d="M169 226h19v19h-19z"/><path fill="#63472a" d="M188 226h19v19h-19z"/><path fill="#865d3c" d="M207 226h19v19h-19z"/><path fill="#8e6342" d="M226 226h19v19h-19z"/><path fill="#7e5737" d="M245 226h19v19h-19z"/><path fill="#5e4430" d="M264 226h19v19h-19z"/><path fill="#262722" d="M283 226h38v19h-38z"/><path fill="#3a2c1c" d="M-21 245h38v19h-38z"/><path fill="#2c251b" d="M17 245h19v19H17z"/><path fill="#2c281e" d="M36 245h19v19H36z"/><path fill="#3d3324" d="M55 245h19v19H55z"/><path fill="#59432b" d="M74 245h19v19H74z"/><path fill="#5c4730" d="M93 245h19v19H93z"/><path fill="#55422e" d="M112 245h19v19h-19z"/><path fill="#514231" d="M131 245h19v19h-19z"/><path fill="#473d31" d="M150 245h19v19h-19z"/><path fill="#543f2c" d="M169 245h19v19h-19z"/><path fill="#4f3c26" d="M188 245h19v19h-19z"/><path fill="#6d4c2e" d="M207 245h19v19h-19z"/><path fill="#845a3b" d="M226 245h19v19h-19z"/><path fill="#845f46" d="M245 245h19v19h-19z"/><path fill="#534033" d="M264 245h19v19h-19z"/><path fill="#282822" d="M283 245h38v19h-38z"/><path fill="#35271b" d="M-21 264h38v19h-38z"/><path fill="#513922" d="M17 264h19v19H17z"/><path fill="#3d2e1d" d="M36 264h19v19H36z"/><path fill="#232018" d="M55 264h19v19H55z"/><path fill="#463726" d="M74 264h19v19H74z"/><path fill="#58432d" d="M93 264h19v19H93z"/><path fill="#493b2a" d="M112 264h19v19h-19z"/><path fill="#352f24" d="M131 264h19v19h-19z"/><path fill="#141c1c" d="M150 264h19v19h-19z"/><path fill="#513f2c" d="M169 264h19v19h-19z"/><path fill="#534028" d="M188 264h19v19h-19z"/><path fill="#6a4a2f" d="M207 264h19v19h-19z"/><path fill="#644731" d="M226 264h19v19h-19z"/><path fill="#70533c" d="M245 264h19v19h-19z"/><path fill="#584332" d="M264 264h19v19h-19z"/><path fill="#282622" d="M283 264h38v19h-38z"/><path fill="#362a1e" d="M-21 283h38v38h-38z"/><path fill="#493520" d="M17 283h19v38H17z"/><path fill="#43301e" d="M36 283h19v38H36z"/><path fill="#3e2e1e" d="M55 283h19v38H55z"/><path fill="#503b24" d="M74 283h19v38H74z"/><path fill="#342c1f" d="M93 283h19v38H93z"/><path fill="#3c3021" d="M112 283h19v38h-19z"/><path fill="#533f2b" d="M131 283h19v38h-19z"/><path fill="#3b3427" d="M150 283h19v38h-19z"/><path fill="#5a452e" d="M169 283h19v38h-19z"/><path fill="#443725" d="M188 283h19v38h-19z"/><path fill="#543d27" d="M207 283h19v38h-19z"/><path fill="#785332" d="M226 283h19v38h-19z"/><path fill="#764c23" d="M245 283h19v38h-19z"/><path fill="#5c412b" d="M264 283h19v38h-19z"/><path fill="#513e2d" d="M283 283h38v38h-38z"/></svg>