<svg xmlns="http://www.w3.org/2000/svg" width="300" height="300" viewBox="0 0 300 300"><g stroke-linecap="round"><path fill="rgba(72,57,40,255)" stroke="rgba(72,57,40,255)" d="M300 300H0l112-107 188 107"/><path fill="rgba(110,77,58,255)" stroke="rgba(110,77,58,255)" d="m114 189 186 111-188-107 2-4"/><path fill="rgba(119,178,192,255)" stroke="rgba(119,178,192,255)" d="M0 0h300L137 76 0 0"/><path fill="rgba(116,174,186,255)" stroke="rgba(116,174,186,255)" d="M0 300V0l36 148L0 300"/><path fill="rgba(128,93,53,255)" stroke="rgba(128,93,53,255)" d="M112 193 0 300l36-152 76 45"/><path fill="rgba(53,68,73,255)" stroke="rgba(53,68,73,255)" d="m114 189-2 4-76-45 78 41"/><path fill="rgba(159,187,198,255)" stroke="rgba(159,187,198,255)" d="m0 0 137 76-101 72L0 0"/><path fill="rgba(158,187,195,255)" stroke="rgba(158,187,195,255)" d="M300 0v300L148 78 300 0"/><path fill="rgba(113,181,194,255)" stroke="rgba(113,181,194,255)" d="M137 76 300 0 148 78l-11-2"/><path fill="rgba(64,64,64,255)" stroke="rgba(64,64,64,255)" d="M300 300 114 189l34-111 152 222"/><path fill="rgba(109,124,129,255)" stroke="rgba(109,124,129,255)" d="m114 189-78-41 74-17 4 58"/><path fill="rgba(177,182,187,255)" stroke="rgba(177,182,187,255)" d="m36 148 101-72-27 55-74 17"/><path fill="rgba(158,191,200,255)" stroke="rgba(158,191,200,255)" d="m137 76 11 2-38 53 27-55"/><path fill="rgba(74,52,63,255)" stroke="rgba(74,52,63,255)" d="m148 78-34 111-4-58 38-53"/></g></svg>