<svg xmlns="http://www.w3.org/2000/svg" width="300" height="300"><rect width="100%" height="100%" fill="#68adbb"/><g fill-opacity=".5" transform="translate(.6 .6)scale(1.17)"><circle cx="123" cy="255" r="149" fill="#570000"/><circle cx="176" cy="84" r="60" fill="#b7c9ce"/><circle cx="84" cy="255" r="91" fill="#321b00"/><circle cx="36" cy="108" r="57" fill="#b7a7a3"/><circle cx="66" cy="112" r="15"/><circle cx="218" cy="207" r="67" fill="#683c0a"/><circle cx="135" cy="155" r="21" fill="#cfc4b6"/><circle cx="101" cy="69" r="33" fill="#b6c5cc"/><circle cx="89" cy="131" r="35" fill="#4a6061"/><circle cx="24" cy="199" r="40" fill="#472f10"/><circle cx="240" cy="125" r="33" fill="#a8aaad"/><circle cx="44" cy="150" r="13" fill="#fae4d3"/><circle cx="13" cy="80" r="44" fill="#afcad4"/><circle cx="255" cy="220" r="28" fill="#061318"/><circle cx="146" cy="111" r="23" fill="#afccd2"/><circle cx="205" cy="206" r="24" fill="#9e6b45"/><circle cx="194" cy="2" r="60" fill="#5aa7b7"/><circle cx="99" cy="114" r="13" fill="#16242a"/><circle cx="137" cy="149" r="31" fill="#858986"/><circle cx="229" cy="86" r="38" fill="#a3bbc4"/><circle cx="45" cy="123" r="11" fill="#fcd2c5"/><circle cx="52" cy="103" r="5"/><circle cx="51" cy="167" r="5" fill="#fffce5"/><circle cx="17" cy="245" r="49" fill="#292213"/><circle cx="132" cy="233" r="14" fill="#000f10"/><circle cx="66" cy="82" r="7" fill="#453e3f"/><circle cx="6" cy="152" r="15" fill="#a98e7b"/><circle cx="94" cy="147" r="26" fill="#747773"/><circle cx="39" cy="180" r="17" fill="#805837"/><circle cx="133" cy="202" r="8" fill="#b3805d"/></g></svg>