<svg xmlns="http://www.w3.org/2000/svg" width="300" height="300"><rect width="100%" height="100%" fill="#68adbb"/><g fill-opacity=".5"><path fill="#500" d="M318.2 293.6 80.2 74.4-18.1 310z"/><path fill="#522000" d="m288.9 140 29.3 178.2-336.4-29.3z"/><path fill="#bdc2c6" d="m299.4 183.4 18.8-140.6-336.4 37.5z"/><path fill="#3b1a00" d="M149.4 202.1 5.3 318.1-18.2 187z"/><path fill="#dbd1ce" d="m-18.2 104.9 84.4 104.3-4.7-165.3z"/><path fill="#501c01" d="M164.6 149.4 290 191.6l28.2 102z"/><path fill="#a8aaa6" d="M110.7 172.9 210.4 86 188 232.6z"/><path fill="#805d3a" d="M246.7 142.4 276 318.2l-115-102z"/><path fill="#352e19" d="M230.3 299.4-18.2 189.3.6 318.2z"/><path fill="#243f41" d="m138.9 154.1 10.5-36.3H51z"/><path fill="#d0ac99" d="M67.4 190.4 65 130.7l-73.8 59.7z"/><path fill="#a3c2cb" d="m69.7 33.4 248.5 85.5H87.3z"/><path fill="#67482d" d="m170.5 301.8-138.3-122-50.4 32.9z"/><path fill="#778783" d="m65 198.6 37.5-96 3.6 89z"/><path fill="#96bbc5" d="m75.6 32.2-2.4 85.6-91.4-54z"/><path fill="#0a1617" d="m280.7 318.2 37.5-85.6-36.4-29.3z"/><path fill="#664f45" d="m212.7 161.1-20 48 7.1-93.7z"/><path fill="#0a2428" d="m49.8 110.7 20 32.9 26.9-4.7z"/><path fill="#f9e1d9" d="m171.7 161.1 10.5 29.3-10.5 25.8z"/><path fill="#709095" d="m318.2 141.2-22.3 68-50.4-63.3z"/><path fill="#d9bcaf" d="m134.2 178.7 29.3 28.1-1.2-48z"/><path fill="#996b47" d="m198.6 220.9 72.7-5.9-11.7 66.8z"/><path fill="#fff2ea" d="m65 169.3-1 30.5-18.8-20z"/><path fill="#999592" d="M-18.2 203.3 55.7 174l-73.9-55z"/><path fill="#0d1e1e" d="M74.4 103.7V73.2L86.1 105z"/><path fill="#6eb0bf" d="M318.2 82.6 286.5 6.4l-275.4 41z"/><path fill="#101e1d" d="m90.8 299.4 72.7-52.7 10.5 37.5z"/><path fill="#4e4032" d="m178.7 154.1 1.2 51.6 138.3 17.5z"/><path fill="#70a3af" d="m215 140 97.3 8.2-130 23.5z"/><path fill="#ecd1ca" d="m61.5 138.9-16.4 51.5 2.4-90.2z"/><path fill="#141612" d="m42.8 228-61 11.6 98.5 42.2z"/><path fill="#54472f" d="m224.4 254.9-113.7-75-25.7 75z"/><path fill="#afc4cb" d="m154.1 151.8 49.2-20-75-48z"/><path fill="#915921" d="m310 300.6-83.2 15.2-11.8-36.3z"/><path fill="#ffe7dc" d="m95.5 124.8 5.9-1.2-1.2 22.3z"/><path fill="#976e54" d="m157.6 188 4.7 54-17.6 7z"/><path fill="#647274" d="M187 154.1 60.3 205.7l58.5-64.5z"/><path fill="#60a4b4" d="m46.3 145.9-46.9-1.2 45.7 31.7z"/><path fill="#917160" d="m318.2 164.6-18.8 47-48-40z"/><path fill="#031923" d="m171.7 198.6-7-11.7 3.5 29.3z"/><path fill="#a3bcc5" d="m-7.6 121.3 87.9-8.2-98.5-92.6z"/><path fill="#1a2f37" d="m102.5 119 37.5 2.3-27 25.8z"/><path fill="#0a1415" d="m109.6 213.9-45.7 32.8 28-38.7z"/><path fill="#9c6536" d="m140 266.6-31.6 51.6 23.4-14.1z"/><path fill="#4da1b1" d="M250.2 31 129.5 1.9 318.2-3z"/><path fill="#04171d" d="m100.2 117.8 4.7-1.2-5.9-16.4z"/><path fill="#76512d" d="m52.1 228 86.8-42.3-126.6 20z"/><path fill="#332c16" d="m198.6 318.2 14.1-75-23.4-17.6z"/><path fill="#795e38" d="M196.3 281.8 184.6 242l-21.1 65.6z"/><path fill="#fff1e9" d="m196.3 161.1-8.2-21 7-7z"/></g></svg>