<svg xmlns="http://www.w3.org/2000/svg" width="300" height="300" viewBox="0 0 300 300"><g filter="blur(12px)"><rect width="200%" height="200%" x="-50%" y="-50%" fill="#68adbb"/><g stroke-linecap="round"><path fill="rgba(118,180,195,255)" stroke="rgba(118,180,195,255)" d="M0 0h300L66 135 0 0"/><path fill="rgba(64,47,28,255)" stroke="rgba(64,47,28,255)" d="m139 223-62 17-11-105 73 88"/><path fill="rgba(15,24,25,255)" stroke="rgba(15,24,25,255)" d="M300 300H0l195-53 105 53"/><path fill="rgba(122,96,81,255)" stroke="rgba(122,96,81,255)" d="m0 300 77-60 118 7L0 300"/><path fill="rgba(68,56,40,255)" stroke="rgba(68,56,40,255)" d="m77 240 62-17 56 24-118-7"/><path fill="rgba(78,59,40,255)" stroke="rgba(78,59,40,255)" d="m139 223-73-88 123 91-50-3"/><path fill="rgba(169,195,202,255)" stroke="rgba(169,195,202,255)" d="M66 135 300 0 189 226 66 135"/><path fill="rgba(121,116,110,255)" stroke="rgba(121,116,110,255)" d="M300 0v300l-111-74L300 0"/><path fill="rgba(106,69,38,255)" stroke="rgba(106,69,38,255)" d="m300 300-105-53-6-21 111 74"/><path fill="rgba(95,68,51,255)" stroke="rgba(95,68,51,255)" d="m195 247-56-24 50 3 6 21"/><path fill="rgba(175,192,198,255)" stroke="rgba(175,192,198,255)" d="M0 300V0l42 132L0 300"/><path fill="rgba(160,189,197,255)" stroke="rgba(160,189,197,255)" d="m0 0 66 135-24-3L0 0"/><path fill="rgba(104,59,26,255)" stroke="rgba(104,59,26,255)" d="M77 240 0 300l42-168 35 108"/><path fill="rgba(187,167,166,255)" stroke="rgba(187,167,166,255)" d="m66 135 11 105-35-108 24 3"/></g></g></svg>