<svg xmlns="http://www.w3.org/2000/svg" width="300" height="300" viewBox="0 0 300 300"><g stroke-linecap="round"><path fill="rgba(32,26,14,255)" stroke="rgba(32,26,14,255)" d="M300 300H0l286-8 14 8"/><path fill="rgba(27,30,23,255)" stroke="rgba(27,30,23,255)" d="M286 292 0 300l62-42 224 34"/><path fill="rgba(57,49,36,255)" stroke="rgba(57,49,36,255)" d="M286 292 62 258l162-11 62 45"/><path fill="rgba(54,63,66,255)" stroke="rgba(54,63,66,255)" d="M224 247 62 258l150-95 12 84"/><path fill="rgba(129,171,183,255)" stroke="rgba(129,171,183,255)" d="M300 0v300l-37-138L300 0"/><path fill="rgba(155,184,192,255)" stroke="rgba(155,184,192,255)" d="M212 163 300 0l-37 162-51 1"/><path fill="rgba(81,57,35,255)" stroke="rgba(81,57,35,255)" d="m300 300-14-8-23-130 37 138"/><path fill="rgba(147,104,69,255)" stroke="rgba(147,104,69,255)" d="m286 292-62-45 39-85 23 130"/><path fill="rgba(54,42,32,255)" stroke="rgba(54,42,32,255)" d="m224 247-12-84 51-1-39 85"/><path fill="rgba(172,193,200,255)" stroke="rgba(172,193,200,255)" d="M0 300V0l71 119L0 300"/><path fill="rgba(90,63,36,255)" stroke="rgba(90,63,36,255)" d="M62 258 0 300l71-181-9 139"/><path fill="rgba(110,179,196,255)" stroke="rgba(110,179,196,255)" d="M0 0h300L71 119 0 0"/><path fill="rgba(154,189,197,255)" stroke="rgba(154,189,197,255)" d="m300 0-88 163-141-44L300 0"/><path fill="rgba(93,108,115,255)" stroke="rgba(93,108,115,255)" d="M212 163 62 258l9-139 141 44"/></g></svg>