<svg xmlns="http://www.w3.org/2000/svg" width="300" height="300" viewBox="0 0 300 300"><g stroke-linecap="round"><path fill="rgba(117,181,195,255)" stroke="rgba(117,181,195,255)" d="M0 0h300l-60 146L0 0"/><path fill="rgba(111,171,181,255)" stroke="rgba(111,171,181,255)" d="M300 0v300l-60-154L300 0"/><path fill="rgba(107,167,177,255)" stroke="rgba(107,167,177,255)" d="M0 300V0l23 159L0 300"/><path fill="rgba(158,187,193,255)" stroke="rgba(158,187,193,255)" d="m0 0 240 146-217 13L0 0"/><path fill="rgba(78,69,54,255)" stroke="rgba(78,69,54,255)" d="M300 300H0l121-49 179 49"/><path fill="rgba(117,95,71,255)" stroke="rgba(117,95,71,255)" d="m177 219 123 81-179-49 56-32"/><path fill="rgba(81,60,41,255)" stroke="rgba(81,60,41,255)" d="m0 300 23-141 19 56-42 85"/><path fill="rgba(39,38,31,255)" stroke="rgba(39,38,31,255)" d="M121 251 0 300l42-85 79 36"/><path fill="rgba(142,109,76,255)" stroke="rgba(142,109,76,255)" d="m23 159 154 60-135-4-19-56"/><path fill="rgba(100,73,46,255)" stroke="rgba(100,73,46,255)" d="m177 219-56 32-79-36 135 4"/><path fill="rgba(114,75,42,255)" stroke="rgba(114,75,42,255)" d="m300 300-123-81 38-33 85 114"/><path fill="rgba(91,64,37,255)" stroke="rgba(91,64,37,255)" d="m240 146 60 154-85-114 25-40"/><path fill="rgba(67,53,50,255)" stroke="rgba(67,53,50,255)" d="M177 219 23 159l192 27-38 33"/><path fill="rgba(192,169,165,255)" stroke="rgba(192,169,165,255)" d="m23 159 217-13-25 40-192-27"/></g></svg>