<svg xmlns="http://www.w3.org/2000/svg" width="300" height="300" viewBox="0 0 300 300"><g stroke-linecap="round"><path fill="rgba(158,138,131,255)" stroke="rgba(158,138,131,255)" d="M300 0v300l-39-46L300 0"/><path fill="rgba(118,137,143,255)" stroke="rgba(118,137,143,255)" d="M0 300V0l71 214-71 86"/><path fill="rgba(119,181,194,255)" stroke="rgba(119,181,194,255)" d="M0 0h300L181 144 0 0"/><path fill="rgba(164,187,195,255)" stroke="rgba(164,187,195,255)" d="m300 0-39 254-80-110L300 0"/><path fill="rgba(53,66,73,255)" stroke="rgba(53,66,73,255)" d="M71 214 0 0l146 165-75 49"/><path fill="rgba(163,189,198,255)" stroke="rgba(163,189,198,255)" d="m0 0 181 144-35 21L0 0"/><path fill="rgba(63,58,53,255)" stroke="rgba(63,58,53,255)" d="m261 254 39 46-89-49 50 3"/><path fill="rgba(69,52,32,255)" stroke="rgba(69,52,32,255)" d="m181 144 80 110-50-3-30-107"/><path fill="rgba(34,41,39,255)" stroke="rgba(34,41,39,255)" d="M300 300H0l174-49 126 49"/><path fill="rgba(39,29,18,255)" stroke="rgba(39,29,18,255)" d="m211 251 89 49-126-49h37"/><path fill="rgba(45,31,18,255)" stroke="rgba(45,31,18,255)" d="m0 300 71-86 103 37L0 300"/><path fill="rgba(55,42,37,255)" stroke="rgba(55,42,37,255)" d="m71 214 75-49 28 86-103-37"/><path fill="rgba(97,105,108,255)" stroke="rgba(97,105,108,255)" d="m146 165 35-21-7 107-28-86"/><path fill="rgba(138,106,91,255)" stroke="rgba(138,106,91,255)" d="m181 144 30 107h-37l7-107"/></g></svg>