<svg xmlns="http://www.w3.org/2000/svg" width="300" height="300" viewBox="0 0 300 300"><g filter="blur(20px)"><rect width="200%" height="200%" x="-50%" y="-50%" fill="#68adbb"/><g stroke-linecap="round"><path fill="rgba(11,20,21,255)" stroke="rgba(11,20,21,255)" d="M300 300H0l55-48 245 48"/><path fill="rgba(175,157,145,255)" stroke="rgba(175,157,145,255)" d="M0 300V0l55 252-55 48"/><path fill="rgba(95,171,187,255)" stroke="rgba(95,171,187,255)" d="M0 0h300L86 39 0 0"/><path fill="rgba(132,184,197,255)" stroke="rgba(132,184,197,255)" d="M300 0 141 140 86 39 300 0"/><path fill="rgba(161,190,196,255)" stroke="rgba(161,190,196,255)" d="M55 252 0 0l86 39-31 213"/><path fill="rgba(74,69,64,255)" stroke="rgba(74,69,64,255)" d="M141 140 55 252 86 39l55 101"/><path fill="rgba(123,109,96,255)" stroke="rgba(123,109,96,255)" d="M300 0v300l-14-49L300 0"/><path fill="rgba(110,66,21,255)" stroke="rgba(110,66,21,255)" d="m55 252 86-112-18 68-68 44"/><path fill="rgba(162,188,197,255)" stroke="rgba(162,188,197,255)" d="M141 140 300 0l-60 235-99-95"/><path fill="rgba(139,165,164,255)" stroke="rgba(139,165,164,255)" d="m300 0-14 251-46-16L300 0"/><path fill="rgba(49,38,22,255)" stroke="rgba(49,38,22,255)" d="M300 300 55 252l185-17 60 65"/><path fill="rgba(22,20,11,255)" stroke="rgba(22,20,11,255)" d="m55 252 68-44 117 27-185 17"/><path fill="rgba(168,120,82,255)" stroke="rgba(168,120,82,255)" d="m286 251 14 49-60-65 46 16"/><path fill="rgba(30,43,47,255)" stroke="rgba(30,43,47,255)" d="m123 208 18-68 99 95-117-27"/></g></g></svg>