<svg xmlns="http://www.w3.org/2000/svg" width="300" height="300"><rect width="100%" height="100%" fill="#68adbb"/><g fill-opacity=".5"><path fill="#500" d="M-18.2 300.6 82.6 73.2l235.6 225z"/><path fill="#512000" d="m-18.2 285.4 336.4 32.8-30.5-177z"/><path fill="#c1c9cf" d="m141.2 19.3 177 118.4-336.4-30.5z"/><path fill="#3b1c00" d="m6.4 318.2 140.7-114.9-165.3-17.6z"/><path fill="#f8e1d8" d="M63.9 205.7V127l-82-25.7z"/><path fill="#531f04" d="M162.3 148.2 318.2 296v-95z"/><path fill="#b0b1ad" d="m188 232.6-73.7-56.2 91.4-110.2z"/><path fill="#a5b9c1" d="M301.8 190.4V65l-320-7z"/><path fill="#856140" d="m220.9 318.2 61-95-88-109z"/><path fill="#342d18" d="M-15.8 318.2 201 285.4l-214.5-92.6z"/><path fill="#b0b1b0" d="M-18.2 191.6 10 26.4l65.6 160.5z"/><path fill="#825332" d="m-4.1 236.1 1.2-72.6 90.2 50.4z"/><path fill="#132b2d" d="M89.6 144.7H69.7l8.2-68z"/><path fill="#001115" d="m287.7 299.4 30.5-49.2-36.4-46.9z"/><path fill="#70b4c2" d="M230.3 80.3-18.2 49.8l191-41z"/><path fill="#4e3e2d" d="m301.8 216.2-122-59.8 4.8 56.3z"/><path fill="#657a7a" d="M65 141.2 190.4 153 65 203.3z"/><path fill="#0c3035" d="m115.4 148.2-14-28 46.8-1.3z"/><path fill="#877063" d="m303 162.3-79.8-4.7 86.8 59.8z"/><path fill="#624f38" d="M240.8 196.3 100.2 283l-48-44.5z"/><path fill="#9d6e47" d="m252.5 216.2 18.8 70.3-75-65.6z"/><path fill="#ffebe3" d="m181 196.3-9.3-31.7v41z"/><path fill="#debfb3" d="m164.6 213.9-22.2-37.5 18.7-18.8z"/><path fill="#8d9b9a" d="M51 121.3 41.6 181l-59.8 20z"/><path fill="#1c3236" d="m55.7 116.6 42.2 4.7-28.2 29.3z"/><path fill="#a1c4c8" d="m76.8 69.7 23.4 76.2 2.3-79.7z"/><path fill="#adc3cb" d="m97.9 115.4-98.5-1.1-15.2-57.5z"/><path fill="#ffe9dc" d="M65 169.3 45.1 180 64 202z"/><path fill="#67a4b4" d="m192.8 143.6 92.6 29.3 32.8-28.2z"/><path fill="#0f1f1d" d="m134.2 257.2 46.9-14-20 60.9z"/><path fill="#b2c5cc" d="m215 133-62 14-20-52.7z"/><path fill="#f7cfc2" d="m48.6 109.6 14.1 28.1-16.4 53.9z"/><path fill="#0a1111" d="m96.7 115.4 3.5-10.5 7 19.9z"/><path fill="#151713" d="m-18.2 231.4 61 2.4L85 286.5z"/><path fill="#704b20" d="m67.4 198.6 61 8.2 15.2-23.4z"/><path fill="#9ebac3" d="m318.2 112-78.6-43.4-44.5 99.6z"/><path fill="#3c2e26" d="m251.4 218.6-1.2-58.6-28.1 34z"/><path fill="#9b714c" d="m182.2 254.9 23.5-61-17.6-2.3z"/><path fill="#d47f1f" d="m258.4 284.2 10.5 34-27-18.8z"/><path fill="#0f2128" d="m170.5 218.6-1.2-28.2-7 4.7z"/><path fill="#00040b" d="m116.6 318.2-14-27 22.2-16.4z"/><path fill="#182113" d="m220.9 318.2-24.6-15.3-4.7-65.6z"/><path fill="#242720" d="m138.9 244.3 15.2-34-30.5-18.7z"/><path fill="#92a5aa" d="m94.3 187 5.9-40 5.9 48.1z"/><path fill="#9a7052" d="m156.4 195.1 3.6 48-14.1 1.2z"/><path fill="#63a5b6" d="M45.1 174 44 143.6l-51.5 2.3z"/><path fill="#68686f" d="m197.5 157.6 3.5-39.8 11.7 50.4z"/><path fill="#4ba0b0" d="m318.2 1.8-90.3 28-92.5-44.4z"/><path fill="#233036" d="m83.8 102.5-10.6-9.3 3.6-20z"/><path fill="#1d343c" d="m94.3 144.7-38.6-28.1h38.6z"/></g></svg>