<svg xmlns="http://www.w3.org/2000/svg" width="300" height="300"><rect width="100%" height="100%" fill="#68adbb"/><g fill-opacity=".5"><path fill="#560000" d="M318.2 298.2 83.8 71l-102 229.7z"/><path fill="#502000" d="m287.7 142.4 30.5 175.8-336.4-32.8z"/><path fill="#bfc3c8" d="M292.4 184.6-18.2 74.4 310 49.8z"/><path fill="#3a1c00" d="m5.3 318.2 144.1-112.5-167.6-20z"/><path fill="#d8cfcc" d="m-18.2 127.1 84.4 78.6-3.5-168.8z"/><path fill="#521e03" d="m313.5 291.2-143-137.1L310 192.8z"/><path fill="#a8aba7" d="m210.4 90.8-100.8 82 76.1 56.3z"/><path fill="#88633d" d="m194 108.4 100.7 209.8-76.1-8.2z"/><path fill="#9fbec7" d="m5.3 29.9 300 89-314-3.5z"/><path fill="#2f2512" d="M129.5 297-3 313.6l-15.3-134.8z"/><path fill="#bea699" d="m56.8 112-75 85.5L67.4 181z"/><path fill="#1c3a3c" d="m72 151.8 77.4-29.3-95-7z"/><path fill="#78675d" d="m151.8 155.3 153.5 5.8 12.9 51.6z"/><path fill="#798b88" d="M107.2 192.8 71 189.3l30.5-86.8z"/><path fill="#0f1312" d="m87.3 110.7-10.5-34-2.4 29.4z"/><path fill="#001116" d="m287.7 299.4 30.5-61-37.5-34z"/><path fill="#091c16" d="m154.1 249-56.2 45.7 89-10.5z"/><path fill="#804f2c" d="m27.5 174-45.7 59.8 82-10.6z"/><path fill="#e7d0c5" d="m39.3 161.1 24.6-31.6 1.1 76.2z"/><path fill="#ddbfb3" d="m142.4 178.7 18.7-23.4 3.5 58.6z"/><path fill="#ffeae2" d="m178.7 209.2-9.4-9.4 7-31.6z"/><path fill="#966943" d="m257.2 271.3-77.3-54 94.9-1z"/><path fill="#859597" d="m-4.1 143.6-11.7 62L77.9 153z"/><path fill="#5d9ead" d="m290 172.9-93.7-27 111.3-2.3z"/><path fill="#5d472e" d="M185.7 172.9 255 161l-86.7 145.3z"/><path fill="#54442c" d="M135.4 178.7 8.8 225.6l134.8 66.8z"/><path fill="#78b6c4" d="m172.9 12.3 145.3 63.3-336.4-18.8z"/><path fill="#2f4143" d="m153 169.3-13-53.9-32.8 16.4z"/><path fill="#b1c6ce" d="m136.5 95.5 73.9 35.2-58.6 17.5z"/><path fill="#f1ccc0" d="m95.5 120.1 2.4 24.6 5.8-16.4z"/><path fill="#9a7756" d="m156.4 194 4.7 51.5L146 249z"/><path fill="#a5cad2" d="m83.8 108.4 56.2 10.5-55-49.2z"/><path fill="#1f272b" d="m110.7 128.3-14-12.9 3.5-12.9z"/><path fill="#02161d" d="m167 215-2.4-25.7 7 4.6z"/><path fill="#6096ab" d="m209.2 169.3 16.4-2.3-27-50.4z"/><path fill="#637579" d="m60.4 142.4 86.7 2.3-15.3 46.9z"/><path fill="#eeccc3" d="m51 110.7 11.7 32.9-18.8 50.3z"/><path fill="#a49b92" d="m237.3 151.8 65.6 29.3-16.4 11.7z"/><path fill="#182a33" d="m96.7 148.2-46.9-32.8 42.2 5.9z"/><path fill="#0c1616" d="m79.1 267.8-9.4 23.4-62-58.6z"/><path fill="#6a4a2b" d="m10 253.7 55 24.6L30 289z"/><path fill="#5ca7b6" d="m89.6 4.1 228.6 72.7-16.4-95z"/><path fill="#1a2214" d="m197.5 318.2-5.9-83.2 30.5 83.2z"/><path fill="#936c48" d="M210.4 190.4 181 259.6l8.2-65.7z"/><path fill="#375563" d="m190.4 155.3 3.5 17.6-41-18.8z"/><path fill="#ffe1db" d="m188 141.2 9.5 22.3-1.2-37.5z"/><path fill="#141817" d="m112 211.5-51.6 39.9L96.7 201z"/><path fill="#64afc3" d="m-18.2 145.9 63.3 22.3-1.2-24.6z"/><path fill="#23211e" d="m230.3 179.9-2.4 35.1 28.2-18.7z"/><path fill="#a6bcc4" d="m-18.2 123.6 32.8-73.8L78 113.1z"/></g></svg>