<svg xmlns="http://www.w3.org/2000/svg" width="300" height="300"><rect width="100%" height="100%" fill="#a5705d"/><g fill-opacity=".5"><path fill="#00051f" d="m292.4 318.2 25.8-336.4L-18.2 10z"/><path fill="#00243a" d="M-18.2 318.2 318.2 297 2.9-18.2z"/><path fill="#1effff" d="M265.4 154.1 37 157.6l113.7 123z"/><path d="m120.1 315.8-116-334-22.3 331.7z"/><path fill="#4effff" d="m208 46.3-75 119.5-27-124.2z"/><path d="M318.2-5.3 145.9-18.2l151.2 336.4z"/><path d="M-11.1-18.2 179.9-4l-198 158.2zm322.2 150-11.7 186.4H107.2z"/><path fill="#00b5c2" d="m167 33.4 84.4 186.3L249 94.3z"/><path fill="#00bdcb" d="M96.7 230.3 40.4 174 71 55.7z"/><path d="M-18.2 310V87.3l168.8 212.1z"/><path fill="#96857a" d="M157.6 205.7 217.4 72 93.2 111.9z"/><path d="m318.2 70.9-336.4-68L296-18z"/><path fill="#3fd4e8" d="m100.2 205.7 49.2 79.7 103.1-148.9z"/><path d="M232.6-18.2 276 318.2 318.2 10z"/><path fill="#1addf3" d="m100.2 48.6 52.7 61 37.5-68z"/><path fill="#f8fffc" d="m168.2 158.8-8.2-41-48-35.2z"/><path fill="#00000c" d="m150.6 185.7 16.4-27-43.4-28z"/><path d="M-.6 284.2 96.7-18.2H-7.6z"/><path fill="#00485e" d="M67.4 271.3 34.6 160 160 286.5z"/><path fill="#00000e" d="m232.6 116.6-34-34 8.2 83.2z"/><path d="m87.3 298.2 212.1 8.2 18.8-66.8zm36.3-227.3 24.6 37.5-59.7-52.7z"/><path fill="#f3fff5" d="m100.2 73.2-29.3 2.4L127.1 92z"/><path fill="#001827" d="m83.8 163.5 49.2-13L68.6 105z"/><path fill="#f7fff7" d="m141.2 123.6-9.4 37.5 49.3-70.3z"/><path d="m230.3 58-46.9 8.2-25.8 30.5z"/><path fill="#00465a" d="m232.6 269 34-111.4L138.9 290z"/><path fill="#00192b" d="m172.9 156.4-10.6-31.6 63.3 32.8z"/><path fill="#fffffb" d="m151.8 188-35.2-12.8 17.6-12.9z"/><path fill="#fffff3" d="m184.6 177.5-30.5 5.9 15.2-29.3z"/><path fill="#06b2b8" d="m239.6 86.1 17.6 89.1-55 53.9z"/><path fill="#00c7c4" d="m56.8 153-8.2-47 41-30.4z"/><path d="m129.5 101.4 9.4 24.6-13 30.4zM69.7-18.2l-87.9 77.4 230.9-29.3z"/><path fill="#36cdda" d="m206.8 48.6-63.2 52.8-11.8-64.5z"/><path fill="#00656b" d="m149.4 208-21-16.4 77.3-18.7z"/><path fill="#002e3e" d="m55.7 76.8 65.6-1.2L63.9 17z"/><path fill="#2fcbda" d="m48.6 131.8 72.7 37.5-21.1 57.5z"/><path d="m26.4 19.3 41 298.9-85.6-27z"/><path fill="#e07957" d="m127.1 135.4 2.4-48.1L92 124.8z"/><path fill="#000416" d="m222 108.4-49.1-5.9L197.5 85z"/><path fill="#fffff3" d="m169.3 97.9 14.1-17.6 36.3-4.7z"/><path fill="#ffb885" d="m188 102.5 4.8 30.5 11.7-15.2z"/><path fill="#008296" d="M143.6 104.9h11.7l-3.5 38.7z"/><path d="M219.7 318.2 290 19.3l28.2 275.4z"/><path fill="#002231" d="m266.6 61.5-86.7 21.1 53.9-68z"/><path fill="#00000e" d="m115.4 90.8-9.3 10.6 25.7 5.8z"/><path fill="#35c8d4" d="m94.3 52.1 44.6-14 12.9 52.7z"/><path d="M260.7-13.5 51 .5 208 51z"/></g></svg>