<svg xmlns="http://www.w3.org/2000/svg" width="300" height="300"><path fill="rgba(0,36,36,0.03)" d="M36-21h19v38H36z"/><path fill="rgba(0,38,51,0.08)" d="M55-21h19v38H55z"/><path fill="rgba(63,127,127,0.02)" d="M93-21h19v38H93z"/><path fill="rgba(0,127,127,0.01)" d="M112-21h19v38h-19z"/><path fill="rgba(0,255,255,0.01)" d="M169-21h19v38h-19z"/><path fill="rgba(51,102,102,0.02)" d="M188-21h19v38h-19z"/><path fill="rgba(0,42,42,0.07)" d="M226-21h19v38h-19z"/><path fill="rgba(0,42,85,0.02)" d="M245-21h19v38h-19z"/><path fill="rgba(0,39,58,0.05)" d="M36 17h19v19H36z"/><path fill="rgba(6,40,52,0.60)" d="M55 17h19v19H55z"/><path fill="rgba(13,40,53,0.07)" d="M74 17h19v19H74z"/><path fill="rgba(42,170,212,0.02)" d="M131 17h19v19h-19zm19 0h19v19h-19z"/><path fill="rgba(14,42,56,0.07)" d="M207 17h19v19h-19z"/><path fill="rgba(6,41,51,0.58)" d="M226 17h19v19h-19z"/><path fill="rgba(0,56,56,0.04)" d="M245 17h19v19h-19z"/><path fill="rgba(0,36,36,0.03)" d="M17 36h19v19H17z"/><path fill="rgba(3,41,52,0.27)" d="M36 36h19v19H36z"/><path fill="rgba(5,41,52,0.72)" d="M55 36h19v19H55z"/><path fill="rgba(0,31,41,0.64)" d="M74 36h19v19H74z"/><path fill="rgba(52,194,208,0.35)" d="M93 36h19v19H93z"/><path fill="rgba(59,201,213,0.71)" d="M112 36h19v19h-19z"/><path fill="rgba(53,191,202,0.82)" d="M131 36h19v19h-19z"/><path fill="rgba(52,190,202,0.82)" d="M150 36h19v19h-19z"/><path fill="rgba(58,201,212,0.71)" d="M169 36h19v19h-19z"/><path fill="rgba(52,200,213,0.36)" d="M188 36h19v19h-19z"/><path fill="rgba(1,32,43,0.64)" d="M207 36h19v19h-19z"/><path fill="rgba(5,40,52,0.71)" d="M226 36h19v19h-19z"/><path fill="rgba(6,38,52,0.29)" d="M245 36h19v19h-19z"/><path fill="rgba(0,51,51,0.02)" d="M264 36h19v19h-19z"/><path fill="rgba(0,0,0,0.01)" d="M-21 55h38v19h-38z"/><path fill="rgba(3,37,50,0.32)" d="M36 55h19v19H36z"/><path fill="rgba(9,37,49,0.85)" d="M55 55h19v19H55z"/><path fill="#1a343e" d="M74 55h19v19H74z"/><path fill="#1f5a64" d="M93 55h19v19H93z"/><path fill="#2aadba" d="M112 55h19v19h-19z"/><path fill="#39cbd7" d="M131 55h19v19h-19zm19 0h19v19h-19z"/><path fill="#2aadbb" d="M169 55h19v19h-19z"/><path fill="#1f5b66" d="M188 55h19v19h-19z"/><path fill="#19333d" d="M207 55h19v19h-19z"/><path fill="rgba(8,36,48,0.87)" d="M226 55h19v19h-19z"/><path fill="rgba(5,41,50,0.34)" d="M245 55h19v19h-19z"/><path fill="rgba(0,0,0,0.01)" d="M283 55h38v19h-38z"/><path fill="rgba(0,0,0,0.03)" d="M36 74h19v19H36z"/><path fill="rgba(8,106,111,0.80)" d="M55 74h19v19H55z"/><path fill="#227b7f" d="M74 74h19v19H74z"/><path fill="rgba(75,92,96,0.98)" d="M93 74h19v19H93z"/><path fill="rgba(74,105,110,0.98)" d="M112 74h19v19h-19z"/><path fill="rgba(44,174,185,0.99)" d="M131 74h19v19h-19z"/><path fill="rgba(45,175,187,0.99)" d="M150 74h19v19h-19z"/><path fill="rgba(72,104,109,0.98)" d="M169 74h19v19h-19z"/><path fill="rgba(72,90,94,0.98)" d="M188 74h19v19h-19z"/><path fill="#1f7a7e" d="M207 74h19v19h-19z"/><path fill="rgba(6,105,110,0.81)" d="M226 74h19v19h-19z"/><path fill="rgba(0,0,0,0.04)" d="M245 74h19v19h-19z"/><path fill="rgba(0,85,85,0.01)" d="M-21 93h38v19h-38z"/><path fill="rgba(5,81,89,0.35)" d="M36 93h19v19H36z"/><path fill="#029c9c" d="M55 93h19v19H55z"/><path fill="rgba(0,65,74,0.99)" d="M74 93h19v19H74z"/><path fill="#313639" d="M93 93h19v19H93z"/><path fill="#89746b" d="M112 93h19v19h-19z"/><path fill="#5e9fa2" d="M131 93h19v19h-19z"/><path fill="#579da1" d="M150 93h19v19h-19z"/><path fill="#88746b" d="M169 93h19v19h-19z"/><path fill="#34383b" d="M188 93h19v19h-19z"/><path fill="rgba(0,65,74,0.99)" d="M207 93h19v19h-19z"/><path fill="#029e9e" d="M226 93h19v19h-19z"/><path fill="rgba(5,86,95,0.36)" d="M245 93h19v19h-19z"/><path fill="rgba(0,63,63,0.02)" d="M283 93h38v19h-38z"/><path fill="rgba(0,127,127,0.02)" d="M-21 112h38v19h-38z"/><path fill="rgba(19,131,139,0.51)" d="M36 112h19v19H36z"/><path fill="#069294" d="M55 112h19v19H55z"/><path fill="rgba(0,26,40,0.99)" d="M74 112h19v19H74z"/><path fill="#936b5c" d="M93 112h19v19H93z"/><path fill="#9c6451" d="M112 112h19v19h-19z"/><path fill="#8eaaa7" d="M131 112h19v19h-19z"/><path fill="#8ea7a4" d="M150 112h19v19h-19z"/><path fill="#9e6552" d="M169 112h19v19h-19z"/><path fill="#936a5b" d="M188 112h19v19h-19z"/><path fill="rgba(4,31,43,0.98)" d="M207 112h19v19h-19z"/><path fill="#068d8f" d="M226 112h19v19h-19z"/><path fill="rgba(19,136,141,0.52)" d="M245 112h19v19h-19z"/><path fill="rgba(0,170,170,0.01)" d="M283 112h38v19h-38z"/><path fill="rgba(0,127,127,0.02)" d="M-21 131h38v19h-38z"/><path fill="rgba(26,101,112,0.56)" d="M36 131h19v19H36z"/><path fill="#13a9ad" d="M55 131h19v19H55z"/><path fill="rgba(0,54,62,0.98)" d="M74 131h19v19H74z"/><path fill="#21282f" d="M93 131h19v19H93z"/><path fill="#23363b" d="M112 131h19v19h-19z"/><path fill="#6d8a8a" d="M131 131h19v19h-19z"/><path fill="#748d8c" d="M150 131h19v19h-19z"/><path fill="#24353a" d="M169 131h19v19h-19z"/><path fill="#202830" d="M188 131h19v19h-19z"/><path fill="rgba(0,51,60,0.98)" d="M207 131h19v19h-19z"/><path fill="#11a5a9" d="M226 131h19v19h-19z"/><path fill="rgba(28,105,117,0.59)" d="M245 131h19v19h-19z"/><path fill="rgba(0,170,170,0.01)" d="M283 131h38v19h-38z"/><path fill="rgba(0,127,127,0.02)" d="M-21 150h38v19h-38z"/><path fill="rgba(3,100,111,0.63)" d="M36 150h19v19H36z"/><path fill="#1eaab5" d="M55 150h19v19H55z"/><path fill="rgba(17,160,163,0.98)" d="M74 150h19v19H74z"/><path fill="#00656c" d="M93 150h19v19H93z"/><path fill="#44a3a5" d="M112 150h19v19h-19z"/><path fill="#3e595e" d="M131 150h19v19h-19z"/><path fill="#40575c" d="M150 150h19v19h-19z"/><path fill="#4aa4a5" d="M169 150h19v19h-19z"/><path fill="#00656b" d="M188 150h19v19h-19z"/><path fill="rgba(16,158,161,0.98)" d="M207 150h19v19h-19z"/><path fill="#1eaab4" d="M226 150h19v19h-19z"/><path fill="rgba(4,104,115,0.65)" d="M245 150h19v19h-19z"/><path fill="rgba(0,127,127,0.01)" d="M283 150h38v19h-38z"/><path fill="rgba(1,97,106,0.72)" d="M36 169h19v19H36z"/><path fill="#05919b" d="M55 169h19v19H55z"/><path fill="rgba(56,188,200,0.98)" d="M74 169h19v19H74z"/><path fill="#31c0ca" d="M93 169h19v19H93z"/><path fill="#5cbcbd" d="M112 169h19v19h-19z"/><path fill="#708d8c" d="M131 169h19v19h-19z"/><path fill="#6f8b8a" d="M150 169h19v19h-19z"/><path fill="#60bdbe" d="M169 169h19v19h-19z"/><path fill="#31bfca" d="M188 169h19v19h-19z"/><path fill="rgba(57,189,200,0.99)" d="M207 169h19v19h-19z"/><path fill="#05919b" d="M226 169h19v19h-19z"/><path fill="rgba(1,93,104,0.75)" d="M245 169h19v19h-19z"/><path fill="rgba(8,42,55,0.73)" d="M36 188h19v19H36z"/><path fill="#006973" d="M55 188h19v19H55z"/><path fill="rgba(49,183,195,0.99)" d="M74 188h19v19H74z"/><path fill="#4dc5d3" d="M93 188h19v19H93z"/><path fill="#29abb7" d="M112 188h19v19h-19z"/><path fill="#1d9aa2" d="M131 188h19v19h-19z"/><path fill="#1e9ba4" d="M150 188h19v19h-19z"/><path fill="#29aab7" d="M169 188h19v19h-19z"/><path fill="#4dc5d3" d="M188 188h19v19h-19z"/><path fill="rgba(47,181,192,0.99)" d="M207 188h19v19h-19z"/><path fill="#006771" d="M226 188h19v19h-19z"/><path fill="rgba(6,42,54,0.76)" d="M245 188h19v19h-19z"/><path fill="rgba(0,63,63,0.02)" d="M-21 207h38v19h-38z"/><path fill="rgba(8,40,52,0.59)" d="M36 207h19v19H36z"/><path fill="#052531" d="M55 207h19v19H55z"/><path fill="rgba(26,114,125,0.98)" d="M74 207h19v19H74z"/><path fill="#3cc6d3" d="M93 207h19v19H93z"/><path fill="#4dc9d6" d="M112 207h19v19h-19z"/><path fill="#44c0ce" d="M131 207h19v19h-19z"/><path fill="#44c0cd" d="M150 207h19v19h-19z"/><path fill="#4dc9d5" d="M169 207h19v19h-19z"/><path fill="#3cc7d4" d="M188 207h19v19h-19z"/><path fill="rgba(25,113,124,0.98)" d="M207 207h19v19h-19z"/><path fill="#04242f" d="M226 207h19v19h-19z"/><path fill="rgba(8,39,51,0.60)" d="M245 207h19v19h-19z"/><path fill="rgba(0,0,0,0.01)" d="M283 207h38v19h-38z"/><path fill="rgba(0,0,85,0.01)" d="M-21 226h38v19h-38z"/><path fill="rgba(7,46,57,0.28)" d="M36 226h19v19H36z"/><path fill="#072934" d="M55 226h19v19H55z"/><path fill="rgba(9,35,47,0.98)" d="M74 226h19v19H74z"/><path fill="rgba(29,93,108,0.99)" d="M93 226h19v19H93z"/><path fill="#37b6c3" d="M112 226h19v19h-19z"/><path fill="#47c4d1" d="M131 226h19v19h-19z"/><path fill="#46c4d0" d="M150 226h19v19h-19z"/><path fill="#36b6c2" d="M169 226h19v19h-19z"/><path fill="rgba(29,93,108,0.99)" d="M188 226h19v19h-19z"/><path fill="rgba(9,36,47,0.98)" d="M207 226h19v19h-19z"/><path fill="#072a35" d="M226 226h19v19h-19z"/><path fill="rgba(6,44,57,0.31)" d="M245 226h19v19h-19z"/><path fill="rgba(0,85,85,0.01)" d="M283 226h38v19h-38z"/><path fill="rgba(9,69,80,0.73)" d="M55 245h19v19H55z"/><path fill="#083642" d="M74 245h19v19H74z"/><path fill="rgba(12,36,50,0.99)" d="M93 245h19v19H93z"/><path fill="#1e5c6b" d="M112 245h19v19h-19z"/><path fill="rgba(56,198,210,0.98)" d="M131 245h19v19h-19z"/><path fill="rgba(56,197,210,0.98)" d="M150 245h19v19h-19z"/><path fill="#1e5c6b" d="M169 245h19v19h-19z"/><path fill="rgba(12,38,52,0.99)" d="M188 245h19v19h-19z"/><path fill="#07313d" d="M207 245h19v19h-19z"/><path fill="rgba(5,55,69,0.75)" d="M226 245h19v19h-19z"/><path fill="rgba(0,85,85,0.01)" d="M245 245h19v19h-19z"/><path fill="rgba(9,103,122,0.11)" d="M55 264h19v19H55z"/><path fill="rgba(9,77,89,0.55)" d="M74 264h19v19H74z"/><path fill="rgba(8,51,61,0.86)" d="M93 264h19v19H93z"/><path fill="rgba(9,35,48,0.99)" d="M112 264h19v19h-19z"/><path fill="#258593" d="M131 264h19v19h-19z"/><path fill="#258391" d="M150 264h19v19h-19z"/><path fill="rgba(10,35,48,0.99)" d="M169 264h19v19h-19z"/><path fill="rgba(5,44,55,0.85)" d="M188 264h19v19h-19z"/><path fill="rgba(5,57,72,0.54)" d="M207 264h19v19h-19z"/><path fill="rgba(0,79,96,0.11)" d="M226 264h19v19h-19z"/><path fill="rgba(0,95,95,0.03)" d="M93 283h19v38H93z"/><path fill="rgba(4,30,43,0.23)" d="M112 283h19v38h-19z"/><path fill="rgba(7,42,55,0.40)" d="M131 283h19v38h-19z"/><path fill="rgba(7,42,54,0.40)" d="M150 283h19v38h-19z"/><path fill="rgba(0,31,40,0.22)" d="M169 283h19v38h-19z"/><path fill="rgba(0,42,42,0.02)" d="M188 283h19v38h-19z"/></svg>