<svg xmlns="http://www.w3.org/2000/svg" width="300" height="300"><rect width="100%" height="100%" fill="#a5705d"/><g fill-opacity=".5"><path fill="#00051f" d="m292.4 318.2 25.8-336.4L-18.2 10z"/><path fill="#00243a" d="m3-18.2-21.2 336.4L318.2 297z"/><path fill="#1effff" d="m38 158.8 111.4 120.7 118.4-127.7z"/><path d="m-18.2-4.1 170-14L7.6 318.1zm316.4 322.3 20-336.4L154-10z"/><path fill="#4fffff" d="m100.2 40.4 109 4.7-73.8 113.7z"/><path d="M190.4 318.2-18.2 116.6v201.6z"/><path d="M114.3 318.2 302.9 133l5.9 184z"/><path fill="#329195" d="M267.8 93.2 65 43.9 40.4 214z"/><path fill="#19d7e7" d="m135.4 271.3 110.1-177L255 187z"/><path d="m-18.2 1.8 327-20L311 71z"/><path d="M.6 314.6 85-5.3H-3z"/><path fill="#e5957e" d="M181 163.5 127.2 86l-30.4 38.7z"/><path fill="#20d1e4" d="M174 272.5 49.8 103.7l11.7 95z"/><path d="M318.2-18.2 299.4 317 216.2-18.2z"/><path fill="#000003" d="m-18.2 100.2 161.8 199.2L-17 310z"/><path fill="#20141d" d="m150.6 192.8-34-104.3 45.7 68z"/><path fill="#fffffb" d="m129.5 167 11.7-45.7L187 81.4z"/><path fill="#fffff5" d="m147 189.3 25.9-32.9 19.9 16.5z"/><path fill="#24e2f7" d="m95.5 48.6 85.6-8.2-22.3 63.3z"/><path d="M4.1-18.2-18.2 88.5l245-80.9z"/><path fill="#00000d" d="m68.6 126 35.1 39.8 36.3-28.1z"/><path fill="#fff" d="M226.8 75.6h-30.5l-27 18.7z"/><path d="m85 318.2 226.1-5.9-5.8-76.2z"/><path fill="#fffff7" d="m133 155.3 15.2 31.6-37.5-16.4z"/><path fill="#005568" d="m66.2 266.6 85.6 22.3L42.8 133z"/><path fill="#fff" d="M124.8 90.8 74.4 75.6h31.7z"/><path fill="#00101f" d="M140 88.5 42.8 60.4l11.7-44.6z"/><path fill="#001624" d="m181 156.4 39.9 2.4 1.2-68z"/><path fill="#00000e" d="m225.6 55.7-68 44.5L183.4 65z"/><path fill="#00cdcd" d="m236.1 165.8 17.6-44.5-31.6-57.4z"/><path fill="#ff7e54" d="m169.3 99 37.5 17.6-24.6 22.3z"/><path fill="#51cfe2" d="M114.3 210.4 215 186.9l-65.6 100.8z"/><path fill="#00ccc9" d="M59.2 156.4 85 78 54.5 95.5z"/><path fill="#003a4e" d="m263 169.3-25.7 98.5-106.6 27z"/><path fill="#d5faf1" d="m121.3 90.8 48 71.5-9.3-42.2z"/><path fill="#000414" d="m99 156.4-29.3-42.1L99 86z"/><path d="m318.2 31-80.9-49.2 35.2 336.4z"/><path fill="#51cfde" d="m165.8 224.4-76.2 1.2L71 154z"/><path fill="#000e1c" d="m208 81.4-28.1 13 50.4 43.3z"/><path d="m-18.2 97.9 68-116-7 336.3z"/><path fill="#30cddc" d="m151.8 38 55 11.8-65.6 52.7z"/><path fill="#000717" d="m137.7 164.6 12.9-31.6 17.6 32.8z"/><path fill="#00101e" d="M163.5 119v24.6l48 21z"/><path fill="#007a8c" d="m141.2 96.7 21.1 2.3-12.9 30.5z"/><path fill="#005761" d="m256 145.9-41 79.7 9.4-52.7z"/><path fill="#002736" d="m253.7 73.2-2.3-51.5L170.5 79z"/><path fill="#00000d" d="m122.5 69.7-30.5-7 51.6 38.7z"/><path fill="#000008" d="M100.2 102.5 133 105l-30.5-21.1z"/><path fill="#00b8bc" d="m110.7 181 24.7-19.9-63.3-7z"/></g></svg>