<svg xmlns="http://www.w3.org/2000/svg" width="300" height="300" viewBox="0 0 300 300"><g stroke-linecap="round"><path fill="rgba(32,120,130,255)" stroke="rgba(32,120,130,255)" d="M300 300H0l158-56 142 56"/><path fill="rgba(4,66,80,255)" stroke="rgba(4,66,80,255)" d="m210 238 90 62-142-56 52-6"/><path fill="rgba(0,0,0,255)" stroke="rgba(0,0,0,255)" d="M0 300V0l101 229L0 300"/><path fill="rgba(7,40,51,255)" stroke="rgba(7,40,51,255)" d="M158 244 0 300l101-71 57 15"/><path fill="rgba(54,192,204,255)" stroke="rgba(54,192,204,255)" d="M0 0h300L173 154 0 0"/><path fill="rgba(0,162,161,255)" stroke="rgba(0,162,161,255)" d="m300 0-80 161-47-7L300 0"/><path fill="rgba(71,195,208,255)" stroke="rgba(71,195,208,255)" d="m220 161-10 77-37-84 47 7"/><path fill="rgba(71,195,208,255)" stroke="rgba(71,195,208,255)" d="m210 238-52 6 15-90 37 84"/><path fill="rgba(7,40,51,255)" stroke="rgba(7,40,51,255)" d="M101 229 0 0l173 154-72 75"/><path fill="rgba(71,195,208,255)" stroke="rgba(71,195,208,255)" d="m158 244-57-15 72-75-15 90"/><path fill="rgba(0,0,0,255)" stroke="rgba(0,0,0,255)" d="M300 0v300l-70-128L300 0"/><path fill="rgba(8,43,54,255)" stroke="rgba(8,43,54,255)" d="M220 161 300 0l-70 172-10-11"/><path fill="rgba(7,39,51,255)" stroke="rgba(7,39,51,255)" d="m300 300-90-62 20-66 70 128"/><path fill="rgba(73,196,209,255)" stroke="rgba(73,196,209,255)" d="m210 238 10-77 10 11-20 66"/></g></svg>