<svg xmlns="http://www.w3.org/2000/svg" width="300" height="300"><rect width="100%" height="100%" fill="#a5705d"/><g fill-opacity=".5"><path fill="#00051f" d="M292.4 318.2-18.2 10l336.4-28.2z"/><path fill="#00243a" d="M318.2 297 2.9-18.1l-21 336.4z"/><path fill="#1fffff" d="M39.3 155.3 151.8 283l113.6-127.7z"/><path d="M-18.2 310 4.1-18.2l117.2 336.4zM318.2-11.1l-20 329.3L151.8-18.2z"/><path fill="#4effff" d="m104.9 41.6 29.3 123 75-120.7z"/><path d="m-18.2 149.4 5.9-150 219.1-17.6zM318.2 126v173.4l-200.4 4.7z"/><path fill="#00c6d0" d="m253.7 224.4-7-136L195 69.8z"/><path fill="#00c4d1" d="M94.3 225.6 69.7 58 41.6 176.4z"/><path d="m26.4-18.2-44.6 309.4 89.1 27z"/><path fill="#92877c" d="m69.7 67.4 82 133.6 55.1-89z"/><path d="M318.2 72-18.2 3l315.3-21.2z"/><path fill="#000107" d="M-14.6 318.2h201.5l-205-197z"/><path fill="#3ed2e5" d="m155.3 278.3 97.2-144.1-168.7 76.2z"/><path d="m225.6 300.6 65.6-318.8 27 329.3zM165.8 153l-30.4 4.6 16.4 30.5z"/><path fill="#1ce4fa" d="m90.8 51 89-11.7-17.5 56.2z"/><path fill="#feffff" d="m171.7 164.6-54-78.5 42.3 34z"/><path fill="#00333e" d="M76.8 21.7 115.4 167l-43.3-24.6z"/><path fill="#fff" d="m194 78 30.4-2.4L173 94.3z"/><path fill="#000209" d="M42.8-18.2 17 22.8l126.6 75z"/><path fill="#001828" d="m192.8 165.8 36.3-28.1-72.7-7z"/><path fill="#001b2c" d="m265.4 52.1-107.8 41 72.7-64.4z"/><path fill="#004457" d="m37 171.7 131.2 121.9-106.7-28.2z"/><path fill="#00000d" d="m94.3 161.1 39.9-11.7 3.5-32.8z"/><path fill="#ffe" d="m171.7 155.3 15.2 19.9-35.1 9.4z"/><path fill="#00475c" d="m258.4 162.3-16.4 102-100.8 24.6z"/><path d="m314.6-.6-103-2.3 89 266z"/><path fill="#fff" d="m148.2 187-16.4-31.7-11.7 19.9z"/><path fill="#000c1a" d="m208 167 24.6-51.6-30.5-31.6z"/><path d="m295.9 318.2 11.7-64.5-240.2 43.4z"/><path fill="#00bfbc" d="m52.1 103.7 2.4 50.4 42.2-91.4z"/><path d="m11.1 218.6 89.1-230.9L-18.2 2.9z"/><path fill="#e4f4e8" d="m183.4 88.5-54 71.5 17.7-45.7z"/><path fill="#ec7e59" d="M138.9 103.7 113 140l-21-27z"/><path fill="#008da7" d="m149.4 126 15.2-29.3-26.9-8.2z"/><path d="M314.6 13.5 53.3-18.2l29.3 65.7z"/><path fill="#00b3b6" d="m222 215 31.7-93.7L228 72z"/><path fill="#006167" d="m126 190.4 23.4 16.4 50.4-30.4z"/><path fill="#fffff7" d="m78 75.6 31.6 1.2 21 17.5z"/><path fill="#000010" d="m80.3 100.2 56.2 8.2-29.3-22.3z"/><path fill="#33c8d5" d="m93.2 51 62-13 3.6 62.2z"/><path fill="#002734" d="M124.8 79.1 65 20.5 41.6 71z"/><path fill="#50cfdf" d="m226.8 163.5-13 58.6-106.6 11.7z"/><path fill="#000117" d="m163.5 170.5-11.7-35.1-16.4 24.6z"/><path fill="#00010f" d="m168.2 80.3 25.7-16.4-39.8 46.8z"/><path fill="#43c9da" d="m49.8 126 125.4 117.2-82-21.1z"/><path fill="#0ba2ab" d="m233.8 205.7 25.8-52.8-96.1 7z"/><path fill="#2ecddd" d="M155.3 38 208 51l-53.9 39.8z"/></g></svg>