<svg xmlns="http://www.w3.org/2000/svg" width="300" height="300" viewBox="0 0 300 300"><g stroke-linecap="round"><path fill="rgba(22,57,73,255)" stroke="rgba(22,57,73,255)" d="M300 300H0l225-106 75 106"/><path fill="rgba(71,195,208,255)" stroke="rgba(71,195,208,255)" d="m0 300 142-144 83 38L0 300"/><path fill="rgba(0,0,0,255)" stroke="rgba(0,0,0,255)" d="M300 0v300l-75-106L300 0"/><path fill="rgba(241,229,214,255)" stroke="rgba(241,229,214,255)" d="m142 156 11-20 72 58-83-38"/><path fill="rgba(0,0,0,255)" stroke="rgba(0,0,0,255)" d="M0 0h300L177 83 0 0"/><path fill="rgba(0,162,161,255)" stroke="rgba(0,162,161,255)" d="m300 0-75 194-48-111L300 0"/><path fill="rgba(54,192,204,255)" stroke="rgba(54,192,204,255)" d="m0 0 177 83-4 5L0 0"/><path fill="rgba(7,40,51,255)" stroke="rgba(7,40,51,255)" d="m225 194-72-58 20-48 52 106"/><path fill="rgba(52,69,62,255)" stroke="rgba(52,69,62,255)" d="m177 83 48 111-52-106 4-5"/><path fill="rgba(0,0,0,255)" stroke="rgba(0,0,0,255)" d="M0 300V0l100 139L0 300"/><path fill="rgba(37,166,176,255)" stroke="rgba(37,166,176,255)" d="M142 156 0 300l100-161 42 17"/><path fill="rgba(7,40,51,255)" stroke="rgba(7,40,51,255)" d="m153 136-11 20-42-17 53-3"/><path fill="rgba(0,33,45,255)" stroke="rgba(0,33,45,255)" d="m0 0 173 88-73 51L0 0"/><path fill="rgba(231,226,212,255)" stroke="rgba(231,226,212,255)" d="m173 88-20 48-53 3 73-51"/></g><rect width="100%" height="100%" fill="#a5705d"/></svg>