<svg xmlns="http://www.w3.org/2000/svg" width="300" height="300"><path fill="rgba(5,40,52,0.17)" d="M36-40h38v76H36z"/><path fill="rgba(0,36,54,0.05)" d="M74-40h38v76H74z"/><path fill="rgba(127,255,255,0.02)" d="M112-40h38v76h-38zm38 0h38v76h-38z"/><path fill="rgba(0,54,54,0.05)" d="M188-40h38v76h-38z"/><path fill="rgba(6,38,44,0.16)" d="M226-40h38v76h-38z"/><path fill="rgba(5,33,42,0.51)" d="M36 36h38v38H36z"/><path fill="rgba(24,79,90,0.78)" d="M74 36h38v38H74z"/><path fill="rgba(47,189,202,0.82)" d="M112 36h38v38h-38z"/><path fill="rgba(47,188,201,0.83)" d="M150 36h38v38h-38z"/><path fill="rgba(25,81,91,0.78)" d="M188 36h38v38h-38z"/><path fill="rgba(5,31,42,0.51)" d="M226 36h38v38h-38z"/><path fill="rgba(0,112,117,0.56)" d="M36 74h38v38H36z"/><path fill="#335c5f" d="M74 74h38v38H74z"/><path fill="rgba(93,149,152,0.99)" d="M112 74h38v38h-38z"/><path fill="rgba(93,150,153,0.99)" d="M150 74h38v38h-38z"/><path fill="#315b5f" d="M188 74h38v38h-38z"/><path fill="rgba(0,110,115,0.57)" d="M226 74h38v38h-38z"/><path fill="rgba(5,135,142,0.74)" d="M36 112h38v38H36z"/><path fill="#274345" d="M74 112h38v38H74z"/><path fill="rgba(122,120,114,0.98)" d="M112 112h38v38h-38z"/><path fill="rgba(116,115,110,0.98)" d="M150 112h38v38h-38z"/><path fill="#234144" d="M188 112h38v38h-38z"/><path fill="rgba(6,131,138,0.76)" d="M226 112h38v38h-38z"/><path fill="rgba(0,0,0,0.02)" d="M-40 150h76v38h-76z"/><path fill="rgba(15,135,145,0.80)" d="M36 150h38v38H36z"/><path fill="#1faab3" d="M74 150h38v38H74z"/><path fill="rgba(70,131,134,0.99)" d="M112 150h38v38h-38z"/><path fill="rgba(70,129,133,0.99)" d="M150 150h38v38h-38z"/><path fill="#21aab3" d="M188 150h38v38h-38z"/><path fill="rgba(13,134,144,0.81)" d="M226 150h38v38h-38z"/><path fill="rgba(0,0,0,0.02)" d="M264 150h76v38h-76zm-304 38h76v38h-76z"/><path fill="rgba(3,62,72,0.80)" d="M36 188h38v38H36z"/><path fill="#34adba" d="M74 188h38v38H74z"/><path fill="rgba(65,193,203,0.98)" d="M112 188h38v38h-38z"/><path fill="rgba(65,194,204,0.97)" d="M150 188h38v38h-38z"/><path fill="#34aebb" d="M188 188h38v38h-38z"/><path fill="rgba(2,59,70,0.80)" d="M226 188h38v38h-38z"/><path fill="rgba(0,0,0,0.01)" d="M264 188h76v38h-76z"/><path fill="rgba(6,40,50,0.50)" d="M36 226h38v38H36z"/><path fill="#0f3c4a" d="M74 226h38v38H74z"/><path fill="rgba(56,175,189,0.99)" d="M112 226h38v38h-38zm38 0h38v38h-38z"/><path fill="#0e3b49" d="M188 226h38v38h-38z"/><path fill="rgba(3,35,48,0.51)" d="M226 226h38v38h-38z"/><path fill="rgba(28,170,170,0.04)" d="M36 264h38v76H36z"/><path fill="rgba(2,36,49,0.36)" d="M74 264h38v76H74z"/><path fill="rgba(19,76,89,0.66)" d="M112 264h38v76h-38z"/><path fill="rgba(19,77,89,0.66)" d="M150 264h38v76h-38z"/><path fill="rgba(0,27,38,0.36)" d="M188 264h38v76h-38z"/><path fill="rgba(0,141,170,0.04)" d="M226 264h38v76h-38z"/></svg>