<svg xmlns="http://www.w3.org/2000/svg" width="300" height="300"><rect width="100%" height="100%" fill="#a5705d"/><g fill-opacity=".5"><path fill="#00061f" d="M10 318.2-18.2-18.2 318.2 10z"/><path fill="#00233a" d="M-18.2 297 299.4-18.1l2.4 336.4z"/><path fill="#1fffff" d="M149.4 280.7 263.1 154l-227.4 2.3z"/><path d="M178.7 318.2 318.2 297 297-18.2zM150.6-18.2 4 318.2-18.2-.6z"/><path fill="#52ffff" d="m196.3 41.6-29.3 130L97.9 44z"/><path d="m-18.2 1.8 336.4 71.4-18.8-91.4zm7.1 304.6-7-188.6 209.7 200.4z"/><path fill="#00c3cf" d="m58 220.9-8.2-118.4 56.3-57.4z"/><path fill="#00cddb" d="m194 235 45.6-160.6L257.2 180z"/><path d="M318.2-.6 217.4-18.2l76.2 336.4z"/><path fill="#99897d" d="m88.5 74.4 123 37.5-78.5 78.5z"/><path fill="#000001" d="m115.4 318.2 202.8-200.4-20 200.4z"/><path d="m83.8-18.2-92.6 3.6L1.8 318.2z"/><path fill="#3fdcee" d="M184.6 244.3 53.3 124.8l35.2 99.6z"/><path d="m-18.2 74.4 332.8-75L-5.3-18.2zm184 86.7L146 189.3l1.2-57.5z"/><path fill="#eefffc" d="M143.6 117.8 126 168.2l63.3-85.6z"/><path fill="#16bfce" d="M89.6 53.3 255 106.1l-85.6-70.4z"/><path fill="#00060e" d="m270.1 46.3-2.3-64.5L160 93.2z"/><path fill="#47d6ec" d="M149.4 285.4 249 141.2l-131.2 92.6z"/><path d="m1.8 318.2 229.6-20L-2.9 255z"/><path fill="#001825" d="m160 135.4 78.5-11.8-42.2 44.6z"/><path fill="#00475b" d="m61.5 264.3 100.8 27-121.9-129z"/><path fill="#001b2b" d="m92 167 43.4-22.3-65.7-28.1z"/><path fill="#001828" d="m51 47.5 10.5-34L146 97.9z"/><path fill="#fffded" d="m149.4 189.3 22.3-36.4 10.5 22.3z"/><path fill="#fff" d="m114.3 174 21-7 15.3 20zm1.1-93.7 24.6 22.2-57.4-27z"/><path fill="#004459" d="m237.3 266.6 25.8-95L134 290z"/><path fill="#001928" d="m76.8 142.4 1.1-64.5 38.7 14z"/><path fill="#22d2e5" d="m178.7 41.6-27 82-30.4-80.8z"/><path d="m3 11.1 228.4-29.3-7 68z"/><path fill="#d67455" d="m179.9 143.6-14-54 42.1 30.5z"/><path d="m162.3 135.4 3.5-25.8L184.6 92zm69.1 162.8L290-18.2l28.2 322.3z"/><path fill="#00b1b0" d="m251.4 108.4-37.5-46.9L244.3 173z"/><path fill="#000008" d="m136.5 158.8 13-16.4 3.4 45.7z"/><path fill="#fffffd" d="m160 106 7 56.3-14-29.3z"/><path fill="#fffbe2" d="m167 97.9 49.2-21.1-35.1 4.6z"/><path fill="#00a5aa" d="m45.1 176.4 45.7 46.8-27-144.1z"/><path fill="#000519" d="m107.2 151.8 29.3-35.2v27z"/><path fill="#001927" d="m197.5 157.6 36.3-32.8-27-43.4z"/><path d="m-18.2 288.9 93.8 29.3L10-18.2z"/><path fill="#32e6f7" d="m206.8 53.3-37.5 22.3L180 42.8z"/><path fill="#ffb886" d="m119 134.2-16.5-24.6-2.3 22.2z"/><path fill="#000f20" d="m204.5 150.6-34 1.2-8.2-30.5z"/><path fill="#000010" d="M153 110.7 198.5 65l-30.4 17.6z"/><path d="m237.3 80.3 58.6-98.5 22.3 304.7z"/><path fill="#04b7b4" d="M96.7 83.8 72 74.4l-23.5 52.7z"/></g></svg>