<svg xmlns="http://www.w3.org/2000/svg" width="300" height="300" viewBox="0 0 300 300"><g filter="blur(20px)"><rect width="200%" height="200%" x="-50%" y="-50%" fill="#a5705d"/><g stroke-linecap="round"><path fill="rgba(0,0,0,255)" stroke="rgba(0,0,0,255)" d="M0 0h300L90 52 0 0m300 0v300l-82-93L300 0"/><path fill="rgba(22,57,73,255)" stroke="rgba(22,57,73,255)" d="M300 300H0l218-93 82 93"/><path fill="rgba(0,0,0,255)" stroke="rgba(0,0,0,255)" d="M0 300V0l52 105L0 300"/><path fill="rgba(7,40,51,255)" stroke="rgba(7,40,51,255)" d="m0 0 90 52-38 53L0 0"/><path fill="rgba(0,162,161,255)" stroke="rgba(0,162,161,255)" d="m300 0-82 207-15-84L300 0"/><path fill="rgba(72,195,208,255)" stroke="rgba(72,195,208,255)" d="M218 207 0 300l129-139 89 46"/><path fill="rgba(0,134,143,255)" stroke="rgba(0,134,143,255)" d="m0 300 52-195 77 56L0 300"/><path fill="rgba(0,162,161,255)" stroke="rgba(0,162,161,255)" d="m203 123 15 84-89-46 74-38"/><path fill="rgba(7,40,51,255)" stroke="rgba(7,40,51,255)" d="m52 105 38-53 39 109-77-56"/><path fill="rgba(54,192,204,255)" stroke="rgba(54,192,204,255)" d="M90 52 300 0 178 104 90 52"/><path fill="rgba(36,61,69,255)" stroke="rgba(36,61,69,255)" d="m300 0-97 123-25-19L300 0"/><path fill="rgba(7,40,51,255)" stroke="rgba(7,40,51,255)" d="m203 123-74 38 49-57 25 19"/><path fill="rgba(229,224,210,255)" stroke="rgba(229,224,210,255)" d="M129 161 90 52l88 52-49 57"/></g></g></svg>