<svg xmlns="http://www.w3.org/2000/svg" width="300" height="300"><g filter="blur(10px)"><rect width="200%" height="200%" x="-50%" y="-50%" fill="#a5705d"/><rect width="100%" height="100%" fill="#a5705d"/><g fill-opacity=".5" transform="translate(.6 .6)scale(1.17)"><circle cx="95" cy="63" r="255" fill="#000a25"/><circle cx="128" cy="123" r="90" fill="#12d2db"/><circle cx="255" cy="73" r="103"/><circle cy="71" r="103"/><circle cx="220" cy="236" r="67"/><circle cx="35" cy="237" r="67"/><circle cx="128" cy="179" r="54" fill="#40c8d8"/><circle cx="133" r="39"/><circle cx="127" cy="116" r="84" fill="#43a0a5"/><circle cx="89" cy="107" r="28" fill="#370000"/><circle cx="167" cy="105" r="29" fill="#370202"/><circle cx="200" cy="250" r="64" fill="#000003"/><circle cx="52" cy="255" r="69" fill="#000004"/><circle cx="223" cy="19" r="59"/><circle cx="97" cy="102" r="13" fill="#ffbf8b"/><circle cx="33" cy="9" r="67"/><circle cx="127" cy="138" r="13"/><circle cx="158" cy="102" r="13" fill="#ffbe89"/><circle cy="160" r="44"/><circle cx="251" cy="112" r="40"/><circle cx="127" cy="55" r="22" fill="#32edff"/><circle cx="61" cy="145" r="23" fill="#00c0cc"/><circle cx="195" cy="145" r="22" fill="#00c3d0"/><circle cx="127" cy="107" r="11" fill="#fffff3"/><circle cx="128" cy="197" r="28" fill="#3edeee"/><circle cx="115" r="35"/><circle cx="246" cy="182" r="44"/><circle cx="6" cy="94" r="38"/><circle cx="114" cy="147" r="8" fill="#ffffe8"/><circle cx="72" cy="212" r="23" fill="#004a5c"/></g></g></svg>