<svg xmlns="http://www.w3.org/2000/svg" width="300" height="300"><g filter="blur(10px)"><rect width="200%" height="200%" x="-50%" y="-50%" fill="#a5705d"/><rect width="100%" height="100%" fill="#a5705d"/><g fill-opacity=".5" transform="translate(.6 .6)scale(1.17)"><circle cx="122" cy="110" r="221" fill="#000a25"/><circle cx="127" cy="123" r="90" fill="#12d2db"/><circle cy="71" r="103"/><circle cx="255" cy="72" r="103"/><circle cx="225" cy="247" r="78"/><circle cx="31" cy="239" r="72"/><circle cx="126" cy="182" r="51" fill="#41cbdb"/><circle cx="133" r="39"/><circle cx="128" cy="110" r="44" fill="#937168"/><circle cx="196" cy="143" r="22" fill="#07dbe9"/><circle cx="59" cy="141" r="22" fill="#06d8e5"/><circle cx="137" cy="61" r="28" fill="#3adbeb"/><circle cx="58" cy="245" r="58" fill="#000006"/><circle cx="32" cy="8" r="66"/><circle cx="209" cy="255" r="73" fill="#000004"/><circle cx="228" cy="14" r="64"/><circle cx="129" cy="137" r="12"/><circle cy="125" r="45"/><circle cx="255" cy="127" r="45"/><circle cx="203" cy="111" r="12" fill="#02ecf0"/><circle cx="127" cy="105" r="12" fill="#e7ffff"/><circle cx="52" cy="108" r="13" fill="#00dce0"/><circle cx="99" cy="48" r="11" fill="#41ffff"/><circle cx="166" cy="108" r="28" fill="#291e22"/><circle cx="158" cy="101" r="13" fill="#ffb987"/><circle cx="111" r="35"/><circle cx="99" cy="124" r="13" fill="#000513"/><circle cy="200" r="60"/><circle cx="95" cy="103" r="13" fill="#ff8f64"/><circle cx="199" cy="87" r="13" fill="#00cdce"/></g></g></svg>