<svg xmlns="http://www.w3.org/2000/svg" width="300" height="300"><g filter="blur(10px)"><rect width="200%" height="200%" x="-50%" y="-50%" fill="#a5705d"/><rect width="100%" height="100%" fill="#a5705d"/><g fill-opacity=".5" transform="translate(.6 .6)scale(1.17)"><circle cx="183" cy="158" r="247" fill="#000a25"/><circle cx="128" cy="124" r="90" fill="#12d1db"/><circle cx="255" cy="73" r="103"/><circle cy="71" r="103"/><circle cx="220" cy="238" r="69"/><circle cx="28" cy="255" r="86"/><circle cx="128" cy="178" r="54" fill="#42cad8"/><circle cx="134" r="39"/><circle cx="131" cy="113" r="82" fill="#449ca1"/><circle cx="88" cy="107" r="29" fill="#300505"/><circle cx="166" cy="107" r="28" fill="#370000"/><circle cx="126" cy="138" r="13"/><circle cx="32" cy="7" r="71"/><circle cx="203" cy="255" r="69" fill="#000002"/><circle cx="212" cy="29" r="47"/><circle cx="58" cy="255" r="64" fill="#000007"/><circle cx="158" cy="102" r="13" fill="#ffc08c"/><circle cx="97" cy="101" r="13" fill="#ffbb87"/><circle cx="61" cy="144" r="23" fill="#00c7d4"/><circle cy="177" r="49"/><circle cx="127" cy="55" r="22" fill="#31efff"/><circle cx="196" cy="143" r="22" fill="#00c1ce"/><circle cx="255" cy="109" r="44"/><circle cx="129" cy="106" r="12" fill="#fff9e9"/><circle cx="8" cy="105" r="35"/><circle cx="116" r="34"/><circle cx="128" cy="196" r="28" fill="#3ddced"/><circle cx="249" cy="178" r="44"/><circle cx="113" cy="148" r="8" fill="#fffff7"/><circle cx="52" cy="112" r="12" fill="#00d9dd"/></g></g></svg>