<svg xmlns="http://www.w3.org/2000/svg" width="300" height="300"><rect width="100%" height="100%" fill="#a5705d"/><g fill-opacity=".5" transform="translate(.6 .6)scale(1.17)"><circle cx="82" cy="167" r="255" fill="#000a25"/><circle cx="128" cy="123" r="90" fill="#12d2db"/><circle cx="255" cy="73" r="103"/><circle cy="71" r="103"/><circle cx="226" cy="245" r="77"/><circle cx="30" cy="246" r="77"/><circle cx="125" cy="184" r="49" fill="#40cddd"/><circle cx="133" r="39"/><circle cx="130" cy="120" r="87" fill="#40a1a8"/><circle cx="89" cy="107" r="28" fill="#380000"/><circle cx="166" cy="107" r="28" fill="#390000"/><circle cx="43" cy="18" r="55"/><circle cx="49" cy="248" r="66" fill="#000005"/><circle cx="228" cy="12" r="68"/><circle cx="201" cy="244" r="60" fill="#000006"/><circle cx="97" cy="102" r="14" fill="#ffb282"/><circle cx="127" cy="138" r="12"/><circle cx="158" cy="101" r="13" fill="#ffbd89"/><circle cx="255" cy="119" r="44"/><circle cy="107" r="44"/><circle cx="129" cy="54" r="22" fill="#33eafc"/><circle cx="128" cy="104" r="13" fill="#ffecde"/><circle cx="59" cy="142" r="22" fill="#00bcc8"/><circle cx="113" r="35"/><circle cy="183" r="51"/><circle cx="255" cy="195" r="58"/><circle cx="128" cy="199" r="26" fill="#41e1f1"/><circle cx="195" cy="145" r="23" fill="#00b9c5"/><circle cx="109" cy="145" r="9" fill="#fffff1"/><circle cx="160" cy="166" r="29" fill="#49cfda"/></g></svg>