<svg xmlns="http://www.w3.org/2000/svg" width="300" height="300"><rect width="100%" height="100%" fill="#a5705d"/><g fill-opacity=".5" transform="translate(.6 .6)scale(1.17)"><circle cx="154" cy="58" r="255" fill="#000a25"/><circle cx="128" cy="122" r="89" fill="#14d4dd"/><circle cx="255" cy="73" r="103"/><circle cy="74" r="103"/><circle cx="228" cy="241" r="75"/><circle cx="31" cy="235" r="68"/><circle cx="122" cy="184" r="48" fill="#3fcfdf"/><circle cx="121" r="39"/><circle cx="61" cy="144" r="24" fill="#07d7e4"/><circle cx="196" cy="142" r="22" fill="#06dce9"/><circle cx="128" cy="112" r="45" fill="#95756b"/><circle cx="118" cy="61" r="28" fill="#3ad9ea"/><circle cx="213" cy="11" r="59"/><circle cx="31" cy="21" r="58"/><circle cx="39" cy="255" r="78" fill="#000003"/><circle cx="201" cy="247" r="62" fill="#000007"/><circle cx="127" cy="137" r="12"/><circle cx="255" cy="123" r="45"/><circle cx="7" cy="109" r="37"/><circle cx="159" cy="166" r="30" fill="#49d6e1"/><circle cx="157" cy="48" r="12" fill="#3bf9ff"/><circle cx="52" cy="108" r="13" fill="#00dde2"/><circle cx="88" cy="108" r="29" fill="#242025"/><circle cx="97" cy="101" r="13" fill="#ffb885"/><circle cx="202" cy="109" r="13" fill="#00dade"/><circle cx="128" cy="107" r="11" fill="#f9ffff"/><circle cx="158" cy="102" r="13" fill="#ff9465"/><circle cx="158" cy="125" r="13" fill="#000113"/><circle cx="142" r="35"/><circle cx="127" cy="220" r="16" fill="#24e8f7"/></g></svg>