<svg xmlns="http://www.w3.org/2000/svg" width="300" height="300"><rect width="100%" height="100%" fill="#a5705d"/><g fill-opacity=".5" transform="translate(.6 .6)scale(1.17)"><circle cx="199" cy="130" r="241" fill="#000a25"/><circle cx="128" cy="123" r="90" fill="#12d2db"/><circle cx="255" cy="73" r="103"/><circle cy="71" r="103"/><circle cx="219" cy="244" r="73"/><circle cx="31" cy="255" r="83"/><circle cx="126" cy="179" r="53" fill="#43ccdb"/><circle cx="133" r="39"/><circle cx="128" cy="113" r="83" fill="#439da2"/><circle cx="166" cy="107" r="28" fill="#380000"/><circle cx="89" cy="107" r="28" fill="#370000"/><circle cx="97" cy="101" r="13" fill="#ffbd8a"/><circle cx="47" cy="20" r="52"/><circle cx="228" cy="16" r="65"/><circle cx="56" cy="250" r="63" fill="#000007"/><circle cx="201" cy="250" r="64" fill="#000005"/><circle cx="128" cy="136" r="12"/><circle cx="158" cy="101" r="13" fill="#ffbe8b"/><circle cy="168" r="46"/><circle cx="60" cy="144" r="23" fill="#00c1cf"/><circle cx="127" cy="55" r="22" fill="#32eeff"/><circle cx="196" cy="145" r="22" fill="#00c3d1"/><circle cx="255" cy="148" r="51"/><circle cx="128" cy="107" r="11" fill="#fffff6"/><circle cx="4" cy="84" r="42"/><circle cx="112" cy="4" r="32"/><circle cx="127" cy="199" r="27" fill="#3fdfef"/><circle cx="161" cy="4" r="34"/><circle cx="112" cy="149" r="8" fill="#ffffe8"/><circle cx="143" cy="148" r="8" fill="#ffffea"/></g></svg>