<svg xmlns="http://www.w3.org/2000/svg" width="300" height="300"><rect width="100%" height="100%" fill="#a5705d"/><g fill-opacity=".5" transform="translate(.6 .6)scale(1.17188)"><circle cx="158" cy="114" r="238" fill="#000a25"/><circle cx="128" cy="123" r="90" fill="#12d2db"/><circle cx="255" cy="73" r="103"/><circle cy="72" r="103"/><circle cx="223" cy="236" r="68"/><circle cx="26" cy="242" r="77"/><circle cx="124" cy="193" r="38" fill="#33dff2"/><circle cx="133" r="39"/><circle cx="193" cy="144" r="24" fill="#09d6e3"/><circle cx="107" cy="104" r="65" fill="#599294"/><circle cx="89" cy="107" r="28" fill="#2c0406"/><circle cx="127" cy="54" r="23" fill="#2bf2ff"/><circle cx="97" cy="103" r="13" fill="#ffbb89"/><circle cx="63" cy="146" r="24" fill="#00cad8"/><circle cx="43" cy="19" r="55"/><circle cx="42" cy="255" r="76" fill="#000006"/><circle cx="232" cy="15" r="67"/><circle cx="199" cy="255" r="66" fill="#000007"/><circle cx="167" cy="108" r="29" fill="#34181a"/><circle cx="158" cy="102" r="13" fill="#ffb782"/><circle cx="159" cy="166" r="30" fill="#52d9e4"/><circle cx="96" cy="166" r="30" fill="#4dd6e0"/><circle cy="108" r="44"/><circle cx="128" cy="136" r="12"/><circle cx="255" cy="126" r="45"/><circle cx="203" cy="109" r="14" fill="#00d4d9"/><circle cx="127" cy="106" r="11" fill="#fffffd"/><circle cx="117" r="35"/><circle cx="160" cy="47" r="10" fill="#3fffff"/><circle cx="198" cy="85" r="12" fill="#00dad9"/></g></svg>