<svg xmlns="http://www.w3.org/2000/svg" width="300" height="300" viewBox="0 0 300 300"><g stroke-linecap="round"><path fill="rgba(54,192,204,255)" stroke="rgba(54,192,204,255)" d="M300 300H0l157-125 143 125"/><path fill="rgba(54,192,204,255)" stroke="rgba(54,192,204,255)" d="M300 300 157 175l14-12 129 137"/><path fill="rgba(7,40,51,255)" stroke="rgba(7,40,51,255)" d="m157 175-55-33 69 21-14 12"/><path fill="rgba(0,0,0,255)" stroke="rgba(0,0,0,255)" d="M0 0h300l-89 59L0 0"/><path fill="rgba(0,0,0,255)" stroke="rgba(0,0,0,255)" d="M300 0v300L211 59l89-59"/><path fill="rgba(0,134,143,255)" stroke="rgba(0,134,143,255)" d="M300 300 171 163l40-104 89 241"/><path fill="rgba(0,0,0,255)" stroke="rgba(0,0,0,255)" d="M0 300V0l83 155L0 300"/><path fill="rgba(0,162,161,255)" stroke="rgba(0,162,161,255)" d="m0 0 102 142-19 13L0 0"/><path fill="rgba(0,137,145,255)" stroke="rgba(0,137,145,255)" d="M157 175 0 300l83-145 74 20"/><path fill="rgba(4,92,98,255)" stroke="rgba(4,92,98,255)" d="m102 142 55 33-74-20 19-13"/><path fill="rgba(254,243,226,255)" stroke="rgba(254,243,226,255)" d="M102 142 0 0l133 91-31 51"/><path fill="rgba(54,192,204,255)" stroke="rgba(54,192,204,255)" d="m0 0 211 59-78 32L0 0"/><path fill="rgba(7,40,51,255)" stroke="rgba(7,40,51,255)" d="m171 163-69-21 31-51 38 72"/><path fill="rgba(0,34,46,255)" stroke="rgba(0,34,46,255)" d="m211 59-40 104-38-72 78-32"/></g></svg>