<svg xmlns="http://www.w3.org/2000/svg" width="300" height="300" viewBox="0 0 300 300"><g stroke-linecap="round"><path fill="rgba(0,0,0,255)" stroke="rgba(0,0,0,255)" d="M300 0v300l-93-52L300 0"/><path fill="rgba(7,40,51,255)" stroke="rgba(7,40,51,255)" d="M147 113 300 0l-93 248-60-135m153 187H0l207-52 93 52"/><path fill="rgba(0,0,0,255)" stroke="rgba(0,0,0,255)" d="M0 300V0l80 197L0 300"/><path fill="rgba(22,57,73,255)" stroke="rgba(22,57,73,255)" d="M207 248 0 300l155-98 52 46"/><path fill="rgba(7,40,51,255)" stroke="rgba(7,40,51,255)" d="m0 300 80-103 75 5L0 300"/><path fill="rgba(0,134,143,255)" stroke="rgba(0,134,143,255)" d="m147 113 60 135-52-46-8-89"/><path fill="rgba(7,40,51,255)" stroke="rgba(7,40,51,255)" d="m122 153 25-40 8 89-33-49"/><path fill="rgba(0,134,143,255)" stroke="rgba(0,134,143,255)" d="m80 197 42-44 33 49-75-5"/><path fill="rgba(0,0,0,255)" stroke="rgba(0,0,0,255)" d="M0 0h300L94 51 0 0"/><path fill="rgba(54,192,204,255)" stroke="rgba(54,192,204,255)" d="M300 0 147 113 94 51 300 0"/><path fill="rgba(84,74,72,255)" stroke="rgba(84,74,72,255)" d="m147 113-25 40L94 51l53 62"/><path fill="rgba(0,0,0,255)" stroke="rgba(0,0,0,255)" d="M80 197 0 0l94 51-14 146"/><path fill="rgba(7,40,51,255)" stroke="rgba(7,40,51,255)" d="m122 153-42 44L94 51l28 102"/></g></svg>