<svg xmlns="http://www.w3.org/2000/svg" width="300" height="300" viewBox="0 0 300 300"><g stroke-linecap="round"><path fill="rgba(0,34,68,255)" stroke="rgba(0,34,68,255)" d="M300 300H0l182-32 118 32"/><path fill="rgba(7,40,51,255)" stroke="rgba(7,40,51,255)" d="m300 300-118-32-3-78 121 110"/><path fill="rgba(0,0,0,255)" stroke="rgba(0,0,0,255)" d="M0 0h300L173 89 0 0m300 0v300l-45-162L300 0"/><path fill="rgba(7,40,51,255)" stroke="rgba(7,40,51,255)" d="M300 300 179 190l76-52 45 162"/><path fill="rgba(7,40,51,255)" stroke="rgba(7,40,51,255)" d="m179 190-6-101 82 49-76 52"/><path fill="rgba(0,0,0,255)" stroke="rgba(0,0,0,255)" d="M173 89 300 0l-45 138-82-49"/><path fill="rgba(22,57,73,255)" stroke="rgba(22,57,73,255)" d="M182 268 0 300l162-104 20 72"/><path fill="rgba(70,194,207,255)" stroke="rgba(70,194,207,255)" d="m179 190 3 78-20-72 17-6"/><path fill="rgba(0,134,143,255)" stroke="rgba(0,134,143,255)" d="M0 300V0l160 187L0 300"/><path fill="rgba(54,192,204,255)" stroke="rgba(54,192,204,255)" d="M162 196 0 300l160-113 2 9"/><path fill="rgba(8,41,52,255)" stroke="rgba(8,41,52,255)" d="m0 0 173 89-13 98L0 0"/><path fill="rgba(167,209,198,255)" stroke="rgba(167,209,198,255)" d="m173 89 6 101-19-3 13-98"/><path fill="rgba(0,134,143,255)" stroke="rgba(0,134,143,255)" d="m179 190-17 6-2-9 19 3"/></g></svg>