<svg xmlns="http://www.w3.org/2000/svg" width="300" height="300" viewBox="0 0 300 300"><g stroke-linecap="round"><path fill="rgba(0,0,0,255)" stroke="rgba(0,0,0,255)" d="M300 300H0l172-26 128 26M0 300V0l86 165L0 300"/><path fill="rgba(7,40,51,255)" stroke="rgba(7,40,51,255)" d="M172 274 0 300l86-135 86 109"/><path fill="rgba(71,195,208,255)" stroke="rgba(71,195,208,255)" d="M172 274 86 165l65 3 21 106"/><path fill="rgba(0,0,0,255)" stroke="rgba(0,0,0,255)" d="M0 0h300L106 38 0 0"/><path fill="rgba(7,40,51,255)" stroke="rgba(7,40,51,255)" d="M86 165 0 0l106 38-20 127"/><path fill="rgba(0,134,143,255)" stroke="rgba(0,134,143,255)" d="m172 274-21-106 16-17 5 123"/><path fill="rgba(55,198,210,255)" stroke="rgba(55,198,210,255)" d="m151 168-65-3 81-14-16 17"/><path fill="rgba(4,50,50,255)" stroke="rgba(4,50,50,255)" d="m86 165 20-127 61 113-81 14"/><path fill="rgba(0,0,0,255)" stroke="rgba(0,0,0,255)" d="M300 0v300l-65-169L300 0"/><path fill="rgba(7,40,51,255)" stroke="rgba(7,40,51,255)" d="m300 300-128-26 63-143 65 169"/><path fill="rgba(71,195,208,255)" stroke="rgba(71,195,208,255)" d="m172 274-5-123 68-20-63 143"/><path fill="rgba(7,40,51,255)" stroke="rgba(7,40,51,255)" d="M106 38 300 0l-65 131-129-93"/><path fill="rgba(78,99,102,255)" stroke="rgba(78,99,102,255)" d="M167 151 106 38l129 93-68 20"/></g></svg>