<svg xmlns="http://www.w3.org/2000/svg" width="300" height="300" viewBox="0 0 300 300"><g stroke-linecap="round"><path fill="rgba(0,0,0,255)" stroke="rgba(0,0,0,255)" d="M0 0h300L96 44 0 0m300 300H0l145-11 155 11M0 300V0l126 157L0 300"/><path fill="rgba(7,40,51,255)" stroke="rgba(7,40,51,255)" d="m0 0 96 44 30 113L0 0m145 289L0 300l126-143 19 132"/><path fill="rgba(7,39,50,255)" stroke="rgba(7,39,50,255)" d="m96 44 99 46-69 67L96 44"/><path fill="rgba(0,0,0,255)" stroke="rgba(0,0,0,255)" d="M96 44 300 0l-70 69L96 44"/><path fill="rgba(54,192,204,255)" stroke="rgba(54,192,204,255)" d="M195 90 96 44l134 25-35 21"/><path fill="rgba(0,47,48,255)" stroke="rgba(0,47,48,255)" d="m126 157 69-67 57 18-126 49"/><path fill="rgba(7,40,51,255)" stroke="rgba(7,40,51,255)" d="m300 300-155-11 107-181 48 192"/><path fill="rgba(0,134,143,255)" stroke="rgba(0,134,143,255)" d="m145 289-19-132 126-49-107 181"/><path fill="rgba(0,0,0,255)" stroke="rgba(0,0,0,255)" d="M300 0v300l-48-192L300 0"/><path fill="rgba(0,0,0,255)" stroke="rgba(0,0,0,255)" d="m230 69 70-69-48 108-22-39"/><path fill="rgba(0,165,163,255)" stroke="rgba(0,165,163,255)" d="m195 90 35-21 22 39-57-18"/></g></svg>