<svg xmlns="http://www.w3.org/2000/svg" width="300" height="300"><rect width="100%" height="100%" fill="#a5705d"/><g fill-opacity=".5" transform="translate(.6 .6)scale(1.17188)"><circle cx="92" cy="157" r="235" fill="#000a25"/><circle cx="128" cy="122" r="89" fill="#14d4dd"/><circle cx="255" cy="73" r="103"/><circle cy="74" r="103"/><circle cx="32" cy="254" r="82"/><circle cx="228" cy="246" r="78"/><circle cx="122" cy="183" r="48" fill="#42d1e1"/><circle cx="121" r="39"/><circle cx="61" cy="144" r="24" fill="#07d7e4"/><circle cx="127" cy="108" r="43" fill="#917168"/><circle cx="195" cy="143" r="23" fill="#06d8e5"/><circle cx="119" cy="60" r="28" fill="#37dbec"/><circle cx="168" r="40"/><circle cx="48" cy="255" r="72" fill="#000005"/><circle cx="23" cy="22" r="62"/><circle cx="255" cy="216" r="74"/><circle cx="255" cy="48" r="59"/><circle cx="128" cy="138" r="13"/><circle cy="142" r="49"/><circle cx="159" cy="102" r="13" fill="#ff9969"/><circle cx="127" cy="106" r="11" fill="#f7ffff"/><circle cx="157" cy="47" r="11" fill="#3fffff"/><circle cx="161" cy="164" r="30" fill="#49d2db"/><circle cx="178" cy="246" r="44" fill="#00101b"/><circle cx="52" cy="109" r="13" fill="#00dbe0"/><circle cx="202" cy="109" r="13" fill="#00d8dc"/><circle cx="127" cy="218" r="18" fill="#27e3f2"/><circle cx="96" cy="102" r="13" fill="#ff9667"/><circle cx="158" cy="127" r="13" fill="#000a1a"/><circle cx="88" cy="107" r="29" fill="#161a24"/></g></svg>