<svg xmlns="http://www.w3.org/2000/svg" width="300" height="300" viewBox="0 0 300 300"><g stroke-linecap="round"><path fill="rgba(0,0,0,255)" stroke="rgba(0,0,0,255)" d="M0 300V0l115 102L0 300M0 0h300L170 81 0 0"/><path fill="rgba(7,40,51,255)" stroke="rgba(7,40,51,255)" d="M115 102 0 0l170 81-55 21"/><path fill="rgba(53,189,201,255)" stroke="rgba(53,189,201,255)" d="m169 161-54-59 55-21-1 80"/><path fill="rgba(0,0,0,255)" stroke="rgba(0,0,0,255)" d="M300 300H0l140-14 160 14m0-300v300L206 77l94-77"/><path fill="rgba(1,135,144,255)" stroke="rgba(1,135,144,255)" d="M300 300 169 161l37-84 94 223"/><path fill="rgba(250,148,116,255)" stroke="rgba(250,148,116,255)" d="m169 161 1-80 36-4-37 84"/><path fill="rgba(7,40,51,255)" stroke="rgba(7,40,51,255)" d="M170 81 300 0l-94 77-36 4"/><path fill="rgba(22,57,73,255)" stroke="rgba(22,57,73,255)" d="m169 161 131 139-154-49 23-90"/><path fill="rgba(7,45,56,255)" stroke="rgba(7,45,56,255)" d="m300 300-160-14 6-35 154 49"/><path fill="rgba(55,193,205,255)" stroke="rgba(55,193,205,255)" d="m0 300 115-198 31 149L0 300"/><path fill="rgba(0,0,0,255)" stroke="rgba(0,0,0,255)" d="M140 286 0 300l146-49-6 35"/><path fill="rgba(7,40,51,255)" stroke="rgba(7,40,51,255)" d="m115 102 54 59-23 90-31-149"/></g></svg>