<svg xmlns="http://www.w3.org/2000/svg" width="300" height="300" viewBox="0 0 300 300"><g filter="blur(20px)"><rect width="200%" height="200%" x="-50%" y="-50%" fill="#a5705d"/><g stroke-linecap="round"><path fill="rgba(0,0,0,255)" stroke="rgba(0,0,0,255)" d="M300 0v300l-45-172L300 0"/><path fill="rgba(0,0,0,255)" stroke="rgba(0,0,0,255)" d="m300 0-45 128-59-50L300 0"/><path fill="rgba(22,57,73,255)" stroke="rgba(22,57,73,255)" d="M300 300H0l221-125 79 125"/><path fill="rgba(4,41,50,255)" stroke="rgba(4,41,50,255)" d="m255 128 45 172-79-125 34-47"/><path fill="rgba(0,0,0,255)" stroke="rgba(0,0,0,255)" d="M0 0h300L90 73 0 0"/><path fill="rgba(53,192,204,255)" stroke="rgba(53,192,204,255)" d="M300 0 196 78 90 73 300 0"/><path fill="rgba(0,0,0,255)" stroke="rgba(0,0,0,255)" d="M0 300V0l90 73L0 300"/><path fill="rgba(7,40,51,255)" stroke="rgba(7,40,51,255)" d="m196 78 59 50-55 9-4-59"/><path fill="rgba(0,162,161,255)" stroke="rgba(0,162,161,255)" d="m255 128-34 47-21-38 55-9"/><path fill="rgba(7,41,52,255)" stroke="rgba(7,41,52,255)" d="m90 73 106 5-89 25-17-30"/><path fill="rgba(229,224,211,255)" stroke="rgba(229,224,211,255)" d="m196 78 4 59-93-34 89-25"/><path fill="rgba(71,195,208,255)" stroke="rgba(71,195,208,255)" d="M221 175 0 300l107-197 114 72"/><path fill="rgba(7,40,51,255)" stroke="rgba(7,40,51,255)" d="m200 137 21 38-114-72 93 34"/><path fill="rgba(54,192,204,255)" stroke="rgba(54,192,204,255)" d="M0 300 90 73l17 30L0 300"/></g></g></svg>