<svg xmlns="http://www.w3.org/2000/svg" width="300" height="300"><g filter="blur(10px)"><rect width="200%" height="200%" x="-50%" y="-50%" fill="#a5705d"/><rect width="100%" height="100%" fill="#a5705d"/><g fill-opacity=".5" transform="translate(.6 .6)scale(1.17)"><circle cx="173" cy="94" r="243" fill="#000a25"/><circle cx="128" cy="123" r="90" fill="#12d2db"/><circle cx="255" cy="73" r="103"/><circle cy="71" r="103"/><circle cx="223" cy="239" r="70"/><circle cx="27" cy="255" r="86"/><circle cx="128" cy="178" r="53" fill="#43cbda"/><circle cx="133" r="39"/><circle cx="128" cy="117" r="85" fill="#41a0a6"/><circle cx="89" cy="107" r="28" fill="#380000"/><circle cx="166" cy="107" r="28" fill="#390000"/><circle cx="223" cy="24" r="57"/><circle cx="97" cy="102" r="13" fill="#ffbf8b"/><circle cx="194" cy="250" r="60" fill="#000006"/><circle cx="158" cy="101" r="13" fill="#ffbd8a"/><circle cx="38" cy="11" r="63"/><circle cx="56" cy="253" r="65" fill="#000108"/><circle cx="127" cy="137" r="12"/><circle cx="255" cy="119" r="44"/><circle cx="128" cy="107" r="11" fill="#fffff4"/><circle cy="111" r="44"/><circle cx="197" cy="143" r="22" fill="#00bdca"/><circle cx="255" cy="199" r="61"/><circle cx="130" cy="55" r="22" fill="#32eafc"/><circle cx="60" cy="144" r="22" fill="#00c0cd"/><circle cx="128" cy="202" r="26" fill="#3ee1f1"/><circle cx="5" cy="195" r="54"/><circle cx="114" r="35"/><circle cx="71" cy="211" r="23" fill="#014b5d"/><circle cx="114" cy="148" r="7" fill="#ffe"/></g></g></svg>