<svg xmlns="http://www.w3.org/2000/svg" width="300" height="300"><rect width="100%" height="100%" fill="#a5705d"/><g fill-opacity=".5"><path fill="#00051f" d="m292.4 318.2 25.8-336.4L-18.2 10z"/><path fill="#00243a" d="M-18.2 318.2 3-18.2l315.3 315.3z"/><path fill="#1effff" d="M150.6 281.8 38 157.6l228.5-4.7z"/><path d="m-18.2 295.9 140.7 20L2.9-17z"/><path fill="#4affff" d="m208 45.1-73.8 118.4-27-123z"/><path d="m148.2-18.2 148.9 336.4L318 1.8z"/><path d="M211.5-18.2-11-15.8l-7 158.2zM106 318.2l212.2-193.4-17.6 193.4z"/><path fill="#00b8c4" d="m172.9 38 80.8 183-5.8-129z"/><path fill="#00c0ce" d="m41.6 177.5 62.1 55.1L67.4 60.4z"/><path d="M-18.2 301.8V107.2l187.5 198z"/><path fill="#9c887b" d="M215 73.2 89.6 113.1l77.4 77.3z"/><path d="m-18.2-.6 315.3-17.6 21 91.4z"/><path d="m-18.2 10 91.4-23.5-53.9 331.7z"/><path fill="#40d3e6" d="M153 280.7 94.2 208 255 133z"/><path d="m220.9 315.8 97.3-3.5-23.5-330.5z"/><path fill="#20dff4" d="m89.6 47.5 112.5-4.7L156.4 99z"/><path fill="#fffff9" d="m74.4 75.6 35.2 1.2L140 99z"/><path fill="#fdffff" d="m172.9 167-13-44.5-30.4-22.3z"/><path d="m153 191.6 10.5-37.5-28.1 1.2z"/><path fill="#004a60" d="M62.7 266.6 167 291.2 42.8 173z"/><path fill="#001624" d="M136.5 145.9 65 109.6l24.6 55z"/><path fill="#001321" d="m215 163.5 14.1-51.6-63.3 37.5z"/><path fill="#0d2430" d="m209.2 48.6 23.4 85.6L165.8 85z"/><path fill="#fff" d="m213.9 76.8-51.6 25.7 23.4-22.2z"/><path fill="#001421" d="m42.8 48.6 30.4-29.3 69.2 76.2z"/><path fill="#fffff6" d="m116.6 174 11.7-21 22.3 34z"/><path fill="#fffff3" d="m164.6 163.5-14 24.6 32.8-12.9z"/><path d="m311.1 168.2 1.2-175.8-164-4.7z"/><path fill="#00abb3" d="m240.8 81.4-37.5 151.2 54-57.4z"/><path d="m68.6 298.2 249.6-45.7-7 65.7z"/><path fill="#00c8c6" d="m86.1 73.2-37.5 41 11.8 48.1z"/><path d="M138.9 129.5 127 158.8l3.6-54z"/><path fill="#00394d" d="m239.6 266.6-77.3-5.9 100.8-84.3z"/><path fill="#f3fff8" d="m169.3 104.9-28 19.9-10.6 38.7z"/><path d="m33.4-18.2 162.9 43.4-214.5 49.2z"/><path fill="#00646b" d="m121.3 188 73.8-7-46.9 27z"/><path fill="#23c0d0" d="m121.3 41.6 48-2.3-17.5 93.7z"/><path fill="#00081c" d="m165.8 144.7-2.3-25.8 41 39.9z"/><path fill="#dd7c5c" d="m121.3 137.7-30.5-14 44.6-36.4z"/><path fill="#002534" d="m158.8 97.9 85.5-49.3-4.7-35.1z"/><path d="m-18.2 196.3 49.3 121.9L65-18.2z"/><path fill="#001725" d="m95.5 156.4 5.9-71.4-31.7 28z"/><path fill="#ffb683" d="m188 134.2 16.5-9.4-9.4-18.7z"/><path fill="#48cdde" d="m81.4 147 3.6 70.4 87.9 41z"/><path fill="#53cfde" d="m215 219.7 8.2-57.4-103 69.1z"/><path fill="#000219" d="m136.5 161.1 28.1 8.2-12.8-34z"/><path fill="#00000e" d="m133 82.6-25.8-12.9 41 38.7z"/><path fill="#000013" d="m123.6 96.7 15.3 22.2-41-32.8z"/><path d="M318.2 147 242 157.7l35-103.2z"/></g></svg>