<svg xmlns="http://www.w3.org/2000/svg" width="300" height="300"><rect width="100%" height="100%" fill="#a5705d"/><g fill-opacity=".5" transform="translate(.6 .6)scale(1.17)"><circle cx="139" cy="123" r="221" fill="#000a25"/><circle cx="127" cy="122" r="89" fill="#14d4dd"/><circle cy="73" r="103"/><circle cx="255" cy="73" r="103"/><circle cx="223" cy="233" r="65"/><circle cx="32" cy="238" r="70"/><circle cx="121" cy="189" r="43" fill="#39d6e8"/><circle cx="133" r="39"/><circle cx="194" cy="143" r="24" fill="#06d5e2"/><circle cx="111" cy="105" r="68" fill="#528e91"/><circle cx="88" cy="106" r="29" fill="#2b0a0c"/><circle cx="36" cy="13" r="63"/><circle cx="166" cy="109" r="28" fill="#361112"/><circle cx="97" cy="100" r="14" fill="#ffa97d"/><circle cx="129" cy="54" r="22" fill="#2df6ff"/><circle cy="213" r="70"/><circle cx="64" cy="148" r="26" fill="#00c7d5"/><circle cx="200" cy="255" r="67" fill="#000007"/><circle cx="221" cy="21" r="55"/><circle cx="159" cy="100" r="14" fill="#ffa67b"/><circle cx="81" cy="231" r="33" fill="#00131f"/><circle cx="160" cy="164" r="31" fill="#4bd5de"/><circle cx="127" cy="138" r="12"/><circle cx="255" cy="125" r="46"/><circle cx="203" cy="108" r="14" fill="#00d2d8"/><circle cy="110" r="44"/><circle cx="128" cy="104" r="12" fill="#fffff3"/><circle cx="114" r="35"/><circle cx="162" cy="47" r="9" fill="#41ffff"/><circle cx="255" cy="199" r="60"/></g></svg>