<svg xmlns="http://www.w3.org/2000/svg" width="300" height="300"><rect width="100%" height="100%" fill="#a5705d"/><g fill-opacity=".5"><path fill="#00051f" d="m-18.2 10 336.4-28.2-25.8 336.4z"/><path fill="#00243a" d="M-18.2 318.2 318.2 297 2.9-18.2z"/><path fill="#1effff" d="M269 154.1 149.3 281.8l-109-123z"/><path d="m5.3-18.2-23.5 315.3L119 315.8zm146.5 0L318.2 3 297 318.2z"/><path fill="#4fffff" d="m209.2 45.1-75 118.4L106 41.6z"/><path d="m.6-3 189.8-1-208.6 148.7zm308.2 316.5L113 312.3l205-194.5z"/><path fill="#00d3dc" d="M242 217.4 203.3 61.5l48 38.7z"/><path fill="#00c2d0" d="m102.5 232.6-60.9-56.2L67.4 62.7z"/><path d="M-18.2 110.7v198l186.4-8.1z"/><path fill="#958a7f" d="M156.4 205.7 216.2 72 94.3 113z"/><path d="m303-8.8 15.2 87.9L5.2-.6z"/><path fill="#1adff4" d="m181 38-21 63.4-69.2-54z"/><path d="m216.2-18.2 102 15.3-22.3 301.1z"/><path fill="#3dd7ea" d="m256 115.4-145.3 136 100.8-28.2z"/><path d="M.6 167-18.2 3l172.3-21.2z"/><path fill="#f9ffff" d="m114.3 82.6 58.6 85.6-15.3-49.3z"/><path d="m149.4 188 20-37.4-34 4.7z"/><path fill="#48e3d9" d="m116.6 80.3-45.7-5.9-11.7 27z"/><path fill="#001726" d="m134.2 149.4-50.4 14-15.2-56.2z"/><path d="M314.6 246.7 46.3 305.3l256.6 12.9zM153 109.6l22.2-36.4 34-16.4zM89.6 59.2l30.5 8.2 24.6 35.1z"/><path fill="#004a60" d="m46.3 174 15.2 93.8 103.1 24.6z"/><path d="m60.4 301.8-30.5-286-48 286z"/><path fill="#3dcbdd" d="M151.8 285.4 47.5 134.2 195 204.5z"/><path fill="#002331" d="m212.7 167 18.7-59.8-64.4 41z"/><path fill="#fffffb" d="m184.6 172.9-29.3 12.8 10.5-36.3z"/><path fill="#fff" d="m185.7 80.3-24.6 19.9 51.6-22.3z"/><path fill="#000003" d="m134.2 110.7-21.1 48 27-21z"/><path fill="#00485c" d="m142.4 291.2 96-27L262 153z"/><path fill="#001325" d="m212.7 81.4-34 13 55 41z"/><path fill="#fffef1" d="m134.2 160 17.6 29.3-41-21.1z"/><path fill="#e3f4e9" d="m142.4 117.8 35.1-22.3-45.7 66.8z"/><path fill="#ffe3d2" d="M113 75.6H78l51.5 18.7z"/><path fill="#00646e" d="m102.5 175.2 75 20-36.3 10.5z"/><path d="M-.6 17 214 46.3l42-64.5z"/><path fill="#002d3e" d="m44 63.9 89 21L65 24z"/><path fill="#f68760" d="m134.2 127.1-22.3-28-16.4 37.4z"/><path fill="#009ba0" d="m235 60.4 22.2 116-38.6 38.6z"/><path fill="#ffb785" d="m204.5 122.5-11.7-21.1-3.5 35.1z"/><path fill="#00a7bc" d="m151.8 138.9 8.2-48-22.3-4.8z"/><path fill="#000a1d" d="m167 148.2-3.5-31.6 34 41z"/><path d="m305.3 318.2-95-15.3L318.3-17z"/><path fill="#00293b" d="M237.3 21.7 170.5 86l87.9-25.7z"/><path fill="#00081e" d="m162.3 170.5-9.4-38.7-17.5 29.3z"/><path fill="#2be5f9" d="m176.4 41.6 30.4 10.5-35.1 24.7z"/><path fill="#00b4b1" d="m56.8 90.8-7 50.4 39.8-53.9z"/><path fill="#000008" d="m128.3 99 9.4 17.6L99 87.3z"/></g></svg>