<svg xmlns="http://www.w3.org/2000/svg" width="300" height="300"><rect width="100%" height="100%" fill="#a5705d"/><g fill-opacity=".5"><path fill="#00051f" d="m-18.2 10 336.4-28.2-25.8 336.4z"/><path fill="#00243a" d="M-18.2 318.2 3-18.2l315.3 315.3z"/><path fill="#1effff" d="m38 158.8 229.8-4.7-117.2 126.6z"/><path d="M-18.2 300.6h132.5L5.3-18.2zm317.6 17.6 8.2-336.4L156.4-1.8z"/><path fill="#4fffff" d="m133 164.6 75-119.5-103-4.7z"/><path d="M-.6-18.2 318.2 4.1-4.1 68.6zM113 312.3l205.2-3.5-18.8-167.6z"/><path fill="#00c1cb" d="m249 89.6-58.6-22.2 61 145.3z"/><path d="M80.3-18.2-18.2 4.1l29.3 314z"/><path fill="#0dd1e3" d="m160 273.6-112.5-89 8.2-95z"/><path fill="#96877c" d="m158.8 202.1 57.4-128.9-123 38.7z"/><path fill="#000001" d="m1.8 308.8 171-2.4-191-188.6z"/><path d="m153-10 165.2 194.6L310-18.2z"/><path fill="#48d5e6" d="m167 148.2 76.2 45.7-105.5 80.9z"/><path fill="#faffff" d="M161.1 121.3 116.6 85l56.3 80.8z"/><path fill="#13b5c1" d="m46.3 112 56.2-65.7 114.9 3.5z"/><path fill="#000006" d="M26.4-18.2 136.5 87.3-18.2 43.9z"/><path d="m133 154.1 35.2 2.3-16.4 29.3zM284.2-.6-18.2-6.4 93.2 49.8z"/><path fill="#001320" d="m140 135.4-73.8-10.6 36.3 43.4z"/><path d="m215 318.2 103.2-4.7-16.4-331.7z"/><path fill="#00000b" d="m177.5 95.5 54 34-21.1-48z"/><path fill="#21d2e7" d="m151.8 123.6 30.4-83.2-64.4 1.2z"/><path fill="#00485d" d="m61.5 267.8-21-96.1 124.1 116z"/><path d="m209.2 65-25.8 2.4-28.1 34z"/><path fill="#001e2c" d="m229.1 136.5-38.7 31.7-32.8-37.5z"/><path fill="#fffff8" d="m150.6 189.3-16.4-34-23.5 14z"/><path fill="#004659" d="m262 148.2-15.3 111.4-104.3 31.6z"/><path fill="#05b4ba" d="m237.3 79.1-30.5 144.1 50.4-50.3z"/><path fill="#ffffed" d="m81.4 76.8 32.9 3.5 17.5 16.4z"/><path d="M318.2 256 67.4 294.8l214.4 23.5z"/><path fill="#ffffe8" d="m165.8 162.3 20 11.7-32.9 13z"/><path d="m63.9 34.6-82-35.2 41 318.8z"/><path fill="#d9e9e0" d="m164.6 99 65.7-23.4h-38.7z"/><path fill="#f5f9eb" d="m134.2 157.6 48-70.3-39.8 32.8z"/><path fill="#e47a58" d="M133 86.1 122.5 139l-28.2-16.4z"/><path fill="#00bfbd" d="M48.6 121.3 71 178.7 74.4 71z"/><path fill="#4ecee0" d="m184.6 231.4-114.9-75 79.7 129z"/><path d="M299.4-18.2 317 87.3 48.6-.6z"/><path fill="#002f41" d="m251.4 66.2-73.9 16.4 61-65.6z"/><path fill="#006c79" d="m122.5 195.1 30.4 10.6 55.1-32.8z"/><path fill="#000314" d="m104.9 157.6 30.5-39.8V147z"/><path fill="#000d17" d="m73.2 104.9 27-21.1 31.6 21z"/><path fill="#ffb784" d="m192.8 135.4-18.8-4.7 29.3-14.1z"/><path fill="#046c7a" d="m150.6 128.3-16.4-39.8 27 14z"/><path fill="#001c2b" d="m67.4 117.8 29.3-27 8.2 68z"/><path fill="#002632" d="m167 149.4 66.8-39.8-14 46.8z"/><path fill="#000c21" d="m164.6 163.5-16.4-32.8-7 44.5z"/><path d="M-18.2 297V173l126.6 130z"/></g></svg>