<svg xmlns="http://www.w3.org/2000/svg" width="300" height="300" viewBox="0 0 300 300"><path fill="#39c4ce" fill-rule="evenodd" d="M60.4 17.2c-1 3.1-1.7 8.2-1.7 12.3 0 8.8 2.7 14.7 9.5 21.7 2.6 2.7 4.8 5.1 4.8 5.4 0 2-21.1-4.7-28.2-9a20 20 0 0 0-5.8-3 39 39 0 0 0 21 26.7l6.9 3.5-2.6 2.3A66 66 0 0 0 52 96.8c-3.6 9.5-5 18.1-6 38.3a502 502 0 0 1-2.5 30.6 131 131 0 0 0 4 58.8c3 9.2 13.3 30 17.9 36.4 3.9 5.4 11 9 31 16 47 16.3 60.7 16.2 109-.6 18.3-6.4 24.9-9.7 29.1-14.6a162 162 0 0 0 19.4-40.6 112 112 0 0 0 3.7-48.6 893 893 0 0 1-2.6-33c-2-32.7-5.2-44.6-16.2-59.3a27 27 0 0 1-3.6-5.6c.1-.2 2.8-1.6 5.7-3.2a39 39 0 0 0 18-18.8c1.2-3.3 2-6.5 1.9-7.1q-.4-1.3-7.1 2.6c-6.4 3.7-16 7-23.5 8.3l-3.4.6 4.8-5.3c2.6-2.8 5.8-7.6 7.2-10.6 2.1-4.6 2.4-6.3 2-13a74 74 0 0 0-2-12.1l-1.4-4.5-2.9 5.5a102 102 0 0 1-36.4 41.7c-6.4 4.2-14.4 9.9-17.9 12.6a81 81 0 0 0-27.6 46.2c-.6 3.6-.2 3.1 3.3-4a62 62 0 0 1 40.5-34.4c4.5-1.1 31.6-3.4 32.3-2.8.1.2-6.4 2-14.5 4C195 85.2 185.1 90 176 99a40 40 0 0 0-13.7 28.5c-.4 7.1 0 8.9 2.7 16.1 2 5 4.7 10 7.2 12.7 4.5 5.2 13.2 10 21.5 11.8 16.8 3.8 37-8.6 46.3-28.2 4.3-9 7.5-22.3 6.6-27.3q-1-4.3.7-.6a61 61 0 0 1 1.2 15.5c0 10.7-.4 14-2.2 18.7A51 51 0 0 1 226 171c-3.6 1.9-3.6 2-4.2 9.7-.6 8.2-3.6 23.7-6.4 33.5-1.5 5.3-2 5.8-6.7 8-17 7.9-28.7 19.3-46.4 45.4-3.4 5-7.7 10.7-9.5 12.9l-3.3 3.8-6-8.4c-3.4-4.6-9-12.7-12.5-17.9a98 98 0 0 0-39-35.6c-5.2-2.5-6-3.3-7.3-7.3-2.6-8.3-5.6-24-6.3-33.2l-.6-9L74 171c-4-2-10-8.1-14.8-15a54 54 0 0 1-7.2-38l1.3-7.5.7 7c2 23.1 17 43.7 36.1 49.7 7.7 2.3 14 2.3 21.4-.2a35 35 0 0 0 24.5-25.3c4.7-15.1.8-29.7-11.2-42.2-8-8.3-17.6-13.1-37.4-18.5L70 76q-3.6-1.4.5-.5c1.7.3 9.1 1 16.7 1.5 20.5 1.5 31.9 6 43.2 16.8 5.7 5.5 14 17.6 15.7 23 1.6 5.1 3 6.5 2.3 2.2a80 80 0 0 0-22.8-42.6 184 184 0 0 0-20.1-15.6A105 105 0 0 1 64 13.3c0-3-2-.9-3.6 4M111 105a15 15 0 0 0-10 8.7 14.4 14.4 0 0 0 20.3 19c9.6-5.3 10.3-19.4 1.4-25.2A16 16 0 0 0 111 105m73-.2c-3.8.4-10.5 6.6-12 10.8-3 9.4 4.4 19.4 14.6 19.4q7.1 0 12-6.5c2.4-3.1 2.7-4.2 2.3-9.6s-.9-6.4-4-9.5a15 15 0 0 0-13-4.6M110 115c-4.3 4.3-1.4 11 4.8 11 5.7 0 8.2-6.8 3.9-10.8-2.9-2.7-6.1-2.8-8.7-.2m72 0c-4 4-1.7 11 3.8 11 4.9 0 7.9-4 6.2-8.4-1.7-4.6-6.7-6-10-2.6m-36.4 26.6c-1 2.5-3.8 7.2-6.2 10.4a25 25 0 0 0-4.4 7.4c0 3.3 13.2 27.6 15 27.6.9 0 9.1-13.3 12.9-20.7 2.8-5.6 2.7-7.8-1-12.3a65 65 0 0 1-6-10.4c-2.7-5.7-3.4-6.6-5.7-6.6s-3 .8-4.6 4.6m-36.3 35.6c-2.4.5-4.3 1.3-4.3 1.7a126 126 0 0 0 45.3 27c1 0 2.5-.3 3.5-.8l10.2-5.2c13.7-6.7 31.9-19.7 30.5-21.9-.2-.4-2.2-1-4.3-1.4-5-.7-13.7 1.8-29 8.3l-11.7 5-8.3-4a139 139 0 0 0-25.2-9.2c-1.4-.2-4.4 0-6.7.5"/></svg>