<svg xmlns="http://www.w3.org/2000/svg" width="300" height="300"><rect width="100%" height="100%" fill="#a5705d"/><g fill-opacity=".5"><path fill="#00051f" d="M318.2-18.2-18.2 10l310.6 308.2z"/><path fill="#00243a" d="m3-18.2-21.2 336.4L318.2 297z"/><path fill="#1effff" d="m149.4 281.8 116-126.5-226.1 1.1z"/><path d="M122.5 318.2 2.9-18.2l-21 329.3zm182.8-7.1-5.9-329.3-121.9 336.4z"/><path fill="#5ff" d="m130.7 178.7 72.6-133.6-92.6-3.5z"/><path d="m-18.2 3 336.4 72.6-22.3-93.8z"/><path d="M4.1 318.2 89.6-18.2l-107.8 4.7z"/><path fill="#0bd5e3" d="m244.3 85 10.6 98.4-103.1 80.9z"/><path fill="#00c2cf" d="M65 60.4 41.6 179.9l62.1 50.4z"/><path d="m-.6 318.2 295.3-22.3-293-56.3zm314.1-126.6L162.3-5.3 318.2.6z"/><path fill="#74847d" d="M226.8 75.6 68.6 77.9 154 197.5z"/><path d="m184.6-4.1-195.7-14 1.1 154.6z"/><path fill="#06b2c2" d="M189.3 38 77.9 51l179.3 59.7z"/><path fill="#000001" d="m131.8 317 186.4 1.2V108.4z"/><path fill="#fff" d="m157.6 117.8 15.3 51.5-50.4-80.8z"/><path fill="#00303c" d="M224.4 144.7 174 78l69.2-61z"/><path fill="#4cdcf4" d="M176.4 226.8 56.8 148.2l97.3 139.5z"/><path d="m135.4 154.1 30.4 1.2-15.2 31.6z"/><path fill="#fff" d="m189.3 79.1 27-2.3-50.5 21zm-18.8 77.3 24.6 14.1-44.5 16.4z"/><path d="m12.3 22.9-30.5 269.5 99.6 25.8z"/><path fill="#00101f" d="m137.7 144.7-73.8-34 29.3 52.8z"/><path fill="#004257" d="m231.4 274.8 34-99.6-109 89z"/><path fill="#26d7ea" d="m123.6 41.6 50.4-2.3-24.6 87.8z"/><path fill="#00364b" d="M34.6 172.9 141.2 263l-69.1 17.6z"/><path fill="#001828" d="m237.3 140-58.6 22.3-14-30.5z"/><path d="m20.5-1.8 284.8 78.6L318.2-3z"/><path fill="#001624" d="m142.4 96.7-82-46.9 3.5-41z"/><path d="m318.2 10-29.3 308.2-64.5-336.4z"/><path fill="#fffeef" d="m133 160 42.2-64.5-35.2 28.1z"/><path fill="#e07f60" d="m100.2 102.5 2.3 34 58.6-21z"/><path fill="#fffff5" d="m149.4 188-14-22.2-17.6 9.4z"/><path fill="#002836" d="m75.6 78-1.2 67.9 43.4-54z"/><path fill="#fff" d="m133 96.7-25.8-20H78z"/><path d="m140 129.5-11.7-28.1-2.3 51.5z"/><path fill="#00c6c4" d="m81.4 68.6-32.8 50.3L65 168.2z"/><path fill="#00c2c0" d="m223.2 67.4 9.4 106.6 21.1-49.2z"/><path fill="#4dcad9" d="m232.6 165.8-83.2 119.6-35.1-61z"/><path fill="#001e2a" d="m242 21.7-73.8 62 92.5-17.5z"/><path fill="#ef8864" d="m165.8 102.5 20 37.5 22.2-25.7z"/><path fill="#001d29" d="m199.8 169.3 35.2-45.7-33-42.2z"/><path fill="#3ccfdc" d="M143.6 87.3 92 49.8h120.7z"/><path d="m318.2 253.7-25.8 64.5L65 297zM88.5 47.5l154.7-25.8L42.8-18.2zM168.2 85l12.9-2.4-24.7 23.5z"/><path fill="#000419" d="m135.4 164.6 15.2-34 9.4 28.2z"/><path fill="#00121f" d="M126 100.2 99 81.4l-28.1 34z"/><path fill="#006276" d="m151.8 123.6-27-49.2 32.8 34z"/></g></svg>