<svg xmlns="http://www.w3.org/2000/svg" width="300" height="300" viewBox="0 0 300 300"><g stroke-linecap="round"><path fill="rgba(7,40,51,255)" stroke="rgba(7,40,51,255)" d="M300 300H0l96-49 204 49"/><path fill="rgba(7,40,51,255)" stroke="rgba(7,40,51,255)" d="M300 300 96 251l107-3 97 52"/><path fill="rgba(0,0,0,255)" stroke="rgba(0,0,0,255)" d="M0 0h300L131 34 0 0m300 0v300l-86-144L300 0"/><path fill="rgba(7,40,51,255)" stroke="rgba(7,40,51,255)" d="m300 300-97-52 11-92 86 144"/><path fill="rgba(10,43,54,255)" stroke="rgba(10,43,54,255)" d="m96 251 14-153 104 58-118 95"/><path fill="rgba(72,197,210,255)" stroke="rgba(72,197,210,255)" d="m203 248-107 3 118-95-11 92"/><path fill="rgba(54,192,204,255)" stroke="rgba(54,192,204,255)" d="m110 98 21-64 83 122-104-58"/><path fill="rgba(7,40,51,255)" stroke="rgba(7,40,51,255)" d="M131 34 300 0l-86 156-83-122"/><path fill="rgba(0,0,0,255)" stroke="rgba(0,0,0,255)" d="M0 300V0l90 73L0 300"/><path fill="rgba(7,40,51,255)" stroke="rgba(7,40,51,255)" d="M96 251 0 300 90 73l6 178"/><path fill="rgba(7,40,51,255)" stroke="rgba(7,40,51,255)" d="M110 98 96 251 90 73l20 25M0 0l131 34-41 39L0 0"/><path fill="rgba(7,40,51,255)" stroke="rgba(7,40,51,255)" d="m131 34-21 64-20-25 41-39"/></g><rect width="100%" height="100%" fill="#a5705d"/></svg>