<svg xmlns="http://www.w3.org/2000/svg" width="300" height="300"><rect width="100%" height="100%" fill="#a5705d"/><g fill-opacity=".5" transform="translate(.6 .6)scale(1.17188)"><circle cx="83" cy="72" r="254" fill="#000a25"/><circle cx="127" cy="122" r="89" fill="#14d4dd"/><circle cy="74" r="103"/><circle cx="255" cy="73" r="103"/><circle cx="222" cy="244" r="74"/><circle cx="30" cy="255" r="84"/><circle cx="128" cy="179" r="53" fill="#41ccdb"/><circle cx="121" r="39"/><circle cx="143" cy="106" r="69" fill="#4f8b8e"/><circle cx="60" cy="144" r="23" fill="#07dae7"/><circle cx="167" cy="104" r="29" fill="#340e10"/><circle cx="126" cy="55" r="23" fill="#2cf4ff"/><circle cx="90" cy="108" r="28" fill="#371011"/><circle cx="159" cy="101" r="13" fill="#ffbb87"/><circle cx="194" cy="145" r="23" fill="#00ccda"/><circle cx="220" cy="7" r="68"/><circle cx="202" cy="253" r="67" fill="#000004"/><circle cx="51" cy="251" r="67" fill="#000007"/><circle cx="21" cy="10" r="72"/><circle cx="127" cy="137" r="12"/><circle cx="97" cy="101" r="13" fill="#ffba86"/><circle cy="142" r="49"/><circle cx="255" cy="110" r="43"/><circle cx="127" cy="106" r="12" fill="#fffff5"/><circle cx="53" cy="110" r="13" fill="#00dee3"/><circle cx="142" r="35"/><circle cx="248" cy="177" r="43"/><circle cx="128" cy="198" r="27" fill="#40deed"/><circle cx="57" cy="85" r="13" fill="#00c8c9"/><circle cx="92" cy="46" r="7" fill="#4dffff"/></g></svg>