<svg xmlns="http://www.w3.org/2000/svg" width="300" height="300"><rect width="100%" height="100%" fill="#a5705d"/><g fill-opacity=".5"><path fill="#00051f" d="m318.2-18.2-25.8 336.4L-18.2 10z"/><path fill="#00243a" d="m318.2 297-336.4 21.2L3-18.2z"/><path fill="#1effff" d="m150.6 280.7 116-129-229.7 7z"/><path d="M-18.2 313.5 4.1-18.2l117.2 336.4zM156.4-6.4l161.8 2.3-20 322.3z"/><path fill="#54ffff" d="M130.7 175.2 107.2 41.6l97.3 2.3z"/><path d="M-18.2 148.2V-18.2L190.4-6.4zm136 162.9 194.5-7 5.9-181.6z"/><path fill="#00c5d0" d="m250.2 97.9-56.3-48.1 52.8 167.6z"/><path fill="#00bcc9" d="M41.6 172.9 73.2 46.3l15.3 178.1z"/><path d="M311.1 70.9-18.2.6l329.3-18.8z"/><path fill="#948479" d="m219.7 72-62 129L92 112z"/><path d="m167 305.3-185.2 7v-205z"/><path fill="#38d2e8" d="m245.5 190.4-192.2-1.1 98.5 75z"/><path d="m288.9-18.2 29.3 313L222 311z"/><path fill="#15dbf0" d="m158.8 102.5 24.6-62-95 7z"/><path d="M-18.2 11.1 71-18.2 23 318.2z"/><path fill="#effff9" d="m160 115.4-48-35.1 58.5 79.7z"/><path d="m164.6 151.8-29.2 4.6 16.4 29.3z"/><path fill="#001421" d="M67.4 15.8 42.8 51l100.8 43.3z"/><path fill="#fff" d="m74.4 75.6 49.2 15.2-19.9-15.2z"/><path fill="#000517" d="m131.8 153 8.2-31.7-62 34z"/><path fill="#004b60" d="M61.5 264.3 42.8 160 154 285.4z"/><path fill="#001626" d="m164.6 142.4 72.7-25.8-38.7 49.2z"/><path fill="#fcffff" d="m153 187 14-28.2 29.3 11.7z"/><path fill="#00485b" d="M266.6 151.8 240.8 263l-97.2 22.3z"/><path fill="#001422" d="m276 41.6-42.2-21-77.4 75z"/><path fill="#000012" d="m178.7 97.9 56.3 24.6-25.8-38.7z"/><path fill="#fffffb" d="m149.4 188-36.3-16.3 23.4-7z"/><path fill="#04b2b9" d="m236.1 81.4 22.3 92.6-50.4 47z"/><path d="m229.1-18.2 51.6 336.4 37.5-320z"/><path fill="#00222f" d="m81.4 79.1-11.7 59.8 45.7 25.7z"/><path fill="#fff" d="m178.7 85 28.1-9.4-49.2 35.1z"/><path d="m-18.2-13.5 80.9 68L299.4 7.6zm336.4 268.4-29.3 63.3-221.5-22.3z"/><path fill="#08cdd2" d="m54.5 95.5 53.9 100.8-57.4-55z"/><path fill="#fff" d="m140 113 8.2 20-12.8 27z"/><path fill="#007286" d="m130.7 87.3 39.8 3.5-20 30.5z"/><path fill="#f07d57" d="m116.6 140 16.4-39.8-36.3 14z"/><path fill="#37cad6" d="m188 164.6-42 127.8 105.5-157z"/><path fill="#00656f" d="m151.8 206.8-49.3-27 73.9 10.6z"/><path fill="#2fd4e4" d="m167 79.1 41-27L149.4 37z"/><path fill="#00b5b0" d="m47.5 124.8 51.5-41-27-7z"/><path d="m11.1-18.2-29.3 317.6 89.1 5.9zm98.5 105.5 29.3 39.8-7-22.2z"/><path fill="#ffbc87" d="m190.4 136.5 13-16.4-28.2 7z"/><path fill="#001e2c" d="m228 160-62.2-13-3.5-23.4z"/><path fill="#00071c" d="m165.8 167-30.4-7 15.2-25.8z"/><path fill="#002936" d="m53.3 69.7 7-48 72.7 61z"/><path fill="#ffa97a" d="m199.8 108.4 3.5 15.2-28.1-18.7z"/></g></svg>