<svg xmlns="http://www.w3.org/2000/svg" width="300" height="300" viewBox="0 0 300 300"><g stroke-linecap="round"><path fill="rgba(0,0,0,255)" stroke="rgba(0,0,0,255)" d="M300 0v300l-67-154L300 0"/><path fill="rgba(7,40,51,255)" stroke="rgba(7,40,51,255)" d="M300 300 184 163l49-17 67 154"/><path fill="rgba(7,40,51,255)" stroke="rgba(7,40,51,255)" d="m184 163-5-26 54 9-49 17m-5-26L0 0l178 104 1 33"/><path fill="rgba(245,146,115,255)" stroke="rgba(245,146,115,255)" d="m233 146-54-9-1-33 55 42"/><path fill="rgba(0,0,0,255)" stroke="rgba(0,0,0,255)" d="M0 0h300L191 79 0 0"/><path fill="rgba(54,192,204,255)" stroke="rgba(54,192,204,255)" d="M178 104 0 0l191 79-13 25"/><path fill="rgba(0,0,0,255)" stroke="rgba(0,0,0,255)" d="m300 0-67 146-42-67L300 0"/><path fill="rgba(9,41,51,255)" stroke="rgba(9,41,51,255)" d="m233 146-55-42 13-25 42 67"/><path fill="rgba(0,0,0,255)" stroke="rgba(0,0,0,255)" d="M0 300V0l115 269L0 300"/><path fill="rgba(7,40,51,255)" stroke="rgba(7,40,51,255)" d="m0 0 179 137-64 132L0 0"/><path fill="rgba(0,0,0,255)" stroke="rgba(0,0,0,255)" d="M300 300H0l115-31 185 31"/><path fill="rgba(22,57,73,255)" stroke="rgba(22,57,73,255)" d="m184 163 116 137-185-31 69-106"/><path fill="rgba(0,134,143,255)" stroke="rgba(0,134,143,255)" d="m179 137 5 26-69 106 64-132"/></g></svg>