<svg xmlns="http://www.w3.org/2000/svg" width="300" height="300" viewBox="0 0 300 300"><g filter="blur(20px)"><rect width="200%" height="200%" x="-50%" y="-50%" fill="#a5705d"/><g stroke-linecap="round"><path fill="rgba(0,0,0,255)" stroke="rgba(0,0,0,255)" d="M300 300H0l121-25 179 25m0-300v300l-76-146L300 0"/><path fill="rgba(7,40,51,255)" stroke="rgba(7,40,51,255)" d="m300 300-179-25 10-33 169 58"/><path fill="rgba(7,40,51,255)" stroke="rgba(7,40,51,255)" d="m224 154 76 146-169-58 93-88"/><path fill="rgba(22,57,73,255)" stroke="rgba(22,57,73,255)" d="m121 275-35-38 45 5-10 33"/><path fill="rgba(0,0,0,255)" stroke="rgba(0,0,0,255)" d="M0 300V0l51 105L0 300"/><path fill="rgba(0,0,0,255)" stroke="rgba(0,0,0,255)" d="M0 0h300L51 105 0 0"/><path fill="rgba(244,237,222,255)" stroke="rgba(244,237,222,255)" d="m300 0-76 154-173-49L300 0"/><path fill="rgba(227,223,209,255)" stroke="rgba(227,223,209,255)" d="m224 154-93 88-80-137 173 49"/><path fill="rgba(71,195,208,255)" stroke="rgba(71,195,208,255)" d="m131 242-45-5-35-132 80 137"/><path fill="rgba(0,0,0,255)" stroke="rgba(0,0,0,255)" d="M121 275 0 300l63-42 58 17"/><path fill="rgba(7,40,51,255)" stroke="rgba(7,40,51,255)" d="m86 237 35 38-58-17 23-21"/><path fill="rgba(0,0,0,255)" stroke="rgba(0,0,0,255)" d="m0 300 51-195 12 153-63 42"/><path fill="rgba(0,134,143,255)" stroke="rgba(0,134,143,255)" d="m51 105 35 132-23 21-12-153"/></g></g></svg>