<svg xmlns="http://www.w3.org/2000/svg" width="300" height="300"><rect width="100%" height="100%" fill="#a5705d"/><g fill-opacity=".5"><path fill="#00051f" d="m318.2-18.2-25.8 336.4L-18.2 10z"/><path fill="#00243a" d="M-18.2 318.2 3-18.2l315.3 315.3z"/><path fill="#1dffff" d="m37 157.6 114.8 124.2 116-131.2z"/><path d="M122.5 315.8 2.9-18.2l-21 327zm26.9-334 150 336.4 14-320z"/><path fill="#51ffff" d="M133 169.3 205.7 44l-98.5-2.3z"/><path d="m-7.6-4.1 192.2-1.2L-18.2 153zm308.2 143L311 305.3l-191-1.2z"/><path fill="#35989a" d="m244.3 75.6 13 138.3L52 75.6z"/><path fill="#0dcbde" d="m44 179.9 120.6 100.8L58 89.7z"/><path d="M-10 318.2h191L-6.3 122.5zM-18.2 1.8l325.8 68-5.8-88z"/><path fill="#aa7365" d="M150.6 197.5 92 107.2l117.2-2.3z"/><path fill="#1ecedf" d="M134.2 276 249 99l-4.7 95z"/><path d="M318.2 303 292.4-18.3 222 318.2z"/><path fill="#1ee2f8" d="m158.8 101.4 25.8-62.1-91.4 9.3z"/><path fill="#003441" d="m66.2 135.4 191-2.4-107.8 40z"/><path fill="#fff" d="m160 120.1-45.7-36.3L174 167z"/><path d="M19.3 318.2 72.1-18.2l-90.3 29.3z"/><path fill="#fff" d="m136.5 181 9.4-56.2-28.1 50.4zm35.2-31.6-20 38.7 35.2-15.2zm21.1-72.6h27L164.5 99z"/><path fill="#00495e" d="M170.5 299.4 38.1 162.3l27 102z"/><path d="m176.4 73.2-20 30.5 54-45.7z"/><path fill="#52d0e3" d="m109.6 215 114.8-35-77.3 107.8z"/><path fill="#000d1a" d="M67.4 126 99 82.6l3.5 83.2z"/><path fill="#00c4c3" d="M47.5 123.6 79 60.4 67.4 168.2z"/><path d="m291.2 310 27-304.7-95-14zM143.6 102.5 90.8 59.2l32.8 11.7z"/><path fill="#000a18" d="m204.5 168.2 30.5-48-38.7-36.4z"/><path d="m313.5 258.4-66.8 59.8-193.4-25.8z"/><path fill="#fffffa" d="M110.7 78h-27l54 19.9z"/><path fill="#00475b" d="m244.3 263-99.6 27 112.5-137z"/><path fill="#00bdbe" d="m250.2 104.9-32.8-37.5 28.1 117.2z"/><path d="M11.1-18.2-8.8 61.5l310.6-46.9z"/><path fill="#000008" d="m153 190.4-17.6-31.6 17.5-23.4z"/><path fill="#e5f7e9" d="M184.6 86.1 137.7 153l3.5-31.6z"/><path fill="#000001" d="m130.7 101.4-3.6 48 13-20z"/><path fill="#001" d="m163.5 119 44.5 39.8-41-10.6z"/><path fill="#e5805d" d="m130.7 89.6-9.4 49.3-27-16.4z"/><path d="M68.6 318.2 19.3-18.2l-37.5 320z"/><path fill="#000413" d="m97.9 82.6 31.6 20-55 1.1z"/><path fill="#0089a0" d="M158.8 102.5 141.2 98l9.4 34z"/><path fill="#ffa876" d="m198.6 108.4-16.4 27 21.1-10.6z"/><path fill="#003042" d="m246.7 70.9-8.2-48-66.8 58.5z"/><path fill="#002838" d="M136.5 88.5 49.8 60.4 59.2 17z"/><path fill="#31cad9" d="M208 52.1 137.7 37l3.5 58.6z"/><path fill="#58cddd" d="m88.5 224.4 76.1-4.7-89-57.4z"/><path fill="#45c8d3" d="M216.2 217.4v-69.2l-80.8 110.2z"/><path fill="#000313" d="m196.3 85 31.6 18.7-55-1.2z"/></g></svg>