<svg xmlns="http://www.w3.org/2000/svg" width="300" height="300" viewBox="0 0 300 300"><g stroke-linecap="round"><path fill="rgba(0,0,0,255)" stroke="rgba(0,0,0,255)" d="M300 0v300L198 130 300 0"/><path fill="rgba(6,39,50,255)" stroke="rgba(6,39,50,255)" d="M300 300H0l202-72 98 72"/><path fill="rgba(7,40,51,255)" stroke="rgba(7,40,51,255)" d="m198 130 102 170-98-72-4-98"/><path fill="rgba(0,134,143,255)" stroke="rgba(0,134,143,255)" d="m164 183 34-53 4 98-38-45"/><path fill="rgba(0,0,0,255)" stroke="rgba(0,0,0,255)" d="M0 300V0l97 163L0 300"/><path fill="rgba(71,195,208,255)" stroke="rgba(71,195,208,255)" d="m164 183 38 45H81l83-45"/><path fill="rgba(7,40,51,255)" stroke="rgba(7,40,51,255)" d="M202 228 0 300l81-72h121"/><path fill="rgba(7,40,51,255)" stroke="rgba(7,40,51,255)" d="m0 300 97-137-16 65-81 72"/><path fill="rgba(71,195,208,255)" stroke="rgba(71,195,208,255)" d="m97 163 67 20-83 45 16-65"/><path fill="rgba(51,153,204,255)" stroke="rgba(51,153,204,255)" d="M0 0h300L182 120 0 0"/><path fill="rgba(7,113,120,255)" stroke="rgba(7,113,120,255)" d="M300 0 198 130l-16-10L300 0"/><path fill="rgba(7,40,51,255)" stroke="rgba(7,40,51,255)" d="M97 163 0 0l182 120-85 43m101-33-34 53 18-63 16 10"/><path fill="rgba(7,40,51,255)" stroke="rgba(7,40,51,255)" d="m164 183-67-20 85-43-18 63"/></g></svg>