<svg xmlns="http://www.w3.org/2000/svg" width="300" height="300"><rect width="100%" height="100%" fill="#a5705d"/><g fill-opacity=".5" transform="translate(.6 .6)scale(1.17188)"><circle cx="129" cy="122" r="203" fill="#000a25"/><circle cx="128" cy="122" r="89" fill="#14d4dd"/><circle cx="255" cy="73" r="103"/><circle cy="74" r="103"/><circle cx="220" cy="230" r="62"/><circle cx="29" cy="237" r="70"/><circle cx="129" cy="181" r="52" fill="#3fcad9"/><circle cx="121" r="39"/><circle cx="60" cy="143" r="23" fill="#07dae7"/><circle cx="129" cy="108" r="44" fill="#8f6f67"/><circle cx="195" cy="143" r="23" fill="#06d8e5"/><circle cx="119" cy="61" r="28" fill="#37dbec"/><circle cx="182" cy="235" r="41" fill="#00030e"/><circle cx="57" cy="240" r="55" fill="#000008"/><circle cx="165" r="39"/><circle cx="16" cy="4" r="79"/><circle cx="255" cy="45" r="61"/><circle cx="255" cy="200" r="62"/><circle cx="127" cy="137" r="12"/><circle cy="127" r="45"/><circle cx="128" cy="107" r="11" fill="#fcffff"/><circle cx="53" cy="109" r="13" fill="#00dce0"/><circle cx="97" cy="103" r="13" fill="#ff9364"/><circle cx="158" cy="47" r="10" fill="#42ffff"/><circle cx="166" cy="108" r="28" fill="#281e22"/><circle cx="159" cy="101" r="13" fill="#ffba88"/><circle cx="203" cy="109" r="13" fill="#00dade"/><circle cx="128" cy="198" r="27" fill="#41deee"/><circle cx="99" cy="125" r="13" fill="#000919"/><circle cx="246" cy="110" r="34"/></g></svg>