<svg xmlns="http://www.w3.org/2000/svg" width="300" height="300" viewBox="0 0 300 300"><rect width="100%" height="100%" fill="#263c40"/><path fill="#f39373" fill-opacity=".1" fill-rule="evenodd" d="M61.1 13.3a39 39 0 0 0-.2 29c1.2 2.4 4.2 6.5 6.8 9l4.6 4.8-4.4-.7C61 54.4 50.6 50.5 45 47a45 45 0 0 0-5.5-3.1c-1 0-.5 3.8 1.2 8.6a45 45 0 0 0 24.1 22 43 43 0 0 1-4.5 6.5c-10 13.3-13 23.1-14.4 48.4-.5 9.9-1.9 25.7-3 35a136 136 0 0 0-.4 42.4 122 122 0 0 0 13.2 38.1c9 18 12.8 22 27.3 27.7 12.8 5 29 10.3 43 14a100 100 0 0 0 46 .5c14.7-4 45.2-14.2 52.7-17.8 8.6-4 12.5-8.7 19.8-23.3 13.5-27 16.9-47.9 13-80.9-.8-7-1.9-21-2.4-31.2-1.5-26.4-5.6-40.6-15.7-53.9a29 29 0 0 1-3.4-5c0-.3 2.4-1.8 5.3-3.4 6.1-3.2 14-10.4 16.3-15 2.5-4.7 4.5-12.7 3.2-12.7a24 24 0 0 0-5.8 2.9 80 80 0 0 1-22.3 8.4l-3.7.6 3.9-4.7c7.6-9.2 10-17 8.2-26.6-1.5-8.2-3-13.6-3.9-13.5-.4 0-2.3 3.2-4.2 7a101 101 0 0 1-18.4 26.6l-7.2 7.7-7-2.8A150 150 0 0 0 149.7 39c-15.2 0-37.5 5-50 11l-5.9 3-7.2-7.3a111 111 0 0 1-20.1-28.4 21 21 0 0 0-3.8-6.3q-.7.2-1.6 2.3m17.7 64.4q1.2.4 2-.1.4-.5-1.4-.5t-.6.6m5 0q1.2.4 2-.1.4-.5-1.4-.5t-.6.6m134.5 0c1 .2 2.3.2 3 0q.8-.5-1.8-.5t-1.2.5m-13.5 1q1.2.4 2-.1.3-.5-1.4-.5t-.6.6"/><path fill="#f39373" fill-opacity=".3" fill-rule="evenodd" d="M60.3 16.8a50 50 0 0 0-1.7 12.7c0 8.8 2.4 14.5 9.4 21.9l5 5.4-6.3-1.4a70 70 0 0 1-22.6-8.6c-2.4-1.6-4.6-2.7-4.9-2.4-1 1 2.1 9.7 5 14a49 49 0 0 0 21.7 16.3 27 27 0 0 1-4.3 5.3C51.4 91.5 47.4 104.8 46 132.5c-.6 10.4-1.7 24.6-2.7 31.5a183 183 0 0 0-.4 44.5c2.3 11.3 6.5 23 13.3 36.6C65 262.7 68 266 79.5 271s34 12.3 48 15.7a90 90 0 0 0 46.5-.4 389 389 0 0 0 50.5-17.2c9-4.3 11.4-6.9 18.7-21a125 125 0 0 0 14.4-79.5 792 792 0 0 1-2.6-32c-1.2-20.4-2.2-26.8-5.4-36.2a68 68 0 0 0-11.4-21.1 17 17 0 0 1-3-4.6l5-2.5a41 41 0 0 0 18-17.6c2.4-5.2 3.7-10.5 2.4-10.5l-6.2 3.5a74 74 0 0 1-24 8.5c-2.6 0-2.5-.2 2-5a26 26 0 0 0 8.3-23c-.5-8.4-2.1-16-3.5-16-.4 0-2 2.8-3.7 6.2A119 119 0 0 1 213.7 46l-6.8 7-4.7-2a133 133 0 0 0-71.9-9.4 124 124 0 0 0-30.6 9.1c-5.8 3-6.2 2.8-14.8-6.3-7.1-7.6-14-17.4-18.8-27a34 34 0 0 0-3.6-6.3 28 28 0 0 0-2.2 5.8M84 79.5c6.9 1.9 15.2 4.4 18.5 5.6 19.7 7.2 32.7 21.4 35.8 39.3 1 5.7.9 7.7-.7 13.9-3.7 14.5-9.7 22.2-21.7 27.7q-4.3 1.9-2.3 2c3 0 17.5-7.3 20.8-10.6 8.3-8.4 13.6-18.9 13.6-27 0-19-16.5-40.7-36.8-48.6-6.5-2.5-16.7-4.1-32.2-5.2l-7.5-.5zm119.7-1.4A56 56 0 0 0 167.8 97c-4.8 5-8.1 9.7-10.7 15-3.4 7.2-3.6 8.2-3.6 17.6 0 9.7.1 10.2 3.7 16.5 5 8.9 9.5 13.3 18 17.4 9.2 4.4 15.8 6 8.3 2a34 34 0 0 1-19.1-22 41 41 0 0 1 4.2-36.6 69 69 0 0 1 22.6-19.2c6-2.8 18.5-6.8 31.3-9.9 3.5-.8-11.7-.5-18.8.4m-72.3 88a44 44 0 0 1-9.8 7c-3.2 1.5-5.2 3-4.5 3.3 12.8 4 18.7 6.3 24.9 9.4l7.5 3.8 7.2-3.3c9.6-4.4 23-9.3 25.4-9.3 3 0 2.3-1.6-1.3-3.1-1.8-.7-6-3.5-9.5-6l-6.3-5-1.6 3.2A205 205 0 0 1 150 188a157 157 0 0 1-12.8-21.7l-1.9-4.2z"/><path fill="#f39373" fill-opacity=".2" fill-rule="evenodd" d="M60.5 17.2C59.7 20 59 25.7 59 29.7 59 39 61.8 45 69.3 52.3l5.2 5-4.5-.8a86 86 0 0 1-25.2-8.9 21 21 0 0 0-5.8-2.9l1.8 6.2A39 39 0 0 0 60 71.4l6.9 3.4-2.6 2.3A66 66 0 0 0 52 96.8c-3.6 9.4-4.9 17.7-6 38.5-.6 10.9-1.7 24.8-2.5 31-3 22-1.6 41.7 4 58.2 3 9 12 27.3 17.3 35.3 4.5 6.9 11 10.2 36.5 18.7 26.6 8.9 36.8 10.8 52.7 10.2 13.8-.6 21.7-2.4 49.5-11.9 28.7-9.7 30.7-11.3 41-32.3 12.7-26 16.1-44.8 13.1-72.5-.9-8-2-22.6-2.6-32.5-2-32.7-5.7-46-16.9-60.2-4-5-4-5.1-1.7-5.7A54 54 0 0 0 254 61c3-3.7 7.4-14.3 6.8-16-.2-.4-3.4 1-7.1 3.1-6.4 3.7-16 7-23.5 8.3l-3.4.6 4.8-5.3c2.6-2.8 5.8-7.6 7.2-10.6 2.2-4.7 2.4-6.2 1.9-13-.3-4.2-1.2-9.6-2-12.1l-1.4-4.5-2.8 5.5a101 101 0 0 1-36.4 41.7C182 69.3 174 76 167.7 84.3a75 75 0 0 0-13.8 27.5c-2.7 10.6-2.4 10.8 2 1.7a61 61 0 0 1 40.5-34.4 226 226 0 0 1 32.3-2.7c.3.2-2.2 1-5.4 1.6-10.5 2.2-28.7 8-34.8 11.3a60 60 0 0 0-22.6 23.2 27 27 0 0 0-3.4 16c0 16.4 7.2 29.3 19.8 35.5 16.4 8 32.7 5 46.3-8.7a60 60 0 0 0 17.5-39.7c0-6 .2-6.6 1-4.1a80 80 0 0 1 1.6 12.7 49 49 0 0 1-22 46.7c-4.4 3-4.4 3-5 10.3-.8 8.7-4.1 26.3-6.4 33.3-1.5 4.9-1.8 5.1-11.4 10.4-15.7 8.5-23.3 16.3-41.6 42.6-5 7.1-10 13.8-11 14.8-2 1.7-2.2 1.6-7-5l-12.4-17.7a98 98 0 0 0-38.5-36.3l-7.4-3.8-2-6.5c-2.5-8.5-6-27-6-32.3 0-6.4-1-8.4-4.1-9.8a59 59 0 0 1-17.3-19.5 53 53 0 0 1-5.2-27.5c.7-10.5 2.4-16.2 2.5-8.4a64 64 0 0 0 16.8 38.6c7.5 8 15.4 12.4 25 14 6 1 7.7 1 13.7-.6a35 35 0 0 0 26.7-26 41 41 0 0 0-11.8-42.6c-9.8-9.4-16.8-12.6-42.3-19.4-12.4-3.3-18.5-5.5-11.5-4.1 1.7.3 9.2 1 16.7 1.6 7.8.6 16.4 1.9 20 3a65 65 0 0 1 38.4 35.7q4 10 2.8 3.2A85 85 0 0 0 126.1 77c-3.7-3.6-13.1-11-21.1-16.5-20-13.7-29.7-24.3-38.5-42.3a24 24 0 0 0-3.7-6.1c-.4 0-1.4 2.2-2.3 5m47.5 89.1c-11 5.6-12 20.5-1.8 26.9a17 17 0 0 0 16.5-.9c9-6.4 8-20.6-1.7-25.7-5-2.6-8.3-2.6-13-.3m74.4-1.1c-4.2 1.2-10.1 7.9-11 12.4a17 17 0 0 0 5.8 14.6 18 18 0 0 0 14.8 2 21 21 0 0 0 6.1-4.9c3-3.3 3-4 2.7-9.8-.3-5.6-.8-6.8-3.8-9.9-1.9-2-5-4-7-4.5-4-1.1-3.5-1.1-7.6 0m-71.8 10c-4.8 3.9-2.3 11 3.9 11s8.5-6.1 4-10.5c-3-3-4.5-3.1-7.9-.4m71.4-.1c-4 4-1.4 11 4.2 11s8-8.3 3.6-11.4q-4.4-3.2-7.8.4m-36.4 26.6c-1 2.5-3.8 7.2-6.2 10.5a30 30 0 0 0-4.4 7.2c0 3.3 13.2 27.7 15 27.7.9 0 9.1-13.3 12.9-20.7 2.8-5.6 2.7-7.8-.8-12.2a58 58 0 0 1-8.4-15q-.4-2.2-3.4-2.1c-2.4 0-3 .7-4.7 4.6m-36.3 35.6c-2.4.5-4.3 1.2-4.2 1.6 0 1 9.7 8.4 17.8 13.7A147 147 0 0 0 150 206a148 148 0 0 0 41-23.7l4.5-4-4-1.2c-5.9-1.6-13.4.4-31.9 8.6l-9.8 4.4-4.7-2.2a146 146 0 0 0-22.7-9.3c-8.5-2.5-8.5-2.5-13.2-1.4"/><path fill="#f39373" fill-opacity=".7" fill-rule="evenodd" d="M60.6 17.8c-3.7 13.3-1.5 23 7.5 32.7 3.3 3.4 5.9 6.5 5.9 6.8a72 72 0 0 1-30-9.8c-4.5-2.9-4.8-2.3-2.4 4.7a34 34 0 0 0 13.6 16c8.3 5.5 12.9 6.8 27.1 7.8 23 1.8 34.3 5.5 45.7 15 5.6 4.7 14 15.6 17 22l2 4.5-.6-4c-2.3-15.2-17.7-36.5-35-48C85.7 48.2 79.8 42.2 68 21.8L62.3 12zm174-.5-5.3 9.5Q218.5 46.2 194 62.2A194 194 0 0 0 177.7 74a85 85 0 0 0-22 33.5q-4.6 14.8 1 3.7A75 75 0 0 1 179.2 86c9.1-6 16.6-8 36.1-9.5 16.6-1.4 20.4-1.4 15.1 0-2.5.5-2.5.6 3.6 7.7a63 63 0 0 1 15.2 43.3 45 45 0 0 1-12.5 35c-6 6.7-6 6.7 8-2.8l10.2-7v-5.1c0-10.9-2.1-32.5-4-40.3q-3.6-15-12.4-26.8l-4.4-6 6.1-3.2c7-3.8 14-10.2 16.7-15.3 1.7-3.4 4.2-11 3.5-11l-7.8 4c-6.7 3.6-20.3 8-24.8 8-1.4 0-.7-1.2 2.7-4.7 9.4-9.6 12-19.8 8.6-32.8l-1.8-7zM62.5 79.8C51 93.7 47.6 105.4 46.5 134a281 281 0 0 1-1 17.6q-.5 2.2 1.3 2.7c1 .3 6.1 3.5 11.5 7.2l9.8 6.5-5-6c-10-12-12.6-20.2-11.8-37.4.7-17.5 5-28.7 15.6-41.2q5.1-5.8 3.8-6.6-3.8-2.4-8.2 3m32 7.1a46 46 0 0 0-18.7 18.9 30 30 0 0 0-3.6 15.7c-.5 12.2 2 18.8 9.7 26.6 7 7 14 9.9 24.1 9.9 16 0 28.4-9 31.2-22.3 3.7-17.4-8-37.2-27.3-46.6a53 53 0 0 0-10-4c-.8 0-3.2.8-5.4 1.8m98.4.7c-21.2 9.8-33 28.6-30 47.5a23 23 0 0 0 10.9 17c7 4.5 14.2 6.2 23.1 5.7a32 32 0 0 0 28-18c9-18.4 1.3-41.5-17-50.9-7.5-3.8-9.2-4-15-1.3m-85.8 18.6c-12.4 8.5-10.8 24.8 2.7 28.9q8.7 2.5 15.5-5c4.3-4.8 5.4-9.5 3.6-15.2-3-9.1-14.5-13.7-21.8-8.7m71.8 0a26 26 0 0 0-5.7 5.8c-2 3-2.3 4.4-2 9.4.4 5.3.8 6.2 4.5 9.6a15.2 15.2 0 0 0 23.3-2c3.6-5 3.4-13.2-.4-18.2-5.3-7-13.4-8.7-19.8-4.4m-68.7 8.9c-3 3-.2 10.8 4 10.8 4.8 0 7.7-7 4.2-10.4-1.8-1.9-6.5-2.1-8.2-.4m71.2 1.3c-3.4 5.2 1.5 11.2 7 8.7S192 114 186 114a5 5 0 0 0-4.6 2.5m-35.7 25.8c-1 2.3-3.5 6.6-5.7 9.5s-4 6.3-4 7.9c0 3.6 13.2 28.6 14.4 27.2l7.2-11.8c8-13.4 8.3-15.6 3.3-22.1a64 64 0 0 1-5.8-9.8c-2-4.3-2.9-5.2-5-5.2s-3 .8-4.4 4.3M43.2 172c-1.6 15-1.5 22.3.3 34 2 13 9.3 34.4 12.5 36.4q1 .6.5 1.5a1 1 0 0 0 .3 1.4c.5.3 2.3 3.4 4 7a31 31 0 0 0 18.7 17.5l9.5 4c.9.5 3.1 1.2 5 1.6 2 .4 4.1 1.2 4.9 1.9q1.4 1 2 1t1.6.2c8.2 3 22.1 6.8 31 8.5 19.2 3.7 30.7 2.2 62-8 30.2-10 35-12.3 40-19.3 5.3-7.3 13.3-24 17-35.2 4.6-14.3 5.9-24.6 5.3-42.4-.7-17.6-1.8-21.3-3.7-12a58 58 0 0 1-32 39.2q-5 2.6-6.2 5.4c-2 5-2.4 5.4-9 9-17 9.2-26 18-43.2 42.6-6.2 8.8-12 16.4-12.9 17-2.1 1.3-2.8.4-16-18.9-13.5-19.9-25.4-31.8-39.3-39.5-8.4-4.7-10-6-11-9q-1.2-3.4-4-5a64 64 0 0 1-27.2-22.8 49 49 0 0 1-7.7-20.7l-1.2-7z"/></svg>