<svg xmlns="http://www.w3.org/2000/svg" width="300" height="300"><rect width="100%" height="100%" fill="#a5705d"/><g fill-opacity=".5" transform="translate(.6 .6)scale(1.17)"><circle cx="93" cy="121" r="212" fill="#000a25"/><circle cx="128" cy="123" r="90" fill="#12d2db"/><circle cx="255" cy="73" r="103"/><circle cy="71" r="103"/><circle cx="27" cy="244" r="77"/><circle cx="222" cy="239" r="70"/><circle cx="126" cy="180" r="53" fill="#41c9d8"/><circle cx="133" r="39"/><circle cx="147" cy="106" r="65" fill="#578d8e"/><circle cx="59" cy="142" r="22" fill="#06dae7"/><circle cx="166" cy="107" r="28" fill="#2e0709"/><circle cx="158" cy="102" r="13" fill="#ffc08c"/><circle cx="129" cy="55" r="23" fill="#2cf4ff"/><circle cx="62" cy="244" r="54" fill="#000008"/><circle cx="192" cy="146" r="24" fill="#00cbd9"/><circle cx="255" cy="210" r="69"/><circle cx="41" cy="9" r="61"/><circle cx="225" cy="19" r="61"/><circle cx="89" cy="107" r="28" fill="#391315"/><circle cx="98" cy="104" r="14" fill="#ff9e75"/><circle cx="128" cy="137" r="12"/><circle cx="176" cy="238" r="39" fill="#000e19"/><circle cy="186" r="55"/><circle cy="99" r="44"/><circle cx="52" cy="108" r="14" fill="#00d4d9"/><circle cx="127" cy="107" r="11" fill="#fff"/><circle cx="255" cy="110" r="43"/><circle cx="96" cy="47" r="10" fill="#42ffff"/><circle cx="128" cy="200" r="26" fill="#43e1f0"/><circle cx="115" r="35"/></g></svg>