<svg xmlns="http://www.w3.org/2000/svg" width="300" height="300" viewBox="0 0 300 300"><g stroke-linecap="round"><path fill="rgba(0,0,0,255)" stroke="rgba(0,0,0,255)" d="M0 300V0l61 162L0 300"/><path fill="rgba(54,192,204,255)" stroke="rgba(54,192,204,255)" d="M300 300H0l162-113 138 113M0 0h300L168 128 0 0"/><path fill="rgba(8,41,57,255)" stroke="rgba(8,41,57,255)" d="M300 0v300L168 128 300 0"/><path fill="rgba(54,192,204,255)" stroke="rgba(54,192,204,255)" d="M300 300 162 187l6-59 132 172"/><path fill="rgba(6,40,51,255)" stroke="rgba(6,40,51,255)" d="m0 300 61-138 12 10L0 300"/><path fill="rgba(54,192,204,255)" stroke="rgba(54,192,204,255)" d="m61 162 21-2-9 12-12-10"/><path fill="rgba(54,192,204,255)" stroke="rgba(54,192,204,255)" d="m82 160 80 27-89-15 9-12"/><path fill="rgba(7,40,51,255)" stroke="rgba(7,40,51,255)" d="M162 187 0 300l73-128 89 15"/><path fill="rgba(0,162,161,255)" stroke="rgba(0,162,161,255)" d="m82 160-21 2 29-34-8 32"/><path fill="rgba(0,0,0,255)" stroke="rgba(0,0,0,255)" d="M61 162 0 0l90 128-29 34"/><path fill="rgba(7,113,120,255)" stroke="rgba(7,113,120,255)" d="m0 0 168 128H90L0 0"/><path fill="rgba(1,146,147,255)" stroke="rgba(1,146,147,255)" d="m162 187-80-27 8-32 72 59"/><path fill="rgba(231,226,212,255)" stroke="rgba(231,226,212,255)" d="m168 128-6 59-72-59h78"/></g></svg>