<svg xmlns="http://www.w3.org/2000/svg" width="300" height="300"><rect width="100%" height="100%" fill="#a5705d"/><g fill-opacity=".5" transform="translate(.6 .6)scale(1.17188)"><circle cx="96" cy="99" r="228" fill="#000a25"/><circle cx="128" cy="122" r="89" fill="#14d4dd"/><circle cx="255" cy="73" r="103"/><circle cy="74" r="103"/><circle cx="221" cy="249" r="77"/><circle cx="27" cy="255" r="86"/><circle cx="127" cy="183" r="52" fill="#3fcada"/><circle cx="121" r="39"/><circle cx="129" cy="118" r="87" fill="#3fa0a6"/><circle cx="90" cy="106" r="29" fill="#3e0303"/><circle cx="166" cy="107" r="28" fill="#390000"/><circle cx="127" cy="138" r="13"/><circle cx="219" cy="8" r="67"/><circle cx="48" cy="250" r="68" fill="#000005"/><circle cx="222" cy="231" r="64" fill="#000003"/><circle cx="31" cy="21" r="59"/><circle cx="97" cy="101" r="13" fill="#ffbb87"/><circle cx="159" cy="102" r="13" fill="#ffc08b"/><circle cx="127" cy="106" r="12" fill="#fffdec"/><circle cx="250" cy="113" r="39"/><circle cx="60" cy="144" r="23" fill="#00beca"/><circle cy="125" r="45"/><circle cx="128" cy="55" r="22" fill="#33ecfe"/><circle cx="140" r="35"/><circle cx="128" cy="198" r="27" fill="#3fe1f0"/><circle cx="196" cy="144" r="22" fill="#00bcc8"/><circle cx="162" cy="249" r="33" fill="#000c15"/><circle cx="113" cy="148" r="8" fill="#ffffef"/><circle cx="146" cy="145" r="9" fill="#ffffef"/><circle cx="90" cy="4" r="35"/></g></svg>