<svg xmlns="http://www.w3.org/2000/svg" width="300" height="300" viewBox="0 0 300 300"><g filter="blur(12px)"><rect width="200%" height="200%" x="-50%" y="-50%" fill="#a5705d"/><g stroke-linecap="round"><path fill="rgba(0,0,0,255)" stroke="rgba(0,0,0,255)" d="M0 0h300L178 38 0 0m300 0v300L182 92 300 0"/><path fill="rgba(7,40,50,255)" stroke="rgba(7,40,50,255)" d="M178 38 300 0 182 92l-4-54"/><path fill="rgba(52,191,202,255)" stroke="rgba(52,191,202,255)" d="m0 0 178 38 4 54L0 0"/><path fill="rgba(71,195,208,255)" stroke="rgba(71,195,208,255)" d="m182 92 118 208-159-115 41-93"/><path fill="rgba(54,192,204,255)" stroke="rgba(54,192,204,255)" d="m300 300-189-79 30-36 159 115"/><path fill="rgba(7,40,51,255)" stroke="rgba(7,40,51,255)" d="m0 0 182 92-41 93L0 0"/><path fill="rgba(7,40,51,255)" stroke="rgba(7,40,51,255)" d="M111 221 0 0l141 185-30 36"/><path fill="rgba(0,0,0,255)" stroke="rgba(0,0,0,255)" d="M300 300H0l87-36 213 36"/><path fill="rgba(55,196,208,255)" stroke="rgba(55,196,208,255)" d="m111 221 189 79-213-36 24-43"/><path fill="rgba(0,0,0,255)" stroke="rgba(0,0,0,255)" d="M0 300V0l109 223L0 300"/><path fill="rgba(0,162,161,255)" stroke="rgba(0,162,161,255)" d="m0 0 111 221-2 2L0 0"/><path fill="rgba(22,57,73,255)" stroke="rgba(22,57,73,255)" d="m111 221-24 43 22-41 2-2"/><path fill="rgba(0,0,0,255)" stroke="rgba(0,0,0,255)" d="M87 264 0 300l109-77-22 41"/></g></g></svg>