<svg xmlns="http://www.w3.org/2000/svg" width="300" height="300"><rect width="100%" height="100%" fill="#a5705d"/><g fill-opacity=".5" transform="translate(.6 .6)scale(1.17188)"><circle cx="174" cy="82" r="254" fill="#000a25"/><circle cx="129" cy="122" r="89" fill="#14d4dd"/><circle cx="255" cy="73" r="103"/><circle cy="74" r="103"/><circle cx="223" cy="236" r="68"/><circle cx="28" cy="242" r="75"/><circle cx="128" cy="197" r="33" fill="#35efff"/><circle cx="121" r="39"/><circle cx="61" cy="143" r="24" fill="#07d7e4"/><circle cx="150" cy="108" r="63" fill="#599294"/><circle cx="167" cy="105" r="29" fill="#2b080a"/><circle cx="126" cy="55" r="23" fill="#2df2ff"/><circle cx="164" cy="1" r="38"/><circle cx="159" cy="100" r="13" fill="#ffb483"/><circle cx="89" cy="106" r="28" fill="#3d1516"/><circle cx="255" cy="214" r="70"/><circle cy="209" r="67"/><circle cx="193" cy="147" r="24" fill="#00c8d6"/><circle cx="31" cy="18" r="59"/><circle cx="251" cy="51" r="55"/><circle cx="97" cy="167" r="30" fill="#51dbe7"/><circle cx="95" cy="103" r="13" fill="#ffad7f"/><circle cx="128" cy="136" r="12"/><circle cx="158" cy="166" r="30" fill="#4dd9e5"/><circle cx="167" cy="243" r="34" fill="#000d18"/><circle cx="8" cy="110" r="36"/><circle cx="53" cy="108" r="14" fill="#00d4d9"/><circle cx="77" cy="238" r="40" fill="#001722"/><circle cx="129" cy="106" r="12" fill="#fffdee"/><circle cx="96" cy="47" r="10" fill="#3effff"/></g></svg>