<svg xmlns="http://www.w3.org/2000/svg" width="300" height="300"><rect width="100%" height="100%" fill="#a5705d"/><g fill-opacity=".5" transform="translate(.6 .6)scale(1.17)"><circle cx="161" cy="191" r="255" fill="#000a25"/><circle cx="128" cy="122" r="89" fill="#14d4dd"/><circle cx="255" cy="73" r="103"/><circle cy="74" r="103"/><circle cx="222" cy="244" r="74"/><circle cx="32" cy="242" r="73"/><circle cx="130" cy="177" r="53" fill="#42ccda"/><circle cx="121" r="39"/><circle cx="128" cy="107" r="44" fill="#8e6e65"/><circle cx="60" cy="143" r="23" fill="#07dae7"/><circle cx="196" cy="141" r="22" fill="#06dbe8"/><circle cx="127" cy="55" r="23" fill="#2ef9ff"/><circle cy="205" r="65"/><circle cx="214" cy="10" r="61"/><circle cx="207" cy="254" r="71" fill="#000003"/><circle cx="23" cy="17" r="65"/><circle cx="128" cy="137" r="12"/><circle cx="255" cy="128" r="46"/><circle cx="158" cy="102" r="13" fill="#ff9868"/><circle cx="81" cy="235" r="35" fill="#001521"/><circle cx="127" cy="108" r="11" fill="#fbffff"/><circle cx="159" cy="48" r="11" fill="#3efeff"/><circle cx="2" cy="105" r="41"/><circle cx="52" cy="109" r="13" fill="#00dde2"/><circle cx="127" cy="218" r="18" fill="#26e5f5"/><circle cx="98" cy="102" r="13" fill="#ff9163"/><circle cx="204" cy="109" r="12" fill="#00e8ec"/><circle cx="140" r="35"/><circle cx="157" cy="126" r="13" fill="#000918"/><circle cx="96" cy="47" r="10" fill="#3effff"/></g></svg>