<svg xmlns="http://www.w3.org/2000/svg" width="300" height="300"><rect width="100%" height="100%" fill="#a5705d"/><g fill-opacity=".5"><path fill="#00051f" d="m292.4 318.2 25.8-336.4L-18.2 10z"/><path fill="#00243a" d="M-18.2 318.2 3-18.2l315.3 315.3z"/><path fill="#1fffff" d="m39.3 157.6 226.1-4.7-116 127.8z"/><path d="m-18.2 312.3 132.5-14L4-18.3zM318.2-18.2l-20 336.4L151.8-18.2z"/><path fill="#50ffff" d="m133 169.3-25.8-130L208 45z"/><path d="m6.4-18.2-24.6 90.3L318.2 4zM318.2 310 126 305.3l175.8-167.6z"/><path fill="#00cad6" d="m235 54.5-41 177 65.6-51.6z"/><path d="m-18.2 1.8 34 316.4 57.4-320z"/><path fill="#00c6d3" d="M41.6 177.5 99 228 67.4 64z"/><path fill="#8f857a" d="m229.1 69.7-71.5 121.9-68-79.7z"/><path fill="#000001" d="M-3 318.2h185.2l-198-201.6z"/><path d="m299.4-18.2 3.5 163L133-10z"/><path fill="#46cfe2" d="m157.6 274.8 89-128.9-167.5 58.6z"/><path fill="#f4fff8" d="m160 117.8-49.3-37.5 61 82z"/><path fill="#10cbe1" d="m115.4 40.4 71.5 1.2-36.3 86.7z"/><path d="M-18.2-5.3 188.1-11 10 123.6zm184 161.7-27-5.8 10.6 38.7zM297-18.2l-73.8 322.3 95-4.7z"/><path fill="#004958" d="m239.6 22.9-73.8 62 57.4 42.2z"/><path fill="#001927" d="m203.3 171.7-39.8-32.8 66.8-14.1z"/><path fill="#004d56" d="m123.6 73.2-48 84.4-12.9-136z"/><path fill="#fff" d="m131.8 94.3-55-17.5 30.4 1.1zm31.7 8.2 53.9-27-35.2 7.1z"/><path fill="#00000d" d="m135.4 148.2 3.5-31.6-47 46.9z"/><path fill="#004459" d="m69.7 273.6 71.5-10.5-106.6-90.2z"/><path fill="#fffff7" d="m119 174 34 15.3-18.8-27z"/><path fill="#ffffef" d="m174 155.3-24.6 31.6 35.2-11.7z"/><path d="m264.3 318.2 53.9-63.3-259 43.3zM124.8 70.9l22.3 37.5-45.7-44.5z"/><path fill="#003f53" d="m238.5 265.4 30.4-100.8L133 292.4z"/><path fill="#04c6c5" d="m250.2 106-4.7 61-34-98.4z"/><path fill="#35d4e2" d="M90.8 47.5 208 52l-58.6 40z"/><path fill="#00c4c2" d="M56.8 163.5 51 104.9l36.3-31.7z"/><path fill="#001b2a" d="m68.6 102.5 62 51.6-46.8 3.5z"/><path d="M194-18.2-5.4 8.8l246.1 44.5z"/><path fill="#e77c59" d="M94.3 117.8 119 140l17.6-46.8z"/><path fill="#f6f7e9" d="m141.2 121.3-9.4 41L174 99z"/><path d="m67.4 318.2-85.6-27L21.7-18.2z"/><path fill="#005d66" d="m178.7 190.4-30.5 15.3-41-25.8z"/><path fill="#000001" d="m218.6 58-62.2 43.4 24.7-31.7z"/><path d="m108.4 88.5 30.5 36.3L127 99zM233.8-18.2l39.8 313L318.2 7.5z"/><path fill="#000a1f" d="m135.4 161.1 26.9 8.2-10.5-38.6z"/><path fill="#30c6d3" d="m122.5 175.2-27 49.2-44.5-95z"/><path fill="#ffaa7a" d="m188 137.7 13-14-31.7-1.2z"/><path fill="#000917" d="m196.3 85-21.1 12.9 57.4 23.4z"/><path fill="#001325" d="m169.3 108.4 11.8 51.6-20-24.6z"/><path fill="#ffa073" d="m172.9 110.7 19.9-9.3 10.5 21z"/></g></svg>