<svg xmlns="http://www.w3.org/2000/svg" width="300" height="300"><rect width="100%" height="100%" fill="#a5705d"/><g fill-opacity=".5"><path fill="#00051f" d="m-18.2 10 310.6 308.2 25.8-336.4z"/><path fill="#00243a" d="M318.2 297 2.9-18.1l-21 336.4z"/><path fill="#1cffff" d="m35.7 155.3 113.7 126.5L269 156.4z"/><path d="M121.3 318.2 5.3-18.2l-23.5 332.8zM318.2-.6l-20 318.8L149.4-18.2z"/><path fill="#51ffff" d="M134.2 170.5 106 41.6l99.6 2.3z"/><path d="M-18.2 153-1.8-1.9l201.6-16.4zm336.4-23.5v186.3l-220.3 2.4z"/><path fill="#00cfd9" d="m202.1 65 43.4 152.4 5.9-120.7z"/><path fill="#00c3d1" d="M97.9 224.4 66.2 56.8l-23.4 123z"/><path d="m-8.8 315.8 200.4 2.4-200.4-197zm327-240.2v-90.2L-8.8.6z"/><path fill="#93857b" d="m154.1 201 71.5-131.3-131.3 41z"/><path fill="#3dd1e4" d="M253.7 128.3 94.3 212.7l61 71.5z"/><path d="M318.2 297 292.4-18.1l-72.7 325.8zM83.8-18.2-18.2-4 7.6 314.6z"/><path fill="#19bac8" d="M217.4 54.5 52 102.5l53-57.4z"/><path fill="#fbffff" d="m175.2 170.5-16.4-50.4L118.9 85z"/><path fill="#000006" d="m160 202.1-7-69-17.6 26.9z"/><path fill="#00050d" d="M31 41.6 44-5.3l97.2 99.6z"/><path fill="#00222f" d="m162.3 144.7 52.7 23.5 16.4-52.8z"/><path fill="#1cd1e5" d="m149.4 124.8 37.5-82-58.6-4.7z"/><path fill="#001d2a" d="m66.2 112 70.3 30.4-48 25.8z"/><path fill="#004f65" d="m61.5 263 109 29.4L44 174z"/><path fill="#fffff2" d="m174 156.4 2.4 22.3-29.3 10.6z"/><path d="M205.7 59.2 174 74.4l-19.9 32.8z"/><path fill="#000a1d" d="m211.5 80.3-34 16.4 56.3 30.4z"/><path d="m228 1.8 90.2-13-29.3 329.4z"/><path fill="#00485d" d="m144.7 281.8 96.1-19.9 20-97.3z"/><path fill="#fff" d="m107.2 171.7 24.6-14 16.4 26.9z"/><path fill="#ffffeb" d="m130.7 94.3-23.5-17.5-28.1 1.1z"/><path fill="#fff" d="m190.4 79.1 27-2.3L167 99z"/><path d="m59.2 298.2 227.3 20 31.7-65.7zM-11.1-18.2l305.8 31.7L11.1 60.4z"/><path fill="#000001" d="m138.9 135.4-5.9-27-17.6 52.7z"/><path fill="#2bc7d4" d="m47.5 123.6 43.3 99.6 31.7-48z"/><path fill="#f1f6e8" d="m140 122.5 42.2-32.9-49.2 69.2z"/><path fill="#f6865e" d="m107.2 140 30.5-21-35.2-18.8z"/><path fill="#006d74" d="m124.8 194 69.1-18.8-37.5 32.8z"/><path d="M70.9 318.2 18.2.6-18.2 297z"/><path fill="#02a5ac" d="m258.4 175.2-52.7 52.7 31.6-151.1z"/><path fill="#002636" d="m237.3 21.7 24.6 51.5-84.4 3.6z"/><path fill="#002936" d="M130.7 81.4 49.8 71l12.9-49.2z"/><path fill="#ffb583" d="m202.1 115.4-24.6 16.4 18.8 3.6z"/><path fill="#49ccda" d="m218.6 171.7-107.9 58.6 41 55z"/><path fill="#000014" d="M149.4 134.2v52.7l16.4-27z"/><path fill="#000c1e" d="m163.5 140 2.3-27 29.3 50.5z"/><path fill="#00bdba" d="m55.7 162.3 28-78.5-32.7 27z"/><path fill="#00262f" d="M68.6 126 86 79l38.7 18.8z"/><path fill="#00697a" d="m157.6 108.4-5.8 18.7L128.3 78z"/></g></svg>