<svg xmlns="http://www.w3.org/2000/svg" width="300" height="450" viewBox="0 0 300 450"><g stroke-linecap="round"><path fill="rgba(241,204,210,255)" stroke="rgba(241,204,210,255)" d="M300 450H0l136-83 164 83"/><path fill="rgba(244,215,221,255)" stroke="rgba(244,215,221,255)" d="M300 0v450l-68-258L300 0"/><path fill="rgba(244,209,215,255)" stroke="rgba(244,209,215,255)" d="m300 450-164-83 96-175 68 258"/><path fill="rgba(209,136,142,255)" stroke="rgba(209,136,142,255)" d="m232 192-96 175 53-180 43 5"/><path fill="rgba(244,213,222,255)" stroke="rgba(244,213,222,255)" d="M0 450V0l108 224L0 450"/><path fill="rgba(241,206,214,255)" stroke="rgba(241,206,214,255)" d="M136 367 0 450l108-226 28 143"/><path fill="rgba(224,114,161,255)" stroke="rgba(224,114,161,255)" d="m189 187-53 180-28-143 81-37"/><path fill="rgba(244,219,226,255)" stroke="rgba(244,219,226,255)" d="M0 0h300L194 148 0 0"/><path fill="rgba(246,218,226,255)" stroke="rgba(246,218,226,255)" d="m300 0-68 192-38-44L300 0"/><path fill="rgba(234,167,184,255)" stroke="rgba(234,167,184,255)" d="m232 192-43-5 5-39 38 44"/><path fill="rgba(227,173,172,255)" stroke="rgba(227,173,172,255)" d="m189 187-81 37 48-63 33 26"/><path fill="rgba(225,143,165,255)" stroke="rgba(225,143,165,255)" d="m194 148-5 39-33-26 38-13"/><path fill="rgba(244,216,224,255)" stroke="rgba(244,216,224,255)" d="M108 224 0 0l156 161-48 63"/><path fill="rgba(243,218,225,255)" stroke="rgba(243,218,225,255)" d="m0 0 194 148-38 13L0 0"/></g></svg>