<svg xmlns="http://www.w3.org/2000/svg" width="298" height="450"><rect width="100%" height="100%" fill="#b37464"/><g fill-opacity=".5" transform="translate(.9 .9)scale(1.75781)"><circle cx="90" cy="93" r="197" fill="#fff"/><circle cx="121" cy="71" r="224" fill="#ffddf5"/><circle cx="87" cy="123" r="37" fill="#a24954"/><circle cx="84" r="87" fill="#fbe8ef"/><circle cx="146" cy="143" r="32" fill="#fde0e4"/><circle cx="30" cy="97" r="38" fill="#f9dbe5"/><circle cx="119" cy="115" r="6" fill="#44061b"/><circle cx="71" cy="107" r="7" fill="#5b1d1f"/><circle cx="75" cy="138" r="28" fill="#d88a9b"/><circle cx="73" cy="138" r="11" fill="#983374"/><circle cx="93" cy="117" r="15" fill="#f1c7b7"/><circle cx="85" cy="158" r="17" fill="#f5c0c2"/><circle cx="97" cy="99" r="5" fill="#3e1517"/><circle cx="113" cy="134" r="4" fill="#1f000a"/><circle cx="169" cy="72" r="46" fill="#fbe4e8"/><circle cx="90" cy="137" r="4" fill="#1d0123"/><circle cx="109" cy="107" r="6" fill="#6e2c3e"/><circle cx="105" cy="86" r="12" fill="#ef9eb3"/><circle cx="87" cy="88" r="5" fill="#873543"/><circle cx="85" cy="101" r="8" fill="#fcdecc"/><circle cx="92" cy="94" r="3" fill="#0b0000"/><circle cx="74" cy="98" r="4" fill="#360f16"/><circle cx="124" cy="103" r="10" fill="#e78ba4"/><circle cx="131" cy="215" r="58" fill="#f9d2d7"/><circle cx="120" cy="129" r="6" fill="#fff6fb"/><circle cx="107" cy="147" r="4" fill="#57282d"/><circle cx="58" cy="76" r="24" fill="#f3d7de"/><circle cx="84" cy="138" r="3" fill="#140013"/><circle cx="19" cy="190" r="53" fill="#f8d2da"/><circle cx="108" cy="138" r="7" fill="#95625b"/></g></svg>