<svg xmlns="http://www.w3.org/2000/svg" width="300" height="450" viewBox="0 0 300 450"><g stroke-linecap="round"><path fill="rgba(241,204,210,255)" stroke="rgba(241,204,210,255)" d="M300 450H0l79-77 221 77"/><path fill="rgba(244,215,221,255)" stroke="rgba(244,215,221,255)" d="M300 0v450L200 192 300 0"/><path fill="rgba(243,208,214,255)" stroke="rgba(243,208,214,255)" d="M300 450 79 373l121-181 100 258"/><path fill="rgba(228,126,176,255)" stroke="rgba(228,126,176,255)" d="m79 373 94-178 27-3L79 373"/><path fill="rgba(243,214,222,255)" stroke="rgba(243,214,222,255)" d="M0 450V0l108 221L0 450"/><path fill="rgba(242,207,215,255)" stroke="rgba(242,207,215,255)" d="M79 373 0 450l108-229-29 152"/><path fill="rgba(204,145,139,255)" stroke="rgba(204,145,139,255)" d="M173 195 79 373l29-152 65-26"/><path fill="rgba(244,219,227,255)" stroke="rgba(244,219,227,255)" d="M0 0h300L150 142 0 0"/><path fill="rgba(225,204,189,255)" stroke="rgba(225,204,189,255)" d="m173 195-65 26 42-79 23 53"/><path fill="rgba(244,216,224,255)" stroke="rgba(244,216,224,255)" d="M108 221 0 0l150 142-42 79"/><path fill="rgba(246,218,226,255)" stroke="rgba(246,218,226,255)" d="M300 0 200 192l-3-41L300 0"/><path fill="rgba(244,219,226,255)" stroke="rgba(244,219,226,255)" d="M150 142 300 0 197 151l-47-9"/><path fill="rgba(206,122,147,255)" stroke="rgba(206,122,147,255)" d="m200 192-27 3 24-44 3 41"/><path fill="rgba(229,150,169,255)" stroke="rgba(229,150,169,255)" d="m173 195-23-53 47 9-24 44"/></g></svg>