<svg xmlns="http://www.w3.org/2000/svg" width="300" height="450"><path fill="rgba(242,217,225,0.75)" d="M-78-60H36V54H-78z"/><path fill="rgba(241,215,224,0.86)" d="M36-60h57V54H36z"/><path fill="rgba(244,218,225,0.85)" d="M93-60h57V54H93z"/><path fill="rgba(244,220,226,0.97)" d="M150-60h57V54h-57z"/><path fill="#f5dce2" d="M207-60h57V54h-57z"/><path fill="#f4dce2" d="M264-60h114V54H264z"/><path fill="#fde2eb" d="M-78 54H36v57H-78z"/><path fill="#fbe0e8" d="M36 54h57v57H36z"/><path fill="#f8dde5" d="M93 54h57v57H93z"/><path fill="#f2cfd9" d="M150 54h57v57h-57z"/><path fill="#f7dce2" d="M207 54h57v57h-57z"/><path fill="#f4dae1" d="M264 54h114v57H264z"/><path fill="rgba(242,214,223,0.99)" d="M-78 111H36v57H-78z"/><path fill="#f3d4dd" d="M36 111h57v57H36z"/><path fill="#d2a1a7" d="M93 111h57v57H93z"/><path fill="#c78c91" d="M150 111h57v57h-57z"/><path fill="#e7b5c1" d="M207 111h57v57h-57z"/><path fill="#f6dce1" d="M264 111h114v57H264z"/><path fill="#f4d8e0" d="M-78 168H36v57H-78z"/><path fill="#ebbfc8" d="M36 168h57v57H36z"/><path fill="#c87f8e" d="M93 168h57v57H93z"/><path fill="#c2868f" d="M150 168h57v57h-57z"/><path fill="#dcb7bd" d="M207 168h57v57h-57z"/><path fill="#f8dbe0" d="M264 168h114v57H264z"/><path fill="#f3d4dc" d="M-78 225H36v57H-78z"/><path fill="#efcad2" d="M36 225h57v57H36z"/><path fill="#e1a3b1" d="M93 225h57v57H93z"/><path fill="#dea8b3" d="M150 225h57v57h-57z"/><path fill="#f2d3d8" d="M207 225h57v57h-57z"/><path fill="#f4d5db" d="M264 225h114v57H264z"/><path fill="#f2d0d8" d="M-78 282H36v57H-78z"/><path fill="#f3d1d8" d="M36 282h57v57H36z"/><path fill="#f4d3d9" d="M93 282h57v57H93z"/><path fill="#f5d4d9" d="M150 282h57v57h-57z"/><path fill="#f3d2d8" d="M207 282h57v57h-57z"/><path fill="#f3d3d8" d="M264 282h114v57H264z"/><path fill="#f2ced6" d="M-78 339H36v57H-78z"/><path fill="#f1ccd4" d="M36 339h57v57H36z"/><path fill="#f1ccd3" d="M93 339h57v57H93z"/><path fill="#f1cdd4" d="M150 339h57v57h-57z"/><path fill="#f3cfd6" d="M207 339h57v57h-57z"/><path fill="#f4d1d7" d="M264 339h114v57H264z"/><path fill="#f1cbd3" d="M-78 396H36v114H-78z"/><path fill="#f0cbd3" d="M36 396h57v114H36z"/><path fill="#f0cbd2" d="M93 396h57v114H93z"/><path fill="#f2ccd3" d="M150 396h57v114h-57z"/><path fill="#f3cdd4" d="M207 396h57v114h-57z"/><path fill="#f4cdd5" d="M264 396h114v114H264z"/></svg>