<svg xmlns="http://www.w3.org/2000/svg" width="300" height="450" viewBox="0 0 300 450"><g stroke-linecap="round"><path fill="rgba(244,213,220,255)" stroke="rgba(244,213,220,255)" d="M300 0v450l-70-152L300 0"/><path fill="rgba(242,211,220,255)" stroke="rgba(242,211,220,255)" d="M0 450V0l133 330L0 450"/><path fill="rgba(244,219,226,255)" stroke="rgba(244,219,226,255)" d="M0 0h300l-82 200L0 0"/><path fill="rgba(247,216,223,255)" stroke="rgba(247,216,223,255)" d="m300 0-70 298-12-98L300 0"/><path fill="rgba(233,142,183,255)" stroke="rgba(233,142,183,255)" d="M133 330 0 0l175 240-42 90"/><path fill="rgba(209,159,160,255)" stroke="rgba(209,159,160,255)" d="m179 288-46 42 42-90 4 48"/><path fill="rgba(245,216,224,255)" stroke="rgba(245,216,224,255)" d="m0 0 218 200-43 40L0 0"/><path fill="rgba(241,200,208,255)" stroke="rgba(241,200,208,255)" d="m230 298-51-10-4-48 55 58"/><path fill="rgba(241,201,213,255)" stroke="rgba(241,201,213,255)" d="m218 200 12 98-55-58 43-40"/><path fill="rgba(241,204,210,255)" stroke="rgba(241,204,210,255)" d="M300 450H0l197-52 103 52"/><path fill="rgba(241,204,210,255)" stroke="rgba(241,204,210,255)" d="m0 450 133-120 64 68L0 450"/><path fill="rgba(243,208,214,255)" stroke="rgba(243,208,214,255)" d="m230 298 70 152-103-52 33-100m-97 32 46-42 18 110-64-68"/><path fill="rgba(243,210,215,255)" stroke="rgba(243,210,215,255)" d="m179 288 51 10-33 100-18-110"/></g></svg>