<svg xmlns="http://www.w3.org/2000/svg" width="298" height="450"><rect width="100%" height="100%" fill="#b37464"/><g fill-opacity=".5"><path fill="#fff" d="m-27.2 20.2 298.8 457L326-27.2z"/><path fill="#fff" d="M-27.2 477.2 326 443.8 7.9-27.2z"/><path fill="#fff4ff" d="m326-2.6-351.5-8.8 337.5 290z"/><path fill="#b5546c" d="M236.4 132.7 175 320.8 76.5 185.4z"/><path fill="#ffdff7" d="M-23.7 475.5-1 62.4l269 414.8z"/><path fill="#ffdded" d="M160.8 320.8 317.3 55.4l-7 421.8z"/><path fill="#ad5460" d="M132.7 298 80 241.6l59.7-87.9z"/><path fill="#fcdde9" d="m247 206.5 79-233.7L-27.1 6.2z"/><path fill="#f8cfd6" d="m324.3 271.6-29.9 205.6-321.6-212.6z"/><path fill="#230004" d="m150.3 152 61.5 44-40.4-12.3z"/><path fill="#762f4b" d="m206.5 231.2-8.7 31.6-68.6-21.1z"/><path fill="#fad9e7" d="M148.5 143.3 4.4-27.2-27.2 333z"/><path fill="#2f0017" d="m210 194.2 8.8 8.8-26.3 30z"/><path fill="#efc8b1" d="m189 190.7-52.8-35.1 52.8 96.6z"/><path fill="#22060a" d="M120.4 176.7v21l21.1-38.6z"/><path fill="#f8dbe1" d="m292.7 164.4 28.1 288.2-119.5-230.2z"/><path fill="#1a021d" d="m138 247-21.1-8.8 51 1.7z"/><path fill="#eaa5ac" d="m108.1 282.1 12.3-124.8L71.2 240z"/><path fill="#e99aae" d="m275.1 222.4-135.4-79.1 49.3-10.6z"/><path fill="#f49bb3" d="m136.2 294.4 54.5-49.2-56.2-1.7z"/><path fill="#4c2429" d="m203 233-22.8 38.6 14-3.5z"/><path fill="#a3326e" d="m108.1 261 21.1-1.7-8.8-38.7z"/><path fill="#f4dae1" d="m22-27.2 304 214.4L57.2 117z"/><path fill="#f3cbd1" d="m-27.2 466.7 353.3-21-160-190z"/><path fill="#62213a" d="m173.1 176.7 47.5 35.1-1.8-17.6z"/><path fill="#e492a9" d="m231.2 210-77.4-59.7 38.7-14z"/><path fill="#913b4f" d="M164.4 155.6 123.9 166l33.4-19.3z"/><path fill="#f3d5da" d="M326 55.4v421.8L194.3 262.8z"/><path fill="#ebb8b2" d="m148.5 227.6-54.5-28 114.3 7z"/><path fill="#6c333d" d="m131 176.7 14 24.6-29.9-14z"/><path fill="#f3dae2" d="M39.6 247-27.2-9.7l305.8 5.3z"/><path fill="#2c1220" d="m203 248.7-7-22.8 7 5.3z"/><path fill="#e0a3a4" d="m122.2 292.7-37-40.5 119.6 30z"/><path fill="#db5daa" d="m132.7 213.6-10.5 19.3 59.7 3.5z"/><path fill="#f4d6cb" d="M152 160.8 134.6 189l33.4-3.6z"/><path fill="#814348" d="m152 190.7 5.3 7 5.3-8.7z"/><path fill="#c28d7d" d="M197.8 234.7 183.7 210l-3.5 65z"/><path fill="#e7a1b7" d="M108.1 162.6h19.3l-29.8 59.8z"/><path fill="#f4d2db" d="M92.3 247 13.2 438.6-27.2 138z"/><path fill="#f0c0c4" d="m145 227.6 21.1-1.7-15.8-56.3z"/><path fill="#e362ad" d="m127.4 245.2 3.6 19.4 49.2-17.6z"/><path fill="#eaadba" d="m229.4 206.5 21-24.6-77.3-42.2z"/><path fill="#c38c7a" d="m97.6 220.6 47.4-19.3L88.8 247z"/><path fill="#f6dce1" d="m215.3 169.6-59.7-87.9L326 83.5z"/><path d="m160.8 243.5-3.5-3.6 12.3 1.8z"/><path fill="#330b17" d="m169.6 176.7 10.6-1.8-17.6-14z"/><path fill="#f4d6dc" d="m319 146.8-89.6 198.6-24.6-124.8z"/><path fill="#b2d8cd" d="m150.3 234.7-15.8 3.5 28.1 1.7z"/><path fill="#a16268" d="m120.4 199.5 17.6-36.9-7 47.5z"/><path fill="#ead4ba" d="m178.4 259.3-51 8.8 26.4 17.5z"/></g></svg>