<svg xmlns="http://www.w3.org/2000/svg" width="300" height="450" viewBox="0 0 300 450"><g stroke-linecap="round"><path fill="rgba(241,210,219,255)" stroke="rgba(241,210,219,255)" d="M0 450V0l28 385-28 65"/><path fill="rgba(244,213,220,255)" stroke="rgba(244,213,220,255)" d="M300 0v450L180 245 300 0"/><path fill="rgba(244,219,227,255)" stroke="rgba(244,219,227,255)" d="M0 0h300L84 107 0 0"/><path fill="rgba(246,218,226,255)" stroke="rgba(246,218,226,255)" d="M300 0 180 245 84 107 300 0"/><path fill="rgba(243,214,222,255)" stroke="rgba(243,214,222,255)" d="M28 385 0 0l89 237-61 148"/><path fill="rgba(244,216,225,255)" stroke="rgba(244,216,225,255)" d="m0 0 84 107 5 130L0 0"/><path fill="rgba(50,16,28,255)" stroke="rgba(50,16,28,255)" d="m84 107 96 138-37-14-59-124"/><path fill="rgba(207,126,161,255)" stroke="rgba(207,126,161,255)" d="m89 237-5-130 59 124-54 6"/><path fill="rgba(242,205,211,255)" stroke="rgba(242,205,211,255)" d="M300 450H0l184-95 116 95"/><path fill="rgba(242,204,213,255)" stroke="rgba(242,204,213,255)" d="m0 450 28-65 156-30L0 450"/><path fill="rgba(244,209,215,255)" stroke="rgba(244,209,215,255)" d="m180 245 120 205-116-95-4-110"/><path fill="rgba(242,207,215,255)" stroke="rgba(242,207,215,255)" d="m28 385 61-148 95 118-156 30"/><path fill="rgba(232,184,176,255)" stroke="rgba(232,184,176,255)" d="m89 237 54-6 41 124-95-118"/><path fill="rgba(218,169,172,255)" stroke="rgba(218,169,172,255)" d="m143 231 37 14 4 110-41-124"/></g></svg>