<svg xmlns="http://www.w3.org/2000/svg" width="298" height="450"><g filter="blur(10px)"><rect width="200%" height="200%" x="-50%" y="-50%" fill="#b37464"/><rect width="100%" height="100%" fill="#b37464"/><g fill-opacity=".5" transform="translate(.9 .9)scale(1.76)"><circle cx="112" cy="109" r="198" fill="#fff"/><circle cx="100" cy="114" r="175" fill="#ffddf5"/><circle cx="87" cy="123" r="37" fill="#a24954"/><circle cx="84" r="87" fill="#fbe8ef"/><circle cx="147" cy="142" r="32" fill="#fde1e4"/><circle cx="78" cy="136" r="31" fill="#d68e9a"/><circle cx="120" cy="114" r="6" fill="#4e0923"/><circle cx="30" cy="91" r="39" fill="#f9dce6"/><circle cx="71" cy="107" r="7" fill="#581e20"/><circle cx="75" cy="137" r="12" fill="#9f367c"/><circle cx="87" cy="155" r="15" fill="#f7c0c4"/><circle cx="92" cy="117" r="15" fill="#efc4b7"/><circle cx="99" cy="101" r="5" fill="#441517"/><circle cx="165" cy="72" r="43" fill="#fbe4e8"/><circle cx="113" cy="135" r="4" fill="#23050e"/><circle cx="92" cy="136" r="3"/><circle cx="110" cy="107" r="6" fill="#6f2a3e"/><circle cx="107" cy="88" r="12" fill="#ee9bb0"/><circle cx="90" cy="90" r="8" fill="#9d5861"/><circle cx="74" cy="98" r="4" fill="#361017"/><circle cx="84" cy="99" r="7" fill="#ffe3d1"/><circle cx="126" cy="103" r="11" fill="#eb97ac"/><circle cx="123" cy="129" r="8" fill="#ffeef3"/><circle cx="129" cy="222" r="63" fill="#f9d2d7"/><circle cx="94" cy="95" r="3" fill="#090000"/><circle cx="109" cy="145" r="3" fill="#2a0a11"/><circle cx="75" cy="138" r="3" fill="#150411"/><circle cx="110" cy="129" r="4" fill="#522b31"/><circle cx="57" cy="67" r="31" fill="#f2d7de"/><circle cx="87" cy="137" r="2"/></g></g></svg>