<svg xmlns="http://www.w3.org/2000/svg" width="298" height="450"><rect width="100%" height="100%" fill="#b37464"/><g fill-opacity=".5" transform="translate(.9 .9)scale(1.76)"><circle cx="94" cy="142" r="172" fill="#fff"/><circle cx="130" cy="95" r="208" fill="#ffddf5"/><circle cx="87" cy="124" r="37" fill="#a24954"/><circle cx="84" r="87" fill="#fbe8ef"/><circle cx="145" cy="139" r="30" fill="#fde1e4"/><circle cx="119" cy="115" r="6" fill="#43041a"/><circle cx="86" cy="158" r="17" fill="#f8bcc2"/><circle cx="92" cy="117" r="15" fill="#f5c6b9"/><circle cx="28" cy="100" r="38" fill="#fadbe5"/><circle cx="71" cy="107" r="7" fill="#5d2123"/><circle cx="100" cy="96" r="18" fill="#bf7982"/><circle cx="67" cy="138" r="21" fill="#c97189"/><circle cx="169" cy="69" r="47" fill="#fae4e8"/><circle cx="96" cy="98" r="4" fill="#190000"/><circle cx="86" cy="101" r="8" fill="#fce5d1"/><circle cx="113" cy="134" r="4" fill="#20010b"/><circle cx="70" cy="139" r="8" fill="#8b2867"/><circle cx="92" cy="137" r="3"/><circle cx="169" cy="175" r="64" fill="#f8d6db"/><circle cx="111" cy="107" r="5" fill="#631f38"/><circle cx="127" cy="104" r="10" fill="#e992a8"/><circle cx="74" cy="98" r="4" fill="#361017"/><circle cx="91" cy="93" r="4" fill="#3d161a"/><circle cx="107" cy="83" r="16" fill="#fac2d1"/><circle cx="86" cy="138" r="3" fill="#16001c"/><circle cx="106" cy="148" r="5" fill="#754241"/><circle cx="101" cy="101" r="3" fill="#230007"/><circle cx="122" cy="129" r="7" fill="#fff0f5"/><circle cx="90" cy="152" r="14" fill="#ebadb7"/><circle cx="23" cy="178" r="41" fill="#f8d4dc"/></g></svg>