<svg xmlns="http://www.w3.org/2000/svg" width="300" height="450"><path fill="rgba(241,217,222,0.22)" d="M19.5-36h29v58h-29z"/><path fill="rgba(243,220,228,0.26)" d="M48.5-36h29v58h-29z"/><path fill="rgba(241,219,225,0.45)" d="M77.5-36h29v58h-29z"/><path fill="rgba(243,220,227,0.43)" d="M106.5-36h29v58h-29z"/><path fill="rgba(242,219,226,0.56)" d="M135.5-36h29v58h-29z"/><path fill="#f2dbe1" d="M164.5-36h29v58h-29z"/><path fill="#f3dce3" d="M193.5-36h29v58h-29zm29 0h29v58h-29z"/><path fill="#f4dde3" d="M251.5-36h29v58h-29zm29 0h58v58h-58z"/><path fill="rgba(243,216,225,0.44)" d="M-38.5 22h58v29h-58z"/><path fill="rgba(244,217,226,0.67)" d="M19.5 22h29v29h-29z"/><path fill="rgba(242,216,226,0.75)" d="M48.5 22h29v29h-29z"/><path fill="rgba(242,216,226,0.80)" d="M77.5 22h29v29h-29z"/><path fill="rgba(243,216,223,0.67)" d="M106.5 22h29v29h-29z"/><path fill="rgba(242,217,224,0.81)" d="M135.5 22h29v29h-29z"/><path fill="#f6dde3" d="M164.5 22h29v29h-29z"/><path fill="#f3dbe1" d="M193.5 22h29v29h-29zm29 0h29v29h-29z"/><path fill="#f4dce2" d="M251.5 22h29v29h-29z"/><path fill="#f4dde3" d="M280.5 22h58v29h-58z"/><path fill="#ffe8f1" d="M-38.5 51h58v29h-58z"/><path fill="#ffe4ee" d="M19.5 51h29v29h-29z"/><path fill="#fde3ec" d="M48.5 51h29v29h-29z"/><path fill="#fbe2ea" d="M77.5 51h29v29h-29z"/><path fill="#fee6ec" d="M106.5 51h29v29h-29z"/><path fill="#fae1e7" d="M135.5 51h29v29h-29z"/><path fill="#f3dadf" d="M164.5 51h29v29h-29z"/><path fill="#f4dbe1" d="M193.5 51h29v29h-29zm29 0h29v29h-29z"/><path fill="#f5dce2" d="M251.5 51h29v29h-29z"/><path fill="#f4dce3" d="M280.5 51h58v29h-58z"/><path fill="rgba(242,216,224,0.98)" d="M-38.5 80h58v29h-58z"/><path fill="rgba(242,216,225,0.99)" d="M19.5 80h29v29h-29z"/><path fill="rgba(242,216,224,0.99)" d="M48.5 80h29v29h-29z"/><path fill="rgba(241,217,222,0.99)" d="M77.5 80h29v29h-29z"/><path fill="rgba(242,217,223,0.99)" d="M106.5 80h29v29h-29z"/><path fill="rgba(246,222,229,0.99)" d="M135.5 80h29v29h-29z"/><path fill="#f4dce2" d="M164.5 80h29v29h-29z"/><path fill="#f4dae1" d="M193.5 80h29v29h-29zm29 0h29v29h-29zm29 0h29v29h-29z"/><path fill="#f4dce2" d="M280.5 80h58v29h-58z"/><path fill="#f2d7e0" d="M-38.5 109h58v29h-58z"/><path fill="#f3d8e0" d="M19.5 109h29v29h-29z"/><path fill="#f2d7de" d="M48.5 109h29v29h-29z"/><path fill="#f3d8df" d="M77.5 109h29v29h-29z"/><path fill="#f6dbe2" d="M106.5 109h29v29h-29z"/><path fill="#e2b6c1" d="M135.5 109h29v29h-29z"/><path fill="#efbbc8" d="M164.5 109h29v29h-29z"/><path fill="#f6d1d9" d="M193.5 109h29v29h-29z"/><path fill="#f5dbe1" d="M222.5 109h29v29h-29z"/><path fill="#f4d9e0" d="M251.5 109h29v29h-29z"/><path fill="#f4dae1" d="M280.5 109h58v29h-58z"/><path fill="#f3d5df" d="M-38.5 138h58v29h-58z"/><path fill="#f2d6de" d="M19.5 138h29v29h-29z"/><path fill="#f2d7de" d="M48.5 138h29v29h-29z"/><path fill="#f5d1dd" d="M77.5 138h29v29h-29z"/><path fill="#c6919f" d="M106.5 138h29v29h-29z"/><path fill="#bb8887" d="M135.5 138h29v29h-29z"/><path fill="#b2717e" d="M164.5 138h29v29h-29z"/><path fill="#e49fb2" d="M193.5 138h29v29h-29z"/><path fill="#f3c9d2" d="M222.5 138h29v29h-29z"/><path fill="#f5d7de" d="M251.5 138h29v29h-29z"/><path fill="#f4d9df" d="M280.5 138h58v29h-58z"/><path fill="#f3d5df" d="M-38.5 167h58v29h-58z"/><path fill="#f3d4dd" d="M19.5 167h29v29h-29z"/><path fill="#f4d6df" d="M48.5 167h29v29h-29z"/><path fill="#eebbc7" d="M77.5 167h29v29h-29z"/><path fill="#b77779" d="M106.5 167h29v29h-29z"/><path fill="#dda9a5" d="M135.5 167h29v29h-29z"/><path fill="#d2a396" d="M164.5 167h29v29h-29z"/><path fill="#aa6775" d="M193.5 167h29v29h-29z"/><path fill="#e6b3c0" d="M222.5 167h29v29h-29z"/><path fill="#f6d8dd" d="M251.5 167h29v29h-29z"/><path fill="#f4d8dd" d="M280.5 167h58v29h-58z"/><path fill="#f3d4dc" d="M-38.5 196h58v29h-58z"/><path fill="#f3d6dd" d="M19.5 196h29v29h-29z"/><path fill="#f3cfdb" d="M48.5 196h29v29h-29z"/><path fill="#dca1a3" d="M77.5 196h29v29h-29z"/><path fill="#c4798b" d="M106.5 196h29v29h-29z"/><path fill="#ca84a1" d="M135.5 196h29v29h-29z"/><path fill="#d3979d" d="M164.5 196h29v29h-29z"/><path fill="#bd9598" d="M193.5 196h29v29h-29z"/><path fill="#f4d9df" d="M222.5 196h29v29h-29z"/><path fill="#f4d5da" d="M251.5 196h29v29h-29z"/><path fill="#f4d6db" d="M280.5 196h58v29h-58z"/><path fill="#f2d3db" d="M-38.5 225h58v29h-58z"/><path fill="#f2d4db" d="M19.5 225h29v29h-29z"/><path fill="#f2cfd9" d="M48.5 225h29v29h-29z"/><path fill="#dda0a7" d="M77.5 225h29v29h-29z"/><path fill="#bb6984" d="M106.5 225h29v29h-29z"/><path fill="#c77c9c" d="M135.5 225h29v29h-29z"/><path fill="#bc7584" d="M164.5 225h29v29h-29z"/><path fill="#cba6ab" d="M193.5 225h29v29h-29z"/><path fill="#fadde3" d="M222.5 225h29v29h-29z"/><path fill="#f2d3d9" d="M251.5 225h29v29h-29z"/><path fill="#f4d5db" d="M280.5 225h58v29h-58z"/><path fill="#f1d1da" d="M-38.5 254h58v29h-58z"/><path fill="#f2d0da" d="M19.5 254h29v29h-29z"/><path fill="#f2d3db" d="M48.5 254h29v29h-29z"/><path fill="#efc7d1" d="M77.5 254h29v29h-29z"/><path fill="#e6aaaf" d="M106.5 254h29v29h-29z"/><path fill="#f0bfbc" d="M135.5 254h29v29h-29z"/><path fill="#e3b4b7" d="M164.5 254h29v29h-29z"/><path fill="#f0cad2" d="M193.5 254h29v29h-29z"/><path fill="#f4d6dc" d="M222.5 254h29v29h-29z"/><path fill="#f3d3da" d="M251.5 254h29v29h-29z"/><path fill="#f3d4da" d="M280.5 254h58v29h-58z"/><path fill="#f1d0d9" d="M-38.5 283h58v29h-58z"/><path fill="#f2d1da" d="M19.5 283h29v29h-29z"/><path fill="#f1d0d7" d="M48.5 283h29v29h-29z"/><path fill="#f2d2d9" d="M77.5 283h29v29h-29z"/><path fill="#f1cfd8" d="M106.5 283h29v29h-29z"/><path fill="#efccd4" d="M135.5 283h29v29h-29z"/><path fill="#f4cfd7" d="M164.5 283h29v29h-29z"/><path fill="#f3d3d8" d="M193.5 283h29v29h-29z"/><path fill="#f2d2d8" d="M222.5 283h29v29h-29z"/><path fill="#f3d3d8" d="M251.5 283h29v29h-29z"/><path fill="#f3d4d9" d="M280.5 283h58v29h-58z"/><path fill="#f1cfd9" d="M-38.5 312h58v29h-58z"/><path fill="#f1cfd7" d="M19.5 312h29v29h-29z"/><path fill="#f2cfd6" d="M48.5 312h29v29h-29z"/><path fill="#f1ced5" d="M77.5 312h29v29h-29z"/><path fill="#f1cfd6" d="M106.5 312h29v29h-29z"/><path fill="#f2d0d6" d="M135.5 312h29v29h-29z"/><path fill="#f1d0d6" d="M164.5 312h29v29h-29z"/><path fill="#f2d2d7" d="M193.5 312h29v29h-29z"/><path fill="#f3d2d7" d="M222.5 312h29v29h-29z"/><path fill="#f3d3d8" d="M251.5 312h29v29h-29zm29 0h58v29h-58z"/><path fill="#f2cdd7" d="M-38.5 341h58v29h-58z"/><path fill="#f1ced5" d="M19.5 341h29v29h-29z"/><path fill="#f1cdd5" d="M48.5 341h29v29h-29z"/><path fill="#f1cdd4" d="M77.5 341h29v29h-29z"/><path fill="#f2cdd3" d="M106.5 341h29v29h-29z"/><path fill="#f2cdd4" d="M135.5 341h29v29h-29zm29 0h29v29h-29z"/><path fill="#f3cfd6" d="M193.5 341h29v29h-29z"/><path fill="#f4d0d6" d="M222.5 341h29v29h-29z"/><path fill="#f4d1d7" d="M251.5 341h29v29h-29z"/><path fill="#f4d2d7" d="M280.5 341h58v29h-58z"/><path fill="#f2ccd5" d="M-38.5 370h58v29h-58z"/><path fill="#f1ccd4" d="M19.5 370h29v29h-29zm29 0h29v29h-29z"/><path fill="#f0cbd2" d="M77.5 370h29v29h-29z"/><path fill="#f1ccd3" d="M106.5 370h29v29h-29zm29 0h29v29h-29z"/><path fill="#f2cdd4" d="M164.5 370h29v29h-29z"/><path fill="#f3ced5" d="M193.5 370h29v29h-29z"/><path fill="#f3cfd6" d="M222.5 370h29v29h-29z"/><path fill="#f4d0d6" d="M251.5 370h29v29h-29zm29 0h58v29h-58z"/><path fill="#f1ccd4" d="M-38.5 399h58v29h-58zm58 0h29v29h-29z"/><path fill="#f0cbd3" d="M48.5 399h29v29h-29z"/><path fill="#f0cbd2" d="M77.5 399h29v29h-29zm29 0h29v29h-29z"/><path fill="#f0cbd3" d="M135.5 399h29v29h-29z"/><path fill="#f1ccd3" d="M164.5 399h29v29h-29z"/><path fill="#f2cdd4" d="M193.5 399h29v29h-29z"/><path fill="#f3ced5" d="M222.5 399h29v29h-29zm29 0h29v29h-29zm29 0h58v29h-58z"/><path fill="#f0c8d1" d="M-38.5 428h58v58h-58z"/><path fill="#f1c9d2" d="M19.5 428h29v58h-29zm29 0h29v58h-29z"/><path fill="#f0c9d1" d="M77.5 428h29v58h-29z"/><path fill="#f0cad2" d="M106.5 428h29v58h-29z"/><path fill="#f1cad2" d="M135.5 428h29v58h-29z"/><path fill="#f0cbd2" d="M164.5 428h29v58h-29z"/><path fill="#f2ccd3" d="M193.5 428h29v58h-29z"/><path fill="#f3cbd3" d="M222.5 428h29v58h-29z"/><path fill="#f3ccd3" d="M251.5 428h29v58h-29zm29 0h58v58h-58z"/></svg>