<svg xmlns="http://www.w3.org/2000/svg" width="300" height="450" viewBox="0 0 300 450"><g filter="blur(20px)"><rect width="200%" height="200%" x="-50%" y="-50%" fill="#b37464"/><g stroke-linecap="round"><path fill="rgba(244,215,223,255)" stroke="rgba(244,215,223,255)" d="M92 286 0 0l121 252-29 34"/><path fill="rgba(229,191,166,255)" stroke="rgba(229,191,166,255)" d="m92 286 29-34 47 27-76 7"/><path fill="rgba(243,210,215,255)" stroke="rgba(243,210,215,255)" d="M300 450 168 279l26-47 106 218"/><path fill="rgba(235,149,186,255)" stroke="rgba(235,149,186,255)" d="m168 279-47-27 73-20-26 47"/><path fill="rgba(242,211,220,255)" stroke="rgba(242,211,220,255)" d="M0 450V0l74 316L0 450"/><path fill="rgba(243,214,222,255)" stroke="rgba(243,214,222,255)" d="m0 0 92 286-18 30L0 0"/><path fill="rgba(242,205,211,255)" stroke="rgba(242,205,211,255)" d="M300 450H0l74-134 226 134"/><path fill="rgba(242,207,213,255)" stroke="rgba(242,207,213,255)" d="m168 279 132 171L74 316l94-37"/><path fill="rgba(243,210,217,255)" stroke="rgba(243,210,217,255)" d="m92 286 76-7-94 37 18-30"/><path fill="rgba(244,219,226,255)" stroke="rgba(244,219,226,255)" d="M0 0h300l-87 205L0 0"/><path fill="rgba(244,215,223,255)" stroke="rgba(244,215,223,255)" d="M121 252 0 0l213 205-92 47"/><path fill="rgba(224,146,172,255)" stroke="rgba(224,146,172,255)" d="m194 232-73 20 92-47-19 27"/><path fill="rgba(244,215,221,255)" stroke="rgba(244,215,221,255)" d="M300 0v450l-87-245L300 0"/><path fill="rgba(243,213,217,255)" stroke="rgba(243,213,217,255)" d="M300 450 194 232l19-27 87 245"/></g></g></svg>