<svg xmlns="http://www.w3.org/2000/svg" width="298" height="450"><rect width="100%" height="100%" fill="#b37464"/><g fill-opacity=".5"><path fill="#fff" d="M-27.2 18.5 326-27.2l-54.5 504.4z"/><path fill="#fff" d="M326 443.8 8-27.2l-35.2 504.4z"/><path fill="#ffe9ff" d="m9.7-27.2 314.6 3.5 1.8 462.3z"/><path fill="#af4e62" d="M71.2 169.6 167.9 319l73.8-165.2z"/><path fill="#ffdcf3" d="M261 477.2-4.4-14.9l-22.8 474.6z"/><path fill="#a64c57" d="m134.5 292.7-52.8-56.3 59.8-84.3z"/><path fill="#310008" d="m231.2 211.8-51-21-33.4-44z"/><path fill="#fce1e9" d="M312-27.2-27.2-4.4l341 263.7z"/><path fill="#fbcfd9" d="m-27.2 271.6 321.6 205.6 31.7-212.6z"/><path fill="#6a2242" d="m196 259.3 8.8-22.9-82.6 3.5z"/><path fill="#f6dbe5" d="m4.4-27.2-31.6 420L187.2 50.2z"/><path fill="#c86b7f" d="m187.2 134.5-72 29.9 84.3-8.8z"/><path fill="#f0c0b5" d="m141.5 164.4-5.3 75.5 65-42.1z"/><path fill="#35181b" d="m206.5 236.4-8.7-15.8-10.6 49.2z"/><path fill="#e58ba0" d="m203 241.7-116 8.8 33.4 44z"/><path fill="#2e1417" d="m145 157.3-17.6 8.8-8.7 28.1z"/><path fill="#f8d8dd" d="m203 222.4 103.7-79.1-7 334z"/><path fill="#430d21" d="m203 217 3.5-29.8 10.6 21.1z"/><path fill="#641d4e" d="m118.7 240-12.4 21 65-22.8z"/><path fill="#e9a7ac" d="m120.4 159-44 74 30 50.9z"/><path fill="#e994ac" d="M233 208.3 131 138l116 40.4z"/><path fill="#e081aa" d="M125.7 231.2 113.4 196l86.1 44z"/><path fill="#57292b" d="m189 189-28.2-37-17.5 1.8z"/><path fill="#6b2b34" d="m189 257.5 7 8.8-17.6 7z"/><path fill="#89454f" d="m115.1 189 24.6 12.3 24.7-8.8z"/><path fill="#f3ccd3" d="M-6.2 477.2 162.6 254l163.5 182.8z"/><path fill="#f4d7e0" d="m-9.7-27.2-14 298.8 181-128.3z"/><path fill="#eec3be" d="M185.4 227.6 138 173.1l10.5 49.3z"/><path fill="#ec70b3" d="m129.2 264.6 61.5-19.4H124z"/><path fill="#643740" d="m182 227.6 36.8-22.8-19.3 21z"/><path fill="#f8ced6" d="m148.5 139.7 77.4-10.5 38.7 59.8z"/><path fill="#d5aa91" d="m189 255.8 7-61.6-28.1-17.5z"/><path fill="#dfa7a7" d="M210 283.9 78.3 250.5l49.2 42.2z"/><path fill="#f3d2d9" d="m-4.4 199.5 184.6 130L-8 422.9z"/><path fill="#af4177" d="m113.4 238.2 8.8 22.8 5.2-51z"/><path fill="#f4d5db" d="M201.3 224.1 326 132.7l-28.2 279.5z"/><path fill="#e79fb1" d="m247 204.8-100.2-58 47.4-5.3z"/><path fill="#ecc6b0" d="m124 203-17.7-10.5L94 222.4z"/><path fill="#542730" d="m122.2 176.7 21 19.3-22.8-7z"/><path fill="#f1dac8" d="m153.8 162.6 15.8 24.6-28.1-3.5z"/><path fill="#c7917e" d="m97.6 218.8-1.8 24.7 58-49.3z"/><path fill="#eaa2c0" d="m90.5 187.2-7 40.4 54.5-73.8z"/><path fill="#511b2f" d="m187.2 190.7 31.6 15.8-5.2-10.5z"/><path fill="#291824" d="m166.1 245.2 3.5-8.8-33.4 5.3z"/><path fill="#c45a9a" d="m174.9 240-52.7-10.6 26.3-5.3z"/><path fill="#ebd5b7" d="m183.7 257.5-63.3 12.3 40.4 7z"/><path fill="#492432" d="m197.8 218.8 7 22.9L196 254z"/><path fill="#d56d9c" d="m109.9 268 72-24.5h-44z"/><path fill="#d28c87" d="M157.3 164.4 146.8 152l-14 21z"/><path fill="#f3dbe2" d="m23.7-11.4 193.4 7 56.2 212.7z"/></g></svg>