<svg xmlns="http://www.w3.org/2000/svg" width="298" height="450"><rect width="100%" height="100%" fill="#b37464"/><g fill-opacity=".5" transform="translate(.9 .9)scale(1.76)"><circle cx="88" cy="110" r="182" fill="#fff"/><circle cx="90" cy="119" r="182" fill="#ffddf5"/><circle cx="87" cy="123" r="37" fill="#a24954"/><circle cx="84" r="87" fill="#fbe8ef"/><circle cx="146" cy="140" r="31" fill="#fde1e4"/><circle cx="31" cy="100" r="36" fill="#fadbe4"/><circle cx="77" cy="136" r="31" fill="#d68c99"/><circle cx="72" cy="108" r="8" fill="#682d2e"/><circle cx="117" cy="113" r="9" fill="#7e3548"/><circle cx="73" cy="139" r="11" fill="#9a3374"/><circle cx="87" cy="157" r="16" fill="#f6c2c4"/><circle cx="93" cy="116" r="14" fill="#f0ccb7"/><circle cx="101" cy="101" r="6" fill="#5f242f"/><circle cx="169" cy="69" r="47" fill="#fae4e8"/><circle cx="107" cy="137" r="10" fill="#8b555d"/><circle cx="108" cy="88" r="12" fill="#f19fb4"/><circle cx="93" cy="94" r="4" fill="#2c050c"/><circle cx="92" cy="136" r="3"/><circle cx="85" cy="102" r="8" fill="#fcdecd"/><circle cx="125" cy="102" r="11" fill="#ee9bb1"/><circle cx="76" cy="95" r="4" fill="#4a2125"/><circle cx="31" cy="45" r="65" fill="#f3dae2"/><circle cx="87" cy="87" r="5" fill="#923a4c"/><circle cx="140" cy="156" r="30" fill="#f6d6dc"/><circle cx="84" cy="137" r="2"/><circle cx="109" cy="106" r="4" fill="#4e1127"/><circle cx="121" cy="225" r="64" fill="#f9d1d6"/><circle cx="72" cy="99" r="3" fill="#22040b"/><circle cx="96" cy="119" r="16" fill="#e1a7a8"/><circle cx="124" cy="129" r="9" fill="#fce7ec"/></g></svg>