<svg xmlns="http://www.w3.org/2000/svg" width="300" height="450" viewBox="0 0 300 450"><g filter="blur(20px)"><rect width="200%" height="200%" x="-50%" y="-50%" fill="#b37464"/><g stroke-linecap="round"><path fill="rgba(244,219,227,255)" stroke="rgba(244,219,227,255)" d="M0 0h300L130 163 0 0"/><path fill="rgba(244,213,220,255)" stroke="rgba(244,213,220,255)" d="M300 0v450L135 281 300 0"/><path fill="rgba(239,174,190,255)" stroke="rgba(239,174,190,255)" d="M130 163 300 0 135 281l-5-118"/><path fill="rgba(241,204,210,255)" stroke="rgba(241,204,210,255)" d="M300 450H0l110-74 190 74"/><path fill="rgba(242,204,213,255)" stroke="rgba(242,204,213,255)" d="m0 450 97-79 13 5L0 450"/><path fill="rgba(243,206,212,255)" stroke="rgba(243,206,212,255)" d="m97 371 38-90-25 95-13-5"/><path fill="rgba(245,208,214,255)" stroke="rgba(245,208,214,255)" d="m135 281 165 169-190-74 25-95"/><path fill="rgba(243,212,221,255)" stroke="rgba(243,212,221,255)" d="M0 450V0l12 285L0 450"/><path fill="rgba(243,205,214,255)" stroke="rgba(243,205,214,255)" d="M97 371 0 450l12-165 85 86"/><path fill="rgba(243,208,216,255)" stroke="rgba(243,208,216,255)" d="m135 281-38 90-85-86 123-4"/><path fill="rgba(244,216,224,255)" stroke="rgba(244,216,224,255)" d="m0 0 130 163-53 43L0 0"/><path fill="rgba(244,214,224,255)" stroke="rgba(244,214,224,255)" d="M12 285 0 0l77 206-65 79"/><path fill="rgba(208,144,144,255)" stroke="rgba(208,144,144,255)" d="m130 163 5 118-58-75 53-43"/><path fill="rgba(244,210,220,255)" stroke="rgba(244,210,220,255)" d="m135 281-123 4 65-79 58 75"/></g></g></svg>