<svg xmlns="http://www.w3.org/2000/svg" width="298" height="450"><rect width="100%" height="100%" fill="#b37464"/><g fill-opacity=".5"><path fill="#fff" d="m326-27.2-54.4 504.4-298.8-457z"/><path fill="#fff" d="M326 443.8 8-27.2l-35.2 504.4z"/><path fill="#ffe9ff" d="M326 440.3 11.5-27.2 319-23.7z"/><path fill="#ae4c61" d="m69.4 171.4 172.3-14-73.8 158.1z"/><path fill="#ffdcf3" d="m259.3 477.2-272.5-28L.8-4.5z"/><path fill="#b15964" d="M155.6 132.7 131 296.2l-52.8-56.3z"/><path fill="#431217" d="m190.7 203-44-54.5 84.5 61.6z"/><path fill="#fce1e9" d="M326-9.7-27.1-.9l334 254.9z"/><path fill="#fbcfd9" d="m296.2 477.2 14-200.3-337.4-17.6z"/><path fill="#6a2242" d="m196 257.5 10.5-21-87.8 3.4z"/><path fill="#f5c7b9" d="m132.7 233 75.6-26.5-63.3-45.7z"/><path fill="#f7dae5" d="M178.4 124-13.2 282 2.6-27.2z"/><path fill="#be6275" d="m203 159-15.8-22.8-66.8 30z"/><path fill="#250a0e" d="m139.7 159-21 23 5.2 14z"/><path fill="#784c4c" d="m189 280.4-1.8-52.8 28.1-35.1z"/><path fill="#f8d8dd" d="m204.8 222.4 96.7 254.8L326 117z"/><path fill="#e58ea1" d="m203 240-66.8 52.7-58-38.7z"/><path fill="#9b2b6a" d="m138 259.3-30 1.7 14-44z"/><path fill="#e8a7ac" d="M108.1 266.3 73 247l49.3-96.7z"/><path fill="#f3ccd3" d="m326 445.6-348 31.6 188.1-228.5z"/><path fill="#28060b" d="m152 152 37 30-22.9-7.1z"/><path fill="#f0a7ba" d="M136.2 139.7 261 213.6l-66.8-77.4z"/><path fill="#531e2e" d="m131 196 15.8 5.3-14-17.6z"/><path fill="#f3dae2" d="m-27.2.9 43.9 246L326.1-7.8z"/><path fill="#deb4a0" d="m192.5 192.5-51-22.9 49.2 80.9z"/><path fill="#07191e" d="m138 240 26.4-3.6v7z"/><path fill="#da77ad" d="m131 236.4-12.3-28.1 84.3 31.6z"/><path fill="#583438" d="M185.4 266.3 196 226l12.3 12.3z"/><path fill="#f4d6db" d="m291 152-88 74 121.3 235.5z"/><path fill="#f4d5dd" d="m83.5 357.7-110.7 38.7L87-11.4z"/><path fill="#440f26" d="m218.8 206.5-5.2-10.5-14 22.8z"/><path fill="#e1b1ac" d="m111.6 268 84.4 3.6-3.5 24.6z"/><path fill="#e9a1b3" d="m222.4 206.5-24.6-43.9 52.7 24.6z"/><path fill="#c88d81" d="m92.3 217 77.3-29.8L88.8 247z"/><path fill="#e96ead" d="m148.5 266.3-28-15.8 65-7z"/><path fill="#f1d7d2" d="m166.1 180.2-26.4-7 3.6 19.3z"/><path fill="#702f3a" d="m166.1 187.2-8.8 3.5v8.8z"/><path fill="#e9a4b2" d="m120.4 201.3-17.6-22.9-21 63.3z"/><path fill="#c38778" d="m196 236.4-15.8 3.5 1.7 35.2z"/><path fill="#f8d9df" d="m294.4 190.7-82.6-26.3-52.7-72.1z"/><path fill="#cf948a" d="m157.3 164.4 51 45.7-17.6 10.5z"/><path fill="#f6d8dd" d="m203 220.6 95-44L220.5 291z"/><path fill="#0d0008" d="m127.4 245.2-5.2-5.3 22.8 1.8z"/><path fill="#eecdc1" d="M157.3 197.8 131 210l52.7 10.5z"/><path fill="#451e24" d="m116.9 185.4 10.5-1.7 8.8-22.9z"/><path fill="#cffce7" d="m134.5 240 5.2-5.3 15.9 1.7z"/><path fill="#3e0e22" d="m185.4 183.7 19.4 7 12.3 15.8z"/><path fill="#70393f" d="m169.6 176.7-21-22.9 8.7-5.3z"/><path fill="#f2cfd6" d="m36 352.4 274.3 124.8-33.4-226.7z"/><path fill="#e8cab4" d="m152 294.4-28-28 52.7-7.1z"/></g></svg>