<svg xmlns="http://www.w3.org/2000/svg" width="298" height="450"><rect width="100%" height="100%" fill="#b37464"/><g fill-opacity=".5"><path fill="#fff" d="m269.8 477.2-297-458.7L326-27.2z"/><path fill="#fff" d="m326 443.8-353.2 33.4L7.9-27.2z"/><path fill="#ffe9ff" d="M312-13.2 20.2-14.9l305.9 455.2z"/><path fill="#b15165" d="m231.2 148.5-56.3 177.6L67.7 166z"/><path fill="#ffdbf3" d="M254 458 .9-8l-28.1 460.6z"/><path fill="#aa4e5a" d="M138 155.6v138.8L76.5 247z"/><path fill="#562023" d="m145 148.5 79.1 54.5-22.8 14z"/><path fill="#fee0e7" d="m301.5 4.4-3.6 472.8L159.1-27.2z"/><path fill="#f9dee8" d="M-27.2-15 4.4 299.8 290.9-11.4z"/><path fill="#64283f" d="m206.5 227.6-5.2 24.6-75.6-10.5z"/><path fill="#f8cdd6" d="m296.2 477.2 14-193.3-337.4-35.2z"/><path fill="#f3c3b4" d="m146.8 159-14 72.2 75.5-22.9z"/><path fill="#52272c" d="m120.4 192.5 35.2-42.2-30 15.8z"/><path fill="#593233" d="m206.5 240-12.3-28.2-7 59.8z"/><path fill="#efa5b8" d="M247 222.4 131 131l105.4 29.8z"/><path fill="#e4a7a9" d="m190.7 196-105.4 7 112.5 45.7z"/><path fill="#82255c" d="m109.9 264.6 56.2-22.9-52.7-5.3z"/><path fill="#e99ba9" d="m192.5 245.2-119.6 3.5 68.6 51z"/><path fill="#200002" d="m152 150.3 8.8 15.8 19.4 8.8z"/><path fill="#3c041d" d="m220.6 210-7-17.5-22.9-5.3z"/><path fill="#e5a3a8" d="m108.1 276.9-33.4-31.7 42.2-82.6z"/><path fill="#f3dae1" d="M-.9 225.9 1-27.2l316.4 93.1z"/><path fill="#f5cfd6" d="M-27.2 378.8 326 206.5l-30 270.7z"/><path fill="#94555a" d="m125.7 208.3 44-17.6-51-3.5z"/><path d="m159 238.2-15.7 5.3h26.3z"/><path fill="#e496ab" d="m234.7 210-95-68.5h58z"/><path fill="#f1c7bf" d="m134.5 178.4 33.4 40.4-24.6-58z"/><path fill="#f4d6db" d="M326 143.3 261 421l-58-198.6z"/><path fill="#cf4c9e" d="m129.2 217-15.8 17.7h66.8z"/><path fill="#fce2e5" d="M262.8 169.6 173 113.4l38.7 51z"/><path fill="#f4d4dc" d="M66 132.7-27.3 370l130-40.4z"/><path fill="#a63970" d="m116.9 233-5.3 24.5L138 261z"/><path fill="#602f3a" d="m182 262.8 7 8.8 15.8-31.7z"/><path fill="#5a2b3c" d="m190.7 231.2 17.6-28.2 10.5 3.5z"/><path fill="#ebdac4" d="m146.8 299.7 29.9-40.4-31.7 5.3z"/><path fill="#4e252e" d="m139.7 197.8-10.5-28.2-10.5 15.8z"/><path fill="#e0b39e" d="m185.4 220.6 21.1-8.8-65-54.5z"/><path fill="#3f1520" d="m169.6 178.4 33.4 12.3-44-31.6z"/><path fill="#e863b1" d="M136.2 262.8 131 247l54.4-3.5z"/><path fill="#0b0b0f" d="m143.3 241.7-17.6 3.5 3.5-7z"/><path fill="#efacc7" d="m85.3 204.8 54.4-49.2-28 3.5z"/><path fill="#e3a0a7" d="m104.6 185.4 17.6 17.6L80 241.7z"/><path fill="#f3dae2" d="M326-9.7 76.6 196-27.2.9z"/><path fill="#adcac2" d="M159 240h-24.5l19.3-7z"/><path fill="#be8278" d="m90.5 245.2 42.2-65-5.3 44z"/><path fill="#f2d0d6" d="M298 299.7 29 289.2l269 188z"/><path fill="#f5d6dc" d="m326 240-131.8 21 31.7-59.7z"/><path fill="#dca0a7" d="m201.3 283.9-49.2 5.3 29.8-24.6z"/><path fill="#ecafbd" d="m187.2 131 56.3 72-79.1-58z"/><path fill="#c68383" d="m173.1 234.7 21.1-24.6-10.5 63.2z"/></g></svg>