<svg xmlns="http://www.w3.org/2000/svg" width="298" height="450"><rect width="100%" height="100%" fill="#b37464"/><g fill-opacity=".5"><path fill="#fff" d="m273.3 477.2-300.5-457L326-27.2z"/><path fill="#fff" d="M-27.2 477.2 7.9-27.2l318.2 471z"/><path fill="#ffe9ff" d="M303.2-18.5 16.7-20.2l304.1 453.5z"/><path fill="#af4f63" d="M167.9 317.3 69.4 166l174-12.3z"/><path fill="#ffdcf3" d="M262.8 477.2-11.4-25.5-1 454.4z"/><path fill="#a94e5a" d="m76.5 247 61.5-89.7-1.8 133.6z"/><path fill="#270000" d="m173.1 185.4-22.8-35.1 66.8 49.2z"/><path fill="#fce1e9" d="M303.2-27.2-27.2 4.4 326 262.8z"/><path fill="#facfd8" d="m326 271.6-31.6 205.6-321.6-214.4z"/><path fill="#7c3551" d="m127.4 240 65 26.3 15.9-35.1z"/><path fill="#f6dbe5" d="M266.3 6.2-.9-27.2l-19.3 362z"/><path fill="#44121e" d="m222.4 203-28.2 24.6L203 196z"/><path fill="#522126" d="m159 146.8-38.6 45.7 7-26.4z"/><path fill="#e8b4a9" d="m131 150.3 59.7 42.2-3.5 100.2z"/><path fill="#e993a8" d="m192.5 138 68.5 75.6-121.3-70.3z"/><path fill="#581545" d="m173.1 240-66.8 15.8 12.4-17.6z"/><path fill="#e993a8" d="m127.4 299.7-49.2-54.5 107.2 1.8z"/><path fill="#f8d9dd" d="M306.7 146.8 199.5 224l126.6 253.1z"/><path fill="#e596aa" d="m81.7 222.4 19.4-37 84.3 49.3z"/><path fill="#4d2b27" d="M206.5 236.4 196 226l-12.3 45.7z"/><path fill="#a4476c" d="m131 257.5-5.3-70.3-15.8 77.4z"/><path fill="#f5d3db" d="m97.6 401.7-124.8-7L80 51.8z"/><path fill="#f4ced5" d="m306.7 190.7-10.5 286.5-320-54.4z"/><path fill="#66343e" d="m132.7 174.9-15.8 8.8L145 203z"/><path fill="#e6b9ae" d="m171.4 231.2-75.6-31.7 112.5 7z"/><path fill="#c68f81" d="m187.2 201.3-10.5 75.6 21-35.2z"/><path fill="#481429" d="m185.4 182 35.2 21-7 8.8z"/><path fill="#f6cad3" d="m233 236.4 28-72-58-22.9z"/><path fill="#844154" d="m178.4 271.6 19.4-3.5-5.3-8.8z"/><path fill="#f3d8e1" d="m-11.4-27.2 211 124.8-211 170.5z"/><path fill="#270320" d="m164.4 236.4 12.3 8.8-24.6-3.5z"/><path fill="#e466ae" d="M124 243.5h54.4l-35.1 21z"/><path fill="#f1d7c9" d="m132.7 185.4 38.7 1.8-17.6-19.3z"/><path fill="#593235" d="m122.2 176.7-3.5 28 21-45.6z"/><path fill="#ead2b8" d="m132.7 266.3 47.5-8.8-35.2 37z"/><path fill="#da7e9a" d="m185.4 157.3 30 40.5-65.1-49.3z"/><path fill="#d56db0" d="m185.4 236.4-75.5 1.8 29.8-21.1z"/><path fill="#dfa0a0" d="m109.9 278.6 7-112.5-37 70.3z"/><path fill="#431215" d="m173.1 173.1-28-19.3 17.5 5.3z"/><path fill="#461e33" d="m206.5 245.2-14-21 7-3.6z"/><path fill="#bd8077" d="m97.6 231.2 33.4-49.3 5.2 35.2z"/><path fill="#f4d7dd" d="m196 363 130-195.1L208.4 217z"/><path fill="#894543" d="m166.1 201.3-3.5-14-5.3 7z"/><path fill="#efd0c0" d="m164.4 196 19.3 22.8-45.7-8.7z"/><path fill="#1b1418" d="m139.7 241.7-19.3 1.8 10.6-7z"/><path fill="#e7a1b3" d="m178.4 131 42.2 72 26.4-10.5z"/><path fill="#f6dae0" d="m306.7 187.2-98.4-26.4-91.4-123z"/><path fill="#f2d0d6" d="M-23.7 298 326 477.1l-45.7-188z"/><path fill="#cddfd4" d="m131 231.2 8.7 7h15.9z"/><path fill="#ed9dc3" d="m101 196 15.9-38.7 15.8 3.5z"/></g></svg>