<svg xmlns="http://www.w3.org/2000/svg" width="298" height="450"><rect width="100%" height="100%" fill="#b37464"/><g fill-opacity=".5" transform="translate(.9 .9)scale(1.76)"><circle cx="114" cy="73" r="217" fill="#fff"/><circle cx="44" cy="113" r="197" fill="#ffddf5"/><circle cx="87" cy="123" r="36" fill="#a04651"/><circle cx="84" r="87" fill="#fbe8ef"/><circle cx="77" cy="135" r="31" fill="#d78d9a"/><circle cx="95" cy="113" r="31" fill="#b87a84"/><circle cx="92" cy="116" r="15" fill="#f8d0c0"/><circle cx="144" cy="136" r="28" fill="#fde0e4"/><circle cx="32" cy="81" r="41" fill="#f8dce6"/><circle cx="118" cy="115" r="6" fill="#4a0f21"/><circle cx="73" cy="107" r="8" fill="#6f363a"/><circle cx="72" cy="139" r="9" fill="#90276f"/><circle cx="87" cy="155" r="15" fill="#f5bcc2"/><circle cx="98" cy="99" r="5" fill="#41141b"/><circle cx="169" cy="68" r="48" fill="#fae3e8"/><circle cx="83" cy="103" r="7" fill="#ffe3d8"/><circle cx="113" cy="135" r="4" fill="#2b0f17"/><circle cx="106" cy="87" r="12" fill="#f9abc0"/><circle cx="91" cy="137" r="3" fill="#000001"/><circle cx="167" cy="163" r="58" fill="#f8d8dc"/><circle cx="108" cy="105" r="5" fill="#68253c"/><circle cx="108" cy="145" r="4" fill="#50282b"/><circle cx="83" cy="138" r="3" fill="#100013"/><circle cx="91" cy="93" r="3" fill="#1b0000"/><circle cy="162" r="50" fill="#f8d7df"/><circle cx="128" cy="104" r="11" fill="#ef9fb4"/><circle cx="73" cy="98" r="4" fill="#432028"/><circle cx="73" cy="137" r="3" fill="#150711"/><circle cx="107" cy="151" r="3" fill="#4c1523"/><circle cx="112" cy="140" r="3" fill="#3d1b21"/></g></svg>