<svg xmlns="http://www.w3.org/2000/svg" width="298" height="450"><g filter="blur(10px)"><rect width="200%" height="200%" x="-50%" y="-50%" fill="#b37464"/><rect width="100%" height="100%" fill="#b37464"/><g fill-opacity=".5" transform="translate(.9 .9)scale(1.76)"><circle cx="94" cy="87" r="194" fill="#fff"/><circle cx="67" cy="107" r="187" fill="#ffddf5"/><circle cx="87" cy="123" r="37" fill="#a24954"/><circle cx="84" r="87" fill="#fbe8ef"/><circle cx="147" cy="138" r="31" fill="#fde1e4"/><circle cx="30" cy="101" r="36" fill="#fadbe5"/><circle cx="120" cy="116" r="5" fill="#2a000a"/><circle cx="77" cy="135" r="31" fill="#d58c98"/><circle cx="72" cy="107" r="7" fill="#541d21"/><circle cx="74" cy="138" r="11" fill="#9a3177"/><circle cx="87" cy="156" r="15" fill="#f7c2c4"/><circle cx="91" cy="115" r="15" fill="#edc7b6"/><circle cx="98" cy="99" r="5" fill="#390a12"/><circle cx="169" cy="69" r="46" fill="#fae4e8"/><circle cx="91" cy="137" r="4" fill="#202"/><circle cx="112" cy="109" r="5" fill="#57172a"/><circle cx="112" cy="134" r="5" fill="#4a292a"/><circle cx="108" cy="90" r="11" fill="#f098b0"/><circle cx="91" cy="93" r="4" fill="#3c1515"/><circle cx="74" cy="97" r="4" fill="#351117"/><circle cx="125" cy="104" r="10" fill="#e489a1"/><circle cx="54" cy="77" r="26" fill="#f3d7de"/><circle cx="165" cy="166" r="57" fill="#f8d7dc"/><circle cx="85" cy="101" r="8" fill="#fadacb"/><circle cx="104" cy="104" r="4" fill="#461320"/><circle cx="86" cy="86" r="5" fill="#9e4557"/><circle cx="107" cy="144" r="5" fill="#764643"/><circle cx="24" cy="172" r="36" fill="#f8d5dd"/><circle cx="78" cy="112" r="4" fill="#762740"/><circle cx="119" cy="129" r="5" fill="#fff7fd"/></g></g></svg>