<svg xmlns="http://www.w3.org/2000/svg" width="300" height="450" viewBox="0 0 300 450"><g stroke-linecap="round"><path fill="rgba(244,219,227,255)" stroke="rgba(244,219,227,255)" d="M0 0h300L78 106 0 0"/><path fill="rgba(243,212,219,255)" stroke="rgba(243,212,219,255)" d="M300 0v450L199 246 300 0"/><path fill="rgba(243,212,221,255)" stroke="rgba(243,212,221,255)" d="M0 450V0l19 250L0 450"/><path fill="rgba(244,216,225,255)" stroke="rgba(244,216,225,255)" d="m0 0 78 106-59 144L0 0"/><path fill="rgba(241,204,210,255)" stroke="rgba(241,204,210,255)" d="M300 450H0l104-134 196 134"/><path fill="rgba(244,209,215,255)" stroke="rgba(244,209,215,255)" d="m199 246 101 204-196-134 95-70"/><path fill="rgba(242,207,215,255)" stroke="rgba(242,207,215,255)" d="m0 450 19-200 85 66L0 450"/><path fill="rgba(226,112,165,255)" stroke="rgba(226,112,165,255)" d="m199 246-95 70 29-112 66 42"/><path fill="rgba(226,171,186,255)" stroke="rgba(226,171,186,255)" d="m104 316-85-66 114-46-29 112"/><path fill="rgba(244,219,226,255)" stroke="rgba(244,219,226,255)" d="M78 106 300 0 129 179l-51-73"/><path fill="rgba(247,218,226,255)" stroke="rgba(247,218,226,255)" d="M300 0 199 246l-70-67L300 0"/><path fill="rgba(239,198,190,255)" stroke="rgba(239,198,190,255)" d="m199 246-66-42-4-25 70 67"/><path fill="rgba(244,215,223,255)" stroke="rgba(244,215,223,255)" d="m19 250 59-144 51 73-110 71"/><path fill="rgba(223,146,176,255)" stroke="rgba(223,146,176,255)" d="M133 204 19 250l110-71 4 25"/></g></svg>