<svg xmlns="http://www.w3.org/2000/svg" width="300" height="450" viewBox="0 0 300 450"><g filter="blur(20px)"><rect width="200%" height="200%" x="-50%" y="-50%" fill="#b37464"/><g stroke-linecap="round"><path fill="rgba(242,205,211,255)" stroke="rgba(242,205,211,255)" d="M300 450H0l119-132 181 132"/><path fill="rgba(243,210,215,255)" stroke="rgba(243,210,215,255)" d="M300 450 119 318l17-102 164 234"/><path fill="rgba(242,207,215,255)" stroke="rgba(242,207,215,255)" d="M119 318 0 450l115-214 4 82"/><path fill="rgba(175,71,120,255)" stroke="rgba(175,71,120,255)" d="m136 216-17 102-4-82 21-20"/><path fill="rgba(182,115,122,255)" stroke="rgba(182,115,122,255)" d="m136 216-21 20 27-75-6 55"/><path fill="rgba(243,213,223,255)" stroke="rgba(243,213,223,255)" d="M0 450V0l66 108L0 450"/><path fill="rgba(241,210,219,255)" stroke="rgba(241,210,219,255)" d="M115 236 0 450l66-342 49 128"/><path fill="rgba(244,219,227,255)" stroke="rgba(244,219,227,255)" d="M0 0h300L66 108 0 0"/><path fill="rgba(244,219,226,255)" stroke="rgba(244,219,226,255)" d="M300 0 142 161l-76-53L300 0"/><path fill="rgba(242,204,215,255)" stroke="rgba(242,204,215,255)" d="m142 161-27 75-49-128 76 53"/><path fill="rgba(244,214,218,255)" stroke="rgba(244,214,218,255)" d="M300 0v450L164 165 300 0"/><path fill="rgba(246,207,214,255)" stroke="rgba(246,207,214,255)" d="M300 450 136 216l28-51 136 285"/><path fill="rgba(232,205,200,255)" stroke="rgba(232,205,200,255)" d="m136 216 6-55 22 4-28 51"/><path fill="rgba(244,219,226,255)" stroke="rgba(244,219,226,255)" d="M142 161 300 0 164 165l-22-4"/></g></g></svg>