<svg xmlns="http://www.w3.org/2000/svg" width="298" height="450"><rect width="100%" height="100%" fill="#b37464"/><g fill-opacity=".5"><path fill="#fff" d="m326-27.2-54.4 504.4-298.8-457z"/><path fill="#fff" d="M-27.2 477.2 7.9-27.2l318.2 471z"/><path fill="#ffe9ff" d="M313.8 422.8 326-15 20.2-13.2z"/><path fill="#b05065" d="m167.9 324.3 70.3-165.2-170.5 3.5z"/><path fill="#ffdcf3" d="m-27.2 461.4 290 15.8-269-493.9z"/><path fill="#a84e58" d="m143.3 148.5-10.6 147.7-51-61.5z"/><path fill="#3f0910" d="m174.9 187.2-35.2-47.5 86.2 66.8z"/><path fill="#fae1ea" d="M326 13.2-13.1 271.6 2.6-27.2z"/><path fill="#fad0d9" d="m301.5 477.2 24.6-218-353.3 14.1z"/><path fill="#6f2c47" d="M199.5 257.5 124 241.7l82.6-12.3z"/><path fill="#fbdde3" d="m298-27.2 14 492.1L185.4 99.3z"/><path fill="#3e0719" d="m196 224.1 24.6-19.3-12.3-14z"/><path fill="#e3aea1" d="m139.7 153.8 51 144.1V192.5z"/><path fill="#ec92aa" d="m197.8 139.7 40.4 73.9-96.7-72.1z"/><path fill="#5d2f34" d="M115.1 183.7 124 196l30-47.5z"/><path fill="#532f30" d="m206.5 241.7-8.7-22.9-14.1 54.5z"/><path fill="#e7a1a6" d="m109.9 278.6 12.3-126.5-47.5 96.6z"/><path fill="#a52f72" d="m122.2 217-12.3 40.5 38.6 5.3z"/><path fill="#f4d7e0" d="m-27.2-2.6 219.7 5.2L-2.6 391.1z"/><path fill="#ebbbb6" d="m134.5 225.9 8.8-79.1 44 73.8z"/><path fill="#f5d4da" d="M203 224.1 326 117l-26.3 360.3z"/><path fill="#ed98aa" d="m136.2 294.4 63.3-54.5-70.3 8.8z"/><path fill="#080312" d="M129.2 238.2h45.7l-24.6 7z"/><path fill="#f4cdd4" d="M-27.2 435 326 477.3l-80.9-246z"/><path fill="#945358" d="m124 204.8 42.1-12.3-47.4-5.3z"/><path fill="#60272d" d="m141.5 157.3 45.7 24.6-33.4-31.6z"/><path fill="#aa6571" d="m169.6 240 24.6 33.3v-58z"/><path fill="#e091af" d="M199.5 238.2 88.8 183.7l45.7 54.5z"/><path fill="#e59baf" d="M139.7 143.3 247 178.4l-10.6 29.9z"/><path fill="#efc2be" d="m160.8 229.4-26.3-51 17.6-19.3z"/><path fill="#f4dce2" d="M326 268 285.7-27.1l-174 87.8z"/><path fill="#df9b9d" d="M150.3 268 131 296.3l-52.8-47.5z"/><path fill="#46192d" d="m192.5 252.2-5.3 10.6 5.3 7z"/><path fill="#4f192f" d="m185.4 182 19.4 5.2 15.8 22.9z"/><path fill="#f4d8dc" d="M199.5 255.8 305 356l-72-161.8z"/><path fill="#eadfbe" d="m127.4 269.8 47.5-10.5-8.8 19.3z"/><path fill="#62333f" d="m132.7 164.4 8.8 35.1-24.6-15.8z"/><path fill="#e160ad" d="m129.2 261 8.8-17.5h44z"/><path fill="#d9a090" d="M199.5 218.8 162.6 175l44 29.9z"/><path fill="#e9a8ba" d="m78.2 213.6 47.5-56.3-17.6 59.8z"/><path fill="#da869e" d="m190.7 159 24.6 38.8-70.3-54.5z"/><path fill="#36192b" d="m125.7 238.2 19.3 3.5-26.3 5.3z"/><path fill="#bf8779" d="m94 241.7 45.7-73.8-15.8 54.5z"/><path fill="#f3d9e1" d="m-8-27.2 300.7 68.5L16.7 233z"/><path fill="#c96ba2" d="M129.2 215.3 118.7 240l51-3.5z"/><path fill="#f4d7dc" d="m261 183.7-58 38.7 45.7 94.9z"/><path fill="#f2cdd4" d="m146.8 417.5 52.7-165.3 107.2 225z"/><path fill="#f3d2da" d="m-27.2 424.5 163.4-96.7-123-168.7z"/><path fill="#eaacbb" d="m167.9 150.3 17.5-19.3 63.3 75.5z"/><path fill="#7e4144" d="M166.1 189h-14l7 7z"/></g></svg>