<svg xmlns="http://www.w3.org/2000/svg" width="298" height="450"><rect width="100%" height="100%" fill="#b37464"/><g fill-opacity=".5" transform="translate(.9 .9)scale(1.75781)"><circle cx="96" cy="108" r="176" fill="#fff"/><circle cx="87" cy="112" r="169" fill="#ffddf5"/><circle cx="87" cy="124" r="37" fill="#a24954"/><circle cx="84" r="87" fill="#fbe8ef"/><circle cx="148" cy="140" r="32" fill="#fde1e4"/><circle cx="95" cy="111" r="30" fill="#bb7c85"/><circle cx="93" cy="117" r="15" fill="#fbcec0"/><circle cx="29" cy="97" r="39" fill="#f9dbe4"/><circle cx="86" cy="159" r="17" fill="#f8bfc3"/><circle cx="73" cy="106" r="8" fill="#6f3639"/><circle cx="118" cy="116" r="6" fill="#4c1626"/><circle cx="84" cy="102" r="8" fill="#ffe2d4"/><circle cx="65" cy="138" r="19" fill="#c86e87"/><circle cx="167" cy="69" r="45" fill="#fae4e8"/><circle cx="98" cy="100" r="5" fill="#43191b"/><circle cx="110" cy="135" r="7" fill="#724e47"/><circle cx="124" cy="128" r="9" fill="#feeaef"/><circle cx="71" cy="138" r="8" fill="#8a2a6b"/><circle cx="108" cy="106" r="5" fill="#612336"/><circle cx="162" cy="177" r="59" fill="#f8d5da"/><circle cx="92" cy="137" r="3"/><circle cx="107" cy="88" r="12" fill="#f9abc0"/><circle cx="92" cy="94" r="3" fill="#0c0000"/><circle cx="75" cy="96" r="4" fill="#431d24"/><circle cx="106" cy="146" r="5" fill="#7b4544"/><circle cx="72" cy="158" r="10" fill="#e5a6a3"/><circle cx="57" cy="77" r="24" fill="#f3d6de"/><circle cx="82" cy="137" r="3" fill="#0b1b24"/><circle cx="10" cy="181" r="53" fill="#f8d3db"/><circle cx="114" cy="110" r="3" fill="#2e000e"/></g></svg>