<svg xmlns="http://www.w3.org/2000/svg" width="298" height="450"><rect width="100%" height="100%" fill="#b37464"/><g fill-opacity=".5"><path fill="#fff" d="m-27.2 20.2 298.8 457L326-27.2z"/><path fill="#fff" d="M-27.2 477.2 326 443.8 7.9-27.2z"/><path fill="#fff4ff" d="M312-27.2-13.2.8l323.5 276z"/><path fill="#b3536b" d="m169.6 324.3-102-161.7h167z"/><path fill="#ffdef5" d="m.9 473.7 267.2 3.5L-6.2 23.7z"/><path fill="#ffebfd" d="m326 178.4-28 298.8-95-256.6z"/><path fill="#ac525e" d="m141.5 150.3-65 98.4 58 42.2z"/><path fill="#fbdeeb" d="M326 .9-27.1-4.4l28 274.2z"/><path fill="#2f000d" d="m213.6 197.8-44-15.9-22.8-35.1z"/><path fill="#faced7" d="m305 273.3-332.2-14 323.4 218z"/><path fill="#792a4e" d="m206.5 233-93.1 10.5 84.4 15.8z"/><path fill="#f0bfb5" d="m145 157.3 63.3 52.8-75.6 24.6z"/><path fill="#481428" d="m204.8 190.7 17.6 15.8-28.2 17.6z"/><path fill="#341316" d="m118.7 180.2 24.6-22.9-21.1 40.5z"/><path fill="#f099b1" d="m268 222.4-121.2-75.6 44-12.3z"/><path fill="#f9d9e0" d="m299.7 440.3 26.4-428.9-144.2 66.8z"/><path fill="#eba9ad" d="m106.3 275.1-36.9-31.6L124 159z"/><path fill="#f4a1b1" d="m196 243.5-66.8 56.2 5.3-52.7z"/><path fill="#63413a" d="m206.5 238.2-12.3-19.4-12.3 56.3z"/><path fill="#61214f" d="m109.9 255.8 61.5-15.9-54.5-3.5z"/><path fill="#f3d8e0" d="m197.8-6.2-225 5.3 38.6 365.6z"/><path fill="#f3d0d6" d="m326 141.5-29.8 335.7-156.5-156.4z"/><path fill="#e5a9ad" d="M197.8 248.7 87 199.5l98.4 5.3z"/><path fill="#e192a8" d="m241.7 176.7-105.5-37 96.7 70.4z"/><path fill="#f7d9df" d="m210 215.3-17.5 107.3L305 159z"/><path fill="#914c52" d="m125.7 204.8-7-12.3 49.2-1.8z"/><path fill="#d159a5" d="m113.4 238.2 59.7-3.5-40.4-19.4z"/><path fill="#db659b" d="M183.7 243.5 102.8 275l19.4-28.1z"/><path fill="#813543" d="m153.8 146.8-14 12.3 29.8 7z"/><path fill="#eec6c2" d="m162.6 229.4-8.8-58-19.3 5.3z"/><path fill="#f3d7e0" d="M36 189 27.2-27.2l149.5 168.7z"/><path fill="#561e30" d="m196 254-3.5 14-10.6 3.6z"/><path fill="#52202f" d="m192.5 196-21.1-24.6 52.7 33.4z"/><path fill="#d5a193" d="m173.1 176.7 35.2 31.6-22.9 21z"/><path fill="#d89195" d="m90.5 199.5 44 93.2-42.2-26.4z"/><path fill="#f5ced5" d="m215.3 477.2-242.5-38.6L80 227.6z"/><path fill="#090006" d="M145 243.5h33.4l-17.6-5.3z"/><path fill="#aa4871" d="m113.4 217 17.6 42.3h-16z"/><path fill="#e4b3b0" d="m162.6 247 38.7 35.1-84.4 12.3z"/><path fill="#65333e" d="m132.7 166.1 7 33.4-21-12.3z"/><path fill="#c38b7d" d="m118.7 227.6-30 17.6 47.5-70.3z"/><path fill="#f3cfd6" d="m294.4 477.2 31.7-189.8-353.3 10.5z"/><path fill="#411922" d="m171.4 178.4 28.1 8.8-44-29.9z"/><path fill="#38152b" d="M197.8 247v-30l5.2 19.4z"/><path fill="#f4dce4" d="M326 39.6 25.6-27.2 240 187.2z"/><path fill="#cd7887" d="m196 241.7-29.9-10.5 17.6 31.6z"/><path fill="#4c1619" d="m153.8 194.2 7-5.2v5.2z"/><path fill="#f1d3c5" d="m166.1 180.2-12.3 10.5-7-29.9z"/><path fill="#f4d7dc" d="m197.8 255.8 94.9-116L326 414z"/><path fill="#0b0000" d="m127.4 243.5-1.7-5.3 14 5.3z"/></g></svg>