<svg xmlns="http://www.w3.org/2000/svg" width="298" height="450"><rect width="100%" height="100%" fill="#b37464"/><g fill-opacity=".5" transform="translate(.9 .9)scale(1.75781)"><circle cx="72" cy="88" r="198" fill="#fff"/><circle cx="47" cy="127" r="181" fill="#ffddf5"/><circle cx="87" cy="124" r="37" fill="#a24954"/><circle cx="84" r="87" fill="#fbe8ef"/><circle cx="96" cy="111" r="30" fill="#bc7d85"/><circle cx="94" cy="118" r="15" fill="#f9ccbf"/><circle cx="147" cy="139" r="32" fill="#fde0e4"/><circle cx="30" cy="88" r="40" fill="#f8dce6"/><circle cx="86" cy="159" r="17" fill="#f8bfc3"/><circle cx="65" cy="139" r="19" fill="#c97088"/><circle cx="71" cy="105" r="7" fill="#62282d"/><circle cx="116" cy="115" r="8" fill="#713642"/><circle cx="169" cy="69" r="46" fill="#fae4e8"/><circle cx="85" cy="101" r="8" fill="#ffe6d3"/><circle cx="98" cy="99" r="5" fill="#41161c"/><circle cx="70" cy="139" r="8" fill="#8b2868"/><circle cx="113" cy="136" r="4" fill="#2a0b13"/><circle cx="106" cy="87" r="12" fill="#faadc2"/><circle cx="91" cy="136" r="3" fill="#000007"/><circle cx="168" cy="166" r="60" fill="#f7d7db"/><circle cx="107" cy="105" r="5" fill="#602436"/><circle cx="91" cy="93" r="4" fill="#3c1417"/><circle cx="106" cy="148" r="5" fill="#754241"/><circle cx="84" cy="137" r="3" fill="#05111f"/><circle cx="4" cy="171" r="55" fill="#f8d4dd"/><circle cx="102" cy="118" r="12" fill="#e1b3a1"/><circle cx="76" cy="96" r="4" fill="#491f25"/><circle cx="72" cy="157" r="9" fill="#e4a5a0"/><circle cx="110" cy="129" r="4" fill="#522b34"/><circle cx="53" cy="136" r="12" fill="#e5aca7"/></g></svg>