<svg xmlns="http://www.w3.org/2000/svg" width="300" height="450" viewBox="0 0 300 450"><g stroke-linecap="round"><path fill="rgba(245,214,221,255)" stroke="rgba(245,214,221,255)" d="M300 0v450L197 226 300 0"/><path fill="rgba(242,205,211,255)" stroke="rgba(242,205,211,255)" d="M300 450H0l145-138 155 138"/><path fill="rgba(243,210,215,255)" stroke="rgba(243,210,215,255)" d="m197 226 103 224-155-138 52-86"/><path fill="rgba(244,219,226,255)" stroke="rgba(244,219,226,255)" d="M0 0h300L151 153 0 0"/><path fill="rgba(246,218,226,255)" stroke="rgba(246,218,226,255)" d="M300 0 197 226l-46-73L300 0"/><path fill="rgba(243,205,214,255)" stroke="rgba(243,205,214,255)" d="M145 312 0 450l90-131 55-7"/><path fill="rgba(242,211,220,255)" stroke="rgba(242,211,220,255)" d="M0 450V0l77 314L0 450"/><path fill="rgba(243,205,214,255)" stroke="rgba(243,205,214,255)" d="M90 319 0 450l77-136 13 5"/><path fill="rgba(243,210,217,255)" stroke="rgba(243,210,217,255)" d="m145 312-55 7-13-5 68-2"/><path fill="rgba(216,216,218,255)" stroke="rgba(216,216,218,255)" d="m197 226-52 86-18-133 70 47"/><path fill="rgba(216,153,146,255)" stroke="rgba(216,153,146,255)" d="m145 312-68 2 50-135 18 133"/><path fill="rgba(228,191,184,255)" stroke="rgba(228,191,184,255)" d="m151 153 46 73-70-47 24-26"/><path fill="rgba(243,218,225,255)" stroke="rgba(243,218,225,255)" d="m0 0 151 153-24 26L0 0"/><path fill="rgba(243,215,223,255)" stroke="rgba(243,215,223,255)" d="M77 314 0 0l127 179-50 135"/></g></svg>