<svg xmlns="http://www.w3.org/2000/svg" width="298" height="450"><g filter="blur(10px)"><rect width="200%" height="200%" x="-50%" y="-50%" fill="#b37464"/><rect width="100%" height="100%" fill="#b37464"/><g fill-opacity=".5" transform="translate(.9 .9)scale(1.76)"><circle cx="84" cy="104" r="176" fill="#fff"/><circle cx="90" cy="38" r="248" fill="#ffddf5"/><circle cx="87" cy="123" r="37" fill="#a24954"/><circle cx="84" r="87" fill="#fbe8ef"/><circle cx="145" cy="139" r="30" fill="#fde1e4"/><circle cx="30" cy="99" r="37" fill="#fadbe5"/><circle cx="119" cy="115" r="6" fill="#43051b"/><circle cx="78" cy="134" r="32" fill="#d48d97"/><circle cx="71" cy="107" r="7" fill="#571f21"/><circle cx="74" cy="138" r="11" fill="#9a3077"/><circle cx="85" cy="157" r="16" fill="#f7c0c4"/><circle cx="92" cy="116" r="15" fill="#eec6b7"/><circle cx="99" cy="99" r="5" fill="#400c18"/><circle cx="112" cy="135" r="5" fill="#452223"/><circle cx="167" cy="69" r="46" fill="#fae4e8"/><circle cx="107" cy="89" r="11" fill="#f199b0"/><circle cx="91" cy="136" r="4" fill="#270129"/><circle cx="111" cy="107" r="5" fill="#601831"/><circle cx="92" cy="94" r="4" fill="#330e0f"/><circle cx="75" cy="97" r="4" fill="#3a1218"/><circle cx="86" cy="100" r="7" fill="#ffe7d3"/><circle cx="125" cy="104" r="10" fill="#e68ba3"/><circle cx="169" cy="167" r="61" fill="#f8d7db"/><circle cx="87" cy="88" r="5" fill="#8b3847"/><circle cx="107" cy="144" r="5" fill="#744543"/><circle cx="57" cy="77" r="24" fill="#f3d7de"/><circle cx="111" cy="129" r="3" fill="#321020"/><circle cx="84" cy="138" r="3" fill="#140113"/><circle cx="106" cy="104" r="4" fill="#551b2e"/><circle cx="77" cy="111" r="3" fill="#41071d"/></g></g></svg>