<svg xmlns="http://www.w3.org/2000/svg" width="298" height="450"><g filter="blur(10px)"><rect width="200%" height="200%" x="-50%" y="-50%" fill="#b37464"/><rect width="100%" height="100%" fill="#b37464"/><g fill-opacity=".5" transform="translate(.9 .9)scale(1.76)"><circle cx="123" cy="73" r="220" fill="#fff"/><circle cx="132" cy="119" r="203" fill="#ffddf5"/><circle cx="87" cy="123" r="37" fill="#a24954"/><circle cx="84" r="87" fill="#fbe8ef"/><circle cx="145" cy="140" r="30" fill="#fde1e4"/><circle cx="78" cy="133" r="32" fill="#d68f9a"/><circle cx="71" cy="107" r="7" fill="#572022"/><circle cx="34" cy="84" r="38" fill="#f8dce6"/><circle cx="118" cy="115" r="7" fill="#58192c"/><circle cx="74" cy="138" r="11" fill="#992f76"/><circle cx="86" cy="156" r="16" fill="#f6bcc1"/><circle cx="93" cy="116" r="14" fill="#efcab7"/><circle cx="100" cy="102" r="6" fill="#5e2a2c"/><circle cx="169" cy="73" r="44" fill="#fbe4e9"/><circle cx="108" cy="136" r="9" fill="#7f4f52"/><circle cx="92" cy="94" r="4" fill="#320c0e"/><circle cx="91" cy="137" r="4" fill="#210021"/><circle cx="103" cy="87" r="11" fill="#e893aa"/><circle cx="109" cy="107" r="5" fill="#5e2031"/><circle cx="85" cy="100" r="7" fill="#ffead6"/><circle cx="87" cy="87" r="5" fill="#923b4d"/><circle cx="163" cy="169" r="56" fill="#f8d7db"/><circle cx="73" cy="98" r="4" fill="#36121a"/><circle cx="123" cy="104" r="9" fill="#e4839e"/><circle cy="160" r="49" fill="#f8d7e0"/><circle cx="107" cy="148" r="4" fill="#572830"/><circle cx="96" cy="97" r="3" fill="#0c0000"/><circle cx="96" cy="119" r="16" fill="#e2a8a9"/><circle cx="123" cy="128" r="8" fill="#fdeaef"/><circle cx="31" cy="44" r="65" fill="#f3d9e2"/></g></g></svg>