<svg xmlns="http://www.w3.org/2000/svg" width="298" height="450"><rect width="100%" height="100%" fill="#b37464"/><g fill-opacity=".5"><path fill="#fff" d="m269.8 477.2-297-458.7L326-27.2z"/><path fill="#fff" d="m326 443.8-353.2 33.4L7.9-27.2z"/><path fill="#ffe9ff" d="M9.7-27.2 326 438.6 312-1z"/><path fill="#af4d62" d="m167.9 320.8 73.8-165.2-170.5 15.8z"/><path fill="#ffdcf3" d="M261 477.2-6.2-13.2l-21 458.8z"/><path fill="#a94e59" d="m129.2 289.2 14-139-66.7 95z"/><path fill="#460d16" d="m178.4 190.7 47.5 15.8-82.6-65z"/><path fill="#fee0e7" d="M298 477.2 308.4-7.9l-153-19.3z"/><path fill="#f8dfe8" d="M-11.4 285.6 326-7.9-27.2-2.6z"/><path fill="#702949" d="m116.9 241.7 80.9 15.8 10.5-24.6z"/><path fill="#f8cdd6" d="m312 273.3-15.8 204-323.4-212.7z"/><path fill="#5f2a2f" d="m125.7 166.1 36.9-19.3-45.7 45.7z"/><path fill="#f1c6b5" d="m153.8 238.2 49.2-38.7-61.5-36.9z"/><path fill="#481b26" d="M218.8 204.8 203 192.5l-10.5 40.4z"/><path fill="#ee98af" d="m262.8 229.4-70.3-89.7-45.7 7z"/><path fill="#e691a5" d="M194.2 245.2H73l59.8 49.2z"/><path fill="#641d4c" d="m118.7 240-12.4 21 58-22.8z"/><path fill="#e08fa6" d="m85.3 227.6 15.8-42.2 98.4 56.3z"/><path fill="#f4d5da" d="m203 220.6 84.4 253.1L317.3 145z"/><path fill="#573530" d="m197.8 222.4 8.7 19.3-24.6 31.6z"/><path fill="#f5d5dd" d="M15-27.2-27.3 449l140.6-121.3z"/><path fill="#f4ccd3" d="m320.8 477.2-154.7-232L27.2 442.1z"/><path fill="#461218" d="m162.6 155.6-17.6-1.8 31.7 21.1z"/><path fill="#5c3039" d="m143.3 199.5-24.6-7L131 166z"/><path fill="#f3d9e1" d="m326 30.8-330.4-58L6.2 245.2z"/><path fill="#e1b4aa" d="m129.2 180.2 73.8 77.3-52.7-98.4z"/><path fill="#e2a6a3" d="m80 248.7 28 28.3 14-123z"/><path fill="#e568a6" d="m194.2 245.2-61.5 21.1-10.5-19.3z"/><path fill="#e9a5b6" d="m252.2 201.3-112.5-58 49.3-8.8z"/><path fill="#693044" d="m196 268 3.5-26.3-17.6 29.9z"/><path fill="#732f35" d="m167.9 189-12.3 1.7v7z"/><path fill="#b94586" d="m115.1 218.8 42.2 14.1-42.2 3.5z"/><path fill="#deae9a" d="m160.8 174.9 15.9 56.3 31.6-22.9z"/><path fill="#d1998e" d="m160.8 280.4 37-47.5-21.1 56.3z"/><path fill="#f0accb" d="M109.9 190.7v-26.3l26.3-12.3z"/><path fill="#b15474" d="m127.4 257.5-19.3 7 12.3-49.2z"/><path fill="#f4d6db" d="m203 224.1 117.8 239-5.3-319.8z"/><path fill="#f5bccb" d="m183.7 287.4 15.8-35.2 10.6 14.1z"/><path fill="#1a0d1c" d="m171.4 243.5-28.1-1.8 24.6-7z"/><path fill="#f9dbe0" d="m153.8 83.5 124.8 95-66.8-12.4z"/><path fill="#3b0c21" d="m218.8 208.3-5.2-12.3-17.6-5.3z"/><path fill="#d479ac" d="m173.1 224.1-3.5 12.3-19.3 3.5z"/><path fill="#be8678" d="m131 185.4 5.2 30-44 28z"/><path fill="#dd89a1" d="m176.7 148.5 24.6 40.5-51-42.2z"/><path fill="#13010e" d="M139.7 243.5h-10.5l-3.5-7z"/><path fill="#5f2639" d="m211.8 211.8 8.8-10.5-40.4-24.6z"/><path fill="#ebc5b9" d="m160.8 196 22.9 26.4-58-12.3z"/><path fill="#452031" d="m192.5 222.4 8.8 24.6 3.5-14z"/><path fill="#f3dde4" d="M296.2 152-23.8-.8l349.9-10.5z"/><path fill="#e4c2ab" d="m180.2 264.6-56.3-3.6 15.8 33.4z"/></g></svg>