<svg xmlns="http://www.w3.org/2000/svg" width="298" height="450"><rect width="100%" height="100%" fill="#b37464"/><g fill-opacity=".5" transform="translate(.9 .9)scale(1.75781)"><circle cx="87" cy="74" r="216" fill="#fff"/><circle cx="89" cy="127" r="169" fill="#ffddf5"/><circle cx="87" cy="123" r="37" fill="#a24954"/><circle cx="84" r="87" fill="#fbe8ef"/><circle cx="144" cy="138" r="29" fill="#fde1e4"/><circle cx="120" cy="115" r="5" fill="#2b0007"/><circle cx="77" cy="133" r="32" fill="#d7909b"/><circle cx="71" cy="107" r="7" fill="#572021"/><circle cx="27" cy="91" r="43" fill="#f9dce5"/><circle cx="74" cy="139" r="11" fill="#9a3074"/><circle cx="86" cy="157" r="16" fill="#f6bfc2"/><circle cx="96" cy="98" r="4" fill="#150000"/><circle cx="93" cy="116" r="14" fill="#efcab6"/><circle cx="169" cy="71" r="46" fill="#fbe4e8"/><circle cx="103" cy="136" r="13" fill="#9c5a6d"/><circle cx="111" cy="109" r="5" fill="#5b1e2d"/><circle cx="103" cy="103" r="5" fill="#5b232f"/><circle cx="90" cy="89" r="7" fill="#974c5a"/><circle cx="106" cy="88" r="12" fill="#ed99af"/><circle cx="86" cy="101" r="8" fill="#f8ddca"/><circle cx="169" cy="175" r="64" fill="#f8d6db"/><circle cx="96" cy="120" r="15" fill="#e6adad"/><circle cx="90" cy="136" r="4" fill="#290f2f"/><circle cx="127" cy="104" r="11" fill="#e994aa"/><circle cx="75" cy="97" r="4" fill="#3a1218"/><circle cx="84" cy="137" r="2"/><circle cx="112" cy="133" r="4" fill="#3f2224"/><circle cx="20" cy="175" r="41" fill="#f8d5dd"/><circle cx="73" cy="138" r="3" fill="#1b0214"/><circle cx="41" cy="39" r="63" fill="#f3dae2"/></g></svg>