<svg xmlns="http://www.w3.org/2000/svg" width="300" height="450" viewBox="0 0 300 450"><g stroke-linecap="round"><path fill="rgba(241,204,210,255)" stroke="rgba(241,204,210,255)" d="M300 450H0l121-65 179 65"/><path fill="rgba(243,212,221,255)" stroke="rgba(243,212,221,255)" d="M0 450V0l14 286L0 450"/><path fill="rgba(243,205,214,255)" stroke="rgba(243,205,214,255)" d="M121 385 0 450l14-164 107 99"/><path fill="rgba(245,208,214,255)" stroke="rgba(245,208,214,255)" d="m300 450-179-65 43-88 136 153"/><path fill="rgba(243,208,216,255)" stroke="rgba(243,208,216,255)" d="M121 385 14 286l150 11-43 88"/><path fill="rgba(243,215,223,255)" stroke="rgba(243,215,223,255)" d="M14 286 0 0l127 222-113 64"/><path fill="rgba(228,155,174,255)" stroke="rgba(228,155,174,255)" d="M164 297 14 286l113-64 37 75"/><path fill="rgba(231,124,176,255)" stroke="rgba(231,124,176,255)" d="m154 241 10 56-37-75 27 19"/><path fill="rgba(244,215,221,255)" stroke="rgba(244,215,221,255)" d="M300 0v450L174 194 300 0"/><path fill="rgba(243,210,215,255)" stroke="rgba(243,210,215,255)" d="M300 450 164 297l10-103 126 256"/><path fill="rgba(48,38,50,255)" stroke="rgba(48,38,50,255)" d="m164 297-10-56 20-47-10 103"/><path fill="rgba(243,218,225,255)" stroke="rgba(243,218,225,255)" d="M0 0h300L174 194 0 0"/><path fill="rgba(244,216,224,255)" stroke="rgba(244,216,224,255)" d="M127 222 0 0l174 194-47 28"/><path fill="rgba(232,144,168,255)" stroke="rgba(232,144,168,255)" d="m154 241-27-19 47-28-20 47"/></g></svg>