<svg xmlns="http://www.w3.org/2000/svg" width="300" height="450" viewBox="0 0 300 450"><g stroke-linecap="round"><path fill="rgba(244,219,226,255)" stroke="rgba(244,219,226,255)" d="M0 0h300l-90 210L0 0"/><path fill="rgba(244,215,223,255)" stroke="rgba(244,215,223,255)" d="M50 271 0 0l210 210-160 61"/><path fill="rgba(244,215,221,255)" stroke="rgba(244,215,221,255)" d="M300 0v450l-90-240L300 0"/><path fill="rgba(227,174,170,255)" stroke="rgba(227,174,170,255)" d="m50 271 160-61-53 140-107-79"/><path fill="rgba(244,209,215,255)" stroke="rgba(244,209,215,255)" d="m210 210 90 240-143-100 53-140"/><path fill="rgba(242,211,220,255)" stroke="rgba(242,211,220,255)" d="M0 450V0l36 300L0 450"/><path fill="rgba(243,213,223,255)" stroke="rgba(243,213,223,255)" d="m0 0 50 271-14 29L0 0"/><path fill="rgba(243,205,214,255)" stroke="rgba(243,205,214,255)" d="M37 367 0 450l36-150 1 67"/><path fill="rgba(244,209,217,255)" stroke="rgba(244,209,217,255)" d="m50 271 107 79-121-50 14-29"/><path fill="rgba(241,204,210,255)" stroke="rgba(241,204,210,255)" d="M300 450H0l143-84 157 84"/><path fill="rgba(243,206,212,255)" stroke="rgba(243,206,212,255)" d="m157 350 143 100-157-84 14-16"/><path fill="rgba(242,204,213,255)" stroke="rgba(242,204,213,255)" d="m0 450 37-83 106-1L0 450"/><path fill="rgba(242,207,215,255)" stroke="rgba(242,207,215,255)" d="m37 367-1-67 107 66-106 1"/><path fill="rgba(242,207,215,255)" stroke="rgba(242,207,215,255)" d="m36 300 121 50-14 16-107-66"/></g></svg>