<svg xmlns="http://www.w3.org/2000/svg" width="298" height="450"><rect width="100%" height="100%" fill="#b37464"/><g fill-opacity=".5"><path fill="#fff" d="m326-27.2-54.4 504.4L-27.2 18.5z"/><path fill="#fff" d="M-27.2 477.2 326 443.8 7.9-27.2z"/><path fill="#ffe9ff" d="M313.8 421 326-27.2H9.7z"/><path fill="#ae4d61" d="m67.7 167.9 110.7 152.9 51-165.2z"/><path fill="#ffdbf3" d="m-11.4-27.2 276 504.4-291.8-17.5z"/><path fill="#a94c58" d="m80 238.2 56.2 59.7 1.8-140.6z"/><path fill="#501620" d="m148.5 152 61.6 66.8 12.3-21z"/><path fill="#fbd0d9" d="M294.4 477.2-27.2 271.6l349.8-5.3z"/><path fill="#fae0ea" d="M8 259.3-27.3-27.2 326 6.2z"/><path fill="#732947" d="m194.2 261-68.5-19.3 82.6-8.8z"/><path fill="#f3a7bb" d="m225.9 148.5 21 70.3-114.2-82.6z"/><path fill="#edbeaf" d="m132.7 229.4 80.9-15.8-70.3-56.3z"/><path fill="#60272c" d="m116.9 183.7 45.7-29.9-22.9-1.7z"/><path fill="#fbdfe4" d="m303.2-27.2-123 145.9L326 345.4z"/><path fill="#e78ea2" d="m127.4 294.4 72.1-52.7-116 12.3z"/><path fill="#69184f" d="M169.6 238.2 113.4 261v-19.3z"/><path fill="#43282f" d="m192.5 224.1 14-10.5-7 36.9z"/><path fill="#f7d7dc" d="m203 218.8 109-52.7-14 307.6z"/><path fill="#eaa9ad" d="m74.7 227.6 29.9 52.8 15.8-117.8z"/><path fill="#3a1117" d="m148.5 148.5 44 35.2-22.9-3.5z"/><path fill="#492229" d="m131 169.6 10.5 28.2-24.6-7z"/><path fill="#f3ccd3" d="m326 456.2-353.2-12.4 196.8-188z"/><path fill="#42171d" d="m192.5 268-12.3 3.6 19.3-28.1z"/><path fill="#f3d8e0" d="m-11.4-18.5-15.8 397.3L213.6 18.5z"/><path fill="#290011" d="m210 210-3.5-15.8 15.9 15.9z"/><path fill="#e59caf" d="M250.5 201.3 143.3 145l47.4-7z"/><path fill="#ed7ab0" d="m125.7 269.8 1.7-24.6h65z"/><path fill="#fadee3" d="M236.4 197.8 201.3 224l28 31.7z"/><path fill="#e187ae" d="m111.6 196 89.7 45.7-68.6-7z"/><path fill="#311a2c" d="m146.8 241.7 17.6-7 14 8.8z"/><path fill="#e3b5ab" d="m143.3 157.3 8.8 73.9L196 196z"/><path fill="#8f4e4e" d="m159 197.8-3.4-5.3 17.5-10.6z"/><path fill="#d29c90" d="m155.6 289.2 21-3.6 19.4-51z"/><path fill="#e5c9ae" d="m115.1 266.3 38.7 24.6 26.4-31.6z"/><path fill="#ba4986" d="m115.1 218.8 35.2 10.6-37 15.8z"/><path fill="#f2d0d7" d="m299.7 477.2-327-174 337.6-15.8z"/><path fill="#edc4be" d="m145 160.8-12.3 22.9 38.7 1.7z"/><path fill="#f3d6e0" d="M146.8 152-2.6-27.1l35.1 228.5z"/><path fill="#e9a8b8" d="m247 183.7-70.3-37 56.2 59.8z"/><path fill="#c28a76" d="m94 245.2-3.5-17.6 51-28z"/><path fill="#e5a5ac" d="m102.8 180.2 21.1 26.3L83.5 233z"/><path fill="#f4d2db" d="M90.5 247-27.2 475.5l51-332.2z"/><path fill="#f4d4d9" d="M196 259.3 326 449l-56.2-290z"/><path fill="#3c1926" d="m194.2 222.4 10.6 12.3-3.5 12.3z"/><path fill="#864a56" d="m187.2 231.2 12.3-22.9 15.8 1.8z"/><path fill="#db77a1" d="m157.3 238.2-12.3-14 51 12.2z"/><path fill="#f4dde3" d="M-6.2-27.2 326.1-4.4 252.2 189z"/><path fill="#c67279" d="m153.8 259.3-52.7-3.5 21 10.5z"/><path fill="#421424" d="m185.4 182 26.4 15.8-19.3-5.3z"/><path fill="#d69e8f" d="m210 204.8-51-29.9 31.7 47.5z"/></g></svg>