<svg xmlns="http://www.w3.org/2000/svg" width="300" height="450" viewBox="0 0 300 450"><g filter="blur(12px)"><rect width="200%" height="200%" x="-50%" y="-50%" fill="#b37464"/><g stroke-linecap="round"><path fill="rgba(244,213,220,255)" stroke="rgba(244,213,220,255)" d="M300 0v450l-43-149L300 0"/><path fill="rgba(244,219,226,255)" stroke="rgba(244,219,226,255)" d="M0 0h300L161 165 0 0"/><path fill="rgba(246,217,223,255)" stroke="rgba(246,217,223,255)" d="m300 0-43 301-96-136L300 0"/><path fill="rgba(244,216,224,255)" stroke="rgba(244,216,224,255)" d="m0 0 161 165-41 17L0 0"/><path fill="rgba(243,214,222,255)" stroke="rgba(243,214,222,255)" d="M0 450V0l105 187L0 450"/><path fill="rgba(244,216,224,255)" stroke="rgba(244,216,224,255)" d="m0 0 120 182-15 5L0 0"/><path fill="rgba(242,209,216,255)" stroke="rgba(242,209,216,255)" d="M110 314 0 450l105-263 5 127"/><path fill="rgba(242,205,211,255)" stroke="rgba(242,205,211,255)" d="M300 450H0l148-135 152 135"/><path fill="rgba(244,206,215,255)" stroke="rgba(244,206,215,255)" d="m0 450 110-136 38 1L0 450"/><path fill="rgba(244,209,215,255)" stroke="rgba(244,209,215,255)" d="m257 301 43 149-152-135 109-14"/><path fill="rgba(107,59,69,255)" stroke="rgba(107,59,69,255)" d="m161 165 96 136-109 14 13-150"/><path fill="rgba(225,126,165,255)" stroke="rgba(225,126,165,255)" d="m120 182 41-17-13 150-28-133"/><path fill="rgba(229,171,162,255)" stroke="rgba(229,171,162,255)" d="m110 314-5-127 43 128-38-1"/><path fill="rgba(210,92,150,255)" stroke="rgba(210,92,150,255)" d="m105 187 15-5 28 133-43-128"/></g></g></svg>