<svg xmlns="http://www.w3.org/2000/svg" width="298" height="450"><rect width="100%" height="100%" fill="#b37464"/><g fill-opacity=".5"><path fill="#fff" d="m326-27.2-54.4 504.4-298.8-457z"/><path fill="#fff" d="M326 445.6 8-27.2l-35.2 495.7z"/><path fill="#ffe9ff" d="m11.4-27.2 302.4 450-7-441.3z"/><path fill="#af4e62" d="m167.9 315.5 75.6-160-174 12.4z"/><path fill="#ffdbf3" d="m-9.7-27.2 274.3 504.4-267.2-21z"/><path fill="#a94e5a" d="m76.5 247 66.8-98.5L131 291z"/><path fill="#410e15" d="m174.9 189 59.8 22.8-86.2-63.3z"/><path fill="#fee0e7" d="m159-25.5 137.2 502.7L326-2.6z"/><path fill="#f8dfe8" d="m-22-2.6 42.2 265.4 305.9-276z"/><path fill="#712e4c" d="m210 229.4-14 26.4-80.9-14.1z"/><path fill="#f8cdd6" d="m319 282.1-346.2-26.3L282 477.2z"/><path fill="#ebbbaf" d="m204.8 204.8-65-54.5v89.6z"/><path fill="#55242a" d="m157.3 148.5-42.2 45.7 15.9-33.4z"/><path fill="#ec95ac" d="m192.5 139.7-52.8 3.6 117.8 72z"/><path fill="#4e1929" d="m215.3 208.3-3.5-21-21 43.9z"/><path fill="#e48ea3" d="m80 248.7 47.4 49.2 72.1-56.2z"/><path fill="#5f1649" d="m167.9 238.2-51 19.3-3.5-17.6z"/><path fill="#de8fa3" d="m101 183.7 96.8 54.5-112.5-3.5z"/><path fill="#350b14" d="m190.7 269.8 14-33.4-21 26.4z"/><path fill="#f5d6da" d="m199.5 225.9 126.6 126.5L305 141.5z"/><path fill="#f4d7e0" d="M27.2 477.2 146.8-16.7l-174 12.3z"/><path fill="#5a2d35" d="m139.7 199.5-14-31.6-5.3 31.6z"/><path fill="#662932" d="m159 150.3-19.3 5.3 47.5 26.3z"/><path fill="#ea6bad" d="M120.4 245.2h66.8l-54.5 21.1z"/><path fill="#2e131c" d="m194.2 222.4 8.8 26.3v-17.5z"/><path fill="#f4cdd3" d="M326 445.6 160.9 248.7 64.2 477.2z"/><path fill="#ecc0b9" d="m150.3 211.8 12.3-40.4-24.6-24.6z"/><path fill="#e5a7a9" d="m122.2 160.8-47.5 75.6 28.1 40.5z"/><path fill="#e698af" d="m222.4 203-88-65 93.2 31.6z"/><path fill="#c25692" d="m109.9 243.5 8.8-28.2 43.9 14z"/><path fill="#f3dde3" d="m326-9.7-87.8 189.9-225-207.4z"/><path fill="#7c3e3d" d="m159 196 8.9-5.3-12.3-1.7z"/><path fill="#e9beb0" d="m180.2 187.2 10.5 56.3-52.7-37z"/><path fill="#f3d7de" d="M248.7 36 122.2 171.4l-149.4-21.1z"/><path fill="#37121c" d="m194.2 185.4-33.4-26.3 7 17.6z"/><path fill="#c08978" d="m132.7 182-1.7 36.8L85.3 247z"/><path fill="#000904" d="m167.9 241.7-31.7 1.8 15.9-5.3z"/><path fill="#f4d6db" d="M303.2 155.6 299.7 384l-98.4-160z"/><path fill="#e2b3ac" d="m204.8 282.1-77.4-21 7 33.3z"/><path fill="#481028" d="m222.4 208.3-12.3-3.5-8.8-19.4z"/><path fill="#ebb0be" d="m167.9 143.3 86.1 38.6-21 22.9z"/><path fill="#c6ece5" d="m153.8 234.7 3.5 5.2-17.6-3.5z"/><path fill="#ab4d70" d="m109.9 259.3 8.8-35.2 14 38.7z"/><path fill="#f3cdd4" d="m-27.2 452.6 109-225 84.3 218z"/><path fill="#daa794" d="m157.3 169.6 26.4 54.5 24.6-15.8z"/><path fill="#c2817d" d="m197.8 217-15.9 56.3-7-38.6z"/><path fill="#e592b7" d="M87 240v-37l33.4-40.4z"/><path fill="#ebc9b1" d="m97.6 220.6 7-26.4 17.6 8.8z"/><path fill="#6a2c40" d="m134.5 199.5-1.8-14 10.6 12.3z"/><path fill="#f3d1d7" d="m326 473.7-49.1-160L2.6 269.9z"/></g></svg>