<svg xmlns="http://www.w3.org/2000/svg" width="298" height="450"><rect width="100%" height="100%" fill="#b37464"/><g fill-opacity=".5" transform="translate(.9 .9)scale(1.75781)"><circle cx="105" cy="127" r="169" fill="#fff"/><circle cx="63" cy="123" r="171" fill="#ffddf5"/><circle cx="87" cy="123" r="37" fill="#a24954"/><circle cx="84" r="87" fill="#fbe8ef"/><circle cx="146" cy="141" r="31" fill="#fde1e4"/><circle cx="119" cy="115" r="6" fill="#44061b"/><circle cx="77" cy="133" r="32" fill="#d7909b"/><circle cx="72" cy="107" r="7" fill="#521b1e"/><circle cx="31" cy="99" r="36" fill="#f9dbe5"/><circle cx="76" cy="136" r="13" fill="#a63d81"/><circle cx="87" cy="157" r="16" fill="#f5c0c2"/><circle cx="98" cy="99" r="5" fill="#3d0f15"/><circle cx="91" cy="118" r="15" fill="#efc0b6"/><circle cx="169" cy="69" r="48" fill="#fae3e8"/><circle cx="105" cy="137" r="12" fill="#955766"/><circle cx="106" cy="86" r="13" fill="#f0a3b7"/><circle cx="91" cy="136" r="3"/><circle cx="164" cy="171" r="58" fill="#f8d6db"/><circle cx="111" cy="108" r="5" fill="#5c1a2e"/><circle cx="92" cy="94" r="3" fill="#080000"/><circle cx="85" cy="101" r="8" fill="#fbdfcc"/><circle cx="125" cy="103" r="10" fill="#e88ea6"/><circle cx="88" cy="87" r="5" fill="#933a4e"/><circle cx="75" cy="99" r="5" fill="#65333b"/><circle cx="15" cy="36" r="82" fill="#f3dae2"/><circle cx="127" cy="130" r="12" fill="#f6dfe4"/><circle cx="105" cy="103" r="3" fill="#2c000b"/><circle cx="74" cy="137" r="3" fill="#000004"/><circle cx="20" cy="177" r="43" fill="#f8d4dc"/><circle cx="84" cy="138" r="3" fill="#160b12"/></g></svg>