<svg xmlns="http://www.w3.org/2000/svg" width="298" height="450"><rect width="100%" height="100%" fill="#b37464"/><g fill-opacity=".5" transform="translate(.9 .9)scale(1.76)"><circle cx="136" cy="92" r="221" fill="#fff"/><circle cx="90" cy="76" r="221" fill="#ffddf5"/><circle cx="87" cy="123" r="37" fill="#a24954"/><circle cx="84" r="87" fill="#fbe8ef"/><circle cx="145" cy="140" r="30" fill="#fde1e4"/><circle cx="117" cy="114" r="8" fill="#6c293a"/><circle cx="33" cy="103" r="33" fill="#fadae4"/><circle cx="76" cy="134" r="31" fill="#d58b98"/><circle cx="72" cy="108" r="7" fill="#561f21"/><circle cx="73" cy="138" r="11" fill="#9a3276"/><circle cx="86" cy="156" r="16" fill="#f6bcc2"/><circle cx="93" cy="116" r="14" fill="#f1ccb8"/><circle cx="98" cy="98" r="5" fill="#400e19"/><circle cx="169" cy="71" r="46" fill="#fbe4e8"/><circle cx="106" cy="86" r="13" fill="#f1a4b8"/><circle cx="113" cy="134" r="4" fill="#20020c"/><circle cx="91" cy="137" r="4" fill="#202"/><circle cx="23" cy="38" r="75" fill="#f4dae3"/><circle cx="107" cy="105" r="5" fill="#5d1f31"/><circle cx="85" cy="101" r="7" fill="#ffebd7"/><circle cx="74" cy="97" r="5" fill="#552a31"/><circle cx="89" cy="90" r="7" fill="#924c55"/><circle cx="125" cy="103" r="10" fill="#eb92a9"/><circle cx="135" cy="220" r="64" fill="#f9d2d7"/><circle cx="108" cy="145" r="4" fill="#51282a"/><circle cx="26" cy="184" r="43" fill="#f8d3db"/><circle cx="121" cy="129" r="7" fill="#fff1f6"/><circle cx="84" cy="137" r="2"/><circle cx="137" cy="157" r="28" fill="#f3d5db"/><circle cx="109" cy="118" r="7" fill="#e8b09e"/></g></svg>