<svg xmlns="http://www.w3.org/2000/svg" width="298" height="450"><rect width="100%" height="100%" fill="#b37464"/><g fill-opacity=".5" transform="translate(.9 .9)scale(1.76)"><circle cx="140" cy="90" r="217" fill="#fff"/><circle cx="62" cy="117" r="182" fill="#ffddf5"/><circle cx="87" cy="123" r="37" fill="#a24954"/><circle cx="84" r="87" fill="#fbe8ef"/><circle cx="143" cy="138" r="28" fill="#fde1e5"/><circle cx="118" cy="115" r="7" fill="#58182b"/><circle cx="31" cy="95" r="37" fill="#f9dbe5"/><circle cx="72" cy="106" r="7" fill="#581d22"/><circle cx="76" cy="138" r="29" fill="#d88d9c"/><circle cx="74" cy="139" r="11" fill="#993174"/><circle cx="86" cy="156" r="16" fill="#f6bfc2"/><circle cx="92" cy="117" r="15" fill="#f0c5b7"/><circle cx="96" cy="97" r="4" fill="#150000"/><circle cx="169" cy="72" r="46" fill="#fbe4e8"/><circle cx="112" cy="135" r="5" fill="#462323"/><circle cx="90" cy="136" r="4" fill="#200828"/><circle cx="104" cy="103" r="5" fill="#5c2030"/><circle cx="109" cy="87" r="14" fill="#f2a8ba"/><circle cx="88" cy="89" r="6" fill="#8f434e"/><circle cx="84" cy="102" r="7" fill="#ffe7d6"/><circle cx="125" cy="102" r="11" fill="#ea96ac"/><circle cx="153" cy="174" r="50" fill="#f8d6db"/><circle cx="111" cy="108" r="4" fill="#41061a"/><circle cx="75" cy="95" r="4" fill="#472227"/><circle cx="59" cy="76" r="23" fill="#f3d7de"/><circle cx="109" cy="144" r="4" fill="#522d2f"/><circle cx="84" cy="137" r="2"/><circle cx="74" cy="137" r="3" fill="#06070b"/><circle cx="33" cy="189" r="42" fill="#f8d2da"/><circle cx="108" cy="150" r="4" fill="#6a3243"/></g></svg>