<svg xmlns="http://www.w3.org/2000/svg" width="300" height="450" viewBox="0 0 300 450"><g stroke-linecap="round"><path fill="rgba(244,219,226,255)" stroke="rgba(244,219,226,255)" d="M0 0h300L193 151 0 0"/><path fill="rgba(244,213,220,255)" stroke="rgba(244,213,220,255)" d="M300 0v450L196 249 300 0"/><path fill="rgba(241,204,210,255)" stroke="rgba(241,204,210,255)" d="M300 450H0l141-66 159 66"/><path fill="rgba(244,209,215,255)" stroke="rgba(244,209,215,255)" d="m196 249 104 201-159-66 55-135"/><path fill="rgba(246,218,226,255)" stroke="rgba(246,218,226,255)" d="M193 151 300 0 191 186l2-35"/><path fill="rgba(246,217,223,255)" stroke="rgba(246,217,223,255)" d="M300 0 196 249l-5-63L300 0"/><path fill="rgba(230,157,176,255)" stroke="rgba(230,157,176,255)" d="m193 151-2 35-7-24 9-11"/><path fill="rgba(237,196,188,255)" stroke="rgba(237,196,188,255)" d="m196 249-55 135-10-193 65 58"/><path fill="rgba(242,207,215,255)" stroke="rgba(242,207,215,255)" d="M141 384 0 450l131-259 10 193"/><path fill="rgba(243,214,222,255)" stroke="rgba(243,214,222,255)" d="M0 450V0l131 191L0 450"/><path fill="rgba(226,192,179,255)" stroke="rgba(226,192,179,255)" d="m191 186 5 63-65-58 60-5"/><path fill="rgba(163,109,105,255)" stroke="rgba(163,109,105,255)" d="m184 162 7 24-60 5 53-29"/><path fill="rgba(243,218,225,255)" stroke="rgba(243,218,225,255)" d="m0 0 193 151-62 40L0 0"/><path fill="rgba(47,3,18,255)" stroke="rgba(47,3,18,255)" d="m193 151-9 11-53 29 62-40"/></g></svg>