<svg xmlns="http://www.w3.org/2000/svg" width="300" height="450" viewBox="0 0 300 450"><g stroke-linecap="round"><path fill="rgba(241,204,210,255)" stroke="rgba(241,204,210,255)" d="M300 450H0l121-66 179 66"/><path fill="rgba(245,214,221,255)" stroke="rgba(245,214,221,255)" d="M300 0v450L198 223 300 0"/><path fill="rgba(243,208,214,255)" stroke="rgba(243,208,214,255)" d="m300 450-179-66 77-161 102 227"/><path fill="rgba(230,181,189,255)" stroke="rgba(230,181,189,255)" d="m198 223-77 161 14-124 63-37"/><path fill="rgba(10,7,14,255)" stroke="rgba(10,7,14,255)" d="m198 223-63 37 15-17 48-20"/><path fill="rgba(241,210,219,255)" stroke="rgba(241,210,219,255)" d="M0 450V0l35 397-35 53"/><path fill="rgba(242,204,213,255)" stroke="rgba(242,204,213,255)" d="M121 384 0 450l35-53 86-13"/><path fill="rgba(241,206,214,255)" stroke="rgba(241,206,214,255)" d="m135 260-14 124-86 13 100-137"/><path fill="rgba(244,219,226,255)" stroke="rgba(244,219,226,255)" d="M0 0h300L133 162 0 0"/><path fill="rgba(247,218,226,255)" stroke="rgba(247,218,226,255)" d="M300 0 198 223l-65-61L300 0"/><path fill="rgba(235,197,188,255)" stroke="rgba(235,197,188,255)" d="m198 223-48 20-17-81 65 61"/><path fill="rgba(223,126,171,255)" stroke="rgba(223,126,171,255)" d="m150 243-15 17-2-98 17 81"/><path fill="rgba(229,177,189,255)" stroke="rgba(229,177,189,255)" d="M135 260 35 397l98-235 2 98"/><path fill="rgba(243,214,222,255)" stroke="rgba(243,214,222,255)" d="M35 397 0 0l133 162-98 235"/></g><rect width="100%" height="100%" fill="#b37464"/></svg>