<svg xmlns="http://www.w3.org/2000/svg" width="298" height="450"><rect width="100%" height="100%" fill="#b37464"/><g fill-opacity=".5" transform="translate(.9 .9)scale(1.75781)"><circle cx="81" cy="78" r="209" fill="#fff"/><circle cx="74" cy="112" r="178" fill="#ffddf5"/><circle cx="87" cy="123" r="37" fill="#a24954"/><circle cx="84" r="87" fill="#fbe8ef"/><circle cx="149" cy="140" r="34" fill="#fde0e3"/><circle cx="32" cy="96" r="36" fill="#f9dbe5"/><circle cx="77" cy="132" r="32" fill="#d58e98"/><circle cx="72" cy="107" r="7" fill="#521b1f"/><circle cx="117" cy="111" r="10" fill="#8e4054"/><circle cx="73" cy="138" r="11" fill="#9a3176"/><circle cx="86" cy="157" r="16" fill="#f6bec2"/><circle cx="92" cy="116" r="15" fill="#eec6b7"/><circle cx="98" cy="100" r="5" fill="#3d1114"/><circle cx="169" cy="52" r="60" fill="#f8e2e6"/><circle cx="106" cy="137" r="11" fill="#915663"/><circle cx="104" cy="87" r="11" fill="#ec96ac"/><circle cx="88" cy="136" r="5" fill="#4d264d"/><circle cx="87" cy="88" r="5" fill="#873543"/><circle cx="122" cy="99" r="11" fill="#f4a4b9"/><circle cx="73" cy="97" r="4" fill="#3e1c22"/><circle cx="166" cy="173" r="61" fill="#f8d6db"/><circle cx="84" cy="102" r="8" fill="#f7d7c9"/><circle cx="93" cy="94" r="3"/><circle cx="120" cy="116" r="4" fill="#1d000a"/><circle cx="53" cy="72" r="30" fill="#f3d7df"/><circle cx="104" cy="104" r="4" fill="#4a1724"/><circle cx="95" cy="118" r="16" fill="#e2aaa8"/><circle cx="94" cy="137" r="2"/><circle cx="8" cy="166" r="44" fill="#f8d6de"/><circle cx="73" cy="137" r="3" fill="#11020c"/></g></svg>