<svg xmlns="http://www.w3.org/2000/svg" width="300" height="450" viewBox="0 0 300 450"><g stroke-linecap="round"><path fill="rgba(241,204,210,255)" stroke="rgba(241,204,210,255)" d="M300 450H0l110-86 190 86"/><path fill="rgba(243,208,214,255)" stroke="rgba(243,208,214,255)" d="m163 284 137 166-190-86 53-80"/><path fill="rgba(244,213,220,255)" stroke="rgba(244,213,220,255)" d="M300 0v450L183 273 300 0"/><path fill="rgba(243,210,215,255)" stroke="rgba(243,210,215,255)" d="M300 450 163 284l20-11 117 177"/><path fill="rgba(242,196,184,255)" stroke="rgba(242,196,184,255)" d="m183 273-20 11-24-44 44 33"/><path fill="rgba(243,218,225,255)" stroke="rgba(243,218,225,255)" d="M0 0h300L173 196 0 0"/><path fill="rgba(244,215,223,255)" stroke="rgba(244,215,223,255)" d="M139 240 0 0l173 196-34 44"/><path fill="rgba(247,216,223,255)" stroke="rgba(247,216,223,255)" d="M300 0 183 273l-10-77L300 0"/><path fill="rgba(201,104,149,255)" stroke="rgba(201,104,149,255)" d="m183 273-44-33 34-44 10 77"/><path fill="rgba(242,211,220,255)" stroke="rgba(242,211,220,255)" d="M0 450V0l131 283L0 450"/><path fill="rgba(244,215,223,255)" stroke="rgba(244,215,223,255)" d="m0 0 139 240-8 43L0 0"/><path fill="rgba(243,205,214,255)" stroke="rgba(243,205,214,255)" d="M110 364 0 450l131-167-21 81"/><path fill="rgba(242,209,216,255)" stroke="rgba(242,209,216,255)" d="m163 284-53 80 21-81 32 1"/><path fill="rgba(236,194,182,255)" stroke="rgba(236,194,182,255)" d="m139 240 24 44-32-1 8-43"/></g><rect width="100%" height="100%" fill="#b37464"/></svg>