<svg xmlns="http://www.w3.org/2000/svg" width="298" height="450"><rect width="100%" height="100%" fill="#b37464"/><g fill-opacity=".5" transform="translate(.9 .9)scale(1.76)"><circle cx="110" cy="104" r="200" fill="#fff"/><circle cx="113" cy="108" r="197" fill="#ffddf5"/><circle cx="87" cy="123" r="37" fill="#a24954"/><circle cx="84" r="87" fill="#fbe8ef"/><circle cx="147" cy="137" r="31" fill="#fde0e4"/><circle cx="119" cy="116" r="6" fill="#440a1e"/><circle cx="78" cy="132" r="33" fill="#d6909a"/><circle cx="71" cy="107" r="7" fill="#571f22"/><circle cx="28" cy="94" r="41" fill="#f9dbe5"/><circle cx="76" cy="137" r="13" fill="#a53c80"/><circle cx="86" cy="156" r="16" fill="#f6bec2"/><circle cx="97" cy="99" r="5" fill="#3f1718"/><circle cx="92" cy="116" r="15" fill="#eec6b7"/><circle cx="164" cy="66" r="45" fill="#fae3e8"/><circle cx="111" cy="135" r="6" fill="#5a3935"/><circle cx="111" cy="108" r="5" fill="#5b192d"/><circle cx="105" cy="87" r="11" fill="#ee98ae"/><circle cx="91" cy="138" r="4" fill="#34002b"/><circle cx="74" cy="98" r="4" fill="#350f16"/><circle cx="90" cy="89" r="7" fill="#964d5a"/><circle cx="86" cy="101" r="8" fill="#f5dac8"/><circle cx="103" cy="103" r="4" fill="#45121f"/><circle cx="169" cy="172" r="63" fill="#f8d7db"/><circle cx="124" cy="103" r="10" fill="#e58aa2"/><circle cx="109" cy="144" r="4" fill="#4f2d2e"/><circle cx="53" cy="71" r="31" fill="#f2d7de"/><circle cx="12" cy="191" r="58" fill="#f7d2da"/><circle cx="73" cy="137" r="3" fill="#0b0007"/><circle cx="126" cy="129" r="10" fill="#f9e3e8"/><circle cx="92" cy="94" r="3" fill="#180000"/></g></svg>