<svg xmlns="http://www.w3.org/2000/svg" width="300" height="450" viewBox="0 0 300 450"><g stroke-linecap="round"><path fill="rgba(243,218,226,255)" stroke="rgba(243,218,226,255)" d="M0 0h300L131 171 0 0"/><path fill="rgba(241,204,210,255)" stroke="rgba(241,204,210,255)" d="M300 450H0l155-73 145 73"/><path fill="rgba(243,214,222,255)" stroke="rgba(243,214,222,255)" d="M0 450V0l118 182L0 450"/><path fill="rgba(244,216,224,255)" stroke="rgba(244,216,224,255)" d="m0 0 131 171-13 11L0 0"/><path fill="rgba(244,215,221,255)" stroke="rgba(244,215,221,255)" d="M300 0v450l-91-232L300 0"/><path fill="rgba(247,218,226,255)" stroke="rgba(247,218,226,255)" d="M131 171 300 0l-91 218-78-47"/><path fill="rgba(244,209,215,255)" stroke="rgba(244,209,215,255)" d="m300 450-145-73 54-159 91 232"/><path fill="rgba(241,203,212,255)" stroke="rgba(241,203,212,255)" d="M155 377 0 450l101-78 54 5"/><path fill="rgba(242,207,215,255)" stroke="rgba(242,207,215,255)" d="m0 450 118-268-17 190L0 450"/><path fill="rgba(204,119,124,255)" stroke="rgba(204,119,124,255)" d="m118 182 13-11 8 62-21-51"/><path fill="rgba(230,199,190,255)" stroke="rgba(230,199,190,255)" d="m131 171 78 47-70 15-8-62"/><path fill="rgba(204,145,139,255)" stroke="rgba(204,145,139,255)" d="m101 372 17-190 21 51-38 139"/><path fill="rgba(230,199,193,255)" stroke="rgba(230,199,193,255)" d="m209 218-54 159-16-144 70-15"/><path fill="rgba(243,208,216,255)" stroke="rgba(243,208,216,255)" d="m155 377-54-5 38-139 16 144"/></g></svg>