<svg xmlns="http://www.w3.org/2000/svg" width="298" height="450"><rect width="100%" height="100%" fill="#b37464"/><g fill-opacity=".5"><path fill="#fff" d="M-27.2 18.5 326-27.2l-54.5 504.4z"/><path fill="#fff" d="M-27.2 470.2 6.2-27.2 326 445.6z"/><path fill="#ffe9ff" d="M9.7-27.2 326-23.7V442z"/><path fill="#b05064" d="m241.7 152-167 14.1L168 324.3z"/><path fill="#ffdff6" d="m-27.2 23.7 298.8 453.5-298.8-10.5z"/><path fill="#ad5361" d="m132.7 292.7-54.5-51 61.5-87.9z"/><path fill="#fbdde9" d="M-20.2-27.2h253.1l-219.7 399z"/><path fill="#fee0e7" d="M324.3-27.2h-167L298 477.2z"/><path fill="#682830" d="m222.4 210-88-52.7 26.4-12.3z"/><path fill="#f8cdd6" d="M291 477.2 315.4 277l-342.7-17.6z"/><path fill="#6d2844" d="m127.4 241.7 68.6 15.8 12.3-26.3z"/><path fill="#4c1625" d="m203 189-7 35.1 26.4-19.3z"/><path fill="#f3c0b7" d="m139.7 129.2 8.8 96.7 49.3 21z"/><path fill="#55282d" d="m141.5 203-28.1-12.3 21-28.1z"/><path fill="#f4aabe" d="m229.4 157.3-95-22.8 121.4 93.1z"/><path fill="#e59fa4" d="m120.4 164.4-51 77.3 38.7 38.7z"/><path fill="#f29db2" d="m127.4 299.7 70.4-56.2-65 3.5z"/><path fill="#5a3838" d="m194.2 215.3 14.1 22.9-21 33.4z"/><path fill="#61174c" d="m171.4 238.2-52.7 1.7-10.6 19.4z"/><path fill="#481620" d="m155.6 148.5 24.6 31.7-35.2-26.4z"/><path fill="#f3dbe3" d="m-27.2-20.2 68.5 254.9L326.1 4.4z"/><path fill="#f5d5da" d="m319 148.5-114.2 70.3 14 198.7z"/><path fill="#f4cfd6" d="m298 477.2 8.7-249.6-334 138.9z"/><path fill="#e1b5a1" d="M211.8 213.6 157.3 166l-28.1 49.2z"/><path fill="#e263ab" d="M122.2 243.5h61.5l-54.5 21z"/><path fill="#f4dce2" d="m6.2-13.2 304 28.1-15.8 212.7z"/><path fill="#e89db0" d="m192.5 136.2 52.7 70.3L141.5 145z"/><path fill="#2c0614" d="m187.2 189 17.6 3.5-33.4-21.1z"/><path fill="#de64ad" d="m139.7 215.3-17.5 14 75.6 12.4z"/><path fill="#e69fb2" d="m85.3 204.8 22.8 14 15.8-61.5z"/><path fill="#3f020e" d="M160.8 192.5V189l-10.5 5.2z"/><path fill="#efc8c1" d="m155.6 159 1.7 35.2-24.6-14z"/><path fill="#e9d6b9" d="m180.2 264.6-33.4 24.6-19.4-26.4z"/><path fill="#db9399" d="M132.7 296.2 94 197.8l-7 58z"/><path fill="#36181c" d="m122.2 174.9 17.5-14-19.3 29.8z"/><path fill="#201a20" d="m166.1 234.7 1.8 8.8h-24.6z"/><path fill="#be8a76" d="m185.4 215.3 12.4 22.9-17.6 40.4z"/><path fill="#703545" d="m182 271.6 14-28.1-1.8 24.6z"/><path fill="#f4d7dc" d="m203 224.1 44 109 79-203.9z"/><path fill="#f2d3db" d="M-27.2 176.7 148.5 55.4 4.4 424.5z"/><path fill="#bd587a" d="M220.6 201.3 189 176.7l15.8 1.7z"/><path fill="#c3dedb" d="m159 240-19.3-5.3h19.4z"/><path fill="#c68e82" d="m134.5 182-7 36.8L87 245.2z"/><path fill="#f3ccd3" d="M155.6 280.4 326 457.9l-353.3-12.3z"/><path fill="#e8c5a9" d="m124 203-17.7-8.8-10.5 30z"/><path fill="#ad4076" d="m122.2 218.8 3.5 44-14-22.9z"/><path fill="#eaafc0" d="M199.5 289.2v-38.7l-14 36.9z"/><path fill="#3a1326" d="m199.5 240-5.3-15.9 10.6 10.6z"/><path fill="#e8bcbd" d="M197.8 217 145 227.7l1.8-28z"/><path fill="#3f1921" d="m185.4 180.2-10.5 1.7-14-22.8z"/></g></svg>