<svg xmlns="http://www.w3.org/2000/svg" width="298" height="450"><rect width="100%" height="100%" fill="#b37464"/><g fill-opacity=".5"><path fill="#fff" d="M326-27.2-27.1 20.2l298.8 457z"/><path fill="#fff" d="M-27.2 477.2 326 443.8 7.9-27.2z"/><path fill="#ffe9ff" d="M315.5 426.3 11.5-27.2l286.4 8.7z"/><path fill="#af4d62" d="m71.2 174.9 102 145.9 63.2-172.3z"/><path fill="#ffdff7" d="m266.3 473.7-283-434.1 21 437.6z"/><path fill="#b7616e" d="m131 294.4 28-165.2-82.5 116z"/><path fill="#fce1e9" d="M326 .9-27.1-2.6 326 269.8z"/><path fill="#511a24" d="M222.4 197.8 148.5 152l61.6 66.7z"/><path fill="#fbcfd9" d="m315.5 271.6-15.8 205.6-327-214.4z"/><path fill="#f7d9e5" d="M6.2 385.8 210 9.7-27.2-13.2z"/><path fill="#652841" d="m125.7 243.5 77.3 7 3.5-22.9z"/><path fill="#f3c9b8" d="m145 164.4-12.3 65 75.6-22.9z"/><path fill="#532529" d="m139.7 153.8-7 45.7-19.3-8.8z"/><path fill="#e689a2" d="m150.3 150.3 79 54.5L189 131z"/><path fill="#401d1f" d="m183.7 273.3 21-31.6-5.2-22.9z"/><path fill="#ebaaae" d="m136.2 174.9 61.6 63.3-15.9 21z"/><path fill="#f8d7dc" d="m326 115.1-26.3 362.1L203 222.4z"/><path fill="#761e5b" d="M173.1 241.7 117 257.5l-3.5-21z"/><path fill="#e59ea3" d="m76.5 234.7 31.6 51 12.3-124.9z"/><path fill="#fb7fbe" d="m176.7 243.5-59.8 3.5 47.5 19.3z"/><path fill="#f4cbd2" d="M162.6 254-27.2 466.7 326 443.8z"/><path fill="#340d13" d="M169.6 178.4 196 189l-45.7-40.5z"/><path fill="#f3d9e2" d="M39.6 236.4-27.2-27.2l291.8 82.6z"/><path fill="#562234" d="m201.3 220.6 1.7-29.9 17.6 15.8z"/><path fill="#e698ad" d="m229.4 208.3 22.8-26.4-100.1-33.4z"/><path fill="#e0a0a3" d="m203 282.1-75.6 12.3-49.2-44z"/><path fill="#9c555d" d="m141.5 201.3 22.9-8.8-56.3-1.8z"/><path fill="#d59d8e" d="m174.9 178.4-31.6 15.8 70.3 21.1z"/><path fill="#000105" d="m173.1 243.5-21-1.8 8.7-5.3z"/><path fill="#d96cb2" d="M136.2 217 117 238.3h72z"/><path fill="#f3dbe1" d="m80 32.5 124.8-59.7 52.7 228.5z"/><path fill="#905a58" d="m199.5 215.3-19.3 51 14 3.5z"/><path fill="#ecc4be" d="m152 157.3-17.5 22.9 24.6 35.1z"/><path fill="#ae4f6d" d="m106.3 268 22.9-8.7-12.3-31.7z"/><path fill="#e59eaf" d="m116.9 208.3-33.4 24.6 31.6-73.8z"/><path fill="#f2d0d6" d="m299.7 248.7-327 89.7 337.6 128.3z"/><path fill="#6c383c" d="m118.7 185.4 12.3-24.6 26.3-10.5z"/><path fill="#ca9584" d="m197.8 241.7-22.9 33.4 12.3-63.3z"/><path fill="#f5d7dc" d="m324.3 127.4-8.8 175.8-116-77.3z"/><path fill="#0d1e13" d="m122.2 238.2 8.8 5.3 17.5-3.6z"/><path fill="#f4d3db" d="m76.5 190.7-31.7-63.3h146z"/><path fill="#592f3e" d="m199.5 218.8 3.5 26.4-14-24.6z"/><path fill="#ca907f" d="m131 194.2-49.3 44 17.6 8.8z"/><path d="M136.2 190.7v5.3l-3.5-3.5z"/><path fill="#be859e" d="M139.7 229.4 110 241.7l63.2-7z"/><path fill="#f2cfd8" d="m94 248.7-66.8-63.3-42.1 291.8z"/><path fill="#804049" d="m162.6 190.7 3.5 7-17.6-8.7z"/><path fill="#e5bbaf" d="m201.3 294.4-26.4-35.1-70.3 7z"/><path fill="#e6c6b1" d="m127.4 210 68.6 10.6-17.6-22.8z"/><path fill="#e9c2b7" d="M169.6 180.2 150.3 196l-7-40.4z"/></g></svg>