<svg xmlns="http://www.w3.org/2000/svg" width="300" height="447"><rect width="100%" height="100%" fill="#9aa06a"/><g fill-opacity=".5"><path d="m182.5-27 144.9 473H-27.1z"/><path fill="#260014" d="M327.4 435.7 2.6 474l-28-455.8z"/><path fill="#ffbc4f" d="m100.4 257.5 89-22.7-48.8-207.7z"/><path fill="#1f061c" d="M327.4 158 138.8 32.3 282 474.1z"/><path fill="#f6ab42" d="m77.7 399 111.8-33.2-108.3-45.4z"/><path fill="#645b33" d="M116.1 208.7-27-21.8 324-4.4z"/><path fill="#000015" d="m271.5 367.6 49 106.5-347.6-36.7z"/><path fill="#fff17c" d="m93.4 222.6 73.4 24.5 1.7-71.6z"/><path fill="#1e000b" d="m58.5 116.1 47.1-15.7 29.7 96z"/><path fill="#cba85a" d="M161.5 60.2-27 69l199 69.8z"/><path fill="#130a26" d="m243.6 201.7 78.6 174.6L76 323.9z"/><path fill="#17000d" d="M220.9 182.5 191.2 56.7l-42 117z"/><path fill="#93a165" d="m130-2.6 197.4 69.8-69.9 62.9z"/><path fill="#0a0029" d="M112.6 465.3-9.6 442.6l22.7-151.9z"/><path fill="#2e0111" d="m88.2 130 28 75.2-7-143.2z"/><path fill="#767c42" d="m236.6 205.2 76.8 33.1-115.2-171z"/><path fill="#594127" d="m84.7 240 52.4 68.2 36.6-69.9z"/><path fill="#567749" d="M290.7-27-13 2.5l340.5 57.6z"/><path fill="#8ea267" d="m-27 32.3 48.8 83.8 118.8-78.6z"/><path fill="#f1ae4c" d="M135.3 158 111 133.6 132 55z"/><path fill="#230408" d="m119.6 42.8 97.8 66.3-35-61z"/><path fill="#915019" d="M-.9 194.7 32.3 296l47.1-94.3z"/><path fill="#b8843d" d="M166.8 392 123 330.9l-92.5-8.7z"/><path fill="#2c0d1a" d="M65.5 262.8 110.9 144l31.4 19.2z"/><path fill="#844513" d="m184.2 238.3 45.4-22.7-54.1-47.1z"/><path fill="#713317" d="m241.8 367.6-80.3-15.8-92.5 56z"/><path fill="#3d5141" d="m191.2 152.8 122.2-47.2-24.4 71.6z"/><path fill="#f8cf6c" d="m103.9 233.1 62.9 8.7-38.5-61z"/><path fill="#3f4a34" d="M107.4 116.1-27.1 90l12.3 150.2z"/><path fill="#000016" d="m126.6 439.1 155.4 35-36.7-118.8z"/><path fill="#4b2c31" d="m-27 187.7 8.7 150.2 115.2 28z"/><path fill="#f1bf56" d="m126.6 58.5-12.2 31.4 59.3 3.5z"/><path fill="#90925e" d="m294.2 21.8-179.8-3.5 195.5 90.8z"/><path fill="#4f2838" d="m299.5 413 26.1-162.4-69.8-38.4z"/><path fill="#100a1d" d="m252.3 346.6-68-120.5-28 127.5z"/><path fill="#312128" d="M138.8 276.8 81.2 336l-14-157z"/><path fill="#684321" d="m196.4 292.5 8.8-52.4 40.1 15.7z"/><path fill="#a78847" d="m285.5 194.7 31.4 52.4-82-57.6z"/><path fill="#653000" d="m110.9 70.7 7-21 36.6-8.7z"/><path fill="#8a541f" d="m179 110.9-8.8-22.7L97 100.4z"/><path fill="#dbb04e" d="m77.7 341.4 22.7-12.3 55.9 31.5z"/><path fill="#9d6833" d="M60.2 208.7 8 278.5l36.6 1.7z"/><path fill="#c38e38" d="m90 247 17.4-45.3 47.1-31.5z"/><path fill="#946d2c" d="m152.8 247 82-36.6-47 7z"/><path fill="#3d221b" d="M193 138.8 65.4 186l31.4 21z"/><path fill="#2b5536" d="m252.3-27 75 34.9-193.7-7z"/><path fill="#9ea775" d="m88.2 107.4 22.7-47.2L-14.8 55z"/><path fill="#686e46" d="M102.1 117.9 51.5 88.2l-62.8 31.4z"/><path fill="#455842" d="m205.2 84.7 103 76.8-94.3 15.7z"/><path fill="#eab24c" d="M145.8 103.9h28L144 137z"/></g></svg>