<svg xmlns="http://www.w3.org/2000/svg" width="300" height="447" viewBox="0 0 300 447"><g filter="blur(20px)"><rect width="200%" height="200%" x="-50%" y="-50%" fill="#9aa06a"/><g stroke-linecap="round"><path fill="rgba(102,51,30,255)" stroke="rgba(102,51,30,255)" d="M300 447H0l125-205 175 205"/><path fill="rgba(118,127,70,255)" stroke="rgba(118,127,70,255)" d="M0 0h300L84 65 0 0"/><path fill="rgba(81,86,72,255)" stroke="rgba(81,86,72,255)" d="M300 0v447l-40-320L300 0"/><path fill="rgba(142,150,100,255)" stroke="rgba(142,150,100,255)" d="M84 65 300 0l-40 127L84 65"/><path fill="rgba(18,13,31,255)" stroke="rgba(18,13,31,255)" d="M300 447 125 242l80-11 95 216"/><path fill="rgba(48,35,51,255)" stroke="rgba(48,35,51,255)" d="m260 127 40 320-61-238 21-82"/><path fill="rgba(31,22,41,255)" stroke="rgba(31,22,41,255)" d="m300 447-95-216 34-22 61 238"/><path fill="rgba(115,84,43,255)" stroke="rgba(115,84,43,255)" d="M0 447V0l109 141L0 447"/><path fill="rgba(57,44,60,255)" stroke="rgba(57,44,60,255)" d="M125 242 0 447l109-306 16 101"/><path fill="rgba(156,162,102,255)" stroke="rgba(156,162,102,255)" d="m0 0 84 65 25 76L0 0"/><path fill="rgba(225,187,90,255)" stroke="rgba(225,187,90,255)" d="m205 231-80 11-16-101 96 90"/><path fill="rgba(187,144,65,255)" stroke="rgba(187,144,65,255)" d="m84 65 176 62-151 14-25-76"/><path fill="rgba(33,30,39,255)" stroke="rgba(33,30,39,255)" d="m260 127-21 82-130-68 151-14"/><path fill="rgba(103,62,34,255)" stroke="rgba(103,62,34,255)" d="m239 209-34 22-96-90 130 68"/></g></g></svg>