<svg xmlns="http://www.w3.org/2000/svg" width="300" height="447" viewBox="0 0 300 447"><g stroke-linecap="round"><path fill="rgba(87,114,63,255)" stroke="rgba(87,114,63,255)" d="M0 0h300l-34 25L0 0"/><path fill="rgba(192,157,73,255)" stroke="rgba(192,157,73,255)" d="m0 0 266 25-120 141L0 0"/><path fill="rgba(138,121,69,255)" stroke="rgba(138,121,69,255)" d="M300 0v447l-78-267L300 0"/><path fill="rgba(147,150,97,255)" stroke="rgba(147,150,97,255)" d="m266 25 34-25-78 180 44-155"/><path fill="rgba(65,68,47,255)" stroke="rgba(65,68,47,255)" d="M146 166 266 25l-44 155-76-14"/><path fill="rgba(180,126,62,255)" stroke="rgba(180,126,62,255)" d="M300 447H0l103-252 197 252"/><path fill="rgba(43,29,42,255)" stroke="rgba(43,29,42,255)" d="m0 447 58-238 45-14L0 447"/><path fill="rgba(156,119,49,255)" stroke="rgba(156,119,49,255)" d="m146 166 76 14-119 15 43-29"/><path fill="rgba(79,58,35,255)" stroke="rgba(79,58,35,255)" d="m222 180 78 267-197-252 119-15"/><path fill="rgba(95,63,40,255)" stroke="rgba(95,63,40,255)" d="M0 447V0l14 132L0 447"/><path fill="rgba(123,56,37,255)" stroke="rgba(123,56,37,255)" d="M58 209 0 447l14-315 44 77"/><path fill="rgba(110,115,72,255)" stroke="rgba(110,115,72,255)" d="m0 0 146 166-132-34L0 0"/><path fill="rgba(104,111,77,255)" stroke="rgba(104,111,77,255)" d="m146 166-43 29-89-63 132 34"/><path fill="rgba(82,72,45,255)" stroke="rgba(82,72,45,255)" d="m103 195-45 14-44-77 89 63"/></g></svg>