<svg xmlns="http://www.w3.org/2000/svg" width="300" height="447" viewBox="0 0 300 447"><g stroke-linecap="round"><path fill="rgba(227,189,94,255)" stroke="rgba(227,189,94,255)" d="M0 0h300L86 230 0 0"/><path fill="rgba(77,85,60,255)" stroke="rgba(77,85,60,255)" d="M86 230 300 0l-38 208-176 22"/><path fill="rgba(141,129,81,255)" stroke="rgba(141,129,81,255)" d="M300 0v447l-14-215L300 0"/><path fill="rgba(81,86,69,255)" stroke="rgba(81,86,69,255)" d="M262 208 300 0l-14 232-24-24"/><path fill="rgba(14,11,28,255)" stroke="rgba(14,11,28,255)" d="M300 447H0l237-82 63 82"/><path fill="rgba(48,39,58,255)" stroke="rgba(48,39,58,255)" d="m286 232 14 215-63-82 49-133"/><path fill="rgba(116,76,41,255)" stroke="rgba(116,76,41,255)" d="M0 447V0l45 221L0 447"/><path fill="rgba(81,73,52,255)" stroke="rgba(81,73,52,255)" d="m0 0 86 230-41-9L0 0"/><path fill="rgba(51,37,42,255)" stroke="rgba(51,37,42,255)" d="M86 230 0 447l45-226 41 9"/><path fill="rgba(42,30,40,255)" stroke="rgba(42,30,40,255)" d="m0 447 86-217 89 58L0 447"/><path fill="rgba(191,136,54,255)" stroke="rgba(191,136,54,255)" d="M237 365 0 447l175-159 62 77"/><path fill="rgba(93,62,29,255)" stroke="rgba(93,62,29,255)" d="m86 230 176-22-87 80-89-58"/><path fill="rgba(22,19,36,255)" stroke="rgba(22,19,36,255)" d="m262 208 24 24-111 56 87-80"/><path fill="rgba(28,14,28,255)" stroke="rgba(28,14,28,255)" d="m286 232-49 133-62-77 111-56"/></g></svg>