<svg xmlns="http://www.w3.org/2000/svg" width="300" height="447"><rect width="100%" height="100%" fill="#9aa06a"/><g fill-opacity=".5" transform="translate(.9 .9)scale(1.7461)"><circle cx="83" cy="221" r="171"/><circle cx="83" cy="122" r="21" fill="#fffe71"/><circle cx="95" cy="254" r="117" fill="#190018"/><circle cx="63" r="92" fill="#675b32"/><circle cx="61" cy="208" r="21" fill="#f6a742"/><circle cx="79" cy="59" r="19" fill="#ffb94c"/><circle cx="101" cy="45" r="15" fill="#0c0000"/><circle cx="128" cy="255" r="45" fill="#00000f"/><circle cx="78" cy="126" r="19" fill="#ffbd5f"/><circle cx="111" cy="80" r="20" fill="#170014"/><circle cx="38" cy="42" r="21" fill="#aeb678"/><circle cx="122" cy="165" r="37" fill="#130721"/><circle cx="83" cy="212" r="14" fill="#ba6d2a"/><circle cx="171" cy="92" r="39" fill="#797552"/><circle cx="79" cy="74" r="15" fill="#de9f48"/><circle cx="10" cy="135" r="27" fill="#95472a"/><circle cx="7" cy="240" r="38" fill="#060025"/><circle cx="70" cy="247" r="27" fill="#180017"/><circle cx="153" r="28" fill="#4f6f46"/><circle cx="65" cy="98" r="13" fill="#2f000c"/><circle cx="92" cy="32" r="9" fill="#260000"/><circle cx="152" cy="41" r="31" fill="#929a63"/><circle cx="78" cy="47" r="14" fill="#e3ad4b"/><circle cx="118" cy="109" r="13" fill="#2f0008"/><circle cx="53" cy="158" r="28" fill="#3c2129"/><circle cx="34" cy="190" r="12" fill="#8d4b2b"/><circle cx="54" cy="195" r="8" fill="#ebc059"/><circle cx="88" cy="112" r="16" fill="#e2a84c"/><circle cx="109" cy="212" r="13" fill="#7c3611"/><circle cx="15" cy="82" r="31" fill="#4a4a3d"/></g></svg>