<svg xmlns="http://www.w3.org/2000/svg" width="300" height="447"><rect width="100%" height="100%" fill="#9aa06a"/><g fill-opacity=".5"><path d="m327.4 446.1-354.5-1.7L184.2-27.1z"/><path fill="#260014" d="M2.6 474-7.9 35.9 327.4 439z"/><path fill="#ffbb4e" d="M98.7 255.8 144 25.3l43.6 209.5z"/><path fill="#20071b" d="m135.3 32.3 192 124L278.6 474z"/><path fill="#f9ad42" d="M186 364 79.4 402.6l3.5-80.3z"/><path fill="#655c33" d="M116.1 198.2-27-14.8l354.5 14z"/><path fill="#000018" d="m287.2 474 40.2-122.2-354.5 89z"/><path fill="#fff17a" d="m95.2 224.4 82-50.7-12.2 73.4z"/><path fill="#c9a659" d="M161.5 58.5-27 70.7l197.3 66.4z"/><path fill="#1d0006" d="m123.1 193-45.4-63 31.4-61z"/><path fill="#1b000e" d="m193 53.3 26 143.1-69.8-27.9z"/><path fill="#120a27" d="M247 207 65.6 320.3l253.2 55.9z"/><path fill="#8d9f65" d="m327.4 117.9-96 8.7-92.6-153.7z"/><path fill="#0a0028" d="m.9 440.9 7-153.7 111.7 186.9z"/><path fill="#908942" d="m212.2 133.6 115.2 104.7-83.8-27.9z"/><path fill="#2e161e" d="m49.8 98.7 96 66.3-35 29.7z"/><path fill="#f3b14d" d="M133.6 55 109 121.4l22.7 36.6z"/><path fill="#507346" d="m163.3 44.5 164-45.4L-.8-2.6z"/><path fill="#91a268" d="M172 18.3 27 112.6l-54-61z"/><path fill="#5b4227" d="m168.5 243.6-29.7 69.8-54.1-80.3z"/><path fill="#c18d40" d="M163.3 388.5 116 329.1l-78.6-3.5z"/><path fill="#844a17" d="m170.2 158 61.2 57.6-50.7 26.2z"/><path fill="#1f0005" d="m213.9 100.4-29.7-50.6-62.8-5.3z"/><path fill="#935119" d="m79.4 203.4-82-8.7 34.9 97.8z"/><path fill="#713418" d="m70.7 409.5 164.1-40.2-76.8-19.2z"/><path fill="#425942" d="m231.4 198.2-28-92.6 124 21z"/><path fill="#3f4531" d="M124.8 100.4-20 245.4-.9 124.7z"/><path fill="#000014" d="M112.6 435.7 283.7 474l-38.4-92.6z"/><path fill="#8f9460" d="m327.4 27-29.7 97.8L140.6 23.6z"/><path fill="#4f2f31" d="m13.1 337.9-38.4-146.7L96.9 365.8z"/><path fill="#f8ce6c" d="m161.5 241.8-21-57.6-41.8 33.2z"/><path fill="#4b2839" d="m296 425.2-43.7-213 75 36.6z"/><path fill="#361a18" d="m137 158-76.8 36.7 28 45.4z"/><path fill="#44291b" d="m158 240 59.4-17.4 19.2 62.9z"/><path fill="#c38a34" d="m177.2 103.9-41.9-61.1L151 154.5z"/><path fill="#0f0a1f" d="m276.8 343.1-120.5 12.2 19.2-111.7z"/><path fill="#5d2800" d="m121.4 49.8-17.5 24.4 50.6-29.7z"/><path fill="#a0a976" d="M93.4 112.6 104 55 4.4 58.5z"/><path fill="#56633f" d="m69 93.4 33.1 82-129.2-82z"/><path fill="#eec15e" d="m121.4 62 40.1 26.2-52.4 7z"/><path fill="#30212c" d="m114.4 236.6 29.7 99.5L7.9 306.4z"/><path fill="#b5ad6b" d="m252.3 124.8 26.2-5.2-29.7-76.8z"/><path fill="#624224" d="m194.7 296 10.5-50.7 36.6 12.2z"/><path fill="#6c3f1b" d="m117.9 102.1 47.1 3.5 7-14z"/><path fill="#a57e42" d="m46.3 282-1.8-21-47.1 17.5z"/><path fill="#d3a449" d="m76 330.9 87.3 36.7L130 336z"/><path fill="#8a4f2b" d="m67.2 386.8 14-26.2L93.4 413z"/><path fill="#325938" d="m210.4-27 110 33L104 2.6z"/><path fill="#b18839" d="m200 213.9-14 17.5 43.6-19.2z"/><path fill="#180a1d" d="m166.8 42.8 40.1 54.1-14 99.5z"/></g></svg>