<svg xmlns="http://www.w3.org/2000/svg" width="300" height="447"><rect width="100%" height="100%" fill="#9aa06a"/><g fill-opacity=".5" transform="translate(.9 .9)scale(1.75)"><circle cx="83" cy="227" r="177"/><circle cx="84" cy="121" r="21" fill="#fffe70"/><circle cx="96" cy="255" r="118" fill="#190018"/><circle cx="63" r="92" fill="#675b32"/><circle cx="62" cy="209" r="22" fill="#eda03f"/><circle cx="79" cy="60" r="19" fill="#ffb84c"/><circle cx="101" cy="45" r="15" fill="#0e0000"/><circle cx="128" cy="255" r="45" fill="#00000f"/><circle cx="78" cy="127" r="19" fill="#ffbf60"/><circle cx="111" cy="79" r="20" fill="#170015"/><circle cx="126" cy="167" r="39" fill="#160824"/><circle cx="37" cy="43" r="21" fill="#aeb678"/><circle cx="156" cy="26" r="47" fill="#788a58"/><circle cx="9" cy="135" r="28" fill="#94472b"/><circle cx="73" cy="247" r="27" fill="#140017"/><circle cx="79" cy="74" r="16" fill="#d69844"/><circle cx="161" cy="113" r="19" fill="#9c7d4c"/><circle cx="8" cy="240" r="38" fill="#070025"/><circle cx="86" cy="212" r="13" fill="#b46728"/><circle cx="91" cy="31" r="9" fill="#290000"/><circle cx="65" cy="98" r="13" fill="#2e000b"/><circle cx="78" cy="44" r="12" fill="#f6be51"/><circle cx="120" cy="117" r="19" fill="#4c170d"/><circle cx="53" cy="195" r="8" fill="#eec159"/><circle cx="52" cy="156" r="26" fill="#391f29"/><circle cx="14" cy="82" r="31" fill="#49493d"/><circle cx="109" cy="212" r="12" fill="#833910"/><circle cx="34" cy="189" r="12" fill="#8a492a"/><circle cx="150" r="23" fill="#4e6a44"/><circle cx="159" cy="40" r="31" fill="#9c9b64"/></g></svg>