<svg xmlns="http://www.w3.org/2000/svg" width="300" height="447"><rect width="100%" height="100%" fill="#9aa06a"/><g fill-opacity=".5" transform="translate(.9 .9)scale(1.75)"><circle cx="82" cy="255" r="203"/><circle cx="83" cy="121" r="21" fill="#fffe71"/><circle cx="91" cy="242" r="105" fill="#190017"/><circle cx="65" r="92" fill="#665a32"/><circle cx="62" cy="208" r="22" fill="#eda041"/><circle cx="79" cy="60" r="19" fill="#ffb74a"/><circle cx="101" cy="45" r="15" fill="#0b0000"/><circle cx="127" cy="255" r="44" fill="#000010"/><circle cx="79" cy="127" r="20" fill="#ffb95c"/><circle cx="110" cy="80" r="20" fill="#180013"/><circle cx="127" cy="165" r="39" fill="#160724"/><circle cx="37" cy="43" r="21" fill="#adb577"/><circle cx="171" cy="91" r="40" fill="#7a7652"/><circle cx="10" cy="135" r="27" fill="#95472a"/><circle cx="79" cy="74" r="15" fill="#dc9f48"/><circle cx="10" cy="240" r="36" fill="#060025"/><circle cx="70" cy="248" r="27" fill="#160018"/><circle cx="65" cy="98" r="13" fill="#2d000b"/><circle cx="85" cy="212" r="13" fill="#b66929"/><circle cx="152" r="28" fill="#517148"/><circle cx="91" cy="31" r="9" fill="#290000"/><circle cx="79" cy="45" r="12" fill="#f4bd51"/><circle cx="155" cy="41" r="31" fill="#949c64"/><circle cx="69" cy="163" r="28" fill="#362126"/><circle cx="119" cy="108" r="14" fill="#2f030b"/><circle cx="109" cy="55" r="12" fill="#0e0019"/><circle cx="35" cy="191" r="12" fill="#8c4b2c"/><circle cx="55" cy="195" r="8" fill="#eec259"/><circle cx="17" cy="84" r="32" fill="#4c4b3c"/><circle cx="52" cy="113" r="14" fill="#401314"/></g></svg>