<svg xmlns="http://www.w3.org/2000/svg" width="300" height="447" viewBox="0 0 300 447"><g filter="blur(12px)"><rect width="200%" height="200%" x="-50%" y="-50%" fill="#9aa06a"/><g stroke-linecap="round"><path fill="rgba(132,113,71,255)" stroke="rgba(132,113,71,255)" d="M300 0v447l-88-246L300 0"/><path fill="rgba(7,3,26,255)" stroke="rgba(7,3,26,255)" d="M300 447H0l181-47 119 47"/><path fill="rgba(105,75,49,255)" stroke="rgba(105,75,49,255)" d="M0 447V0l26 397-26 50"/><path fill="rgba(29,14,33,255)" stroke="rgba(29,14,33,255)" d="M181 400 0 447l26-50 155 3"/><path fill="rgba(37,17,32,255)" stroke="rgba(37,17,32,255)" d="m212 201 88 246-102-149 14-97"/><path fill="rgba(44,18,31,255)" stroke="rgba(44,18,31,255)" d="m300 447-119-47 17-102 102 149"/><path fill="rgba(106,70,34,255)" stroke="rgba(106,70,34,255)" d="M26 397 0 0l75 264-49 133"/><path fill="rgba(145,101,66,255)" stroke="rgba(145,101,66,255)" d="m181 400-155-3 49-133 106 136"/><path fill="rgba(40,29,47,255)" stroke="rgba(40,29,47,255)" d="m198 298-17 102L75 264l123 34"/><path fill="rgba(71,52,33,255)" stroke="rgba(71,52,33,255)" d="m212 201-14 97-123-34 137-63"/><path fill="rgba(124,133,86,255)" stroke="rgba(124,133,86,255)" d="M0 0h300L108 83 0 0"/><path fill="rgba(73,81,48,255)" stroke="rgba(73,81,48,255)" d="m300 0-88 201L108 83 300 0"/><path fill="rgba(106,75,37,255)" stroke="rgba(106,75,37,255)" d="M212 201 75 264l33-181 104 118"/><path fill="rgba(68,72,45,255)" stroke="rgba(68,72,45,255)" d="M75 264 0 0l108 83-33 181"/></g></g></svg>