<svg xmlns="http://www.w3.org/2000/svg" width="300" height="447"><g filter="blur(8px)"><rect width="200%" height="200%" x="-50%" y="-50%" fill="#9aa06a"/><path fill="#8e9460" d="M-74-56.5H38v112H-74z"/><path fill="#9a9b63" d="M38-56.5h56v112H38z"/><path fill="#a88744" d="M94-56.5h56v112H94z"/><path fill="#5f482b" d="M150-56.5h56v112h-56z"/><path fill="#7f875a" d="M206-56.5h56v112h-56z"/><path fill="#a2a367" d="M262-56.5h112v112H262z"/><path fill="#54573f" d="M-74 55.5H38v56H-74z"/><path fill="#5c593f" d="M38 55.5h56v56H38z"/><path fill="#9a6e38" d="M94 55.5h56v56H94z"/><path fill="#533825" d="M150 55.5h56v56h-56z"/><path fill="#3f4b3c" d="M206 55.5h56v56h-56z"/><path fill="#727b57" d="M262 55.5h112v56H262z"/><path fill="#504b37" d="M-74 111.5H38v56H-74z"/><path fill="#4a4231" d="M38 111.5h56v56H38z"/><path fill="#765431" d="M94 111.5h56v56H94z"/><path fill="#6f4f2b" d="M150 111.5h56v56h-56z"/><path fill="#3e392a" d="M206 111.5h56v56h-56z"/><path fill="#616243" d="M262 111.5h112v56H262z"/><path fill="#754d2f" d="M-74 167.5H38v56H-74z"/><path fill="#543824" d="M38 167.5h56v56H38z"/><path fill="#bc9950" d="M94 167.5h56v56H94z"/><path fill="#a17f40" d="M150 167.5h56v56h-56z"/><path fill="#39251f" d="M206 167.5h56v56h-56z"/><path fill="#6c533c" d="M262 167.5h112v56H262z"/><path fill="#664536" d="M-74 223.5H38v56H-74z"/><path fill="#38272d" d="M38 223.5h56v56H38z"/><path fill="#3c2b27" d="M94 223.5h56v56H94z"/><path fill="#2e2324" d="M150 223.5h56v56h-56z"/><path fill="#271b23" d="M206 223.5h56v56h-56z"/><path fill="#402b36" d="M262 223.5h112v56H262z"/><path fill="#402c33" d="M-74 279.5H38v56H-74z"/><path fill="#583a2d" d="M38 279.5h56v56H38z"/><path fill="#4e3a2f" d="M94 279.5h56v56H94z"/><path fill="#1c1524" d="M150 279.5h56v56h-56z"/><path fill="#1d1022" d="M206 279.5h56v56h-56z"/><path fill="#2e2536" d="M262 279.5h112v56H262z"/><path fill="#1c112a" d="M-74 335.5H38v56H-74z"/><path fill="#65432d" d="M38 335.5h56v56H38z"/><path fill="#956531" d="M94 335.5h56v56H94z"/><path fill="#4e2a1e" d="M150 335.5h56v56h-56z"/><path fill="#25121d" d="M206 335.5h56v56h-56z"/><path fill="#251a2d" d="M262 335.5h112v56H262z"/><path fill="#160d26" d="M-74 391.5H38v112H-74z"/><path fill="#261322" d="M38 391.5h56v112H38z"/><path fill="#26101f" d="M94 391.5h56v112H94z"/><path fill="#140b1c" d="M150 391.5h56v112h-56z"/><path fill="#090518" d="M206 391.5h56v112h-56z"/><path fill="#180d1f" d="M262 391.5h112v112H262z"/></g></svg>