<svg xmlns="http://www.w3.org/2000/svg" width="300" height="447"><rect width="100%" height="100%" fill="#9aa06a"/><g fill-opacity=".5"><path d="m182.5-27 144.9 473H-27.1z"/><path fill="#260014" d="m.9 49.8 326.5 387.6L2.6 474.1z"/><path fill="#ffbf50" d="m144 28.8 40.2 209.5L97 248.8z"/><path fill="#20061b" d="m135.3 30.6 145 443.5 47-314.3z"/><path fill="#645d34" d="m327.4-2.6-216.5 206L-27.1 1z"/><path fill="#f8ac41" d="m77.7 400.7 7-78.5 104.8 43.6z"/><path fill="#ffeb76" d="m184.2 177.2-89 42 62.8 33.1z"/><path fill="#060018" d="m327.4 439.1-190.3 35 43.6-256.7z"/><path fill="#350e13" d="M182.5 163.3 49.8 100.4l61 90.8z"/><path fill="#caa759" d="m-27 70.7 199 68.1-14-78.6z"/><path fill="#040027" d="M7.9 289 109 446-6 468.8z"/><path fill="#22000b" d="m105.6 177.2 7-115.2-28 62.8z"/><path fill="#73824e" d="m175.5-27 54.1 225.2 97.8 48.9z"/><path fill="#0b000f" d="m170.2 39.3 12.3 145 33.1-85.6z"/><path fill="#ac6e2f" d="m227.9 367.6-199-49L149.2 392z"/><path fill="#919c62" d="m269.8 128.3 57.6-89L135.4 6z"/><path fill="#e1a449" d="m151 187.7-36.6-54.1 8.7-75.1z"/><path fill="#000015" d="m.9 437.4 248-48.9 27.9 75z"/><path fill="#4c7045" d="m278.5-27 48.9 69.8L37.5 6z"/><path fill="#384638" d="M231.4 201.7 206.9 137l120.5-28z"/><path fill="#92a46a" d="m23.6 114.4-50.7-69.9 172.9-12.2z"/><path fill="#674825" d="m83 231.4 54 48.8 35-34.9z"/><path fill="#a8651b" d="m175.5 233.1 50.6-15.7-54.1-43.7z"/><path fill="#1c122c" d="m276.8 261 50.6 146.7-270.7-103z"/><path fill="#93511a" d="m76 205.2-82.1-12.3 38.4 101.3z"/><path fill="#260718" d="m72.5 255.8 38.4-113.5 28 21z"/><path fill="#3a312f" d="M6.1 315.2-16.6 63.7 34 154.5z"/><path fill="#5d2715" d="M72.5 402.5 233 386.8 220.9 343z"/><path fill="#f7d16f" d="m142.3 173.7 29.7 62.9-66.4-5.2z"/><path fill="#f4bf54" d="m133.6 58.5-22.7 33.2 62.8 1.7z"/><path fill="#cca34b" d="m76 329.1 57.6 7 3.5 47.2z"/><path fill="#4b1200" d="m177.2 48-68 17.5 24.4-22.7z"/><path fill="#250b16" d="m194.7 60.2 19.2 131-59.4-31.4z"/><path fill="#523030" d="m-27 247 69.8 110 50.6-29.6z"/><path fill="#a4823e" d="m327.4 250.6-96-61.1 47.1-3.5z"/><path fill="#4b5a3b" d="M84.7 210.4-20.1 84.7l117 22.7z"/><path fill="#87502c" d="m88.2 353.6-21 29.7 21 28z"/><path fill="#8e551f" d="m175.5 88.2 1.7 24.4-71.6-12.2z"/><path fill="#8b915e" d="M327.4 117.9 144 30.6 289 13z"/><path fill="#516d41" d="M76 28.8-27 .8l213-3.4z"/><path fill="#e3a747" d="m170.2 103.9-26.1 52.4 1.7-45.4z"/><path fill="#5d2a35" d="m255.8 210.4 68.1 40.2-29.7 83.8z"/><path fill="#3e2419" d="m168.5 147.5-89 71.6-28-26.2z"/><path fill="#361a16" d="m170.2 128.3 71.6 69.9-52.3 17.4z"/><path fill="#a3a66f" d="M296 81.2 191.2 55l14 29.7z"/><path fill="#34232c" d="m102.1 222.6 45.4 106.5-144.9-7z"/><path fill="#120925" d="m189.5 233.1 85.5 29.7-21-45.4z"/><path fill="#9da674" d="m105.6 56.7-14 56-94.2-54.2z"/><path fill="#603b20" d="m200 247 38.3 8.8-41.9 42z"/><path fill="#0f0d20" d="M163.3 358.8 261 257.5l-143 68.1z"/></g></svg>