<svg xmlns="http://www.w3.org/2000/svg" width="300" height="447"><rect width="100%" height="100%" fill="#9aa06a"/><g fill-opacity=".5"><path d="M182.5-27-27.1 446h354.5z"/><path fill="#250013" d="m327.4 444.4-323 5.2L-8 41z"/><path fill="#ffbe50" d="m184.2 234.8-45.4-220-35 244.5z"/><path fill="#1b041c" d="m151 44.5 127.5 429.6 48.9-317.8z"/><path fill="#635a33" d="m-27-7.9 354.4 7-213 202.6z"/><path fill="#faad43" d="m191.2 364-110-41.8 1.7 76.8z"/><path fill="#000018" d="M287.2 472.3-27 439.1l354.5-83.8z"/><path fill="#ffee78" d="M184.2 173.7 165 243.6 91.7 226z"/><path fill="#1f000d" d="m103.9 93.4-47.2 29.7 75.1 66.4z"/><path fill="#ceaa5c" d="m-25.3 65.5 192 75-3.4-73.3z"/><path fill="#080023" d="M327.4 365.8 179 227.8l-45.4 115.3z"/><path fill="#91a064" d="m131.8-7.9 125.7 143.2L327.4 69z"/><path fill="#1e000d" d="m194.7 60.2 26.2 136.2-75.1-31.4z"/><path fill="#0b002a" d="m9.6 287.2-14 157.2 110 7z"/><path fill="#767e44" d="m194.7 55 113.5 179.8-73.4-33.1z"/><path fill="#30050f" d="M102.1 168.5 114.4 62l-26.2 50.6z"/><path fill="#537144" d="M140.6 51.5-27.1-6l354.5 5z"/><path fill="#94a46a" d="m-27 44.5 55.8 68.1 118.7-82z"/><path fill="#1f0015" d="m67.2 241.8 49-94.3 26.1 17.5z"/><path fill="#3e282f" d="m86.4 210.4 83.8 78.6L-27 383.3z"/><path fill="#1b0008" d="m213.9 116.1-28-66.3-55.8-7z"/><path fill="#c69341" d="m49.8 322.2 83.8 15.7 12.2 52.4z"/><path fill="#70341a" d="m234.8 346.6-117 71.6-10.4-47.2z"/><path fill="#96531a" d="m81.2 207-52.4 82-26.2-92.6z"/><path fill="#965316" d="m168.5 165 12.2 66.4 52.4-15.8z"/><path fill="#f0b44e" d="m114.4 140.6 3.5-76.9 40.1-3.5z"/><path fill="#3a4d3c" d="m203.4 133.6 124-19.2-97.8 78.5z"/><path fill="#facf6c" d="m100.4 217.4 42-36.7 20.9 59.4z"/><path fill="#404733" d="m-27 250.6 13.9-124 138-28z"/><path fill="#be8033" d="m170.2 81.2-55.8 59.4 54.1 3.5z"/><path fill="#000015" d="M245.3 358.8 88.2 474.1l181.6-21z"/><path fill="#703d29" d="m91.7 414.7-14-97.8-43.7 1.8z"/><path fill="#301c2f" d="m186 229.6 110 19.2 7 211.3z"/><path fill="#745325" d="m133.6 273.3-21-21 85.6-22.7z"/><path fill="#8a925f" d="M327.4 27 137 20l99.5 66.4z"/><path fill="#9d7f40" d="m271.5 170.2 55.9 80.4-89-52.4z"/><path fill="#130f22" d="m166.8 357 97.7-78.5-195.5 21z"/><path fill="#9aa371" d="m2.6 58.5 90.8 62.9L104 56.7z"/><path fill="#672f06" d="m100.4 76 28-33.2h38.4z"/><path fill="#55613f" d="M98.7 179-27.1 91.7h90.8z"/><path fill="#130c28" d="m88.2 357-73.4-12L2.6 448z"/><path fill="#4b3218" d="m41 186 90.8 96-50.6-101.3z"/><path fill="#73431b" d="m93.4 95.2 43.7 14 41.9-14z"/><path fill="#703634" d="m317 337.9 10.4-85.6-78.6-47.1z"/><path fill="#66421d" d="m245.3 255.8-36.6-7-14 45.4z"/><path fill="#321818" d="m233.1 198.2-41.9 19.2-22.7-94.3z"/><path fill="#d6a34e" d="m133.6 158-22.7-28 22.7-47z"/><path fill="#2c0c30" d="M-27 301.2V175.5l47 83.8z"/><path fill="#265232" d="M327.4 2.6 234.8-27 184.2 6.1z"/><path fill="#3e5744" d="m200 107.4 40-19.2 28 87.3z"/></g></svg>