<svg xmlns="http://www.w3.org/2000/svg" width="300" height="447"><rect width="100%" height="100%" fill="#9aa06a"/><g fill-opacity=".5"><path d="M327.4 446.1 182.4-27-27 446.1z"/><path fill="#260014" d="M327.4 439.1-20.1 21.8 4.4 474.1z"/><path fill="#1b041c" d="m327.4 154.5-48.9 319.6L151 44.5z"/><path fill="#ffbf50" d="m140.6 21.8 45.4 213-83.9 19.3z"/><path fill="#645c34" d="m-27 .9 354.4-12.2L103.9 219z"/><path fill="#f9ac42" d="m76 399 8.7-76.8 106.5 43.6z"/><path fill="#000017" d="m-27 439.1 354.4-85.5L289 474z"/><path fill="#ffef78" d="m163.3 248.8-68.1-29.7 85.5-41.9z"/><path fill="#240009" d="m107.4 81.2 19.2 111.7-55.9-64.6z"/><path fill="#cdab5d" d="M-27 65.5 159.7 62l8.7 78.6z"/><path fill="#090123" d="M327.4 365.8 130 339.6l50.6-115.2z"/><path fill="#8e9f64" d="m126.6-27 200.8 129-83.8 29.7z"/><path fill="#1c000d" d="M222.6 200 151 166.7l42-113.5z"/><path fill="#0a0029" d="M110.9 474H-14.8l29.6-186.8z"/><path fill="#777b41" d="m203.4 83 28 117 96 45.3z"/><path fill="#300816" d="M98.7 84.7 88.2 226l45.4-48.9z"/><path fill="#527447" d="M16.6 6.1 289-27l38.4 78.6z"/><path fill="#94a66d" d="m32.3 114.4-59.4-61.1 164.2-15.8z"/><path fill="#240002" d="M180.7 46.3 118 44.5l87.3 49z"/><path fill="#f2b04c" d="m110.9 130 21 26.3V58.5z"/><path fill="#965416" d="M229.6 215.6 179 234.8l-7-71.5z"/><path fill="#bd893e" d="m138.8 339.6 5.3 50.7-108.3-69.9z"/><path fill="#3b272a" d="m292.5 262.8-319.6 103 115.3-131z"/><path fill="#91501a" d="m-.9 193 28 101.2 54-89z"/><path fill="#733518" d="m70.7 409.5 85.6-57.7 80.3 14z"/><path fill="#3a4130" d="M131.8 93.4-27 234.8v-97.7z"/><path fill="#90925f" d="M320.4 14.8 151 30.6l176.4 122.2z"/><path fill="#f3c764" d="m126.6 184.2-33.2 50.6 90.8-3.4z"/><path fill="#310300" d="m98.7 84.7 22.7-33.2-17.5 50.6z"/><path fill="#3a4d3d" d="m327.4 116.1-127.5 14 29.7 66.3z"/><path fill="#000015" d="m131.8 439.1 117-83.8 24.5 118.8z"/><path fill="#331b19" d="m48 210.4 62.9-55.9 55.9 5.3z"/><path fill="#7b5b27" d="m184.2 233.1-45.4 42-31.4-22.8z"/><path fill="#342138" d="m262.8 215.6-3.5 200.8 68-12.2z"/><path fill="#a68843" d="m236.6 194.7 31.4-14 59.4 69.9z"/><path fill="#b07425" d="m177.2 100.4-31.4-48.9 15.7 92.6z"/><path fill="#4f3032" d="M93.4 364 8 334.5l-24.5-132.7z"/><path fill="#edbd57" d="m112.6 98.7 14-38.5 41.9 28z"/><path fill="#140e22" d="m262.8 268-66.4 89-146.6-47z"/><path fill="#515d40" d="m-27 100.4 96-7 34.9 97.8z"/><path fill="#cfa44a" d="m109.1 327.4 52.4 36.7L76 341.4z"/><path fill="#29171d" d="m166.8 49.8 69.8 148.4-45.4 19.2z"/><path fill="#2b5436" d="m154.5.9 124-28 26.2 35z"/><path fill="#976630" d="m11.3 276.8 31.5 7 21-104.8z"/><path fill="#42553f" d="m205.2 86.4 15.7 110 22.7-103z"/><path fill="#47311d" d="m84.7 180.7 54.1 117-94.3-110z"/><path fill="#120821" d="m264.5 257.5-75-19.2 59.3-24.4z"/><path fill="#6e381c" d="m119.6 418.2 103-66.4-62.8 5.3z"/><path fill="#a5b07f" d="M103.9 63.7 49.8 81.2l43.6 29.7z"/><path fill="#29573c" d="m-27 4.4 143-1.8L83-27z"/></g></svg>