<svg xmlns="http://www.w3.org/2000/svg" width="300" height="447"><rect width="100%" height="100%" fill="#9aa06a"/><g fill-opacity=".5" transform="translate(.9 .9)scale(1.7461)"><circle cx="81" cy="235" r="185"/><circle cx="151" cy="210" r="85" fill="#0f0016"/><circle cx="83" cy="122" r="21" fill="#fffe71"/><circle cx="64" r="92" fill="#675b33"/><circle cx="82" cy="225" r="87" fill="#29071e"/><circle cx="63" cy="208" r="22" fill="#eba440"/><circle cx="79" cy="60" r="19" fill="#ffb84c"/><circle cx="101" cy="45" r="15" fill="#0d0000"/><circle cx="171" cy="121" r="30" fill="#966d4c"/><circle cx="110" cy="79" r="19" fill="#140012"/><circle cx="10" cy="242" r="38" fill="#000021"/><circle cx="78" cy="125" r="19" fill="#ffbc5f"/><circle cx="37" cy="44" r="20" fill="#b1b87a"/><circle cx="129" cy="255" r="41" fill="#000013"/><circle cx="155" cy="33" r="42" fill="#7a8b5a"/><circle cx="9" cy="134" r="28" fill="#94482b"/><circle cx="89" cy="212" r="13" fill="#ac6827"/><circle cx="79" cy="76" r="14" fill="#dc9c46"/><circle cx="70" cy="245" r="24" fill="#110016"/><circle cx="61" cy="100" r="16" fill="#390b17"/><circle cx="91" cy="30" r="9" fill="#280000"/><circle cx="80" cy="46" r="13" fill="#e9b24b"/><circle cx="118" cy="108" r="14" fill="#2f0009"/><circle cx="69" cy="163" r="29" fill="#352426"/><circle cx="90" cy="112" r="15" fill="#e2a548"/><circle cx="114" cy="212" r="12" fill="#7e3d11"/><circle cx="17" cy="87" r="36" fill="#514e3b"/><circle cx="149" r="24" fill="#4f6b44"/><circle cx="54" cy="195" r="8" fill="#edc059"/><circle cx="158" cy="40" r="30" fill="#9c9c63"/></g></svg>