<svg xmlns="http://www.w3.org/2000/svg" width="300" height="447"><rect width="100%" height="100%" fill="#9aa06a"/><g fill-opacity=".5"><path d="M-27 446.1h354.4L182.4-27z"/><path fill="#40131a" d="M327.4 254-27.1 44.6l38.4 429.6z"/><path fill="#ffca55" d="m189.5 234.8-89.1 12.3 40.2-220z"/><path fill="#130019" d="M60.2 474h267.2L294.2 83z"/><path fill="#f2a840" d="M196.4 365.8 77.7 399l5.2-76.8z"/><path fill="#635a37" d="M327.4-7.9-27.1-2.6l354.5 326.5z"/><path fill="#000023" d="m-6.1 474 127.5-3.4L7.9 282z"/><path fill="#110010" d="m180.7 39.3-17.4 117L271.5 275z"/><path fill="#ffef79" d="m165 250.6-68-28 78.5-48.9z"/><path fill="#353526" d="M-23.6 222.6-9.6 90l192 83.8z"/><path fill="#a5b271" d="m130 11.3 153.7 118.8L327.4 62z"/><path fill="#000012" d="M264.5 358.8 20.1 453.1l305.5 21z"/><path fill="#eaa745" d="m177.2 107.4-62.8-76.8 1.7 115.2z"/><path fill="#aab472" d="M128.3 35.8-27 74.2l108.3 35z"/><path fill="#300813" d="m130 175.5-52.3 73.3 24.4-164.1z"/><path fill="#1e162a" d="m310 381.5-321.3-82 268.8-89.1z"/><path fill="#2d0000" d="m198.2 62-85.6-3.5 31.5-19.2z"/><path fill="#577747" d="M229.6 55-27 2.6 327.4-20z"/><path fill="#957937" d="m177.2 227.9 92.6-57.7 28 36.7z"/><path fill="#3a503f" d="m292.5 152.8-68.1 50.6-26.2-131z"/><path fill="#722d13" d="m241.8 378-43.6-28-118.8 54.2z"/><path fill="#765426" d="m140.6 280.2 34.9-38.4-85.6-5.2z"/><path fill="#734523" d="m-21.8 367.6 131-206-124 45.3z"/><path fill="#dcb050" d="m163.3 358.8-68.1-33.2L72.5 345z"/><path fill="#f5cb6a" d="m170.2 238.3-24.4-68-43.7 59.3z"/><path fill="#0f0015" d="m158 42.8 43.7 34.9 10.5 106.5z"/><path fill="#e0b054" d="m158 65.5-47 76.8 3.5-76.8z"/><path fill="#3f1a18" d="m109.1 65.5 5.3 125.7-31.5-64.6z"/><path fill="#0c0920" d="m154.5 358.8 3.5-92.5 124 68z"/><path fill="#331315" d="m145.8 158 35-33.2 82 104.8z"/><path fill="#5b4020" d="m241.8 259.3-36.6 28-26.2-75.1z"/><path fill="#8c935e" d="M327.4 37.5 159.8 9.6l61 92.5z"/><path fill="#ae9652" d="m234.8 189.5 80.4 55.8 12.2-24.4z"/><path fill="#647a5c" d="m97 179-1.8-29.7-80.4 33.2z"/><path fill="#75471f" d="m182.5 88.2-83.8 14 59.3 7z"/><path fill="#010016" d="M114.4 435.7 240 374.5l52.4 99.6z"/><path fill="#1f0d3b" d="m4.4 278.5-8.8-62.9 24.5 42z"/><path fill="#87925b" d="M147.5 30.6-27 28.8l49 92.6z"/><path fill="#76432c" d="m25.3 327.4 97.8 59.4-57.6-73.4z"/><path fill="#c3853a" d="m112.6 137 59.4-19-35 43.6z"/><path fill="#a87123" d="m198.2 224.4-50.7-49 29.7-10.4z"/><path fill="#302026" d="m152.8 308.2-82-131L79.3 331z"/><path fill="#2b5637" d="m121.4-.9 110-26.2 96 36.7z"/><path fill="#110627" d="m11.3 351.8-14 122.3L83 355.3z"/><path fill="#2d121c" d="m107.4 152.8-24.5 71.6 66.4-64.6z"/><path fill="#adab73" d="M98.7 63.7.9 76l94.3 31.4z"/><path fill="#3d2a3f" d="m327.4 301.2-28 103-43.6-141.4z"/><path fill="#966328" d="m37.5 184.2 29.7 38.4-48.9 64.6z"/><path fill="#aca96b" d="m315.2 69-76.9 1.7 17.5 57.6z"/><path fill="#c29141" d="M133.6 337.9 74.2 329l68.1 59.4z"/></g></svg>