<svg xmlns="http://www.w3.org/2000/svg" width="300" height="447" viewBox="0 0 300 447"><g stroke-linecap="round"><path fill="rgba(94,74,39,255)" stroke="rgba(94,74,39,255)" d="M0 447V0l176 110L0 447"/><path fill="rgba(19,10,25,255)" stroke="rgba(19,10,25,255)" d="M300 447H0l268-16 32 16"/><path fill="rgba(127,70,66,255)" stroke="rgba(127,70,66,255)" d="M300 0v447l-33-176L300 0"/><path fill="rgba(30,19,37,255)" stroke="rgba(30,19,37,255)" d="m300 447-32-16-1-160 33 176"/><path fill="rgba(60,27,34,255)" stroke="rgba(60,27,34,255)" d="M268 431 0 447l267-176 1 160"/><path fill="rgba(107,123,74,255)" stroke="rgba(107,123,74,255)" d="M0 0h300L163 53 0 0"/><path fill="rgba(129,137,86,255)" stroke="rgba(129,137,86,255)" d="M300 0 176 110l-13-57L300 0"/><path fill="rgba(155,146,91,255)" stroke="rgba(155,146,91,255)" d="M176 110 0 0l163 53 13 57"/><path fill="rgba(59,74,57,255)" stroke="rgba(59,74,57,255)" d="m300 0-33 271-48-90L300 0"/><path fill="rgba(132,93,49,255)" stroke="rgba(132,93,49,255)" d="m0 447 176-337 43 71L0 447"/><path fill="rgba(35,25,37,255)" stroke="rgba(35,25,37,255)" d="M267 271 0 447l219-266 48 90"/><path fill="rgba(115,133,93,255)" stroke="rgba(115,133,93,255)" d="M176 110 300 0l-82 178-42-68"/><path fill="rgba(104,121,85,255)" stroke="rgba(104,121,85,255)" d="m300 0-81 181-1-3L300 0"/><path fill="rgba(29,22,28,255)" stroke="rgba(29,22,28,255)" d="m219 181-43-71 42 68 1 3"/></g></svg>