<svg xmlns="http://www.w3.org/2000/svg" width="300" height="447"><rect width="100%" height="100%" fill="#9aa06a"/><g fill-opacity=".5" transform="translate(.9 .9)scale(1.7461)"><circle cx="84" cy="224" r="174"/><circle cx="90" cy="232" r="95" fill="#190017"/><circle cx="83" cy="123" r="21" fill="#ffff72"/><circle cx="62" r="93" fill="#675a32"/><circle cx="62" cy="208" r="22" fill="#eda041"/><circle cx="79" cy="60" r="19" fill="#ffb94c"/><circle cx="101" cy="45" r="15" fill="#0e0000"/><circle cx="127" cy="255" r="44" fill="#000010"/><circle cx="126" cy="165" r="38" fill="#130523"/><circle cx="110" cy="78" r="19" fill="#140013"/><circle cx="86" cy="119" r="19" fill="#ffbd5c"/><circle cx="38" cy="43" r="20" fill="#b0b879"/><circle cx="10" cy="135" r="27" fill="#95472a"/><circle cx="158" cy="27" r="47" fill="#798b59"/><circle cx="79" cy="73" r="16" fill="#d69945"/><circle cx="160" cy="113" r="19" fill="#9b7c4b"/><circle cx="9" cy="237" r="35" fill="#060026"/><circle cx="71" cy="251" r="30" fill="#150018"/><circle cx="86" cy="212" r="13" fill="#b46628"/><circle cx="92" cy="31" r="9" fill="#250000"/><circle cx="65" cy="99" r="13" fill="#30000c"/><circle cx="78" cy="45" r="12" fill="#f7c053"/><circle cx="117" cy="108" r="14" fill="#300007"/><circle cx="65" cy="127" r="8" fill="#ffcc58"/><circle cx="46" cy="144" r="16" fill="#2d0f26"/><circle cx="32" cy="190" r="12" fill="#8b482b"/><circle cx="75" cy="149" r="13" fill="#704827"/><circle cx="55" cy="195" r="8" fill="#edc159"/><circle cx="16" cy="82" r="31" fill="#4a4a3d"/><circle cx="149" r="24" fill="#506a45"/></g></svg>