<svg xmlns="http://www.w3.org/2000/svg" width="300" height="447"><g filter="blur(10px)"><rect width="200%" height="200%" x="-50%" y="-50%" fill="#9aa06a"/><rect width="100%" height="100%" fill="#9aa06a"/><g fill-opacity=".5" transform="translate(.9 .9)scale(1.75)"><circle cx="81" cy="219" r="170"/><circle cx="83" cy="122" r="21" fill="#fffe71"/><circle cx="98" cy="255" r="119" fill="#190018"/><circle cx="63" r="92" fill="#685c33"/><circle cx="62" cy="209" r="22" fill="#eda03f"/><circle cx="79" cy="58" r="19" fill="#ffbb4d"/><circle cx="101" cy="44" r="15" fill="#0c0000"/><circle cx="128" cy="255" r="45" fill="#00000f"/><circle cx="80" cy="128" r="21" fill="#f7b258"/><circle cx="110" cy="82" r="19" fill="#150010"/><circle cx="37" cy="41" r="22" fill="#abb476"/><circle cx="121" cy="167" r="40" fill="#170a22"/><circle cx="171" cy="90" r="40" fill="#7a7752"/><circle cx="9" cy="134" r="28" fill="#94482b"/><circle cx="78" cy="74" r="15" fill="#e0a048"/><circle cx="72" cy="255" r="34" fill="#140018"/><circle cx="10" cy="234" r="32" fill="#050025"/><circle cx="85" cy="212" r="13" fill="#b66929"/><circle cx="150" r="29" fill="#517047"/><circle cx="64" cy="97" r="13" fill="#2c000d"/><circle cx="89" cy="29" r="8" fill="#260000"/><circle cx="56" cy="161" r="30" fill="#3d2329"/><circle cx="54" cy="196" r="9" fill="#e6b854"/><circle cx="152" cy="41" r="30" fill="#949c64"/><circle cx="108" cy="55" r="11" fill="#070015"/><circle cx="123" cy="130" r="24" fill="#4c2418"/><circle cx="79" cy="48" r="14" fill="#dca94a"/><circle cx="114" cy="212" r="12" fill="#813611"/><circle cx="33" cy="192" r="13" fill="#83452b"/><circle cx="92" cy="109" r="13" fill="#dc9c3f"/></g></g></svg>