<svg xmlns="http://www.w3.org/2000/svg" width="300" height="447" viewBox="0 0 300 447"><g stroke-linecap="round"><path fill="rgba(122,82,57,255)" stroke="rgba(122,82,57,255)" d="M300 0v447l-43-64L300 0"/><path fill="rgba(15,6,25,255)" stroke="rgba(15,6,25,255)" d="M300 447H0l257-64 43 64"/><path fill="rgba(111,64,34,255)" stroke="rgba(111,64,34,255)" d="m0 447 79-118 178 54L0 447"/><path fill="rgba(44,34,49,255)" stroke="rgba(44,34,49,255)" d="m300 0-43 383-70-84L300 0"/><path fill="rgba(8,7,34,255)" stroke="rgba(8,7,34,255)" d="M257 383 79 329l108-30 70 84"/><path fill="rgba(73,56,72,255)" stroke="rgba(73,56,72,255)" d="M0 447V0l10 329L0 447"/><path fill="rgba(13,11,36,255)" stroke="rgba(13,11,36,255)" d="M79 329 0 447l10-118h69"/><path fill="rgba(52,38,41,255)" stroke="rgba(52,38,41,255)" d="M187 299 79 329 32 213l155 86"/><path fill="rgba(49,34,41,255)" stroke="rgba(49,34,41,255)" d="M79 329H10l22-116 47 116"/><path fill="rgba(79,81,66,255)" stroke="rgba(79,81,66,255)" d="M10 329 0 0l32 213-22 116"/><path fill="rgba(124,132,81,255)" stroke="rgba(124,132,81,255)" d="M0 0h300L101 82 0 0"/><path fill="rgba(114,110,62,255)" stroke="rgba(114,110,62,255)" d="M32 213 0 0l101 82-69 131"/><path fill="rgba(33,27,43,255)" stroke="rgba(33,27,43,255)" d="M300 0 187 299 101 82 300 0"/><path fill="rgba(58,25,22,255)" stroke="rgba(58,25,22,255)" d="M187 299 32 213l69-131 86 217"/></g></svg>