<svg xmlns="http://www.w3.org/2000/svg" width="300" height="447"><g filter="blur(10px)"><rect width="200%" height="200%" x="-50%" y="-50%" fill="#9aa06a"/><rect width="100%" height="100%" fill="#9aa06a"/><g fill-opacity=".5" transform="translate(.9 .9)scale(1.75)"><circle cx="84" cy="214" r="165"/><circle cx="90" cy="245" r="107" fill="#190017"/><circle cx="83" cy="123" r="21" fill="#ffff72"/><circle cx="62" r="93" fill="#675b33"/><circle cx="62" cy="208" r="22" fill="#eda041"/><circle cx="78" cy="60" r="19" fill="#ffb84d"/><circle cx="101" cy="42" r="14" fill="#090000"/><circle cx="127" cy="255" r="44" fill="#000010"/><circle cx="124" cy="162" r="35" fill="#130521"/><circle cx="110" cy="81" r="19" fill="#150011"/><circle cx="86" cy="119" r="19" fill="#ffbd5c"/><circle cx="39" cy="44" r="19" fill="#b4ba7b"/><circle cx="171" cy="96" r="39" fill="#79704f"/><circle cx="10" cy="135" r="27" fill="#95472a"/><circle cx="7" cy="244" r="41" fill="#070025"/><circle cx="70" cy="244" r="24" fill="#170017"/><circle cx="80" cy="74" r="16" fill="#d59743"/><circle cx="86" cy="213" r="13" fill="#b26427"/><circle cx="153" r="28" fill="#4f6f46"/><circle cx="151" cy="41" r="30" fill="#939c64"/><circle cx="63" cy="98" r="14" fill="#310011"/><circle cx="107" cy="54" r="12" fill="#0e0012"/><circle cx="122" cy="130" r="25" fill="#4c2417"/><circle cx="90" cy="31" r="9" fill="#300"/><circle cx="79" cy="45" r="12" fill="#f3bd51"/><circle cx="65" cy="127" r="9" fill="#ffbc51"/><circle cx="34" cy="191" r="12" fill="#8c4b2c"/><circle cx="46" cy="141" r="16" fill="#321023"/><circle cx="76" cy="149" r="13" fill="#704927"/><circle cx="15" cy="82" r="31" fill="#494a3d"/></g></g></svg>