<svg xmlns="http://www.w3.org/2000/svg" width="300" height="447"><rect width="100%" height="100%" fill="#9aa06a"/><g fill-opacity=".5" transform="translate(.9 .9)scale(1.7461)"><circle cx="81" cy="255" r="204"/><circle cx="83" cy="122" r="21" fill="#fffe71"/><circle cx="96" cy="255" r="118" fill="#190018"/><circle cx="64" r="92" fill="#675b32"/><circle cx="62" cy="208" r="22" fill="#eda040"/><circle cx="79" cy="60" r="19" fill="#ffb74b"/><circle cx="101" cy="43" r="14" fill="#040000"/><circle cx="128" cy="255" r="45" fill="#00000f"/><circle cx="78" cy="126" r="19" fill="#ffbc5f"/><circle cx="110" cy="80" r="20" fill="#180013"/><circle cx="126" cy="164" r="37" fill="#150723"/><circle cx="37" cy="42" r="21" fill="#aeb778"/><circle cx="171" cy="92" r="40" fill="#7a7652"/><circle cx="10" cy="134" r="28" fill="#93472b"/><circle cx="10" cy="240" r="36" fill="#060024"/><circle cx="79" cy="73" r="16" fill="#d79a45"/><circle cx="71" cy="246" r="26" fill="#170017"/><circle cx="86" cy="212" r="13" fill="#b46727"/><circle cx="51" cy="99" r="24" fill="#442323"/><circle cx="153" r="28" fill="#506f47"/><circle cx="89" cy="30" r="8" fill="#260000"/><circle cx="154" cy="41" r="31" fill="#939c64"/><circle cx="107" cy="53" r="11" fill="#090010"/><circle cx="78" cy="45" r="12" fill="#f4bd52"/><circle cx="73" cy="164" r="28" fill="#342025"/><circle cx="119" cy="109" r="13" fill="#2e0009"/><circle cx="19" cy="83" r="32" fill="#4f5240"/><circle cx="34" cy="190" r="12" fill="#8d4b2b"/><circle cx="45" cy="144" r="15" fill="#280e26"/><circle cx="88" cy="113" r="16" fill="#e4ab4f"/></g></svg>