<svg xmlns="http://www.w3.org/2000/svg" width="300" height="447"><rect width="100%" height="100%" fill="#9aa06a"/><g fill-opacity=".5" transform="translate(.9 .9)scale(1.75)"><circle cx="77" cy="245" r="194"/><circle cx="83" cy="121" r="21" fill="#fffe71"/><circle cx="96" cy="255" r="118" fill="#190018"/><circle cx="65" r="92" fill="#675b32"/><circle cx="62" cy="208" r="22" fill="#eda040"/><circle cx="79" cy="60" r="19" fill="#ffb74b"/><circle cx="101" cy="45" r="15" fill="#0c0000"/><circle cx="128" cy="255" r="45" fill="#00000f"/><circle cx="78" cy="127" r="19" fill="#ffbd5f"/><circle cx="110" cy="79" r="19" fill="#140012"/><circle cx="126" cy="162" r="36" fill="#160822"/><circle cx="36" cy="42" r="22" fill="#abb476"/><circle cx="171" cy="92" r="39" fill="#787451"/><circle cx="10" cy="134" r="28" fill="#93472b"/><circle cx="81" cy="74" r="16" fill="#d39543"/><circle cx="9" cy="245" r="39" fill="#060023"/><circle cx="65" cy="99" r="13" fill="#2e000b"/><circle cx="71" cy="247" r="26" fill="#150017"/><circle cx="85" cy="212" r="13" fill="#b66a29"/><circle cx="94" cy="33" r="10" fill="#290000"/><circle cx="78" cy="46" r="13" fill="#edb74e"/><circle cx="152" r="28" fill="#517148"/><circle cx="117" cy="108" r="14" fill="#310008"/><circle cx="150" cy="42" r="30" fill="#919a63"/><circle cx="73" cy="164" r="28" fill="#322025"/><circle cx="108" cy="53" r="11" fill="#0a0016"/><circle cx="34" cy="190" r="12" fill="#8d4b2b"/><circle cx="45" cy="142" r="14" fill="#270a23"/><circle cx="109" cy="212" r="12" fill="#843910"/><circle cx="100" cy="184" r="21" fill="#020522"/></g></svg>