<svg xmlns="http://www.w3.org/2000/svg" width="300" height="447"><rect width="100%" height="100%" fill="#9aa06a"/><g fill-opacity=".5" transform="translate(.9 .9)scale(1.7461)"><circle cx="83" cy="232" r="181"/><circle cx="63" cy="25" r="121" fill="#725c35"/><circle cx="94" cy="244" r="107" fill="#190017"/><circle cx="83" cy="123" r="21" fill="#fffb72"/><circle cx="62" cy="209" r="22" fill="#eda040"/><circle cx="79" cy="60" r="19" fill="#ffb74a"/><circle cx="101" cy="44" r="15" fill="#080000"/><circle cx="127" cy="255" r="44" fill="#000010"/><circle cx="115" cy="81" r="24" fill="#120c1d"/><circle cx="124" cy="164" r="37" fill="#130622"/><circle cx="145" cy="43" r="31" fill="#8da36c"/><circle cx="38" cy="42" r="21" fill="#a8b476"/><circle cx="82" cy="122" r="16" fill="#ffd572"/><circle cx="72" cy="255" r="34" fill="#140018"/><circle cx="50" cy="98" r="24" fill="#352024"/><circle cx="10" cy="234" r="32" fill="#050026"/><circle cx="85" cy="212" r="13" fill="#b6692a"/><circle cx="80" cy="74" r="16" fill="#d29843"/><circle cx="161" cy="114" r="18" fill="#9d7e4c"/><circle cx="80" r="36" fill="#526739"/><circle cx="20" cy="83" r="32" fill="#48503f"/><circle cx="9" cy="137" r="26" fill="#8f442b"/><circle cx="46" cy="142" r="15" fill="#230923"/><circle cx="117" cy="108" r="14" fill="#28030b"/><circle cx="78" cy="46" r="13" fill="#e9b54d"/><circle cx="110" cy="57" r="13" fill="#120118"/><circle cx="56" cy="196" r="9" fill="#e5b854"/><circle cx="93" cy="33" r="10" fill="#330201"/><circle cx="141" r="26" fill="#4c7147"/><circle cx="34" cy="191" r="12" fill="#8d4b2c"/></g></svg>