<svg xmlns="http://www.w3.org/2000/svg" width="300" height="447"><rect width="100%" height="100%" fill="#9aa06a"/><g fill-opacity=".5" transform="translate(.9 .9)scale(1.75)"><circle cx="82" cy="226" r="176"/><circle cx="83" cy="121" r="21" fill="#fffe71"/><circle cx="98" cy="255" r="119" fill="#190018"/><circle cx="64" r="92" fill="#675b32"/><circle cx="61" cy="209" r="22" fill="#eda03f"/><circle cx="79" cy="59" r="19" fill="#ffb94c"/><circle cx="101" cy="45" r="15" fill="#0c0000"/><circle cx="128" cy="255" r="45" fill="#00000f"/><circle cx="79" cy="127" r="20" fill="#ffba5c"/><circle cx="110" cy="78" r="19" fill="#140013"/><circle cx="37" cy="41" r="22" fill="#abb476"/><circle cx="124" cy="163" r="36" fill="#150822"/><circle cx="81" cy="74" r="16" fill="#d69743"/><circle cx="171" cy="91" r="40" fill="#797652"/><circle cx="10" cy="134" r="28" fill="#93472b"/><circle cx="72" cy="252" r="31" fill="#130017"/><circle cx="86" cy="212" r="13" fill="#b76928"/><circle cx="5" cy="240" r="39" fill="#060025"/><circle cx="65" cy="99" r="13" fill="#2e000b"/><circle cx="153" r="28" fill="#506f47"/><circle cx="93" cy="30" r="9" fill="#200"/><circle cx="117" cy="108" r="14" fill="#300008"/><circle cx="151" cy="41" r="30" fill="#939c64"/><circle cx="78" cy="46" r="13" fill="#eab44d"/><circle cx="53" cy="158" r="28" fill="#3a2029"/><circle cx="34" cy="191" r="12" fill="#8c4a2b"/><circle cx="56" cy="195" r="8" fill="#edc159"/><circle cx="112" cy="212" r="12" fill="#803510"/><circle cx="51" cy="115" r="14" fill="#401112"/><circle cx="17" cy="83" r="31" fill="#4a4b3d"/></g></svg>