<svg xmlns="http://www.w3.org/2000/svg" width="300" height="447" viewBox="0 0 300 447"><g stroke-linecap="round"><path fill="rgba(102,55,33,255)" stroke="rgba(102,55,33,255)" d="M0 447V0l56 250L0 447"/><path fill="rgba(97,118,77,255)" stroke="rgba(97,118,77,255)" d="M0 0h300L135 9 0 0"/><path fill="rgba(39,20,28,255)" stroke="rgba(39,20,28,255)" d="M280 111 128 242l7-233 145 102"/><path fill="rgba(176,173,114,255)" stroke="rgba(176,173,114,255)" d="M56 250 0 0l135 9-79 241"/><path fill="rgba(52,19,18,255)" stroke="rgba(52,19,18,255)" d="m128 242-72 8L135 9l-7 233"/><path fill="rgba(111,63,38,255)" stroke="rgba(111,63,38,255)" d="M300 447H0l138-182 162 182"/><path fill="rgba(84,44,9,255)" stroke="rgba(84,44,9,255)" d="m0 447 56-197 82 15L0 447"/><path fill="rgba(83,63,50,255)" stroke="rgba(83,63,50,255)" d="m56 250 72-8 10 23-82-15"/><path fill="rgba(26,20,36,255)" stroke="rgba(26,20,36,255)" d="m280 111 20 336-162-182 142-154"/><path fill="rgba(130,84,22,255)" stroke="rgba(130,84,22,255)" d="m128 242 152-131-142 154-10-23"/><path fill="rgba(107,95,79,255)" stroke="rgba(107,95,79,255)" d="M300 0v447l-6-352 6-95"/><path fill="rgba(127,111,52,255)" stroke="rgba(127,111,52,255)" d="m300 447-20-336 14-16 6 352"/><path fill="rgba(150,157,107,255)" stroke="rgba(150,157,107,255)" d="M280 111 135 9l159 86-14 16"/><path fill="rgba(121,130,85,255)" stroke="rgba(121,130,85,255)" d="m135 9 165-9-6 95L135 9"/></g></svg>