<svg xmlns="http://www.w3.org/2000/svg" width="300" height="447" viewBox="0 0 300 447"><g filter="blur(20px)"><rect width="200%" height="200%" x="-50%" y="-50%" fill="#9aa06a"/><g stroke-linecap="round"><path fill="rgba(84,47,53,255)" stroke="rgba(84,47,53,255)" d="M300 0v447l-52-100L300 0"/><path fill="rgba(48,34,39,255)" stroke="rgba(48,34,39,255)" d="m300 0-52 347L54 181 300 0"/><path fill="rgba(96,59,54,255)" stroke="rgba(96,59,54,255)" d="M0 447V0l21 261L0 447"/><path fill="rgba(23,16,38,255)" stroke="rgba(23,16,38,255)" d="M47 418 0 447l21-186 26 157"/><path fill="rgba(57,40,36,255)" stroke="rgba(57,40,36,255)" d="m54 181 194 166-227-86 33-80"/><path fill="rgba(124,138,79,255)" stroke="rgba(124,138,79,255)" d="M0 0h300L31 92 0 0"/><path fill="rgba(215,176,85,255)" stroke="rgba(215,176,85,255)" d="M300 0 54 181 31 92 300 0"/><path fill="rgba(78,81,64,255)" stroke="rgba(78,81,64,255)" d="m54 181-33 80L31 92l23 89"/><path fill="rgba(95,103,78,255)" stroke="rgba(95,103,78,255)" d="M21 261 0 0l31 92-10 169"/><path fill="rgba(27,13,36,255)" stroke="rgba(27,13,36,255)" d="M300 447H0l102-32 198 32"/><path fill="rgba(20,10,33,255)" stroke="rgba(20,10,33,255)" d="m0 447 47-29 55-3L0 447"/><path fill="rgba(12,5,25,255)" stroke="rgba(12,5,25,255)" d="m248 347 52 100-198-32 146-68"/><path fill="rgba(30,18,42,255)" stroke="rgba(30,18,42,255)" d="M47 418 21 261l81 154-55 3"/><path fill="rgba(186,143,67,255)" stroke="rgba(186,143,67,255)" d="m21 261 227 86-146 68-81-154"/></g></g></svg>