<svg xmlns="http://www.w3.org/2000/svg" width="300" height="447"><rect width="100%" height="100%" fill="#9aa06a"/><g fill-opacity=".5"><path d="M182.5-27-27.1 446h354.5z"/><path fill="#260014" d="m327.4 437.4-351-417.3 28 454z"/><path fill="#ffbf50" d="m187.7 236.6-48.9-213L100.4 247z"/><path fill="#20061b" d="m327.4 158-47.2 316L137.1 34z"/><path fill="#f5a940" d="M194.7 367.6 81.2 320.4 79.4 399z"/><path fill="#645b33" d="M121.4 200 313.4.8-27-4.4z"/><path fill="#000015" d="M271.5 369.3-27 437.4l347.5 36.7z"/><path fill="#fff47d" d="m97 222.6 68 28 1.8-71.6z"/><path fill="#381113" d="m51.5 100.4 59.4 89 78.6-24.4z"/><path fill="#cba85b" d="m163.3 63.7-190.4 1.8 193.9 73.3z"/><path fill="#130a27" d="m67.2 317 260.2 75L247 208.7z"/><path fill="#28000e" d="m110.9 65.5 5.2 132.7-31.4-69.9z"/><path fill="#8a9c63" d="m147.5-27 78.6 153.6 101.3-5.2z"/><path fill="#0a002a" d="M14.8 289-20 470.6l125.7-5.3z"/><path fill="#08000b" d="m151 41 43.7 17.5 19.2 115.2z"/><path fill="#dfa145" d="M173.7 103.9 135.3 165l-29.7-50.6z"/><path fill="#8c8842" d="m238.3 203.4-22.7-75 111.8 113.4z"/><path fill="#5c7a4b" d="M292.5-27-27.1 6l354.5 59.4z"/><path fill="#90a369" d="m-27 39.3 164-1.8-110 82.1z"/><path fill="#684b28" d="m168.5 247-76.8-15.6 45.4 69.8z"/><path fill="#6e3015" d="m112.6 416.4 120.5-59.3-73.3-3.5z"/><path fill="#c99846" d="m37.5 325.6 96 8.8 12.3 38.4z"/><path fill="#925119" d="M81.2 203.4 30.6 296 .9 196.4z"/><path fill="#949460" d="M152.8 28.8 327.4 158l-35-132.7z"/><path fill="#8c4b14" d="m175.5 172 8.7 66.3 43.7-22.7z"/><path fill="#3a523e" d="m229.6 196.4 97.8-80.3-122.2 12.2z"/><path fill="#3f4933" d="M109.1 117.9-27 88.2v167.6z"/><path fill="#f3c766" d="m142.3 168.5 35 66.3-75.2-5.2z"/><path fill="#1e0616" d="m152.8 156.3 62.8 26.2L198.2 69z"/><path fill="#f7be52" d="m109.1 95.2 19.2-38.5 42 35z"/><path fill="#513030" d="M21.8 339.6 97 365.8-27 189.5z"/><path fill="#000016" d="m123.1 439.1 143.2 14-15.7-90.8z"/><path fill="#351c19" d="M60.2 189.5 91.7 233l48.9-76.8z"/><path fill="#572200" d="m109.1 69 64.6-24.5-48.9-1.7z"/><path fill="#362522" d="M275 252.3 177.2 228 65.5 338z"/><path fill="#0b091f" d="m175.5 241.8-21 113.5 101.3-8.7z"/><path fill="#4f2939" d="M327.4 248.8 254 214l62.8 260.2z"/><path fill="#2a5535" d="M210.4-27 149.3 4.3 325.6 6z"/><path fill="#814927" d="m69 372.8 12.2 31.4 89-19.2z"/><path fill="#44563c" d="m201.7 86.4 31.4 117 10.5-110z"/><path fill="#885419" d="m163.3 63.7 14 40.2L137 102z"/><path fill="#6c4724" d="m193 290.7 48.8-33.2-29.6-10.4z"/><path fill="#350e11" d="m107.4 70.7 3.5 64.6-15.7-40.1z"/><path fill="#dba84f" d="M114.4 138.8 110.9 97l29.7 61.1z"/><path fill="#cea041" d="m177.2 231.4 5.3-45.4-45.4-15.8z"/><path fill="#ab8343" d="m4.4 282 21-21 27.9 12.3z"/><path fill="#637954" d="M88.2 151 34 180.7h68.1z"/><path fill="#73512a" d="m83 238.3 57.6 28 38.4-22.7z"/><path fill="#95642d" d="m172 117.9-45.4 8.7 29.7 35z"/><path fill="#9da674" d="M103.9 55 9.6 60.2l85.6 54.2z"/></g></svg>