<svg xmlns="http://www.w3.org/2000/svg" width="300" height="447" viewBox="0 0 300 447"><g stroke-linecap="round"><path fill="rgba(233,195,98,255)" stroke="rgba(233,195,98,255)" d="M0 0h300L93 221 0 0"/><path fill="rgba(39,24,31,255)" stroke="rgba(39,24,31,255)" d="M300 0v447L93 221 300 0"/><path fill="rgba(108,68,31,255)" stroke="rgba(108,68,31,255)" d="M0 447V0l93 221L0 447"/><path fill="rgba(110,68,36,255)" stroke="rgba(110,68,36,255)" d="m0 447 93-226 2 104L0 447"/><path fill="rgba(21,18,35,255)" stroke="rgba(21,18,35,255)" d="m93 221 207 226L95 325l-2-104"/><path fill="rgba(45,18,21,255)" stroke="rgba(45,18,21,255)" d="m300 447-174-45-31-77 205 122"/><path fill="rgba(19,8,30,255)" stroke="rgba(19,8,30,255)" d="M300 447H0l109-25 191 25"/><path fill="rgba(36,15,32,255)" stroke="rgba(36,15,32,255)" d="m0 447 95-32 14 7L0 447"/><path fill="rgba(53,19,31,255)" stroke="rgba(53,19,31,255)" d="m95 415 31-13-17 20-14-7"/><path fill="rgba(10,7,24,255)" stroke="rgba(10,7,24,255)" d="m126 402 174 45-191-25 17-20"/><path fill="rgba(36,17,35,255)" stroke="rgba(36,17,35,255)" d="M95 415 0 447l91-92 4 60"/><path fill="rgba(24,19,47,255)" stroke="rgba(24,19,47,255)" d="m0 447 95-122-4 30-91 92"/><path fill="rgba(115,65,38,255)" stroke="rgba(115,65,38,255)" d="m126 402-31 13-4-60 35 47"/><path fill="rgba(165,115,52,255)" stroke="rgba(165,115,52,255)" d="m95 325 31 77-35-47 4-30"/></g></svg>