<svg xmlns="http://www.w3.org/2000/svg" width="300" height="447" viewBox="0 0 300 447"><g filter="blur(20px)"><rect width="200%" height="200%" x="-50%" y="-50%" fill="#9aa06a"/><g stroke-linecap="round"><path fill="rgba(77,65,75,255)" stroke="rgba(77,65,75,255)" d="M0 447V0l4 275-4 172"/><path fill="rgba(15,11,31,255)" stroke="rgba(15,11,31,255)" d="m233 344 67 103-75-95 8-8"/><path fill="rgba(9,4,22,255)" stroke="rgba(9,4,22,255)" d="M300 447H0l158-44 142 44"/><path fill="rgba(14,7,27,255)" stroke="rgba(14,7,27,255)" d="m225 352 75 95-142-44 67-51"/><path fill="rgba(18,10,35,255)" stroke="rgba(18,10,35,255)" d="m0 447 4-172 154 128L0 447"/><path fill="rgba(160,153,99,255)" stroke="rgba(160,153,99,255)" d="M300 0v447l-31-227L300 0"/><path fill="rgba(31,20,40,255)" stroke="rgba(31,20,40,255)" d="m300 447-67-103 36-124 31 227"/><path fill="rgba(35,18,25,255)" stroke="rgba(35,18,25,255)" d="m233 344-8 8-37-134 45 126"/><path fill="rgba(17,16,38,255)" stroke="rgba(17,16,38,255)" d="m225 352-67 51 30-185 37 134"/><path fill="rgba(37,23,34,255)" stroke="rgba(37,23,34,255)" d="M158 403 4 275l184-57-30 185"/><path fill="rgba(98,63,29,255)" stroke="rgba(98,63,29,255)" d="M0 0h300L188 218 0 0"/><path fill="rgba(81,93,77,255)" stroke="rgba(81,93,77,255)" d="m300 0-31 220-81-2L300 0"/><path fill="rgba(87,98,79,255)" stroke="rgba(87,98,79,255)" d="M4 275 0 0l188 218L4 275"/><path fill="rgba(76,44,21,255)" stroke="rgba(76,44,21,255)" d="m269 220-36 124-45-126 81 2"/></g></g></svg>