<svg xmlns="http://www.w3.org/2000/svg" width="300" height="447"><rect width="100%" height="100%" fill="#9aa06a"/><g fill-opacity=".5" transform="translate(.9 .9)scale(1.75)"><circle cx="82" cy="223" r="173"/><circle cx="95" cy="252" r="114" fill="#190017"/><circle cx="83" cy="123" r="21" fill="#ffff72"/><circle cx="63" r="92" fill="#675b32"/><circle cx="62" cy="208" r="22" fill="#eda041"/><circle cx="79" cy="61" r="19" fill="#ffb64b"/><circle cx="101" cy="44" r="15" fill="#0f0000"/><circle cx="127" cy="255" r="44" fill="#000010"/><circle cx="110" cy="80" r="20" fill="#180013"/><circle cx="121" cy="167" r="40" fill="#170922"/><circle cx="86" cy="119" r="19" fill="#ffbd5c"/><circle cx="38" cy="44" r="20" fill="#b0b779"/><circle cx="9" cy="135" r="28" fill="#94472b"/><circle cx="171" cy="91" r="40" fill="#797552"/><circle cx="12" cy="237" r="33" fill="#060025"/><circle cx="72" cy="250" r="29" fill="#140018"/><circle cx="153" r="28" fill="#4f6f46"/><circle cx="80" cy="74" r="16" fill="#d39744"/><circle cx="85" cy="212" r="13" fill="#b76a29"/><circle cx="78" cy="45" r="12" fill="#fac153"/><circle cx="65" cy="99" r="13" fill="#30000c"/><circle cx="90" cy="31" r="9" fill="#2d0000"/><circle cx="122" cy="131" r="24" fill="#4a2217"/><circle cx="69" cy="127" r="11" fill="#ffc25d"/><circle cx="151" cy="41" r="30" fill="#939b63"/><circle cx="58" cy="160" r="29" fill="#3f2429"/><circle cx="108" cy="53" r="11" fill="#0a0016"/><circle cx="33" cy="191" r="13" fill="#84462c"/><circle cx="110" cy="211" r="12" fill="#833a11"/><circle cx="16" cy="83" r="32" fill="#4b4b3d"/></g></svg>