<svg xmlns="http://www.w3.org/2000/svg" width="300" height="447"><path fill="#6f7c4d" d="M-32-28.5h56v56h-56z"/><path fill="#6b7c4b" d="M24-28.5h28v56H24z"/><path fill="#6a794a" d="M52-28.5h28v56H52z"/><path fill="#697746" d="M80-28.5h28v56H80z"/><path fill="#6e7d4b" d="M108-28.5h28v56h-28z"/><path fill="#718252" d="M136-28.5h28v56h-28z"/><path fill="#6f814f" d="M164-28.5h28v56h-28z"/><path fill="#6a7948" d="M192-28.5h28v56h-28z"/><path fill="#697748" d="M220-28.5h28v56h-28z"/><path fill="#6a7e53" d="M248-28.5h28v56h-28z"/><path fill="#6b7b50" d="M276-28.5h56v56h-56z"/><path fill="#848e5b" d="M-32 27.5h56v28h-56z"/><path fill="#878e59" d="M24 27.5h28v28H24z"/><path fill="#898d59" d="M52 27.5h28v28H52z"/><path fill="#8a9158" d="M80 27.5h28v28H80z"/><path fill="#827842" d="M108 27.5h28v28h-28z"/><path fill="#624d2d" d="M136 27.5h28v28h-28z"/><path fill="#615e3e" d="M164 27.5h28v28h-28z"/><path fill="#87905a" d="M192 27.5h28v28h-28z"/><path fill="#848c5b" d="M220 27.5h28v28h-28z"/><path fill="#8b925c" d="M248 27.5h28v28h-28z"/><path fill="#888e5a" d="M276 27.5h56v28h-56z"/><path fill="#8f9561" d="M-32 55.5h56v28h-56z"/><path fill="#9ea169" d="M24 55.5h28v28H24z"/><path fill="#a5a86d" d="M52 55.5h28v28H52z"/><path fill="#918c5b" d="M80 55.5h28v28H80z"/><path fill="#b99249" d="M108 55.5h28v28h-28z"/><path fill="#a67e36" d="M136 55.5h28v28h-28z"/><path fill="#281213" d="M164 55.5h28v28h-28z"/><path fill="#6a6d4b" d="M192 55.5h28v28h-28z"/><path fill="#99a169" d="M220 55.5h28v28h-28z"/><path fill="#9e9e64" d="M248 55.5h28v28h-28z"/><path fill="#989a63" d="M276 55.5h56v28h-56z"/><path fill="#666a49" d="M-32 83.5h56v28h-56z"/><path fill="#77794d" d="M24 83.5h28v28H24z"/><path fill="#8a8e5e" d="M52 83.5h28v28H52z"/><path fill="#7e6b47" d="M80 83.5h28v28H80z"/><path fill="#ae8341" d="M108 83.5h28v28h-28z"/><path fill="#bd9443" d="M136 83.5h28v28h-28z"/><path fill="#462b20" d="M164 83.5h28v28h-28z"/><path fill="#30302c" d="M192 83.5h28v28h-28z"/><path fill="#6c7d52" d="M220 83.5h28v28h-28z"/><path fill="#a6a566" d="M248 83.5h28v28h-28z"/><path fill="#8e9362" d="M276 83.5h56v28h-56z"/><path fill="#4b4b3b" d="M-32 111.5h56v28h-56z"/><path fill="#53563b" d="M24 111.5h28v28H24z"/><path fill="#4c4e35" d="M52 111.5h28v28H52z"/><path fill="#4c3527" d="M80 111.5h28v28H80z"/><path fill="#ac7f3f" d="M108 111.5h28v28h-28z"/><path fill="#ba8d42" d="M136 111.5h28v28h-28z"/><path fill="#412721" d="M164 111.5h28v28h-28z"/><path fill="#2a2729" d="M192 111.5h28v28h-28z"/><path fill="#4c5b43" d="M220 111.5h28v28h-28z"/><path fill="#66714e" d="M248 111.5h28v28h-28z"/><path fill="#65694e" d="M276 111.5h56v28h-56z"/><path fill="#3e3a30" d="M-32 139.5h56v28h-56z"/><path fill="#4c4b39" d="M24 139.5h28v28H24z"/><path fill="#565d44" d="M52 139.5h28v28H52z"/><path fill="#49392f" d="M80 139.5h28v28H80z"/><path fill="#5d3925" d="M108 139.5h28v28h-28z"/><path fill="#755028" d="M136 139.5h28v28h-28z"/><path fill="#301819" d="M164 139.5h28v28h-28z"/><path fill="#2a2525" d="M192 139.5h28v28h-28z"/><path fill="#49543d" d="M220 139.5h28v28h-28z"/><path fill="#444d3f" d="M248 139.5h28v28h-28z"/><path fill="#505547" d="M276 139.5h56v28h-56z"/><path fill="#4a463b" d="M-32 167.5h56v28h-56z"/><path fill="#5c5539" d="M24 167.5h28v28H24z"/><path fill="#5a5439" d="M52 167.5h28v28H52z"/><path fill="#3e2e2a" d="M80 167.5h28v28H80z"/><path fill="#5a3a26" d="M108 167.5h28v28h-28z"/><path fill="#ab8940" d="M136 167.5h28v28h-28z"/><path fill="#7e592a" d="M164 167.5h28v28h-28z"/><path fill="#2b171b" d="M192 167.5h28v28h-28z"/><path fill="#4b4a31" d="M220 167.5h28v28h-28z"/><path fill="#766f3e" d="M248 167.5h28v28h-28z"/><path fill="#635c42" d="M276 167.5h56v28h-56z"/><path fill="#69472f" d="M-32 195.5h56v28h-56z"/><path fill="#7c5c2b" d="M24 195.5h28v28H24z"/><path fill="#5a3f20" d="M52 195.5h28v28H52z"/><path fill="#4c2e22" d="M80 195.5h28v28H80z"/><path fill="#ddb559" d="M108 195.5h28v28h-28z"/><path fill="#fbd970" d="M136 195.5h28v28h-28z"/><path fill="#b28539" d="M164 195.5h28v28h-28z"/><path fill="#57331d" d="M192 195.5h28v28h-28z"/><path fill="#463124" d="M220 195.5h28v28h-28z"/><path fill="#725e37" d="M248 195.5h28v28h-28z"/><path fill="#817046" d="M276 195.5h56v28h-56z"/><path fill="#6b3e2f" d="M-32 223.5h56v28h-56z"/><path fill="#8a572b" d="M24 223.5h28v28H24z"/><path fill="#432e2b" d="M52 223.5h28v28H52z"/><path fill="#5b402a" d="M80 223.5h28v28H80z"/><path fill="#b48f48" d="M108 223.5h28v28h-28z"/><path fill="#c4a559" d="M136 223.5h28v28h-28z"/><path fill="#73582f" d="M164 223.5h28v28h-28z"/><path fill="#402d24" d="M192 223.5h28v28h-28z"/><path fill="#221a24" d="M220 223.5h28v28h-28z"/><path fill="#3a222d" d="M248 223.5h28v28h-28z"/><path fill="#765041" d="M276 223.5h56v28h-56z"/><path fill="#674438" d="M-32 251.5h56v28h-56z"/><path fill="#815131" d="M24 251.5h28v28H24z"/><path fill="#302431" d="M52 251.5h28v28H52z"/><path fill="#382829" d="M80 251.5h28v28H80z"/><path fill="#4a3426" d="M108 251.5h28v28h-28z"/><path fill="#473325" d="M136 251.5h28v28h-28z"/><path fill="#1b1421" d="M164 251.5h28v28h-28z"/><path fill="#402d24" d="M192 251.5h28v28h-28z"/><path fill="#352524" d="M220 251.5h28v28h-28z"/><path fill="#2d212f" d="M248 251.5h28v28h-28z"/><path fill="#5b3c3d" d="M276 251.5h56v28h-56z"/><path fill="#5b463a" d="M-32 279.5h56v28h-56z"/><path fill="#463533" d="M24 279.5h28v28H24z"/><path fill="#36252d" d="M52 279.5h28v28H52z"/><path fill="#231727" d="M80 279.5h28v28H80z"/><path fill="#372829" d="M108 279.5h28v28h-28z"/><path fill="#312427" d="M136 279.5h28v28h-28z"/><path fill="#1c1723" d="M164 279.5h28v28h-28z"/><path fill="#281b21" d="M192 279.5h28v28h-28z"/><path fill="#201221" d="M220 279.5h28v28h-28z"/><path fill="#251f30" d="M248 279.5h28v28h-28z"/><path fill="#4a383c" d="M276 279.5h56v28h-56z"/><path fill="#3d2b36" d="M-32 307.5h56v28h-56z"/><path fill="#492d2b" d="M24 307.5h28v28H24z"/><path fill="#563428" d="M52 307.5h28v28H52z"/><path fill="#43302d" d="M80 307.5h28v28H80z"/><path fill="#2d1e28" d="M108 307.5h28v28h-28z"/><path fill="#181025" d="M136 307.5h28v28h-28z"/><path fill="#0f0f24" d="M164 307.5h28v28h-28z"/><path fill="#110c22" d="M192 307.5h28v28h-28z"/><path fill="#221020" d="M220 307.5h28v28h-28z"/><path fill="#1c162a" d="M248 307.5h28v28h-28z"/><path fill="#3b303c" d="M276 307.5h56v28h-56z"/><path fill="#312335" d="M-32 335.5h56v28h-56z"/><path fill="#3c242b" d="M24 335.5h28v28H24z"/><path fill="#5d3a2c" d="M52 335.5h28v28H52z"/><path fill="#a9803f" d="M80 335.5h28v28H80z"/><path fill="#a57a3b" d="M108 335.5h28v28h-28z"/><path fill="#51382d" d="M136 335.5h28v28h-28z"/><path fill="#241a23" d="M164 335.5h28v28h-28z"/><path fill="#2e1a21" d="M192 335.5h28v28h-28z"/><path fill="#221225" d="M220 335.5h28v28h-28z"/><path fill="#201a30" d="M248 335.5h28v28h-28z"/><path fill="#2f2538" d="M276 335.5h56v28h-56z"/><path fill="#24192e" d="M-32 363.5h56v28h-56z"/><path fill="#130c27" d="M24 363.5h28v28H24z"/><path fill="#432a2a" d="M52 363.5h28v28H52z"/><path fill="#9c6a33" d="M80 363.5h28v28H80z"/><path fill="#a06c31" d="M108 363.5h28v28h-28z"/><path fill="#8e582a" d="M136 363.5h28v28h-28z"/><path fill="#5d301b" d="M164 363.5h28v28h-28z"/><path fill="#562917" d="M192 363.5h28v28h-28z"/><path fill="#26111d" d="M220 363.5h28v28h-28z"/><path fill="#141229" d="M248 363.5h28v28h-28z"/><path fill="#32212f" d="M276 363.5h56v28h-56z"/><path fill="#1c1228" d="M-32 391.5h56v28h-56z"/><path fill="#170d24" d="M24 391.5h28v28H24z"/><path fill="#3d2325" d="M52 391.5h28v28H52z"/><path fill="#623927" d="M80 391.5h28v28H80z"/><path fill="#402221" d="M108 391.5h28v28h-28z"/><path fill="#3c1e20" d="M136 391.5h28v28h-28z"/><path fill="#1c0c1b" d="M164 391.5h28v28h-28z"/><path fill="#12091a" d="M192 391.5h28v28h-28z"/><path fill="#0d0619" d="M220 391.5h28v28h-28z"/><path fill="#150c1f" d="M248 391.5h28v28h-28z"/><path fill="#2d1a29" d="M276 391.5h56v28h-56z"/><path fill="#170d26" d="M-32 419.5h56v56h-56z"/><path fill="#160c22" d="M24 419.5h28v56H24z"/><path fill="#1c0c20" d="M52 419.5h28v56H52z"/><path fill="#1b081e" d="M80 419.5h28v56H80z"/><path fill="#1e0b1e" d="M108 419.5h28v56h-28z"/><path fill="#0d071c" d="M136 419.5h28v56h-28z"/><path fill="#0b061a" d="M164 419.5h28v56h-28z"/><path fill="#080519" d="M192 419.5h28v56h-28z"/><path fill="#060517" d="M220 419.5h28v56h-28z"/><path fill="#100818" d="M248 419.5h28v56h-28z"/><path fill="#1b0d20" d="M276 419.5h56v56h-56z"/></svg>