<svg xmlns="http://www.w3.org/2000/svg" width="300" height="447" viewBox="0 0 300 447"><g stroke-linecap="round"><path fill="rgba(30,9,26,255)" stroke="rgba(30,9,26,255)" d="M300 447H0l13-56 287 56"/><path fill="rgba(121,94,73,255)" stroke="rgba(121,94,73,255)" d="M0 447V0l13 391-13 56"/><path fill="rgba(128,137,90,255)" stroke="rgba(128,137,90,255)" d="M0 0h300L158 103 0 0"/><path fill="rgba(142,150,100,255)" stroke="rgba(142,150,100,255)" d="M300 0 179 123l-21-20L300 0"/><path fill="rgba(127,77,30,255)" stroke="rgba(127,77,30,255)" d="m158 103 21 20-113 70 92-90"/><path fill="rgba(86,74,58,255)" stroke="rgba(86,74,58,255)" d="M13 391 0 0l66 193-53 198"/><path fill="rgba(168,175,117,255)" stroke="rgba(168,175,117,255)" d="m0 0 158 103-92 90L0 0"/><path fill="rgba(172,138,64,255)" stroke="rgba(172,138,64,255)" d="m66 193 113-70 6 97-119-27"/><path fill="rgba(9,14,40,255)" stroke="rgba(9,14,40,255)" d="M300 447 13 391l172-171 115 227"/><path fill="rgba(55,41,44,255)" stroke="rgba(55,41,44,255)" d="m13 391 53-198 119 27L13 391"/><path fill="rgba(167,152,89,255)" stroke="rgba(167,152,89,255)" d="M300 0v447l-70-263L300 0"/><path fill="rgba(30,17,33,255)" stroke="rgba(30,17,33,255)" d="M300 447 185 220l45-36 70 263"/><path fill="rgba(78,98,71,255)" stroke="rgba(78,98,71,255)" d="M179 123 300 0l-70 184-51-61"/><path fill="rgba(42,28,33,255)" stroke="rgba(42,28,33,255)" d="m185 220-6-97 51 61-45 36"/></g></svg>