<svg xmlns="http://www.w3.org/2000/svg" width="300" height="447"><rect width="100%" height="100%" fill="#9aa06a"/><g fill-opacity=".5" transform="translate(.9 .9)scale(1.7461)"><circle cx="84" cy="221" r="171"/><circle cx="94" cy="247" r="109" fill="#190017"/><circle cx="84" cy="122" r="21" fill="#ffff71"/><circle cx="62" r="93" fill="#665a32"/><circle cx="61" cy="207" r="21" fill="#f5a843"/><circle cx="79" cy="61" r="19" fill="#ffb74b"/><circle cx="101" cy="43" r="14" fill="#070000"/><circle cx="127" cy="255" r="44" fill="#000010"/><circle cx="110" cy="79" r="19" fill="#130012"/><circle cx="123" cy="162" r="37" fill="#170822"/><circle cx="77" cy="127" r="19" fill="#ffb75d"/><circle cx="38" cy="43" r="20" fill="#b0b879"/><circle cx="171" cy="91" r="40" fill="#7a7652"/><circle cx="82" cy="211" r="13" fill="#c4772e"/><circle cx="10" cy="135" r="27" fill="#95472a"/><circle cx="7" cy="240" r="38" fill="#060026"/><circle cx="80" cy="76" r="15" fill="#d29543"/><circle cx="153" r="28" fill="#4f6f46"/><circle cx="73" cy="164" r="28" fill="#322025"/><circle cx="89" cy="30" r="9" fill="#300"/><circle cx="80" cy="45" r="12" fill="#f2ba4e"/><circle cx="65" cy="97" r="13" fill="#2f000d"/><circle cx="75" cy="250" r="31" fill="#190019"/><circle cx="151" cy="41" r="30" fill="#939c64"/><circle cx="119" cy="113" r="19" fill="#511c0e"/><circle cx="107" cy="53" r="11" fill="#0a0011"/><circle cx="47" cy="144" r="17" fill="#2f1225"/><circle cx="34" cy="192" r="13" fill="#83452c"/><circle cx="88" cy="113" r="16" fill="#e7ae51"/><circle cx="16" cy="82" r="31" fill="#494a3d"/></g></svg>