<svg xmlns="http://www.w3.org/2000/svg" width="300" height="447"><rect width="100%" height="100%" fill="#9aa06a"/><g fill-opacity=".5"><path d="m327.4 446.1-354.5-1.7L184.2-27.1z"/><path fill="#260014" d="M327.4 437.4-27.1 14.8 1 474.1z"/><path fill="#ffc251" d="m103.9 254 83.8-19.2-47.1-202.5z"/><path fill="#1c021b" d="m327.4 123.1-45.4 351-127.5-351z"/><path fill="#625832" d="m327.4.9-354.5-28 134.5 237.5z"/><path fill="#f9ac42" d="M191.2 365.8 84.7 322.2l-7 76.8z"/><path fill="#000015" d="m-27 435.7 298.5-63 55.9 101.4z"/><path fill="#ffe874" d="M161.5 248.8 186 172l-92.6 52.4z"/><path fill="#1b000b" d="m133.6 193-28-85.6-52.3 7z"/><path fill="#cca95a" d="m159.8 60.2 10.4 78.6L-27 67.2z"/><path fill="#1f0f19" d="m247 116.1-71.5-68L156.3 179z"/><path fill="#75844e" d="M327.4 247 173.7-27l56 223.4z"/><path fill="#080224" d="m180.7 229.6 146.7 136.2L137 343.1z"/><path fill="#0a0029" d="m9.6 283.7 103 190.4H-6z"/><path fill="#2b000d" d="m90 126.6 26.1 69.8-7-131z"/><path fill="#92a066" d="m140.6-.9 186.8 66.4-106.5 31.4z"/><path fill="#92a56a" d="M28.8 114.4-27 42.8l166-7z"/><path fill="#884f19" d="m187.7 234.8-57.6-111.7 99.5 90.8z"/><path fill="#537143" d="M327.4-.9-27.1-4.4l162.4 56z"/><path fill="#2d2927" d="m240 121.4 42 45.4-193.8 7z"/><path fill="#f4b14e" d="m133.6 60.2 1.7 99.6-22.7-22.7z"/><path fill="#220005" d="M215.6 112.6 179 46.3l-54.2-3.5z"/><path fill="#bf8b3f" d="M159.8 386.8 32.3 320.4l101.3 15.7z"/><path fill="#703317" d="M236.6 371 63.7 407.7 165 350.1z"/><path fill="#96531a" d="m77.7 203.4-75-3.5 26.1 94.3z"/><path fill="#3d292a" d="m86.4 236.6 190.4 17.5-303.9 120.4z"/><path fill="#f8cd6a" d="m98.7 220.9 41.9-43.7 26.2 59.4z"/><path fill="#000016" d="M243.6 360.6 117.9 439 275 463.6z"/><path fill="#3f4733" d="m123.1 97-145 34.8 17.5 96z"/><path fill="#330e18" d="m84.7 240 52.4-73.2-35-38.5z"/><path fill="#241933" d="m327.4 320.4-54.1 153.7-43.7-258.5z"/><path fill="#1e0716" d="m193 63.7-28 90.8 54.1 59.4z"/><path fill="#c58934" d="m175.5 107.4-28-50.7-10.4 104.8z"/><path fill="#7b5827" d="m84.7 227.9 54.1 47.1 31.4-28z"/><path fill="#140f22" d="m168.5 358.8-97.8-59.3L257.5 275z"/><path fill="#a5823c" d="m268 182.5-33.2 12.2 92.6 55.9z"/><path fill="#565f46" d="M215.6 158 324 226.1 318.7 76z"/><path fill="#7f8a57" d="m315.2 67.2-5.3-62.8L77.7 28.8z"/><path fill="#533231" d="M98.7 367.6-27.1 187.7V310z"/><path fill="#f8c75f" d="m110.9 93.4 47.1-5.2-29.7-28z"/><path fill="#683609" d="m95.2 90 50.6-49-24.4 5.3z"/><path fill="#77471e" d="m177.2 105.6-3.5-17.4-61 14z"/><path fill="#556140" d="m-27 91.7 96 3.5 31.4 85.5z"/><path fill="#3f2819" d="m119.6 262.8-61.1-64.6 21-19.2z"/><path fill="#a1ad7e" d="m76 114.4 48.8-69.9-61 42z"/><path fill="#99712d" d="m191.2 215.6-22.7 24.5 64.6-29.7z"/><path fill="#864e2b" d="M97 418.2 69 385l12.2-28z"/><path fill="#465b42" d="m247 100.4-43.6-19.2 15.7 103z"/><path fill="#355e3c" d="m93.4 2.6 234 5.3-118.7-35z"/><path fill="#692f32" d="m304.7 332.6-8.7-99.5-40.2-19.2z"/></g></svg>