<svg xmlns="http://www.w3.org/2000/svg" width="300" height="447" viewBox="0 0 300 447"><g stroke-linecap="round"><path fill="rgba(112,124,74,255)" stroke="rgba(112,124,74,255)" d="M0 0h300L141 47 0 0"/><path fill="rgba(114,80,69,255)" stroke="rgba(114,80,69,255)" d="M300 0v447l-27-186L300 0"/><path fill="rgba(76,96,69,255)" stroke="rgba(76,96,69,255)" d="M141 47 300 0l-27 261L141 47"/><path fill="rgba(21,11,33,255)" stroke="rgba(21,11,33,255)" d="M300 447H0l125-8 175 8"/><path fill="rgba(2,1,19,255)" stroke="rgba(2,1,19,255)" d="m208 419 92 28-175-8 83-20"/><path fill="rgba(128,65,48,255)" stroke="rgba(128,65,48,255)" d="M0 447V0l68 315L0 447"/><path fill="rgba(71,73,52,255)" stroke="rgba(71,73,52,255)" d="m0 0 141 47-73 268L0 0"/><path fill="rgba(46,24,32,255)" stroke="rgba(46,24,32,255)" d="M125 439 0 447l68-132 57 124"/><path fill="rgba(232,195,100,255)" stroke="rgba(232,195,100,255)" d="m141 47 132 214-205 54 73-268"/><path fill="rgba(93,51,39,255)" stroke="rgba(93,51,39,255)" d="m208 419-83 20-57-124 140 104"/><path fill="rgba(30,23,45,255)" stroke="rgba(30,23,45,255)" d="m273 261 27 186-34-150 7-36"/><path fill="rgba(23,18,38,255)" stroke="rgba(23,18,38,255)" d="m300 447-92-28 58-122 34 150"/><path fill="rgba(20,17,46,255)" stroke="rgba(20,17,46,255)" d="M208 419 68 315l198-18-58 122"/><path fill="rgba(41,24,30,255)" stroke="rgba(41,24,30,255)" d="m68 315 205-54-7 36-198 18"/></g><rect width="100%" height="100%" fill="#9aa06a"/></svg>