<svg xmlns="http://www.w3.org/2000/svg" width="300" height="447"><g filter="blur(10px)"><rect width="200%" height="200%" x="-50%" y="-50%" fill="#9aa06a"/><rect width="100%" height="100%" fill="#9aa06a"/><g fill-opacity=".5" transform="translate(.9 .9)scale(1.75)"><circle cx="81" cy="230" r="180"/><circle cx="87" cy="232" r="95" fill="#190017"/><circle cx="83" cy="122" r="21" fill="#ffff72"/><circle cx="64" r="92" fill="#675b33"/><circle cx="62" cy="208" r="22" fill="#eda041"/><circle cx="79" cy="60" r="19" fill="#ffb84c"/><circle cx="101" cy="45" r="15" fill="#0d0000"/><circle cx="127" cy="255" r="44" fill="#000010"/><circle cx="125" cy="163" r="36" fill="#120321"/><circle cx="110" cy="78" r="19" fill="#140013"/><circle cx="37" cy="41" r="22" fill="#acb476"/><circle cx="78" cy="127" r="19" fill="#ffb85d"/><circle cx="11" cy="134" r="27" fill="#94472a"/><circle cx="171" cy="89" r="42" fill="#7a7752"/><circle cx="10" cy="239" r="35" fill="#060025"/><circle cx="81" cy="75" r="16" fill="#d29342"/><circle cx="69" cy="247" r="26" fill="#160018"/><circle cx="88" cy="212" r="13" fill="#ad6025"/><circle cx="75" cy="165" r="29" fill="#301f26"/><circle cx="153" r="28" fill="#506f47"/><circle cx="64" cy="97" r="13" fill="#2c000d"/><circle cx="92" cy="31" r="9" fill="#250000"/><circle cx="78" cy="45" r="12" fill="#f7c053"/><circle cx="153" cy="41" r="29" fill="#969e65"/><circle cx="120" cy="106" r="16" fill="#2d080e"/><circle cx="91" cy="111" r="14" fill="#e3a444"/><circle cx="34" cy="191" r="12" fill="#8c4b2c"/><circle cx="59" cy="198" r="10" fill="#ddad4c"/><circle cx="49" cy="146" r="19" fill="#361a27"/><circle cx="53" cy="115" r="12" fill="#3a070d"/></g></g></svg>