<svg xmlns="http://www.w3.org/2000/svg" width="300" height="447" viewBox="0 0 300 447"><g stroke-linecap="round"><path fill="rgba(152,135,91,255)" stroke="rgba(152,135,91,255)" d="M0 0h300L104 129 0 0"/><path fill="rgba(95,57,36,255)" stroke="rgba(95,57,36,255)" d="M0 447V0l15 229L0 447"/><path fill="rgba(93,97,62,255)" stroke="rgba(93,97,62,255)" d="m0 0 104 129-89 100L0 0"/><path fill="rgba(62,44,56,255)" stroke="rgba(62,44,56,255)" d="m0 447 15-218 32 33L0 447"/><path fill="rgba(112,78,28,255)" stroke="rgba(112,78,28,255)" d="m15 229 89-100-57 133-32-33"/><path fill="rgba(89,64,58,255)" stroke="rgba(89,64,58,255)" d="M300 0v447l-41-84L300 0"/><path fill="rgba(59,64,48,255)" stroke="rgba(59,64,48,255)" d="M104 129 300 0l-41 363-155-234"/><path fill="rgba(114,82,47,255)" stroke="rgba(114,82,47,255)" d="m47 262 57-133 155 234L47 262"/><path fill="rgba(58,33,40,255)" stroke="rgba(58,33,40,255)" d="m0 447 47-185 25 78L0 447"/><path fill="rgba(6,2,23,255)" stroke="rgba(6,2,23,255)" d="M300 447H0l222-67 78 67"/><path fill="rgba(168,118,55,255)" stroke="rgba(168,118,55,255)" d="m0 447 72-107 150 40L0 447"/><path fill="rgba(24,11,29,255)" stroke="rgba(24,11,29,255)" d="m259 363 41 84-78-67 37-17"/><path fill="rgba(15,15,37,255)" stroke="rgba(15,15,37,255)" d="m47 262 212 101-37 17L47 262"/><path fill="rgba(45,26,42,255)" stroke="rgba(45,26,42,255)" d="m72 340-25-78 175 118-150-40"/></g></svg>