<svg xmlns="http://www.w3.org/2000/svg" width="300" height="447"><rect width="100%" height="100%" fill="#9aa06a"/><g fill-opacity=".5"><path d="m182.5-27 144.9 473H-27.1z"/><path fill="#270014" d="M-16.6 25.3-.9 474.1l328.3-36.7z"/><path fill="#ffc151" d="M184.2 234.8 142.3 30.6 98.7 252.3z"/><path fill="#1f061b" d="m140.6 37.5 137.9 436.6 48.9-317.8z"/><path fill="#645d34" d="m100.4 213.9 227-218.3L-27.1 1z"/><path fill="#faaf44" d="M83 320.4 76 399l108.2-35z"/><path fill="#000017" d="m327.4 474-354.5-33 312.6-78.6z"/><path fill="#ffed77" d="m163.3 248.8 19.2-71.6-89 43.7z"/><path fill="#cca75a" d="M163.3 63.7H-27.1l197.3 76.9z"/><path fill="#210008" d="m107.4 70.7-33.2 66.4 54.1 52.4z"/><path fill="#130b27" d="m58.5 317 186.8-108.3 82 172.8z"/><path fill="#1b000e" d="m193 55-45.5 113.5 71.6 17.5z"/><path fill="#8f9d63" d="M327.4 67.2 261 133.6 116.1-16.6z"/><path fill="#0a0029" d="m110.9 474-96-186.8-33.2 186.9z"/><path fill="#707843" d="m203.4 72.5 124 179.8L219 186z"/><path fill="#240115" d="m69 254 36.6-99.5 43.7 1.8z"/><path fill="#547042" d="m327.4-.9-354.5-7L133.6 55z"/><path fill="#94a46a" d="m172 16.6-145 96-54-59.3z"/><path fill="#ecb04c" d="m112.6 72.5 45.4-8.8-43.6 78.6z"/><path fill="#432d2a" d="M290.7 241.8H62L.9 364.1z"/><path fill="#210109" d="m179 42.8 40 73.2-92.5-73.3z"/><path fill="#955417" d="m170.2 165 62.9 52.4-55.9 17.4z"/><path fill="#7f3f1b" d="m158 350-96 61.2 162.4-43.6z"/><path fill="#925119" d="M77.7 196.4 34 289l-41.9-89z"/><path fill="#3b4231" d="m-23.6 131.8 143.2-33.1L-20 247z"/><path fill="#d4a449" d="M138.8 371 48 324l82 14z"/><path fill="#38493b" d="m327.4 112.6-120.5 21 19.2 64.6z"/><path fill="#fad371" d="m126.6 184.2-21 50.6 68.1-1.7z"/><path fill="#0b081e" d="m245.3 348.3-62.8-117-28 124z"/><path fill="#000015" d="m247 358.8 22.8 108.3-186.9 7z"/><path fill="#d29641" d="m109.1 109.1 26.2 54.2 40.2-61.2z"/><path fill="#725227" d="m163.3 250.6-21 29.6L83 224.4z"/><path fill="#a1823f" d="m262.8 173.7-28 28 92.6 43.6z"/><path fill="#502e2d" d="m-9.6 282 89 12.2 7 111.8z"/><path fill="#8e925f" d="m137 21.8 190.4 117V32.3z"/><path fill="#512a39" d="m259.3 210.4 68 43.7-27.8 171z"/><path fill="#9da773" d="m2.6 58.5 103-7-14 61.1z"/><path fill="#642800" d="m154.5 37.5-52.4 40.2 17.5-26.2z"/><path fill="#7a481d" d="m133.6 112.6 48.9-17.4-80.4 3.5z"/><path fill="#412c1c" d="m86.4 179 31.5 94.3-68.1-82.1z"/><path fill="#361a15" d="m252.3 182.5-68 36.6L186 172z"/><path fill="#361019" d="m97 102.1 38.3 76.9-34.9 21z"/><path fill="#2d0e31" d="m-27 304.7 47-47.2-29.6-54z"/><path fill="#3a6140" d="M327.4 11.3 98.7 2.6 227.9-27z"/><path fill="#150f2a" d="m95.2 357-97.8 52.5L13 346.6z"/><path fill="#525d3f" d="m-27 93.4 132.6 89L67.2 97z"/><path fill="#5b2617" d="M208.7 348.3 88.2 416.4 238.3 378z"/><path fill="#a36e33" d="m72.5 371 61-15.7 35 35z"/><path fill="#1d142b" d="m84.7 329.1 43.6-19.2-71.6-71.6z"/><path fill="#a67232" d="m117.9 140.6 57.6-31.5-17.5 43.7z"/></g></svg>