<svg xmlns="http://www.w3.org/2000/svg" width="300" height="447" viewBox="0 0 300 447"><g stroke-linecap="round"><path fill="rgba(105,62,43,255)" stroke="rgba(105,62,43,255)" d="M0 447V0l57 249L0 447"/><path fill="rgba(88,93,61,255)" stroke="rgba(88,93,61,255)" d="M57 249 0 0l103 91-46 158"/><path fill="rgba(9,3,19,255)" stroke="rgba(9,3,19,255)" d="M300 447H0l274-29 26 29"/><path fill="rgba(147,98,42,255)" stroke="rgba(147,98,42,255)" d="m0 447 57-198 217 169L0 447"/><path fill="rgba(58,42,49,255)" stroke="rgba(58,42,49,255)" d="M300 0v447l-26-29L300 0"/><path fill="rgba(153,138,71,255)" stroke="rgba(153,138,71,255)" d="M159 163 300 0l-26 418-115-255"/><path fill="rgba(91,96,66,255)" stroke="rgba(91,96,66,255)" d="m57 249 46-158 21 86-67 72"/><path fill="rgba(188,136,52,255)" stroke="rgba(188,136,52,255)" d="m103 91 56 72-35 14-21-86"/><path fill="rgba(28,23,33,255)" stroke="rgba(28,23,33,255)" d="m159 163 115 255-150-241 35-14"/><path fill="rgba(58,44,41,255)" stroke="rgba(58,44,41,255)" d="M274 418 57 249l67-72 150 241"/><path fill="rgba(113,125,77,255)" stroke="rgba(113,125,77,255)" d="M0 0h300L146 43 0 0"/><path fill="rgba(140,144,93,255)" stroke="rgba(140,144,93,255)" d="M103 91 0 0l146 43-43 48"/><path fill="rgba(146,156,96,255)" stroke="rgba(146,156,96,255)" d="M300 0 159 163 146 43 300 0"/><path fill="rgba(184,142,60,255)" stroke="rgba(184,142,60,255)" d="m159 163-56-72 43-48 13 120"/></g></svg>