<svg xmlns="http://www.w3.org/2000/svg" width="300" height="447" viewBox="0 0 300 447"><g stroke-linecap="round"><path fill="rgba(99,118,73,255)" stroke="rgba(99,118,73,255)" d="M0 0h300L100 28 0 0"/><path fill="rgba(126,134,85,255)" stroke="rgba(126,134,85,255)" d="M300 0 147 96l-47-68L300 0"/><path fill="rgba(98,88,63,255)" stroke="rgba(98,88,63,255)" d="M300 0v447l-25-305L300 0"/><path fill="rgba(153,156,101,255)" stroke="rgba(153,156,101,255)" d="M147 96 300 0l-25 142-128-46"/><path fill="rgba(114,63,57,255)" stroke="rgba(114,63,57,255)" d="M300 447H0l203-210 97 210"/><path fill="rgba(62,46,53,255)" stroke="rgba(62,46,53,255)" d="m275 142 25 305-97-210 72-95"/><path fill="rgba(116,85,44,255)" stroke="rgba(116,85,44,255)" d="M0 447V0l112 138L0 447"/><path fill="rgba(149,154,100,255)" stroke="rgba(149,154,100,255)" d="m0 0 100 28 12 110L0 0"/><path fill="rgba(208,167,89,255)" stroke="rgba(208,167,89,255)" d="m100 28 47 68-35 42-12-110"/><path fill="rgba(49,32,39,255)" stroke="rgba(49,32,39,255)" d="M203 237 0 447l112-309 91 99"/><path fill="rgba(27,21,37,255)" stroke="rgba(27,21,37,255)" d="m147 96 128 46-100 18-28-64"/><path fill="rgba(42,36,34,255)" stroke="rgba(42,36,34,255)" d="m275 142-72 95-28-77 100-18"/><path fill="rgba(149,116,49,255)" stroke="rgba(149,116,49,255)" d="m203 237-91-99 63 22 28 77"/><path fill="rgba(203,157,81,255)" stroke="rgba(203,157,81,255)" d="m112 138 35-42 28 64-63-22"/></g><rect width="100%" height="100%" fill="#9aa06a"/></svg>