<svg xmlns="http://www.w3.org/2000/svg" width="300" height="447"><rect width="100%" height="100%" fill="#9aa06a"/><g fill-opacity=".5" transform="translate(.9 .9)scale(1.75)"><circle cx="82" cy="224" r="174"/><circle cx="83" cy="122" r="21" fill="#fffe71"/><circle cx="95" cy="255" r="118" fill="#190018"/><circle cx="64" r="92" fill="#675b32"/><circle cx="61" cy="209" r="22" fill="#eda03f"/><circle cx="79" cy="60" r="19" fill="#ffb84c"/><circle cx="101" cy="45" r="15" fill="#0d0000"/><circle cx="128" cy="255" r="45" fill="#00000f"/><circle cx="78" cy="127" r="19" fill="#ffbc5f"/><circle cx="110" cy="79" r="19" fill="#140012"/><circle cx="123" cy="165" r="37" fill="#130721"/><circle cx="36" cy="44" r="21" fill="#adb577"/><circle cx="10" cy="133" r="28" fill="#93482b"/><circle cx="70" cy="251" r="30" fill="#140017"/><circle cx="165" cy="94" r="36" fill="#76714f"/><circle cx="88" cy="212" r="13" fill="#b06225"/><circle cx="7" cy="237" r="36" fill="#050025"/><circle cx="79" cy="74" r="16" fill="#d69844"/><circle cx="153" r="28" fill="#506f47"/><circle cx="63" cy="99" r="14" fill="#320010"/><circle cx="92" cy="31" r="9" fill="#250000"/><circle cx="80" cy="47" r="14" fill="#e0aa48"/><circle cx="152" cy="42" r="30" fill="#939b64"/><circle cx="120" cy="106" r="16" fill="#2d090f"/><circle cx="53" cy="159" r="29" fill="#3c2129"/><circle cx="15" cy="82" r="31" fill="#48493d"/><circle cx="88" cy="112" r="16" fill="#e3a84c"/><circle cx="34" cy="191" r="12" fill="#8b4b2b"/><circle cx="54" cy="195" r="9" fill="#deb252"/><circle cx="138" cy="133" r="13" fill="#14001c"/></g></svg>