<svg xmlns="http://www.w3.org/2000/svg" width="300" height="447"><rect width="100%" height="100%" fill="#9aa06a"/><g fill-opacity=".5"><path d="m-27 444.4 354.4 3.5-143.2-475z"/><path fill="#260014" d="m327.4 437.4-351-419L2.6 474z"/><path fill="#ffc051" d="m184.2 236.6-83.8 14 43.7-225.3z"/><path fill="#20071b" d="m135.3 28.8 192 131L282 474z"/><path fill="#f8ac42" d="m77.7 400.7 1.7-78.5L187.7 364z"/><path fill="#645b33" d="M327.4-7.9 112.6 208.7-27-27.1z"/><path fill="#070019" d="m327.4 439.1-192 35 45.3-256.7z"/><path fill="#ffed77" d="m182.5 173.7-85.6 49 68.1 26.1z"/><path fill="#1f0008" d="m105.6 90 28 103-62.9-64.7z"/><path fill="#cdaa5c" d="M165 138.8-27 65.5l192-1.8z"/><path fill="#040024" d="M7.9 323.9-8 453.1l178.1 21z"/><path fill="#1d010f" d="m186 51.5 40 139.7-73.3-17.5z"/><path fill="#8c9e65" d="m224.4 121.4 103 8.7L145.8-27.1z"/><path fill="#83411a" d="m67.2 406 178.1-33.2-55.8-26.2z"/><path fill="#938b43" d="m219.1 137 22.7 70 85.6 34.8z"/><path fill="#360b15" d="m86.4 128.3 31.5 73.4-7-143.2z"/><path fill="#4e7245" d="m-27-7.9 178 49L327.4-6.2z"/><path fill="#8fa167" d="m32.3 116.1 145-104.8-204.4 47.2z"/><path fill="#e7a447" d="M107.4 131.8 131.8 48l3.5 110z"/><path fill="#a7661d" d="m175.5 234.8-8.7-62.8 62.8 43.6z"/><path fill="#260415" d="m88.2 207 82-52.5-62.8 3.5z"/><path fill="#000014" d="M282 456.6 69 437.4l176.3-57.6z"/><path fill="#c69344" d="M119.6 329.1h-89l144.9 43.7z"/><path fill="#415740" d="m327.4 131.8-111.8-28-1.7 101.4z"/><path fill="#915119" d="M81.2 203.4.9 194.7 30.6 296z"/><path fill="#3a252c" d="m7.9 289-19.2 110 261.9-186.8z"/><path fill="#19102d" d="m53.3 311.7 261.9 83.8 12.2-118.7z"/><path fill="#230308" d="m179 46.3-54.2-3.5 87.4 69.8z"/><path fill="#3d4833" d="m-20 247 125.6-134.4L-27 93.4z"/><path fill="#fcd26e" d="m100.4 231.4 29.7-47.2 45.4 45.4z"/><path fill="#6f5126" d="m81.2 236.6 90.8 7-29.7 33.2z"/><path fill="#8e9560" d="m327.4 28.8-186.8-5.2L313.4 130z"/><path fill="#b67d2f" d="m145.8 49.8 31.4 55.8-40.1 82.1z"/><path fill="#824b29" d="m91.7 420-7-70-17.5 35z"/><path fill="#f7cb60" d="m119.6 63.7 36.7 8.8-24.5 29.6z"/><path fill="#6e3d28" d="m27 330.9 42-24.5 22.7 61.2z"/><path fill="#37211a" d="m56.7 193 22.7 33 85.6-78.6z"/><path fill="#23162e" d="m213.9 224.4 80.3 216.5L275 217.4z"/><path fill="#361515" d="m182.5 213.9 54.1-7-50.6-61.1z"/><path fill="#6b3705" d="m105.6 65.5 24.5-22.7 22.7 14z"/><path fill="#aea867" d="m247 34 3.6 94.3 33.1-12.2z"/><path fill="#7a4d21" d="M173.7 90 158 109l-61-7z"/><path fill="#874a1a" d="m201.7 374.5 19.2-22.7-92.6 10.5z"/><path fill="#6d3538" d="M327.4 243.6 309.9 350l-54.1-132.7z"/><path fill="#2e5839" d="m144 .9 122.3-28 61 36.7z"/><path fill="#9ea674" d="m2.6 60.2 89 49 19.3-56z"/><path fill="#2e0e2f" d="m20 261-41.8-87.3-5.3 125.8z"/><path fill="#382731" d="m60.2 229.6 61.2 10.5-97.8 106.5z"/><path fill="#a46723" d="m124.8 187.7-26.1 28-7 38.4z"/><path fill="#495d42" d="m205.2 97 38.4-8.8-28 82z"/></g></svg>