<svg xmlns="http://www.w3.org/2000/svg" width="300" height="447"><rect width="100%" height="100%" fill="#9aa06a"/><g fill-opacity=".5"><path d="M327.4 446.1H-27.1L182.5-27z"/><path fill="#270014" d="m327.4 437.4-330 36.7L-8 35.8z"/><path fill="#ffbc4e" d="m138.8 16.6 49 220-87.4 12.2z"/><path fill="#20061b" d="M278.5 474 137.1 35.9l190.3 120.5z"/><path fill="#635932" d="m11.3 308.2 316-319.5L1-27.1z"/><path fill="#f2a640" d="M193 369.3 84.6 320.4 76 400.7z"/><path fill="#000017" d="m-27 440.9 309-78.6 45.4 111.8z"/><path fill="#fff981" d="m97 224.4 69.8 22.7V179z"/><path fill="#ccaa5d" d="m-27 63.7 199 75.1-14-78.6z"/><path fill="#2c0916" d="m49.8 271.5 82-94.3-28-103z"/><path fill="#140b27" d="M248.8 205.2 58.5 318.7 323.9 378z"/><path fill="#14000e" d="m149.3 172 45.4-113.5 22.7 117z"/><path fill="#909f63" d="m327.4 69-71.6 62.8L123.1-14.8z"/><path fill="#0b0129" d="M-6.1 474h120.5L9.6 280.3z"/><path fill="#767c43" d="m203.4 81.2 33.2 122.2 85.6 36.7z"/><path fill="#f4b750" d="m144 65.5-34.9 48.9 14 36.6z"/><path fill="#90a46b" d="m-27 37.5 52.3 82.1 115.3-83.8z"/><path fill="#373f34" d="M109.1 114.4 8 201.7-27 89.9z"/><path fill="#537243" d="M322.2-.9-27.1-2.6l160.7 52.4z"/><path fill="#d1a048" d="m135.3 337.9-96-15.7L140.6 371z"/><path fill="#674b28" d="M135.3 301.2 83 229.6l85.6 15.7z"/><path fill="#632c1b" d="m233.1 344.9-108.3 73.3L60.2 399z"/><path fill="#8b4c15" d="m175.5 170.2 7 68.1 47.1-22.7z"/><path fill="#190009" d="m131.8 42.8 85.6 71.6-33.2-64.6z"/><path fill="#3d503d" d="m203.4 135.3 29.7 66.4 94.3-92.6z"/><path fill="#945021" d="m83 203.4-54.2 87.3-28-96z"/><path fill="#523131" d="m-27 296 96-21 17.4 94.3z"/><path fill="#4d3e2c" d="m51.5 213.9 52.4-40.2L116 48z"/><path fill="#270a18" d="m109.1 152.8-31.4 69.8 75-61z"/><path fill="#000015" d="m275 461.8-26.2-85.5-143.2 61.1z"/><path fill="#f9cc69" d="m128.3 184.2 47.2 47.2-73.4-1.8z"/><path fill="#728d68" d="m56.7 175.5 31.5-26.2 10.5 31.4z"/><path fill="#f2bd53" d="M126.6 58.5 172 88.2l-57.6 3.5z"/><path fill="#0f0a1f" d="m248.8 358.8-106.5-15.7L182.5 228z"/><path fill="#8a905d" d="m126.6 20 200.8 104.8-21-101.2z"/><path fill="#a58743" d="m231.4 191.2 40.1-5.2 55.9 66.3z"/><path fill="#694420" d="m196.4 292.5 7-50.7 38.4 14z"/><path fill="#985e20" d="m170.2 90-62.8 10.4 69.8 15.7z"/><path fill="#632d06" d="m177.2 42.8-69.8 28 17.4-26.3z"/><path fill="#4d2a39" d="m327.4 254-17.5 220-59.3-267z"/><path fill="#2e0c31" d="m4.4 278.5-31.5-87.3 49 64.6z"/><path fill="#e1b04e" d="m182.5 187.7-56-5.2 47.2 45.4z"/><path fill="#d49c46" d="m109.1 110.9 61.1-5.3-36.6 54.2z"/><path fill="#713510" d="m152.8 353.6 64.6 1.7-7 33.2z"/><path fill="#3e1216" d="m88.2 135.3 22.7-68-3.5 117z"/><path fill="#32232e" d="M91.7 213.9 16.6 315.2l132.7-12.3z"/><path fill="#465e44" d="m203.4 86.4 24.5 97.8 17.4-89z"/><path fill="#2d583a" d="m327.4 9.6-90.8-36.7-117 26.2z"/><path fill="#9fa36b" d="M210.4 88.2 186 48l141.4 36.7z"/><path fill="#9ca26d" d="m-27 77.7 151.8-38.4L90 102z"/></g></svg>