<svg xmlns="http://www.w3.org/2000/svg" width="300" height="447"><g filter="blur(10px)"><rect width="200%" height="200%" x="-50%" y="-50%" fill="#9aa06a"/><rect width="100%" height="100%" fill="#9aa06a"/><g fill-opacity=".5" transform="translate(.9 .9)scale(1.75)"><circle cx="84" cy="226" r="176"/><circle cx="83" cy="122" r="21" fill="#fffe71"/><circle cx="98" cy="255" r="119" fill="#190018"/><circle cx="63" r="92" fill="#675b32"/><circle cx="62" cy="208" r="22" fill="#eda040"/><circle cx="79" cy="61" r="19" fill="#ffb64b"/><circle cx="101" cy="45" r="15" fill="#0f0000"/><circle cx="128" cy="255" r="45" fill="#00000f"/><circle cx="78" cy="126" r="19" fill="#ffbe5f"/><circle cx="110" cy="80" r="20" fill="#180013"/><circle cx="38" cy="41" r="21" fill="#aeb678"/><circle cx="123" cy="163" r="36" fill="#150821"/><circle cx="8" cy="134" r="29" fill="#93482c"/><circle cx="154" cy="30" r="44" fill="#788a59"/><circle cx="160" cy="112" r="19" fill="#9a7d4b"/><circle cx="10" cy="237" r="34" fill="#050025"/><circle cx="70" cy="249" r="28" fill="#150017"/><circle cx="79" cy="75" r="15" fill="#d79a46"/><circle cx="85" cy="212" r="13" fill="#b66929"/><circle cx="63" cy="98" r="14" fill="#300010"/><circle cx="78" cy="46" r="13" fill="#f0b74e"/><circle cx="92" cy="32" r="10" fill="#2b0000"/><circle cx="118" cy="108" r="14" fill="#30010a"/><circle cx="53" cy="155" r="25" fill="#3b2028"/><circle cx="34" cy="191" r="12" fill="#8c4b2b"/><circle cx="90" cy="112" r="15" fill="#e3a548"/><circle cx="110" cy="212" r="12" fill="#823810"/><circle cx="108" cy="51" r="11" fill="#0c0017"/><circle cx="21" cy="86" r="35" fill="#504d3b"/><circle cx="150" r="23" fill="#4e6a44"/></g></g></svg>