<svg xmlns="http://www.w3.org/2000/svg" width="300" height="447" viewBox="0 0 300 447"><g stroke-linecap="round"><path fill="rgba(131,140,93,255)" stroke="rgba(131,140,93,255)" d="M0 0h300L156 96 0 0"/><path fill="rgba(150,156,94,255)" stroke="rgba(150,156,94,255)" d="M126 101 0 0l156 96-30 5"/><path fill="rgba(139,103,79,255)" stroke="rgba(139,103,79,255)" d="M300 0v447l-22-202L300 0"/><path fill="rgba(97,112,79,255)" stroke="rgba(97,112,79,255)" d="M156 96 300 0l-22 245L156 96"/><path fill="rgba(7,3,22,255)" stroke="rgba(7,3,22,255)" d="M300 447H0l211-83 89 83"/><path fill="rgba(161,111,48,255)" stroke="rgba(161,111,48,255)" d="m0 447 107-166 104 83L0 447"/><path fill="rgba(36,28,39,255)" stroke="rgba(36,28,39,255)" d="m107 281 171-36-67 119-104-83"/><path fill="rgba(34,25,44,255)" stroke="rgba(34,25,44,255)" d="m278 245 22 202-89-83 67-119"/><path fill="rgba(90,59,37,255)" stroke="rgba(90,59,37,255)" d="M0 447V0l93 197L0 447"/><path fill="rgba(57,39,49,255)" stroke="rgba(57,39,49,255)" d="M107 281 0 447l93-250 14 84"/><path fill="rgba(168,174,120,255)" stroke="rgba(168,174,120,255)" d="m0 0 126 101-33 96L0 0"/><path fill="rgba(219,178,90,255)" stroke="rgba(219,178,90,255)" d="m126 101 30-5-63 101 33-96"/><path fill="rgba(148,109,40,255)" stroke="rgba(148,109,40,255)" d="m156 96 122 149-185-48 63-101"/><path fill="rgba(195,159,75,255)" stroke="rgba(195,159,75,255)" d="m278 245-171 36-14-84 185 48"/></g></svg>