<svg xmlns="http://www.w3.org/2000/svg" width="300" height="447"><rect width="100%" height="100%" fill="#9aa06a"/><g fill-opacity=".5"><path d="M-27 446.1h354.4L182.4-27z"/><path fill="#270014" d="m327.4 439.1-324.8 35-24.4-455.8z"/><path fill="#ffbf50" d="m100.4 248.8 42-221.7 45.3 207.7z"/><path fill="#20071b" d="M278.5 474 137.1 30.7l190.3 125.7z"/><path fill="#655d34" d="M322.2-9.6-27.1.9l132.7 213z"/><path fill="#f6aa41" d="M193 365.8 77.6 397.2l1.7-76.8z"/><path fill="#000017" d="m-27 439.1 317.7-75 36.7 110z"/><path fill="#fff27b" d="m93.4 222.6 78.6-45.4-3.5 69.9z"/><path fill="#cba75a" d="m161.5 62 12.2 76.8L-27 65.5z"/><path fill="#22000a" d="m128.3 194.7-21-122.2-34.8 59.3z"/><path fill="#080124" d="m128.3 341.4 56-113.5 143 138z"/><path fill="#15000e" d="m215.6 175.5-66.3-3.5 43.6-120.5z"/><path fill="#8d9f64" d="m327.4 114.4-96 14-90.8-155.5z"/><path fill="#0a0029" d="m-16.6 474 29.7-185 73.3 132.7z"/><path fill="#8d8842" d="M327.4 240 213.9 131.9l24.4 73.4z"/><path fill="#240013" d="m105.6 151-26.2 89 66.4-78.5z"/><path fill="#94a86e" d="m126.6 44.5-153.7-5.2 52.4 75z"/><path fill="#edaa4b" d="m137 161.5-29.6-40.1L130 60.2z"/><path fill="#547244" d="m-27-.9 165.8 50.7L327.4-1z"/><path fill="#220007" d="M179 44.5h-54.2l87.4 61.1z"/><path fill="#945219" d="m81.2 205.2-78.6-7 26.2 96z"/><path fill="#d2a24a" d="m131.8 367.6 5.3-29.7-89-14z"/><path fill="#77391a" d="m69 411.2 83.8-61.1 82 17.5z"/><path fill="#715128" d="M145.8 276.8 74.2 233l96 10.5z"/><path fill="#3a4532" d="m-27 91.7 20.9 124 117-97.8z"/><path fill="#425942" d="M203.4 97 228 200l99.5-68.2z"/><path fill="#985a1a" d="m189.5 229.6 40.1-14-76.8-55.8z"/><path fill="#8f945e" d="M264.5 128.3 149.3 20.1l178 3.5z"/><path fill="#512f2e" d="M86.4 409.5 83 290.7l-87.3-12.2z"/><path fill="#000016" d="m112.6 453.1 134.5-97.8 24.4 99.6z"/><path fill="#2d1a2b" d="M276.8 217.4 327.4 474 163.3 238.3z"/><path fill="#f9cf6d" d="m107.4 233.1 17.4-50.6 50.7 50.6z"/><path fill="#302128" d="m63.7 173.7 17.5 159 75-31.5z"/><path fill="#f2bf55" d="m110.9 88.2 62.8 1.7-43.6-29.7z"/><path fill="#401b1a" d="m103.9 154.5-22.7-14L114.4 62z"/><path fill="#a5b381" d="M95.2 117.9 49.8 77.7l48.9-7z"/><path fill="#986022" d="m107.4 100.4 69.8 15.7-8.7-28z"/><path fill="#6a481f" d="m205.2 241.8 36.6 19.2-41.9 22.7z"/><path fill="#0f0c21" d="m107.4 322.2 158.9-57.7-97.8 92.6z"/><path fill="#6a3509" d="m168.5 41-45.4 5.3-21 28z"/><path fill="#375e3d" d="M215.6-27 327.4 9.5l-235.7-7z"/><path fill="#898f57" d="m77.7 62 120.5-40.2L-27.1 34z"/><path fill="#270b2f" d="m18.3 255.8-14 21-20.9-80.4z"/><path fill="#381d1a" d="m116.1 158-59.4 45.4 120.5-48.9z"/><path fill="#947c40" d="m234.8 194.7 85.6 52.4-50.6-76.9z"/><path fill="#e5ac49" d="m170.2 105.6-21 38.5-6.9-36.7z"/><path fill="#391813" d="m184.2 177.2 3.5 42 62.9-36.7z"/><path fill="#758353" d="M105.6 34 310 2.6 327.4 62z"/><path fill="#c08f3f" d="m154.5 353.6-12.2 35L77.7 329z"/><path fill="#6d3436" d="M327.4 372.8 254 210.4l73.3 40.2z"/></g></svg>