<svg height="31" viewBox="0 0 33 31" width="33" xmlns="http://www.w3.org/2000/svg"><g fill="white" fill-rule="nonzero"><path fill="white" d="m32.5 30.704h-32c-.144 0-.28-.062-.375-.17-.095-.107-.139-.251-.121-.394l2.592-20.337c.032-.249.245-.437.496-.437h26.816c.251 0 .464.188.496.437l2.592 20.337c.018.143-.026.286-.121.394-.095.109-.231.17-.375.17zm-31.432-1h30.864l-2.464-19.337h-25.936z"/><path fill="white" d="m16.5 10.367c-2.777 0-5.036-2.259-5.036-5.035 0-2.777 2.259-5.036 5.036-5.036s5.036 2.259 5.036 5.036c0 2.776-2.259 5.035-5.036 5.035zm0-9.071c-2.225 0-4.036 1.811-4.036 4.036s1.811 4.035 4.036 4.035 4.036-1.811 4.036-4.035c0-2.225-1.811-4.036-4.036-4.036z"/><path fill="white" d="m10.978744 15v11.6714976h-1.978744v-11.4550725zm4.9004831 3.4937198-2.720773 3.6019324 2.9835749 4.5758454h-2.2724638l-2.8135266-4.4676329 2.7362319-3.7101449zm6.6782608 2.5198068c.7317267.1339781 1.3217369.3967774 1.7700483.7884058.4483115.3916283.6724638.9893679.6724638 1.7932367 0 1.113049-.3916225 1.9040234-1.1748792 2.3729468-.7832568.4689235-1.8808303.7033817-3.2927537.7033817h-3.2154589v-10.6821256h2.7980676c2.9475188 0 4.4212561.9069152 4.4212561 2.7207729 0 .6286666-.1906583 1.1413829-.5719807 1.5381643-.3813223.3967814-.8502388.6518513-1.4067633.7652174zm-3.2-3.5246377v2.8908212h1.2521739c.5668306 0 1.0151353-.1262467 1.3449276-.3787439.3297923-.2524973.494686-.6260845.494686-1.120773 0-.5153004-.1726231-.8760054-.5178744-1.0821256-.3452514-.2061202-.8837323-.3091787-1.615459-.3091787zm1.1903382 7.6521739c.7523387 0 1.3268901-.1133644 1.7236715-.3400966s.5951691-.6544252.5951691-1.2830918c0-.6080546-.1880819-1.0460534-.5642512-1.3140097-.3761694-.2679562-.8888857-.4019323-1.5381643-.4019323h-1.4067633v3.3391304z"/></g></svg>
