<svg xmlns="http://www.w3.org/2000/svg" width="800" height="500"><path fill="#5489b0" d="M0 0h100v100H0z"/><path fill="#538db5" d="M100 0h100v100H100z"/><path fill="#7493a6" d="M200 0h100v100H200z"/><path fill="#a89a8d" d="M300 0h100v100H300z"/><path fill="#b49a84" d="M400 0h100v100H400z"/><path fill="#9f9184" d="M500 0h100v100H500z"/><path fill="#768f9c" d="M600 0h100v100H600z"/><path fill="#558db1" d="M700 0h100v100H700z"/><path fill="#729cb8" d="M0 100h100v100H0z"/><path fill="#739fbc" d="M100 100h100v100H100z"/><path fill="#8da8b1" d="M200 100h100v100H200z"/><path fill="#acaea1" d="M300 100h100v100H300z"/><path fill="#b3a188" d="M400 100h100v100H400z"/><path fill="#b3a38a" d="M500 100h100v100H500z"/><path fill="#a5a698" d="M600 100h100v100H600z"/><path fill="#7d9fb2" d="M700 100h100v100H700z"/><path fill="#5f8fa9" d="M0 200h100v100H0z"/><path fill="#6192ab" d="M100 200h100v100H100z"/><path fill="#5c93ae" d="M200 200h100v100H200z"/><path fill="#5895b4" d="M300 200h100v100H300z"/><path fill="#5891ac" d="M400 200h100v100H400z"/><path fill="#5c8ba6" d="M500 200h100v100H500z"/><path fill="#5e839a" d="M600 200h100v100H600z"/><path fill="#558eaa" d="M700 200h100v100H700z"/><path fill="#457b91" d="M0 300h100v100H0z"/><path fill="#467e93" d="M100 300h100v100H100z"/><path fill="#488093" d="M200 300h100v100H200z"/><path fill="#4a8193" d="M300 300h100v100H300z"/><path fill="#528694" d="M400 300h100v100H400z"/><path fill="#6a5248" d="M500 300h100v100H500z"/><path fill="#605b56" d="M600 300h100v100H600z"/><path fill="#4b8a9e" d="M700 300h100v100H700z"/><path fill="#a1aba4" d="M0 400h100v100H0z"/><path fill="#a7b0a7" d="M100 400h100v100H100z"/><path fill="#acb5aa" d="M200 400h100v100H200z"/><path fill="#b5bdb0" d="M300 400h100v100H300z"/><path fill="#989587" d="M400 400h100v100H400z"/><path fill="#534340" d="M500 400h100v100H500z"/><path fill="#525a5d" d="M600 400h100v100H600z"/><path fill="#656f6f" d="M700 400h100v100H700z"/></svg>