<svg xmlns="http://www.w3.org/2000/svg" viewBox="0 0 1024 640"><path fill="#718d95" d="M0 0h1024v640H0z"/><g transform="matrix(4 0 0 4 2 2)" fill-opacity=".5"><ellipse fill="#ffb742" cx="150" cy="30" rx="74" ry="17"/><ellipse fill="#461905" rx="1" ry="1" transform="matrix(-10.46851 53.34125 -35.65535 -6.99756 191.3 143.2)"/><ellipse fill="#fffacc" rx="1" ry="1" transform="matrix(-.49532 -14.1265 88.8547 -3.1155 59.6 152.3)"/><ellipse fill="#217795" cx="48" cy="105" rx="133" ry="25"/><ellipse fill="#1d171a" cx="206" cy="153" rx="63" ry="13"/><ellipse fill="#3189a2" rx="1" ry="1" transform="rotate(-137.7 136 10) scale(20.68723 40.16085)"/><ellipse fill="#599cd1" cx="33" cy="29" rx="43" ry="58"/><ellipse fill="#80afcd" cx="121" cy="62" rx="253" ry="20"/><ellipse fill="#ffa258" cx="145" cy="30" rx="71" ry="14"/><path fill="#388ecf" d="M271-16H35l163.2 39.3L271 50.5z"/><path fill="#930000" d="M171.7 134.7l11.7-39 27-9-11 33.4z"/><path fill="#e5dcc1" d="M162 135h94v5h-94z"/><ellipse fill="#13789e" cx="182" cy="86" rx="188" ry="5"/><path fill="#ff900d" d="M196.9 41.6l24.3-8h8.5L226.9 49z"/><path fill="#e3cdb3" d="M14 148.2L160.8 175 137 126.6l-2.7 8z"/><path fill="#9b4b0a" d="M152.6 54.2l-7 79 1.3-66 5.6-38z"/><ellipse fill="#367fb6" cx="63" cy="5" rx="83" ry="12"/><ellipse fill="#70a6c5" cx="96" cy="54" rx="52" ry="16"/><path fill="#dacaa6" d="M128 143.5v-7h40v7z"/><path fill="#e78124" d="M165.3 48.4l-20-19.4 1 1.8 57.6-1.5z"/><path fill="#630000" d="M193 128l3-39-25 46z"/><ellipse fill="#ffa673" rx="1" ry="1" transform="matrix(.96666 8.2917 -45.9033 5.35148 129.7 23.5)"/><path fill="#4d818b" d="M213 135.5l42.2.2 4.3-58.6-86.2 66.1z"/><ellipse fill="#8c5a1f" cx="146" cy="135" rx="3" ry="21"/><path fill="#1b6680" d="M207 85h49v15h-49z"/><path fill="#5a888d" d="M136.8 136.5l48.3-55.4-9.7 40.8-72.1 16z"/><path fill="#ffdb6f" d="M145.2 33.3L69.8 39l9.5-12.5 26 13.9z"/><ellipse fill="#333a3f" cx="193" cy="147" rx="38" ry="9"/><ellipse fill="#ffeac8" cx="247" cy="139" rx="16" ry="3"/><path fill="#791900" d="M207.3 90.6L165.2 133l-14.6-6.2 44 .5z"/><ellipse fill="#d2c6b3" cy="158" rx="152" ry="19"/><path fill="#ffdf67" d="M231 37l-14 7-1-11z"/><ellipse fill="#3988c0" cx="155" cy="43" rx="5" ry="5"/><path fill="#872300" d="M184 92l-11 40 40-45z"/><path fill="#ffdf5a" d="M182 35l27 3-47 8z"/><ellipse fill="#839d94" cx="218" cy="130" rx="27" ry="7"/><ellipse fill="#343133" cx="231" cy="159" rx="64" ry="16"/><path fill="#ffad40" d="M155 27l-9 17-63-17z"/><ellipse fill="#4e88b1" cx="28" rx="88" ry="30"/><path fill="#3b393d" d="M215.2 112.2l3.6-24.5-5.7-.6-4.3 20.3z"/><path fill="#ffca8d" d="M112 14h43v5h-43z"/><ellipse fill="#7898ac" cx="27" cy="62" rx="49" ry="20"/><path fill="#68a0bf" d="M100 33L87 47l27 19z"/><path fill="#187895" d="M159 100l47-18-53 4z"/><path fill="#659cc0" d="M256 19l-56 1 58 30z"/><path fill="#a73300" d="M213 32l-1 13-8-3z"/><path fill="#af3b00" d="M152 32h14v7h-14z"/><path fill="#f7e4c5" d="M203 136h32v3h-32z"/><path fill="#4a3f3b" d="M186.3 137.8l18.5 37.2-59-23-1.2-5.5z"/><ellipse fill="#5a918d" cx="65" cy="128" rx="78" ry="6"/></g></svg>
