<svg xmlns="http://www.w3.org/2000/svg" viewBox="0 0 1024 640"><filter id="b"><feGaussianBlur stdDeviation="12" /></filter><path fill="#718d95" d="M0 0h1024v640H0z"/><g filter="url(#b)" transform="matrix(4 0 0 4 2 2)" fill-opacity=".5"><ellipse fill="#ffb537" rx="1" ry="1" transform="matrix(-.69477 15.09326 -73.63328 -3.3895 153.3 29.8)"/><ellipse fill="#451b08" cx="194" cy="159" rx="42" ry="71"/><path fill="#fffdce" d="M144.3 178.2l-144 2.6-.6-41 144-2.6z"/><ellipse fill="#257a94" rx="1" ry="1" transform="matrix(.30133 26.53599 -102.15836 1.16007 79.4 107)"/><ellipse fill="#72acd5" rx="1" ry="1" transform="matrix(-7.23156 25.55579 -113.06006 -31.99277 32.6 42.1)"/><ellipse fill="#348ba2" rx="1" ry="1" transform="matrix(-32.02107 22.39198 -14.60082 -20.87953 235.8 110.4)"/><ellipse fill="#ffa866" rx="1" ry="1" transform="matrix(1.42842 13.93954 -59.44968 6.09196 132 28)"/></g></svg>
