<svg xmlns="http://www.w3.org/2000/svg" width="800" height="1200"><path fill="#6c7b4e" d="M0 0h100v100H0z"/><path fill="#697a4a" d="M100 0h100v100H100z"/><path fill="#6a7948" d="M200 0h100v100H200z"/><path fill="#687649" d="M300 0h100v100H300z"/><path fill="#6c7d4f" d="M400 0h100v100H400z"/><path fill="#6c7c49" d="M500 0h100v100H500z"/><path fill="#67794d" d="M600 0h100v100H600z"/><path fill="#687a51" d="M700 0h100v100H700z"/><path fill="#8e9660" d="M0 100h100v100H0z"/><path fill="#959a62" d="M100 100h100v100H100z"/><path fill="#92955c" d="M200 100h100v100H200z"/><path fill="#937a3f" d="M300 100h100v100H300z"/><path fill="#58462b" d="M400 100h100v100H400z"/><path fill="#7b8255" d="M500 100h100v100H500z"/><path fill="#959a62" d="M600 100h100v100H600z"/><path fill="#8e925d" d="M700 100h100v100H700z"/><path fill="#787c53" d="M0 200h100v100H0z"/><path fill="#8f9360" d="M100 200h100v100H100z"/><path fill="#897b52" d="M200 200h100v100H200z"/><path fill="#c69846" d="M300 200h100v100H300z"/><path fill="#6a4726" d="M400 200h100v100H400z"/><path fill="#3f4136" d="M500 200h100v100H500z"/><path fill="#969e63" d="M600 200h100v100H600z"/><path fill="#9a9b65" d="M700 200h100v100H700z"/><path fill="#4b4b38" d="M0 300h100v100H0z"/><path fill="#51553b" d="M100 300h100v100H100z"/><path fill="#54402e" d="M200 300h100v100H200z"/><path fill="#ae803d" d="M300 300h100v100H300z"/><path fill="#68482b" d="M400 300h100v100H400z"/><path fill="#272628" d="M500 300h100v100H500z"/><path fill="#586648" d="M600 300h100v100H600z"/><path fill="#656c50" d="M700 300h100v100H700z"/><path fill="#434036" d="M0 400h100v100H0z"/><path fill="#575941" d="M100 400h100v100H100z"/><path fill="#433930" d="M200 400h100v100H200z"/><path fill="#623f25" d="M300 400h100v100H300z"/><path fill="#644425" d="M400 400h100v100H400z"/><path fill="#2d2323" d="M500 400h100v100H500z"/><path fill="#525a3c" d="M600 400h100v100H600z"/><path fill="#545643" d="M700 400h100v100H700z"/><path fill="#695035" d="M0 500h100v100H0z"/><path fill="#695029" d="M100 500h100v100H100z"/><path fill="#513524" d="M200 500h100v100H200z"/><path fill="#d4af5a" d="M300 500h100v100H300z"/><path fill="#d0a74c" d="M400 500h100v100H400z"/><path fill="#48291b" d="M500 500h100v100H500z"/><path fill="#59492d" d="M600 500h100v100H600z"/><path fill="#7e6d44" d="M700 500h100v100H700z"/><path fill="#79482f" d="M0 600h100v100H0z"/><path fill="#64402b" d="M100 600h100v100H100z"/><path fill="#4f392a" d="M200 600h100v100H200z"/><path fill="#af8d4a" d="M300 600h100v100H300z"/><path fill="#7f643b" d="M400 600h100v100H400z"/><path fill="#3e2c22" d="M500 600h100v100H500z"/><path fill="#2a1b27" d="M600 600h100v100H600z"/><path fill="#61413c" d="M700 600h100v100H700z"/><path fill="#644739" d="M0 700h100v100H0z"/><path fill="#483232" d="M100 700h100v100H100z"/><path fill="#281c29" d="M200 700h100v100H200z"/><path fill="#3a2824" d="M300 700h100v100H300z"/><path fill="#211922" d="M400 700h100v100H400z"/><path fill="#2e1f22" d="M500 700h100v100H500z"/><path fill="#271b27" d="M600 700h100v100H600z"/><path fill="#473339" d="M700 700h100v100H700z"/><path fill="#433035" d="M0 800h100v100H0z"/><path fill="#50322b" d="M100 800h100v100H100z"/><path fill="#48322d" d="M200 800h100v100H200z"/><path fill="#2f212a" d="M300 800h100v100H300z"/><path fill="#121126" d="M400 800h100v100H400z"/><path fill="#140d22" d="M500 800h100v100H500z"/><path fill="#1d1125" d="M600 800h100v100H600z"/><path fill="#362d3a" d="M700 800h100v100H700z"/><path fill="#2c1e32" d="M0 900h100v100H0z"/><path fill="#3f2629" d="M100 900h100v100H100z"/><path fill="#9f743a" d="M200 900h100v100H200z"/><path fill="#9c6f38" d="M300 900h100v100H300z"/><path fill="#472c24" d="M400 900h100v100H400z"/><path fill="#3a1d1e" d="M500 900h100v100H500z"/><path fill="#1f1328" d="M600 900h100v100H600z"/><path fill="#2b2235" d="M700 900h100v100H700z"/><path fill="#1a1129" d="M0 1000h100v100H0z"/><path fill="#261626" d="M100 1000h100v100H100z"/><path fill="#72482b" d="M200 1000h100v100H200z"/><path fill="#6c4127" d="M300 1000h100v100H300z"/><path fill="#4c271e" d="M400 1000h100v100H400z"/><path fill="#2d1419" d="M500 1000h100v100H500z"/><path fill="#130a1c" d="M600 1000h100v100H600z"/><path fill="#29192a" d="M700 1000h100v100H700z"/><path fill="#170d26" d="M0 1100h100v100H0z"/><path fill="#1c0e22" d="M100 1100h100v100H100z"/><path fill="#210c1f" d="M200 1100h100v100H200z"/><path fill="#17091e" d="M300 1100h100v100H300z"/><path fill="#08051c" d="M400 1100h100v100H400z"/><path fill="#04031a" d="M500 1100h100v100H500z"/><path fill="#090518" d="M600 1100h100v100H600z"/><path fill="#1a0d20" d="M700 1100h100v100H700z"/></svg>