<svg xmlns="http://www.w3.org/2000/svg" viewBox="0 0 1200 1788"><filter id="b"><feGaussianBlur stdDeviation="12" /></filter><path fill="#534832" d="M0 0h1201v1788H0z"/><g filter="url(#b)" transform="translate(3.5 3.5) scale(6.98438)" fill-opacity=".5"><ellipse fill="#a1b164" cx="110" cy="28" rx="133" ry="44"/><ellipse fill="#0e0015" cx="87" cy="244" rx="104" ry="104"/><ellipse fill="#fff966" rx="1" ry="1" transform="rotate(-45.2 187.7 -38.1) scale(26.34783 18.32558)"/><ellipse fill="#efa73f" rx="1" ry="1" transform="matrix(25.58955 7.86834 -5.21484 16.9598 64.4 207)"/><path fill="#090001" d="M87 17l29 134 10-100z"/><ellipse fill="#fbac3c" rx="1" ry="1" transform="matrix(.2442 -27.9831 16.5392 .14434 78.6 61.5)"/><ellipse fill="#000014" rx="1" ry="1" transform="matrix(-2.79463 -20.34081 169.4086 -23.27508 95 246.5)"/><ellipse fill="#ffcd66" rx="1" ry="1" transform="rotate(-172.9 45 59.5) scale(20.18128 15.79794)"/></g></svg>