<svg xmlns="http://www.w3.org/2000/svg" viewBox="0 0 1200 1788"><filter id="b"><feGaussianBlur stdDeviation="3" /></filter><path fill="#534832" d="M0 0h1201v1788H0z"/><g filter="url(#b)" fill-opacity=".5"><path fill="#a5b366" d="M-108.3 289.9l1417.9 272.3L1128-108.3z"/><path fill="#0d0012" d="M-108.3 1777.5L939.4 681l370.2 1103.5z"/><path fill="#fdc14d" d="M506.4 52.4l-69.9 935.9 321.3-48.9z"/><path fill="#f9ad3f" d="M331.8 1281.6l-35 321.3 468-139.7z"/><path fill="#020000" d="M778.8 883.5l111.7-475L604.1 80.4z"/><path fill="#8da461" d="M143.2 583.2L757.8 24.4l-866-27.9z"/><path fill="#170009" d="M296.8 869.6L408.6 625l419-48.9z"/><path fill="#ffed77" d="M401.6 911.5l314.3 69.8L576.2 674z"/><path fill="#1a041f" d="M548.3 1100L296.8 848.6l-405 908z"/><path fill="#000013" d="M-108.3 1763.6L1114 1470.2l139.7 426z"/><path fill="#aab572" d="M1079 492.4L771.9 227l537.8-97.8z"/><path fill="#a79a49" d="M1086 688l-174.5 97.7 398 195.6z"/><path fill="#280205" d="M834.6 429.5l-412-293.3L764.8 213z"/><path fill="#bc9850" d="M-108.3 303.8L688 527.3 667 262z"/><path fill="#0c0929" d="M303.8 1288.6l922 202.6-132.7-440z"/><path fill="#9f5c23" d="M310.8 834.6L24.4 785.7l69.9 412.1z"/><path fill="#33060c" d="M352.7 492.4l118.7 286.4-27.9-523.9z"/><path fill="#0b0328" d="M324.8 1630.9l-258.4-447-146.7 705.4z"/><path fill="#83561a" d="M764.8 771.8L583.2 1058l342.2-209.5z"/><path fill="#743815" d="M960.4 1470.2L660 1400.4l-377 230.5z"/><path fill="#557845" d="M-108.3-59.4l1417.9 69.9L520.3 185z"/><path fill="#cb9b42" d="M164.1 1288.6l370.2 62.9 83.8 174.6z"/><path fill="#436045" d="M1260.7 555.3L911.5 813.7l-90.8-454z"/><path fill="#250e18" d="M743.8 206l181.6 614.7L625.1 660z"/><path fill="#e6b24c" d="M436.5 436.5l251.5 7-230.5 104.8z"/><path fill="#3d4130" d="M-108.3 688l698.5-14L199 380.6z"/><path fill="#f5cc63" d="M729.9 695l-42 244.4-279.3-14z"/><path fill="#96a269" d="M-108.3 115.2l593.7 21-167.6 335.2z"/><path fill="#523029" d="M-59.4 1037.2l398.1 628.6-21-391.2z"/><path fill="#593e22" d="M373.7 897.5L639 1030.2l-104.8 223.5z"/><path fill="#5b2200" d="M674 164.1L443.5 269l42-76.8z"/><path fill="#290c17" d="M262 1016.2L562.1 667l-97.7-83.8z"/><path fill="#000014" d="M1107 1889.3l-111.7-461-468 328.3z"/><path fill="#834b15" d="M702 436.5l-265.5-34.9L688 359.7z"/><path fill="#080b1e" d="M604.1 1421.3l251.5-21-111.8-495.8z"/><path fill="#667852" d="M352.7 576.2l42 139.7-335.3 35z"/><path fill="#815721" d="M541.3 464.5v258.4l258.4 48.9z"/><path fill="#f9cb5d" d="M534.3 422.6l55.9-174.7-132.7 35z"/><path fill="#7e8e58" d="M499.4 94.3l810.2-48.9-405.1 244.5z"/><path fill="#2f2439" d="M1016.2 855.6l293.4 705.4-237.6 49z"/><path fill="#275635" d="M1142-108.3L702 24.4l579.6-7z"/><path fill="#723e1c" d="M555.3 1442.3l356.2-35-426 265.5z"/><path fill="#b08831" d="M911.5 869.6l-181.6 48.8 69.8-69.8z"/><path fill="#100c25" d="M380.6 1428.3L129.2 1568l-62.8-146.7z"/><path fill="#aaa968" d="M1030.2 520.3l209.5-216.5-286.3-21z"/><path fill="#9c713e" d="M171.1 1128l-195.5-7 251.4-97.8z"/><path fill="#7f884e" d="M-73.3 45.4l810.2 97.8L115.2 234z"/><path fill="#62431f" d="M771.8 1197.8l195.5-174.6-139.7-14z"/><path fill="#daa749" d="M576.2 611.1l-118.7-76.8 76.8 104.8z"/><path fill="#545e4b" d="M1309.6 485.4l-104.8 391.1-244.4-377.1z"/></g></svg>
