<svg xmlns="http://www.w3.org/2000/svg" viewBox="0 0 512 709"><filter id="b"><feGaussianBlur stdDeviation="12" /></filter><path fill="#596135" d="M0 0h512v709H0z"/><g filter="url(#b)" transform="translate(1.4 1.4) scale(2.76953)" fill-opacity=".5"><ellipse rx="1" ry="1" transform="matrix(-75.04105 2.09609 -2.58201 -92.43748 54.9 193.6)"/><ellipse fill="#adbb6b" rx="1" ry="1" transform="matrix(-148.8336 -108.18761 44.91958 -61.79583 166 77.5)"/><ellipse fill="#000003" rx="1" ry="1" transform="rotate(-67.2 108.6 -52.7) scale(15.9233 37.60699)"/><ellipse fill="#c3d63d" rx="1" ry="1" transform="matrix(-33.25183 51.94447 -28.94837 -18.53106 184 139.6)"/><ellipse fill="#000004" cx="33" cy="186" rx="64" ry="64"/><ellipse fill="#9eba38" rx="1" ry="1" transform="matrix(17.3697 18.19294 -76.88954 73.41022 24 66.7)"/><path fill="#3c343d" d="M141 176l10-69-100 27z"/><ellipse fill="#948cc2" rx="1" ry="1" transform="matrix(-28.4105 -14.11564 8.8223 -17.7566 103 97.4)"/></g></svg>