<svg xmlns="http://www.w3.org/2000/svg" width="800" height="1100"><path fill="#809a25" d="M0 0h100v100H0z"/><path fill="#9cb047" d="M100 0h100v100H100z"/><path fill="#85a032" d="M200 0h100v100H200z"/><path fill="#94ac38" d="M300 0h100v100H300z"/><path fill="#98ac2f" d="M400 0h100v100H400z"/><path fill="#a0ac3c" d="M500 0h100v100H500z"/><path fill="#8ca055" d="M600 0h100v100H600z"/><path fill="#889a68" d="M700 0h100v100H700z"/><path fill="#5e8017" d="M0 100h100v100H0z"/><path fill="#849b44" d="M100 100h100v100H100z"/><path fill="#869f35" d="M200 100h100v100H200z"/><path fill="#97ad5c" d="M300 100h100v100H300z"/><path fill="#8c9d61" d="M400 100h100v100H400z"/><path fill="#8ea23e" d="M500 100h100v100H500z"/><path fill="#9baf57" d="M600 100h100v100H600z"/><path fill="#9da480" d="M700 100h100v100H700z"/><path fill="#698c1d" d="M0 200h100v100H0z"/><path fill="#75962b" d="M100 200h100v100H100z"/><path fill="#7d9642" d="M200 200h100v100H200z"/><path fill="#575d39" d="M300 200h100v100H300z"/><path fill="#2d2927" d="M400 200h100v100H400z"/><path fill="#575857" d="M500 200h100v100H500z"/><path fill="#96a456" d="M600 200h100v100H600z"/><path fill="#8d994e" d="M700 200h100v100H700z"/><path fill="#91a533" d="M0 300h100v100H0z"/><path fill="#839541" d="M100 300h100v100H100z"/><path fill="#46473d" d="M200 300h100v100H200z"/><path fill="#6f6d6e" d="M300 300h100v100H300z"/><path fill="#807c75" d="M400 300h100v100H400z"/><path fill="#3e3935" d="M500 300h100v100H500z"/><path fill="#626a38" d="M600 300h100v100H600z"/><path fill="#8d9f39" d="M700 300h100v100H700z"/><path fill="#7a893f" d="M0 400h100v100H0z"/><path fill="#373522" d="M100 400h100v100H100z"/><path fill="#232118" d="M200 400h100v100H200z"/><path fill="#66655e" d="M300 400h100v100H300z"/><path fill="#97999b" d="M400 400h100v100H400z"/><path fill="#86838c" d="M500 400h100v100H500z"/><path fill="#8b944d" d="M600 400h100v100H600z"/><path fill="#96ad2b" d="M700 400h100v100H700z"/><path fill="#2f3029" d="M0 500h100v100H0z"/><path fill="#080904" d="M100 500h100v100H100z"/><path fill="#212013" d="M200 500h100v100H200z"/><path fill="#58472a" d="M300 500h100v100H300z"/><path fill="#635b47" d="M400 500h100v100H400z"/><path fill="#49494a" d="M500 500h100v100H500z"/><path fill="#868d54" d="M600 500h100v100H600z"/><path fill="#adc232" d="M700 500h100v100H700z"/><path fill="#11120b" d="M0 600h100v100H0z"/><path fill="#020300" d="M100 600h100v100H100z"/><path fill="#0c0d05" d="M200 600h100v100H200z"/><path fill="#2d2b1b" d="M300 600h100v100H300z"/><path fill="#3b3826" d="M400 600h100v100H400z"/><path fill="#2f2d27" d="M500 600h100v100H500z"/><path fill="#879332" d="M600 600h100v100H600z"/><path fill="#a3b52e" d="M700 600h100v100H700z"/><path fill="#11120b" d="M0 700h100v100H0z"/><path fill="#040401" d="M100 700h100v100H100z"/><path d="M200 700h100v100H200z"/><path fill="#060803" d="M300 700h100v100H300z"/><path fill="#080a04" d="M400 700h100v100H400z"/><path fill="#312f29" d="M500 700h100v100H500z"/><path fill="#92a153" d="M600 700h100v100H600z"/><path fill="#a1b638" d="M700 700h100v100H700z"/><path fill="#12130c" d="M0 800h100v100H0z"/><path fill="#0e0e08" d="M100 800h100v100H100z"/><path fill="#0b0b05" d="M200 800h100v100H200z"/><path fill="#0c0c07" d="M300 800h100v100H300z"/><path fill="#15150e" d="M400 800h100v100H400z"/><path fill="#494740" d="M500 800h100v100H500z"/><path fill="#76833b" d="M600 800h100v100H600z"/><path fill="#5f7109" d="M700 800h100v100H700z"/><path fill="#151610" d="M0 900h100v100H0z"/><path fill="#1c1b15" d="M100 900h100v100H100z"/><path fill="#1b1b15" d="M200 900h100v100H200z"/><path fill="#202019" d="M300 900h100v100H300z"/><path fill="#302e2b" d="M400 900h100v100H400z"/><path fill="#585744" d="M500 900h100v100H500z"/><path fill="#747a27" d="M600 900h100v100H600z"/><path fill="#524f09" d="M700 900h100v100H700z"/><path fill="#13130c" d="M0 1000h100v100H0z"/><path fill="#1a1b16" d="M100 1000h100v100H100z"/><path fill="#20211b" d="M200 1000h100v100H200z"/><path fill="#272721" d="M300 1000h100v100H300z"/><path fill="#383633" d="M400 1000h100v100H400z"/><path fill="#5d5e38" d="M500 1000h100v100H500z"/><path fill="#7a8825" d="M600 1000h100v100H600z"/><path fill="#697916" d="M700 1000h100v100H700z"/></svg>