<svg xmlns="http://www.w3.org/2000/svg" viewBox="0 0 512 709"><path fill="#596135" d="M0 0h512v709H0z"/><g transform="translate(1.4 1.4) scale(2.76953)" fill-opacity=".5"><ellipse cx="50" cy="188" rx="83" ry="83"/><ellipse fill="#afbc6b" rx="1" ry="1" transform="matrix(-45.72363 46.26393 -130.86959 -129.34122 127.4 57.7)"/><ellipse fill="#000002" rx="1" ry="1" transform="matrix(-34.8975 -17.12 6.88698 -14.03846 117.5 69.9)"/><ellipse fill="#9dba34" rx="1" ry="1" transform="rotate(-60.6 49.5 2.9) scale(84.35059 37.5307)"/><ellipse fill="#000002" cx="37" cy="183" rx="59" ry="59"/><ellipse fill="#c4d83b" rx="1" ry="1" transform="matrix(-24.2673 -11.82064 25.41182 -52.16943 176.5 143.7)"/><path fill="#433a42" d="M152.5 102.2l-8.6 61.7-99.3-30.6 83.7-19z"/><ellipse fill="#938abf" rx="1" ry="1" transform="matrix(8.66099 -16.8704 30.53608 15.67673 105.4 97)"/><ellipse fill="#181228" rx="1" ry="1" transform="matrix(36.83894 -33.63858 8.25766 9.04329 63.7 82.3)"/><ellipse fill="#a8b865" rx="1" ry="1" transform="rotate(-81.9 91.7 -85) scale(46.74568 95.46575)"/><ellipse fill="#909a3e" rx="1" ry="1" transform="rotate(-112.3 152.5 65.5) scale(46.00015 14.38777)"/><path fill="#3a5d00" d="M28.3 66.2l-19 .6-1.6-45 19-.6z"/><path fill="#111113" d="M138 106l-5 70-61 57z"/><ellipse fill="#87a000" rx="1" ry="1" transform="matrix(36.16155 12.8089 -2.8323 7.99604 118 22.7)"/><ellipse fill="#acb2ae" cx="169" cy="26" rx="19" ry="19"/><path fill="#f0e9ee" d="M35.6 1.6L41 9.7l1.9.4-14.4 39z"/><path fill="#d4e182" d="M145 46.3l19.4 78.6-14.9 10.9 1.8-89.6z"/><path fill="#7c7561" d="M106 151L77 42l-3 93z"/><ellipse fill="#504b58" rx="1" ry="1" transform="matrix(17.88828 -47.43363 13.11435 4.94572 121.7 218.3)"/><ellipse fill="#000004" rx="1" ry="1" transform="matrix(30.99557 16.82922 -3.24546 5.97739 119.7 64.6)"/><path fill="#a9b5a1" d="M63 28.6l62 8.4-5.6 14-56.6-10.2z"/><ellipse fill="#b7c463" rx="1" ry="1" transform="rotate(-122.5 33.5 34.2) scale(11.79946 17.58121)"/><ellipse fill="#566f00" rx="1" ry="1" transform="matrix(5.72755 .33265 -1.56994 27.03127 59 33.6)"/><ellipse fill="#505500" rx="1" ry="1" transform="rotate(-104.7 169.4 40.9) scale(29.21741 15.40348)"/><path fill="#8ea304" d="M175.1 109l1.2 44.7-25.2-59.3 37.7-25z"/></g></svg>
